<svg width="42" height="36" viewBox="0 0 42 36" fill="none" xmlns="http://www.w3.org/2000/svg">
<path fill-rule="evenodd" clip-rule="evenodd" d="M4.02162 26.2288C4.42356 23.9654 6.63946 22.5175 8.97097 22.9948L11.3613 23.4841L2.35559 16.3705C0.758592 15.109 0.237189 12.9612 1.1036 11.2132C1.97002 9.46515 3.98955 8.59044 5.95288 9.11283L18.937 12.5675L14.7952 6.81261C13.7792 5.40104 13.7127 3.56087 14.6265 2.15256C15.5404 0.74424 17.2542 0.0460668 18.9665 0.384501L37.582 4.06384C39.9163 4.5252 41.496 6.73667 41.1105 9.00329C40.7249 11.2699 38.52 12.7334 36.1858 12.272L27.8269 10.6199L32.6021 17.2549C33.6488 18.7093 33.685 20.6132 32.6928 22.0306C31.7005 23.448 29.8887 24.0806 28.1481 23.6175L23.2707 22.3198L30.2678 27.8468C31.8265 29.078 32.3652 31.159 31.5735 32.8913C30.7817 34.6236 28.8635 35.5611 26.9235 35.164L7.51541 31.191C5.1839 30.7138 3.61968 28.4921 4.02162 26.2288Z" fill="#FDCB89" fill-opacity="0.6"/>
</svg>
