<svg width="8" height="12" viewBox="0 0 8 12" fill="none" xmlns="http://www.w3.org/2000/svg">
<path d="M1.9642 0.571442L6.94223 5.54947C7.19113 5.79837 7.19113 6.20567 6.94223 6.45457C6.69333 6.70347 6.28604 6.70347 6.03713 6.45457L1.0591 1.47654C0.8102 1.22764 0.8102 0.820343 1.0591 0.571442C1.308 0.32254 1.7153 0.32254 1.9642 0.571442Z" fill="#FD2E35"/>
<path d="M6.94223 6.44644L1.9642 11.4245C1.71529 11.6734 1.308 11.6734 1.0591 11.4245C0.810197 11.1756 0.810197 10.7683 1.0591 10.5194L6.03713 5.54135C6.28603 5.29244 6.69333 5.29244 6.94223 5.54135C7.19113 5.79025 7.19113 6.19754 6.94223 6.44644Z" fill="#FD2E35"/>
</svg>
