<svg width="8" height="12" viewBox="0 0 8 12" fill="none" xmlns="http://www.w3.org/2000/svg">
<path d="M6.0358 11.4286L1.05777 6.45053C0.808868 6.20163 0.808868 5.79433 1.05777 5.54543C1.30667 5.29653 1.71396 5.29653 1.96287 5.54543L6.9409 10.5235C7.1898 10.7724 7.1898 11.1797 6.9409 11.4286C6.692 11.6775 6.2847 11.6775 6.0358 11.4286Z" fill="#FD2E35"/>
<path d="M1.05777 5.55356L6.0358 0.575526C6.28471 0.326625 6.692 0.326625 6.9409 0.575526C7.1898 0.824427 7.1898 1.23172 6.9409 1.48062L1.96287 6.45865C1.71397 6.70756 1.30667 6.70756 1.05777 6.45865C0.808871 6.20975 0.808871 5.80246 1.05777 5.55356Z" fill="#FD2E35"/>
</svg>
