<svg width="24" height="25" fill="none" xmlns="http://www.w3.org/2000/svg"><path d="M16.481 2.217H7.52A5.526 5.526 0 002 7.736v8.962a5.525 5.525 0 005.519 5.519h8.961a5.526 5.526 0 005.52-5.52v-8.96a5.526 5.526 0 00-5.519-5.52zm3.744 14.482a3.748 3.748 0 01-3.745 3.744H7.52A3.749 3.749 0 013.775 16.7V7.736A3.749 3.749 0 017.519 3.99h8.961a3.75 3.75 0 013.745 3.745v8.963z" fill="#221429" stroke="#fff" stroke-width=".5"/><path d="M12 7.064a5.159 5.159 0 00-5.153 5.153A5.16 5.16 0 0012 17.371a5.16 5.16 0 005.153-5.154A5.159 5.159 0 0012 7.064zm0 8.532a3.382 3.382 0 01-3.379-3.379A3.382 3.382 0 0112 8.838a3.382 3.382 0 013.379 3.38 3.382 3.382 0 01-3.38 3.378zM17.37 5.56a1.306 1.306 0 00-1.302 1.3 1.309 1.309 0 001.302 1.302c.343 0 .677-.14.92-.381a1.307 1.307 0 00.001-1.841 1.307 1.307 0 00-.921-.38z" fill="#221429" stroke="#fff" stroke-width=".5"/></svg>