<svg width="27" height="38" fill="none" xmlns="http://www.w3.org/2000/svg"><path d="M15.77.054C8.3-.61 1.7 4.947 1.05 12.464c-.58 6.632 3.68 12.712 10.09 14.4 1.79.482 3.1 2 3.33 3.849v5.748c-.04.804.57 1.487 1.37 1.537.8.04 1.48-.573 1.53-1.377v-6.08c-.39-5.144-5.3-6.47-5.53-6.52-4.78-1.207-8.08-5.598-7.91-10.552A10.61 10.61 0 017.39 5.62a10.279 10.279 0 018.06-2.613 8.766 8.766 0 016.22 3.507c2.64 3.608 2.04 8.662-1.38 11.536a6.106 6.106 0 01-4.67 1.286 6.89 6.89 0 01-4.5-2.24 5.453 5.453 0 01.24-7.025 3.93 3.93 0 015.39-.13c.56.532.86 1.286.82 2.07a2.094 2.094 0 01-.86 1.557 1.69 1.69 0 01-1.31.292.6.6 0 01-.42-.412 1.481 1.481 0 00-1.92-.844c-.01 0-.01 0-.02.01a1.526 1.526 0 00-.83 1.96 3.515 3.515 0 002.31 2.11c1.31.341 2.7.08 3.8-.704a5.061 5.061 0 002.07-3.718 5.662 5.662 0 00-1.66-4.391 6.832 6.832 0 00-9.5.13 8.463 8.463 0 00-.39 11.044 9.76 9.76 0 006.4 3.246 8.94 8.94 0 006.88-2.01c4.57-3.889 5.37-10.672 1.83-15.525A11.473 11.473 0 0015.77.054z" fill="#FD2E35"/></svg>