<svg width="24" height="25" fill="none" xmlns="http://www.w3.org/2000/svg"><path d="M12 2.217c-5.506 0-10 4.494-10 10s4.494 10 10 10 10-4.494 10-10-4.494-10-10-10zm6.783 4.356a8.787 8.787 0 012.043 5.503c-1.565-.366-3.303-.39-5.072-.068-.461.084-.922.19-1.38.319a28.057 28.057 0 00-1.04-2.458c2.11-.806 4.395-2.005 5.449-3.296zM12 3.389c2.298 0 4.393.882 5.965 2.325-.613.837-2.361 2.054-5.165 3.104a25.467 25.467 0 00-3.509-5.004A8.79 8.79 0 0112 3.39zm-3.87.894a24.39 24.39 0 013.554 4.924c-2.917.944-5.87 1.33-8.3 1.08a8.86 8.86 0 014.747-6.004zm-4.958 7.934c0-.26.012-.516.034-.77.536.057 1.095.085 1.673.085 2.278 0 4.838-.438 7.351-1.27a25.78 25.78 0 011.033 2.42c-.98.353-1.934.8-2.83 1.334-2.195 1.307-3.802 2.99-4.469 4.637a8.805 8.805 0 01-2.792-6.436zM12 21.045a8.778 8.778 0 01-5.073-1.607c.446-1.505 1.952-3.133 4.106-4.415a15.124 15.124 0 012.613-1.225 27.455 27.455 0 011.237 6.763 8.787 8.787 0 01-2.883.484zm4.026-.973a28.36 28.36 0 00-1.267-6.626c1.898-.522 4.007-.697 6.006-.178a8.85 8.85 0 01-4.739 6.804z" fill="#221429"/></svg>