<svg width="26" height="38" fill="none" xmlns="http://www.w3.org/2000/svg"><path d="M15.678.054C8.255-.61 1.696 4.947 1.05 12.464c-.576 6.632 3.657 12.712 10.027 14.4 1.778.482 3.08 2 3.309 3.849v5.748a1.46 1.46 0 001.361 1.537c.795.04 1.47-.573 1.52-1.377v-6.08c-.387-5.144-5.266-6.47-5.495-6.52-4.75-1.207-8.029-5.598-7.86-10.552A10.64 10.64 0 017.35 5.62a10.173 10.173 0 018.01-2.613 8.697 8.697 0 016.18 3.507c2.624 3.608 2.028 8.662-1.37 11.536a6.04 6.04 0 01-4.641 1.286 6.832 6.832 0 01-4.472-2.24 5.48 5.48 0 01.238-7.025 3.887 3.887 0 015.356-.13c.557.532.855 1.286.815 2.07a2.097 2.097 0 01-.854 1.557 1.671 1.671 0 01-1.302.292.597.597 0 01-.417-.412 1.47 1.47 0 00-1.908-.844c-.01 0-.01 0-.02.01-.755.311-1.123 1.196-.825 1.96a3.502 3.502 0 002.295 2.11 4.51 4.51 0 003.777-.704 5.07 5.07 0 002.056-3.718 5.683 5.683 0 00-1.649-4.391 6.758 6.758 0 00-9.44.13c-2.832 3.075-2.991 7.778-.388 11.044a9.676 9.676 0 006.36 3.246 8.845 8.845 0 006.837-2.01c4.54-3.889 5.336-10.672 1.818-15.525A11.385 11.385 0 0015.678.054z" fill="#FD2E35"/></svg>