<svg width="27" height="39" fill="none" xmlns="http://www.w3.org/2000/svg"><path d="M15.77.692C8.3.032 1.7 5.562 1.05 13.042a13.58 13.58 0 0010.09 14.33c1.79.48 3.1 1.99 3.33 3.83v5.72c-.04.8.57 1.48 1.37 1.53.8.04 1.48-.57 1.53-1.37v-6.05c-.39-5.12-5.3-6.44-5.53-6.49-4.78-1.2-8.08-5.57-7.91-10.5 0-2.98 1.26-5.82 3.46-7.81 2.19-1.98 5.13-2.93 8.06-2.6 2.47.23 4.74 1.5 6.22 3.49 2.64 3.59 2.04 8.62-1.38 11.48-1.31 1.05-3 1.51-4.67 1.28a6.903 6.903 0 01-4.5-2.23 5.406 5.406 0 01.24-6.99 3.944 3.944 0 015.39-.13c.56.53.86 1.28.82 2.06-.04.62-.36 1.19-.86 1.55-.38.27-.85.38-1.31.29a.598.598 0 01-.42-.41c-.3-.76-1.16-1.14-1.92-.84-.01 0-.01 0-.02.01-.76.31-1.13 1.19-.83 1.95a3.51 3.51 0 002.31 2.1c1.31.34 2.7.08 3.8-.7 1.2-.87 1.96-2.22 2.07-3.7a5.62 5.62 0 00-1.66-4.37 6.856 6.856 0 00-9.5.13 8.391 8.391 0 00-.39 10.99c1.65 1.85 3.93 3 6.4 3.23a8.97 8.97 0 006.88-2c4.57-3.87 5.37-10.62 1.83-15.45a11.485 11.485 0 00-8.18-4.68z" fill="#FD2E35"/></svg>