<svg width="189" height="38" viewBox="0 0 189 38" fill="none" xmlns="http://www.w3.org/2000/svg">
<path d="M23.8811 1.07359C20.4298 0.694324 16.9405 1.79419 14.2857 4.06977C11.555 6.45914 10 9.87251 10 13.4755C10 19.5058 13.7547 24.3983 19.5195 25.9154C19.6333 25.9533 22.4019 26.7118 22.6674 29.4805V34.8281C22.6674 35.5866 23.2742 36.1934 24.0328 36.1934C24.7913 36.1934 25.3981 35.5866 25.3981 34.8281V29.4425V29.3287C25.0188 24.55 20.3918 23.3364 20.2022 23.2605C14.7029 21.8193 12.7307 17.2682 12.7307 13.4755C12.7307 10.669 13.9443 7.97619 16.1061 6.1178C18.1542 4.33526 20.8849 3.50088 23.5776 3.76636C25.967 4.03185 28.053 5.16964 29.4183 7.02803C31.8835 10.3656 31.3146 14.9546 28.0909 17.7233C26.991 18.6714 25.3981 19.0886 23.6914 18.899C21.9847 18.7094 20.4298 17.9508 19.4437 16.813C17.8887 15.0305 18.0025 11.9585 19.6712 10.2897C21.1504 8.81057 23.5776 9.0002 24.7534 10.1759C25.3223 10.7448 25.5877 11.3896 25.5119 12.0722C25.474 12.6791 25.1706 13.1721 24.7154 13.5134C24.3741 13.7789 23.8431 13.8927 23.4639 13.7789C23.3122 13.741 23.1605 13.6651 23.0846 13.3997C22.7812 12.717 21.9847 12.3757 21.3021 12.6411C20.6194 12.9445 20.2781 13.741 20.5435 14.4237C20.9607 15.4098 21.7193 16.0924 22.7053 16.3958C23.8431 16.7372 25.2464 16.4717 26.2704 15.7132C27.4082 14.9167 28.0909 13.6651 28.2047 12.2619C28.3184 10.7827 27.7496 9.30361 26.6497 8.20375C24.2982 5.85231 20.1263 5.89024 17.6991 8.31753C15.0442 11.0103 14.8546 15.6752 17.3198 18.5577C18.761 20.2264 20.9607 21.3263 23.3501 21.5538C25.8153 21.8193 28.1667 21.1366 29.8355 19.7334C34.1591 16.0166 34.9176 9.79666 31.5422 5.32134C29.7976 2.96991 27.0289 1.41493 23.8811 1.07359Z" fill="#EF5667"/>
<path d="M43.451 22.2365V12.6791C43.451 12.6032 43.489 12.5653 43.5269 12.4894C43.5648 12.4515 43.6407 12.4136 43.7165 12.4136H45.4991C45.5749 12.4136 45.6129 12.4515 45.6887 12.4894C45.7266 12.5274 45.7646 12.6032 45.7646 12.6791V20.3402H49.14C49.2159 20.3402 49.2538 20.3781 49.3296 20.416C49.3676 20.454 49.4055 20.5298 49.4055 20.6057V22.2365C49.4055 22.3124 49.3676 22.3503 49.3296 22.4261C49.2917 22.4641 49.2159 22.502 49.14 22.502H43.7165C43.6407 22.502 43.6028 22.4641 43.5269 22.4261C43.4511 22.3882 43.451 22.3124 43.451 22.2365Z" fill="#EF5667"/>
<path d="M51.1122 17.4578C51.1122 17.1543 51.1501 16.813 51.188 16.5096C51.226 16.2062 51.3018 15.8648 51.4535 15.5235C51.5673 15.1822 51.719 14.8408 51.9086 14.5374C52.0983 14.234 52.3258 13.9306 52.5913 13.6651C52.8568 13.3996 53.1602 13.1341 53.5015 12.9445C53.8429 12.7549 54.2221 12.5653 54.6773 12.4515C55.1324 12.3377 55.6254 12.2618 56.1564 12.2618C56.877 12.2618 57.5597 12.3756 58.1286 12.6032C58.6975 12.8307 59.1905 13.1341 59.5698 13.4755C59.949 13.8168 60.2524 14.234 60.48 14.7271C60.7076 15.1822 60.8972 15.6373 61.011 16.0924C61.1247 16.5475 61.1627 17.0026 61.1627 17.4578C61.1627 17.7991 61.1247 18.1025 61.0868 18.4438C61.0489 18.7852 60.973 19.0886 60.8213 19.4299C60.7076 19.7713 60.5559 20.1126 60.4041 20.416C60.2145 20.7194 60.0249 21.0228 59.7594 21.2883C59.4939 21.5538 59.1905 21.8193 58.8492 22.0089C58.5078 22.1986 58.1286 22.3882 57.6734 22.502C57.2183 22.6157 56.7253 22.6916 56.1943 22.6916C55.6634 22.6916 55.1703 22.6157 54.7152 22.502C54.2601 22.3882 53.8808 22.2365 53.5395 22.0089C53.1981 21.8193 52.8947 21.5538 52.6292 21.2883C52.3638 21.0228 52.1362 20.7194 51.9466 20.416C51.7569 20.1126 51.6432 19.7713 51.4914 19.4299C51.3777 19.0886 51.3018 18.7473 51.226 18.4438C51.1501 18.1404 51.1122 17.7612 51.1122 17.4578ZM53.4636 17.4578C53.4636 17.6095 53.4636 17.7612 53.5015 17.9508C53.5395 18.1404 53.5774 18.3301 53.6153 18.5955C53.6912 18.8231 53.767 19.0507 53.9187 19.2782C54.0704 19.5058 54.2221 19.6954 54.3739 19.885C54.5635 20.0747 54.791 20.2264 55.0945 20.3402C55.3979 20.4539 55.7392 20.5298 56.0805 20.5298C56.384 20.5298 56.6874 20.4919 56.9528 20.416C57.2183 20.3402 57.4459 20.2264 57.5976 20.0747C57.7872 19.923 57.9389 19.7713 58.0527 19.5816C58.2044 19.392 58.2803 19.2024 58.3561 19.0127C58.432 18.8231 58.5078 18.6335 58.5458 18.4438C58.5837 18.2542 58.6216 18.0646 58.6216 17.9129C58.6216 17.7612 58.6595 17.6474 58.6595 17.4957C58.6595 17.3061 58.6595 17.1164 58.6216 16.8889C58.5837 16.6613 58.5078 16.4337 58.394 16.1303C58.2803 15.8269 58.1286 15.5614 57.9389 15.3339C57.7493 15.1063 57.4838 14.9167 57.1804 14.7271C56.8391 14.5754 56.4598 14.4616 56.0047 14.4616C55.5496 14.4616 55.1703 14.5374 54.829 14.7271C54.4876 14.8788 54.2221 15.1063 54.0325 15.3339C53.8429 15.5614 53.6912 15.8269 53.5774 16.1303C53.4636 16.4337 53.3878 16.6992 53.3498 16.8889C53.4636 17.0785 53.4636 17.2681 53.4636 17.4578Z" fill="#EF5667"/>
<path d="M63.4003 22.2365V12.6791C63.4003 12.6032 63.4382 12.5653 63.4761 12.4894C63.514 12.4515 63.5899 12.4136 63.6658 12.4136H65.4483C65.5241 12.4136 65.5621 12.4515 65.6379 12.4894C65.6758 12.5274 65.7138 12.6032 65.7138 12.6791V20.3402H69.0892C69.1651 20.3402 69.203 20.3781 69.2789 20.416C69.3168 20.454 69.3547 20.5298 69.3547 20.6057V22.2365C69.3547 22.3124 69.3168 22.3503 69.2789 22.4261C69.2409 22.4641 69.1651 22.502 69.0892 22.502H63.6658C63.5899 22.502 63.552 22.4641 63.4761 22.4261C63.4382 22.3882 63.4003 22.3124 63.4003 22.2365Z" fill="#EF5667"/>
<path d="M71.8959 22.2365V12.6791C71.8959 12.6032 71.9338 12.5653 71.9717 12.4894C72.0097 12.4515 72.0855 12.4136 72.1614 12.4136H73.9439C74.0198 12.4136 74.0577 12.4515 74.1335 12.4894C74.1715 12.5274 74.2094 12.6032 74.2094 12.6791V20.3402H77.5848C77.6607 20.3402 77.6986 20.3781 77.7745 20.416C77.8124 20.454 77.8503 20.5298 77.8503 20.6057V22.2365C77.8503 22.3124 77.8124 22.3503 77.7745 22.4261C77.7365 22.4641 77.6607 22.502 77.5848 22.502H72.1614C72.0855 22.502 72.0476 22.4641 71.9717 22.4261C71.8959 22.3882 71.8959 22.3124 71.8959 22.2365Z" fill="#EF5667"/>
<path d="M78.5329 12.6411C78.5329 12.6032 78.495 12.6032 78.495 12.5653C78.495 12.5274 78.495 12.5274 78.5329 12.4894C78.5708 12.4515 78.6088 12.4136 78.6467 12.4136H80.6947C80.8464 12.4136 80.9981 12.4894 81.074 12.6411L82.9703 15.789L84.8666 12.6411C84.9425 12.4894 85.0563 12.4136 85.2459 12.4136H87.2939C87.3318 12.4136 87.4077 12.4515 87.4456 12.4894C87.4456 12.5274 87.4835 12.5274 87.4835 12.5653C87.4835 12.6032 87.4835 12.6032 87.4456 12.6411L84.146 18.0267V22.2365C84.146 22.3124 84.1081 22.3503 84.0702 22.4261C84.0322 22.4641 83.9564 22.502 83.8805 22.502H82.1359C82.0601 22.502 82.0221 22.4641 81.9463 22.4261C81.9084 22.3882 81.8704 22.3124 81.8704 22.2365V18.0646L78.5329 12.6411Z" fill="#EF5667"/>
<path d="M89.9109 22.2365V12.6791C89.9109 12.6032 89.9488 12.5653 89.9867 12.4894C90.0247 12.4515 90.1005 12.4136 90.1764 12.4136H93.8173C94.3483 12.4136 94.8413 12.4894 95.2585 12.6411C95.6757 12.7928 96.017 12.9825 96.3205 13.21C96.5859 13.4376 96.8135 13.7031 97.0031 14.0065C97.1928 14.3099 97.3065 14.6133 97.3824 14.8788C97.4582 15.1822 97.4962 15.4477 97.4962 15.7511C97.4962 16.3958 97.3065 16.9647 96.9652 17.4957C96.6239 18.0267 96.1687 18.4059 95.6378 18.6714C95.1068 18.9369 94.5758 19.0886 93.969 19.0886H92.2244V22.2365C92.2244 22.3124 92.1865 22.3503 92.1485 22.4261C92.1106 22.4641 92.0348 22.502 91.9589 22.502H90.1764C90.1005 22.502 90.0626 22.4641 89.9867 22.4261C89.9488 22.3882 89.9109 22.3124 89.9109 22.2365ZM92.2244 16.9647H93.8932C94.0828 16.9647 94.2345 16.9268 94.3862 16.851C94.5379 16.7751 94.6517 16.6993 94.7275 16.6234C94.8034 16.5476 94.8792 16.4338 94.9551 16.32C94.993 16.2062 95.031 16.0924 95.0689 16.0166C95.1068 15.9407 95.1068 15.8269 95.1068 15.7511C95.1068 15.6373 95.1068 15.5235 95.0689 15.3718C95.031 15.2201 94.9551 15.1063 94.8792 14.9926C94.8034 14.8788 94.6517 14.765 94.5 14.6892C94.3104 14.6133 94.1207 14.5754 93.8552 14.5754H92.2244V16.9647V16.9647Z" fill="#EF5667"/>
<path d="M99.1649 17.4578C99.1649 17.1543 99.2028 16.813 99.2408 16.5096C99.2787 16.2062 99.3545 15.8648 99.5063 15.5235C99.62 15.1822 99.7717 14.8408 99.9614 14.5374C100.151 14.234 100.379 13.9306 100.644 13.6651C100.91 13.3996 101.213 13.1341 101.554 12.9445C101.896 12.7549 102.275 12.5653 102.73 12.4515C103.185 12.3377 103.678 12.2618 104.209 12.2618C104.93 12.2618 105.612 12.3756 106.181 12.6032C106.75 12.8307 107.243 13.1341 107.622 13.4755C108.002 13.8168 108.305 14.234 108.533 14.7271C108.76 15.1822 108.95 15.6373 109.064 16.0924C109.177 16.5475 109.215 17.0026 109.215 17.4578C109.215 17.7991 109.177 18.1025 109.14 18.4438C109.102 18.7852 109.026 19.0886 108.874 19.4299C108.76 19.7713 108.609 20.1126 108.457 20.416C108.267 20.7194 108.078 21.0228 107.812 21.2883C107.547 21.5538 107.243 21.8193 106.902 22.0089C106.561 22.1986 106.181 22.3882 105.726 22.502C105.271 22.6157 104.778 22.6916 104.247 22.6916C103.716 22.6916 103.223 22.6157 102.768 22.502C102.313 22.3882 101.934 22.2365 101.592 22.0089C101.251 21.8193 100.947 21.5538 100.682 21.2883C100.416 21.0228 100.189 20.7194 99.9993 20.416C99.8097 20.1126 99.6959 19.7713 99.5442 19.4299C99.4304 19.0886 99.3545 18.7473 99.2787 18.4438C99.1649 18.1025 99.1649 17.7612 99.1649 17.4578ZM101.478 17.4578C101.478 17.6095 101.478 17.7612 101.516 17.9508C101.554 18.1404 101.592 18.3301 101.63 18.5955C101.706 18.8231 101.782 19.0507 101.934 19.2782C102.085 19.5058 102.237 19.6954 102.389 19.885C102.578 20.0747 102.806 20.2264 103.109 20.3402C103.413 20.4539 103.754 20.5298 104.095 20.5298C104.399 20.5298 104.702 20.4919 104.968 20.416C105.233 20.3402 105.461 20.2264 105.612 20.0747C105.802 19.923 105.954 19.7713 106.068 19.5816C106.219 19.392 106.295 19.2024 106.371 19.0127C106.447 18.8231 106.523 18.6335 106.561 18.4438C106.598 18.2542 106.636 18.0646 106.636 17.9129C106.636 17.7612 106.674 17.6474 106.674 17.4957C106.674 17.3061 106.674 17.1164 106.636 16.8889C106.598 16.6613 106.523 16.4337 106.409 16.1303C106.295 15.8269 106.143 15.5614 105.954 15.3339C105.764 15.1063 105.499 14.9167 105.195 14.7271C104.854 14.5754 104.475 14.4616 104.019 14.4616C103.564 14.4616 103.185 14.5374 102.844 14.7271C102.502 14.8788 102.237 15.1063 102.047 15.3339C101.858 15.5614 101.706 15.8269 101.592 16.1303C101.478 16.4337 101.403 16.6992 101.365 16.8889C101.516 17.0785 101.478 17.2681 101.478 17.4578Z" fill="#EF5667"/>
<path d="M111.453 22.2365V12.6791C111.453 12.6032 111.491 12.5653 111.529 12.4894C111.567 12.4515 111.643 12.4136 111.719 12.4136H115.36C115.891 12.4136 116.384 12.4894 116.801 12.6411C117.218 12.7928 117.559 12.9825 117.863 13.21C118.128 13.4376 118.356 13.7031 118.545 14.0065C118.735 14.3099 118.849 14.6133 118.925 14.8788C119 15.1822 119.038 15.4477 119.038 15.7511C119.038 16.3958 118.849 16.9647 118.507 17.4957C118.166 18.0267 117.711 18.4059 117.18 18.6714C116.649 18.9369 116.118 19.0886 115.511 19.0886H113.767V22.2365C113.767 22.3124 113.729 22.3503 113.691 22.4261C113.653 22.502 113.577 22.502 113.501 22.502H111.719C111.643 22.502 111.605 22.4641 111.529 22.4261C111.453 22.3882 111.453 22.3124 111.453 22.2365ZM113.767 16.9647H115.435C115.625 16.9647 115.777 16.9268 115.928 16.851C116.08 16.7751 116.194 16.6993 116.27 16.6234C116.346 16.5476 116.421 16.4338 116.497 16.32C116.535 16.2062 116.573 16.0924 116.611 16.0166C116.649 15.9407 116.649 15.8269 116.649 15.7511C116.649 15.6373 116.649 15.5235 116.611 15.3718C116.573 15.2201 116.497 15.1063 116.421 14.9926C116.346 14.8788 116.194 14.765 116.042 14.6892C115.853 14.6133 115.663 14.5754 115.397 14.5754H113.767V16.9647Z" fill="#EF5667"/>
<path d="M119.076 21.3262C119.076 20.9849 119.19 20.6815 119.456 20.416C119.683 20.1505 119.987 20.0367 120.328 20.0367C120.669 20.0367 120.935 20.1505 121.2 20.416C121.428 20.6436 121.542 20.947 121.542 21.3262C121.542 21.6676 121.428 21.971 121.2 22.1985C120.973 22.4261 120.669 22.5778 120.328 22.5778C119.987 22.5778 119.721 22.464 119.456 22.1985C119.19 21.971 119.076 21.6676 119.076 21.3262Z" fill="#EF5667"/>
<path d="M125.372 22.2365V12.6791C125.372 12.6032 125.41 12.5653 125.448 12.4894C125.486 12.4515 125.562 12.4136 125.638 12.4136H128.975C129.506 12.4136 129.999 12.4515 130.454 12.5653C130.909 12.6791 131.289 12.8308 131.63 13.0204C131.971 13.21 132.275 13.4376 132.54 13.7031C132.806 13.9686 133.033 14.234 133.185 14.5375C133.375 14.8409 133.488 15.1443 133.602 15.4856C133.716 15.8269 133.792 16.1304 133.868 16.4717C133.906 16.7751 133.943 17.1164 133.943 17.4199C133.943 17.875 133.906 18.3301 133.792 18.7852C133.678 19.2403 133.526 19.6954 133.299 20.1126C133.071 20.5677 132.768 20.947 132.388 21.2883C132.009 21.6297 131.554 21.8952 130.947 22.1227C130.378 22.3503 129.696 22.4641 128.975 22.4641H125.638C125.562 22.4641 125.524 22.4261 125.448 22.3882C125.372 22.3882 125.372 22.3124 125.372 22.2365ZM127.648 20.3402H128.975C129.278 20.3402 129.582 20.3023 129.847 20.2264C130.113 20.1506 130.34 20.0368 130.53 19.923C130.72 19.8092 130.871 19.6196 131.023 19.4679C131.175 19.2783 131.251 19.1265 131.364 18.9369C131.44 18.7473 131.516 18.5576 131.554 18.368C131.592 18.1784 131.63 17.9888 131.668 17.875C131.668 17.7233 131.706 17.6095 131.706 17.4957C131.706 17.344 131.706 17.1923 131.668 17.0027C131.63 16.851 131.592 16.6234 131.554 16.3958C131.478 16.1683 131.402 15.9407 131.251 15.7511C131.137 15.5615 130.947 15.3718 130.796 15.1822C130.606 14.9926 130.378 14.8788 130.075 14.765C129.772 14.6512 129.43 14.6133 129.089 14.6133H127.761V20.3402H127.648Z" fill="#EF5667"/>
<path d="M136.257 22.2365V12.6791C136.257 12.6032 136.295 12.5653 136.333 12.4894C136.371 12.4515 136.447 12.4136 136.522 12.4136H142.97C143.046 12.4136 143.084 12.4515 143.16 12.4894C143.197 12.5274 143.235 12.6032 143.235 12.6791V14.3099C143.235 14.3857 143.197 14.4237 143.16 14.4995C143.122 14.5375 143.046 14.5754 142.97 14.5754H138.57V16.4717H141.984C142.06 16.4717 142.098 16.5096 142.173 16.5476C142.211 16.5855 142.249 16.6613 142.249 16.7372V18.368C142.249 18.4439 142.211 18.4818 142.173 18.5576C142.136 18.5956 142.06 18.6335 141.984 18.6335H138.57V20.3402H142.97C143.046 20.3402 143.084 20.3781 143.16 20.416C143.197 20.454 143.235 20.5298 143.235 20.6057V22.2365C143.235 22.3124 143.197 22.3503 143.16 22.4261C143.122 22.4641 143.046 22.502 142.97 22.502H136.522C136.447 22.502 136.409 22.4641 136.333 22.4261C136.295 22.3882 136.257 22.3124 136.257 22.2365Z" fill="#EF5667"/>
<path d="M145.056 21.478C145.056 21.4401 145.056 21.4021 145.056 21.4021C145.056 21.3642 145.056 21.3263 145.094 21.2884L145.89 19.8092C145.928 19.7334 145.966 19.6955 146.042 19.6955C146.118 19.6575 146.194 19.6955 146.232 19.6955C147.331 20.1885 148.204 20.454 148.886 20.454C149.266 20.454 149.607 20.3781 149.873 20.2264C150.138 20.0747 150.29 19.8472 150.29 19.6196C150.29 19.5058 150.252 19.392 150.176 19.2783C150.1 19.1645 150.024 19.0886 149.948 19.0128C149.873 18.9369 149.721 18.8611 149.569 18.7852C149.417 18.7094 149.266 18.6335 149.114 18.5956C148.962 18.5577 148.811 18.4818 148.545 18.406C147.749 18.1405 147.142 17.9129 146.801 17.7233C145.928 17.2682 145.397 16.5855 145.283 15.7511C145.246 15.5994 145.246 15.4477 145.246 15.296C145.246 14.3858 145.549 13.6272 146.156 13.0963C146.763 12.5653 147.559 12.2998 148.545 12.2998C149.721 12.2998 150.934 12.6032 152.186 13.1721C152.338 13.248 152.376 13.3617 152.3 13.5134L151.655 14.9926C151.617 15.0684 151.579 15.1064 151.503 15.1443C151.428 15.1822 151.352 15.1822 151.314 15.1443C150.1 14.6892 149.228 14.4995 148.697 14.4995C148.356 14.4995 148.09 14.5754 147.862 14.6892C147.635 14.8029 147.559 14.9926 147.559 15.2201C147.559 15.296 147.559 15.3718 147.597 15.4098C147.635 15.4856 147.673 15.5235 147.711 15.5994C147.749 15.6373 147.825 15.7132 147.862 15.7511C147.9 15.789 147.976 15.8649 148.09 15.9028C148.204 15.9407 148.28 15.9787 148.355 16.0166C148.431 16.0545 148.545 16.0924 148.659 16.1304C148.773 16.1683 148.886 16.2062 148.962 16.2441C149.038 16.2821 149.152 16.32 149.342 16.3579C149.493 16.3959 149.607 16.4717 149.721 16.4717C150.062 16.5855 150.328 16.6993 150.555 16.813C150.783 16.9268 151.048 17.0406 151.314 17.2302C151.579 17.4199 151.807 17.6095 151.996 17.7991C152.186 17.9888 152.3 18.2542 152.452 18.5197C152.565 18.8231 152.641 19.1266 152.641 19.5058C152.641 20.3781 152.3 21.1367 151.579 21.7055C150.897 22.3124 149.986 22.5779 148.886 22.5779C148.204 22.5779 147.597 22.502 146.99 22.3503C146.383 22.1986 145.777 21.9331 145.132 21.6297C145.094 21.6297 145.056 21.5538 145.056 21.478Z" fill="#EF5667"/>
<path d="M154.955 22.2365V12.6791C154.955 12.6032 154.993 12.5653 155.03 12.4894C155.068 12.4515 155.144 12.4136 155.22 12.4136H157.003C157.078 12.4136 157.116 12.4515 157.192 12.4894C157.23 12.5274 157.268 12.6032 157.268 12.6791V22.2365C157.268 22.3124 157.23 22.3503 157.192 22.4261C157.154 22.4641 157.078 22.502 157.003 22.502H155.22C155.144 22.502 155.106 22.4641 155.03 22.4261C154.955 22.3882 154.955 22.3124 154.955 22.2365Z" fill="#EF5667"/>
<path d="M159.544 17.4578C159.544 17.1543 159.582 16.813 159.62 16.5096C159.657 16.2062 159.733 15.8648 159.885 15.5235C159.999 15.1822 160.151 14.8408 160.34 14.5374C160.53 14.234 160.757 13.9306 161.023 13.6651C161.288 13.3996 161.592 13.1341 161.933 12.9445C162.274 12.7549 162.654 12.5653 163.109 12.4515C163.564 12.3377 164.057 12.2618 164.588 12.2618C165.953 12.2618 167.167 12.7928 168.229 13.8168C168.267 13.8547 168.305 13.9306 168.305 14.0065C168.305 14.0823 168.267 14.1582 168.229 14.1961L167.129 15.3718C167.091 15.4097 167.015 15.4477 166.939 15.4477C166.863 15.4477 166.826 15.4477 166.75 15.3718C166.446 15.1063 166.067 14.8788 165.65 14.6891C165.233 14.4995 164.853 14.4236 164.512 14.4236C164.209 14.4236 163.905 14.4616 163.64 14.5374C163.374 14.6133 163.147 14.7271 162.957 14.8788C162.767 15.0305 162.616 15.1822 162.464 15.3718C162.312 15.5614 162.236 15.7511 162.123 15.9028C162.047 16.0924 161.971 16.282 161.933 16.4717C161.895 16.6613 161.857 16.8509 161.819 17.0026C161.819 17.1543 161.781 17.2681 161.781 17.4198C161.781 17.5336 161.781 17.6853 161.819 17.837C161.819 17.9887 161.857 18.1404 161.933 18.368C161.971 18.5576 162.047 18.7852 162.123 18.9748C162.199 19.1644 162.312 19.3541 162.464 19.5437C162.616 19.7333 162.767 19.885 162.957 20.0368C163.147 20.1885 163.374 20.3022 163.64 20.3781C163.905 20.4539 164.209 20.4919 164.512 20.4919C164.778 20.4919 165.005 20.4539 165.309 20.3781C165.574 20.3022 165.802 20.1885 165.953 20.0747V19.1265H164.322C164.247 19.1265 164.209 19.0886 164.133 19.0507C164.095 19.0127 164.057 18.9369 164.057 18.861V17.2302C164.057 17.1543 164.095 17.1164 164.133 17.0406C164.171 17.0026 164.247 16.9647 164.322 16.9647H168.039C168.115 16.9647 168.153 17.0026 168.229 17.0406C168.267 17.0785 168.305 17.1543 168.305 17.2302V20.7953C168.305 20.9849 168.229 21.1366 168.115 21.2504C167.129 22.1606 165.953 22.6157 164.55 22.6157C164.019 22.6157 163.526 22.5399 163.071 22.4261C162.616 22.3123 162.236 22.1606 161.895 21.971C161.554 21.7814 161.25 21.5538 160.985 21.2504C160.719 20.9849 160.492 20.6815 160.302 20.3781C160.113 20.0747 159.999 19.7333 159.847 19.392C159.733 19.0507 159.657 18.7093 159.582 18.4059C159.544 18.1025 159.544 17.7991 159.544 17.4578Z" fill="#EF5667"/>
<path d="M170.656 22.2365V12.5274C170.656 12.4894 170.656 12.4136 170.694 12.3757C170.732 12.3377 170.77 12.2998 170.846 12.2998C170.997 12.2998 171.111 12.3377 171.225 12.4515L176.686 17.5716V12.6791C176.686 12.6032 176.724 12.5653 176.762 12.4894C176.8 12.4515 176.876 12.4136 176.952 12.4136H178.734C178.81 12.4136 178.848 12.4515 178.924 12.4894C178.962 12.5274 179 12.6032 179 12.6791V22.3882C179 22.4262 179 22.4641 178.962 22.502C178.924 22.5399 178.886 22.5399 178.81 22.5399C178.697 22.5399 178.583 22.502 178.507 22.4262L172.97 17.1923V22.2365C172.97 22.3124 172.932 22.3503 172.894 22.4262C172.856 22.4641 172.78 22.502 172.704 22.502H170.922C170.846 22.502 170.808 22.4641 170.732 22.4262C170.694 22.3882 170.656 22.3124 170.656 22.2365Z" fill="#EF5667"/>
<path d="M47.8127 36.2313L47.2059 34.6764H44.7027L44.0959 36.2313H43.2994L45.5371 30.6941H46.4094L48.685 36.2313H47.8127ZM45.9922 31.4526L45.0061 34.0316H46.9783L45.9922 31.4526Z" fill="#333333"/>
<path d="M120.555 32.1353C120.214 31.6043 119.683 31.3009 119 31.3009C117.863 31.3009 117.104 32.1732 117.104 33.4627C117.104 34.7522 117.863 35.6245 118.963 35.6245C119.645 35.6245 120.176 35.2832 120.518 34.7522L121.162 35.1694C120.707 35.89 119.949 36.3072 118.963 36.3072C117.332 36.3072 116.27 35.0935 116.27 33.4248C116.27 31.756 117.332 30.5424 118.963 30.5424C119.911 30.5424 120.631 30.9595 121.124 31.6422L120.555 32.1353Z" fill="#333333"/>
<path d="M125.183 36.3451C123.514 36.3451 122.49 35.0936 122.49 33.4627C122.49 31.8319 123.552 30.5803 125.183 30.5803C126.851 30.5803 127.875 31.8319 127.875 33.4627C127.875 35.0936 126.813 36.3451 125.183 36.3451ZM125.183 31.3389C124.007 31.3389 123.286 32.2112 123.286 33.4627C123.286 34.7143 124.007 35.6245 125.183 35.6245C126.358 35.6245 127.079 34.7522 127.079 33.4627C127.041 32.2112 126.358 31.3389 125.183 31.3389Z" fill="#333333"/>
<path d="M134.74 36.2313V31.4905L132.919 36.2313H132.237L130.416 31.4905V36.2313H129.658V30.6941H130.833L132.578 35.2453L134.323 30.6941H135.46V36.2313H134.74V36.2313Z" fill="#333333"/>
<path d="M139.974 34.1454H138.419V36.2313H137.622V30.6941H139.936C141.187 30.6941 141.908 31.3768 141.908 32.4008C141.908 33.4248 141.225 34.1454 139.974 34.1454ZM139.974 33.4248C140.732 33.4248 141.112 33.0455 141.112 32.4387C141.112 31.8319 140.732 31.4147 139.974 31.4147H138.419V33.4248H139.974Z" fill="#333333"/>
<path d="M147.066 36.2313L146.459 34.6764H143.956L143.349 36.2313H142.553L144.79 30.6941H145.663L147.938 36.2313H147.066ZM145.246 31.4526L144.259 34.0316H146.232L145.246 31.4526Z" fill="#333333"/>
<path d="M153.096 36.2313L150.176 31.6802V36.2313H149.417V30.6941H150.404L153.21 35.1315V30.6941H153.969V36.2313H153.096V36.2313Z" fill="#333333"/>
<path d="M158.368 33.9937V36.2693H157.572V33.9937L155.448 30.6941H156.358L157.951 33.2731L159.582 30.6941H160.454L158.368 33.9937Z" fill="#333333"/>
<path d="M55.7772 31.3009V36.1176H54.9807V31.3009H53.1223V30.5803H57.6356V31.3009H55.7772Z" fill="#333333"/>
<path d="M59.4559 36.0796V30.5803H63.3624V31.3009H60.2145V32.8559H62.2246V33.5386H60.2145V35.397H63.4382V36.1176H59.4559V36.0796Z" fill="#333333"/>
<path d="M81.8326 36.0796L81.2258 34.5626H78.7226L78.1158 36.0796H77.3193L79.557 30.5803H80.3914L82.629 36.0796H81.8326ZM80.0121 31.3389L79.026 33.8799H80.9982L80.0121 31.3389Z" fill="#333333"/>
<path d="M84.3737 36.0796V30.5803H85.1322V35.397H88.2042V36.1176H84.3737V36.0796Z" fill="#333333"/>
<path d="M92.0727 36.1934C90.4418 36.1934 89.3799 34.9418 89.3799 33.3489C89.3799 31.718 90.4418 30.5044 92.0727 30.5044C93.7035 30.5044 94.7654 31.756 94.7654 33.3489C94.8034 34.9418 93.7414 36.1934 92.0727 36.1934ZM92.0727 31.1871C90.8969 31.1871 90.1763 32.0594 90.1763 33.3109C90.1763 34.5625 90.8969 35.4348 92.0727 35.4348C93.2484 35.4348 93.969 34.5625 93.969 33.3109C93.969 32.0973 93.2484 31.1871 92.0727 31.1871Z" fill="#333333"/>
<path d="M97.1927 33.349C97.1927 34.6385 97.9133 35.5108 99.0891 35.5108C100.075 35.5108 100.796 34.9039 100.872 33.9558H99.0891V33.2731H101.63C101.63 33.3869 101.668 33.5007 101.668 33.6903C101.668 35.0177 100.758 36.1934 99.127 36.1934C97.4961 36.1934 96.4342 34.9798 96.4342 33.311C96.4342 31.6423 97.4961 30.4666 99.127 30.4666C100.075 30.4666 100.796 30.8458 101.289 31.5664L100.682 31.9836C100.341 31.4526 99.8097 31.1492 99.127 31.1492C97.9133 31.1872 97.1927 32.0595 97.1927 33.349Z" fill="#333333"/>
<path d="M103.526 36.0796V30.5803H104.285V36.0796H103.526Z" fill="#333333"/>
<path d="M110.505 32.0215C110.164 31.4906 109.671 31.1872 108.95 31.1872C107.812 31.1872 107.054 32.0595 107.054 33.311C107.054 34.6005 107.812 35.4728 108.912 35.4728C109.595 35.4728 110.126 35.1315 110.467 34.6005L111.112 35.0177C110.657 35.7383 109.898 36.1555 108.912 36.1555C107.281 36.1555 106.219 34.9419 106.219 33.311C106.219 31.6802 107.281 30.4666 108.912 30.4666C109.86 30.4666 110.581 30.8458 111.074 31.5664L110.505 32.0215Z" fill="#333333"/>
<path d="M68.5204 33.7282C69.1652 33.5006 69.6582 32.9696 69.6582 32.1732C69.6582 31.1871 68.9376 30.5424 67.7998 30.5424H65.3726V36.0417H66.169V34.1833V32.78V31.225H67.7998C68.4446 31.225 68.8618 31.6043 68.8618 32.1732C68.8618 32.7421 68.4446 33.1214 67.7998 33.1214H66.9655V33.804H67.724L68.8997 36.0417H69.772L68.5204 33.7282Z" fill="#333333"/>
<path d="M74.6265 33.7282C75.2713 33.5006 75.7643 32.9696 75.7643 32.1732C75.7643 31.1871 75.0437 30.5424 73.9059 30.5424H71.4786V36.0417H72.2751V34.1833V32.78V31.225H73.9059C74.5507 31.225 74.9679 31.6043 74.9679 32.1732C74.9679 32.7421 74.5507 33.1214 73.9059 33.1214H73.0715V33.804H73.8301L75.0058 36.0417H75.8781L74.6265 33.7282Z" fill="#333333"/>
</svg>
