<svg width="292" height="292" viewBox="0 0 292 292" fill="none" xmlns="http://www.w3.org/2000/svg">
<rect width="292" height="292" fill="#1E1D1C"/>
<path d="M211.054 166.295L197.094 91.2138C195.11 80.502 181.284 77.0199 174.321 85.4434L102.169 172.696C87.4354 187.221 97.8631 212.061 118.685 212.061H173.111C182.125 212.061 190.468 209.043 197.094 204.002C208.632 195.214 213.678 180.423 211.054 166.295Z" fill="url(#paint0_linear_319_1080)"/>
<path d="M211.32 168.153C211.388 168.817 211.421 169.48 211.421 170.176C211.421 182.679 201.128 192.827 188.447 192.827C181.282 192.827 174.925 189.643 170.72 184.602L132.777 135.686L113.771 111.212C105.564 101.694 91.9403 105.475 89.3502 118.176L81.0753 158.536C78.9225 169.016 79.9317 180.026 84.7419 189.577C91.3012 202.544 103.243 211.365 116.967 212.028C117.505 212.095 118.043 212.095 118.615 212.095H173.074C178.86 212.095 184.377 210.868 189.288 208.646C192.08 207.419 194.67 205.86 197.058 204.036C208.091 195.646 213.137 181.75 211.287 168.187L211.32 168.153Z" fill="url(#paint1_linear_319_1080)"/>
<defs>
<linearGradient id="paint0_linear_319_1080" x1="234.331" y1="96.9178" x2="162.474" y2="169.803" gradientUnits="userSpaceOnUse">
<stop offset="0.17" stop-color="#61F3F6"/>
<stop offset="1" stop-color="#002FBE"/>
</linearGradient>
<linearGradient id="paint1_linear_319_1080" x1="79.9989" y1="158.967" x2="211.724" y2="158.967" gradientUnits="userSpaceOnUse">
<stop stop-color="#61F3F6"/>
<stop offset="1" stop-color="#1A5EED"/>
</linearGradient>
</defs>
</svg>
