<svg width="61" height="53" viewBox="0 0 61 53" fill="none" xmlns="http://www.w3.org/2000/svg">
<path d="M23.6816 40.7715C23.6816 44.0267 22.5423 46.7529 20.2637 48.9502C17.985 51.1475 15.1367 52.2461 11.7188 52.2461C8.46354 52.2461 5.69661 50.9847 3.41797 48.4619C1.13932 45.9391 0 42.7653 0 38.9404C0 36.1735 0.610352 33.1217 1.83105 29.7852C3.13314 26.4486 4.80143 23.0713 6.83594 19.6533C8.95182 16.2354 11.3118 12.8581 13.916 9.52148C16.6016 6.10352 19.2871 2.92969 21.9727 0L25.2686 2.68555C21.6064 6.9987 18.5547 11.3525 16.1133 15.7471C13.6719 20.1416 12.207 24.4548 11.7188 28.6865C14.974 28.9307 17.7816 30.1514 20.1416 32.3486C22.5016 34.5459 23.6816 37.3535 23.6816 40.7715ZM58.7158 40.7715C58.7158 44.0267 57.5765 46.7529 55.2979 48.9502C53.0192 51.1475 50.1709 52.2461 46.7529 52.2461C43.4977 52.2461 40.7308 50.9847 38.4521 48.4619C36.1735 45.9391 35.0342 42.7653 35.0342 38.9404C35.0342 36.1735 35.6445 33.1217 36.8652 29.7852C38.1673 26.4486 39.8356 23.0713 41.8701 19.6533C43.986 16.2354 46.346 12.8581 48.9502 9.52148C51.6357 6.10352 54.3213 2.92969 57.0068 0L60.1807 2.68555C56.5186 6.9987 53.4668 11.3525 51.0254 15.7471C48.6654 20.1416 47.2412 24.4548 46.7529 28.6865C50.0081 28.9307 52.8158 30.1514 55.1758 32.3486C57.5358 34.5459 58.7158 37.3535 58.7158 40.7715Z" fill="#FD2E35"/>
</svg>
