<svg width="156" height="36" viewBox="0 0 156 36" fill="none" xmlns="http://www.w3.org/2000/svg">
<mask id="mask0_486_478" style="mask-type:luminance" maskUnits="userSpaceOnUse" x="22" y="5" width="111" height="26">
<path d="M132.814 5.46436H22.2428V30.5358H132.814V5.46436Z" fill="white"/>
</mask>
<g mask="url(#mask0_486_478)">
<path fill-rule="evenodd" clip-rule="evenodd" d="M54.3599 17.133L52.4261 17.4334C51.0679 17.6338 49.9954 18.4683 49.9954 19.9456C49.9954 21.2476 51.0389 22.4494 52.8402 22.4494C53.7623 22.5041 54.6432 22.0585 55.1508 21.2809C55.1425 21.5947 55.1702 21.9083 55.2337 22.2157H57.4988C57.4322 21.792 57.3989 21.3635 57.3993 20.9345V16.8867C57.3993 15.1841 56.4262 13.686 53.7636 13.686C51.3495 13.686 50.2604 15.2509 50.1611 16.436L52.3432 16.8867C52.4028 16.1625 53.0275 15.6202 53.747 15.6682C54.5422 15.6682 54.9563 16.0855 54.9563 16.5696C54.9563 16.8534 54.8072 17.0662 54.3599 17.133ZM54.9644 18.6016V18.9688C54.9644 20.2499 54.1486 20.6004 53.4571 20.6004C52.7655 20.6004 52.484 20.1831 52.484 19.7659C52.484 19.1817 52.8816 18.9354 53.4074 18.8519L54.9644 18.6016Z" fill="#161613"/>
<path fill-rule="evenodd" clip-rule="evenodd" d="M59.5193 13.9366V25.3957H62.0286V21.5648C62.6197 22.1523 63.4323 22.4562 64.2606 22.3995C66.5589 22.3995 68.1821 20.5174 68.1821 18.0345C68.1821 15.5516 66.7454 13.7197 64.3641 13.7197C63.4395 13.665 62.544 14.0551 61.95 14.7712V13.9366H59.5193ZM61.9996 18.0843C61.9996 16.703 62.8774 16.0354 63.8505 16.0354L63.8464 16.0187C64.8399 16.0187 65.7303 16.6864 65.7303 18.0677C65.7303 19.4489 64.8239 20.15 63.8505 20.15C62.8774 20.15 61.9996 19.4656 61.9996 18.0843Z" fill="#161613"/>
<path fill-rule="evenodd" clip-rule="evenodd" d="M69.797 13.9366V25.3957H72.3106V21.5482C72.902 22.1356 73.7146 22.4395 74.5426 22.3828C76.8408 22.3828 78.4601 20.5174 78.4601 18.0345C78.4601 15.5516 77.0234 13.7197 74.6422 13.7197C73.7171 13.665 72.8216 14.0551 72.2276 14.7712V13.9366H69.797ZM72.2778 18.0843C72.2778 16.703 73.1553 16.0354 74.1286 16.0354V16.0187C75.1224 16.0187 75.9961 16.703 75.9961 18.0843C75.9961 19.4656 75.1019 20.15 74.1286 20.15C73.1553 20.15 72.2778 19.4656 72.2778 18.0843Z" fill="#161613"/>
<path d="M85.3046 16.4363C85.0436 16.3772 84.7769 16.3492 84.5094 16.3528C83.5034 16.3528 82.5924 16.9537 82.5924 18.6021V22.2159H80.0789V13.9366H82.5095V15.0509C82.9235 14.1202 83.9791 13.8532 84.6419 13.8532C84.8656 13.8508 85.0886 13.8789 85.3046 13.9366V16.4363Z" fill="#161613"/>
<path fill-rule="evenodd" clip-rule="evenodd" d="M90.4147 22.4661C92.4931 22.4661 93.7852 21.2643 94.1992 19.8328L92.1041 19.232C91.8688 19.9373 91.1829 20.3867 90.4475 20.3169C89.5012 20.3714 88.6777 19.6687 88.5761 18.7187H94.3027C94.3374 18.4587 94.3522 18.1964 94.3483 17.9341C94.3483 15.2677 92.7746 13.686 90.2321 13.686C88.0998 13.686 86.1326 15.3845 86.1326 18.051C86.1326 20.8344 88.1493 22.4661 90.4147 22.4661ZM90.2611 15.6847C91.4542 15.6847 91.8843 16.4526 91.9177 17.0827H88.6051C88.7002 16.2469 89.4279 15.6327 90.2611 15.6847Z" fill="#161613"/>
<path d="M97.8693 18.0848C97.8256 18.6201 98.0094 19.1488 98.3752 19.5395C98.741 19.9302 99.2533 20.1462 99.7863 20.1337C100.568 20.1687 101.271 19.6598 101.489 18.9027L103.704 19.5829C103.226 21.3477 101.6 22.5446 99.7863 22.4665C98.6169 22.502 97.4836 22.0539 96.6498 21.2264C95.8166 20.3989 95.3544 19.2639 95.3724 18.0848C95.3383 16.9168 95.78 15.7857 96.5951 14.9547C97.4103 14.1238 98.5275 13.6655 99.6873 13.6865C101.952 13.6865 103.273 15.0844 103.638 16.5701L101.389 17.2502C101.2 16.4935 100.506 15.9776 99.7329 16.0192C98.714 16.0192 97.8693 16.7536 97.8693 18.0848Z" fill="#161613"/>
<path fill-rule="evenodd" clip-rule="evenodd" d="M107.858 10.8252C107.623 10.2703 107.079 9.91336 106.481 9.92178C105.677 9.93541 105.032 10.5934 105.027 11.4032C105.026 12.0064 105.386 12.5506 105.94 12.7806C106.493 13.0106 107.129 12.8807 107.55 12.4517C107.97 12.0229 108.093 11.3802 107.858 10.8252ZM105.238 13.9365V22.2156H107.752V13.9365H105.238Z" fill="#161613"/>
<path fill-rule="evenodd" clip-rule="evenodd" d="M113.819 17.133L111.885 17.4334C110.53 17.6338 109.454 18.4683 109.458 19.9455C109.458 21.2476 110.501 22.4493 112.303 22.4493C113.226 22.5029 114.108 22.0579 114.618 21.2809C114.609 21.5947 114.637 21.9083 114.701 22.2157H116.965C116.899 21.792 116.866 21.3635 116.866 20.9345V16.8867C116.866 15.1841 115.889 13.686 113.226 13.686C110.816 13.686 109.723 15.2509 109.624 16.436L111.802 16.8867C111.862 16.1625 112.486 15.6202 113.206 15.6682C114 15.6682 114.415 16.0855 114.415 16.5696C114.415 16.8534 114.266 17.0662 113.819 17.133ZM114.415 18.6016V18.9688C114.415 20.2499 113.607 20.6004 112.911 20.6004C112.216 20.6004 111.934 20.1831 111.934 19.7659C111.934 19.1817 112.332 18.9354 112.862 18.8519L114.415 18.6016Z" fill="#161613"/>
<path d="M121.902 13.9363H123.51V16.1521H121.902V19.2485C121.902 19.9328 122.266 20.1165 122.814 20.1165C123.035 20.113 123.256 20.0851 123.472 20.033V22.1195C123.061 22.2961 122.614 22.3761 122.168 22.3532C120.466 22.3532 119.422 21.335 119.422 19.6866V16.1396H117.969V13.9237H118.383C118.738 13.9457 119.085 13.8083 119.33 13.5483C119.575 13.2883 119.694 12.9323 119.654 12.5759V11.5076H121.902V13.9363Z" fill="#161613"/>
<path fill-rule="evenodd" clip-rule="evenodd" d="M128.881 22.4661C130.963 22.4661 132.251 21.2643 132.665 19.8328L130.569 19.232C130.335 19.9383 129.649 20.3883 128.914 20.3169C127.967 20.3712 127.146 19.6681 127.046 18.7187H132.764C132.8 18.4588 132.817 18.1965 132.814 17.9341C132.814 15.2677 131.245 13.686 128.698 13.686C126.566 13.686 124.599 15.3845 124.599 18.051C124.599 20.8344 126.616 22.4661 128.881 22.4661ZM128.727 15.6845C129.92 15.6845 130.35 16.4523 130.384 17.0824H127.091C127.184 16.2542 127.901 15.6417 128.727 15.6845Z" fill="#161613"/>
<path fill-rule="evenodd" clip-rule="evenodd" d="M40.9508 30.157C41.5443 30.1528 42.1054 29.8848 42.4843 29.4245C42.8631 28.9644 43.0208 28.359 42.9153 27.7706C42.886 27.6093 42.8379 27.4521 42.7722 27.302L34.631 8.00994L33.8851 6.23877C33.6878 5.76934 33.2311 5.46436 32.7252 5.46436C32.2194 5.46436 31.7626 5.76934 31.5654 6.23877L30.8247 7.93781L22.4228 27.3227C22.1388 27.9517 22.1935 28.6833 22.5678 29.2623C22.9421 29.8414 23.584 30.1875 24.2697 30.1802H29.4657L30.6739 27.4411H25.9966L32.7381 12.3323L39.3186 27.4359H34.7996L35.9695 30.1775" fill="#161613"/>
<g style="mix-blend-mode:multiply">
<g style="mix-blend-mode:multiply">
<path d="M32.7385 12.3244L34.6313 8.02271L38.5858 17.4191L36.6444 21.2239L32.7385 12.3244Z" fill="#161613"/>
</g>
</g>
</g>
</svg>
