<svg width="155" height="36" viewBox="0 0 155 36" fill="none" xmlns="http://www.w3.org/2000/svg">
<path d="M77.2258 23.5098H72.0611L70.7201 26.4383H68.7562L74.7225 13.6165L80.4825 26.4364H78.4903L77.2258 23.5098ZM76.4833 21.7975L74.6949 17.6951L72.8203 21.7975H76.4833Z" fill="#161613"/>
<path d="M81.3067 18.8279L83.2757 23.102L85.2364 18.8279H87.2145L83.2597 26.4339L79.3389 18.8279H81.3067Z" fill="#161613"/>
<path d="M94.6569 23.0478H89.2016C89.2196 23.6021 89.4356 24.1317 89.811 24.5398C89.9917 24.7215 90.207 24.8638 90.4455 24.9579C90.6834 25.052 90.938 25.096 91.1938 25.0868C91.5802 25.1021 91.9607 24.9925 92.2802 24.7743C92.6634 24.4458 92.9887 24.0545 93.2407 23.6171L94.725 24.4447C94.5187 24.8038 94.275 25.1402 93.9986 25.4488C93.7582 25.7148 93.4824 25.9462 93.1783 26.1361C92.8852 26.3164 92.5657 26.4494 92.2314 26.5304C91.8707 26.6162 91.5011 26.6581 91.1302 26.6555C90.623 26.6776 90.1164 26.5915 89.6445 26.4028C89.1733 26.2142 88.7471 25.9274 88.3948 25.5615C87.6825 24.7599 87.3122 23.711 87.3637 22.6397C87.3142 21.5744 87.6716 20.5301 88.362 19.7178C89.0698 19.0175 90.0238 18.6221 91.0196 18.6163C92.0154 18.6105 92.9739 18.9948 93.6894 19.6869C94.3753 20.5097 94.7212 21.5629 94.6582 22.6321L94.6569 23.0478ZM92.8517 21.608C92.7842 21.1952 92.565 20.8224 92.2372 20.5624C91.9093 20.3025 91.496 20.174 91.0787 20.2019C90.8743 20.1998 90.6705 20.232 90.477 20.2972C90.2919 20.3612 90.1183 20.4565 89.9653 20.5787C89.8104 20.7029 89.6767 20.8521 89.5712 21.0201C89.4574 21.201 89.3726 21.3988 89.3205 21.6061L92.8517 21.608Z" fill="#161613"/>
<path d="M100.601 20.1258L99.1472 20.8996C98.9184 20.4303 98.6349 20.196 98.2961 20.1966C98.1424 20.1931 97.9939 20.2497 97.8814 20.3546C97.8249 20.4066 97.7805 20.4701 97.7509 20.541C97.7214 20.6119 97.7072 20.6883 97.7098 20.765C97.7098 21.0567 98.0486 21.3458 98.7255 21.6322C99.4146 21.8847 100.052 22.2606 100.608 22.7414C100.944 23.1151 101.118 23.6068 101.093 24.1088C101.099 24.4567 101.03 24.8018 100.889 25.1204C100.749 25.4388 100.541 25.7229 100.28 25.9529C99.9257 26.2569 99.504 26.4715 99.0501 26.5785C98.5956 26.6855 98.1225 26.6817 97.6699 26.5677C97.2174 26.4536 96.7989 26.2325 96.4498 25.923C96.1007 25.6134 95.8307 25.2245 95.6636 24.789L97.1627 24.0935C97.2906 24.3452 97.4501 24.5789 97.6384 24.789C97.8454 24.9842 98.1199 25.0907 98.4041 25.0857C98.9974 25.0857 99.2944 24.815 99.2951 24.2734C99.2951 23.961 99.0662 23.6694 98.6072 23.3987C98.4304 23.3102 98.253 23.2243 98.0762 23.1408C97.8994 23.0575 97.7194 22.9715 97.5375 22.8831C97.1312 22.7079 96.7648 22.4528 96.4588 22.133C96.183 21.7852 96.0416 21.3495 96.0602 20.9058C96.0519 20.5999 96.1078 20.2955 96.2248 20.0127C96.3418 19.73 96.5179 19.4753 96.7404 19.2654C97.1961 18.8361 97.8017 18.6032 98.4279 18.617C98.901 18.6148 99.3632 18.7586 99.7521 19.0287C100.14 19.2989 100.437 19.6823 100.599 20.1267L100.601 20.1258Z" fill="#161613"/>
<path d="M102.273 13.2432H104.033V19.4612C104.589 18.9273 105.328 18.6256 106.099 18.618C106.483 18.6011 106.865 18.6671 107.221 18.8113C107.577 18.9557 107.898 19.1748 108.161 19.4541C108.656 20.1215 108.889 20.9467 108.818 21.7743V26.4384H107.058V21.9402C107.096 21.4755 106.982 21.0106 106.734 20.616C106.604 20.4713 106.442 20.359 106.261 20.2879C106.08 20.2168 105.884 20.1889 105.691 20.2065C105.443 20.1812 105.194 20.2205 104.967 20.3206C104.739 20.4206 104.542 20.578 104.394 20.7773C104.099 21.3951 103.973 22.0794 104.026 22.7617V26.4431H102.266L102.273 13.2432Z" fill="#161613"/>
<path d="M116.254 18.8284H118.02V26.4387H116.254V25.6411C115.628 26.281 114.773 26.646 113.878 26.6559C112.982 26.6658 112.119 26.3198 111.479 25.6938C111.421 25.6364 111.364 25.577 111.31 25.5154C110.616 24.7089 110.251 23.6708 110.287 22.6074C110.251 21.5603 110.618 20.5395 111.31 19.7535C111.627 19.3866 112.021 19.0941 112.464 18.8968C112.907 18.6994 113.388 18.6022 113.873 18.612C114.324 18.6178 114.769 18.7182 115.18 18.9066C115.59 19.095 115.957 19.3674 116.256 19.706L116.254 18.8284ZM112.082 22.6103C112.054 23.2556 112.263 23.889 112.67 24.3911C112.854 24.6136 113.085 24.7917 113.347 24.9121C113.61 25.0325 113.896 25.0921 114.185 25.0864C114.481 25.0971 114.776 25.0424 115.048 24.9263C115.32 24.8102 115.564 24.6356 115.761 24.4148C116.151 23.9088 116.362 23.288 116.362 22.6492C116.362 22.0105 116.151 21.3897 115.761 20.8837C115.567 20.6617 115.327 20.4856 115.057 20.368C114.786 20.2505 114.494 20.1945 114.198 20.204C113.911 20.1994 113.626 20.2587 113.363 20.3775C113.102 20.4963 112.869 20.6718 112.683 20.8913C112.276 21.3697 112.062 21.9824 112.081 22.6103H112.082Z" fill="#161613"/>
<path d="M52.1097 6.1084L46.3184 18.7766L49.0272 21.2814L51.9167 23.9563L54.8048 21.2814L57.6401 18.6591L52.1097 6.1084Z" fill="#161613"/>
<path d="M36.3766 9.58154L41.2362 29.8914L46.3146 18.778L36.3766 9.58154Z" fill="#161613"/>
<path d="M49.0255 21.2818L46.3191 18.7771L41.2397 29.89H45.5019L51.9183 23.9569L49.0255 21.2818Z" fill="#161613"/>
<path d="M57.6428 18.6592L62.5961 29.8905L67.4595 9.58447L57.6428 18.6592Z" fill="#161613"/>
<path d="M54.8086 21.2807L51.9196 23.9542L58.334 29.8889H62.5977L57.6454 18.6575L54.8086 21.2807Z" fill="#161613"/>
<path d="M45.5012 29.8896H58.3325L51.9176 23.9551L45.5012 29.8896Z" fill="#161613"/>
</svg>
