<svg width="155" height="36" viewBox="0 0 155 36" fill="none" xmlns="http://www.w3.org/2000/svg">
<path d="M18.254 16.557L16.9745 17.8373C16.8193 17.9928 16.7323 18.2035 16.7323 18.423C16.7323 18.6426 16.8193 18.8532 16.9745 19.0087L25.3746 27.4081H26.7292C27.046 27.4074 27.3497 27.2812 27.5736 27.057C27.7974 26.8328 27.9233 26.529 27.9235 26.2122V25.0582L19.4254 16.557C19.2699 16.4022 19.0595 16.3152 18.8401 16.3152C18.6207 16.3152 18.4102 16.4022 18.2548 16.557H18.254Z" fill="#161613"/>
<path d="M19.6252 12.411L27.9298 20.7203V17.4788C27.9298 17.162 27.8035 16.8571 27.5791 16.6336L19.8874 8.94036C19.7764 8.82908 19.6444 8.74081 19.4992 8.68058C19.354 8.62034 19.1983 8.58936 19.0411 8.58936C18.8839 8.58936 18.7282 8.62034 18.583 8.68058C18.4378 8.74081 18.3058 8.82908 18.1948 8.94036L10.5023 16.6328C10.2785 16.8575 10.1527 17.1617 10.1524 17.4788V20.7093L18.4499 12.411C18.5268 12.3334 18.6183 12.2717 18.7192 12.2296C18.82 12.1876 18.9282 12.1659 19.0376 12.1659C19.1469 12.1659 19.2551 12.1876 19.3559 12.2296C19.4568 12.2717 19.5483 12.3334 19.6252 12.411ZM13.6396 21.1706L10.1524 24.6578V26.206C10.1524 26.8671 10.688 27.4026 11.3491 27.4026H21.0422L14.8102 21.1706C14.655 21.0153 14.4444 20.9282 14.225 20.9282C14.0054 20.9282 13.7949 21.0153 13.6396 21.1706ZM36.2091 17.1344H37.3055C37.3863 17.1344 37.4639 17.1023 37.5211 17.045C37.5782 16.9879 37.6104 16.9104 37.6104 16.8295V16.0412C37.6104 13.6456 39.1442 12.0904 41.5186 12.0904C42.2407 12.0783 42.9594 12.1932 43.6417 12.43C43.7839 12.4853 43.8629 12.6361 43.8282 12.7846L43.5422 14.001C43.5326 14.0405 43.5151 14.0777 43.4908 14.1103C43.4665 14.143 43.436 14.1704 43.401 14.191C43.3659 14.2117 43.327 14.225 43.2867 14.2304C43.2464 14.2357 43.2055 14.2329 43.1662 14.2221C42.6789 14.1071 42.1788 14.0548 41.6781 14.0666C40.5644 14.0666 39.9547 14.7601 39.9547 16.0412V16.8303C39.9547 16.9977 40.0905 17.1344 40.2588 17.1352H42.295C42.4632 17.1352 42.5991 17.271 42.5991 17.4385V18.722C42.5991 18.8026 42.5671 18.88 42.51 18.937C42.453 18.9941 42.3757 19.0261 42.295 19.0261H40.2588C40.1781 19.0261 40.1007 19.0582 40.0437 19.1152C39.9867 19.1722 39.9547 19.2495 39.9547 19.3302V27.1024C39.9547 27.1831 39.9226 27.2604 39.8656 27.3175C39.8086 27.3745 39.7312 27.4065 39.6505 27.4065H37.9113C37.8307 27.4065 37.7535 27.3746 37.6965 27.3177C37.6396 27.2609 37.6074 27.1837 37.6072 27.1032V19.3294C37.607 19.2487 37.5748 19.1714 37.5176 19.1143C37.4605 19.0573 37.383 19.0253 37.3023 19.0253H36.206C36.1253 19.0253 36.048 18.9933 35.991 18.9362C35.9339 18.8792 35.9019 18.8018 35.9019 18.7212V17.4377C35.902 17.3975 35.91 17.3579 35.9256 17.3208C35.9411 17.2838 35.9638 17.2502 35.9924 17.222C36.0209 17.1939 36.0548 17.1716 36.0919 17.1565C36.1292 17.1415 36.169 17.134 36.2091 17.1344ZM49.0941 27.1364C49.0861 27.214 49.0489 27.2855 48.9898 27.3365C48.9308 27.3875 48.8545 27.4139 48.7766 27.4105C46.5255 27.3212 45.3249 26.1704 45.3249 24.0535V12.4252C45.3249 12.3852 45.3328 12.3456 45.3481 12.3087C45.3635 12.2717 45.3859 12.2381 45.4143 12.2099C45.4426 12.1816 45.4762 12.1593 45.5132 12.144C45.5502 12.1288 45.5898 12.121 45.6298 12.1211H47.3746C47.4553 12.1211 47.5326 12.1532 47.5896 12.2102C47.6467 12.2672 47.6787 12.3446 47.6787 12.4252V23.8845C47.6787 24.755 48.189 25.1996 48.9962 25.3252C49.1542 25.3529 49.2624 25.4982 49.245 25.657L49.0941 27.1364ZM58.9089 23.7558C58.9096 23.8091 58.8963 23.8617 58.8702 23.9083C58.2541 25.0117 57.1791 25.435 56.0244 25.435C54.2598 25.435 52.8065 23.9003 52.8065 21.9454C52.8065 19.9692 54.2566 18.4558 56.0244 18.4558C57.1168 18.4558 58.0772 18.7552 58.7834 19.2473C58.8623 19.3041 58.9097 19.3957 58.9097 19.4929L58.9089 23.7558ZM55.7258 16.4811C52.7844 16.4811 50.4511 18.8981 50.4511 21.9454C50.4511 24.9919 52.7007 27.4089 55.5157 27.4089C56.9453 27.4089 58.1009 26.8631 58.7731 26.0851L58.8995 26.1269V26.8947C58.8995 27.0629 59.0353 27.1988 59.2036 27.1988H60.9523C61.0328 27.1986 61.11 27.1664 61.1668 27.1094C61.2237 27.0524 61.2556 26.9752 61.2556 26.8947V16.9961C61.2558 16.9563 61.248 16.9167 61.2327 16.8798C61.2176 16.8429 61.1953 16.8094 61.167 16.7812C61.1389 16.7529 61.1055 16.7305 61.0686 16.7152C61.0317 16.6999 60.9922 16.6921 60.9523 16.6921H59.2067C59.1261 16.6921 59.0487 16.7241 58.9917 16.7812C58.9347 16.8382 58.9026 16.9155 58.9026 16.9961V17.4274L58.7976 17.4693C58.1009 16.8809 57.1341 16.4811 55.7258 16.4811ZM64.2476 25.1049C64.2574 25.0639 64.2756 25.0253 64.3011 24.9917C64.3262 24.9581 64.359 24.9302 64.3957 24.9097C64.4323 24.8892 64.4728 24.8766 64.5152 24.8727C64.557 24.8687 64.5994 24.8736 64.6393 24.8869C65.5271 25.1886 66.4303 25.4082 67.3329 25.4082C68.3409 25.4082 69.2441 25.029 69.2441 24.146C69.2441 23.4952 68.8243 23.0741 67.2853 22.7171C65.2905 22.255 63.9238 21.3072 63.9238 19.6706C63.9238 17.5475 65.8144 16.4969 67.8748 16.4969C68.9805 16.4969 70.0329 16.7655 70.9978 17.1541C71.136 17.211 71.2125 17.3595 71.1772 17.5048L70.8744 18.7883C70.8647 18.8298 70.8467 18.8688 70.821 18.9027C70.7953 18.9366 70.7625 18.9647 70.7252 18.9853C70.688 19.0057 70.6468 19.0181 70.6044 19.0216C70.5619 19.0251 70.5189 19.0196 70.479 19.0056C69.651 18.7078 68.7967 18.493 67.959 18.493C67.0764 18.493 66.2773 18.8926 66.2773 19.6682C66.2773 20.2164 66.6765 20.6556 68.1268 20.9716C70.2701 21.4336 71.5738 22.3577 71.5738 24.1049C71.5738 26.3528 69.5777 27.4033 67.4344 27.4033C66.3037 27.3918 65.1825 27.1896 64.1188 26.8054C64.0484 26.7799 63.9899 26.7293 63.9545 26.6633C63.919 26.5972 63.9092 26.5204 63.927 26.4476L64.2476 25.1049ZM74.2892 12.0659H76.0346C76.2024 12.0659 76.3387 12.2025 76.3387 12.3707V18.1809L76.4653 18.2236C77.2213 17.3192 78.4826 16.6897 80.1457 16.6897C82.2266 16.6897 83.9501 18.2023 83.9501 21.1863V27.1024C83.9494 27.1832 83.9173 27.2605 83.8601 27.3175C83.8029 27.3745 83.7257 27.4065 83.6447 27.4065H81.9013C81.8203 27.4065 81.7432 27.3745 81.6859 27.3175C81.6287 27.2605 81.5966 27.1832 81.5959 27.1024V21.2701C81.5959 19.4423 80.5661 18.6643 79.3055 18.6643C78.1194 18.6643 77.0336 19.2014 76.3939 20.1414C76.3599 20.192 76.3419 20.2517 76.3419 20.3128V27.1024C76.3419 27.183 76.3097 27.2602 76.2532 27.3172C76.1966 27.3742 76.1194 27.4063 76.0385 27.4065H74.2931C74.2127 27.4065 74.1349 27.3745 74.0777 27.3175C74.0212 27.2604 73.989 27.1831 73.989 27.1024V12.3747C73.9877 12.2939 74.0192 12.2161 74.0752 12.1582C74.1317 12.1003 74.2082 12.0671 74.2892 12.0659Z" fill="#161613"/>
<path d="M87.2158 12.0659H88.9605C89.129 12.0659 89.2646 12.2025 89.2646 12.3708V18.181L89.3913 18.2237C90.1473 17.3193 91.4085 16.6897 93.069 16.6897C95.1487 16.6897 96.8722 18.2023 96.8722 21.1864V27.1025C96.8722 27.1424 96.8645 27.1819 96.849 27.2188C96.8336 27.2557 96.8111 27.2893 96.7828 27.3175C96.7545 27.3457 96.7211 27.3682 96.6845 27.3834C96.6472 27.3987 96.608 27.4065 96.5681 27.4065H94.8221C94.7418 27.4064 94.6646 27.3742 94.608 27.3173C94.5508 27.2602 94.5193 27.183 94.5193 27.1025V21.2702C94.5193 19.4424 93.4882 18.6644 92.2282 18.6644C91.0415 18.6644 89.9563 19.2015 89.316 20.1414C89.2826 20.1923 89.2652 20.2519 89.2646 20.3128V27.1025C89.2646 27.1831 89.2325 27.2603 89.1759 27.3173C89.1187 27.3743 89.0415 27.4064 88.9605 27.4065H87.2152C87.1348 27.4064 87.0577 27.3743 87.0005 27.3173C86.9432 27.2603 86.9111 27.1831 86.9111 27.1025V12.3747C86.9105 12.3344 86.9182 12.2943 86.933 12.2568C86.9484 12.2194 86.9709 12.1853 86.9992 12.1566C87.0275 12.1278 87.0609 12.1051 87.0982 12.0894C87.1355 12.0739 87.1753 12.0659 87.2158 12.0659ZM101.453 21.9455C101.453 19.9898 102.882 18.4559 104.73 18.4559C106.602 18.4559 108.03 19.9898 108.03 21.9455C108.03 23.9209 106.601 25.4351 104.73 25.4351C102.882 25.4351 101.453 23.9209 101.453 21.9455ZM99.0984 21.9455C99.0984 24.992 101.537 27.4089 104.73 27.4089C107.945 27.4089 110.384 24.9927 110.384 21.9455C110.384 18.8982 107.943 16.4812 104.73 16.4812C101.537 16.4812 99.0984 18.8982 99.0984 21.9455ZM122.588 22.4865C122.588 25.4501 120.36 27.4034 117.522 27.4034C114.707 27.4034 112.479 25.4501 112.479 22.4865V16.9907C112.479 16.9507 112.487 16.9111 112.502 16.8741C112.517 16.8372 112.54 16.8036 112.568 16.7754C112.596 16.7471 112.63 16.7248 112.667 16.7095C112.704 16.6943 112.744 16.6865 112.784 16.6866H114.529C114.609 16.6866 114.686 16.7186 114.744 16.7756C114.801 16.8327 114.833 16.91 114.833 16.9907V22.4865C114.833 24.3775 116.008 25.4288 117.522 25.4288C119.037 25.4288 120.234 24.3775 120.234 22.4865V16.9907C120.234 16.8224 120.37 16.6866 120.538 16.6866H122.284C122.451 16.6866 122.588 16.8224 122.588 16.9907V22.4865ZM125.193 25.1049C125.203 25.0638 125.221 25.0253 125.247 24.9916C125.272 24.9579 125.304 24.9299 125.341 24.9094C125.378 24.8889 125.419 24.8763 125.461 24.8724C125.502 24.8685 125.545 24.8735 125.585 24.8869C126.473 25.1886 127.376 25.4082 128.278 25.4082C129.286 25.4082 130.19 25.0291 130.19 24.146C130.19 23.4952 129.77 23.0742 128.231 22.7172C126.236 22.2551 124.869 21.3072 124.869 19.6707C124.869 17.5476 126.761 16.497 128.82 16.497C129.926 16.497 130.978 16.7656 131.943 17.1542C132.081 17.211 132.159 17.3595 132.123 17.5049L131.82 18.7884C131.811 18.8299 131.792 18.8688 131.766 18.9028C131.741 18.9366 131.708 18.9648 131.671 18.9853C131.633 19.0058 131.592 19.0182 131.55 19.0217C131.507 19.0252 131.465 19.0197 131.424 19.0056C130.596 18.7079 129.742 18.493 128.905 18.493C128.022 18.493 127.223 18.8927 127.223 19.6683C127.223 20.2164 127.622 20.6556 129.072 20.9715C131.216 21.4336 132.519 22.3578 132.519 24.105C132.519 26.3529 130.523 27.4034 128.381 27.4034C127.249 27.3918 126.129 27.1896 125.065 26.8055C124.994 26.78 124.935 26.7294 124.9 26.6633C124.865 26.5973 124.855 26.5205 124.872 26.4477L125.193 25.1049ZM137.066 20.7662C137.017 20.766 136.97 20.7543 136.927 20.7321C136.884 20.7098 136.847 20.6778 136.819 20.6384C136.79 20.5991 136.772 20.5537 136.765 20.5059C136.758 20.458 136.762 20.4092 136.778 20.3634C137.184 19.2197 138.098 18.4582 139.458 18.4582C140.675 18.4582 141.644 19.098 141.874 20.4092C141.882 20.4532 141.881 20.4985 141.869 20.5417C141.858 20.585 141.837 20.6252 141.809 20.6596C141.78 20.694 141.744 20.7217 141.704 20.7409C141.663 20.76 141.619 20.7699 141.575 20.7701H137.066V20.7662ZM144.291 21.2196C144.096 18.1376 142.25 16.4812 139.396 16.4812C136.181 16.5223 134.184 19.0862 134.184 21.9652C134.184 25.349 136.58 27.4074 140.11 27.4074C141.251 27.4103 142.379 27.1676 143.418 26.6957C143.481 26.6657 143.532 26.6146 143.562 26.5512C143.592 26.4878 143.598 26.416 143.582 26.3481L143.285 25.1475C143.275 25.1057 143.256 25.0665 143.229 25.0326C143.202 24.9987 143.168 24.971 143.13 24.9513C143.092 24.9315 143.049 24.9202 143.006 24.9181C142.963 24.916 142.92 24.9231 142.88 24.9391C141.996 25.2749 141.056 25.4424 140.11 25.4327C137.98 25.3932 136.868 24.5575 136.601 22.8396C136.594 22.7962 136.597 22.7519 136.609 22.7098C136.621 22.6677 136.643 22.6287 136.671 22.5955C136.7 22.5622 136.735 22.5356 136.775 22.5174C136.815 22.4991 136.859 22.4897 136.902 22.4897H143.987C144.067 22.4897 144.144 22.4578 144.201 22.4009C144.258 22.344 144.291 22.2669 144.291 22.1864V21.2196H144.291Z" fill="#161613"/>
</svg>
