<svg width="155" height="36" viewBox="0 0 155 36" fill="none" xmlns="http://www.w3.org/2000/svg">
<path fill-rule="evenodd" clip-rule="evenodd" d="M53.7503 20.6755V21.9331C53.7503 24.1407 54.6315 26.1108 55.5266 27.4521C56.5337 28.9611 57.8904 29.8693 59.429 30.8334C60.6459 31.6019 63.1076 32.4542 64.7718 32.7755C66.8283 33.1807 68.8841 33.4881 71.3598 33.4881H72.5767C80.1579 33.4881 87.851 31.2945 92.8023 28.6677V25.1048C91.4593 25.8174 89.8091 26.7535 88.2566 27.2286C87.9204 27.3263 87.4029 27.5499 87.0673 27.6757C86.6475 27.8294 86.2284 27.9412 85.8086 28.0948C85.1793 28.3464 83.9206 28.6817 83.207 28.8354C82.3121 29.031 81.4449 29.2685 80.5076 29.4641C79.5286 29.6597 78.6613 29.7576 77.654 29.9392C76.7167 30.1068 75.6123 30.1628 74.6191 30.2326C73.5699 30.3024 72.4931 30.3444 71.3598 30.3444H71.1219C67.1079 30.3444 63.2755 29.7156 60.59 28.3743C58.0164 27.0888 55.5966 24.6996 55.5966 20.8712V20.5219C55.5966 18.7194 56.1561 17.3362 56.6736 16.0367C56.8974 15.4639 57.331 14.7373 57.6667 14.2483C57.8765 13.941 58.0443 13.7174 58.2541 13.424C58.4499 13.1585 58.7437 12.879 58.8975 12.6555V11.3979C58.2681 11.8172 57.6107 12.6415 57.0792 13.1864C56.4778 13.8152 56.0302 14.5138 55.5407 15.2404C54.7993 16.3442 53.7503 18.8871 53.7503 20.6755Z" fill="#161613"/>
<path fill-rule="evenodd" clip-rule="evenodd" d="M100.788 13.9131V12.7814C100.774 12.7673 100.607 11.5099 100.579 11.3422C100.509 10.937 100.355 10.4061 100.215 10.0567C99.8653 9.19049 99.5715 8.60363 99.0405 7.90503C98.0615 6.61958 96.9005 5.6974 95.4315 4.88701C92.7598 3.40595 88.6758 2.51172 84.5216 2.51172H84.1719C79.8783 2.51172 76.3252 3.22431 72.9823 4.17442C72.101 4.42592 71.3739 4.67742 70.5485 4.95687C69.8632 5.18042 68.87 5.55767 68.2406 5.86507C67.5135 6.22835 66.7723 6.53575 66.0588 6.89903C65.6814 7.08063 64.2125 7.97485 63.9747 8.03078V8.9669C64.2964 8.89703 65.4853 8.24035 65.9469 8.04473C66.5763 7.77929 67.3734 7.3741 68.0169 7.17848C68.3107 7.09465 68.7864 6.91298 69.0802 6.78723C69.4299 6.63353 69.7931 6.5497 70.1711 6.42395C70.884 6.18643 71.6677 5.92096 72.423 5.72534C74.0315 5.32015 75.458 4.99879 77.2207 4.67742C78.7173 4.41195 80.8432 4.14648 82.5358 4.14648H84.2979C87.7385 4.14648 91.4452 4.92893 93.6553 6.15848C94.9983 6.89903 95.8931 7.52774 96.8163 8.68745C97.5157 9.55377 98.3829 11.3003 98.3829 12.8512V13.5219C98.3829 15.1426 97.5433 16.9032 96.8304 17.8393C96.3965 18.4121 95.9773 18.9291 95.4457 19.4042C95.1937 19.6277 93.9909 20.5779 93.7113 20.6477V23.2326C94.2705 23.1907 95.9214 22.1148 96.3547 21.7934C97.1383 21.2066 97.8513 20.536 98.453 19.7675C99.1383 18.9012 99.5021 18.2584 100.005 17.1966C100.229 16.7215 100.355 16.2185 100.523 15.6736C100.565 15.478 100.788 13.9131 100.788 13.9131Z" fill="#161613"/>
<path fill-rule="evenodd" clip-rule="evenodd" d="M79.6681 18.2586V18.7337C79.6681 21.4304 81.3189 23.4004 84.0183 23.4004H84.5216C85.3329 23.4004 85.9205 23.2048 86.5081 22.9533C87.1374 22.6878 87.473 22.2267 87.9487 21.9054L86.4103 20.4663C86.1024 20.9134 85.2628 21.3605 84.494 21.3605H84.0601C83.0392 21.3605 82.1019 20.4942 82.1019 19.5161V19.2367H88.2142V18.1748C88.2142 16.9313 87.7668 15.7296 87.2216 15.0171C86.7041 14.3324 85.655 13.564 84.494 13.564H83.7528C82.5217 13.564 81.4025 14.3324 80.8014 15.0031C80.1721 15.6738 79.6681 16.9592 79.6681 18.2586ZM82.0884 17.3085V17.5879H85.781V17.3924C85.781 16.4143 85.0816 15.548 84.0601 15.548H83.8646C82.955 15.548 82.0884 16.4283 82.0884 17.3085Z" fill="#161613"/>
<path fill-rule="evenodd" clip-rule="evenodd" d="M65.1916 23.2326H67.5836V15.6736H69.7372C70.2129 15.6736 70.6044 16.0369 70.6044 16.498V23.2326H73.0383V16.5399C73.0383 14.9471 71.9615 13.7175 70.3666 13.7175H65.1916V23.2326Z" fill="#161613"/>
<path fill-rule="evenodd" clip-rule="evenodd" d="M74.801 20.4103C74.801 22.0171 75.8501 23.2327 77.4303 23.2327H79.067V21.1927H77.8501C77.4862 21.1927 77.2207 20.7736 77.2207 20.4103V15.6737H79.067V13.7176H77.2207V11.0908H74.7868V20.4103H74.801Z" fill="#161613"/>
<path fill-rule="evenodd" clip-rule="evenodd" d="M89.6131 20.9131C89.6131 21.5698 90.0046 22.1567 90.3543 22.492C90.5362 22.6737 90.83 22.8274 91.0955 22.9251C91.4735 23.0788 91.6689 23.0509 92.0469 23.1487V9.74927H89.6131V20.9131Z" fill="#161613"/>
<path fill-rule="evenodd" clip-rule="evenodd" d="M60.562 15.9391L60.5759 20.6757C60.5759 22.2825 61.5131 23.3025 63.0516 23.3444V13.7175H60.6319L60.562 15.9391Z" fill="#161613"/>
<path fill-rule="evenodd" clip-rule="evenodd" d="M60.6039 12.3763H63.0377V10.0708H60.6039V12.3763Z" fill="#161613"/>
<path fill-rule="evenodd" clip-rule="evenodd" d="M94.6762 9.74927C94.844 9.74927 94.9983 9.79125 95.1519 9.87508C95.3056 9.9589 95.4316 10.0846 95.5158 10.2384C95.5993 10.392 95.6411 10.5597 95.6411 10.7274C95.6411 10.895 95.5993 11.0627 95.5158 11.2164C95.4316 11.3701 95.3056 11.4958 95.1519 11.5797C94.9983 11.6635 94.8298 11.7054 94.6621 11.7054C94.4943 11.7054 94.3265 11.6635 94.1728 11.5797C94.0192 11.4958 93.8932 11.3701 93.809 11.2164C93.7254 11.0627 93.683 10.895 93.683 10.7274C93.683 10.5597 93.7254 10.392 93.809 10.2384C93.8932 10.0846 94.0192 9.9589 94.1728 9.87508C94.3548 9.79125 94.5084 9.74927 94.6762 9.74927ZM94.6762 9.90298C94.5367 9.90298 94.4107 9.94489 94.2706 10.0148C94.1446 10.0846 94.0468 10.1824 93.9626 10.3082C93.8932 10.4339 93.8508 10.5737 93.8508 10.7134C93.8508 10.8531 93.8932 10.9928 93.9626 11.1186C94.0327 11.2444 94.1311 11.3421 94.2706 11.412C94.3966 11.4818 94.5367 11.5237 94.6762 11.5237C94.8163 11.5237 94.9558 11.4818 95.0818 11.412C95.2078 11.3421 95.3056 11.2444 95.3756 11.1186C95.4457 10.9928 95.4875 10.8531 95.4875 10.7134C95.4875 10.5737 95.4457 10.4339 95.3756 10.3082C95.3056 10.1824 95.2078 10.0846 95.0677 10.0148C94.9423 9.94489 94.8022 9.90298 94.6762 9.90298ZM94.2429 11.2583V10.2104H94.6061C94.7321 10.2104 94.8163 10.2243 94.8723 10.2384C94.9282 10.2523 94.97 10.2942 94.9983 10.3361C95.0259 10.378 95.0401 10.4339 95.0401 10.4898C95.0401 10.5597 95.0118 10.6295 94.9558 10.6855C94.8999 10.7413 94.8298 10.7693 94.7321 10.7832C94.7739 10.7972 94.8022 10.8112 94.8163 10.8392C94.8581 10.8811 94.9141 10.9509 94.97 11.0487L95.096 11.2583H94.8864L94.7881 11.0907C94.718 10.9649 94.6621 10.8811 94.6061 10.8531C94.5785 10.8252 94.5367 10.8112 94.4666 10.8112H94.3683V11.2583H94.2429ZM94.4107 10.6714H94.6203C94.718 10.6714 94.7881 10.6575 94.8163 10.6295C94.8581 10.6016 94.8723 10.5597 94.8723 10.5178C94.8723 10.4898 94.8581 10.4619 94.844 10.4339C94.8298 10.406 94.8022 10.392 94.7739 10.378C94.7463 10.3641 94.6903 10.3641 94.6061 10.3641H94.4107V10.6714Z" fill="#161613"/>
</svg>
