<svg width="155" height="36" viewBox="0 0 155 36" fill="none" xmlns="http://www.w3.org/2000/svg">
<path d="M14.1633 25.0338H10.0647C9.3389 25.0338 8.95466 24.4352 9.21084 23.7511L13.5656 10.8377C13.8217 10.1108 14.5902 9.55493 15.316 9.55493H19.4146C20.1404 9.55493 20.5246 10.1536 20.2684 10.8377L15.871 23.7511C15.6575 24.478 14.8891 25.0338 14.1633 25.0338Z" fill="#161613"/>
<path d="M6.22219 25.0338H2.12363C1.39784 25.0338 1.0136 24.4352 1.26976 23.7511L5.62449 10.8377C5.88065 10.1108 6.6491 9.55493 7.37489 9.55493H11.4735C12.1993 9.55493 12.5835 10.1536 12.3273 10.8377L7.92993 23.7511C7.71644 24.478 6.90528 25.0338 6.22219 25.0338Z" fill="#161613"/>
<path d="M22.2323 25.0338H18.1337C17.4079 25.0338 17.0237 24.4352 17.2798 23.7511L21.6346 10.8377C21.8907 10.1108 22.6592 9.55493 23.385 9.55493H27.4835C28.2093 9.55493 28.5936 10.1536 28.3374 10.8377L23.94 23.7511C23.7265 24.478 22.9154 25.0338 22.2323 25.0338Z" fill="#161613"/>
<path d="M42.3836 28.2408C42.3836 29.0105 41.7859 29.6091 41.0174 29.6091C40.2489 29.6091 39.6513 29.0105 39.6513 28.2408C39.6513 27.4712 40.2489 26.8726 41.0174 26.8726C41.7859 26.8726 42.3836 27.5139 42.3836 28.2408Z" fill="#161613"/>
<path d="M28.807 29.609H24.7084C23.9826 29.609 23.5984 29.0104 23.8545 28.3262L30.8135 7.67341C31.0697 6.94653 31.8382 6.39062 32.564 6.39062H36.6626C37.3884 6.39062 37.7726 6.98928 37.5164 7.67341L30.5147 28.3262C30.3012 29.0532 29.5328 29.609 28.807 29.609Z" fill="#161613"/>
<path d="M36.7907 29.6093H32.6921C31.9663 29.6093 31.5821 29.0106 31.8383 28.3265L36.193 15.4131C36.4491 14.6863 37.2176 14.1304 37.9434 14.1304H42.0419C42.7677 14.1304 43.152 14.729 42.8958 15.4131L38.5411 28.3265C38.285 29.0534 37.5165 29.6093 36.7907 29.6093Z" fill="#161613"/>
<path d="M64.7975 18.2779C64.7975 16.1827 63.7731 15.0282 61.7665 15.0282C59.8453 15.0282 58.6925 16.2255 58.6925 18.1069V25.0766H57.5398V18.2779C57.5398 16.1827 56.5152 15.0282 54.5513 15.0282C52.5874 15.0282 51.4774 16.2255 51.4774 18.2779V25.0339H50.3246V14.1302H51.4774V15.413C52.2885 14.4723 53.3986 14.002 54.722 14.002C56.3444 14.002 57.5825 14.6861 58.2229 16.0117C59.0341 14.7289 60.3149 14.002 61.9373 14.002C63.1327 14.002 64.1146 14.3868 64.7975 15.0282C65.5233 15.7551 65.9501 16.7813 65.9501 18.0641V25.0339H64.7975V18.2779Z" fill="#161613"/>
<path d="M70.8172 14.1304H69.6646V25.034H70.8172V14.1304Z" fill="#161613"/>
<path d="M77.9902 25.162C76.0687 25.162 74.7026 24.6489 73.5924 23.58L74.4037 22.7675C75.2574 23.6655 76.4531 24.093 77.9902 24.093C80.1245 24.093 81.2771 23.3662 81.2771 21.8696C81.2771 20.7151 80.6368 20.2019 79.1853 20.0309L77.3923 19.8599C75.215 19.6888 74.1048 18.7481 74.1048 16.995C74.1048 15.0708 75.6418 13.8735 78.0326 13.8735C79.5697 13.8735 80.8933 14.3012 81.875 15.028L81.1068 15.7977C80.2531 15.1991 79.2708 14.857 78.0326 14.857C76.2397 14.857 75.2574 15.5839 75.2574 16.9522C75.2574 18.1067 75.9408 18.6199 77.4778 18.7909L79.2283 18.9619C81.0213 19.1329 82.4304 19.6888 82.4304 21.8268C82.3449 23.922 80.6799 25.162 77.9902 25.162Z" fill="#161613"/>
<path d="M88.4925 25.162C86.571 25.162 85.205 24.6489 84.0948 23.58L84.906 22.7675C85.7598 23.6655 86.9555 24.093 88.4925 24.093C90.6268 24.093 91.7795 23.3662 91.7795 21.8696C91.7795 20.7151 91.1392 20.2019 89.6876 20.0309L87.8947 19.8599C85.7173 19.6888 84.6071 18.7481 84.6071 16.995C84.6071 15.0708 86.1442 13.8735 88.535 13.8735C90.072 13.8735 91.3957 14.3012 92.3773 15.028L91.6091 15.7977C90.7554 15.1991 89.7731 14.857 88.535 14.857C86.742 14.857 85.7598 15.5839 85.7598 16.9522C85.7598 18.1067 86.4431 18.6199 87.9802 18.7909L89.7307 18.9619C91.5236 19.1329 92.9328 19.6888 92.9328 21.8268C92.8473 23.922 91.1823 25.162 88.4925 25.162Z" fill="#161613"/>
<path d="M96.9461 14.1304H95.7928V25.034H96.9461V14.1304Z" fill="#161613"/>
<path d="M107.576 23.9647C106.765 24.7772 105.783 25.162 104.545 25.162C103.307 25.162 102.325 24.7344 101.514 23.9647C100.361 22.8102 100.148 21.1426 100.148 19.5605C100.148 17.9784 100.361 16.3107 101.514 15.1562C102.325 14.3439 103.307 13.959 104.545 13.959C105.783 13.959 106.765 14.3866 107.576 15.1562C108.729 16.3107 108.942 17.9784 108.942 19.5605C108.942 21.1426 108.729 22.8102 107.576 23.9647ZM106.808 15.9259C106.21 15.3273 105.441 14.9852 104.545 14.9852C103.649 14.9852 102.88 15.2846 102.282 15.9259C101.386 16.8239 101.3 18.3204 101.3 19.5605C101.3 20.8433 101.386 22.2971 102.282 23.195C102.88 23.7937 103.649 24.1357 104.545 24.1357C105.441 24.1357 106.21 23.8364 106.808 23.195C107.704 22.2971 107.79 20.8005 107.79 19.5605C107.79 18.3204 107.704 16.8239 106.808 15.9259Z" fill="#161613"/>
<path d="M119.402 18.2779C119.402 16.1827 118.378 15.0282 116.414 15.0282C114.45 15.0282 113.34 16.2255 113.34 18.2779V25.0339H112.188V14.1302H113.34V15.413C114.152 14.4723 115.219 14.002 116.542 14.002C117.737 14.002 118.72 14.344 119.445 15.0282C120.171 15.7551 120.555 16.7813 120.555 18.0641V25.0339H119.402V18.2779Z" fill="#161613"/>
<path d="M135.541 24.2214C134.985 24.7773 134.004 25.1621 132.851 25.1621C131.613 25.1621 130.588 24.9056 129.606 23.6228V25.0339H128.453V9.51221H129.606V15.4985C130.588 14.2157 131.613 13.9592 132.851 13.9592C134.004 13.9592 134.943 14.344 135.541 14.8999C136.65 16.0116 136.949 17.8075 136.949 19.5606C136.949 21.3138 136.65 23.1097 135.541 24.2214ZM132.722 14.9854C130.033 14.9854 129.649 17.2944 129.649 19.5606C129.649 21.8269 130.076 24.1359 132.722 24.1359C135.412 24.1359 135.797 21.8269 135.797 19.5606C135.797 17.2944 135.37 14.9854 132.722 14.9854Z" fill="#161613"/>
<path d="M141.304 14.1304H140.151V25.034H141.304V14.1304Z" fill="#161613"/>
<path d="M151.935 23.9647C151.124 24.7772 150.142 25.162 148.904 25.162C147.666 25.162 146.683 24.7344 145.872 23.9647C144.719 22.8102 144.506 21.1426 144.506 19.5605C144.506 17.9784 144.719 16.3107 145.872 15.1562C146.683 14.3439 147.666 13.959 148.904 13.959C150.142 13.959 151.124 14.3866 151.935 15.1562C153.087 16.3107 153.301 17.9784 153.301 19.5605C153.301 21.1426 153.087 22.8102 151.935 23.9647ZM151.166 15.9259C150.569 15.3273 149.8 14.9852 148.904 14.9852C148.007 14.9852 147.238 15.2846 146.641 15.9259C145.744 16.8239 145.659 18.3204 145.659 19.5605C145.659 20.8433 145.744 22.2971 146.641 23.195C147.238 23.7937 148.007 24.1357 148.904 24.1357C149.8 24.1357 150.569 23.8364 151.166 23.195C152.063 22.2971 152.148 20.8005 152.148 19.5605C152.148 18.3204 152.063 16.8239 151.166 15.9259Z" fill="#161613"/>
<path d="M141.56 11.9494C141.56 12.4198 141.176 12.7618 140.749 12.7618C140.322 12.7618 139.938 12.377 139.938 11.9494C139.938 11.479 140.322 11.137 140.749 11.137C141.176 11.137 141.56 11.5218 141.56 11.9494Z" fill="#161613"/>
<path d="M97.1589 11.9494C97.1589 12.4198 96.7751 12.7618 96.3482 12.7618C95.8783 12.7618 95.537 12.377 95.537 11.9494C95.537 11.479 95.9207 11.137 96.3482 11.137C96.8175 11.137 97.1589 11.5218 97.1589 11.9494Z" fill="#161613"/>
<path d="M71.0313 11.9494C71.0313 12.4198 70.6468 12.7618 70.22 12.7618C69.75 12.7618 69.4087 12.377 69.4087 11.9494C69.4087 11.479 69.7931 11.137 70.22 11.137C70.6893 11.137 71.0313 11.5218 71.0313 11.9494Z" fill="#161613"/>
</svg>
