<svg width="155" height="36" viewBox="0 0 155 36" fill="none" xmlns="http://www.w3.org/2000/svg">
<mask id="mask0_486_555" style="mask-type:luminance" maskUnits="userSpaceOnUse" x="24" y="4" width="106" height="28">
<path d="M129.912 4.5H24.4837V31.5H129.912V4.5Z" fill="white"/>
</mask>
<g mask="url(#mask0_486_555)">
<path d="M58.8574 27.5748C57.7589 27.5748 57.2286 26.9933 57.2286 25.8689V10.6703C57.2286 9.54595 57.7968 8.96436 58.8952 8.96436H65.0308C67.0005 8.96436 68.5157 9.42959 69.5764 10.3989C70.6365 11.3682 71.1669 12.7252 71.1669 14.47C71.1669 15.8269 70.8262 16.9901 70.1062 17.8819C69.4247 18.7736 68.4019 19.394 67.1143 19.7041C67.9854 19.9755 68.7054 20.6347 69.2351 21.7203L71.1289 25.326C71.4324 25.8689 71.4697 26.4117 71.2807 26.877C71.091 27.3422 70.6744 27.5748 69.9551 27.5748C69.5006 27.5748 69.1219 27.4585 68.8185 27.2646C68.5157 27.0708 68.2882 26.7606 68.0612 26.3341L65.5991 21.4877C65.2963 20.9061 64.9177 20.5184 64.5011 20.2858C64.0841 20.0919 63.554 19.9755 62.9101 19.9755H60.486V25.8301C60.486 26.9933 59.9557 27.5748 58.8574 27.5748ZM60.486 17.5329H64.4632C66.8488 17.5329 68.0233 16.5249 68.0233 14.5475C68.0233 12.5701 66.8488 11.6008 64.4632 11.6008H60.486V17.5329Z" fill="#161613"/>
<path d="M79.6885 27.6137C78.2871 27.6137 77.0753 27.3423 76.0525 26.7995C75.0297 26.2566 74.2345 25.4812 73.7042 24.5119C73.1359 23.5039 72.871 22.3407 72.871 20.9837C72.871 19.6654 73.1359 18.5024 73.6662 17.5331C74.1966 16.525 74.9545 15.7495 75.9015 15.2067C76.8477 14.6252 77.9085 14.3538 79.1209 14.3538C80.901 14.3538 82.2645 14.9353 83.3245 16.0597C84.3473 17.2229 84.8777 18.7737 84.8777 20.7511C84.8777 21.4103 84.4611 21.7204 83.6659 21.7204H75.9767C76.2042 24.0079 77.4919 25.1324 79.8023 25.1324C80.2568 25.1324 80.7492 25.0936 81.2796 24.9772C81.8479 24.8609 82.3403 24.6671 82.8321 24.3956C83.2872 24.1243 83.6659 24.0467 83.9687 24.1631C84.2715 24.2406 84.499 24.4344 84.6128 24.7058C84.726 24.9772 84.7639 25.2875 84.6507 25.6364C84.5749 25.9853 84.3094 26.2566 83.9307 26.5281C83.3245 26.9158 82.6431 27.1872 81.8858 27.3811C81.09 27.5362 80.3706 27.6137 79.6885 27.6137ZM79.234 16.5638C78.2871 16.5638 77.5298 16.8739 76.9615 17.4555C76.3932 18.0371 76.0525 18.8513 75.9015 19.8593H82.1507C82.0748 18.8125 81.81 17.9983 81.2796 17.4167C80.863 16.8351 80.143 16.5638 79.234 16.5638Z" fill="#161613"/>
<path d="M92.6049 27.6137C91.2793 27.6137 90.1427 27.3423 89.1958 26.7995C88.2109 26.2566 87.4916 25.4812 86.9612 24.4732C86.4309 23.4651 86.166 22.302 86.166 20.945C86.166 19.5879 86.4309 18.4248 86.9612 17.4555C87.4916 16.4862 88.2489 15.7107 89.1958 15.1679C90.1807 14.6252 91.3172 14.3538 92.6049 14.3538C93.1732 14.3538 93.7787 14.4313 94.4229 14.5864C95.0664 14.7414 95.7105 15.0128 96.2788 15.3618C96.6195 15.5557 96.8092 15.8271 96.885 16.176C96.9602 16.525 96.885 16.7964 96.7712 17.1065C96.6195 17.378 96.4299 17.5718 96.1271 17.6881C95.8622 17.8044 95.5215 17.7657 95.1802 17.5718C94.3849 17.1065 93.6277 16.9127 92.9077 16.9127C91.8097 16.9127 90.9379 17.2617 90.3324 17.9595C89.7262 18.6574 89.4234 19.6654 89.4234 20.9837C89.4234 22.2632 89.7262 23.2713 90.3324 24.0079C90.9379 24.7446 91.7717 25.1324 92.9077 25.1324C93.6277 25.1324 94.3849 24.8997 95.1802 24.4732C95.5215 24.2793 95.8622 24.2406 96.1271 24.3569C96.3926 24.4732 96.5816 24.6671 96.6954 24.9772C96.8092 25.2486 96.8471 25.5588 96.7712 25.9078C96.6954 26.2179 96.5057 26.4893 96.2029 26.7219C95.6347 27.071 95.0664 27.3035 94.4229 27.4974C93.7787 27.5362 93.1732 27.6137 92.6049 27.6137Z" fill="#161613"/>
<path d="M102.414 27.6139C101.505 27.6139 100.71 27.42 99.9906 27.0711C99.2706 26.7221 98.7402 26.2181 98.3237 25.6365C97.9071 25.0161 97.7175 24.357 97.7175 23.5816C97.7175 22.6511 97.945 21.9144 98.4375 21.3716C98.9299 20.8288 99.6872 20.441 100.748 20.1696C101.809 19.937 103.248 19.8207 105.066 19.8207H105.975V19.2779C105.975 18.4249 105.785 17.7658 105.407 17.4168C105.028 17.0292 104.422 16.8353 103.513 16.8353C103.02 16.8353 102.49 16.9128 101.922 17.0292C101.354 17.1454 100.748 17.3781 100.142 17.6495C99.7251 17.8434 99.3844 17.8434 99.1195 17.727C98.854 17.5719 98.6644 17.3393 98.5892 17.0292C98.5133 16.7189 98.5133 16.37 98.6265 16.0599C98.7403 15.7109 99.0057 15.4782 99.4223 15.3232C100.218 14.9742 100.938 14.7416 101.695 14.6253C102.414 14.4702 103.058 14.4314 103.665 14.4314C105.483 14.4314 106.846 14.8579 107.717 15.7109C108.588 16.5639 109.043 17.9209 109.043 19.7044V25.9466C109.043 27.0711 108.55 27.6139 107.565 27.6139C106.581 27.6139 106.05 27.0711 106.05 25.9466V25.3651C105.747 26.0629 105.293 26.6446 104.687 27.0322C104.005 27.42 103.248 27.6139 102.414 27.6139ZM103.058 25.3651C103.891 25.3651 104.574 25.0549 105.141 24.4733C105.709 23.8918 105.975 23.1163 105.975 22.2246V21.643H105.103C103.513 21.643 102.414 21.7593 101.771 22.0307C101.164 22.3021 100.824 22.7286 100.824 23.3877C100.824 23.9693 101.013 24.4346 101.391 24.7835C101.809 25.21 102.376 25.3651 103.058 25.3651Z" fill="#161613"/>
<path d="M115.975 27.6134C113.133 27.6134 111.732 25.9849 111.732 22.7282V10.3987C111.732 9.31309 112.262 8.77026 113.323 8.77026C114.384 8.77026 114.913 9.31309 114.913 10.3987V22.573C114.913 24.124 115.558 24.9382 116.808 24.9382C116.959 24.9382 117.072 24.9382 117.186 24.9382C117.3 24.9382 117.413 24.8994 117.527 24.8994C117.754 24.8607 117.944 24.9382 118.02 25.0933C118.095 25.2483 118.133 25.5973 118.133 26.1013C118.133 26.5278 118.057 26.8768 117.868 27.1094C117.717 27.342 117.413 27.4971 117.035 27.5359C116.732 27.5747 116.353 27.6134 115.975 27.6134Z" fill="#161613"/>
<path d="M124.95 27.6137C123.625 27.6137 122.489 27.3423 121.542 26.7995C120.557 26.2566 119.837 25.4812 119.307 24.4732C118.777 23.4651 118.511 22.302 118.511 20.945C118.511 19.5879 118.777 18.4248 119.307 17.4555C119.837 16.4862 120.595 15.7107 121.542 15.1679C122.527 14.6252 123.663 14.3538 124.95 14.3538C125.519 14.3538 126.125 14.4313 126.769 14.5864C127.412 14.7414 128.056 15.0128 128.625 15.3618C128.965 15.5557 129.154 15.8271 129.23 16.176C129.306 16.525 129.23 16.7964 129.117 17.1065C128.965 17.378 128.776 17.5718 128.473 17.6881C128.208 17.8044 127.867 17.7657 127.527 17.5718C126.731 17.1065 125.973 16.9127 125.254 16.9127C124.156 16.9127 123.284 17.2617 122.678 17.9595C122.072 18.6574 121.769 19.6654 121.769 20.9837C121.769 22.2632 122.072 23.2713 122.678 24.0079C123.284 24.7446 124.117 25.1324 125.254 25.1324C125.973 25.1324 126.731 24.8997 127.527 24.4732C127.867 24.2793 128.208 24.2406 128.473 24.3569C128.738 24.4732 128.928 24.6671 129.041 24.9772C129.154 25.2486 129.193 25.5588 129.117 25.9078C129.041 26.2179 128.852 26.4893 128.548 26.7219C127.981 27.071 127.412 27.3035 126.769 27.4974C126.125 27.5362 125.519 27.6137 124.95 27.6137Z" fill="#161613"/>
<path d="M43.0251 16.5049H32.1927C31.2079 16.5049 30.4504 15.6908 30.4504 14.7215C30.4504 13.7522 31.2458 12.938 32.1927 12.938H43.0251C44.01 12.938 44.7674 13.7522 44.7674 14.7215C44.7674 15.6908 44.01 16.5049 43.0251 16.5049Z" fill="#161613"/>
<path d="M43.0248 22.9022H32.1923C31.2076 22.9022 30.45 22.088 30.45 21.1187C30.45 20.1106 31.2454 19.3352 32.1923 19.3352H43.0248C44.0095 19.3352 44.7672 20.1494 44.7672 21.1187C44.805 22.088 44.0095 22.9022 43.0248 22.9022Z" fill="#161613"/>
<path d="M43.0251 16.5049H32.1927C31.2079 16.5049 30.4504 15.6908 30.4504 14.7215C30.4504 13.7522 31.2458 12.938 32.1927 12.938H43.0251C44.01 12.938 44.7674 13.7522 44.7674 14.7215C44.7674 15.6908 44.01 16.5049 43.0251 16.5049Z" fill="#161613"/>
<path d="M43.0248 22.9022H32.1923C31.2076 22.9022 30.45 22.088 30.45 21.1187C30.45 20.1106 31.2454 19.3352 32.1923 19.3352H43.0248C44.0095 19.3352 44.7672 20.1494 44.7672 21.1187C44.805 22.088 44.0095 22.9022 43.0248 22.9022Z" fill="#161613"/>
<path d="M49.0091 23.3674C48.9333 23.3674 48.8197 23.3674 48.744 23.3286C48.2515 23.1735 47.9486 22.6308 48.1001 22.1268C49.0469 18.7536 48.6682 15.2641 46.9638 12.3175C45.2972 9.3708 42.5702 7.27714 39.2371 6.4629C38.7069 6.34658 38.4038 5.80378 38.5175 5.26098C38.6311 4.71817 39.1614 4.40799 39.6916 4.52431C43.5171 5.49361 46.6987 7.89744 48.6303 11.3094C50.562 14.7213 51.0165 18.7536 49.918 22.6695C49.8044 23.0961 49.4257 23.3674 49.0091 23.3674Z" fill="#161613"/>
<path d="M36.0176 31.4321C35.9418 31.4321 35.9039 31.4321 35.8282 31.3933C31.9648 30.5792 28.7076 28.2916 26.6244 24.9184C24.5791 21.584 23.973 17.5905 24.92 13.6745C25.0336 13.1318 25.5639 12.8216 26.0941 12.9767C26.6244 13.093 26.9274 13.6358 26.7759 14.1787C25.9426 17.5517 26.4729 21.0024 28.2152 23.9103C29.9953 26.8182 32.836 28.7956 36.1691 29.4935C36.6993 29.6099 37.0403 30.1139 36.9265 30.6567C36.8508 31.1219 36.4342 31.4321 36.0176 31.4321Z" fill="#161613"/>
</g>
</svg>
