<svg width="201" height="50" viewBox="0 0 201 50" fill="none" xmlns="http://www.w3.org/2000/svg">
<path d="M75.8818 38.8986L76.4657 38.0156C76.4986 37.9701 76.5479 37.9701 76.589 38.0066C77.0413 38.4526 77.6087 38.7257 78.3159 38.7257C78.9901 38.7257 79.5082 38.4617 79.5082 37.9883C79.5082 37.4604 78.9161 37.2965 78.209 37.1144C77.2387 36.8687 76.0217 36.5228 76.0217 35.0573C76.0217 33.6827 77.1236 33 78.4228 33C79.3766 33 80.1249 33.3732 80.6512 33.8374C80.6841 33.8647 80.6923 33.9285 80.6676 33.9649L80.0673 34.8478C80.0427 34.8934 79.9852 34.8934 79.9522 34.8661C79.5493 34.5111 79.0395 34.2744 78.4475 34.2744C77.8554 34.2744 77.3702 34.4928 77.3702 34.957C77.3702 35.4851 77.9459 35.6398 78.6859 35.8219C79.6562 36.0585 80.865 36.3954 80.865 37.8518C80.865 39.2355 79.7549 40 78.3488 40C77.288 40 76.4739 39.5722 75.8983 39.0351C75.8571 38.9896 75.8572 38.935 75.8818 38.8986Z" fill="#161613"/>
<path d="M87.865 33.2552V39.7539C87.865 39.8086 87.8341 39.845 87.7877 39.845H86.7015C86.6552 39.845 86.625 39.8086 86.625 39.7539V38.888C86.1629 39.5807 85.4696 40 84.6454 40C83.051 40 81.865 38.4961 81.865 36.5C81.865 34.5039 83.051 33 84.6454 33C85.477 33 86.1629 33.4193 86.625 34.112V33.246C86.625 33.1914 86.6552 33.155 86.7015 33.155H87.7877C87.8341 33.1641 87.865 33.2005 87.865 33.2552ZM86.625 36.5C86.625 35.3242 85.8854 34.4127 84.8839 34.4127C83.8752 34.4127 83.1358 35.3151 83.1358 36.5C83.1358 37.6758 83.8752 38.5873 84.8839 38.5873C85.8854 38.5873 86.625 37.6849 86.625 36.5Z" fill="#161613"/>
<path d="M95.865 35.6795V39.8974C95.865 39.9534 95.8305 39.9907 95.7797 39.9907H94.569C94.5173 39.9907 94.4829 39.9534 94.4829 39.8974V36.1834C94.4829 35.1384 93.8653 34.4386 92.9121 34.4386C91.9164 34.4386 91.2471 35.1477 91.2471 36.2115V39.9067C91.2471 39.9627 91.2126 40 91.161 40H89.9503C89.8986 40 89.865 39.9627 89.865 39.9067V33.2534C89.865 33.1975 89.8986 33.1602 89.9503 33.1602H91.161C91.2126 33.1602 91.2471 33.1975 91.2471 33.2534V34.0466C91.7704 33.3374 92.5258 32.9735 93.4527 33.0015C94.8003 33.0201 95.865 34.2239 95.865 35.6795Z" fill="#161613"/>
<path d="M103.865 31.094V39.7692C103.865 39.8204 103.829 39.8547 103.775 39.8547H102.508C102.454 39.8547 102.418 39.8204 102.418 39.7692V38.9572C101.879 39.6068 101.07 40 100.109 40C98.249 40 96.865 38.5897 96.865 36.7179C96.865 34.8461 98.249 33.4359 100.109 33.4359C101.08 33.4359 101.879 33.8291 102.418 34.4786V31.0855C102.418 31.0342 102.454 31 102.508 31H103.775C103.829 31.0085 103.865 31.0427 103.865 31.094ZM102.418 36.7179C102.418 35.6154 101.555 34.7606 100.388 34.7606C99.2106 34.7606 98.3478 35.6068 98.3478 36.7179C98.3478 37.8205 99.2106 38.6752 100.388 38.6752C101.555 38.6752 102.418 37.829 102.418 36.7179Z" fill="#161613"/>
<path d="M111.865 36.7148C111.865 38.5884 110.674 40 109.092 40C108.262 40 107.571 39.6064 107.102 38.9391V39.7604C107.102 39.8118 107.071 39.846 107.025 39.846H105.942C105.896 39.846 105.865 39.8118 105.865 39.7604V31.0856C105.865 31.0342 105.896 31 105.942 31H107.025C107.071 31 107.102 31.0342 107.102 31.0856V34.4905C107.563 33.8232 108.262 33.4297 109.092 33.4297C110.666 33.4297 111.865 34.8498 111.865 36.7148ZM110.582 36.7148C110.582 35.6112 109.845 34.7557 108.846 34.7557C107.848 34.7557 107.102 35.6027 107.102 36.7148C107.102 37.8184 107.855 38.674 108.846 38.674C109.837 38.674 110.582 37.827 110.582 36.7148Z" fill="#161613"/>
<path d="M112.865 36.5C112.865 34.5039 114.361 33 116.365 33C118.351 33 119.865 34.5039 119.865 36.5C119.865 38.4961 118.351 40 116.365 40C114.361 40 112.865 38.4961 112.865 36.5ZM118.378 36.5C118.378 35.3242 117.523 34.4127 116.365 34.4127C115.216 34.4127 114.343 35.3151 114.343 36.5C114.343 37.6758 115.216 38.5873 116.365 38.5873C117.514 38.5873 118.378 37.6849 118.378 36.5Z" fill="#161613"/>
<path d="M125.094 39.9618L123.37 37.5266L121.646 39.9618C121.627 39.9905 121.598 40 121.57 40H119.959C119.884 40 119.836 39.9141 119.884 39.8472L122.334 36.4856L119.922 33.1528C119.874 33.086 119.922 33 119.997 33H121.617C121.646 33 121.674 33.019 121.693 33.0383L123.37 35.4448L125.047 33.0383C125.066 33.0095 125.094 33 125.122 33H126.733C126.808 33 126.855 33.086 126.808 33.1528L124.397 36.4856L126.846 39.8472C126.893 39.9141 126.846 40 126.771 40H125.15C125.141 40 125.112 39.9905 125.094 39.9618Z" fill="#161613"/>
<path d="M98.5412 2.27206L91.8466 6.22004C91.236 6.58278 90.865 7.24922 90.865 7.96626L90.9146 15.7778C90.9225 16.4864 91.2936 17.1445 91.8875 17.4988L95.6634 19.7343C96.2653 20.0886 97.0161 20.0886 97.6179 19.7343L101.204 17.6169C101.724 17.3048 101.724 16.5371 101.204 16.2334L97.8897 14.2762C96.0675 13.1965 96.0675 10.5055 97.8897 9.42569L104.667 5.42707C104.931 5.27522 104.931 4.88717 104.667 4.73533L100.495 2.27206C99.8931 1.90931 99.1431 1.90931 98.5412 2.27206Z" fill="#161613"/>
<path d="M104.935 9.26369L101.234 11.3726C100.697 11.6847 100.697 12.4524 101.234 12.7561L104.662 14.7216C106.546 15.8014 106.546 18.4925 104.662 19.5722L98.2676 23.2334C97.7308 23.5456 97.7308 24.3132 98.2676 24.6169L101.968 26.7343C102.59 27.0886 103.366 27.0886 103.988 26.7343L110.851 22.8116C111.473 22.4573 111.865 21.7909 111.865 21.0823V13.2369C111.865 12.5199 111.481 11.8619 110.851 11.5076L106.947 9.28055C106.333 8.90934 105.557 8.90934 104.935 9.26369Z" fill="#161613"/>
<path d="M91.4595 46.0143C91.3535 45.938 91.2373 45.8807 91.1028 45.8425C91.1415 45.8234 91.1701 45.8138 91.1996 45.7948C91.3443 45.7088 91.4595 45.5943 91.5369 45.4606C91.6143 45.3175 91.653 45.1647 91.653 44.9929C91.653 44.6778 91.5562 44.4296 91.382 44.2578C91.1995 44.086 90.9387 44 90.5913 44H89.0963C89.029 44 88.971 44.0191 88.9323 44.0669C88.8843 44.1146 88.865 44.1719 88.865 44.2291V47.7709C88.865 47.8377 88.8843 47.895 88.9323 47.9332C88.9802 47.9809 89.0383 48 89.0963 48H90.6106C90.7655 48 90.9194 47.9809 91.0641 47.9427C91.2088 47.9045 91.3443 47.8377 91.4696 47.7518C91.5949 47.6658 91.6908 47.5418 91.759 47.3986C91.8355 47.2458 91.865 47.0645 91.865 46.8448C91.865 46.6444 91.8263 46.4726 91.7489 46.339C91.6816 46.2148 91.5848 46.1003 91.4595 46.0143ZM90.9968 44.611C91.1028 44.716 91.1608 44.8688 91.1608 45.0597C91.1608 45.2698 91.1028 45.432 90.9774 45.537C90.8521 45.642 90.7074 45.6993 90.5433 45.6993H89.3664V44.4488H90.5433C90.736 44.4583 90.8908 44.506 90.9968 44.611ZM91.1507 47.389C91.006 47.5035 90.8226 47.5608 90.6014 47.5608H89.3664V46.1575H90.582C90.7166 46.1575 90.8419 46.1766 90.9581 46.2148C91.0834 46.253 91.1802 46.3294 91.2567 46.4248C91.3341 46.5203 91.3728 46.6635 91.3728 46.8545C91.3728 47.1026 91.2954 47.2745 91.1507 47.389Z" fill="#161613"/>
<path d="M93.5614 44.151C93.5446 44.1038 93.5199 44.066 93.4863 44.0377C93.4528 44.0094 93.4113 44 93.369 44C93.3275 44 93.286 44.0094 93.2524 44.0377C93.2189 44.066 93.1854 44.1038 93.1686 44.1604L91.8738 47.717C91.865 47.7452 91.865 47.7736 91.865 47.8019C91.865 47.8585 91.8818 47.8962 91.9153 47.9434C91.9488 47.9811 91.9903 48 92.0574 48C92.0909 48 92.1324 47.9811 92.1659 47.9529C92.1995 47.9246 92.2242 47.8867 92.233 47.8396L92.5675 46.9151H94.1465L94.4802 47.8302C94.497 47.8773 94.5225 47.9151 94.5553 47.9434C94.5888 47.9717 94.6311 47.9905 94.6726 47.9905C94.7229 47.9905 94.7644 47.9717 94.8059 47.9246C94.8482 47.8867 94.865 47.8302 94.865 47.7642C94.865 47.7358 94.8562 47.7075 94.8482 47.6699L93.5614 44.151ZM92.7176 46.4717L93.3442 44.7547L93.9789 46.4717H92.7176Z" fill="#161613"/>
<path d="M98.6759 44C98.6215 44 98.5671 44.019 98.5308 44.0664C98.4945 44.1045 98.4764 44.1615 98.4764 44.2185V47.1734L96.2622 44.0855C96.2441 44.0569 96.2173 44.0379 96.1811 44.019C96.1448 44.0095 96.1085 44 96.0817 44C96.0273 44 95.9729 44.019 95.928 44.0664C95.8831 44.1045 95.865 44.1615 95.865 44.2375V47.7815C95.865 47.8385 95.8831 47.8955 95.9194 47.9336C95.9548 47.9716 96.0006 47.9905 96.0636 47.9905C96.1267 47.9905 96.1724 47.9716 96.2078 47.9336C96.2441 47.8955 96.2622 47.848 96.2622 47.7815V44.8456L98.4764 47.9241C98.4945 47.9431 98.5222 47.962 98.5489 47.981C98.5852 47.9905 98.612 48 98.6396 48C98.7026 48 98.757 47.981 98.802 47.9336C98.8477 47.886 98.865 47.8291 98.865 47.7625V44.228C98.865 44.1709 98.8477 44.114 98.8115 44.0759C98.7838 44.019 98.7389 44 98.6759 44Z" fill="#161613"/>
<path d="M101.881 45.7061L102.797 44.3791C102.828 44.3317 102.84 44.2843 102.84 44.2274C102.84 44.1705 102.828 44.1232 102.797 44.0757C102.772 44.0284 102.735 44 102.698 44C102.654 44 102.617 44.0284 102.58 44.0853L101.181 46.1327V44.237C101.181 44.1705 101.168 44.1137 101.138 44.0757C101.113 44.0284 101.076 44.0095 101.026 44.0095C100.977 44.0095 100.94 44.0284 100.909 44.0757C100.877 44.1232 100.865 44.18 100.865 44.237V47.7536C100.865 47.82 100.877 47.8768 100.909 47.9148C100.94 47.9622 100.977 47.9811 101.02 47.9811C101.07 47.9811 101.107 47.9622 101.131 47.9148C101.163 47.8674 101.175 47.8105 101.175 47.7536V46.7014L101.627 46.0475L102.586 47.9148C102.611 47.9716 102.648 48 102.692 48C102.729 48 102.772 47.9811 102.809 47.9337C102.846 47.8957 102.865 47.8295 102.865 47.7536C102.865 47.6968 102.853 47.6493 102.828 47.6019L101.881 45.7061Z" fill="#161613"/>
<path d="M104.374 44C104.217 44 104.101 44.019 104.002 44.0667C103.904 44.1145 103.865 44.1717 103.865 44.2291V47.7708C103.865 47.8377 103.904 47.895 104.002 47.9332C104.101 47.9809 104.217 48 104.356 48C104.492 48 104.61 47.9809 104.708 47.9332C104.805 47.8854 104.865 47.8282 104.865 47.7708V44.2291C104.865 44.1622 104.826 44.105 104.728 44.0667C104.629 44.0286 104.511 44 104.374 44Z" fill="#161613"/>
<path d="M108.667 44C108.613 44 108.559 44.019 108.522 44.0664C108.486 44.1045 108.469 44.1615 108.469 44.2185V47.1734L106.261 44.0855C106.244 44.0569 106.216 44.0379 106.18 44.019C106.144 44.0095 106.109 44 106.081 44C106.027 44 105.973 44.019 105.928 44.0664C105.883 44.1045 105.865 44.1615 105.865 44.2375V47.7815C105.865 47.8385 105.883 47.8955 105.919 47.9336C105.955 47.9716 106 47.9905 106.063 47.9905C106.126 47.9905 106.171 47.9716 106.216 47.9336C106.261 47.8955 106.27 47.848 106.27 47.7815V44.8456L108.478 47.9241C108.496 47.9431 108.522 47.962 108.55 47.981C108.586 47.9905 108.613 48 108.639 48C108.703 48 108.757 47.981 108.802 47.9336C108.847 47.886 108.865 47.8291 108.865 47.7625V44.228C108.865 44.1709 108.847 44.114 108.811 44.0759C108.775 44.019 108.73 44 108.667 44Z" fill="#161613"/>
<path d="M112.798 45.9629C112.755 45.9167 112.713 45.8982 112.655 45.8982H111.739C111.68 45.8982 111.63 45.9167 111.596 45.9629C111.554 46.0093 111.537 46.0555 111.537 46.1297C111.537 46.1944 111.554 46.25 111.596 46.287C111.638 46.3333 111.688 46.3519 111.739 46.3519H112.427V47.3241C112.335 47.3797 112.226 47.426 112.092 47.463C111.949 47.5 111.814 47.5278 111.68 47.5278C111.411 47.5278 111.176 47.463 110.966 47.3241C110.756 47.1852 110.587 47 110.47 46.7685C110.352 46.5371 110.286 46.2686 110.286 45.9815C110.286 45.6852 110.344 45.426 110.47 45.1945C110.587 44.963 110.756 44.7778 110.966 44.6389C111.176 44.5001 111.411 44.4353 111.68 44.4353C111.814 44.4353 111.94 44.4537 112.066 44.4908C112.184 44.5279 112.301 44.5741 112.403 44.6297C112.419 44.639 112.436 44.6482 112.461 44.6574C112.478 44.6667 112.503 44.6667 112.52 44.6667C112.57 44.6667 112.613 44.6482 112.655 44.6018C112.696 44.5556 112.713 44.5001 112.713 44.4445C112.713 44.4075 112.705 44.3797 112.688 44.3427C112.672 44.3056 112.646 44.2778 112.613 44.2593C112.487 44.1668 112.344 44.1019 112.184 44.0649C112.024 44.0186 111.857 44 111.688 44C111.428 44 111.193 44.0556 110.966 44.1482C110.747 44.25 110.554 44.389 110.386 44.5741C110.218 44.7594 110.092 44.9723 110 45.213C109.908 45.4537 109.865 45.7222 109.865 46C109.865 46.2778 109.908 46.5463 110 46.787C110.092 47.0278 110.218 47.2407 110.386 47.426C110.554 47.6112 110.747 47.75 110.966 47.8519C111.184 47.9537 111.428 48 111.688 48C111.89 48 112.075 47.9722 112.26 47.9074C112.444 47.8427 112.613 47.7593 112.764 47.6481C112.798 47.6296 112.814 47.6019 112.839 47.5648C112.856 47.5278 112.865 47.4908 112.865 47.4444V46.1575C112.856 46.0649 112.831 46.0093 112.798 45.9629Z" fill="#161613"/>
</svg>
