<svg width="139" height="36" viewBox="0 0 139 36" fill="none" xmlns="http://www.w3.org/2000/svg">
<path d="M73.9792 8.6475C74.7976 7.06613 76.4454 6.23242 78.0413 6.21657C79.4982 6.11157 81.146 6.38203 82.1663 7.66753C81.6478 8.43118 81.1518 9.21071 80.6327 9.97436C80.0542 9.23301 79.5778 8.18927 78.6429 7.97925C77.7224 7.6611 76.5648 8.19563 76.3254 9.29659C75.9379 11.0434 76.1714 12.8697 76.1143 14.6517H79.1049V16.6404H76.1115C76.1115 19.6378 76.1115 22.635 76.1086 25.6324C76.0976 26.482 76.2199 27.322 76.3623 28.1556C77.0464 28.5088 77.7852 28.6902 78.5402 28.7061C78.5373 28.9129 78.5344 29.3298 78.5316 29.5397C76.0861 29.3616 73.6371 29.3074 71.194 29.5366C71.194 29.3616 71.1997 29.0115 71.1997 28.8366C71.9726 28.6838 72.93 28.2829 72.9618 27.2456C73.2611 23.7233 73.0586 20.1755 73.1186 16.6405C72.5228 16.6405 71.927 16.6405 71.3312 16.6373C71.3336 16.3382 71.3393 16.0359 71.3422 15.7369C71.9466 15.425 72.5367 15.0782 73.1181 14.7218C73.1181 12.679 73.0102 10.4706 73.9792 8.6475Z" fill="#161613"/>
<path d="M118.07 6.21338C116.488 6.62067 114.886 6.96422 113.261 7.04374C113.244 7.20921 113.212 7.54002 113.198 7.7055C113.802 7.90915 114.789 7.85528 114.832 8.79713C115.074 10.7064 114.903 12.6437 114.951 14.5656C112.622 14.1201 110.02 14.1487 108.039 15.7683C105.87 17.4643 105.126 20.6272 105.342 23.4465C105.465 25.6324 106.445 27.8757 108.221 28.9415C110.336 30.2398 113.042 29.9725 115.023 28.477C115.037 28.9193 115.045 29.3615 115.048 29.8038C116.582 29.3678 118.15 29.1229 119.726 29.021V28.2572C117.492 27.8325 118.11 26.6784 117.953 24.7161C117.956 18.5497 117.87 12.3795 118.07 6.21338ZM112.274 16.1575C113.218 16.1464 114.177 16.4828 114.951 17.0699C114.954 20.3885 114.945 23.7071 114.957 27.0258C113.298 27.8753 111.055 27.8148 109.755 26.243C108.64 24.913 108.452 22.9657 108.551 21.2283C108.663 19.647 108.96 17.8396 110.196 16.8595C110.816 16.3848 111.54 16.1662 112.274 16.1575Z" fill="#161613"/>
<path d="M24.0325 8.24027C25.9111 8.11298 27.7953 8.24985 29.654 8.54254C29.5428 10.0189 29.5542 11.5049 29.6568 12.9813C29.4773 12.9813 29.1181 12.9844 28.9384 12.9844C28.7959 12.0617 28.6477 10.9416 27.7668 10.5312C26.4612 9.91703 24.9332 9.8566 23.5792 10.2957C21.809 10.8811 21.5182 13.7893 22.8352 15.059C24.4828 16.669 26.5012 17.7223 28.1887 19.2846C30.8312 21.6327 30.4863 27.0993 27.3506 28.7443C24.711 30.1061 21.6123 29.7624 18.887 28.9065C18.904 27.4438 18.8556 25.9809 18.7957 24.5199C18.9924 24.5168 19.3886 24.5072 19.5882 24.504C19.7278 25.4236 19.8561 26.5531 20.6914 27.0272C22.1851 27.9627 24.1121 28.039 25.663 27.234C27.5986 26.0408 27.2422 22.5916 25.4321 21.4302C23.8613 20.0801 22.0569 19.082 20.6058 17.5576C18.998 15.8903 18.7986 12.9693 19.8334 10.8851C20.68 9.2241 22.3876 8.39378 24.0324 8.24097L24.0325 8.24027Z" fill="#161613"/>
<path d="M35.1812 11.3682C35.3294 11.3777 35.6287 11.3936 35.777 11.4032C35.7741 12.5137 35.7741 13.6209 35.7741 14.7315H40.3352V16.6407H35.7741C35.7912 19.3135 35.7371 21.9894 35.7998 24.6655C35.8625 25.6836 35.8881 26.9533 36.7405 27.577C37.8152 28.2897 39.1009 27.8442 40.1756 27.3765C40.5063 28.2801 39.6653 28.7861 39.0809 29.1615C37.7098 29.903 36.0365 29.9825 34.6196 29.3652C33.4081 28.8593 32.8237 27.3798 32.761 26.0242C32.6156 22.8995 32.761 19.7687 32.7838 16.6409H31.0021C30.9992 16.4309 30.9964 16.224 30.9935 16.0172C32.9291 15.2027 34.2346 13.3409 35.1812 11.3682Z" fill="#161613"/>
<path d="M47.3874 14.2267C45.3322 14.2031 43.2595 15.3425 42.5992 17.646C42.7788 17.7605 43.1437 17.9864 43.3262 18.1009C44.1157 16.545 45.9601 15.7464 47.4138 16.6438C48.5541 17.2228 48.6512 18.7786 48.6284 19.9974C46.8353 20.6402 44.9795 21.1462 43.2862 22.0881C41.2566 23.2845 40.9943 26.6762 42.4482 28.5122C44.1614 30.2654 47.0206 29.9821 48.7138 28.3244C49.2298 29.4635 50.4498 29.8995 51.5131 29.5654C52.4395 29.3649 53.0524 28.5027 53.6596 27.7739C53.5541 27.6403 53.3405 27.3698 53.235 27.233C52.853 27.3412 52.4225 27.6784 52.049 27.3507C51.5644 26.9784 51.6242 26.2307 51.59 25.6547C51.6242 23.1856 51.7468 20.7103 51.6299 18.238C51.5729 16.9589 51.0598 15.6509 50.045 14.9795C49.2521 14.4883 48.3216 14.2374 47.3874 14.2267ZM48.5968 21.9256C48.6082 23.5897 48.5969 25.2537 48.6084 26.9179C47.6534 27.392 46.5188 27.8311 45.5125 27.287C44.281 26.5552 44.3324 24.3662 45.3501 23.4466C46.3279 22.6957 47.4879 22.3424 48.5968 21.9256Z" fill="#161613"/>
<path d="M86.676 14.2891C85.1735 14.3082 83.6232 14.725 82.4483 15.8164C80.7007 17.3946 79.9428 20.0037 80.0196 22.4537C80.0109 24.5505 80.5957 26.7875 82.0751 28.1813C83.8227 29.8804 86.3622 30.0489 88.5372 29.543C90.8321 28.9798 92.5567 26.7366 93.044 24.2229C93.5689 21.6138 93.3491 18.5816 91.7417 16.4752C90.5045 14.8588 88.5234 14.2477 86.676 14.2891ZM86.6962 16.0699C87.5031 16.0875 88.3025 16.4575 88.8198 17.175C89.7576 18.4573 90.0085 20.1819 90.0766 21.7919C90.0881 23.5451 89.8886 25.4381 88.8994 26.87C87.9276 28.2731 85.8322 28.4291 84.7121 27.1659C83.8539 26.2782 83.5343 24.9578 83.3406 23.7168C83.1381 22.0686 83.19 20.3535 83.6543 18.7657C83.9796 17.703 84.6123 16.6275 85.6153 16.2647C85.9602 16.1265 86.3288 16.0619 86.6962 16.0699Z" fill="#161613"/>
<path d="M54.7317 15.3009C56.3253 15.2723 57.9417 15.0877 59.4124 14.3527C59.4637 14.7759 59.5035 15.199 59.5353 15.6286C61.2258 14.3941 63.4088 13.9136 65.3444 14.6772C66.7304 15.1959 67.6993 16.7105 67.8216 18.3141C68.1071 21.3656 67.6936 24.4584 68.0587 27.5035C68.0985 28.4613 69.0219 28.6776 69.6921 28.8335C69.695 29.0117 69.695 29.3681 69.6978 29.5463C67.434 29.3458 62.9018 29.5367 62.9018 29.5367L62.8932 28.8152C62.8932 28.8152 64.5283 28.3021 64.6321 27.7771C65.0053 25.5116 64.917 23.1698 64.8974 20.8693C64.823 19.4947 64.8542 17.7765 63.677 16.9396C62.4145 16.1282 60.8664 16.5037 59.5751 17.0287C59.5837 20.0069 59.5751 22.9883 59.5751 25.9667C59.612 26.7622 59.5606 27.669 60.0255 28.3308C60.416 28.633 60.9062 28.6871 61.3538 28.8271C61.3567 29.0053 61.3596 29.3649 61.3596 29.5463C59.1275 29.3839 56.8898 29.279 54.6605 29.5431C54.6605 29.3649 54.6662 29.0117 54.6662 28.8367C55.3447 28.6617 56.2398 28.423 56.368 27.5066C56.6787 25.3113 56.4393 23.0679 56.5134 20.8534C56.4848 19.5901 56.6103 18.311 56.4107 17.0637C56.2539 16.2109 55.3218 16.2586 54.7345 16.09C54.7345 15.8927 54.7317 15.4982 54.7317 15.3009Z" fill="#161613"/>
<path d="M94.5662 15.2341C96.1627 15.2086 97.7586 14.9668 99.2754 14.3972L99.3181 15.7081C100.852 14.3304 103.164 13.9804 104.797 15.3454L103.094 18.247C102.298 16.8788 100.685 16.548 99.411 17.2448C99.411 17.2448 99.4023 23.2681 99.4196 26.2781C99.4848 26.9495 99.3908 27.8214 99.9554 28.2604C100.5 28.6168 101.161 28.5977 101.768 28.7059C101.768 28.9127 101.765 29.3327 101.765 29.5395C99.317 29.355 96.8623 29.3168 94.4133 29.5331V28.7059C95.2023 28.5556 96.0242 28.2509 96.1442 27.7258C96.4833 26.4308 96.3178 25.0593 96.3518 23.7261C96.3178 21.6038 96.4205 19.4782 96.3063 17.3592C96.2976 16.3283 95.2519 16.236 94.5731 16.0865C94.5742 15.7942 94.5685 15.4941 94.5673 15.2337L94.5662 15.2341Z" fill="#161613"/>
</svg>
