<svg width="155" height="36" viewBox="0 0 155 36" fill="none" xmlns="http://www.w3.org/2000/svg">
<path d="M35.3617 1.69278C28.8455 1.94065 23.514 7.34915 23.514 13.881C23.4785 15.0512 23.6441 16.2188 24.0038 17.3329L29.3325 14.4611C29.3617 14.4437 29.3857 14.419 29.4023 14.3893C29.4189 14.3598 29.4275 14.3263 29.4274 14.2924C29.4274 13.678 29.2904 10.6243 31.8863 8.35124C35.4012 5.27383 39.6742 6.52115 41.1934 7.65239C41.2201 7.67174 41.2415 7.69752 41.2555 7.72735C41.2696 7.75717 41.2758 7.79009 41.2737 7.82307C41.2716 7.85598 41.2612 7.8878 41.2435 7.91564C41.2257 7.94341 41.2012 7.9663 41.1723 7.98205L36.3674 10.619C36.2384 10.6901 36.1285 10.7917 36.0473 10.9148C35.9661 11.0379 35.916 11.1789 35.9014 11.3257V13.8335C35.9014 14.3953 35.9988 14.5482 36.3779 14.7275L38.8449 16.046C38.9782 16.1187 39.1276 16.1568 39.2793 16.1568C39.4311 16.1568 39.5804 16.1187 39.7137 16.046L44.2396 13.5593C44.2683 13.5431 44.3007 13.5346 44.3336 13.5345C44.3666 13.5343 44.399 13.5424 44.428 13.5583C44.4569 13.5741 44.4814 13.597 44.4991 13.6249C44.5168 13.6527 44.5271 13.6846 44.5292 13.7175C44.6503 15.4949 43.6893 19.8881 38.9213 21.2356C35.6145 22.1718 33.1422 20.4445 32.6025 20.0938C32.5717 20.0746 32.5361 20.0645 32.4998 20.0645C32.4636 20.0645 32.428 20.0746 32.3972 20.0938L21.4841 25.9532C20.6943 26.4226 21.1076 27.3666 21.8949 27.1372L29.0297 25.555L35.3617 34.1015C35.4225 34.1693 35.4967 34.2234 35.5798 34.2605C35.6627 34.2976 35.7526 34.3168 35.8435 34.3168C35.9344 34.3168 36.0242 34.2976 36.1073 34.2605C36.1903 34.2234 36.2646 34.1693 36.3253 34.1015L45.182 22.119C45.182 22.119 48.1808 18.7093 48.1808 14.0498C48.1821 12.3856 47.8478 10.7384 47.1979 9.20675C46.5479 7.67521 45.5959 6.29091 44.3987 5.13692C43.2015 3.98293 41.784 3.08302 40.2311 2.49119C38.6782 1.89936 37.0219 1.62779 35.3617 1.69278Z" fill="#161613"/>
<path d="M21.0181 23.2265C21.0181 23.6933 21.2525 23.8198 21.65 23.6062L30.9439 18.5696C30.9669 18.5579 30.9871 18.5413 31.0029 18.5209C31.0187 18.5005 31.0299 18.4767 31.0354 18.4515C31.0409 18.4263 31.0408 18.4 31.035 18.3748C31.0292 18.3497 31.0178 18.3261 31.0018 18.3059C30.5809 17.792 30.227 17.2267 29.9486 16.6234C29.9376 16.5949 29.9207 16.569 29.8991 16.5475C29.8774 16.5259 29.8515 16.509 29.823 16.4981C29.7944 16.4872 29.764 16.4823 29.7334 16.4839C29.7029 16.4856 29.6731 16.4935 29.6459 16.5074L21.6869 20.8216C21.4891 20.906 21.3203 21.0468 21.2015 21.2262C21.0826 21.4057 21.0189 21.6161 21.0181 21.8316C21.0181 22.1295 21.0181 22.7413 21.0181 23.2265Z" fill="#161613"/>
<path d="M61.8794 26.6995C61.8522 26.8043 61.7914 26.8973 61.7062 26.964C61.621 27.0307 61.5162 27.0675 61.4081 27.0687H58.9886C58.8826 27.0663 58.7803 27.0288 58.6979 26.962C58.6155 26.8951 58.5575 26.8029 58.5331 26.6995L55.3737 14.9227C55.3632 14.8807 55.362 14.8372 55.3701 14.7948C55.3781 14.7524 55.3952 14.7123 55.4203 14.6772C55.4453 14.6421 55.4776 14.6128 55.515 14.5915C55.5525 14.5701 55.5941 14.5571 55.637 14.5535H58.1487C58.2547 14.5558 58.3569 14.5934 58.4393 14.6602C58.5217 14.727 58.5797 14.8193 58.6041 14.9227L60.355 21.7076C60.3597 21.7264 60.3706 21.7431 60.3858 21.755C60.4011 21.7669 60.4199 21.7734 60.4392 21.7734C60.4586 21.7734 60.4774 21.7669 60.4927 21.755C60.5079 21.7431 60.5188 21.7264 60.5235 21.7076L62.5481 14.9227C62.5753 14.8178 62.6361 14.7249 62.7213 14.6581C62.8065 14.5914 62.9113 14.5546 63.0194 14.5535H64.9968C65.1048 14.5546 65.2096 14.5914 65.2944 14.6581C65.3799 14.7249 65.441 14.8178 65.468 14.9227L67.4923 21.6918C67.4975 21.7106 67.5084 21.7273 67.5232 21.7392C67.5386 21.7511 67.5573 21.7576 67.5766 21.7576C67.5958 21.7576 67.6151 21.7511 67.6299 21.7392C67.6453 21.7273 67.6563 21.7106 67.6608 21.6918L69.4119 14.9227C69.4363 14.8193 69.4942 14.727 69.5765 14.6602C69.6594 14.5934 69.7616 14.5558 69.8671 14.5535H72.3922C72.4353 14.5571 72.4764 14.5701 72.5143 14.5915C72.5516 14.6128 72.5838 14.6421 72.6088 14.6772C72.6339 14.7123 72.6513 14.7524 72.659 14.7948C72.6673 14.8372 72.6661 14.8807 72.6558 14.9227L69.4961 26.6995C69.4717 26.8029 69.4138 26.8951 69.3316 26.962C69.2486 27.0288 69.1464 27.0663 69.0403 27.0687H66.6213C66.5126 27.0675 66.4085 27.0307 66.323 26.964C66.2381 26.8973 66.1771 26.8043 66.1501 26.6995L64.0804 20.107C64.0746 20.0874 64.0626 20.0702 64.0462 20.058C64.0299 20.0458 64.01 20.0392 63.9896 20.0392C63.9692 20.0392 63.9493 20.0458 63.9329 20.058C63.9166 20.0702 63.9046 20.0874 63.8988 20.107L61.8794 26.6995Z" fill="#161613"/>
<path d="M73.9743 14.9385C73.973 14.8391 74.0103 14.7431 74.0791 14.6711C74.1472 14.5991 74.2411 14.5569 74.3407 14.5535H79.7722C82.8155 14.5535 84.2163 16.6393 84.2163 19.126C84.2163 20.7794 83.5606 22.3194 82.1469 23.1369C82.1116 23.1568 82.0813 23.1837 82.0576 23.2161C82.0338 23.2484 82.0171 23.2855 82.0081 23.3247C81.9997 23.364 81.9991 23.4046 82.0074 23.4441C82.0151 23.4835 82.0312 23.5207 82.0543 23.5535L84.2317 26.7443C84.2542 26.7736 84.2677 26.8084 84.2716 26.845C84.2754 26.8816 84.269 26.9186 84.2536 26.9518C84.2375 26.985 84.2131 27.0133 84.1822 27.0334C84.1513 27.0536 84.116 27.0648 84.0793 27.066H81.1833C81.0682 27.0622 80.9557 27.0311 80.8548 26.9751C80.7538 26.9191 80.6683 26.8401 80.6041 26.7443L78.7475 23.9675C78.6935 23.8878 78.6208 23.8222 78.536 23.7764C78.4518 23.7305 78.3573 23.7056 78.2608 23.7038H77.3075C77.2663 23.7049 77.2258 23.714 77.1886 23.7308C77.1506 23.7475 77.1166 23.7715 77.0883 23.8014C77.06 23.8312 77.0375 23.8664 77.0227 23.9049C77.0079 23.9434 77.0015 23.9844 77.0021 24.0256V26.6626C77.0034 26.762 76.9661 26.8579 76.898 26.9299C76.8292 27.0019 76.7353 27.0441 76.6363 27.0476H74.3381C74.2385 27.0441 74.1446 27.0019 74.0765 26.9299C74.0077 26.8579 73.9704 26.762 73.9717 26.6626L73.9743 14.9385ZM79.6063 17.4726H77.3075C77.2663 17.4736 77.2258 17.4828 77.1886 17.4995C77.1506 17.5162 77.1166 17.5402 77.0883 17.5701C77.06 17.6 77.0375 17.6351 77.0227 17.6736C77.0079 17.7121 77.0015 17.7531 77.0021 17.7943V20.4894C77.0015 20.5306 77.0079 20.5716 77.0227 20.61C77.0375 20.6485 77.06 20.6837 77.0883 20.7136C77.1166 20.7435 77.1506 20.7675 77.1886 20.7842C77.2258 20.8009 77.2663 20.81 77.3075 20.811H79.6063C80.8226 20.811 81.2803 20.0199 81.2803 19.1577C81.2803 18.1951 80.8226 17.4753 79.6063 17.4753V17.4726Z" fill="#161613"/>
<path d="M86.312 27.0687C86.213 27.0652 86.1191 27.023 86.0503 26.951C85.9822 26.879 85.9443 26.7831 85.9462 26.6837V14.9385C85.9443 14.8391 85.9822 14.7431 86.0503 14.6711C86.1191 14.5991 86.213 14.5569 86.312 14.5535H94.6839C94.7829 14.5576 94.8768 14.6 94.9449 14.6718C95.0131 14.7437 95.051 14.8393 95.0503 14.9385V17.2801C95.051 17.3793 95.0131 17.4749 94.9449 17.5467C94.8768 17.6185 94.7829 17.661 94.6839 17.6651H89.2846C89.2434 17.6661 89.2029 17.6752 89.165 17.692C89.1271 17.7087 89.0936 17.7327 89.0653 17.7626C89.0364 17.7924 89.0146 17.8277 88.9998 17.8661C88.985 17.9046 88.9779 17.9456 88.9792 17.9868V19.1419C88.9779 19.1831 88.985 19.2241 88.9998 19.2625C89.0146 19.301 89.0364 19.3362 89.0653 19.3661C89.0936 19.396 89.1271 19.42 89.165 19.4367C89.2029 19.4534 89.2434 19.4625 89.2846 19.4635H93.6046C93.7042 19.467 93.7981 19.5093 93.8662 19.5812C93.9343 19.6532 93.9723 19.7492 93.971 19.8486V21.9819C93.9723 22.0813 93.9343 22.1772 93.8662 22.2492C93.7981 22.3212 93.7042 22.3635 93.6046 22.3669H89.2846C89.2434 22.3679 89.2029 22.377 89.165 22.3938C89.1271 22.4105 89.0936 22.4345 89.0653 22.4643C89.0364 22.4942 89.0146 22.5294 88.9998 22.5679C88.985 22.6063 88.9779 22.6474 88.9792 22.6886V23.6511C88.9779 23.6923 88.985 23.7333 88.9998 23.7718C89.0146 23.8103 89.0364 23.8455 89.0653 23.8753C89.0936 23.9052 89.1271 23.9292 89.165 23.9459C89.2029 23.9626 89.2434 23.9718 89.2846 23.9728H94.6839C94.7829 23.9769 94.8768 24.0193 94.9449 24.0912C95.0131 24.163 95.051 24.2586 95.0503 24.3578V26.6837C95.051 26.7829 95.0131 26.8785 94.9449 26.9503C94.8768 27.0221 94.7829 27.0646 94.6839 27.0687H86.312Z" fill="#161613"/>
<path d="M99.8737 26.6837C99.875 26.7831 99.8371 26.879 99.7689 26.951C99.7008 27.023 99.6069 27.0652 99.5073 27.0687H97.193C97.0972 27.0613 97.0072 27.0173 96.9416 26.9458C96.8767 26.8742 96.8413 26.7805 96.8433 26.6837V14.9385C96.8413 14.8391 96.8793 14.7431 96.9474 14.6711C97.0162 14.5991 97.1101 14.5569 97.2091 14.5535H99.065C99.1807 14.5542 99.2951 14.5824 99.398 14.6355C99.5008 14.6887 99.5896 14.7654 99.6577 14.8593L104.541 21.2936C104.602 21.3912 104.723 21.3411 104.723 21.2303V14.9385C104.721 14.8391 104.759 14.7431 104.828 14.6711C104.896 14.5991 104.99 14.5569 105.089 14.5535H107.375C107.474 14.5576 107.567 14.6 107.635 14.6718C107.703 14.7437 107.741 14.8393 107.74 14.9385V26.6837C107.741 26.7829 107.703 26.8785 107.635 26.9503C107.567 27.0221 107.474 27.0646 107.375 27.0687H105.531C105.416 27.0678 105.301 27.0397 105.198 26.9866C105.096 26.9335 105.007 26.8568 104.939 26.7628L100.058 20.347C99.9971 20.2494 99.8763 20.2995 99.8763 20.4102L99.8737 26.6837Z" fill="#161613"/>
<path d="M118.272 22.7677C118.319 22.6747 118.4 22.6041 118.499 22.571C118.597 22.5379 118.705 22.5451 118.798 22.591L120.904 23.5693C120.946 23.5908 120.983 23.6206 121.013 23.657C121.043 23.6934 121.065 23.7355 121.078 23.7808C121.091 23.8261 121.094 23.8735 121.087 23.9201C121.082 23.9668 121.065 24.0116 121.041 24.0519C120.507 25.0328 119.719 25.8522 118.761 26.425C117.804 26.9978 116.709 27.3029 115.594 27.3086C112.172 27.3086 109.293 24.3894 109.293 20.811C109.293 17.2326 112.169 14.3135 115.594 14.3135C116.703 14.3219 117.79 14.6248 118.745 15.1914C119.699 15.758 120.486 16.5678 121.026 17.5385C121.07 17.6234 121.081 17.7223 121.056 17.8149C121.03 17.9075 120.97 17.987 120.889 18.0369L118.782 19.0153C118.738 19.0415 118.688 19.0582 118.637 19.0643C118.585 19.0704 118.533 19.0657 118.484 19.0506C118.434 19.0355 118.389 19.0103 118.349 18.9764C118.31 18.9427 118.278 18.9011 118.256 18.8544C117.966 18.4124 117.57 18.0492 117.106 17.7971C116.641 17.545 116.122 17.4117 115.594 17.4093C113.814 17.4093 112.369 18.9177 112.369 20.811C112.369 22.7044 113.814 24.2128 115.594 24.2128C116.125 24.2148 116.648 24.0837 117.116 23.8313C117.584 23.5788 117.981 23.2133 118.272 22.7677Z" fill="#161613"/>
<path d="M130.474 14.9385C130.473 14.8391 130.511 14.7431 130.579 14.6711C130.647 14.5991 130.741 14.5569 130.841 14.5535H133.155C133.254 14.5576 133.347 14.6 133.415 14.6718C133.484 14.7437 133.521 14.8393 133.521 14.9385V26.6837C133.521 26.7829 133.484 26.8785 133.415 26.9503C133.347 27.0221 133.254 27.0646 133.155 27.0687H130.841C130.741 27.0652 130.647 27.023 130.579 26.951C130.511 26.879 130.473 26.7831 130.474 26.6837V22.7282C130.476 22.687 130.469 22.6459 130.454 22.6074C130.439 22.569 130.417 22.5338 130.388 22.5039C130.36 22.474 130.326 22.4501 130.289 22.4334C130.251 22.4166 130.21 22.4074 130.169 22.4064H125.938C125.897 22.4074 125.857 22.4166 125.819 22.4334C125.781 22.4501 125.747 22.474 125.719 22.5039C125.691 22.5338 125.668 22.569 125.654 22.6074C125.639 22.6459 125.632 22.687 125.633 22.7282V26.6837C125.634 26.7813 125.598 26.8758 125.532 26.9475C125.466 27.0192 125.375 27.0626 125.277 27.0687H122.979C122.88 27.0652 122.786 27.023 122.718 26.951C122.649 26.879 122.612 26.7831 122.613 26.6837V14.9385C122.612 14.8391 122.649 14.7431 122.718 14.6711C122.786 14.5991 122.88 14.5569 122.979 14.5535H125.277C125.376 14.5569 125.47 14.5991 125.539 14.6711C125.607 14.7431 125.645 14.8391 125.643 14.9385V19.097C125.643 19.1382 125.65 19.1792 125.664 19.2177C125.679 19.2562 125.701 19.2914 125.729 19.3212C125.758 19.3511 125.792 19.3751 125.83 19.3918C125.867 19.4086 125.907 19.4177 125.949 19.4187H130.18C130.261 19.414 130.337 19.3777 130.392 19.3177C130.447 19.2576 130.477 19.1785 130.474 19.097V14.9385Z" fill="#161613"/>
</svg>
