<svg width="40" height="43" fill="none" xmlns="http://www.w3.org/2000/svg"><g clip-path="url(#clip0_3197:515)"><path d="M1.373 10.676a.684.684 0 00-.636-.73.686.686 0 00-.736.632.684.684 0 00.637.729.686.686 0 00.735-.631z" fill="#FD2E35"/><path d="M36.474 20.05a.684.684 0 00-.637-.73.686.686 0 00-.736.631.684.684 0 00.637.73.686.686 0 00.736-.632z" fill="#221429"/><path d="M15.1 3.08L14.114.56" stroke="#FD2E35" stroke-width="2" stroke-linecap="round" stroke-linejoin="round"/><path d="M35.794 10.933l3.643-6.73" stroke="#221429" stroke-width="2" stroke-linecap="round" stroke-linejoin="round"/><path d="M14.097 18.703s-1.788-11.52-4.793-12.08c-3.005-.558 0 14.813 0 14.813s-4.697 20.402 7.99 20.96c10.572.465 15.077-2.688 14.271-9.58a9.55 9.55 0 00-1.42-3.927 9.645 9.645 0 00-2.967-2.96c-3.067-1.978-7.014-3.912-8.689-1.676a1.907 1.907 0 00-.067 2.27c1.043 1.492 3.727 3.157 7.048 3.962 0 0-6.67 1.493-6.58 9.318" stroke="#FD2E35" stroke-width="2" stroke-linecap="round" stroke-linejoin="round"/><path d="M18.607 23.7l.203-4.215a2.65 2.65 0 01.772-1.84 2.696 2.696 0 011.845-.793v0a2.71 2.71 0 011.854.878c.477.524.727 1.213.694 1.917V23.7" stroke="#FD2E35" stroke-width="2" stroke-linecap="round" stroke-linejoin="round"/><path d="M18.608 18.596s-2.397-3.773-4.224-.559c-2.306 4.053.564 13.695 4.224 9.363m5.384-9.15S21.596 1.9 25.193 2.107c3.598.207 5.932 12.068 4.663 26.4" stroke="#FD2E35" stroke-width="2" stroke-linecap="round" stroke-linejoin="round"/></g><defs><clipPath id="clip0_3197:515"><path fill="#fff" d="M0 0h40v43H0z"/></clipPath></defs></svg>