<svg width="74" height="29" fill="none" xmlns="http://www.w3.org/2000/svg"><g style="mix-blend-mode:luminosity"><path d="M35.3 14.211v8.408h-2.686V1.856h7.123a6.481 6.481 0 014.613 1.798 5.78 5.78 0 011.44 1.983c.333.756.499 1.574.486 2.398a5.716 5.716 0 01-.478 2.413 5.754 5.754 0 01-1.448 1.994c-1.246 1.18-2.784 1.769-4.613 1.768H35.3v.001zm0-9.799v7.248h4.504a3.57 3.57 0 002.657-1.073 3.539 3.539 0 001.08-2.537 3.517 3.517 0 00-1.08-2.538 3.505 3.505 0 00-2.657-1.101H35.3v.001zM52.465 7.95c1.985 0 3.552.526 4.7 1.58 1.15 1.054 1.723 2.498 1.722 4.334v8.755h-2.569v-1.971h-.117c-1.112 1.623-2.591 2.435-4.437 2.435-1.576 0-2.895-.464-3.956-1.392a4.418 4.418 0 01-1.592-3.479c.001-1.47.56-2.639 1.68-3.507 1.118-.868 2.612-1.303 4.48-1.305 1.595 0 2.908.29 3.94.87v-.61a3.018 3.018 0 00-1.109-2.36 3.819 3.819 0 00-2.592-.973c-1.5 0-2.688.628-3.562 1.885l-2.365-1.48c1.3-1.855 3.226-2.783 5.776-2.783zM48.99 18.27a2.119 2.119 0 00.89 1.74c.594.464 1.332.71 2.087.696a4.297 4.297 0 003.021-1.246c.89-.832 1.335-1.808 1.335-2.927-.837-.663-2.005-.994-3.503-.994-1.091 0-2.001.26-2.73.783-.735.53-1.1 1.175-1.1 1.948zm24.645-9.856l-8.969 20.468h-2.772l3.328-7.162-5.897-13.306h2.92l4.261 10.205h.059L70.71 8.414h2.925z" fill="#5F6368"/><path d="M24.445 12.4a14.104 14.104 0 00-.206-2.425H12.912v4.594h6.487a5.499 5.499 0 01-.826 2.056A5.541 5.541 0 0117 18.193v2.982h3.872c2.267-2.076 3.573-5.145 3.573-8.775z" fill="#4285F4"/><path d="M12.912 24.056c3.242 0 5.97-1.057 7.96-2.88l-3.871-2.981c-1.078.726-2.466 1.14-4.089 1.14-3.133 0-5.792-2.098-6.743-4.924H2.181v3.073a11.96 11.96 0 004.427 4.797 12.073 12.073 0 006.304 1.775z" fill="#34A853"/><path d="M6.169 14.41a7.1 7.1 0 010-4.565V6.772H2.18a11.86 11.86 0 000 10.712l3.99-3.074z" fill="#FBBC04"/><path d="M12.912 4.921a6.546 6.546 0 014.608 1.79l3.428-3.405A11.585 11.585 0 0012.912.2c-2.226 0-4.409.615-6.304 1.775a11.96 11.96 0 00-4.427 4.797l3.988 3.073c.951-2.826 3.61-4.924 6.743-4.924z" fill="#EA4335"/></g></svg>