<svg width="92" height="23" fill="none" xmlns="http://www.w3.org/2000/svg"><g style="mix-blend-mode:luminosity"><path d="M35.266 9.74c-.234 1.748-1.633 1.748-2.916 1.748h-.7l.584-3.381c0-.233.233-.35.466-.35h.35c.933 0 1.75 0 2.216.466V9.74zm-.583-4.665h-5.015c-.35 0-.583.233-.7.583l-1.982 12.827c0 .233.117.466.467.466h2.332c.35 0 .583-.233.7-.582l.583-3.499c0-.35.35-.583.7-.583H33.4c3.265 0 5.13-1.632 5.714-4.78.233-1.4 0-2.45-.583-3.266-.933-.7-2.216-1.166-3.848-1.166zm11.544 9.33c-.233 1.399-1.283 2.332-2.682 2.332-.7 0-1.283-.233-1.633-.7-.35-.466-.466-1.05-.35-1.632.234-1.4 1.283-2.332 2.683-2.332.7 0 1.282.233 1.632.7.233.349.467.932.35 1.632zm3.265-4.665H47.16c-.233 0-.35.117-.467.35l-.116.7-.117-.233c-.466-.7-1.632-1.05-2.798-1.05-2.682 0-4.898 1.982-5.364 4.781-.234 1.4.116 2.682.932 3.615.7.816 1.75 1.166 3.032 1.166 2.1 0 3.265-1.4 3.265-1.4l-.116.7c0 .234.116.467.466.467h2.1c.349 0 .582-.233.699-.583l1.282-8.163c0-.116-.116-.35-.466-.35zm12.711-.001h-2.45a.642.642 0 00-.582.35l-3.265 4.897-1.4-4.664c-.116-.35-.35-.466-.7-.466h-2.331c-.234 0-.467.233-.35.583l2.682 7.696-2.449 3.498c-.233.233 0 .7.35.7h2.449a.641.641 0 00.583-.35l7.93-11.544c.116-.35-.117-.7-.467-.7z" fill="#263577"/><path d="M70.715 9.74c-.233 1.748-1.633 1.748-2.915 1.748h-.7l.583-3.381c0-.233.233-.35.466-.35h.35c.933 0 1.75 0 2.216.466.117.467.117.933 0 1.516zm-.583-4.665h-5.014c-.35 0-.584.233-.7.583l-1.983 12.827c0 .233.117.466.467.466h2.565c.234 0 .467-.116.467-.466l.583-3.615c0-.35.35-.583.7-.583h1.632c3.265 0 5.131-1.632 5.714-4.78.233-1.4 0-2.45-.583-3.266-.816-.7-2.099-1.166-3.848-1.166zm11.661 9.33c-.233 1.399-1.283 2.332-2.682 2.332-.7 0-1.283-.233-1.633-.7-.35-.466-.466-1.05-.35-1.632.234-1.4 1.283-2.332 2.683-2.332.7 0 1.282.233 1.632.7.233.349.466.932.35 1.632zm3.265-4.665h-2.332c-.233 0-.35.117-.467.35l-.116.7-.117-.233c-.466-.7-1.632-1.05-2.798-1.05-2.683 0-4.898 1.982-5.365 4.781-.233 1.4.117 2.682.933 3.615.7.816 1.75 1.166 3.032 1.166 2.1 0 3.265-1.4 3.265-1.4l-.116.7c0 .234.116.467.466.467h2.099c.35 0 .583-.233.7-.583l1.282-8.163c0-.116-.233-.35-.466-.35zm2.799-4.315l-2.1 13.06c0 .233.117.466.467.466h2.1c.35 0 .582-.233.699-.582L91.005 5.54c0-.233-.116-.466-.466-.466h-2.332c-.117 0-.234.233-.35.35z" fill="#2199D6"/><path d="M6.229 21.4l.35-2.449H1.68L4.48 1.11s0-.117.116-.117h6.997c2.216 0 3.848.467 4.664 1.4.35.466.583.932.7 1.399.117.583.117 1.166 0 1.982v.467l.35.233c.35.116.583.35.816.583.35.35.583.816.583 1.4.117.582.117 1.282-.116 2.098-.234.933-.467 1.633-.817 2.332-.35.583-.816 1.05-1.282 1.516-.467.35-1.166.583-1.75.817-.7.116-1.399.233-2.215.233h-.583c-.35 0-.7.116-1.05.35a2.54 2.54 0 00-.583.932v.234l-.7 4.314v.234H6.23V21.4z" fill="#263577"/><path d="M17.774 5.775c0 .116 0 .233-.116.35-.933 4.664-3.965 6.18-7.93 6.18H7.746c-.467 0-.933.35-.933.816l-1.05 6.53-.233 1.866c0 .35.233.583.467.583h3.615c.466 0 .816-.35.816-.7v-.233l.7-4.198v-.233c.116-.466.466-.7.816-.7h.583c3.498 0 6.18-1.399 6.88-5.48.35-1.75.116-3.149-.7-4.082-.233-.233-.583-.466-.933-.7z" fill="#2199D6"/><path d="M16.84 5.425c-.116 0-.232-.117-.465-.117-.117 0-.35-.116-.467-.116-.583-.117-1.166-.117-1.75-.117H8.796c-.117 0-.233 0-.35.117-.233.116-.466.35-.466.583l-1.167 7.23v.233c.117-.467.467-.817.933-.817h1.983c3.965 0 6.996-1.632 7.93-6.18 0-.117 0-.233.116-.35l-.7-.35c-.116-.116-.233-.116-.233-.116z" fill="#252C5E"/><path d="M7.979 5.775c0-.234.233-.467.466-.583.117 0 .234-.117.35-.117h5.364c.583 0 1.283 0 1.75.117.116 0 .35 0 .466.116.116 0 .233.117.466.117.117 0 .117 0 .234.116l.7.35c.233-1.749 0-2.915-.934-3.965C15.791.76 13.926.294 11.594.294h-6.88c-.467 0-.933.35-.933.816L.982 19.068c0 .35.234.7.583.7h4.198l1.05-6.764 1.166-7.23z" fill="#263577"/></g></svg>