<svg width="74" height="43" fill="none" xmlns="http://www.w3.org/2000/svg"><g style="mix-blend-mode:luminosity"><path d="M33.093 25.13l1.94-12.402h3.048L36.14 25.13h-3.048zm-9.007-12.402h4.85c3.048 0 3.88 1.832 3.464 3.946-.277 1.832-1.524 2.96-3.187 3.383l3.048 5.074h-4.018l-2.355-4.933-.693 4.933h-3.187l2.078-12.403zm2.771 2.396l-.554 3.1h.97c.831 0 1.663-.704 1.801-1.55.139-.845-.415-1.55-1.385-1.55h-.832zM47.364 25.13l1.94-12.402h3.187l-1.94 12.403h-3.187zm10.254-9.724l-.416 2.114h3.603l-.416 2.678h-3.603l-.277 2.255h3.741l-.415 2.678h-6.928l1.94-12.403h6.928l-.416 2.678h-3.741zm-39.628 0l-.277 2.114h3.602l-.415 2.678h-3.603l-.416 2.255h3.741l-.415 2.678h-6.928l1.94-12.403h6.928l-.416 2.678H17.99zm25.218 0l-.277 2.114h3.464l-.416 2.678h-3.464l-.831 4.933h-3.187l1.94-12.403h7.066l-.416 2.678h-3.88zm24.524-2.678h-4.156l-1.94 12.403h4.157c3.88 0 7.066-2.678 7.62-6.202.277-2.396-.831-6.201-5.68-6.201zm2.356 6.06c-.416 2.255-1.94 3.665-4.018 3.665h-.832l1.109-7.047h.693c2.355 0 3.325 1.69 3.048 3.382zM.531 11.037h5.82l.693 9.02A668.171 668.171 0 0118.82.325h1.94C16.604 8.5 12.447 16.815 8.429 25.131H4.134L3.025 15.124c-.277-2.396-.692-3.524-2.494-3.665v-.422z" fill="#074784"/><path d="M8.429 13.714l4.572-7.892V5.54H2.748v.282l4.988 2.255.416 5.637h.277z" fill="#F09C11"/><path d="M26.58 32.037c-.83 0-1.524.422-2.078.986l.693-4.933h-2.079l-1.524 10.853h2.079l.138-.846c.416.564.97.987 1.801.987 1.663 0 3.187-1.55 3.465-3.524.277-1.973-.832-3.523-2.495-3.523zm.278 3.523c-.139.846-.832 1.55-1.525 1.55-.692 0-1.247-.704-1.108-1.55.138-.846.831-1.55 1.524-1.55.693 0 1.247.705 1.109 1.55z" fill="#074784"/><path d="M34.894 32.178h2.355l-6.235 10.147H28.66l2.632-4.228-2.078-5.92h2.355l1.109 3.524 2.217-3.523zm16.35 6.765h-2.91L51.66 28.09h2.91l-3.326 10.853zM47.087 28.09l-3.88 7.047-.276-7.047h-4.989v.423c1.663 0 1.94.282 2.217 1.55l.97 8.88h3.049l6.096-10.853h-3.187zm18.983 9.302l-.693 1.55H62.19l5.82-10.852h3.88l.97 10.853h-3.188l-.139-1.55H66.07zm.97-2.114h2.494l-.277-5.074-2.217 5.074zm-9.422 3.946c-2.078 0-3.464-.704-4.434-1.268l1.386-2.114c.831.564 1.524 1.127 3.187 1.127.554 0 .97-.14 1.247-.563.415-.705-.139-1.128-1.247-1.692l-.555-.563c-1.662-1.128-2.494-2.255-1.662-4.229.554-1.268 1.8-2.114 4.018-2.114 1.524 0 2.91.705 3.74 1.269l-1.662 1.832c-.831-.705-1.524-.987-2.217-.987-.554 0-1.108.282-1.247.564-.277.564.139.987.97 1.55l.693.423c2.078 1.269 2.494 2.678 2.078 3.947-.692 2.396-2.494 2.819-4.295 2.819z" fill="#074784"/></g></svg>