<svg width="70" height="23" fill="none" xmlns="http://www.w3.org/2000/svg"><g style="mix-blend-mode:luminosity"><path d="M65.171 1.2h-4.339c-1.312 0-2.32.403-2.926 1.715l-8.274 18.869h5.852s1.01-2.523 1.211-3.128h7.164c.202.706.707 3.027.707 3.027h5.247L65.17 1.199zM58.31 14.417c.504-1.211 2.22-5.752 2.22-5.752 0 .101.504-1.21.706-1.917l.403 1.816s1.11 4.944 1.312 5.954H58.31v-.101zm-8.274.607c0 4.238-3.834 7.063-9.788 7.063-2.522 0-4.944-.504-6.256-1.11l.807-4.641.707.303c1.816.807 3.027 1.11 5.247 1.11 1.614 0 3.33-.606 3.33-2.019 0-.908-.707-1.513-2.927-2.522-2.119-1.01-4.944-2.624-4.944-5.55 0-4.036 3.935-6.76 9.485-6.76 2.119 0 3.935.403 5.045.908l-.807 4.44-.404-.404c-1.009-.404-2.32-.807-4.238-.807-2.118.1-3.128 1.009-3.128 1.816 0 .908 1.211 1.614 3.128 2.522 3.23 1.514 4.743 3.23 4.743 5.651z" fill="#3362AB"/><path d="M.794 1.401l.1-.403h8.679c1.21 0 2.119.403 2.421 1.715l1.918 9.081C11.994 6.951 7.554 3.016.793 1.401z" fill="#F9B50B"/><path d="M26.12 1.2l-8.778 20.484H11.39L6.344 4.53c3.632 2.32 6.66 5.953 7.77 8.476l.605 2.119 5.449-14.026h5.953V1.2zm2.322-.1h5.55L30.46 21.683h-5.55l3.532-20.585z" fill="#3362AB"/></g></svg>