<svg width="102" height="28" fill="none" xmlns="http://www.w3.org/2000/svg"><path d="M.004 4.873h3.988v14.89h7.381v3.77H.003V4.873zm13.124 6.01h3.832v12.64h-3.832v-12.64zm1.912-6.29c1.228 0 2.223 1.02 2.223 2.28 0 1.26-.995 2.28-2.223 2.28-1.229 0-2.224-1.02-2.224-2.28.01-1.26 1.005-2.28 2.224-2.28zm17.93.28h3.833v11.15l4.339-5.15h4.69l-5.022 5.85 4.915 6.8h-4.817l-4.066-6.25h-.049v6.25h-3.832l.01-18.65zm-13.894 6.01h3.676v1.73h.049c.75-1.32 2.145-2.1 3.627-2.04 3.881 0 4.593 2.62 4.593 6.02v6.93h-3.832v-6.15c0-1.47-.03-3.35-1.99-3.35-1.989 0-2.3 1.6-2.3 3.24v6.25h-3.833v-12.63" fill="#231F20"/><path d="M53.897 15.733c.029-1.3-.975-2.38-2.243-2.41h-.107c-1.395-.09-2.594.98-2.701 2.41h5.05zm3.247 5.6c-1.287 1.6-3.208 2.53-5.236 2.52-3.833 0-6.894-2.62-6.894-6.68s3.061-6.68 6.893-6.68c3.579 0 5.822 2.62 5.822 6.68v1.23h-8.883c.234 1.44 1.462 2.49 2.886 2.46a3.254 3.254 0 002.73-1.55l2.682 2.02zm8.56-7.39c-1.735-.04-3.178 1.37-3.217 3.14-.04 1.78 1.335 3.26 3.061 3.3 1.736.04 3.18-1.37 3.218-3.14v-.08c.137-1.64-1.053-3.08-2.652-3.21a1.855 1.855 0 00-.41-.01zm6.592 9.58h-3.52v-1.68h-.049a4.794 4.794 0 01-3.803 1.99c-3.676 0-6.104-2.72-6.104-6.57 0-3.54 2.145-6.78 5.666-6.78a4.57 4.57 0 013.939 1.68h.049v-7.29h3.822v18.65zM100.048.953H78.03c-1.043-.01-1.891.84-1.91 1.91v22.68c.009 1.07.867 1.92 1.91 1.91h22.018c1.043.01 1.901-.84 1.911-1.91V2.873c-.01-1.08-.868-1.93-1.911-1.92zm-20.087 9.93h3.832v12.64h-3.832v-12.64zm1.911-1.72c-1.228 0-2.223-1.02-2.223-2.28 0-1.26.995-2.28 2.223-2.28 1.229 0 2.223 1.02 2.223 2.28 0 1.25-.994 2.27-2.223 2.28 0-.01 0-.01 0 0zm16.274 14.37h-3.832v-6.15c0-1.47-.03-3.35-1.989-3.35-1.999 0-2.301 1.6-2.301 3.25v6.25h-3.832v-12.64h3.676v1.73h.049c.75-1.31 2.145-2.1 3.627-2.04 3.88 0 4.593 2.62 4.593 6.02l.01 6.93z" fill="#231F20"/></svg>