<svg width="89" height="38" fill="none" xmlns="http://www.w3.org/2000/svg"><path d="M87.9 8.913s-.52-3.62-2.1-5.21c-1.4-1.41-3.3-2.2-5.28-2.22-7.37-.53-18.43-.53-18.43-.53h-.02s-11.06 0-18.44.53c-1.98.02-3.88.82-5.28 2.22-1.58 1.59-2.09 5.21-2.09 5.21-.33 2.82-.5 5.65-.53 8.49v3.98c.02 2.84.2 5.67.53 8.49 0 0 .51 3.62 2.09 5.21 2 2.09 4.64 2.02 5.81 2.24 4.22.4 17.92.53 17.92.53s11.07-.02 18.45-.55c1.98-.02 3.88-.82 5.28-2.22 1.58-1.59 2.1-5.21 2.1-5.21.33-2.82.5-5.65.53-8.49v-3.98c-.04-2.84-.21-5.67-.54-8.49zM33 30.813h-3.35v-1.94c-1.27 1.46-2.35 2.19-3.52 2.19-.92.06-1.78-.5-2.1-1.37-.28-.83-.41-1.71-.37-2.59v-14.12h3.35v14.47c.08.5.29.68.71.68.64 0 1.22-.56 1.93-1.56v-13.59H33v17.83zm-11.82-12c.1-1.49-.27-2.97-1.06-4.24a4.458 4.458 0 00-3.71-1.72c-1.45-.1-2.85.55-3.71 1.72a7.148 7.148 0 00-1.06 4.25v6.34c-.12 1.44.24 2.88 1.01 4.1a4.66 4.66 0 003.75 1.86c1.48.01 2.88-.68 3.78-1.86.76-1.22 1.11-2.66.99-4.1l.01-6.35zm-3.35 6.71c.18 1.76-.37 2.64-1.41 2.64s-1.59-.88-1.41-2.64v-7.06c-.18-1.76.37-2.59 1.41-2.59s1.59.83 1.41 2.59v7.06zm-9.89-4.42v9.71H4.41v-9.71S.75 9.203 0 6.983h3.71l2.48 9.3 2.46-9.3h3.71l-4.42 14.12z" fill="#000"/><path d="M84.01 22.523v-3.61c.1-1.46-.26-2.92-1.04-4.16a4.513 4.513 0 00-3.77-1.85c-1.5-.05-2.93.64-3.83 1.85a7.155 7.155 0 00-1.08 4.23v6.18c-.09 1.44.3 2.87 1.11 4.07.91 1.2 2.36 1.88 3.87 1.81 1.53.08 3-.65 3.86-1.91.39-.57.65-1.23.75-1.91.07-.69.11-1.38.11-2.08v-.5h-3.35c0 1.28.01 2.04-.02 2.22-.05.74-.68 1.31-1.43 1.28-1.1 0-1.56-.82-1.55-2.45v-3.17h6.37zm-6.36-4.6c0-1.65.45-2.1 1.52-2.1s1.48.49 1.48 2.12v1.93h-3v-1.95zm-8.45-5.04c-1.37.12-2.61.86-3.38 1.99v-7.71h-3.18v23.65h3.18v-1.78c.76 1.14 2 1.88 3.37 2 1.24.04 2.33-.79 2.63-1.99.27-1.16.39-2.34.35-3.53v-7.06c.03-1.19-.12-2.37-.43-3.52a2.573 2.573 0 00-2.54-2.05zm-.37 12.81c0 1.76-.42 2.44-1.34 2.44-.64-.04-1.24-.33-1.67-.8v-10.7c.43-.47 1.03-.76 1.66-.8.92 0 1.34.52 1.34 2.28l.01 7.58zm-8.82 5.12h-3.35v-1.94c-1.27 1.46-2.35 2.19-3.52 2.19-.92.06-1.78-.5-2.1-1.37-.28-.83-.41-1.71-.37-2.59v-13.94h3.35v14.3c.08.5.29.68.71.68.64 0 1.22-.56 1.93-1.56v-13.42h3.35v17.65z" fill="#fff"/><path d="M47.3 30.813h-3.53v-20.3h-3.71v-3.35h11.12v3.35H47.3v20.3z" fill="#fff"/></svg>