<svg width="48" height="48" viewBox="0 0 48 48" fill="none" xmlns="http://www.w3.org/2000/svg">
<g clip-path="url(#clip0_1313_10110)">
<circle cx="24" cy="24" r="24" fill="#6027AE"/>
<path d="M15.8637 51.3605L5.00159 51.2152C5.01064 50.6051 5.13558 45.129 7.00237 40.7043C8.42373 37.3382 11.0275 34.706 14.0422 34.0439C17.0569 33.3818 19.8019 34.4727 20.298 37.3346V37.3454C20.7887 40.0888 18.634 42.0159 17.3883 44.5135C16.1426 47.0112 15.8836 50.1009 15.8655 51.3605H15.8637Z" fill="white" stroke="#300375" stroke-width="1.11363" stroke-miterlimit="10" stroke-linecap="round"/>
<path d="M4.99988 51.2152C5.00893 50.6051 5.13386 45.129 7.00065 40.7043C8.42202 37.3382 11.0257 34.706 14.0405 34.0439C17.0552 33.3818 19.8002 34.4727 20.2963 37.3346V37.3454" stroke="#E0349E" stroke-width="1.11363" stroke-miterlimit="10" stroke-linecap="square"/>
<path d="M31.7823 51.7805L42.6444 51.6351C42.6354 51.0251 42.5104 45.5489 40.6436 41.1242C39.2223 37.7581 36.6185 35.1259 33.6038 34.4638C30.589 33.8017 27.8441 34.8926 27.348 37.7545V37.7653C26.8573 40.5087 29.012 42.4358 30.2577 44.9334C31.5034 47.4311 31.7624 50.5209 31.7805 51.7805H31.7823Z" fill="white" stroke="#300375" stroke-width="1.11363" stroke-miterlimit="10" stroke-linecap="round"/>
<path d="M42.6461 51.6351C42.6371 51.0251 42.5121 45.5489 40.6453 41.1242C39.224 37.7581 36.6203 35.1259 33.6055 34.4638C30.5908 33.8017 27.8458 34.8926 27.3497 37.7545V37.7653" stroke="#E0349E" stroke-width="1.11363" stroke-miterlimit="10" stroke-linecap="square"/>
<path d="M24.3727 59.4402C24.3655 58.7924 24.3999 58.0927 24.4361 57.3516C24.5918 54.1452 24.5755 51.8593 22.9333 51.7068C22.0913 51.7893 21.1335 52.0477 20.3241 53.8169C19.8642 54.8253 19.866 57.3732 20.0091 59.2482C20.0127 59.2966 20.0127 59.3253 20.0127 59.3253L20 59.878L11.6228 55.8401L11.6354 55.2713C11.6354 55.2318 11.6318 55.1188 11.6246 54.9465C11.4508 50.2598 11.6771 47.1396 12.2963 45.6701C13.4769 42.8674 14.585 41.1485 16.0027 39.9248C17.6124 38.536 19.6567 37.7931 22.4378 37.5904C22.675 37.5724 22.9231 37.5635 23.1784 37.5635C26.9952 37.5635 31.8369 39.4026 34.0478 43.5115C35.6918 46.5654 35.9254 52.8239 35.9508 55.3736L35.9562 55.9352L24.38 60L24.3745 59.4402H24.3727Z" fill="white"/>
<path d="M17.9999 40C17.4999 43.5 15 43 13.4999 43C11.9999 43 11.3333 48.1667 11.5 49H35.5C35.5 45.8 35.5 44 34 44C32.5 44 28.4999 41.5 28.9999 39C24.9999 41.4 19.4999 40.5 17.9999 40Z" fill="#FFDB00" stroke="#300375"/>
<path d="M15.9999 38.5C12.4999 42.5 11.4999 45.5 11.4999 47.5" stroke="#300375"/>
<path d="M30.4999 38C33.9999 42 35.4999 44.5 35.4999 47" stroke="#300375"/>
<path d="M35.6251 24.8459C36.0651 22.6784 35.9438 20.423 35.196 18.338C34.5007 16.4038 33.206 14.3583 30.7924 13.3158C25.4311 10.9976 19.8742 12.1352 17.5076 13.7231C15.3512 15.1693 12.6623 17.3153 12.293 22.2514C11.9996 26.1683 12.0721 29.9686 12.4414 31.8024C12.8108 33.6343 14.0402 37.5764 17.2741 39.4765C20.5079 41.3767 24.1654 40.8258 24.7159 40.7648C25.2663 40.7038 30.079 39.873 32.2156 36.114C33.7456 33.4226 35.0221 27.8172 35.6251 24.8477V24.8459Z" fill="white" stroke="#300375" stroke-width="0.947771" stroke-miterlimit="10" stroke-linecap="round"/>
<path d="M31.1296 22.3299C29.7137 22.5147 28.2761 22.8466 26.9362 23.315C25.7285 23.7904 24.3524 24.5207 23.82 25.7283C23.1356 27.3216 23.0849 29.1284 22.8857 30.8474C22.8586 31.1972 22.7898 32.1195 22.7608 32.4604C22.6902 33.1315 22.6612 33.8474 22.3407 34.4934C21.6961 35.7565 20.11 35.5251 19.4364 34.4126C19.1503 33.8725 19.0978 33.2176 19.02 32.6291C18.8063 30.4957 19.125 28.3282 18.6325 26.2468C18.2885 24.8024 17.5298 23.8801 15.9853 23.6002C15.0872 23.4172 14.1276 23.4316 13.2186 23.4567C15.0003 23.114 17.3397 22.87 18.5836 24.501C20.4232 27.135 19.5215 30.6051 20.2295 33.5119C20.2657 33.6303 20.282 33.7613 20.349 33.8689C20.492 34.0896 20.8343 34.3498 21.104 34.2727C21.6074 34.0555 21.6237 32.8749 21.6997 32.3617C21.7559 31.7589 21.8319 30.8043 21.9025 30.2032C22.1615 28.4843 22.2955 26.6595 23.2044 25.1056C23.9848 23.8676 25.4188 23.2145 26.7768 22.8143C28.2109 22.4698 29.6648 22.285 31.1333 22.3299H31.1296Z" fill="#E0349E"/>
<mask id="mask0_1313_10110" style="mask-type:luminance" maskUnits="userSpaceOnUse" x="12" y="12" width="24" height="29">
<path d="M35.6251 24.8459C36.0651 22.6784 35.9438 20.423 35.196 18.338C34.5007 16.4038 33.206 14.3583 30.7924 13.3158C25.4311 10.9976 19.8742 12.1352 17.5076 13.7231C15.3512 15.1693 12.6623 17.3153 12.293 22.2514C11.9996 26.1683 12.0721 29.9686 12.4414 31.8024C12.8108 33.6343 14.0402 37.5764 17.2741 39.4765C20.5079 41.3767 24.1654 40.8258 24.7159 40.7648C25.2663 40.7038 30.079 39.873 32.2156 36.114C33.7456 33.4226 35.0221 27.8172 35.6251 24.8477V24.8459Z" fill="white"/>
</mask>
<g mask="url(#mask0_1313_10110)">
<path d="M16.5001 25C21.7468 25 26.0001 21.1944 26.0001 16.5C26.0001 11.8056 21.7468 8 16.5001 8C11.2534 8 7.00012 11.8056 7.00012 16.5C7.00012 21.1944 11.2534 25 16.5001 25Z" fill="#300375"/>
<path d="M30.6748 25.0658C36.171 24.4433 40.2408 20.5946 39.7651 16.4694C39.2893 12.3443 34.4481 9.50482 28.9519 10.1273C23.4557 10.7498 19.3858 14.5985 19.8616 18.7236C20.3373 22.8488 25.1786 25.6883 30.6748 25.0658Z" fill="#300375"/>
</g>
<path d="M25.37 29.3402C25.7412 28.1488 26.8294 27.3306 27.952 26.8677C28.5242 26.638 29.1362 26.5286 29.7464 26.455C30.1212 26.4101 30.4616 26.7223 30.4906 27.083C30.5286 27.8204 29.7826 27.8312 29.2503 27.9335C28.8392 27.9999 28.4373 28.1075 28.0552 28.2726C27.4649 28.5184 26.9399 28.8862 26.4111 29.2397C26.1649 29.403 25.9096 29.5483 25.6416 29.6739C25.4044 29.7726 25.2741 29.5483 25.37 29.342V29.3402Z" fill="#E0349E"/>
<path d="M14.0332 26.6523C14.6452 25.5775 16.2983 27.1941 16.8143 27.7414C17.2761 28.3299 17.6635 29.0709 17.6002 29.8353C17.4155 30.3036 17.0099 29.681 16.8234 29.5177C16.3961 29.0566 15.9742 28.5847 15.4455 28.2312C15.087 27.9352 14.6597 27.7522 14.2559 27.5297C13.9716 27.3484 13.8793 26.9447 14.035 26.6523H14.0332Z" fill="#E0349E"/>
<path d="M32.9039 26.1552C32.9039 26.1552 33.8473 23.358 36.9091 23.7204C39.6848 24.0488 39.5255 27.5943 39.0022 29.1373C38.4789 30.6804 36.8928 31.6332 34.9518 31.2331C33.9487 31.0249 33.4815 30.58 33.4815 30.58" fill="white"/>
<path d="M32.9039 26.1552C32.9039 26.1552 33.8473 23.358 36.9091 23.7204C39.6848 24.0488 39.5255 27.5943 39.0022 29.1373C38.4789 30.6804 36.8928 31.6332 34.9518 31.2331C33.9487 31.0249 33.4815 30.58 33.4815 30.58" stroke="#300375" stroke-width="0.947771" stroke-miterlimit="10" stroke-linecap="round"/>
<path d="M32.0284 15.2582C30.6772 10.8027 43.537 8.09587 45.8846 19.8573C45.9345 20.1072 45.6643 20.301 45.4416 20.177C39.3694 16.7932 37.191 19.8691 34.5672 17.8964C34.4529 15.9141 32.2509 16.3592 32.0284 15.2582Z" fill="#300375"/>
<path d="M16.6865 15.1289C18.0032 10.787 5.47771 8.14841 3.18052 19.597C3.13037 19.8469 3.40022 20.0407 3.62299 19.9168C9.53263 16.6301 11.6552 19.6228 14.2113 17.701C14.3227 15.7683 16.4696 16.2023 16.6865 15.1289Z" fill="#300375"/>
<circle cx="23" cy="48" r="5" fill="#E0349E"/>
</g>
<defs>
<clipPath id="clip0_1313_10110">
<rect width="48" height="48" rx="24" fill="white"/>
</clipPath>
</defs>
</svg>
