<svg width="48" height="48" viewBox="0 0 48 48" fill="none" xmlns="http://www.w3.org/2000/svg">
<g clip-path="url(#clip0_1313_10187)">
<circle cx="24" cy="24" r="24" fill="#6027AE"/>
<path d="M15.8637 48.36L5.00159 48.2147C5.01064 47.6046 5.13558 42.1285 7.00237 37.7038C8.42373 34.3377 11.0275 31.7055 14.0422 31.0434C17.0569 30.3813 19.8019 31.4722 20.298 34.3341V34.3449C20.7887 37.0883 18.634 39.0154 17.3883 41.513C16.1426 44.0107 15.8836 47.1005 15.8655 48.36H15.8637Z" fill="white" stroke="#300375" stroke-width="1.11363" stroke-miterlimit="10" stroke-linecap="round"/>
<path d="M4.99988 48.2147C5.00893 47.6046 5.13386 42.1285 7.00065 37.7038C8.42202 34.3377 11.0257 31.7055 14.0405 31.0434C17.0552 30.3813 19.8002 31.4722 20.2963 34.3341V34.3449" stroke="#E0349E" stroke-width="1.11363" stroke-miterlimit="10" stroke-linecap="square"/>
<path d="M31.7823 48.7805L42.6444 48.6351C42.6354 48.0251 42.5104 42.5489 40.6436 38.1242C39.2223 34.7581 36.6185 32.1259 33.6038 31.4638C30.589 30.8017 27.8441 31.8926 27.348 34.7545V34.7653C26.8573 37.5087 29.012 39.4358 30.2577 41.9334C31.5034 44.4311 31.7624 47.5209 31.7805 48.7805H31.7823Z" fill="white" stroke="#300375" stroke-width="1.11363" stroke-miterlimit="10" stroke-linecap="round"/>
<path d="M42.6461 48.6351C42.6371 48.0251 42.5121 42.5489 40.6453 38.1242C39.224 34.7581 36.6203 32.1259 33.6055 31.4638C30.5908 30.8017 27.8458 31.8926 27.3497 34.7545V34.7653" stroke="#E0349E" stroke-width="1.11363" stroke-miterlimit="10" stroke-linecap="square"/>
<path d="M24.7923 56.9507C24.7851 56.303 24.8195 55.6032 24.8557 54.8622C25.0114 51.6558 24.9951 49.3699 23.3528 49.2174C22.5109 49.2999 21.553 49.5583 20.7437 51.3274C20.2838 52.3358 20.2856 54.8837 20.4286 56.7587C20.4322 56.8072 20.4322 56.8341 20.4322 56.8359L20.4196 57.3885L11.7773 57.3293L11.79 56.7605C11.79 56.7211 11.7864 56.608 11.7791 56.4358C11.6053 51.7491 11.8316 48.6288 12.4509 47.1593C13.6314 44.3566 14.7395 42.6377 16.1573 41.414C17.767 40.0252 19.8112 39.2824 22.5924 39.0796C22.8296 39.0617 23.0776 39.0527 23.3329 39.0527C27.1498 39.0527 31.9915 40.8919 34.2023 45.0008C35.8464 48.0547 36.08 54.3131 36.1053 56.8628L36.1107 57.4244L24.7995 57.5106L24.7941 56.9507H24.7923Z" fill="white"/>
<path d="M23.333 39.6125C26.5161 39.6125 31.4321 41.0443 33.7026 45.2627C35.2869 48.2089 35.5151 54.3579 35.5386 56.8663L25.3591 56.9435C25.3265 53.7909 26.3115 48.8548 23.3493 48.6521C22.2484 48.7526 21.1167 49.1509 20.2295 51.0941C19.5161 52.6533 19.8674 56.8053 19.8674 56.8215L12.3568 56.7694C12.364 56.4429 11.9729 49.7502 12.9742 47.3728C15.0166 42.521 17.1949 40.0341 22.6359 39.6376C22.8568 39.6215 23.0904 39.6125 23.3348 39.6125M23.333 38.4911C23.065 38.4911 22.8025 38.5 22.5508 38.518C16.4452 38.9647 14.0316 41.9433 11.9277 46.9403C11.2686 48.5068 11.0332 51.6198 11.2124 56.4554C11.2179 56.6044 11.2215 56.7084 11.2233 56.7569L11.1998 57.8855L12.3477 57.8927L19.8583 57.9447L20.9737 57.9519L20.9972 56.8466C20.9972 56.791 20.9972 56.7533 20.9918 56.7156C20.8488 54.8262 20.8705 52.4057 21.258 51.557C21.9279 50.0911 22.6341 49.8561 23.3565 49.7789C23.6354 49.8076 24.0029 49.935 24.213 50.9703C24.4248 52.011 24.3542 53.4464 24.2872 54.8316C24.251 55.5816 24.2166 56.2886 24.2238 56.9542L24.2347 58.0739L25.3645 58.0649L35.5441 57.9878L36.6775 57.9788L36.6667 56.8556C36.6359 53.6384 36.3389 47.7855 34.6967 44.7352C33.5668 42.6341 31.7127 40.9403 29.3353 39.8386C27.4848 38.9809 25.2957 38.4893 23.3294 38.4893L23.333 38.4911Z" fill="#300375"/>
<path d="M31.9467 47.1428L28.4214 47.6399C25.4646 48.0579 22.4643 48.0364 19.5129 47.5788L16.7082 47.1428C15.8083 47.1428 15.0804 46.3874 15.0804 45.4544V36.3125C15.0804 35.0296 16.0835 33.9907 17.3202 33.9907H31.3365C32.5732 33.9907 33.5763 35.0296 33.5763 36.3125V45.4544C33.5763 46.3874 32.8466 47.1428 31.9485 47.1428H31.9467Z" fill="#FFF742"/>
<path d="M14.6363 32.9072C14.6363 32.9072 12.5033 42.3272 12.3549 47.9756L19.2879 48.5695C19.2879 48.5695 19.4888 45.3578 19.6753 41.5593C19.8383 38.2057 19.7442 34.1094 19.7442 34.1094L14.6363 32.909V32.9072Z" fill="#E0349E" stroke="#300375" stroke-width="0.947771" stroke-miterlimit="10" stroke-linecap="round"/>
<path d="M33.5439 30.9106C33.5439 30.9106 35.494 43.9461 35.5393 48.6615L27.2139 48.8499C27.2139 48.8499 27.1052 44.7177 26.9224 41.1435C26.7558 37.903 26.7377 34.7253 26.7377 34.7253C30.5817 35.4358 33.5439 30.9106 33.5439 30.9106Z" fill="#E0349E" stroke="#300375" stroke-width="0.889325" stroke-miterlimit="10" stroke-linecap="round"/>
<path d="M35.6251 21.8459C36.0651 19.6784 35.9438 17.423 35.196 15.338C34.5007 13.4038 33.206 11.3583 30.7924 10.3158C25.4311 7.99761 19.8742 9.13518 17.5076 10.7231C15.3512 12.1693 12.6623 14.3153 12.293 19.2514C11.9996 23.1683 12.0721 26.9686 12.4414 28.8024C12.8108 30.6343 14.0402 34.5764 17.2741 36.4765C20.5079 38.3767 24.1654 37.8258 24.7159 37.7648C25.2663 37.7038 30.079 36.873 32.2156 33.114C33.7456 30.4226 35.0221 24.8172 35.6251 21.8477V21.8459Z" fill="white" stroke="#300375" stroke-width="0.947771" stroke-miterlimit="10" stroke-linecap="round"/>
<path d="M31.1296 19.3299C29.7137 19.5147 28.2761 19.8466 26.9362 20.315C25.7285 20.7904 24.3524 21.5207 23.82 22.7283C23.1356 24.3216 23.0849 26.1284 22.8857 27.8474C22.8586 28.1972 22.7898 29.1195 22.7608 29.4604C22.6902 30.1315 22.6612 30.8474 22.3407 31.4934C21.6961 32.7565 20.11 32.5251 19.4364 31.4126C19.1503 30.8725 19.0978 30.2176 19.02 29.6291C18.8063 27.4957 19.125 25.3282 18.6325 23.2468C18.2885 21.8024 17.5298 20.8801 15.9853 20.6002C15.0872 20.4172 14.1276 20.4316 13.2186 20.4567C15.0003 20.114 17.3397 19.87 18.5836 21.501C20.4232 24.135 19.5215 27.6051 20.2295 30.5119C20.2657 30.6303 20.282 30.7613 20.349 30.8689C20.492 31.0896 20.8343 31.3498 21.104 31.2727C21.6074 31.0555 21.6237 29.8749 21.6997 29.3617C21.7559 28.7589 21.8319 27.8043 21.9025 27.2032C22.1615 25.4843 22.2955 23.6595 23.2044 22.1056C23.9848 20.8676 25.4188 20.2145 26.7768 19.8143C28.2109 19.4698 29.6648 19.285 31.1333 19.3299H31.1296Z" fill="#E0349E"/>
<mask id="mask0_1313_10187" style="mask-type:luminance" maskUnits="userSpaceOnUse" x="12" y="9" width="24" height="29">
<path d="M35.6251 21.8459C36.0651 19.6784 35.9438 17.423 35.196 15.338C34.5007 13.4038 33.206 11.3583 30.7924 10.3158C25.4311 7.99761 19.8742 9.13518 17.5076 10.7231C15.3512 12.1693 12.6623 14.3153 12.293 19.2514C11.9996 23.1683 12.0721 26.9686 12.4414 28.8024C12.8108 30.6343 14.0402 34.5764 17.2741 36.4765C20.5079 38.3767 24.1654 37.8258 24.7159 37.7648C25.2663 37.7038 30.079 36.873 32.2156 33.114C33.7456 30.4226 35.0221 24.8172 35.6251 21.8477V21.8459Z" fill="white"/>
</mask>
<g mask="url(#mask0_1313_10187)">
<path d="M22.0147 18.8905C25.6687 18.8905 28.6308 15.9551 28.6308 12.3342C28.6308 8.7132 25.6687 5.77783 22.0147 5.77783C18.3607 5.77783 15.3986 8.7132 15.3986 12.3342C15.3986 15.9551 18.3607 18.8905 22.0147 18.8905Z" fill="#300375"/>
<path d="M37.6471 24.2879C41.5507 23.8458 44.3788 20.571 43.9639 16.9735C43.549 13.3759 40.0482 10.8179 36.1446 11.26C32.241 11.7022 29.4129 14.9769 29.8278 18.5745C30.2427 22.172 33.7435 24.73 37.6471 24.2879Z" fill="#300375"/>
</g>
<path d="M25.37 26.3402C25.7412 25.1488 26.8294 24.3306 27.952 23.8677C28.5242 23.638 29.1362 23.5286 29.7464 23.455C30.1212 23.4101 30.4616 23.7223 30.4906 24.083C30.5286 24.8204 29.7826 24.8312 29.2503 24.9335C28.8392 24.9999 28.4373 25.1075 28.0552 25.2726C27.4649 25.5184 26.9399 25.8862 26.4111 26.2397C26.1649 26.403 25.9096 26.5483 25.6416 26.6739C25.4044 26.7726 25.2741 26.5483 25.37 26.342V26.3402Z" fill="#E0349E"/>
<path d="M14.0332 23.6523C14.6452 22.5775 16.2983 24.1941 16.8143 24.7414C17.2761 25.3299 17.6635 26.0709 17.6002 26.8353C17.4155 27.3036 17.0099 26.681 16.8234 26.5177C16.3961 26.0566 15.9742 25.5847 15.4455 25.2312C15.087 24.9352 14.6597 24.7522 14.2559 24.5297C13.9716 24.3484 13.8793 23.9447 14.035 23.6523H14.0332Z" fill="#E0349E"/>
<path d="M32.9039 23.1552C32.9039 23.1552 33.8473 20.358 36.9091 20.7204C39.6848 21.0488 39.5255 24.5943 39.0022 26.1373C38.4789 27.6804 36.8928 28.6332 34.9518 28.2331C33.9487 28.0249 33.4815 27.58 33.4815 27.58" fill="white"/>
<path d="M32.9039 23.1552C32.9039 23.1552 33.8473 20.358 36.9091 20.7204C39.6848 21.0488 39.5255 24.5943 39.0022 26.1373C38.4789 27.6804 36.8928 28.6332 34.9518 28.2331C33.9487 28.0249 33.4815 27.58 33.4815 27.58" stroke="#300375" stroke-width="0.947771" stroke-miterlimit="10" stroke-linecap="round"/>
</g>
<defs>
<clipPath id="clip0_1313_10187">
<rect width="48" height="48" rx="24" fill="white"/>
</clipPath>
</defs>
</svg>
