<svg width="484" height="421" viewBox="0 0 484 421" fill="none" xmlns="http://www.w3.org/2000/svg">
<g clip-path="url(#clip0_1713_10165)">
<g filter="url(#filter0_d_1713_10165)">
<path d="M-8.72899 241.963C-8.72899 241.963 12.3886 237.879 13.5671 225.52C14.7489 213.159 0.315492 215.359 0.315492 215.359C3.5518 208.383 12.2531 210.062 21.1993 207.992C30.1431 205.919 33.1632 185.787 17.6193 178.16C6.15318 172.536 6.5159 185.959 6.5159 185.959C-8.18134 189.533 -4.78461 157.748 -27.7779 145.375C-27.7779 145.375 4.32417 153.83 28.6949 163.955C53.0681 174.083 55.1788 208.929 36.7601 226.984C18.3414 245.039 -8.72899 241.963 -8.72899 241.963Z" fill="#AA0052"/>
<path d="M375.099 -56.0331C375.099 -56.0331 300.265 -30.7324 355.515 34.905L298.39 3.61092L288.983 -50.9024L356.086 -80.3273L375.103 -56.0356L375.099 -56.0331Z" fill="#300375"/>
<path d="M-20.6701 240.208C-20.6701 240.208 42.8806 289.005 95.1945 221.311C104.113 209.778 109.082 182.872 96.0137 164.545C95.3722 163.655 94.6933 162.776 93.9708 161.928C93.9708 161.928 102.352 165.272 116.312 169.978C124.552 172.75 134.727 176.002 146.27 179.314C216.011 199.347 342.633 240.572 377.844 156.811C410.343 79.4998 337.517 42.485 319.741 -10.211C301.967 -62.9037 362.031 -71.5372 362.031 -71.5372L308.187 -93.3942C308.187 -93.3942 234.27 -70.2445 218.526 -35.869C213.064 -23.9521 213.144 -12.3161 216.275 -1.65825C222.164 18.4312 238.888 35.0487 249.783 43.5799C266.468 56.6328 286.442 71.9458 271.321 93.0863C256.202 114.221 200.938 89.3243 167.203 76.3592C133.461 63.399 51.6065 32.314 5.39509 26.4372C-40.8206 20.5686 -87.1302 45.785 -87.2042 85.303C-87.2213 93.3236 -82.3374 103.005 -73.3104 113.407C-70.9239 116.154 -68.6689 119.384 -65.4573 121.776C-54.5417 129.905 -41.6797 137.509 -28.675 144.873C-28.6635 144.875 -28.6538 144.888 -28.6422 144.89C-21.0932 149.165 -13.5085 153.349 -6.21486 157.517C3.16308 162.874 12.0445 168.185 19.6829 173.575C57.689 200.394 17.5056 252.164 -20.6701 240.208Z" fill="#E0349E"/>
<path d="M-28.6393 144.888C-21.0903 149.163 -13.5056 153.346 -6.21193 157.515C-4.99008 142.415 47.2832 152.342 89.7659 162.961C91.874 163.49 93.9557 164.016 96.0075 164.544C95.3661 163.654 94.6871 162.775 93.9646 161.928C93.9646 161.928 102.346 165.272 116.306 169.977C135 177.5 147.141 179.391 147.5 179.5C147.071 179.258 118.726 164.125 88.1821 150.086C84.4654 148.379 80.6636 146.667 76.8002 144.968C40.3816 128.95 -0.975789 114.416 -19.7394 120.899C-37.2251 126.94 -35.3514 136.539 -28.6518 144.892L-28.6393 144.888Z" fill="#300375"/>
<path d="M-73.3039 113.408C-70.9175 116.155 -68.2869 118.951 -65.4533 121.774C-65.4533 121.774 -59.0445 84.2161 -26.2443 71.7574C33.5056 49.0686 108.987 90.8896 140.948 103.494C172.911 116.092 280.576 175.482 318.981 145.715C357.391 115.95 324.025 62.5453 308.014 52.7426C292.007 42.9432 270.502 32.6373 250.755 26.3071C231.009 19.9769 220.279 4.34462 216.274 -1.66738C213.149 -12.3243 213.066 -23.9579 218.528 -35.8805C234.276 -70.2584 308.195 -93.4048 308.195 -93.4048C308.195 -93.4048 266.634 -105.632 250.871 -91.1136C250.871 -91.1136 264.188 -87.4913 256.661 -76.8992C249.139 -66.3004 217.939 -72.6544 204.149 -50.5019C204.149 -50.5019 217.809 -52.0627 212.184 -38.6397C206.558 -25.2167 173.749 -9.40303 197.029 14.5683C197.029 14.5683 200.131 -2.30911 213.446 8.57736C226.758 19.4605 223.841 48.9605 249.786 43.5684C249.786 43.5684 249.026 32.7641 267.115 39.63C285.204 46.496 278.069 73.7563 289.995 75.2924C289.995 75.2924 289.856 58.0844 304.3 62.4007C318.743 66.7171 317.736 84.0613 312.909 89.2532C308.082 94.4452 299.497 105.386 306.452 110.931C306.452 110.931 329.812 90.6239 327.255 119.916C326.183 132.197 314.032 132.809 302.782 130.076C293.156 127.742 287.726 122.97 282.633 129.625C282.633 129.625 296.343 133.801 286.565 142.988C276.789 152.168 251.397 103.355 233.976 112.592C233.976 112.592 250.424 128.372 232.782 128.784C215.143 129.194 198.396 87.465 177.656 89.915C177.656 89.915 192.237 98.3072 178.517 105.72C164.802 113.134 147.179 63.6088 122.567 68.0771C122.567 68.0771 133.978 81.4633 117.623 82.2192C101.268 82.975 85.9037 46.462 69.3764 52.4971C69.3764 52.4971 81.2822 60.3869 67.0238 67.6971C52.7712 75.0081 36.8129 31.3946 13.8611 41.7766C13.8611 41.7766 25.8767 50.5265 11.8392 58.1573C-2.19832 65.7882 -15.3954 31.0879 -37.6325 49.4381C-37.6325 49.4381 -21.0384 51.8021 -28.4827 62.9472C-35.9261 74.0866 -69.1838 60.9564 -72.4805 92.7458C-72.4805 92.7458 -61.6869 83.0877 -61.0719 92.9906C-60.6468 99.8352 -69.3789 105.712 -73.3188 113.409L-73.3039 113.408Z" fill="#F2EABE"/>
</g>
</g>
<defs>
<filter id="filter0_d_1713_10165" x="-118.033" y="-98.219" width="508.624" height="365.431" filterUnits="userSpaceOnUse" color-interpolation-filters="sRGB">
<feFlood flood-opacity="0" result="BackgroundImageFix"/>
<feColorMatrix in="SourceAlpha" type="matrix" values="0 0 0 0 0 0 0 0 0 0 0 0 0 0 0 0 0 0 127 0" result="hardAlpha"/>
<feOffset dy="4.5"/>
<feGaussianBlur stdDeviation="2.25"/>
<feComposite in2="hardAlpha" operator="out"/>
<feColorMatrix type="matrix" values="0 0 0 0 0 0 0 0 0 0 0 0 0 0 0 0 0 0 0.25 0"/>
<feBlend mode="normal" in2="BackgroundImageFix" result="effect1_dropShadow_1713_10165"/>
<feBlend mode="normal" in="SourceGraphic" in2="effect1_dropShadow_1713_10165" result="shape"/>
</filter>
<clipPath id="clip0_1713_10165">
<rect width="484" height="421" fill="white" transform="matrix(-1 0 0 -1 484 421)"/>
</clipPath>
</defs>
</svg>
