<svg width="374" height="563" viewBox="0 0 374 563" fill="none" xmlns="http://www.w3.org/2000/svg">
<g clip-path="url(#clip0_1713_10548)">
<g filter="url(#filter0_d_1713_10548)">
<path d="M87.2761 162.273C87.2761 162.273 172.191 159.858 140.969 246.676L186.9 193.794L176.041 135.305L97.3836 130.676L87.2718 162.272L87.2761 162.273Z" fill="#AA0052"/>
<path d="M596.985 313.32C596.985 313.32 551.106 386.252 473.081 337.507C459.782 329.204 444.728 303.925 451.067 280.564C451.382 279.426 451.739 278.287 452.151 277.162C452.151 277.162 444.946 283.663 432.624 293.619C425.349 299.491 416.301 306.567 405.895 314.216C343.038 360.45 230.846 427.706 163.951 377.954C67.2167 306.015 161.949 247.603 160.209 187.824C158.467 128.049 94.6693 141.76 94.6693 141.76L140.814 99.6198C140.814 99.6198 224.001 95.3779 252.709 124.17C262.665 134.15 266.928 145.914 267.748 157.832C269.308 180.29 258.643 203.291 250.839 215.962C238.884 235.353 224.455 258.252 247.595 273.929C270.732 289.6 317.174 243.864 346.357 218.198C375.549 192.533 446.499 130.632 490.91 107.457C535.329 84.2892 591.445 92.4357 606.269 132.263C609.28 140.345 607.968 151.932 602.747 165.792C601.365 169.453 600.296 173.552 597.95 177.163C589.976 189.435 579.842 201.905 569.475 214.185C569.464 214.191 569.46 214.209 569.449 214.215C563.431 221.344 557.343 228.394 551.543 235.32C544.085 244.223 537.11 252.894 531.419 261.181C503.099 302.414 562.947 339.627 596.985 313.32Z" fill="#E0349E"/>
<path d="M602.741 165.795C601.36 169.456 599.75 173.257 597.946 177.162C597.946 177.162 577.465 141.676 539.735 141.354C471.008 140.773 410.493 211.123 382.964 235.763C355.432 260.399 269.016 360.479 219.175 344.793C169.327 329.111 183.045 262.798 195.533 246.936C208.019 231.079 225.86 212.658 243.413 198.904C260.965 185.15 265.952 165.379 267.746 157.822C266.921 145.907 262.662 134.144 252.703 124.158C223.99 95.3653 140.802 99.6116 140.802 99.6116C140.802 99.6116 178.154 71.7676 199.47 80.5265C199.47 80.5265 187.392 89.15 198.936 97.023C210.478 104.905 239.572 86.8513 261.748 104.045C261.748 104.045 247.389 107.57 258.072 119.008C268.755 130.445 307.747 134.148 293.215 167.013C293.215 167.013 283.788 151.149 274.423 167.098C265.059 183.042 279.011 211.705 250.833 215.95C250.833 215.95 247.567 204.771 231.887 218.446C216.206 232.122 233.576 256.952 222.122 262.952C222.122 262.952 215.839 245.546 202.884 255.29C189.929 265.034 197.418 282.15 204.224 285.584C211.03 289.019 223.772 296.849 218.827 305.037C218.827 305.037 187.688 293.276 201.201 321.863C206.865 333.849 219.349 329.93 229.674 322.975C238.511 317.028 242.206 310.19 249.826 315C249.826 315 237.558 324.328 250.848 329.944C264.134 335.554 271.523 276.848 292.54 279.66C292.54 279.66 281.842 301.714 299.788 295.545C317.73 289.375 319.044 241.04 340.876 235.77C340.876 235.77 329.303 249.676 345.907 252.031C362.506 254.389 361.793 197.865 388.283 193.184C388.283 193.184 381.771 210.944 398.548 205.602C415.324 200.26 417.191 157.701 436.111 157.619C436.111 157.619 427.049 170.02 444.157 172.07C461.26 174.124 461.076 124.183 488.098 126.087C488.098 126.087 479.246 139.396 496.251 141.852C513.256 144.309 513.614 104.387 542.89 114.594C542.89 114.594 527.037 123.171 538.704 131.633C550.369 140.089 579.009 114.434 594.199 145.264C594.199 145.264 579.709 139.552 582.784 149.769C584.91 156.83 595.91 159.497 602.757 165.789L602.741 165.795Z" fill="#F2EABE"/>
</g>
</g>
<defs>
<filter id="filter0_d_1713_10548" x="82.772" y="78.8218" width="604.161" height="325.664" filterUnits="userSpaceOnUse" color-interpolation-filters="sRGB">
<feFlood flood-opacity="0" result="BackgroundImageFix"/>
<feColorMatrix in="SourceAlpha" type="matrix" values="0 0 0 0 0 0 0 0 0 0 0 0 0 0 0 0 0 0 127 0" result="hardAlpha"/>
<feOffset dy="4.5"/>
<feGaussianBlur stdDeviation="2.25"/>
<feComposite in2="hardAlpha" operator="out"/>
<feColorMatrix type="matrix" values="0 0 0 0 0 0 0 0 0 0 0 0 0 0 0 0 0 0 0.25 0"/>
<feBlend mode="normal" in2="BackgroundImageFix" result="effect1_dropShadow_1713_10548"/>
<feBlend mode="normal" in="SourceGraphic" in2="effect1_dropShadow_1713_10548" result="shape"/>
</filter>
<clipPath id="clip0_1713_10548">
<rect width="374" height="563" fill="white" transform="matrix(-1 0 0 -1 374 563)"/>
</clipPath>
</defs>
</svg>
