<svg width="164" height="107" viewBox="0 0 164 107" fill="none" xmlns="http://www.w3.org/2000/svg">
<g clip-path="url(#clip0_1914_17054)">
<path d="M79.0644 81.1847L75.0604 70.2955C74.9925 70.1109 74.8144 69.9871 74.6176 69.9871C74.5192 69.9871 74.4255 70.0175 74.3482 70.0735C74.2709 70.1273 74.21 70.2044 74.1748 70.2978L70.1709 81.1871C70.0584 81.4931 70.288 81.8202 70.6137 81.8202H78.6216C78.9496 81.8202 79.1768 81.4931 79.0644 81.1871V81.1847ZM79.0644 81.1847L75.0604 70.2955C74.9925 70.1109 74.8144 69.9871 74.6176 69.9871C74.5192 69.9871 74.4255 70.0175 74.3482 70.0735C74.2709 70.1273 74.21 70.2044 74.1748 70.2978L70.1709 81.1871C70.0584 81.4931 70.288 81.8202 70.6137 81.8202H78.6216C78.9496 81.8202 79.1768 81.4931 79.0644 81.1871V81.1847ZM156.09 50.9233H7.90948C3.54006 50.9233 0 54.4557 0 58.8105V99.0383C0 103.395 3.5424 106.925 7.90948 106.925H156.088C160.458 106.925 163.998 103.393 163.998 99.0383V58.8105C163.998 54.4534 160.455 50.9233 156.088 50.9233H156.09ZM48.7127 99.1691H40.1425V76.2202C40.1425 75.9702 39.9387 75.7693 39.6903 75.7693C39.5896 75.7693 39.4959 75.802 39.4186 75.8581C39.3412 75.9165 39.285 75.9959 39.2569 76.094L32.4954 99.1691H25.7714L19.0099 76.094C18.9537 75.9001 18.7757 75.7693 18.5765 75.7693C18.4523 75.7693 18.3375 75.8184 18.2555 75.9001C18.1735 75.9819 18.1243 76.094 18.1243 76.2202V99.1691H9.55417V58.8105H20.8913L28.5571 84.855C28.6227 85.0792 28.8289 85.2334 29.0655 85.2334C29.1826 85.2334 29.2927 85.196 29.3818 85.1283C29.4708 85.0605 29.5387 84.9671 29.5715 84.855L37.2397 58.8105H48.708V99.1691H48.7127ZM85.7579 99.1691L82.3116 89.7494C82.2436 89.5648 82.0656 89.441 81.8664 89.441H67.4977C67.3009 89.441 67.1228 89.5648 67.0549 89.7494L63.6086 99.1691H53.9841L70.8597 58.8105H78.3732L95.38 99.1691H85.7556H85.7579ZM125.043 67.749H113.64C113.385 67.749 113.179 67.9546 113.179 68.2092V99.1691H103.292V68.2092C103.292 67.9546 103.086 67.749 102.83 67.749H91.4276V58.8105H125.045V67.749H125.043ZM154.441 67.749H141.061C140.806 67.749 140.6 67.9546 140.6 68.2092V74.5194C140.6 74.7741 140.806 74.9796 141.061 74.9796H153.124V82.736H141.061C140.806 82.736 140.6 82.9416 140.6 83.1962V89.6372C140.6 89.8919 140.806 90.0975 141.061 90.0975H154.441V99.0359H131.237V58.8082H154.441V67.7466V67.749ZM74.6176 69.9848C74.5192 69.9848 74.4255 70.0151 74.3482 70.0712C74.2709 70.1249 74.21 70.202 74.1748 70.2955L70.1709 81.1847C70.0584 81.4908 70.288 81.8178 70.6137 81.8178H78.6216C78.9496 81.8178 79.1768 81.4908 79.0644 81.1847L75.0604 70.2955C74.9925 70.1109 74.8144 69.9871 74.6176 69.9871V69.9848ZM79.0644 81.1847L75.0604 70.2955C74.9925 70.1109 74.8144 69.9871 74.6176 69.9871C74.5192 69.9871 74.4255 70.0175 74.3482 70.0735C74.2709 70.1273 74.21 70.2044 74.1748 70.2978L70.1709 81.1871C70.0584 81.4931 70.288 81.8202 70.6137 81.8202H78.6216C78.9496 81.8202 79.1768 81.4931 79.0644 81.1871V81.1847ZM79.0644 81.1847L75.0604 70.2955C74.9925 70.1109 74.8144 69.9871 74.6176 69.9871C74.5192 69.9871 74.4255 70.0175 74.3482 70.0735C74.2709 70.1273 74.21 70.2044 74.1748 70.2978L70.1709 81.1871C70.0584 81.4931 70.288 81.8202 70.6137 81.8202H78.6216C78.9496 81.8202 79.1768 81.4931 79.0644 81.1871V81.1847Z" fill="#010101"/>
<path d="M78.6216 81.8179H70.6138C70.2858 81.8179 70.0585 81.4909 70.171 81.1848L74.1749 70.2956C74.21 70.2045 74.271 70.125 74.3483 70.0713C74.4256 70.0152 74.5193 69.9849 74.6177 69.9849C74.8145 69.9849 74.9926 70.1087 75.0605 70.2932L79.0644 81.1825C79.1769 81.4885 78.9496 81.8156 78.6216 81.8156V81.8179Z" fill="white"/>
<path d="M78.6216 81.8179H70.6138C70.2858 81.8179 70.0585 81.4909 70.171 81.1848L74.1749 70.2956C74.21 70.2045 74.271 70.125 74.3483 70.0713C74.4256 70.0152 74.5193 69.9849 74.6177 69.9849C74.8145 69.9849 74.9926 70.1087 75.0605 70.2932L79.0644 81.1825C79.1769 81.4885 78.9496 81.8156 78.6216 81.8156V81.8179Z" fill="#010101"/>
<path d="M107.361 0.074707C94.5811 0.074707 86.374 9.33324 86.374 22.0751C86.374 34.817 94.5811 44.0779 107.361 44.0779C120.142 44.0779 128.485 34.8193 128.485 22.0751C128.485 9.3309 120.144 0.074707 107.361 0.074707ZM107.361 34.9548C100.366 34.9548 95.79 29.9903 95.79 21.942C95.79 13.8936 100.366 9.19774 107.361 9.19774C114.357 9.19774 118.93 13.8936 118.93 21.942C118.93 29.9903 114.355 34.9548 107.361 34.9548Z" fill="#010101"/>
<path d="M164 43.0054H136.553C134.325 43.0054 132.517 41.2042 132.517 38.9801V0.745117H142.607V33.6137H163.998V43.0054H164Z" fill="#010101"/>
<path d="M61.753 0.074707C48.9728 0.074707 41.0352 9.33324 41.0352 22.0751C41.0352 34.817 48.9728 44.0779 61.753 44.0779C74.5333 44.0779 82.6068 34.8193 82.6068 22.0751C82.6068 9.3309 74.5357 0.074707 61.753 0.074707ZM61.753 34.9548C54.7573 34.9548 50.4534 29.9903 50.4534 21.942C50.4534 13.8936 54.7596 9.19774 61.753 9.19774C68.7465 9.19774 73.055 13.8936 73.055 21.942C73.055 29.9903 68.7488 34.9548 61.753 34.9548Z" fill="#010101"/>
<path d="M19.5066 43.9447C6.99577 43.9447 0 33.8825 0 21.8088C0 9.73508 6.99577 0.074707 19.3731 0.074707C28.9249 0.074707 35.6513 5.8429 37.9402 14.0268V15.3678H29.0608C27.3107 12.2816 25.1599 9.46407 19.3731 9.46407C12.6467 9.46407 9.2824 15.3678 9.2824 22.0751C9.2824 28.112 12.6467 34.5507 19.3731 34.5507C25.1576 34.5507 27.3107 31.8687 29.0608 28.9156H37.9402V30.2566C35.6536 38.4405 29.3302 43.94 19.509 43.94L19.5066 43.9447Z" fill="#010101"/>
</g>
<defs>
<clipPath id="clip0_1914_17054">
<rect width="164" height="107" fill="white"/>
</clipPath>
</defs>
</svg>
