<svg width="292" height="80" viewBox="0 0 292 80" fill="none" xmlns="http://www.w3.org/2000/svg">
<g clip-path="url(#clip0_1961_10780)">
<path d="M143.959 58.6378L141.176 51.2087C141.129 51.0828 141.005 50.9983 140.868 50.9983C140.8 50.9983 140.735 51.019 140.681 51.0573C140.627 51.0939 140.585 51.1465 140.561 51.2103L137.777 58.6394C137.699 58.8482 137.859 59.0713 138.085 59.0713H143.652C143.88 59.0713 144.038 58.8482 143.959 58.6394V58.6378ZM143.959 58.6378L141.176 51.2087C141.129 51.0828 141.005 50.9983 140.868 50.9983C140.8 50.9983 140.735 51.019 140.681 51.0573C140.627 51.0939 140.585 51.1465 140.561 51.2103L137.777 58.6394C137.699 58.8482 137.859 59.0713 138.085 59.0713H143.652C143.88 59.0713 144.038 58.8482 143.959 58.6394V58.6378ZM197.502 37.9922H94.4981C91.4608 37.9922 89 40.4021 89 43.3731V70.8183C89 73.7909 91.4624 76.1992 94.4981 76.1992H197.5C200.538 76.1992 202.998 73.7893 202.998 70.8183V43.3731C202.998 40.4005 200.536 37.9922 197.5 37.9922H197.502ZM122.861 70.9075H116.904V55.2508C116.904 55.0802 116.762 54.9432 116.59 54.9432C116.52 54.9432 116.454 54.9655 116.401 55.0037C116.347 55.0436 116.308 55.0978 116.288 55.1647L111.588 70.9075H106.914L102.214 55.1647C102.175 55.0324 102.051 54.9432 101.913 54.9432C101.827 54.9432 101.747 54.9766 101.69 55.0324C101.633 55.0882 101.599 55.1647 101.599 55.2508V70.9075H95.6413V43.3731H103.522L108.851 61.1418C108.896 61.2948 109.04 61.4 109.204 61.4C109.285 61.4 109.362 61.3745 109.424 61.3283C109.486 61.2821 109.533 61.2183 109.556 61.1418L114.886 43.3731H122.858V70.9075H122.861ZM148.612 70.9075L146.217 64.481C146.169 64.3551 146.046 64.2706 145.907 64.2706H135.919C135.782 64.2706 135.659 64.3551 135.611 64.481L133.216 70.9075H126.526L138.256 43.3731H143.479L155.301 70.9075H148.611H148.612ZM175.92 49.4714H167.994C167.816 49.4714 167.673 49.6116 167.673 49.7854V70.9075H160.8V49.7854C160.8 49.6116 160.657 49.4714 160.48 49.4714H152.553V43.3731H175.922V49.4714H175.92ZM196.355 49.4714H187.055C186.877 49.4714 186.734 49.6116 186.734 49.7854V54.0904C186.734 54.2642 186.877 54.4044 187.055 54.4044H195.44V59.6961H187.055C186.877 59.6961 186.734 59.8364 186.734 60.0101V64.4045C186.734 64.5782 186.877 64.7185 187.055 64.7185H196.355V70.8167H180.226V43.3715H196.355V49.4698V49.4714ZM140.868 50.9967C140.8 50.9967 140.735 51.0174 140.681 51.0557C140.627 51.0923 140.585 51.1449 140.561 51.2087L137.777 58.6378C137.699 58.8466 137.859 59.0697 138.085 59.0697H143.652C143.88 59.0697 144.038 58.8466 143.959 58.6378L141.176 51.2087C141.129 51.0828 141.005 50.9983 140.868 50.9983V50.9967ZM143.959 58.6378L141.176 51.2087C141.129 51.0828 141.005 50.9983 140.868 50.9983C140.8 50.9983 140.735 51.019 140.681 51.0573C140.627 51.0939 140.585 51.1465 140.561 51.2103L137.777 58.6394C137.699 58.8482 137.859 59.0713 138.085 59.0713H143.652C143.88 59.0713 144.038 58.8482 143.959 58.6394V58.6378ZM143.959 58.6378L141.176 51.2087C141.129 51.0828 141.005 50.9983 140.868 50.9983C140.8 50.9983 140.735 51.019 140.681 51.0573C140.627 51.0939 140.585 51.1465 140.561 51.2103L137.777 58.6394C137.699 58.8482 137.859 59.0713 138.085 59.0713H143.652C143.88 59.0713 144.038 58.8482 143.959 58.6394V58.6378Z" fill="#010101"/>
<path d="M143.652 59.0696H138.085C137.857 59.0696 137.699 58.8465 137.777 58.6377L140.561 51.2086C140.585 51.1464 140.627 51.0922 140.681 51.0556C140.735 51.0173 140.8 50.9966 140.868 50.9966C141.005 50.9966 141.129 51.0811 141.176 51.207L143.959 58.6361C144.038 58.8449 143.88 59.068 143.652 59.068V59.0696Z" fill="white"/>
<path d="M143.652 59.0696H138.085C137.857 59.0696 137.699 58.8465 137.777 58.6377L140.561 51.2086C140.585 51.1464 140.627 51.0922 140.681 51.0556C140.735 51.0173 140.8 50.9966 140.868 50.9966C141.005 50.9966 141.129 51.0811 141.176 51.207L143.959 58.6361C144.038 58.8449 143.88 59.068 143.652 59.068V59.0696Z" fill="#010101"/>
<path d="M163.629 3.30127C154.745 3.30127 149.041 9.61784 149.041 18.3109C149.041 27.004 154.745 33.3221 163.629 33.3221C172.513 33.3221 178.312 27.0055 178.312 18.3109C178.312 9.61625 172.515 3.30127 163.629 3.30127ZM163.629 27.098C158.766 27.098 155.586 23.711 155.586 18.22C155.586 12.7291 158.766 9.52539 163.629 9.52539C168.492 9.52539 171.671 12.7291 171.671 18.22C171.671 23.711 168.491 27.098 163.629 27.098Z" fill="#010101"/>
<path d="M203 32.5901H183.921C182.373 32.5901 181.115 31.3612 181.115 29.8438V3.7583H188.13V26.1827H202.998V32.5901H203Z" fill="#010101"/>
<path d="M131.926 3.30127C123.042 3.30127 117.524 9.61784 117.524 18.3109C117.524 27.004 123.042 33.3221 131.926 33.3221C140.81 33.3221 146.422 27.0055 146.422 18.3109C146.422 9.61625 140.811 3.30127 131.926 3.30127ZM131.926 27.098C127.063 27.098 124.071 23.711 124.071 18.22C124.071 12.7291 127.065 9.52539 131.926 9.52539C136.787 9.52539 139.782 12.7291 139.782 18.22C139.782 23.711 136.789 27.098 131.926 27.098Z" fill="#010101"/>
<path d="M102.559 33.2313C93.8629 33.2313 89 26.3664 89 18.1292C89 9.89199 93.8629 3.30127 102.467 3.30127C109.106 3.30127 113.782 7.23658 115.373 12.82V13.7348H109.201C107.984 11.6293 106.489 9.7071 102.467 9.7071C97.791 9.7071 95.4524 13.7348 95.4524 18.3109C95.4524 22.4295 97.791 26.8223 102.467 26.8223C106.488 26.8223 107.984 24.9925 109.201 22.9778H115.373V23.8927C113.784 29.4761 109.388 33.2281 102.561 33.2281L102.559 33.2313Z" fill="#010101"/>
</g>
<defs>
<clipPath id="clip0_1961_10780">
<rect width="114" height="73" fill="white" transform="translate(89 3.25)"/>
</clipPath>
</defs>
</svg>
