<svg width="360" height="240" viewBox="0 0 360 240" fill="none" xmlns="http://www.w3.org/2000/svg">
<path d="M63.4376 105.931C63.2375 104.318 62.4376 95.7897 66.3756 86.4506C69.844 78.2199 77.7677 67.7158 95.7916 64.4183C114.092 61.0704 125.594 64.6631 134.497 73.1488C140.56 78.9275 145.947 86.1697 146.809 96.1711L126.313 97.9331C119.403 84.5778 109.212 84.8967 100.215 86.542C94.8455 87.5254 89.718 92.9057 87.2346 98.7964C86.281 101.057 86.2742 103.239 86.276 103.256L63.4407 105.935L63.4376 105.931Z" fill="white" stroke="#300375" stroke-width="1.76573" stroke-miterlimit="10" stroke-linecap="round"/>
<path d="M94.3225 80.2257L100.695 79.6565C106.042 79.1808 111.289 77.9469 116.29 75.9945L121.041 74.1373C122.619 73.7777 123.606 72.2109 123.247 70.6352L119.729 55.1964C119.235 53.0299 117.078 51.6757 114.909 52.1701L90.3355 57.7696C88.1658 58.264 86.8086 60.4189 87.3023 62.5855L90.8204 78.0242C91.1794 79.5999 92.7476 80.5845 94.3256 80.225L94.3225 80.2257Z" fill="#FFF742"/>
<path d="M94.3636 80.4719C98.9374 79.9237 94.8583 82.3401 99.4209 81.5746C102.863 81.0453 114.962 77.63 118.252 76.4628C119.339 76.0908 120.424 75.7128 121.508 75.3257L121.326 75.383C123.251 75.0208 124.748 73.1689 124.721 71.202C124.723 70.8062 124.648 70.3899 124.57 70.0061C123.649 65.3229 122.65 60.1828 121.697 55.5359L121.575 54.9324L121.541 54.7809C121.019 52.1425 118.55 50.1041 115.854 50.081C115.305 50.0531 114.708 50.1509 114.171 50.2605C112.659 50.5859 103.796 52.2295 102.074 52.5612C98.043 53.3332 94.0408 54.2324 90.0704 55.271C86.8476 55.9066 84.5093 59.1073 85.0832 62.3681C85.1523 62.8114 85.3316 63.3602 85.4742 63.7899C87.0997 68.6821 89 73.5053 90.484 78.4489C91.056 79.9506 92.8114 80.9021 94.3643 80.4749L94.3636 80.4719ZM94.2865 79.9794C92.9031 80.2819 91.4426 79.3078 91.264 77.9078C90.9889 76.1822 90.7577 74.4531 90.5615 72.7096C90.1644 69.2301 89.8645 65.7284 89.3878 62.2638C89.3414 61.962 89.3893 61.6259 89.4919 61.3476C89.7291 60.7357 90.2481 60.2955 90.8842 60.2015L91.1776 60.1442C95.2061 59.3602 99.2028 58.4367 103.17 57.386C105.254 56.8347 113.568 54.5767 115.515 54.1109C116.604 53.8626 117.74 54.6717 117.949 55.7587L118.101 56.3553C119.308 61.1069 120.653 66.3371 121.899 71.1023C122.061 71.9675 121.435 72.7795 120.578 72.9556C116.387 74.7361 112.285 76.7643 107.871 77.9868C103.462 79.3135 98.8629 79.6665 94.2849 79.9862L94.2865 79.9794Z" fill="#E0349E"/>
<path d="M58.4164 39.7101C58.4831 39.8468 64.7379 52.634 78.0853 56.2503C80.4397 56.8884 83.0425 57.3704 85.8215 57.6933C91.1789 58.3139 95.2289 62.8431 95.2837 68.227C95.3472 74.6463 89.782 79.7225 83.3957 78.9872C79.5231 78.5403 75.8446 77.8533 72.4724 76.94C49.2906 70.6612 39.006 48.8716 38.5813 47.946L58.0769 38.9814L58.4164 39.7101Z" fill="white" stroke="#300375" stroke-width="1.76573" stroke-miterlimit="10" stroke-linecap="round"/>
<path d="M95.2834 68.2278C95.3468 74.6471 89.7817 79.7233 83.3954 78.988C79.5228 78.5411 75.8442 77.8541 72.4721 76.9408C49.2902 70.6619 39.0057 48.8724 38.5809 47.9468" stroke="#E0349E" stroke-width="1.76573" stroke-miterlimit="10" stroke-linecap="square"/>
<path d="M55.0062 7.64795L69.9521 33.2217L28.2401 57.5242L13.2941 31.9504L55.0062 7.64795Z" fill="#FFF742" stroke="#300375" stroke-width="1.76573" stroke-miterlimit="10" stroke-linecap="round"/>
<path d="M123.007 23.0157L145.598 14.4545C146.047 15.6367 148.239 22.0065 147.234 31.3011C146.354 39.449 142.718 51.854 130.407 64.679C129.227 65.9081 127.984 67.1211 126.683 68.322C121.331 73.2493 112.84 72.2768 108.658 66.3264C105.174 61.3678 105.929 54.6178 110.38 50.5086C111.286 49.6703 112.148 48.828 112.962 47.9779C118.981 41.7093 122.523 35.0457 123.209 28.7087C123.569 25.3734 123.012 23.0368 123.006 23.0225L123.007 23.0157Z" fill="white" stroke="#300375" stroke-width="1.76573" stroke-miterlimit="10" stroke-linecap="round"/>
<path d="M145.598 14.4545C146.047 15.6367 148.239 22.0065 147.234 31.3012C146.354 39.449 142.718 51.854 130.407 64.679C129.227 65.9081 127.984 67.1211 126.683 68.322C121.331 73.2493 112.84 72.2768 108.658 66.3264" stroke="#E0349E" stroke-width="1.76573" stroke-miterlimit="10" stroke-linecap="square"/>
<path d="M82.0888 56.8489L70.3053 77.2581C76.4013 79.3588 86.5815 84.5315 96.1565 83.7543C100.369 78.3547 100.72 55.1718 100.72 55.1718C89.9062 59.1872 82.0888 56.8489 82.0888 56.8489Z" fill="#E0349E" stroke="#300375" stroke-width="1.76573" stroke-miterlimit="10" stroke-linecap="round"/>
<path d="M137.224 59.4129C134.544 55.7514 114.544 45.3557 114.544 45.3557C114.544 45.3557 111.524 51.4039 100.71 55.4193C100.71 55.4193 110.841 72.2888 120.004 76.0192C129.244 74.385 137.224 59.4129 137.224 59.4129Z" fill="#E0349E" stroke="#300375" stroke-width="1.76573" stroke-miterlimit="10" stroke-linecap="round"/>
<path d="M74.2801 35.2723C72.9364 31.6841 72.523 27.7954 73.2211 24.0273C73.8691 20.529 75.5045 16.681 79.3129 14.2401C87.7743 8.81591 97.5175 9.25073 101.973 11.3194C106.031 13.204 111.184 16.1433 113.167 24.4842C114.742 31.1015 115.664 37.6208 115.54 40.8557C115.416 44.0906 114.413 51.1641 109.447 55.294C104.482 59.4239 98.1226 59.4793 97.1712 59.5225C96.2198 59.5657 87.8218 59.4587 83.1634 53.6099C79.8297 49.4245 76.1202 40.1851 74.2801 35.2723Z" fill="white" stroke="#300375" stroke-width="2.60362" stroke-miterlimit="10" stroke-linecap="round"/>
<path d="M80.7112 30.7469C83.157 30.5234 85.6947 30.5432 88.1175 30.8317C90.3242 31.1779 92.9092 31.8959 94.2625 33.7316C96.0185 36.1646 96.7906 39.1978 97.7788 42.0294C97.9574 42.6103 98.4264 44.1414 98.6036 44.7099C98.9767 45.8168 99.2973 47.0169 100.082 47.9888C101.644 49.88 104.214 48.8929 104.923 46.7595C105.198 45.7389 105.035 44.6124 104.943 43.5876C104.489 39.9012 103.13 36.3594 103.165 32.6545C103.191 30.0853 104.116 28.2412 106.597 27.1855C108.036 26.5393 109.649 26.1994 111.182 25.8995C108.061 25.9926 104.046 26.4638 102.582 29.6885C100.498 34.8337 103.333 40.3574 103.251 45.5366C103.233 45.751 103.258 45.9797 103.186 46.1843C103.032 46.6105 102.555 47.1809 102.073 47.1517C101.146 46.9767 100.668 44.984 100.346 44.1466C100.022 43.15 99.5317 41.565 99.1871 40.5769C98.0981 37.7687 97.1793 34.7388 95.0637 32.4541C93.2858 30.658 90.6298 30.0946 88.2018 29.9317C85.6649 29.8899 83.1579 30.1263 80.7122 30.7561L80.7112 30.7469Z" fill="#E0349E"/>
<mask id="mask0_1789_4122" style="mask-type:luminance" maskUnits="userSpaceOnUse" x="72" y="9" width="44" height="51">
<path d="M74.2801 35.2723C72.9364 31.6841 72.523 27.7954 73.2211 24.0273C73.8691 20.529 75.5045 16.681 79.3129 14.2401C87.7743 8.81591 97.5175 9.25073 101.973 11.3194C106.031 13.204 111.184 16.1433 113.167 24.4842C114.742 31.1015 115.664 37.6208 115.54 40.8557C115.416 44.0906 114.413 51.1641 109.447 55.294C104.482 59.4239 98.1226 59.4793 97.1712 59.5225C96.2198 59.5657 87.8218 59.4587 83.1634 53.6099C79.8297 49.4245 76.1202 40.1851 74.2801 35.2723Z" fill="white"/>
</mask>
<g mask="url(#mask0_1789_4122)">
<path d="M95.2812 26.6472C89.0069 26.9321 83.69 22.084 83.4054 15.8187C83.1209 9.55334 87.9765 4.24328 94.2508 3.95833C100.525 3.67338 105.842 8.52145 106.127 14.7868C106.411 21.0521 101.555 26.3622 95.2812 26.6472Z" fill="#300375"/>
<path d="M71.5185 39.9926C64.772 40.299 59.0723 35.4683 58.7877 29.203C58.5032 22.9376 63.7416 17.6102 70.4881 17.3038C77.2345 16.9974 82.9343 21.8281 83.2188 28.0934C83.5034 34.3588 78.265 39.6862 71.5185 39.9926Z" fill="#300375"/>
</g>
<path d="M93.3278 40.0781C92.3707 38.1429 90.2986 37.0393 88.267 36.5529C87.2313 36.3168 86.1649 36.2968 85.1074 36.3355C84.4606 36.3618 83.9687 36.9877 84.0158 37.614C84.1546 38.8863 85.4234 38.698 86.3564 38.7303C87.0731 38.732 87.7836 38.8055 88.4772 38.9856C89.5482 39.2449 90.5393 39.7319 91.5323 40.1939C91.9937 40.4063 92.4691 40.5838 92.9584 40.7264C93.3869 40.8314 93.5485 40.4103 93.3281 40.0843L93.3278 40.0781Z" fill="#E0349E"/>
<path d="M111.461 31.5631C110.127 29.8909 107.765 33.1061 107.041 34.1812C106.416 35.314 105.964 36.6847 106.285 37.9768C106.727 38.7282 107.244 37.5537 107.515 37.2209C108.113 36.3133 108.7 35.3938 109.498 34.6482C110.025 34.0425 110.701 33.6136 111.326 33.1248C111.758 32.7381 111.806 32.0235 111.461 31.5631Z" fill="#E0349E"/>
<path d="M79.2582 36.7729C79.2582 36.7729 76.8873 32.2451 71.791 33.6992C67.1714 35.0165 68.4169 41.039 69.7297 43.5335C71.0424 46.0281 73.9944 47.2287 77.1793 46.0138C78.8238 45.3854 79.4968 44.4961 79.4968 44.4961" fill="white"/>
<path d="M79.2582 36.7729C79.2582 36.7729 76.8873 32.2451 71.791 33.6992C67.1714 35.0165 68.4169 41.039 69.7297 43.5335C71.0424 46.0281 73.9944 47.2287 77.1793 46.0138C78.8238 45.3854 79.4968 44.4961 79.4968 44.4961" stroke="#300375" stroke-width="1.76573" stroke-miterlimit="10" stroke-linecap="round"/>
<path d="M243.541 116.096L223.004 115.819C223.021 114.655 223.257 104.207 226.787 95.7645C229.474 89.3422 234.397 84.3201 240.097 83.0568C245.797 81.7936 250.987 83.875 251.925 89.3353V89.3559C252.852 94.5903 248.778 98.267 246.423 103.032C244.068 107.798 243.578 113.693 243.544 116.096H243.541Z" fill="white" stroke="#300375" stroke-width="1.95902" stroke-miterlimit="10" stroke-linecap="round"/>
<path d="M223 115.819C223.017 114.655 223.253 104.207 226.783 95.7645C229.47 89.3422 234.393 84.3201 240.093 83.0568C245.793 81.7936 250.983 83.875 251.921 89.3353V89.3559" stroke="#E0349E" stroke-width="1.95902" stroke-miterlimit="10" stroke-linecap="square"/>
<path d="M260.421 132.486C260.407 131.25 260.472 129.915 260.541 128.501C260.835 122.384 260.805 118.022 257.7 117.731C256.108 117.889 254.297 118.382 252.766 121.757C251.897 123.681 251.9 128.543 252.171 132.12C252.178 132.212 252.178 132.264 252.178 132.267L252.154 133.322L235.814 133.209L235.838 132.123C235.838 132.048 235.831 131.832 235.817 131.504C235.489 122.562 235.916 116.609 237.087 113.805C239.319 108.457 241.414 105.178 244.095 102.843C247.138 100.193 251.003 98.7761 256.262 98.3892C256.71 98.355 257.179 98.3379 257.662 98.3379C264.878 98.3379 274.033 101.847 278.213 109.686C281.321 115.513 281.763 127.454 281.811 132.319L281.821 133.39L260.435 133.554L260.425 132.486H260.421Z" fill="white"/>
<path d="M257.662 99.4067C263.68 99.4067 272.975 102.139 277.268 110.187C280.263 115.808 280.694 127.54 280.739 132.326L261.492 132.473C261.431 126.458 263.293 117.041 257.693 116.654C255.611 116.846 253.471 117.606 251.794 121.313C250.445 124.288 251.109 132.21 251.109 132.241L236.909 132.141C236.923 131.518 236.183 118.749 238.076 114.213C241.938 104.956 246.056 100.211 256.344 99.4547C256.761 99.4238 257.203 99.4067 257.665 99.4067M257.662 97.2671C257.155 97.2671 256.659 97.2842 256.183 97.3184C244.639 98.1709 240.076 103.854 236.098 113.388C234.852 116.377 234.407 122.316 234.745 131.542C234.756 131.826 234.763 132.025 234.766 132.117L234.721 134.271L236.892 134.284L251.092 134.384L253.201 134.397L253.246 132.288C253.246 132.182 253.246 132.11 253.235 132.039C252.965 128.434 253.006 123.816 253.738 122.196C255.005 119.399 256.34 118.951 257.706 118.804C258.233 118.858 258.928 119.102 259.325 121.077C259.726 123.062 259.593 125.801 259.466 128.444C259.397 129.875 259.332 131.224 259.346 132.494L259.367 134.63L261.503 134.613L280.749 134.466L282.892 134.449L282.872 132.306C282.813 126.167 282.252 115 279.147 109.181C277.011 105.172 273.505 101.94 269.01 99.8381C265.512 98.2017 261.373 97.2637 257.655 97.2637L257.662 97.2671Z" fill="#300375"/>
<path d="M273.947 113.775L267.282 114.723C261.691 115.521 256.019 115.48 250.439 114.607L245.136 113.775C243.434 113.775 242.058 112.334 242.058 110.554V93.1115C242.058 90.6638 243.955 88.6816 246.293 88.6816H272.793C275.132 88.6816 277.028 90.6638 277.028 93.1115V110.554C277.028 112.334 275.649 113.775 273.951 113.775H273.947Z" fill="#FFF742"/>
<path d="M273.965 114.043C269.148 114.577 264.4 115.597 259.538 115.871C255.886 116.134 252.175 115.987 248.525 115.539C247.324 115.408 246.122 115.261 244.92 115.114L245.129 115.131C243.161 115.193 241.34 113.786 240.771 111.93C240.59 111.376 240.538 110.773 240.532 110.198C240.378 105.049 240.193 99.4007 240.08 94.2827C240.08 94.0876 240.052 93.4816 240.056 93.2865C239.967 91.2188 240.881 89.1236 242.534 87.8501C243.582 87.0182 244.924 86.5424 246.266 86.5082L248.926 86.4328L259.535 86.0289C263.071 85.9091 266.608 85.8577 270.147 85.9262C271.743 85.9981 273.43 85.8235 274.961 86.3986C276.96 87.1244 278.535 88.8532 279.093 90.8867C279.35 91.7836 279.408 92.7079 279.298 93.622C278.805 99.2603 277.877 104.882 277.518 110.534C277.453 112.392 275.861 114.118 273.961 114.049L273.965 114.043ZM273.927 113.509C275.474 113.488 276.686 112.033 276.529 110.527C276.402 108.647 276.231 106.768 276.019 104.888C275.577 100.965 275.033 97.0454 274.704 93.1153C274.581 92.3245 274.012 91.5782 273.249 91.407C272.229 91.3283 271.188 91.4515 270.151 91.4378C266.615 91.5063 263.078 91.455 259.538 91.3351L248.929 90.9312L246.283 90.8559C245.855 90.8388 245.441 90.9483 245.081 91.2016C244.407 91.6501 244.041 92.4751 244.051 93.2831C244.041 93.4748 244.037 94.0739 244.027 94.2793C243.9 99.5753 243.729 105.405 243.565 110.725C243.578 111.578 244.273 112.382 245.136 112.42C249.929 113.252 254.639 114.512 259.535 114.71C264.369 115.035 269.165 114.282 273.927 113.509Z" fill="#E0349E"/>
<path d="M290.479 105.001C287.777 105.001 277.37 104.85 276.525 104.802C272.509 104.802 269.253 101.547 269.253 97.5308V91.533C269.253 87.5174 272.509 84.2617 276.525 84.2617H277.185L277.531 84.2857C278.538 84.3508 290.29 84.4397 291.334 84.4603C296.538 84.5596 298.393 80.3865 298.458 75.1829C298.5 71.7526 298.479 68.0793 298.397 64.7518L318.93 64.2383C319.054 69.2125 319.327 85.9666 317.629 92.673C314.874 103.546 301.074 104.494 296.541 104.806C294.409 104.953 292.31 105.001 290.479 105.001Z" fill="white" stroke="#300375" stroke-width="1.95902" stroke-miterlimit="10" stroke-linecap="round"/>
<path d="M318.934 64.2383C319.057 69.2125 319.331 85.9666 317.633 92.673C314.877 103.546 301.077 104.494 296.545 104.806C294.412 104.953 292.313 105.001 290.482 105.001C287.781 105.001 277.374 104.85 276.528 104.802C272.513 104.802 269.257 101.546 269.257 97.5309" stroke="#E0349E" stroke-width="1.95902" stroke-miterlimit="10" stroke-linecap="square"/>
<path d="M241.219 86.6133C241.219 86.6133 237.187 104.586 236.906 115.363L250.014 116.496C250.014 116.496 250.394 110.368 250.747 103.121C251.055 96.7226 250.877 88.907 250.877 88.907L241.219 86.6167V86.6133Z" fill="#E0349E" stroke="#300375" stroke-width="1.66725" stroke-miterlimit="10" stroke-linecap="round"/>
<path d="M276.966 82.8037C276.966 82.8037 280.653 107.675 280.739 116.671L264.998 117.031C264.998 117.031 264.793 109.147 264.447 102.327C264.132 96.1447 264.098 90.0819 264.098 90.0819C271.366 91.4375 276.966 82.8037 276.966 82.8037Z" fill="#E0349E" stroke="#300375" stroke-width="1.56444" stroke-miterlimit="10" stroke-linecap="round"/>
<path d="M280.903 65.5093C281.735 61.3738 281.506 57.0706 280.092 53.0926C278.777 49.4022 276.33 45.4995 271.766 43.5105C261.629 39.0875 251.123 41.2579 246.649 44.2876C242.571 47.0469 237.488 51.1413 236.789 60.5591C236.235 68.0323 236.372 75.2831 237.07 78.7818C237.768 82.2771 240.093 89.7983 246.207 93.4237C252.321 97.0491 259.236 95.9981 260.277 95.8817C261.318 95.7653 270.417 94.1803 274.457 87.0082C277.35 81.8731 279.763 71.1784 280.903 65.5127V65.5093Z" fill="white" stroke="#300375" stroke-width="1.66725" stroke-miterlimit="10" stroke-linecap="round"/>
<mask id="mask1_1789_4122" style="mask-type:luminance" maskUnits="userSpaceOnUse" x="236" y="41" width="46" height="56">
<path d="M280.903 65.5093C281.735 61.3738 281.506 57.0706 280.092 53.0926C278.777 49.4022 276.33 45.4995 271.766 43.5105C261.629 39.0875 251.123 41.2579 246.649 44.2876C242.571 47.0469 237.488 51.1413 236.789 60.5591C236.235 68.0323 236.372 75.2831 237.07 78.7818C237.768 82.2771 240.093 89.7983 246.207 93.4237C252.321 97.0491 259.236 95.9981 260.277 95.8817C261.318 95.7653 270.417 94.1803 274.457 87.0082C277.35 81.8731 279.763 71.1784 280.903 65.5127V65.5093Z" fill="white"/>
</mask>
<g mask="url(#mask1_1789_4122)">
<path d="M255.169 59.8707C262.078 59.8707 267.678 54.2702 267.678 47.3616C267.678 40.4531 262.078 34.8525 255.169 34.8525C248.261 34.8525 242.66 40.4531 242.66 47.3616C242.66 54.2702 248.261 59.8707 255.169 59.8707Z" fill="#300375"/>
<path d="M284.725 70.1689C292.105 69.3254 297.452 63.0773 296.668 56.2134C295.884 49.3495 289.265 44.469 281.884 45.3125C274.504 46.156 269.156 52.4041 269.941 59.268C270.725 66.1319 277.344 71.0124 284.725 70.1689Z" fill="#300375"/>
</g>
<path d="M272.403 60.7099C269.726 61.0625 267.008 61.6959 264.474 62.5894C262.191 63.4966 259.589 64.8899 258.583 67.1939C257.289 70.2338 257.193 73.6812 256.816 76.9608C256.765 77.6284 256.635 79.388 256.58 80.0385C256.446 81.3188 256.392 82.6848 255.786 83.9172C254.567 86.3272 251.568 85.8856 250.295 83.7631C249.754 82.7327 249.654 81.4831 249.507 80.3603C249.103 76.2898 249.706 72.1544 248.775 68.1832C248.124 65.4274 246.69 63.6678 243.77 63.1337C242.072 62.7845 240.257 62.8119 238.539 62.8598C241.907 62.206 246.33 61.7404 248.682 64.8523C252.16 69.8778 250.455 76.4987 251.794 82.0446C251.862 82.2705 251.893 82.5204 252.02 82.7258C252.29 83.1469 252.937 83.6433 253.447 83.4961C254.399 83.0819 254.43 80.8293 254.574 79.8502C254.68 78.6999 254.824 76.8787 254.957 75.7318C255.447 72.4522 255.7 68.9706 257.419 66.0059C258.894 63.6438 261.605 62.3977 264.173 61.6343C266.884 60.977 269.633 60.6243 272.41 60.7099H272.403Z" fill="#E0349E"/>
<path d="M261.513 74.0853C262.214 71.8122 264.272 70.2511 266.394 69.3679C267.476 68.9297 268.633 68.7208 269.787 68.5805C270.496 68.4949 271.139 69.0906 271.194 69.7787C271.266 71.1857 269.856 71.2062 268.849 71.4014C268.072 71.528 267.312 71.7334 266.59 72.0484C265.474 72.5174 264.481 73.2192 263.481 73.8936C263.016 74.2051 262.533 74.4824 262.026 74.7221C261.578 74.9104 261.331 74.4824 261.513 74.0887V74.0853Z" fill="#E0349E"/>
<path d="M240.079 68.9559C241.236 66.9053 244.362 69.9897 245.337 71.0339C246.21 72.1568 246.943 73.5706 246.823 75.029C246.474 75.9225 245.707 74.7346 245.355 74.4231C244.547 73.5432 243.749 72.6429 242.749 71.9685C242.072 71.4036 241.264 71.0544 240.5 70.6299C239.963 70.2842 239.788 69.5139 240.083 68.9559H240.079Z" fill="#E0349E"/>
<path d="M275.758 68.0082C275.758 68.0082 277.541 62.6711 283.33 63.3626C288.578 63.9891 288.277 70.7537 287.288 73.6979C286.298 76.642 283.3 78.4598 279.63 77.6964C277.733 77.2993 276.85 76.4503 276.85 76.4503" fill="white"/>
<path d="M275.758 68.0082C275.758 68.0082 277.541 62.6711 283.33 63.3626C288.578 63.9891 288.277 70.7537 287.288 73.6979C286.298 76.642 283.3 78.4598 279.63 77.6964C277.733 77.2993 276.85 76.4503 276.85 76.4503" stroke="#300375" stroke-width="1.66725" stroke-miterlimit="10" stroke-linecap="round"/>
<path d="M286.517 68.1649L301.693 62.708L332.918 63.6358L325.445 69.2056L286.517 68.1649Z" fill="#E0349E" stroke="#300375" stroke-width="1.73672" stroke-linecap="round" stroke-linejoin="round"/>
<path d="M325.445 69.2056L325.695 74.1182L333.045 67.9355L332.918 63.6357L325.445 69.2056Z" fill="#E0349E" stroke="#300375" stroke-width="1.73672" stroke-linecap="round" stroke-linejoin="round"/>
<path d="M286.517 68.165L286.75 72.7182L325.695 74.1183L325.445 69.2057L286.517 68.165Z" fill="#E0349E" stroke="#300375" stroke-width="1.73672" stroke-linecap="round" stroke-linejoin="round"/>
<path d="M306.408 63.3408L296.952 68.0754L319.232 68.8457L325.366 63.8338L306.408 63.3408Z" fill="#FFF742"/>
<path d="M333.288 63.8451L336.321 63.9409L344 42.8493L341.364 41.7881L333.288 63.8451Z" fill="#E0349E" stroke="#300375" stroke-width="1.73672" stroke-linecap="round" stroke-linejoin="round"/>
<path d="M307.466 63.2422L296.199 68.4218" stroke="#300375" stroke-width="0.555751" stroke-linecap="round" stroke-linejoin="round"/>
<path d="M313.909 62.9629L304.155 68.632" stroke="#300375" stroke-width="0.555751" stroke-linecap="round" stroke-linejoin="round"/>
<path d="M325.196 64.2559L318.068 69.3567" stroke="#300375" stroke-width="0.555751" stroke-linecap="round" stroke-linejoin="round"/>
<path d="M318.602 63.7119L310.882 69.1894" stroke="#300375" stroke-width="0.555751" stroke-linecap="round" stroke-linejoin="round"/>
<path d="M304.292 64.6865L323.994 65.0186" stroke="#300375" stroke-width="0.555751" stroke-linecap="round" stroke-linejoin="round"/>
<path d="M301.947 65.7891L322.323 66.1862" stroke="#300375" stroke-width="0.555751" stroke-linecap="round" stroke-linejoin="round"/>
<path d="M286.518 68.1649L301.693 62.708L332.918 63.6358L325.445 69.2056L286.518 68.1649Z" stroke="#300375" stroke-width="1.73672" stroke-linecap="round" stroke-linejoin="round"/>
<path d="M301.694 62.7081L307.219 41.3906L341.364 41.7877L332.919 63.6359L301.694 62.7081Z" fill="#E0349E" stroke="#300375" stroke-width="1.73672" stroke-linecap="round" stroke-linejoin="round"/>
<path d="M305.747 59.6707L309.831 44.4365L336.099 45.039L330.793 60.4101L305.747 59.6707Z" fill="#FFF742"/>
<g clip-path="url(#clip0_1789_4122)">
<path d="M-68.8526 176.682C-71.0732 162.562 -64.7344 157.145 -51.2081 154.281C-20.8718 150.678 3.79098 155.032 31.2993 164.995C88.2992 185.64 112.205 202.531 192.666 183.152C235.502 172.834 265.45 170.856 305.387 188.007C360.959 211.874 382.31 200.191 406.341 187.042C419.775 179.691 434.047 171.882 455.605 169.571C469.414 168.09 486.429 172.254 504.068 176.57C521.873 180.927 540.314 185.439 556.738 184.46C586.205 182.704 590.374 182.039 610.419 169.571C615.325 166.518 623.064 168.45 629.23 164.858C658.591 150.802 712.704 178.314 719.157 198.736C722.363 208.882 732.527 187.879 754.229 184.009C801.852 175.516 826.664 210.229 821.872 258.389C820.668 270.493 826.875 285.9 823.934 294.323C820.496 304.169 826.636 312.955 835.912 321.906C819.835 353.437 823.317 377.063 836.488 406.049C862.955 464.293 873.387 514.035 832.781 560.322C810.818 588.509 806.549 629.664 823.934 661.448C839.725 690.318 860.75 700.814 833.002 747.135C830.398 751.481 828.769 755.407 827.911 759.081C806.001 758.108 785.248 759.515 777.114 769.68C759.299 791.942 768.016 813.834 803.288 819.885C817.922 822.396 832.64 824.921 842.039 830.694C842.039 830.694 845.839 823.234 846.728 820.354C846.599 811.234 842.101 802.586 837.534 793.804L837.532 793.801C837.012 792.801 836.498 791.821 835.993 790.86C829.959 779.372 825.261 770.428 827.911 759.081C865.82 760.765 907.195 769.573 892.67 752.471C877.359 734.443 887.304 687.877 884.044 671.001C853.237 629.133 890.365 605.04 914.243 584.156C972.171 533.491 889.358 428.005 878.293 371.959C874.227 351.362 850.949 336.418 835.912 321.906C838.835 316.173 842.406 310.178 846.682 303.841C876.497 259.667 864.73 236.806 855.143 218.18L854.989 217.882C857.681 198.787 848.954 176.759 818.307 173.353C818.103 173.215 817.9 173.079 817.697 172.946C809.69 80.2835 756.005 141.485 711.733 119.134C697.251 112.457 673.3 112.861 651.952 122.395C636.602 129.25 627.129 133.266 610.419 143.539C590.177 155.983 565.367 158.073 535.711 150.31C500.047 140.974 466.477 125.003 429.836 142.135C396.358 157.787 371.159 174.556 339.408 157.915C316.881 146.107 301.331 138.192 278.048 134.923C244.702 130.242 217.558 133.271 192.079 141.575C185.787 143.626 179.653 145.883 173.547 148.129L173.544 148.13L173.532 148.134C144.261 158.905 115.647 169.433 73.4755 155.849C28.4416 142.653 14.9578 88.8851 -64.7803 122.839C-107.314 106.518 -161.046 110.298 -155.487 161.588C-184.991 169.256 -203.757 210.011 -179.193 280.371C-167.841 312.892 -177.754 346.105 -197.815 373.7C-224.012 408.726 -213.008 436.824 -204.231 446.495C-207.4 417.316 -172.149 404.267 -158.795 389.27L-158.794 389.27C-142.878 371.394 -127.705 354.354 -143.033 316.12C-160.039 273.702 -150.706 198.772 -116.11 211.191C-91.8139 219.914 -64.2054 206.229 -68.8526 176.682Z" fill="#1A003E"/>
<path d="M-25.274 166.89C-27.4946 152.77 -21.1558 147.353 -7.62945 144.489C22.7068 140.886 47.3696 145.24 74.878 155.203C131.878 175.848 155.784 192.739 236.244 173.36C279.08 163.043 309.029 161.064 348.965 178.215C404.537 202.082 425.889 190.399 449.919 177.25C463.354 169.899 477.626 162.09 499.183 159.779C512.993 158.298 530.007 162.462 547.646 166.778C565.451 171.135 583.893 175.647 600.317 174.668C629.783 172.912 633.952 172.247 653.997 159.779C658.904 156.726 666.643 158.658 672.808 155.066C702.17 141.01 743.988 160.386 750.44 180.809C753.646 190.955 776.106 178.087 797.807 174.217C845.43 165.724 870.242 200.437 865.451 248.597C864.246 260.701 870.453 276.108 867.512 284.531C864.074 294.377 870.215 303.163 879.49 312.115C863.413 343.645 866.895 367.271 880.067 396.257C906.534 454.501 916.966 504.243 876.36 550.53C854.396 578.717 850.127 619.872 867.512 651.656C883.303 680.526 904.328 691.022 876.58 737.343C873.977 741.689 872.348 745.615 871.49 749.29C849.58 748.317 828.827 749.723 820.693 759.888C802.877 782.15 811.594 804.042 846.866 810.093L846.867 810.093C861.502 812.604 876.219 815.129 885.618 820.902C885.618 820.902 889.418 813.442 890.307 810.562C890.178 801.443 885.68 792.794 881.113 784.013L881.111 784.009C880.591 783.009 880.077 782.03 879.571 781.068C873.538 769.581 868.84 760.636 871.49 749.29C909.399 750.973 950.773 759.781 936.249 742.679C920.937 724.651 930.883 678.085 927.623 661.209C896.816 619.341 933.944 595.248 957.822 574.364C1015.75 523.699 932.936 418.213 921.872 362.167C917.806 341.57 894.528 326.626 879.49 312.115C882.414 306.381 885.984 300.386 890.261 294.049C920.075 249.875 908.308 227.014 898.721 208.388L898.568 208.09C901.259 188.995 892.533 166.967 861.885 163.561C861.682 163.423 861.479 163.287 861.276 163.154C853.269 70.4915 799.584 131.693 755.311 109.342C740.829 102.665 716.879 103.069 695.531 112.603C680.181 119.458 670.707 123.474 653.997 133.747C633.756 146.191 608.946 148.281 579.289 140.518C543.625 131.182 510.056 115.211 473.414 132.343C439.937 147.995 414.738 164.764 382.987 148.123C360.46 136.315 344.91 128.4 321.627 125.131C288.28 120.45 261.137 123.479 235.657 131.783C229.365 133.834 223.231 136.091 217.125 138.338L217.123 138.338L217.111 138.342C187.839 149.113 159.226 159.641 117.054 146.057C72.0203 132.861 58.5364 79.0931 -21.2017 113.047C-63.7351 96.7264 -117.467 100.506 -111.909 151.796C-141.413 159.464 -160.178 200.219 -135.614 270.579C-124.262 303.1 -134.175 336.313 -154.236 363.908C-180.433 398.934 -169.429 427.032 -160.653 436.703C-163.822 407.524 -128.57 394.475 -115.216 379.478L-115.216 379.478C-99.2991 361.602 -84.126 344.562 -99.4543 306.328C-116.461 263.91 -107.127 188.98 -72.5315 201.399C-48.2352 210.122 -20.6268 196.437 -25.274 166.89Z" fill="#27005C"/>
<path d="M-78.338 177.507C-78.338 177.507 -85.6579 146.559 -48.3208 131.868C-48.3208 131.868 -56.1221 108.851 -36.8236 95.7139C-16.5916 81.9415 12.6453 83.0692 51.0309 98.3256C51.0309 98.3256 27.0416 94.1722 15.027 105.465C-3.59884 122.971 -12.8724 147.141 -31.6807 150.034C-31.6807 150.034 -61.9976 183.987 -78.338 177.507Z" fill="#6027AE"/>
<path d="M80.4686 154.994C78.248 140.874 84.5869 135.456 98.1132 132.593C128.449 128.989 153.112 133.344 180.621 143.307C237.62 163.951 261.526 180.842 341.987 161.463C384.823 151.146 414.771 149.167 454.708 166.319C510.28 190.185 531.632 178.502 555.662 165.354C569.097 158.002 583.369 150.193 604.926 147.882C618.736 146.402 635.75 150.565 653.389 154.881C671.194 159.238 689.635 163.751 706.059 162.772C735.526 161.016 739.695 160.35 759.74 147.882C764.647 144.83 772.385 146.762 778.551 143.169C807.913 129.113 849.73 148.49 856.183 168.912C859.389 179.058 881.849 166.19 903.55 162.32C951.173 153.827 975.985 188.54 971.193 236.701C969.989 248.805 976.196 264.211 973.255 272.634C969.817 282.481 975.957 291.267 985.233 300.218C969.156 331.748 972.638 355.375 985.809 384.36C1012.28 442.605 1022.71 492.347 982.102 538.633C960.139 566.821 955.87 607.975 973.255 639.76C989.046 668.63 1010.07 679.126 982.323 725.446C979.719 729.792 978.091 733.719 977.233 737.393C955.322 736.42 934.57 737.827 926.436 747.991C908.62 770.254 917.337 792.145 952.609 798.196C967.244 800.707 981.962 803.232 991.361 809.005C991.361 809.005 995.16 801.545 996.049 798.665C995.921 789.546 991.423 780.898 986.855 772.116L986.853 772.112C986.334 771.112 985.819 770.133 985.314 769.172C979.28 757.684 974.583 748.739 977.233 737.393C1015.14 739.076 1056.52 747.884 1041.99 730.783C1026.68 712.755 1036.63 666.188 1033.37 649.313C1002.56 607.444 1039.69 583.352 1063.56 562.467C1121.49 511.803 1038.68 406.317 1027.61 350.27C1023.55 329.674 1000.27 314.729 985.233 300.218C988.157 294.484 991.727 288.489 996.004 282.153C1025.82 237.979 1014.05 215.118 1004.46 196.492L1004.31 196.194C1007 177.099 998.276 155.07 967.628 151.665C967.425 151.527 967.222 151.391 967.018 151.257C959.012 58.595 905.326 119.796 861.054 97.4457C846.572 90.7683 822.622 91.1728 801.273 100.707C785.923 107.562 776.45 111.578 759.74 121.851C739.499 134.295 714.688 136.385 685.032 128.622C649.368 119.286 615.798 103.315 579.157 120.447C545.679 136.099 520.48 152.868 488.729 136.226C466.202 124.419 450.652 116.503 427.37 113.235C394.023 108.553 366.88 111.583 341.4 119.887C335.108 121.937 328.973 124.194 322.867 126.441L322.866 126.442L322.853 126.446C293.582 137.216 264.968 147.744 222.797 134.16C177.763 120.964 164.279 67.1967 84.5409 101.151C42.0076 84.8299 -11.7244 88.6094 -6.16608 139.899C-35.6701 147.567 -54.4358 188.323 -29.8717 258.682C-18.5195 291.204 -28.4325 324.416 -48.4935 352.012C-74.6904 387.038 -63.6866 415.136 -54.91 424.806C-58.0789 395.627 -48.7915 381.113 -35.4381 366.116C-19.5209 348.24 9.16235 333.504 -6.16609 295.27C-23.1725 252.851 -1.38425 177.084 33.2112 189.503C57.5075 198.225 85.1159 184.54 80.4686 154.994Z" fill="#6027AE"/>
<path d="M47.5253 142.324C53.7791 118.046 18.2019 110.834 6.01969 123.432C-6.16377 136.026 5.02736 147.468 5.02736 147.468C-3.12314 137.452 14.068 118.563 32.3256 131.865C50.582 145.162 39.9696 172.264 17.5518 176.175C-8.95267 181.554 -30.4815 160.672 -31.2455 160.193C-2.34585 195.271 30.6971 179.992 30.6971 179.992C74.6294 162.838 47.5253 142.324 47.5253 142.324Z" fill="#6027AE"/>
<path d="M-58.9559 177.372C-58.9559 177.372 -64.8195 152.581 -34.9105 140.813C-34.9105 140.813 -41.1598 122.375 -25.7007 111.851C-9.49382 100.819 13.9265 101.722 44.6753 113.943C44.6753 113.943 25.4587 110.616 15.8344 119.662C0.914088 133.686 -6.51453 153.047 -21.581 155.364C-21.581 155.364 -45.8664 182.563 -58.9559 177.372Z" fill="#8A2262"/>
<path fill-rule="evenodd" clip-rule="evenodd" d="M55.9854 143.613C44.7662 145.988 39.5086 150.481 41.3504 162.193C45.2049 186.7 22.3057 198.05 2.15363 190.816C-26.541 180.515 -34.2827 242.664 -20.1771 277.847C-7.46318 309.56 -20.0486 323.693 -33.2507 338.52C-44.3265 350.959 -73.5652 361.782 -70.9368 385.984C-69.0211 403.622 -104.802 429.739 -101.599 444.204C-95.988 469.548 -104.372 478.462 -108.754 507.008C-110.083 515.659 -86.1619 534.018 -88.0847 540.397C-94.5223 561.758 -92.7192 589.269 -55.5434 625.211C-44.5623 640.026 -13.7964 629.303 -21.3274 638.707C-22.4251 640.077 -23.5189 641.443 -24.5505 642.819C-32.0058 652.767 -36.0263 663.919 -18.6945 667.036L-27.503 682.198C-63.5086 667.962 -79.9666 658.639 -64.3611 627.842C-54.5432 613.167 -55.0736 603.988 -61.8068 595.726C-63.7709 593.316 -65.7187 591.025 -67.5992 588.814C-74.9989 580.113 -81.3538 572.64 -83.5455 563.953C-88.7559 543.3 -79.6853 526.905 -70.9367 511.093C-68.751 507.143 -66.5859 503.23 -64.6683 499.295C-53.8122 477.02 -59.3329 450.295 -68.6336 431.412C-92.4719 383.015 -78.7397 343.66 -65.6149 325.606C-48.9756 302.717 -40.7535 275.17 -50.1694 248.196C-70.5436 189.837 -54.9787 156.033 -30.5071 149.673C-35.1174 107.132 9.44957 103.997 44.7281 117.534C110.865 89.3713 122.049 133.968 159.402 144.913C194.38 156.18 218.113 147.448 242.392 138.514L242.402 138.511C247.467 136.647 252.556 134.775 257.775 133.074C278.909 126.187 301.422 123.674 329.081 127.557C348.392 130.268 361.29 136.833 379.975 146.626C406.31 160.43 427.211 146.521 454.978 133.538C485.37 119.329 513.213 132.576 542.794 140.319C567.392 146.758 587.971 145.024 604.759 134.703C618.619 126.182 626.477 122.851 639.208 117.166C656.915 109.258 676.78 108.922 688.792 114.461C725.513 132.999 770.041 82.2368 776.683 159.094C776.851 159.205 777.019 159.317 777.188 159.432C802.608 162.256 824.063 194.878 821.831 210.717C829.805 226.211 807.981 235.14 783.12 271.975C760.067 306.131 779.357 324.023 792.268 352.437C814.221 400.747 822.874 442.004 789.194 480.396C770.977 503.775 767.435 537.91 781.855 564.273C794.953 588.219 812.392 596.925 789.376 635.344C780.549 650.08 785.232 658.997 791.857 671.611C792.276 672.409 792.703 673.221 793.134 674.05C796.923 681.335 800.655 688.509 800.762 696.074C800.024 698.463 796.873 704.65 796.873 704.65C789.077 699.862 776.869 697.768 764.731 695.685C735.475 690.666 728.245 672.509 743.022 654.043C761.442 631.026 857.877 662.153 838.867 639.77C826.168 624.817 834.417 586.194 831.713 572.197C806.16 537.47 836.956 517.486 856.761 500.164C904.808 458.142 836.12 370.648 826.943 324.162C821.49 296.54 800.14 287.172 807.614 265.765C810.053 258.778 806.615 260.842 807.614 250.803C811.588 210.857 763.54 161.226 724.04 168.27C706.04 171.48 695.375 161.657 692.716 153.241C687.364 136.302 649.704 132.452 625.35 144.111C620.237 147.09 615.793 149.854 611.723 152.385C595.097 162.727 584.675 167.188 560.235 168.644C546.612 169.456 531.316 165.713 516.548 162.1C501.918 158.52 487.806 155.066 476.352 156.294C458.471 158.211 446.634 164.688 435.49 170.786C415.559 181.692 397.849 191.382 351.756 171.586C318.631 157.36 293.791 159.001 258.262 167.559C191.525 183.633 171.697 169.622 124.42 152.499C101.603 144.236 81.1472 140.624 55.9854 143.613Z" fill="#8A2262"/>
<path d="M41.8675 149.189C46.8771 129.741 18.3779 123.963 8.61929 134.055C-1.1403 144.144 7.82438 153.31 7.82438 153.31C1.2954 145.286 15.0664 130.154 29.6917 140.81C44.316 151.462 35.815 173.172 17.8571 176.305C-3.37435 180.614 -20.6201 163.886 -21.2321 163.503C1.91805 191.602 28.3872 179.362 28.3872 179.362C63.5793 165.621 41.8675 149.189 41.8675 149.189Z" fill="#8A2262"/>
<path d="M-42.3077 166.112C-42.3077 166.112 -48.1107 141.577 -18.5103 129.931C-18.5103 129.931 -24.6951 111.683 -9.39554 101.268C6.64413 90.3493 29.8228 91.2433 60.2544 103.338C60.2544 103.338 41.236 100.046 31.711 108.998C16.9447 122.877 9.59269 142.039 -5.31831 144.332C-5.31831 144.332 -29.3532 171.25 -42.3077 166.112Z" fill="#FFF742"/>
<path fill-rule="evenodd" clip-rule="evenodd" d="M71.4474 132.701C60.344 135.052 55.1406 139.499 56.9635 151.089C60.7782 175.343 38.1152 186.577 18.171 179.417C-10.2275 169.222 -17.7705 239.196 -3.81047 274.016C8.77227 305.401 -3.80201 310.924 -16.8679 325.598C-27.8294 337.908 -56.7666 348.619 -54.1653 372.571C-52.2694 390.028 -87.6813 415.876 -84.5116 430.191C-78.958 455.273 -87.2552 464.096 -91.5926 492.347C-92.9072 500.909 -69.2333 519.078 -71.1363 525.392C-77.5075 546.532 -75.7229 573.76 -38.9307 609.33C-28.0629 623.993 2.38558 613.381 -5.06766 622.687C-6.15404 624.043 -7.23664 625.395 -8.25757 626.757C-15.6359 636.602 -19.6149 647.639 -2.46199 650.724L-11.1797 665.729C-46.8137 651.641 -63.1019 642.413 -47.6574 611.935C-37.9408 597.411 -38.4657 588.326 -45.1294 580.15C-47.0733 577.765 -49.001 575.498 -50.8621 573.309C-58.1855 564.698 -64.4748 557.302 -66.6439 548.704C-71.8006 528.265 -62.8234 512.039 -54.1653 496.39C-52.0021 492.481 -49.8593 488.608 -47.9614 484.714C-37.2173 462.668 -42.6811 436.219 -51.8858 417.531C-75.4782 369.633 -61.8876 330.684 -48.8982 312.817C-32.4306 290.164 -24.2933 262.901 -33.6121 236.205C-53.776 178.448 -38.3718 144.993 -14.1528 138.699C-18.7154 96.5963 25.3917 93.4938 60.3063 106.891C125.761 79.0191 136.83 123.156 173.797 133.988C208.414 145.139 231.903 136.496 255.931 127.655L255.941 127.652C260.954 125.807 265.989 123.954 271.155 122.271C292.071 115.455 314.352 112.968 341.725 116.81C360.837 119.494 373.602 125.991 392.094 135.684C418.157 149.344 438.843 135.579 466.324 122.73C496.402 108.668 523.958 121.778 553.234 129.441C577.578 135.814 597.944 134.098 614.56 123.883C628.276 115.45 636.053 112.154 648.653 106.527C666.177 98.7005 685.838 98.3684 697.725 103.85C734.067 122.197 778.136 71.9582 784.709 148.022C784.876 148.132 785.042 148.243 785.209 148.357C810.367 151.152 817.53 169.235 815.321 184.91C823.213 200.244 833.107 219.016 808.502 255.471C785.687 289.274 787.356 311.25 800.134 339.37C821.86 387.182 830.423 428.014 797.091 466.009C779.062 489.148 775.557 522.93 789.828 549.021C802.791 572.72 820.05 581.336 797.272 619.359C788.536 633.943 793.17 642.768 799.727 655.252C800.142 656.041 800.564 656.845 800.991 657.666C804.741 664.876 808.434 671.976 808.54 679.463C807.81 681.827 804.691 687.95 804.691 687.95C796.975 683.211 784.894 681.139 772.88 679.078C743.927 674.111 736.771 656.141 751.396 637.866C769.625 615.086 865.066 645.892 846.252 623.74C833.684 608.941 841.847 570.716 839.171 556.863C813.883 522.494 844.36 502.717 863.961 485.574C911.512 443.985 843.533 357.394 834.451 311.387C829.054 284.051 782.431 268.844 789.828 247.658C792.243 240.743 787.147 228.096 788.136 218.161C792.069 178.627 771.702 150.132 732.609 157.104C714.795 160.28 704.24 150.559 701.609 142.23C696.312 125.466 659.041 121.655 634.938 133.194C629.877 136.142 625.479 138.878 621.452 141.383C604.997 151.618 594.683 156.033 570.494 157.474C557.012 158.278 541.874 154.574 527.259 150.997C512.779 147.454 498.813 144.036 487.477 145.252C469.781 147.149 458.065 153.559 447.037 159.594C427.311 170.387 409.784 179.977 364.167 160.386C331.384 146.307 306.8 147.931 271.637 156.4C205.589 172.308 185.965 158.442 139.176 141.496C116.595 133.318 96.3497 129.743 71.4474 132.701Z" fill="#E0349E"/>
<path d="M57.4752 138.22C62.4331 118.972 34.2279 113.254 24.57 123.242C14.9111 133.227 23.7833 142.298 23.7833 142.298C17.3217 134.357 30.9506 119.382 45.425 129.928C59.8984 140.47 51.4851 161.956 33.7125 165.057C12.7001 169.321 -4.36771 152.765 -4.97342 152.386C17.9379 180.196 44.134 168.082 44.134 168.082C78.9629 154.483 57.4752 138.22 57.4752 138.22Z" fill="#FFF742"/>
</g>
<defs>
<clipPath id="clip0_1789_4122">
<rect width="360" height="186" fill="white" transform="matrix(1 0 0 -1 0 240)"/>
</clipPath>
</defs>
</svg>
