<svg width="1920" height="638" viewBox="0 0 1920 638" fill="none" xmlns="http://www.w3.org/2000/svg">
<path d="M203.826 280.301C203.297 276.038 201.183 253.499 211.59 228.816C220.757 207.063 241.698 179.302 289.334 170.587C337.701 161.739 368.099 171.234 391.628 193.661C407.652 208.934 421.891 228.074 424.167 254.507L369.998 259.163C351.735 223.867 324.802 224.71 301.025 229.058C286.833 231.657 273.282 245.876 266.719 261.445C264.198 267.419 264.18 273.185 264.185 273.231L203.834 280.311L203.826 280.301Z" fill="white" stroke="#300375" stroke-width="4.66667" stroke-miterlimit="10" stroke-linecap="round"/>
<path d="M285.452 212.362L302.294 210.858C316.426 209.601 330.294 206.34 343.511 201.18L356.067 196.271C360.238 195.321 362.846 191.18 361.897 187.016L352.599 146.213C351.294 140.487 345.594 136.908 339.86 138.214L274.915 153.013C269.181 154.32 265.594 160.015 266.899 165.741L276.197 206.544C277.146 210.709 281.29 213.311 285.461 212.361L285.452 212.362Z" fill="#FFF742"/>
<path d="M285.562 213.012C297.65 211.563 286.869 217.95 298.927 215.926C308.024 214.528 340.002 205.501 348.697 202.416C351.569 201.433 354.438 200.434 357.301 199.411L356.821 199.563C361.909 198.605 365.864 193.711 365.793 188.513C365.799 187.467 365.599 186.366 365.393 185.352C362.961 172.975 360.321 159.39 357.801 147.109L357.48 145.514L357.388 145.113C356.01 138.14 349.485 132.753 342.359 132.692C340.908 132.618 339.33 132.877 337.912 133.166C333.915 134.026 310.49 138.37 305.94 139.247C295.286 141.287 284.708 143.664 274.215 146.409C265.697 148.088 259.518 156.548 261.034 165.166C261.217 166.337 261.691 167.788 262.068 168.923C266.364 181.853 271.386 194.6 275.308 207.666C276.82 211.634 281.459 214.149 285.563 213.02L285.562 213.012ZM285.358 211.711C281.702 212.51 277.842 209.936 277.37 206.235C276.643 201.675 276.032 197.105 275.513 192.497C274.464 183.301 273.671 174.046 272.411 164.89C272.288 164.092 272.415 163.204 272.686 162.468C273.313 160.851 274.685 159.688 276.366 159.44L277.141 159.288C287.788 157.216 298.351 154.775 308.837 151.998C314.343 150.541 336.318 144.574 341.462 143.342C344.341 142.686 347.343 144.825 347.896 147.698L348.297 149.274C351.488 161.832 355.043 175.655 358.334 188.249C358.763 190.536 357.109 192.682 354.844 193.147C343.768 197.853 332.926 203.213 321.261 206.444C309.608 209.95 297.453 210.884 285.354 211.728L285.358 211.711Z" fill="#E0349E"/>
<path d="M190.556 105.283C190.733 105.644 207.263 139.439 242.539 148.997C248.762 150.683 255.641 151.957 262.985 152.811C277.144 154.451 287.848 166.421 287.993 180.65C288.161 197.616 273.453 211.032 256.574 209.088C246.339 207.907 236.617 206.092 227.705 203.678C166.438 187.083 139.257 129.496 138.134 127.049L189.659 103.357L190.556 105.283Z" fill="white" stroke="#300375" stroke-width="4.66667" stroke-miterlimit="10" stroke-linecap="round"/>
<path d="M287.993 180.649C288.161 197.615 273.453 211.031 256.574 209.087C246.339 207.906 236.617 206.09 227.705 203.677C166.438 187.082 139.257 129.494 138.134 127.048" stroke="#E0349E" stroke-width="4.66667" stroke-miterlimit="10" stroke-linecap="square"/>
<path d="M181.543 20.5439L221.043 88.1328L110.802 152.362L71.3018 84.7731L181.543 20.5439Z" fill="#FFF742" stroke="#300375" stroke-width="4.66667" stroke-miterlimit="10" stroke-linecap="round"/>
<path d="M361.263 61.1594L420.968 38.5329C422.156 41.6573 427.948 58.4923 425.292 83.0571C422.968 104.591 413.357 137.376 380.82 171.271C377.703 174.52 374.417 177.726 370.979 180.9C356.835 193.922 334.392 191.352 323.341 175.625C314.132 162.52 316.128 144.681 327.891 133.82C330.286 131.605 332.564 129.379 334.716 127.132C350.622 110.565 359.983 92.9535 361.797 76.2055C362.749 67.3905 361.276 61.2151 361.261 61.1775L361.263 61.1594Z" fill="white" stroke="#300375" stroke-width="4.66667" stroke-miterlimit="10" stroke-linecap="round"/>
<path d="M420.968 38.5329C422.156 41.6573 427.948 58.4923 425.292 83.0571C422.968 104.591 413.357 137.376 380.82 171.271C377.703 174.52 374.417 177.726 370.979 180.9C356.835 193.922 334.392 191.352 323.341 175.625" stroke="#E0349E" stroke-width="4.66667" stroke-miterlimit="10" stroke-linecap="square"/>
<path d="M253.119 150.58L221.977 204.52C238.088 210.072 264.993 223.743 290.299 221.689C301.433 207.418 302.359 146.148 302.359 146.148C273.78 156.76 253.119 150.58 253.119 150.58Z" fill="#E0349E" stroke="#300375" stroke-width="4.66667" stroke-miterlimit="10" stroke-linecap="round"/>
<path d="M398.837 157.355C391.754 147.678 338.895 120.203 338.895 120.203C338.895 120.203 330.913 136.187 302.334 146.8C302.334 146.8 329.109 191.384 353.325 201.243C377.745 196.924 398.837 157.355 398.837 157.355Z" fill="#E0349E" stroke="#300375" stroke-width="4.66667" stroke-miterlimit="10" stroke-linecap="round"/>
<path d="M232.483 93.5547C228.931 84.0713 227.839 73.7938 229.684 63.8351C231.397 54.5895 235.719 44.4197 245.784 37.9685C268.147 23.6329 293.897 24.7821 305.673 30.2495C316.397 35.2302 330.015 42.9985 335.257 65.0427C339.418 82.5314 341.856 99.7614 341.528 108.311C341.2 116.861 338.549 135.555 325.426 146.47C312.303 157.385 295.496 157.531 292.982 157.646C290.467 157.76 268.272 157.477 255.96 142.019C247.15 130.958 237.346 106.539 232.483 93.5547Z" fill="white" stroke="#300375" stroke-width="4.67" stroke-miterlimit="10" stroke-linecap="round"/>
<path d="M249.48 81.5928C255.944 81.0021 262.651 81.0544 269.054 81.8169C274.886 82.7319 281.718 84.6295 285.295 89.481C289.935 95.9113 291.976 103.928 294.588 111.411C295.06 112.947 296.299 116.993 296.768 118.496C297.754 121.421 298.601 124.593 300.674 127.162C304.804 132.16 311.596 129.551 313.469 123.913C314.195 121.215 313.766 118.238 313.523 115.53C312.322 105.787 308.73 96.4261 308.823 86.6344C308.892 79.8443 311.335 74.9704 317.893 72.1803C321.696 70.4725 325.959 69.5743 330.01 68.7816C321.763 69.0278 311.151 70.273 307.281 78.7955C301.775 92.3937 309.267 106.992 309.049 120.68C309.003 121.247 309.068 121.852 308.879 122.393C308.471 123.519 307.211 125.026 305.936 124.949C303.487 124.487 302.223 119.22 301.372 117.007C300.517 114.373 299.221 110.184 298.31 107.573C295.432 100.151 293.003 92.1432 287.412 86.1047C282.713 81.3579 275.694 79.8688 269.277 79.4382C262.572 79.3279 255.946 79.9526 249.482 81.6172L249.48 81.5928Z" fill="#E0349E"/>
<mask id="mask0_1652_9866" style="mask-type:luminance" maskUnits="userSpaceOnUse" x="228" y="26" width="114" height="132">
<path d="M232.483 93.5557C228.932 84.0723 227.839 73.7948 229.684 63.8361C231.397 54.5905 235.719 44.4206 245.784 37.9695C268.147 23.6339 293.897 24.783 305.673 30.2505C316.398 35.2312 330.015 42.9994 335.257 65.0436C339.419 82.5324 341.856 99.7624 341.528 108.312C341.2 116.862 338.55 135.556 325.427 146.471C312.304 157.386 295.496 157.532 292.982 157.647C290.468 157.761 268.273 157.478 255.961 142.02C247.15 130.958 237.346 106.54 232.483 93.5557Z" fill="white"/>
</mask>
<g mask="url(#mask0_1652_9866)">
<path d="M287.987 70.7586C271.404 71.5117 257.352 58.6988 256.6 42.1401C255.848 25.5813 268.681 11.5474 285.263 10.7943C301.845 10.0412 315.898 22.8541 316.65 39.4129C317.402 55.9716 304.569 70.0055 287.987 70.7586Z" fill="#300375"/>
<path d="M225.183 106.029C207.353 106.839 192.289 94.072 191.537 77.5133C190.785 60.9546 204.63 46.8746 222.46 46.0649C240.29 45.2551 255.354 58.0221 256.106 74.5808C256.858 91.1395 243.014 105.22 225.183 106.029Z" fill="#300375"/>
</g>
<path d="M282.824 106.258C280.295 101.144 274.819 98.2271 269.449 96.9416C266.712 96.3177 263.894 96.2648 261.099 96.3671C259.389 96.4365 258.089 98.0907 258.214 99.7459C258.581 103.109 261.934 102.611 264.4 102.696C266.294 102.701 268.172 102.895 270.005 103.371C272.836 104.056 275.455 105.343 278.079 106.564C279.299 107.126 280.555 107.595 281.848 107.972C282.981 108.249 283.408 107.136 282.825 106.275L282.824 106.258Z" fill="#E0349E"/>
<path d="M330.749 83.7516C327.221 79.332 320.979 87.8296 319.066 90.6709C317.415 93.6647 316.221 97.2874 317.068 100.702C318.237 102.688 319.602 99.5841 320.32 98.7046C321.899 96.306 323.452 93.8757 325.561 91.9052C326.954 90.3044 328.739 89.1709 330.393 87.8789C331.532 86.8569 331.66 84.9682 330.749 83.7516Z" fill="#E0349E"/>
<path d="M245.64 97.5214C245.64 97.5214 239.374 85.5549 225.905 89.3979C213.696 92.8795 216.987 108.796 220.457 115.389C223.926 121.982 231.728 125.155 240.146 121.944C244.492 120.283 246.271 117.933 246.271 117.933" fill="white"/>
<path d="M245.64 97.5214C245.64 97.5214 239.374 85.5549 225.905 89.3979C213.696 92.8795 216.987 108.796 220.457 115.389C223.926 121.982 231.728 125.155 240.146 121.944C244.492 120.283 246.271 117.933 246.271 117.933" stroke="#300375" stroke-width="4.66667" stroke-miterlimit="10" stroke-linecap="round"/>
<path d="M1408.91 313.368L1358.68 312.689C1358.72 309.842 1359.3 284.283 1367.93 263.632C1374.5 247.922 1386.55 235.637 1400.49 232.547C1414.43 229.457 1427.13 234.548 1429.42 247.905V247.955C1431.69 260.76 1421.73 269.754 1415.96 281.411C1410.2 293.068 1409.01 307.489 1408.92 313.368H1408.91Z" fill="white" stroke="#300375" stroke-width="4.79218" stroke-miterlimit="10" stroke-linecap="round"/>
<path d="M1358.67 312.69C1358.71 309.843 1359.29 284.284 1367.92 263.633C1374.49 247.923 1386.54 235.638 1400.48 232.548C1414.42 229.457 1427.12 234.549 1429.41 247.906V247.956" stroke="#E0349E" stroke-width="4.79218" stroke-miterlimit="10" stroke-linecap="square"/>
<path d="M1450.21 353.463C1450.17 350.44 1450.33 347.174 1450.5 343.715C1451.22 328.75 1451.15 318.081 1443.55 317.369C1439.66 317.755 1435.23 318.961 1431.48 327.218C1429.36 331.924 1429.36 343.816 1430.03 352.567C1430.04 352.793 1430.04 352.919 1430.04 352.927L1429.98 355.506L1390.01 355.23L1390.07 352.575C1390.07 352.391 1390.05 351.863 1390.02 351.059C1389.22 329.186 1390.26 314.623 1393.13 307.764C1398.59 294.683 1403.71 286.661 1410.27 280.949C1417.72 274.468 1427.17 271.001 1440.03 270.054C1441.13 269.971 1442.28 269.929 1443.46 269.929C1461.11 269.929 1483.5 278.512 1493.73 297.69C1501.33 311.943 1502.41 341.153 1502.53 353.053L1502.56 355.674L1450.24 356.076L1450.22 353.463H1450.21Z" fill="white"/>
<path d="M1443.46 272.543C1458.18 272.543 1480.92 279.226 1491.42 298.914C1498.74 312.665 1499.8 341.364 1499.91 353.071L1452.83 353.431C1452.68 338.717 1457.23 315.679 1443.53 314.733C1438.44 315.202 1433.21 317.061 1429.1 326.131C1425.8 333.408 1427.43 352.786 1427.43 352.862L1392.69 352.619C1392.73 351.095 1390.92 319.858 1395.55 308.762C1404.99 286.118 1415.07 274.511 1440.23 272.66C1441.25 272.585 1442.34 272.543 1443.47 272.543M1443.46 267.309C1442.22 267.309 1441 267.351 1439.84 267.435C1411.6 269.52 1400.44 283.421 1390.71 306.744C1387.66 314.055 1386.57 328.584 1387.4 351.153C1387.42 351.848 1387.44 352.334 1387.45 352.56L1387.34 357.828L1392.65 357.861L1427.39 358.104L1432.55 358.137L1432.65 352.979C1432.65 352.719 1432.65 352.543 1432.63 352.368C1431.97 343.549 1432.07 332.252 1433.86 328.291C1436.96 321.449 1440.22 320.352 1443.57 319.992C1444.86 320.126 1446.56 320.721 1447.53 325.553C1448.51 330.41 1448.18 337.109 1447.87 343.574C1447.7 347.075 1447.54 350.374 1447.58 353.481L1447.63 358.707L1452.85 358.665L1499.93 358.305L1505.18 358.263L1505.13 353.021C1504.98 338.005 1503.61 310.688 1496.01 296.452C1490.79 286.646 1482.21 278.74 1471.22 273.598C1462.66 269.595 1452.53 267.301 1443.44 267.301L1443.46 267.309Z" fill="#300375"/>
<path d="M1483.29 307.691L1466.99 310.01C1453.31 311.962 1439.44 311.861 1425.79 309.726L1412.82 307.691C1408.65 307.691 1405.29 304.165 1405.29 299.81V257.143C1405.29 251.155 1409.93 246.307 1415.65 246.307H1480.47C1486.19 246.307 1490.83 251.155 1490.83 257.143V299.81C1490.83 304.165 1487.46 307.691 1483.3 307.691H1483.29Z" fill="#FFF742"/>
<path d="M1483.34 308.344C1471.55 309.65 1459.94 312.146 1448.05 312.816C1439.11 313.461 1430.03 313.1 1421.11 312.003C1418.17 311.685 1415.23 311.325 1412.29 310.965L1412.8 311.007C1407.98 311.158 1403.53 307.716 1402.14 303.177C1401.69 301.82 1401.57 300.346 1401.55 298.939C1401.18 286.344 1400.72 272.527 1400.45 260.007C1400.45 259.53 1400.38 258.047 1400.39 257.57C1400.17 252.512 1402.41 247.387 1406.45 244.272C1409.01 242.237 1412.3 241.073 1415.58 240.989L1422.09 240.805L1448.04 239.816C1456.69 239.523 1465.34 239.398 1474 239.565C1477.9 239.741 1482.03 239.314 1485.77 240.721C1490.66 242.496 1494.52 246.725 1495.88 251.7C1496.51 253.894 1496.65 256.155 1496.38 258.391C1495.18 272.183 1492.91 285.934 1492.03 299.76C1491.87 304.307 1487.98 308.528 1483.33 308.361L1483.34 308.344ZM1483.24 307.037C1487.03 306.987 1489.99 303.428 1489.61 299.743C1489.3 295.146 1488.88 290.548 1488.36 285.951C1487.28 276.354 1485.95 266.765 1485.15 257.151C1484.84 255.217 1483.45 253.391 1481.59 252.973C1479.09 252.78 1476.54 253.081 1474.01 253.048C1465.36 253.215 1456.71 253.09 1448.05 252.797L1422.09 251.809L1415.62 251.624C1414.57 251.582 1413.56 251.85 1412.68 252.47C1411.03 253.567 1410.14 255.585 1410.16 257.562C1410.14 258.031 1410.13 259.496 1410.1 259.999C1409.79 272.954 1409.37 287.215 1408.97 300.229C1409.01 302.314 1410.71 304.282 1412.82 304.374C1424.54 306.409 1436.06 309.491 1448.04 309.977C1459.86 310.772 1471.6 308.93 1483.24 307.037Z" fill="#E0349E"/>
<path d="M1523.73 286.227C1517.13 286.227 1491.67 285.859 1489.6 285.741C1479.78 285.741 1471.81 277.777 1471.81 267.954V253.282C1471.81 243.459 1479.78 235.495 1489.6 235.495H1491.22L1492.06 235.554C1494.52 235.713 1523.27 235.931 1525.83 235.981C1538.56 236.224 1543.1 226.015 1543.25 213.286C1543.35 204.895 1543.3 195.91 1543.1 187.77L1593.33 186.514C1593.63 198.682 1594.3 239.666 1590.15 256.071C1583.41 282.668 1549.65 284.988 1538.56 285.75C1533.35 286.11 1528.21 286.227 1523.73 286.227Z" fill="white" stroke="#300375" stroke-width="4.79218" stroke-miterlimit="10" stroke-linecap="round"/>
<path d="M1593.34 186.514C1593.64 198.682 1594.31 239.666 1590.16 256.071C1583.42 282.668 1549.66 284.988 1538.57 285.75C1533.36 286.11 1528.22 286.227 1523.74 286.227C1517.13 286.227 1491.68 285.859 1489.61 285.741C1479.78 285.741 1471.82 277.777 1471.82 267.954" stroke="#E0349E" stroke-width="4.79218" stroke-miterlimit="10" stroke-linecap="square"/>
<path d="M1403.24 241.248C1403.24 241.248 1393.37 285.213 1392.68 311.576L1424.75 314.348C1424.75 314.348 1425.68 299.358 1426.54 281.629C1427.3 265.977 1426.86 246.859 1426.86 246.859L1403.24 241.256V241.248Z" fill="#E0349E" stroke="#300375" stroke-width="4.07845" stroke-miterlimit="10" stroke-linecap="round"/>
<path d="M1490.68 231.929C1490.68 231.929 1499.7 292.768 1499.91 314.776L1461.4 315.656C1461.4 315.656 1460.9 296.369 1460.06 279.688C1459.28 264.564 1459.2 249.733 1459.2 249.733C1476.98 253.049 1490.68 231.929 1490.68 231.929Z" fill="#E0349E" stroke="#300375" stroke-width="3.82694" stroke-miterlimit="10" stroke-linecap="round"/>
<path d="M1500.31 189.622C1502.35 179.506 1501.78 168.979 1498.33 159.248C1495.11 150.221 1489.12 140.674 1477.96 135.808C1453.16 124.989 1427.46 130.298 1416.52 137.709C1406.54 144.459 1394.11 154.475 1392.4 177.513C1391.04 195.794 1391.38 213.531 1393.09 222.089C1394.79 230.639 1400.48 249.038 1415.44 257.906C1430.39 266.775 1447.31 264.204 1449.85 263.919C1452.4 263.634 1474.66 259.757 1484.54 242.213C1491.62 229.651 1497.52 203.49 1500.31 189.63V189.622Z" fill="white" stroke="#300375" stroke-width="4.07845" stroke-miterlimit="10" stroke-linecap="round"/>
<mask id="mask1_1652_9866" style="mask-type:luminance" maskUnits="userSpaceOnUse" x="1391" y="129" width="111" height="136">
<path d="M1500.31 189.621C1502.34 179.505 1501.78 168.978 1498.33 159.247C1495.11 150.22 1489.12 140.673 1477.96 135.807C1453.16 124.988 1427.46 130.297 1416.52 137.708C1406.54 144.458 1394.11 154.474 1392.4 177.512C1391.04 195.793 1391.38 213.53 1393.08 222.088C1394.79 230.638 1400.48 249.037 1415.44 257.905C1430.39 266.774 1447.31 264.203 1449.85 263.918C1452.4 263.633 1474.66 259.756 1484.54 242.212C1491.62 229.65 1497.52 203.489 1500.31 189.629V189.621Z" fill="white"/>
</mask>
<g mask="url(#mask1_1652_9866)">
<path d="M1437.36 175.829C1454.26 175.829 1467.96 162.129 1467.96 145.229C1467.96 128.329 1454.26 114.629 1437.36 114.629C1420.46 114.629 1406.76 128.329 1406.76 145.229C1406.76 162.129 1420.46 175.829 1437.36 175.829Z" fill="#300375"/>
<path d="M1509.66 201.02C1527.71 198.957 1540.79 183.672 1538.87 166.882C1536.96 150.091 1520.76 138.153 1502.71 140.216C1484.66 142.279 1471.58 157.564 1473.49 174.354C1475.41 191.145 1491.6 203.083 1509.66 201.02Z" fill="#300375"/>
</g>
<path d="M1479.52 177.88C1472.97 178.742 1466.32 180.291 1460.12 182.477C1454.54 184.696 1448.17 188.105 1445.71 193.741C1442.54 201.177 1442.31 209.61 1441.39 217.633C1441.26 219.266 1440.94 223.57 1440.81 225.161C1440.48 228.293 1440.35 231.635 1438.87 234.649C1435.89 240.545 1428.55 239.465 1425.44 234.273C1424.11 231.752 1423.87 228.695 1423.51 225.948C1422.52 215.991 1423.99 205.875 1421.72 196.161C1420.13 189.419 1416.62 185.115 1409.47 183.809C1405.32 182.954 1400.88 183.021 1396.68 183.139C1404.92 181.539 1415.74 180.4 1421.49 188.013C1430 200.306 1425.83 216.502 1429.1 230.069C1429.27 230.621 1429.35 231.233 1429.66 231.735C1430.32 232.765 1431.9 233.979 1433.15 233.619C1435.48 232.606 1435.55 227.096 1435.9 224.701C1436.16 221.887 1436.51 217.432 1436.84 214.626C1438.04 206.604 1438.66 198.087 1442.86 190.835C1446.47 185.056 1453.1 182.008 1459.38 180.141C1466.02 178.533 1472.74 177.67 1479.53 177.88H1479.52Z" fill="#E0349E"/>
<path d="M1452.88 210.599C1454.59 205.039 1459.63 201.22 1464.82 199.059C1467.47 197.988 1470.3 197.477 1473.12 197.133C1474.85 196.924 1476.43 198.381 1476.56 200.064C1476.74 203.506 1473.29 203.557 1470.82 204.034C1468.92 204.344 1467.06 204.846 1465.3 205.617C1462.57 206.764 1460.14 208.481 1457.69 210.13C1456.55 210.892 1455.37 211.571 1454.13 212.157C1453.04 212.618 1452.43 211.571 1452.88 210.608V210.599Z" fill="#E0349E"/>
<path d="M1400.45 198.054C1403.28 193.038 1410.92 200.583 1413.31 203.137C1415.44 205.884 1417.24 209.342 1416.94 212.91C1416.09 215.096 1414.21 212.19 1413.35 211.428C1411.37 209.275 1409.42 207.073 1406.98 205.423C1405.32 204.041 1403.34 203.187 1401.48 202.149C1400.16 201.303 1399.73 199.419 1400.45 198.054H1400.45Z" fill="#E0349E"/>
<path d="M1487.72 195.734C1487.72 195.734 1492.09 182.678 1506.25 184.37C1519.09 185.903 1518.35 202.45 1515.93 209.652C1513.51 216.854 1506.17 221.301 1497.19 219.433C1492.56 218.462 1490.39 216.385 1490.39 216.385" fill="white"/>
<path d="M1487.72 195.734C1487.72 195.734 1492.09 182.678 1506.25 184.37C1519.09 185.903 1518.35 202.45 1515.93 209.652C1513.51 216.854 1506.17 221.301 1497.19 219.433C1492.56 218.462 1490.39 216.385 1490.39 216.385" stroke="#300375" stroke-width="4.07845" stroke-miterlimit="10" stroke-linecap="round"/>
<path d="M1514.04 196.119L1551.17 182.771L1627.55 185.04L1609.27 198.665L1514.04 196.119Z" fill="#E0349E" stroke="#300375" stroke-width="4.24838" stroke-linecap="round" stroke-linejoin="round"/>
<path d="M1609.27 198.665L1609.88 210.682L1627.86 195.558L1627.55 185.04L1609.27 198.665Z" fill="#E0349E" stroke="#300375" stroke-width="4.24838" stroke-linecap="round" stroke-linejoin="round"/>
<path d="M1514.04 196.12L1514.61 207.258L1609.88 210.683L1609.27 198.666L1514.04 196.12Z" fill="#E0349E" stroke="#300375" stroke-width="4.24838" stroke-linecap="round" stroke-linejoin="round"/>
<path d="M1562.7 184.32L1539.57 195.902L1594.07 197.786L1609.08 185.526L1562.7 184.32Z" fill="#FFF742"/>
<path d="M1628.46 185.553L1635.87 185.787L1654.66 134.193L1648.21 131.597L1628.46 185.553Z" fill="#E0349E" stroke="#300375" stroke-width="4.24838" stroke-linecap="round" stroke-linejoin="round"/>
<path d="M1565.29 184.077L1537.73 196.748" stroke="#300375" stroke-width="1.35948" stroke-linecap="round" stroke-linejoin="round"/>
<path d="M1581.05 183.394L1557.19 197.261" stroke="#300375" stroke-width="1.35948" stroke-linecap="round" stroke-linejoin="round"/>
<path d="M1608.66 186.559L1591.22 199.036" stroke="#300375" stroke-width="1.35948" stroke-linecap="round" stroke-linejoin="round"/>
<path d="M1592.53 185.227L1573.65 198.626" stroke="#300375" stroke-width="1.35948" stroke-linecap="round" stroke-linejoin="round"/>
<path d="M1557.52 187.612L1605.72 188.425" stroke="#300375" stroke-width="1.35948" stroke-linecap="round" stroke-linejoin="round"/>
<path d="M1551.79 190.309L1601.63 191.28" stroke="#300375" stroke-width="1.35948" stroke-linecap="round" stroke-linejoin="round"/>
<path d="M1514.04 196.118L1551.17 182.77L1627.55 185.039L1609.27 198.664L1514.04 196.118Z" stroke="#300375" stroke-width="4.24838" stroke-linecap="round" stroke-linejoin="round"/>
<path d="M1551.17 182.77L1564.69 130.623L1648.21 131.594L1627.55 185.04L1551.17 182.77Z" fill="#E0349E" stroke="#300375" stroke-width="4.24838" stroke-linecap="round" stroke-linejoin="round"/>
<path d="M1561.08 175.342L1571.07 138.076L1635.33 139.55L1622.35 177.151L1561.08 175.342Z" fill="#FFF742"/>
<path d="M1763.26 220.075C1757.41 209.093 1761.56 195.446 1772.55 189.594L1844.09 150.469L1865.29 190.24L1793.75 229.366C1782.77 235.217 1769.12 231.064 1763.27 220.075H1763.26Z" fill="white" stroke="#300375" stroke-width="4.69448" stroke-miterlimit="10"/>
<path d="M1763.26 220.075C1757.41 209.093 1761.56 195.446 1772.55 189.594L1844.09 150.469" stroke="#E0349E" stroke-width="5.29538" stroke-miterlimit="10" stroke-linecap="square"/>
<path d="M1709.07 260.454L1664.01 259.846C1664.05 257.292 1664.56 234.368 1672.31 215.846C1678.2 201.755 1689 190.736 1701.51 187.964C1713.38 185.335 1725.4 189.759 1727.46 201.74V201.785C1729.5 213.269 1720.56 221.336 1715.39 231.792C1710.23 242.225 1709.15 255.182 1709.07 260.454H1709.07Z" fill="white" stroke="#300375" stroke-width="5.29538" stroke-miterlimit="10" stroke-linecap="round"/>
<path d="M1664 259.854C1664.04 257.3 1664.56 234.376 1672.3 215.853C1678.2 201.762 1689 190.744 1701.5 187.972C1713.37 185.343 1725.4 189.767 1727.45 201.747V201.792" stroke="#E0349E" stroke-width="5.29538" stroke-miterlimit="10" stroke-linecap="square"/>
<path d="M1746.1 296.426C1746.07 293.714 1746.22 290.785 1746.37 287.683C1747.01 274.26 1746.95 264.691 1740.13 264.052C1736.64 264.398 1732.67 265.48 1729.31 272.886C1727.51 276.844 1727.36 287.164 1728 295.629C1728.02 295.81 1728.02 295.907 1728.02 295.915L1727.99 298.251L1692.11 298.003L1692.16 295.622C1692.16 295.457 1692.14 294.983 1692.11 294.27C1691.39 274.651 1692.33 261.581 1694.9 255.43C1699.8 243.697 1704.4 236.501 1710.28 231.379C1716.95 225.565 1725.43 222.456 1736.97 221.607C1737.96 221.532 1738.98 221.494 1740.04 221.494C1755.88 221.494 1775.96 229.193 1785.13 246.394C1791.95 259.178 1792.92 285.377 1793.03 296.05L1793.05 298.401L1746.13 298.762L1746.1 296.418V296.426Z" fill="white"/>
<path d="M1740.05 223.845C1753.26 223.845 1773.65 229.838 1783.07 247.497C1789.64 259.831 1790.59 285.571 1790.68 296.072L1748.46 296.395C1748.32 283.198 1752.41 262.535 1740.12 261.686C1735.55 262.106 1730.86 263.774 1727.18 271.909C1724.22 278.436 1725.67 295.817 1725.67 295.884L1694.52 295.666C1694.55 294.299 1692.93 266.283 1697.08 256.33C1705.55 236.02 1714.59 225.61 1737.16 223.95C1738.08 223.882 1739.04 223.845 1740.06 223.845M1740.05 219.15C1738.94 219.15 1737.85 219.188 1736.81 219.263C1711.48 221.133 1701.47 233.602 1692.74 254.52C1690 261.077 1689.03 274.109 1689.77 294.352C1689.79 294.975 1689.81 295.411 1689.82 295.614L1689.72 300.338L1694.48 300.368L1725.64 300.586L1730.26 300.616L1730.36 295.989C1730.36 295.757 1730.36 295.599 1730.34 295.441C1729.75 287.532 1729.84 277.399 1731.44 273.846C1734.22 267.71 1737.15 266.726 1740.15 266.403C1741.31 266.523 1742.83 267.056 1743.7 271.39C1744.58 275.747 1744.29 281.756 1744.01 287.554C1743.86 290.694 1743.72 293.653 1743.75 296.44L1743.79 301.127L1748.48 301.089L1790.71 300.766L1795.41 300.729L1795.36 296.027C1795.24 282.559 1794 258.058 1787.19 245.289C1782.5 236.493 1774.81 229.403 1764.95 224.791C1757.27 221.201 1748.19 219.143 1740.04 219.143L1740.05 219.15Z" fill="#300375"/>
<path d="M1775.77 255.37L1761.15 257.451C1748.88 259.201 1736.44 259.111 1724.19 257.196L1712.56 255.37C1708.83 255.37 1705.81 252.208 1705.81 248.302V210.033C1705.81 204.662 1709.97 200.313 1715.1 200.313H1773.24C1778.37 200.313 1782.53 204.662 1782.53 210.033V248.302C1782.53 252.208 1779.51 255.37 1775.78 255.37H1775.77Z" fill="#FFF742"/>
<path d="M1775.82 255.956C1765.25 257.127 1754.83 259.366 1744.17 259.967C1736.14 260.545 1728.01 260.222 1720 259.238C1717.37 258.953 1714.73 258.63 1712.09 258.307L1712.55 258.344C1708.23 258.479 1704.24 255.392 1702.99 251.321C1702.59 250.105 1702.48 248.783 1702.46 247.521C1702.13 236.224 1701.72 223.83 1701.47 212.601C1701.47 212.173 1701.41 210.844 1701.42 210.416C1701.23 205.879 1703.23 201.282 1706.86 198.488C1709.16 196.663 1712.1 195.619 1715.05 195.543L1720.88 195.378L1744.16 194.492C1751.92 194.229 1759.68 194.116 1767.44 194.267C1770.94 194.424 1774.64 194.041 1778 195.303C1782.38 196.895 1785.84 200.689 1787.06 205.15C1787.63 207.118 1787.75 209.146 1787.51 211.152C1786.43 223.523 1784.4 235.856 1783.61 248.257C1783.47 252.335 1779.97 256.129 1775.8 255.971L1775.82 255.956ZM1775.74 254.784C1779.13 254.739 1781.79 251.547 1781.44 248.242C1781.17 244.118 1780.79 239.995 1780.33 235.871C1779.36 227.263 1778.16 218.663 1777.44 210.04C1777.17 208.305 1775.92 206.667 1774.25 206.292C1772.01 206.119 1769.73 206.39 1767.45 206.359C1759.69 206.51 1751.93 206.397 1744.17 206.134L1720.89 205.248L1715.08 205.083C1714.14 205.045 1713.24 205.285 1712.45 205.841C1710.97 206.825 1710.16 208.635 1710.19 210.408C1710.16 210.829 1710.16 212.143 1710.13 212.594C1709.86 224.214 1709.48 237.005 1709.12 248.677C1709.15 250.548 1710.67 252.313 1712.57 252.395C1723.08 254.221 1733.42 256.985 1744.16 257.42C1754.77 258.134 1765.29 256.482 1775.74 254.784Z" fill="#E0349E"/>
<path d="M1703.97 195.776C1703.97 195.776 1695.13 235.21 1694.51 258.855L1723.27 261.341C1723.27 261.341 1724.1 247.896 1724.88 231.995C1725.55 217.957 1725.16 200.809 1725.16 200.809L1703.97 195.784V195.776Z" fill="#E0349E" stroke="#300375" stroke-width="4.5067" stroke-miterlimit="10" stroke-linecap="round"/>
<path d="M1782.41 187.417C1782.41 187.417 1790.5 241.986 1790.68 261.725L1756.15 262.514C1756.15 262.514 1755.7 245.215 1754.94 230.253C1754.25 216.688 1754.17 203.386 1754.17 203.386C1770.12 206.36 1782.41 187.417 1782.41 187.417Z" fill="#E0349E" stroke="#300375" stroke-width="4.22879" stroke-miterlimit="10" stroke-linecap="round"/>
<path d="M1791.04 149.47C1792.87 140.397 1792.37 130.955 1789.26 122.227C1786.38 114.13 1781.01 105.568 1771 101.204C1748.76 91.4991 1725.7 96.2612 1715.89 102.909C1706.94 108.963 1695.79 117.946 1694.26 138.609C1693.04 155.006 1693.34 170.915 1694.87 178.591C1696.4 186.26 1701.5 202.762 1714.92 210.716C1728.33 218.671 1743.51 216.365 1745.79 216.109C1748.07 215.854 1768.04 212.376 1776.9 196.641C1783.25 185.374 1788.54 161.909 1791.04 149.478V149.47Z" fill="white" stroke="#300375" stroke-width="4.5067" stroke-miterlimit="10" stroke-linecap="round"/>
<path d="M1772.39 138.939C1766.52 139.713 1760.56 141.102 1755 143.063C1749.99 145.053 1744.28 148.11 1742.07 153.165C1739.23 159.835 1739.02 167.399 1738.2 174.594C1738.08 176.059 1737.8 179.92 1737.68 181.347C1737.38 184.156 1737.26 187.153 1735.94 189.857C1733.26 195.145 1726.68 194.176 1723.89 189.519C1722.7 187.258 1722.48 184.517 1722.16 182.053C1721.27 173.122 1722.6 164.049 1720.55 155.336C1719.13 149.289 1715.98 145.429 1709.57 144.257C1705.85 143.491 1701.86 143.551 1698.09 143.656C1705.48 142.221 1715.19 141.2 1720.35 148.027C1727.98 159.054 1724.24 173.58 1727.18 185.749C1727.33 186.244 1727.39 186.793 1727.67 187.243C1728.27 188.167 1729.69 189.256 1730.8 188.933C1732.89 188.024 1732.96 183.082 1733.28 180.934C1733.51 178.41 1733.82 174.414 1734.12 171.898C1735.19 164.702 1735.75 157.063 1739.52 150.559C1742.76 145.376 1748.7 142.642 1754.34 140.967C1760.29 139.525 1766.32 138.751 1772.41 138.939H1772.39Z" fill="#E0349E"/>
<mask id="mask2_1652_9866" style="mask-type:luminance" maskUnits="userSpaceOnUse" x="1693" y="95" width="100" height="122">
<path d="M1791.04 149.47C1792.87 140.397 1792.37 130.955 1789.26 122.227C1786.38 114.13 1781.01 105.568 1771 101.204C1748.76 91.4991 1725.7 96.2612 1715.89 102.909C1706.94 108.963 1695.79 117.946 1694.26 138.609C1693.04 155.006 1693.34 170.915 1694.87 178.591C1696.4 186.26 1701.5 202.762 1714.92 210.716C1728.33 218.671 1743.51 216.365 1745.79 216.109C1748.07 215.854 1768.04 212.376 1776.9 196.641C1783.25 185.374 1788.54 161.909 1791.04 149.478V149.47Z" fill="white"/>
</mask>
<g mask="url(#mask2_1652_9866)">
<path d="M1734.58 137.101C1749.74 137.101 1762.03 124.813 1762.03 109.655C1762.03 94.4969 1749.74 82.209 1734.58 82.209C1719.42 82.209 1707.14 94.4969 1707.14 109.655C1707.14 124.813 1719.42 137.101 1734.58 137.101Z" fill="#300375"/>
<path d="M1799.43 159.691C1815.63 157.841 1827.36 144.132 1825.64 129.072C1823.92 114.012 1809.39 103.304 1793.2 105.155C1777.01 107.006 1765.27 120.714 1767 135.774C1768.72 150.834 1783.24 161.542 1799.43 159.691Z" fill="#300375"/>
</g>
<path d="M1748.5 168.286C1750.04 163.299 1754.55 159.874 1759.21 157.936C1761.59 156.975 1764.12 156.516 1766.66 156.208C1768.21 156.021 1769.62 157.328 1769.74 158.837C1769.9 161.924 1766.81 161.97 1764.6 162.398C1762.89 162.676 1761.22 163.126 1759.64 163.817C1757.19 164.846 1755.01 166.386 1752.82 167.866C1751.8 168.549 1750.74 169.158 1749.63 169.683C1748.64 170.097 1748.1 169.158 1748.5 168.294V168.286Z" fill="#E0349E"/>
<path d="M1701.47 157.034C1704.01 152.534 1710.87 159.302 1713.01 161.593C1714.93 164.057 1716.53 167.159 1716.27 170.358C1715.5 172.319 1713.82 169.712 1713.05 169.029C1711.28 167.099 1709.53 165.123 1707.33 163.643C1705.85 162.404 1704.07 161.638 1702.4 160.707C1701.22 159.948 1700.84 158.258 1701.48 157.034H1701.47Z" fill="#E0349E"/>
<path d="M1779.76 154.953C1779.76 154.953 1783.67 143.243 1796.37 144.761C1807.88 146.135 1807.22 160.977 1805.05 167.437C1802.88 173.897 1796.3 177.885 1788.25 176.21C1784.09 175.339 1782.15 173.476 1782.15 173.476" fill="white"/>
<path d="M1779.76 154.953C1779.76 154.953 1783.67 143.243 1796.37 144.761C1807.88 146.135 1807.22 160.977 1805.05 167.437C1802.88 173.897 1796.3 177.885 1788.25 176.21C1784.09 175.339 1782.15 173.476 1782.15 173.476" stroke="#300375" stroke-width="4.5067" stroke-miterlimit="10" stroke-linecap="round"/>
<path d="M1818.4 134.802C1812.48 130.072 1810.38 124.908 1811.35 116.729C1812.47 107.37 1816.5 105.807 1818.08 92.2497C1818.71 86.8116 1811.83 79 1811.83 79C1811.83 79 1842.2 84.1483 1850.63 98.9497C1854.98 106.579 1856.78 113.446 1855.81 120.83C1855.05 126.606 1851.7 132.374 1844.78 136.228C1840.27 138.736 1828.1 141.26 1820.01 135.957C1819.36 135.534 1819 135.285 1818.4 134.802Z" fill="white" stroke="#300375" stroke-width="4.69448" stroke-miterlimit="10" stroke-linecap="round"/>
<path d="M1832.69 107.097C1832.68 109.016 1831.05 108.314 1829.98 107.56C1828.17 106.245 1826.7 104.527 1824.78 103.34C1821.54 101.48 1818.44 102.955 1817.33 105.666C1817.57 102.716 1818.85 100.494 1819.57 97.6186C1820.73 92.3753 1820.67 90.9997 1816.67 82.333C1819.06 83.1173 1828.99 85.3476 1831.48 86.707C1835.58 88.8058 1834.82 88.2951 1837.65 89.7964C1838.36 90.1731 1842.1 92.4009 1842.74 92.8859C1844.91 94.5398 1844.55 98.7315 1844.55 98.7315L1845.33 105C1845.33 105 1836.33 91.3745 1831.48 92.8683C1826.94 95.4302 1832.59 103.437 1832.68 107.097H1832.69Z" fill="#E0349E"/>
<path d="M1877.91 197.587C1875.65 199.157 1872.53 198.541 1871.04 196.227L1834.4 139.469C1834.4 139.469 1836.33 133.945 1841.41 131.421C1845.58 129.348 1850.19 129.062 1850.19 129.062L1879.52 191.54C1880.53 193.681 1879.85 196.235 1877.91 197.587Z" fill="#FFF742" stroke="#300375" stroke-width="4.69448" stroke-miterlimit="10" stroke-linecap="round"/>
<g clip-path="url(#clip0_1652_9866)">
<path d="M2250.18 608.18C2250.18 608.18 2332.45 488.447 2175.18 450.059C2175.18 450.059 2169.19 367.232 2126.87 332.168C2051.08 269.367 1975.43 343.527 1824.03 324.548C1824.03 324.548 2016.77 410.517 2053.53 443.164C2110.51 493.774 2140.32 574.776 2196.63 581.813C2196.63 581.813 2202.02 628.87 2250.18 608.18Z" fill="#07000F"/>
<path d="M-158.042 471.875C-163.892 434.671 -147.191 420.398 -111.551 412.852C-31.6205 403.358 33.3621 414.831 105.842 441.082C256.027 495.476 319.014 539.982 531.014 488.921C643.88 461.737 722.789 456.523 828.015 501.714C974.438 564.598 1030.7 533.816 1094.01 499.171C1129.41 479.802 1167.01 459.226 1223.81 453.137C1260.2 449.236 1305.03 460.206 1351.51 471.579C1398.42 483.059 1447.01 494.949 1490.28 492.369C1567.92 487.742 1578.91 485.989 1631.72 453.137C1644.65 445.095 1665.04 450.185 1681.29 440.72C1758.65 403.684 1901.23 476.174 1918.23 529.984C1926.68 556.716 1953.46 501.376 2010.64 491.179C2136.12 468.802 2201.49 560.265 2188.87 687.159C2185.69 719.051 2202.05 759.644 2194.3 781.838C2185.24 807.782 2201.42 830.932 2225.86 854.516C2183.5 937.593 2192.67 999.845 2227.38 1076.22C2297.11 1229.68 2324.6 1360.74 2217.61 1482.7C2159.74 1556.97 2148.49 1665.4 2194.3 1749.15C2235.9 1825.22 2291.3 1852.87 2218.19 1974.92C2211.33 1986.37 2207.04 1996.72 2204.78 2006.4C2147.05 2003.83 2092.37 2007.54 2070.94 2034.32C2024 2092.98 2046.96 2150.66 2139.9 2166.6C2178.46 2173.22 2217.24 2179.87 2242 2195.08C2242 2195.08 2252.01 2175.43 2254.36 2167.84C2254.02 2143.81 2242.17 2121.02 2230.13 2097.89L2230.13 2097.88C2228.76 2095.24 2227.4 2092.66 2226.07 2090.13C2210.17 2059.86 2197.8 2036.29 2204.78 2006.4C2304.66 2010.83 2413.68 2034.04 2375.41 1988.98C2335.06 1941.48 2361.27 1818.79 2352.68 1774.32C2271.51 1664.01 2369.33 1600.52 2432.25 1545.5C2584.88 1412.01 2366.68 1134.07 2337.53 986.396C2326.81 932.127 2265.48 892.751 2225.86 854.516C2233.56 839.409 2242.97 823.612 2254.24 806.917C2332.79 690.526 2301.79 630.291 2276.53 581.215L2276.12 580.43C2283.22 530.117 2260.22 472.077 2179.47 463.104C2178.94 462.74 2178.4 462.382 2177.87 462.031C2156.77 217.881 2015.32 379.136 1898.67 320.246C1860.51 302.652 1797.4 303.718 1741.16 328.838C1700.71 346.9 1675.75 357.482 1631.72 384.549C1578.39 417.336 1513.02 422.844 1434.88 402.389C1340.91 377.791 1252.46 335.71 1155.92 380.849C1067.71 422.09 1001.31 466.274 917.655 422.426C858.301 391.316 817.329 370.459 755.983 361.847C668.12 349.512 596.603 357.495 529.468 379.374C512.889 384.777 496.727 390.724 480.639 396.643L480.633 396.645L480.601 396.657C403.476 425.034 328.083 452.774 216.969 416.983C98.3124 382.213 62.7847 240.545 -147.312 330.008C-259.38 287.005 -400.954 296.964 -386.309 432.103C-464.047 452.308 -513.492 559.691 -448.769 745.077C-418.858 830.765 -444.977 918.274 -497.835 990.984C-566.859 1083.27 -537.866 1157.3 -514.741 1182.78C-523.091 1105.9 -430.209 1071.52 -395.025 1032.01L-395.023 1032.01C-353.085 984.907 -313.106 940.009 -353.494 839.271C-398.303 727.505 -373.71 530.078 -282.557 562.801C-218.54 585.782 -145.797 549.725 -158.042 471.875Z" fill="#1A003E"/>
<path d="M1664.8 364.428C1707.73 337.072 1716.87 330.255 1764.49 320.029C1731.24 333.237 1715.41 339.83 1690.27 364.069C1663.05 390.323 1645.25 401.009 1609.76 412.974C1574.26 424.94 1521.23 421.123 1507.87 414.412C1565.87 412.974 1611.15 398.624 1664.8 364.428Z" fill="#07000F"/>
<path d="M2365 582.378C2365 582.378 2447.27 462.645 2290 424.257C2290 424.257 2284.01 341.43 2241.69 306.367C2165.9 243.565 2090.25 317.726 1938.86 298.746C1938.86 298.746 2131.59 384.716 2168.35 417.362C2225.34 467.973 2255.15 548.974 2311.45 556.012C2311.45 556.012 2316.84 603.068 2365 582.378Z" fill="#27005C"/>
<path d="M-43.2198 446.073C-49.0705 408.869 -32.3691 394.596 3.27066 387.05C83.2013 377.556 148.184 389.029 220.663 415.28C370.848 469.674 433.836 514.18 645.836 463.119C758.702 435.935 837.611 430.721 942.837 475.913C1089.26 538.796 1145.52 508.014 1208.83 473.37C1244.23 454.001 1281.84 433.425 1338.64 427.335C1375.02 423.435 1419.85 434.405 1466.33 445.777C1513.24 457.257 1561.83 469.147 1605.1 466.568C1682.74 461.94 1693.73 460.187 1746.54 427.335C1759.47 419.293 1779.86 424.383 1796.11 414.918C1873.47 377.882 1983.65 428.937 2000.66 482.746C2009.1 509.479 2068.28 475.574 2125.46 465.377C2250.94 443 2316.31 534.463 2303.69 661.357C2300.51 693.249 2316.87 733.843 2309.12 756.036C2300.06 781.98 2316.24 805.13 2340.68 828.715C2298.32 911.792 2307.49 974.043 2342.2 1050.41C2411.93 1203.88 2439.42 1334.94 2332.43 1456.9C2274.56 1531.17 2263.31 1639.6 2309.12 1723.35C2350.73 1799.42 2406.12 1827.07 2333.01 1949.12C2326.15 1960.57 2321.86 1970.91 2319.6 1980.6C2261.87 1978.03 2207.19 1981.74 2185.76 2008.52C2138.82 2067.18 2161.79 2124.86 2254.72 2140.8L2254.72 2140.8C2293.28 2147.42 2332.06 2154.07 2356.82 2169.28C2356.82 2169.28 2366.84 2149.63 2369.18 2142.04C2368.84 2118.01 2356.99 2095.22 2344.95 2072.09L2344.95 2072.08C2343.58 2069.44 2342.22 2066.86 2340.89 2064.33C2325 2034.06 2312.62 2010.49 2319.6 1980.6C2419.48 1985.03 2528.5 2008.24 2490.23 1963.18C2449.89 1915.68 2476.09 1792.98 2467.5 1748.52C2386.33 1638.2 2484.16 1574.72 2547.07 1519.7C2699.7 1386.2 2481.5 1108.27 2452.35 960.594C2441.63 906.325 2380.3 866.949 2340.68 828.715C2348.38 813.607 2357.79 797.811 2369.06 781.116C2447.61 664.724 2416.61 604.489 2391.35 555.414L2390.95 554.629C2398.04 504.316 2375.04 446.275 2294.29 437.302C2293.76 436.938 2293.22 436.58 2292.69 436.229C2271.59 192.079 2130.14 353.334 2013.49 294.444C1975.33 276.85 1912.23 277.916 1855.98 303.036C1815.53 321.099 1790.57 331.68 1746.54 358.747C1693.21 391.535 1627.84 397.042 1549.7 376.587C1455.73 351.99 1367.28 309.909 1270.74 355.047C1182.53 396.289 1116.14 440.472 1032.48 396.624C973.123 365.514 932.151 344.658 870.805 336.045C782.942 323.71 711.424 331.693 644.29 353.572C627.711 358.975 611.549 364.922 595.461 370.841L595.455 370.843L595.423 370.855C518.298 399.232 442.905 426.972 331.791 391.181C213.134 356.412 177.606 214.743 -32.4899 304.206C-144.558 261.204 -286.133 271.162 -271.488 406.301C-349.226 426.506 -398.67 533.889 -333.948 719.275C-304.037 804.964 -330.156 892.472 -383.013 965.183C-452.038 1057.47 -423.044 1131.5 -399.919 1156.98C-408.269 1080.1 -315.387 1045.72 -280.203 1006.21L-280.202 1006.21C-238.263 959.106 -198.285 914.208 -238.672 813.469C-283.481 701.703 -258.888 504.276 -167.735 536.999C-103.719 559.981 -30.9752 523.923 -43.2198 446.073Z" fill="#27005C"/>
<path d="M1779.62 338.625C1822.55 311.269 1831.69 304.452 1879.31 294.227C1846.06 307.434 1830.23 314.027 1805.1 338.266C1777.87 364.52 1760.08 375.206 1724.58 387.171C1689.08 399.137 1636.05 395.321 1622.69 388.609C1680.69 387.171 1725.97 372.821 1779.62 338.625Z" fill="#27005C"/>
<path d="M-183.034 474.048C-183.034 474.048 -202.321 392.506 -103.944 353.798C-103.944 353.798 -124.499 293.151 -73.6508 258.538C-20.343 222.25 56.6914 225.221 157.831 265.419C157.831 265.419 94.6231 254.476 62.9668 284.229C13.8908 330.356 -10.5435 394.04 -60.1001 401.661C-60.1001 401.661 -139.98 491.123 -183.034 474.048Z" fill="#6027AE"/>
<path d="M235.394 414.728C229.544 377.523 246.245 363.25 281.885 355.705C361.816 346.21 426.798 357.684 499.278 383.935C649.463 438.329 712.45 482.834 924.45 431.774C1037.32 404.59 1116.22 399.376 1221.45 444.567C1367.87 507.451 1424.13 476.668 1487.45 442.024C1522.85 422.655 1560.45 402.079 1617.25 395.99C1653.64 392.089 1698.47 403.059 1744.94 414.432C1791.85 425.911 1840.44 437.801 1883.72 435.222C1961.36 430.594 1972.34 428.841 2025.16 395.99C2038.09 387.948 2058.48 393.037 2074.72 383.572C2152.09 346.537 2262.27 397.591 2279.27 451.4C2287.72 478.133 2346.89 444.229 2404.07 434.032C2529.55 411.655 2594.93 503.118 2582.3 630.011C2579.13 661.904 2595.48 702.497 2587.73 724.691C2578.68 750.634 2594.85 773.784 2619.29 797.369C2576.93 880.446 2586.11 942.698 2620.81 1019.07C2690.55 1172.53 2718.04 1303.6 2611.05 1425.55C2553.18 1499.82 2541.93 1608.26 2587.73 1692C2629.34 1768.07 2684.74 1795.73 2611.63 1917.77C2604.77 1929.22 2600.48 1939.57 2598.21 1949.25C2540.48 1946.69 2485.8 1950.39 2464.37 1977.17C2417.43 2035.83 2440.4 2093.51 2533.33 2109.46L2533.34 2109.46C2571.9 2116.07 2610.67 2122.73 2635.44 2137.94C2635.44 2137.94 2645.45 2118.28 2647.79 2110.69C2647.45 2086.66 2635.6 2063.88 2623.57 2040.74L2623.56 2040.73C2622.19 2038.1 2620.84 2035.51 2619.51 2032.98C2603.61 2002.71 2591.23 1979.15 2598.21 1949.25C2698.1 1953.69 2807.11 1976.89 2768.84 1931.83C2728.5 1884.33 2754.7 1761.64 2746.11 1717.17C2664.94 1606.86 2762.77 1543.38 2825.68 1488.35C2978.31 1354.86 2760.11 1076.92 2730.96 929.248C2720.25 874.979 2658.92 835.603 2619.29 797.369C2627 782.261 2636.4 766.465 2647.67 749.77C2726.23 633.378 2695.22 573.144 2669.96 524.068L2669.56 523.283C2676.65 472.97 2653.66 414.929 2572.91 405.957C2572.37 405.592 2571.84 405.235 2571.3 404.883C2550.2 160.733 2408.75 321.989 2292.1 263.098C2253.95 245.505 2190.84 246.57 2134.59 271.691C2094.15 289.753 2069.19 300.334 2025.16 327.401C1971.83 360.189 1906.45 365.696 1828.32 345.242C1734.35 320.644 1645.9 278.563 1549.35 323.702C1461.15 364.943 1394.75 409.127 1311.09 365.278C1251.74 334.168 1210.77 313.312 1149.42 304.7C1061.56 292.365 990.039 300.347 922.904 322.226C906.326 327.629 890.164 333.576 874.077 339.495L874.069 339.497L874.037 339.509C796.912 367.887 721.519 395.627 610.405 359.835C491.748 325.066 456.221 183.397 246.124 272.861C134.056 229.858 -7.51845 239.816 7.12675 374.956C-70.6111 395.16 -120.056 502.543 -55.3334 687.929C-25.4224 773.618 -51.5412 861.127 -104.399 933.837C-173.423 1026.12 -144.43 1100.16 -121.305 1125.64C-129.655 1048.76 -105.184 1010.51 -69.9999 970.999C-28.0609 923.899 47.5145 885.072 7.12675 784.332C-37.6822 672.566 19.7259 472.931 110.879 505.654C174.896 528.635 247.639 492.577 235.394 414.728Z" fill="#6027AE"/>
<path d="M148.595 381.347C165.072 317.377 71.3324 298.374 39.2342 331.569C7.13289 364.752 36.6196 394.9 36.6196 394.9C15.1444 368.508 60.44 318.738 108.546 353.787C156.648 388.823 128.687 460.232 69.6193 470.538C-0.215375 484.711 -56.9402 429.688 -58.9533 428.428C17.1925 520.852 104.255 480.594 104.255 480.594C220.009 435.396 148.595 381.347 148.595 381.347Z" fill="#6027AE"/>
<path d="M2058.24 307.282C2101.16 279.925 2110.3 273.109 2157.93 262.883C2124.67 276.09 2108.84 282.683 2083.71 306.922C2056.48 333.176 2038.69 343.862 2003.19 355.828C1967.69 367.793 1914.67 363.977 1901.3 357.265C1959.3 355.828 2004.58 341.477 2058.24 307.282Z" fill="#6027AE"/>
<path d="M-131.965 473.691C-131.965 473.691 -147.414 408.371 -68.6093 377.365C-68.6093 377.365 -85.0751 328.783 -44.3431 301.056C-1.64073 271.987 60.0678 274.367 141.086 306.568C141.086 306.568 90.4531 297.802 65.0948 321.636C25.7823 358.586 6.20921 409.601 -33.4883 415.705C-33.4883 415.705 -97.4762 487.369 -131.965 473.691Z" fill="#8A2262"/>
<path d="M2140.7 497.965C2140.7 497.965 2198.94 413.208 2087.61 386.034C2087.61 386.034 2083.38 327.403 2053.42 302.582C1999.76 258.127 1946.21 310.623 1839.05 297.188C1839.05 297.188 1975.48 358.044 2001.5 381.153C2041.84 416.979 2062.94 474.318 2102.79 479.3C2102.79 479.3 2106.61 512.61 2140.7 497.965Z" fill="#8A2262"/>
<path fill-rule="evenodd" clip-rule="evenodd" d="M170.885 384.741C141.324 390.999 127.471 402.838 132.324 433.696C142.48 498.267 82.1445 528.174 29.0472 509.113C-46.5581 481.972 -66.9563 645.723 -29.7904 738.426C3.70849 821.982 -29.4518 859.222 -64.2373 898.289C-93.4199 931.062 -170.459 959.579 -163.534 1023.35C-158.486 1069.82 -252.763 1138.64 -244.325 1176.75C-229.539 1243.52 -251.629 1267.01 -263.176 1342.22C-266.676 1365.02 -203.649 1413.39 -208.715 1430.2C-225.677 1486.48 -220.926 1558.97 -122.975 1653.67C-94.0414 1692.71 -12.9786 1664.45 -32.8212 1689.23C-35.7136 1692.84 -38.5958 1696.44 -41.3137 1700.06C-60.9571 1726.27 -71.5504 1755.66 -25.884 1763.87L-49.0932 1803.82C-143.961 1766.31 -187.326 1741.75 -146.208 1660.6C-120.339 1621.94 -121.737 1597.75 -139.478 1575.98C-144.653 1569.63 -149.785 1563.6 -154.74 1557.77C-174.237 1534.84 -190.981 1515.15 -196.755 1492.27C-210.484 1437.85 -186.584 1394.65 -163.533 1352.99C-157.774 1342.58 -152.07 1332.27 -147.017 1321.9C-118.413 1263.21 -132.959 1192.8 -157.465 1143.04C-220.275 1015.53 -184.093 911.831 -149.511 864.262C-105.67 803.954 -84.0059 731.371 -108.815 660.298C-162.497 506.533 -121.487 417.467 -57.0084 400.708C-69.1555 288.619 48.2709 280.36 141.224 316.027C315.484 241.824 344.952 359.328 443.369 388.167C535.531 417.853 598.064 394.845 662.034 371.308L662.061 371.298C675.406 366.388 688.813 361.455 702.566 356.973C758.249 338.826 817.568 332.204 890.445 342.435C941.327 349.579 975.31 366.878 1024.54 392.681C1093.93 429.051 1149 392.403 1222.16 358.196C1302.24 320.757 1375.6 355.66 1453.54 376.062C1518.35 393.028 1572.57 388.46 1616.81 361.265C1653.33 338.815 1674.03 330.038 1707.58 315.057C1754.23 294.221 1806.57 293.337 1838.22 307.93C1934.98 356.776 2052.3 223.026 2069.8 425.531C2070.24 425.822 2070.69 426.119 2071.13 426.421C2138.11 433.863 2194.64 519.816 2188.76 561.548C2209.77 602.372 2152.26 625.9 2086.76 722.954C2026.02 812.949 2076.85 860.092 2110.86 934.956C2168.71 1062.24 2191.5 1170.95 2102.76 1272.11C2054.76 1333.71 2045.43 1423.65 2083.43 1493.11C2117.94 1556.2 2163.89 1579.14 2103.24 1680.37C2079.99 1719.19 2092.33 1742.69 2109.78 1775.93C2110.89 1778.03 2112.01 1780.17 2113.15 1782.35C2123.13 1801.55 2132.96 1820.45 2133.24 1840.38C2131.3 1846.68 2123 1862.98 2123 1862.98C2102.46 1850.36 2070.29 1844.84 2038.31 1839.36C1961.22 1826.13 1942.17 1778.29 1981.11 1729.64C2029.64 1668.99 2283.73 1751.01 2233.65 1692.03C2200.18 1652.63 2221.92 1550.87 2214.79 1513.99C2147.47 1422.49 2228.61 1369.83 2280.79 1324.19C2407.39 1213.47 2226.41 982.94 2202.23 860.456C2187.86 787.678 2131.6 762.994 2151.3 706.59C2157.72 688.182 2148.67 693.621 2151.3 667.168C2161.77 561.919 2035.17 431.147 1931.09 449.708C1883.67 458.165 1855.57 432.283 1848.56 410.11C1834.46 365.479 1735.23 355.334 1671.06 386.052C1657.59 393.903 1645.88 401.185 1635.16 407.855C1591.35 435.103 1563.89 446.857 1499.5 450.695C1463.6 452.834 1423.3 442.972 1384.39 433.451C1345.84 424.018 1308.66 414.919 1278.48 418.154C1231.37 423.205 1200.18 440.271 1170.82 456.337C1118.3 485.072 1071.64 510.604 950.19 458.446C862.912 420.963 797.463 425.287 703.848 447.835C528.009 490.186 475.765 453.272 351.197 408.156C291.08 386.382 237.182 376.866 170.885 384.741Z" fill="#8A2262"/>
<path d="M133.687 399.434C146.886 348.19 71.7958 332.968 46.0835 359.559C20.3687 386.14 43.9891 410.29 43.9891 410.29C26.7863 389.149 63.0705 349.281 101.606 377.357C140.138 405.423 117.739 462.625 70.4236 470.881C14.4823 482.234 -30.9572 438.158 -32.5698 437.148C28.4269 511.185 98.1686 478.936 98.1686 478.936C190.894 442.73 133.687 399.434 133.687 399.434Z" fill="#8A2262"/>
<path d="M1644.25 344.577C1679.85 321.887 1687.43 316.233 1726.93 307.751C1699.35 318.706 1686.22 324.174 1665.37 344.279C1642.79 366.055 1628.03 374.918 1598.59 384.842C1569.15 394.767 1525.17 391.601 1514.08 386.035C1562.19 384.842 1599.74 372.94 1644.25 344.577Z" fill="#8A2262"/>
<path d="M-88.1005 444.025C-88.1005 444.025 -103.391 379.379 -25.3986 348.692C-25.3986 348.692 -41.6946 300.612 -1.38276 273.171C40.879 244.402 101.951 246.758 182.133 278.626C182.133 278.626 132.023 269.95 106.926 293.539C68.0192 330.108 48.648 380.595 9.36006 386.637C9.36006 386.637 -53.9677 457.562 -88.1005 444.025Z" fill="#FFF742"/>
<path d="M2161.12 468.048C2161.12 468.048 2218.75 384.166 2108.58 357.272C2108.58 357.272 2104.38 299.246 2074.74 274.681C2021.63 230.684 1960.91 290.882 1854.84 277.585C1854.84 277.585 1997.6 329.57 2023.35 352.441C2063.28 387.898 2084.16 444.645 2123.6 449.576C2123.6 449.576 2127.38 482.542 2161.12 468.048Z" fill="#FFF742"/>
<path fill-rule="evenodd" clip-rule="evenodd" d="M211.625 355.991C182.37 362.184 168.66 373.901 173.463 404.441C183.514 468.346 123.801 497.944 71.2515 479.08C-3.57391 452.218 -23.4485 636.586 13.3337 728.332C46.4871 811.027 13.3561 825.577 -21.0706 864.24C-49.952 896.675 -126.197 924.898 -119.342 988.008C-114.347 1034 -207.652 1102.11 -199.3 1139.83C-184.667 1205.91 -206.529 1229.16 -217.957 1303.6C-221.421 1326.16 -159.044 1374.03 -164.058 1390.66C-180.845 1446.37 -176.143 1518.1 -79.202 1611.83C-50.5672 1650.46 29.6594 1622.5 10.0212 1647.02C7.15897 1650.59 4.30634 1654.15 1.61648 1657.74C-17.8242 1683.68 -28.3082 1712.76 16.8869 1720.89L-6.08272 1760.43C-99.9722 1723.31 -142.889 1699 -102.195 1618.69C-76.5938 1580.42 -77.9768 1556.49 -95.5345 1534.94C-100.656 1528.66 -105.735 1522.68 -110.639 1516.92C-129.935 1494.23 -146.506 1474.74 -152.222 1452.09C-165.808 1398.23 -142.155 1355.48 -119.342 1314.25C-113.643 1303.95 -107.997 1293.74 -102.996 1283.48C-74.6874 1225.4 -89.0837 1155.71 -113.336 1106.47C-175.498 980.267 -139.689 877.643 -105.465 830.564C-62.0752 770.878 -40.6349 699.045 -65.1881 628.705C-118.317 476.527 -77.7293 388.379 -13.9162 371.793C-25.9383 260.861 90.2767 252.686 182.271 287.986C354.733 214.548 383.897 330.84 481.299 359.381C572.51 388.762 634.398 365.99 697.708 342.696L697.734 342.686C710.942 337.827 724.211 332.945 737.821 328.509C792.93 310.549 851.637 303.996 923.762 314.122C974.119 321.191 1007.75 338.312 1056.47 363.849C1125.15 399.843 1179.65 363.574 1252.06 329.72C1331.31 292.667 1403.91 327.21 1481.05 347.402C1545.19 364.192 1598.85 359.672 1642.63 332.757C1678.77 310.538 1699.26 301.852 1732.46 287.026C1778.64 266.405 1830.44 265.53 1861.76 279.972C1957.52 328.314 2073.63 195.944 2090.95 396.36C2091.39 396.648 2091.83 396.942 2092.27 397.241C2158.55 404.606 2177.43 452.25 2171.61 493.551C2192.4 533.954 2218.47 583.416 2153.64 679.468C2093.53 768.535 2097.92 826.437 2131.59 900.529C2188.83 1026.5 2211.4 1134.09 2123.57 1234.2C2076.07 1295.17 2066.83 1384.18 2104.44 1452.92C2138.59 1515.36 2184.06 1538.07 2124.05 1638.25C2101.03 1676.68 2113.24 1699.93 2130.52 1732.82C2131.61 1734.9 2132.72 1737.02 2133.85 1739.18C2143.73 1758.18 2153.46 1776.89 2153.74 1796.61C2151.82 1802.84 2143.6 1818.98 2143.6 1818.98C2123.27 1806.49 2091.44 1801.03 2059.78 1795.6C1983.49 1782.51 1964.64 1735.16 2003.17 1687.01C2051.2 1626.99 2302.68 1708.16 2253.1 1649.79C2219.99 1610.8 2241.5 1510.08 2234.45 1473.59C2167.82 1383.03 2248.12 1330.92 2299.76 1285.75C2425.05 1176.17 2245.94 948.018 2222.01 826.798C2207.79 754.771 2084.95 714.703 2104.44 658.882C2110.8 640.663 2097.37 607.341 2099.98 581.162C2110.34 476.998 2056.68 401.918 1953.67 420.287C1906.74 428.657 1878.93 403.043 1871.99 381.098C1858.04 336.928 1759.83 326.887 1696.33 357.288C1682.99 365.058 1671.41 372.265 1660.79 378.866C1617.44 405.834 1590.26 417.466 1526.53 421.264C1491.01 423.381 1451.12 413.621 1412.61 404.198C1374.46 394.862 1337.66 385.857 1307.79 389.059C1261.17 394.058 1230.3 410.948 1201.24 426.848C1149.27 455.286 1103.09 480.555 982.891 428.935C896.513 391.839 831.739 396.119 739.09 418.434C565.065 460.348 513.36 423.814 390.078 379.164C330.581 357.615 277.239 348.197 211.625 355.991Z" fill="#E0349E"/>
<path d="M174.81 370.533C187.874 319.818 113.558 304.753 88.111 331.069C62.6615 357.376 86.0381 381.278 86.0381 381.278C69.0129 360.354 104.923 320.897 143.06 348.684C181.195 376.46 159.028 433.072 112.2 441.242C56.8358 452.478 11.8651 408.857 10.2691 407.858C70.6365 481.131 139.659 449.214 139.659 449.214C231.427 413.382 174.81 370.533 174.81 370.533Z" fill="#FFF742"/>
<path d="M1669.79 316.243C1705.02 293.787 1712.52 288.191 1751.62 279.797C1724.32 290.639 1711.33 296.05 1690.69 315.948C1668.35 337.499 1653.74 346.271 1624.6 356.093C1595.46 365.915 1551.93 362.782 1540.96 357.273C1588.57 356.093 1625.74 344.313 1669.79 316.243Z" fill="#FFF742"/>
</g>
<defs>
<clipPath id="clip0_1652_9866">
<rect width="1920" height="488" fill="white" transform="matrix(1 0 0 -1 0 637.667)"/>
</clipPath>
</defs>
</svg>
