<svg width="510" height="445" viewBox="0 0 510 445" fill="none" xmlns="http://www.w3.org/2000/svg">
<g clip-path="url(#clip0_1713_10550)">
<path d="M169.697 252.653C168.853 252.722 168.058 253.067 167.326 253.493C166.491 253.979 165.274 254.51 164.068 254.402C162.642 254.275 161.178 253.632 159.747 253.614C157.008 253.579 152.535 252.607 150.463 247.058C150.433 246.979 150.405 246.901 150.377 246.823C149.044 243.132 153.966 229.049 155.18 225.317C156.884 220.082 159.578 214.31 163.733 210.693C164.766 209.794 167.155 210.209 166.683 211.495V211.495C166.301 212.537 167.379 214.797 168.282 214.152C170.742 212.393 175.015 210.169 180.228 210.901C181.718 211.11 182.703 212.654 181.32 213.247V213.247C179.866 213.871 179.571 215.601 181.137 215.368C183.289 215.049 185.944 214.87 188.662 215.215C192.261 215.673 191.283 220.026 188.475 222.324C188.261 222.499 188.052 222.684 187.852 222.878C186.676 224.017 186.928 225.847 187.549 227.361C188.3 229.19 188.822 231.879 187.315 234.652C186.976 235.275 186.705 235.937 186.59 236.637C186.017 240.095 183.557 250.851 174.947 252.218L169.697 252.653Z" fill="#F39930"/>
<g filter="url(#filter0_i_1713_10550)">
<path fill-rule="evenodd" clip-rule="evenodd" d="M147.401 198.682C143.841 210.171 153.647 223.688 166.1 228.234C167.474 228.604 170.734 227.387 171.164 226.044C171.594 224.7 176.008 220.138 174.634 219.767C164.779 217.109 153.327 214.132 155.303 203.272C156.359 199.865 157.915 197.696 160.918 196.456C164.528 194.965 167.433 195.309 170.382 197.932C172.973 200.237 174.023 203.759 171.943 206.643C170.056 209.261 165.566 208.668 163.733 205.721C162.582 203.871 163.525 202.508 164.074 202.053C165.064 201.235 166.769 201.584 167.619 203.55C168.143 204.762 168.385 205.877 169.747 205.809C171.844 205.704 170.489 198.98 166.241 197.746C164.073 197.117 161.122 197.284 159.077 198.602C154.607 201.48 154.951 208.513 158.413 212.496C161.082 215.565 165.569 216.591 169.231 215.714C172.841 214.85 176.355 213.403 178.418 208.532C180.696 203.155 178.552 196.947 174.497 192.805C165.785 183.905 150.403 188.996 147.401 198.682Z" fill="#E0349E"/>
</g>
<path d="M408.972 236.565C408.376 285.184 327.559 318.284 270.787 285.296C163.975 267.596 193.521 198.14 197.769 194.625C214.128 181.095 227.248 183.555 247.575 185.106C272.245 186.988 257.756 154.501 273.879 144.053C292.307 132.111 315.864 143.789 322.73 123.149C327.35 109.26 306.862 109.262 301.602 94.7771C296.341 80.2924 310.116 68.5209 309.644 60.2985C309.173 52.0762 301.238 45.0467 296.584 37.7726C293.372 32.7515 294.028 13.8096 300.329 12.6482C306.631 11.4868 305.224 20.9006 312.233 28.7507C319.243 36.6007 345.512 31.0285 345.695 54.1088C345.952 86.6055 380.409 83.3739 400.026 98.0692C422.808 115.135 419.465 144.686 380.41 176.508C358.864 194.064 409.426 199.562 408.972 236.565Z" fill="#AA0052"/>
<path d="M292.385 42.6695C290.386 37.0538 293.607 13.843 299.909 12.6816C301.742 12.343 302.358 12.8696 303.069 13.1087C305.216 32.7939 315.086 35.7399 327.214 38.2775C346.43 42.2979 334.5 61.1758 349.365 80.6821C361.471 96.5687 395.628 93.6974 395.883 123.823C396.068 145.666 374.792 153.959 366.495 162.267C358.198 170.574 355.834 182.435 374.354 212.311C392.874 242.187 365.618 276.598 350.678 283.486C335.739 290.374 289.961 292.538 247.492 277.62C213.518 265.687 195.367 254.748 190.538 250.77C180.143 224.362 191.487 198.841 192.873 195.876C201.395 177.664 217.967 173.068 239.381 170.704C263.974 167.989 249.123 145.391 265.247 134.943C283.674 123.002 314.757 128.06 310.906 119.619C306.272 109.461 302.221 111.503 296.96 97.0182C291.7 82.5335 306.636 70.3491 306.164 62.1268C305.692 53.9044 297.288 56.442 292.385 42.6695Z" fill="#F2EABE"/>
<path d="M292.567 39.3285C290.235 33.8425 293.511 14.5464 299.813 13.3849C298.061 19.7719 296.348 34.4051 309.869 40.6098C327.902 48.1875 326.722 58.8637 324.831 69.3017C322.94 79.7397 317.763 94.9085 352.754 106.548C384.783 117.202 361.24 136.829 349.951 144.144C341.889 149.368 314.745 171.131 334.16 195.726C353.625 220.384 349.372 245.052 324.949 259.064C299.641 273.583 273.357 260.349 237.892 252.239C217.033 247.47 210.914 242.147 197.142 235.985C197.038 216.618 189.266 210.138 190.034 207.791C199.902 177.605 228.057 183.721 248.922 181.203C273.485 178.239 257.756 154.499 273.88 144.05C292.308 132.109 308.037 137.506 317.602 125.458C325 116.139 306.863 109.259 301.602 94.7747C296.341 80.29 310.117 68.5185 309.645 60.2961C309.173 52.0738 299.203 54.9411 292.567 39.3285Z" fill="#F2EABE"/>
<path d="M295.058 40.085C291.714 32.8934 293.436 18.435 299.813 13.3907C297.353 19.6388 293.108 34.1601 306.912 42.2891C325.42 53.1888 321.748 61.9392 317.243 75.4812C311.324 93.2749 322.407 103.217 348.063 111.751C362.298 116.486 362.069 129.058 348.79 135.708C335.511 142.358 317.487 156.956 315.407 173.683C312.103 200.252 341.521 209.247 326.83 234.4C305.993 270.076 213.956 223.73 189.261 213.935C192.077 203.283 196.932 205.99 198.193 204.947C214.551 191.417 230.512 210.265 262.055 203.367C286.226 198.081 263.061 155.432 289.06 145.947C309.888 138.349 317.651 134.163 326.053 129.795C331.392 127.019 335.352 119.395 328.89 114.138C321.492 108.118 308.678 103.144 305.87 95.4131C300.609 80.9284 311.775 68.2892 311.303 60.0668C310.831 51.8445 301.208 53.3151 295.058 40.085Z" fill="#AA0052"/>
<g filter="url(#filter1_i_1713_10550)">
<path d="M319.467 196.327C313.871 184.307 317.935 175.351 306.066 164.793C304.519 163.417 302.149 164.424 301.695 166.444C299.715 175.26 295.691 177.468 285.326 182.197C275.638 186.617 268.392 186.466 260.97 203.909C247.45 205.294 239.929 216.336 227.721 229.042C219.73 234.852 225.319 276.815 230.404 297.727C239.526 293.71 251.321 303.147 261.747 305.96C302.007 316.822 342.375 287.192 328.766 249.744C339.385 231.72 328.335 215.379 319.467 196.327Z" fill="#FFB348"/>
</g>
<g filter="url(#filter2_i_1713_10550)">
<path d="M197.975 393.777C192.481 403.457 189.28 405.303 175.646 409.064C186.459 400.187 184.242 393.785 179.14 389.68C165.816 378.959 163.042 365.458 169.343 359.674C183.731 346.468 161.106 347.113 158.404 337.316C158.404 337.316 192.874 276.296 233.902 240.309L272.5 284.5C251.316 286.269 224.69 289.337 217.963 317.876C213.922 335.02 229.093 363.3 201.674 370.863C195.812 372.48 203.469 384.098 197.975 393.777Z" fill="#E0349E"/>
</g>
<path d="M301.664 188.256C300.502 191.877 299.288 194.381 296.877 195.671C293.229 197.623 291.421 197.642 288.177 200.327C284.869 203.063 284.858 205.27 279.179 206.557C270.594 208.503 268.472 214.783 267.689 225.948C236.979 229.412 210.119 266.825 190.218 304.109L212.119 309.23C211.323 308.955 215.825 305.362 227.887 290.716C242.964 272.409 253.33 299.978 275.852 292.575C298.373 285.171 277.782 263.291 299.798 247.917C314.466 237.675 313.088 219.172 308.464 212.988C303.84 206.803 303.938 207.93 304.993 200.458C305.931 193.818 303.829 189.658 301.664 188.256Z" fill="#FFB348"/>
<path d="M231.272 294.954C259.365 305.015 298.497 295.245 291.508 259.567C299.889 257.229 301.459 246.331 295.402 233.323C296.893 224.084 293.953 215.885 291.938 211.653C289.923 207.422 287.466 204.16 286.031 204.735C284.949 205.168 285.962 207.144 285.518 208.601C283.805 214.22 276.33 209.841 273.059 217.03C260.951 220.408 251.036 216.697 237.451 234.572C223.866 252.447 203.18 284.893 231.272 294.954Z" fill="#FFB348"/>
<g opacity="0.1">
<path d="M265.12 219.955C277.324 216.581 272.81 203.176 272.81 203.176C273.261 198.776 269.975 190.589 269.975 190.589L248.264 214.483L260.303 238.307C271.73 230.72 265.12 219.955 265.12 219.955Z" fill="#2D2D2D"/>
</g>
<path d="M217.319 309.982C217.319 309.982 225.145 297.307 236.825 298.152C247.183 298.901 263.988 301.681 275.259 290.998C285.052 281.716 290.807 271.638 286.341 258.535C287.323 257.219 289.647 255.963 291.868 253.686C294.5 250.989 293.512 248.867 292.938 247.377C289.095 250.208 287.454 246.414 288.95 245.151C295.448 239.665 291.029 238.459 291.239 232.553C290.587 232.835 288.798 233.328 288.437 236.072C288.177 238.05 286.555 239.614 285.478 238.914C283.385 237.553 284.688 234.613 286.394 233.875C292 231.449 291.723 226.316 290.031 219.037C289.692 217.579 288.787 214.478 287.908 214.129C287.228 213.86 287.515 215.87 286.862 216.765C285.926 218.048 284.55 218.541 283.446 218.972C275.24 222.176 277.424 229.533 274.175 227.43C271.933 225.978 278.187 224.09 274.201 221.183C272.883 223.542 267.395 222.568 265.931 232.38C264.855 239.592 260.605 239.611 258.777 240.976C258.388 241.267 258.365 241.794 258.576 242.231C260.797 246.844 272.842 273.162 263.119 282.421C252.447 292.584 209.803 288.319 217.319 309.982Z" fill="#F2EABE"/>
<path d="M136.371 315.429C136.371 315.429 172.249 307.728 196.605 294.09C220.963 280.452 244.301 283.995 251.358 277.097C258.415 270.201 254.992 247.76 245.162 248.726C235.332 249.692 227.505 265.353 220.502 270.587C213.5 275.819 197.137 277.703 199.565 279.08C201.993 280.456 206.469 287.653 196.075 289.189C185.681 290.722 171.848 277.959 156.413 267.595C140.978 257.232 118.918 253.987 103.177 263.387C89.3639 271.637 94.3802 283.155 105.112 294.322C115.844 305.489 130.627 314.029 136.371 315.429Z" fill="#760B10"/>
<path d="M245.168 248.74C235.338 249.706 227.51 265.368 220.508 270.601C213.506 275.833 197.143 277.717 199.571 279.094C201.999 280.471 206.474 287.668 196.081 289.203C187.465 290.475 176.486 281.922 164.191 273.057L164.424 277.208C164.424 277.208 179.375 289.52 175.431 293.701C171.486 297.882 136.683 320.214 117.745 305.34C115.658 303.701 114.015 302.836 112.771 302.601C120.374 309.078 122.701 312.384 131.48 314.172C140.259 315.96 194.412 323.882 196.611 294.104C220.97 280.467 244.307 284.009 251.364 277.113C258.42 270.216 254.998 247.774 245.168 248.74Z" fill="#610810"/>
<path d="M155.286 287.211C156.911 285.443 153.808 269.092 153.156 265.988C149.071 264.499 135.837 260.36 135.66 261.301C135.439 262.477 135.943 268.964 139.004 274.564C142.065 280.164 150.304 292.634 155.286 287.211Z" fill="#F9F9F9"/>
<path d="M139.004 274.565C142.065 280.165 150.304 292.634 155.287 287.211C153.004 289.175 150.866 286.854 146.497 282.4C141.797 277.607 139.215 271.91 139.286 270.327C139.375 268.32 147.409 271.851 151.801 274.315L149.892 264.875C144.411 263.081 135.803 260.545 135.66 261.302C135.439 262.478 135.943 268.965 139.004 274.565Z" fill="#F9F9F9"/>
<path d="M136.081 282.601C136.217 279.796 135.769 264.838 135.13 261.79C131.054 260.341 118.007 257.372 117.826 258.298C117.6 259.454 118.059 263.945 120.904 271.82C123.748 279.696 135.595 292.605 136.081 282.601Z" fill="#F9F9F9"/>
<path d="M120.904 271.82C123.748 279.696 135.595 292.605 136.08 282.601C136.114 281.918 136.206 281.348 136.175 279.57C136.183 280.141 135.382 281.916 131.928 281.93C126.735 281.95 121.454 269.534 118.399 263.43C118.873 265.583 119.66 268.379 120.904 271.82Z" fill="#F9F9F9"/>
<path d="M116.834 274.035C119.476 270.879 119.239 264.078 118.026 261.233C113.39 259.97 97.8913 263.072 98.02 263.976C98.1809 265.105 101.344 271.051 104.807 274.318C108.27 277.585 115.46 275.676 116.834 274.035Z" fill="#F9F9F9"/>
<path d="M98.019 263.975C98.1799 265.105 101.418 271.339 104.806 274.317C108.194 277.296 113.394 276.648 116.755 274.184C117.398 273.712 117.739 272.792 117.828 272.388C113.438 275.402 106.182 275.754 103.273 270.65C99.6374 264.269 101.401 264.027 102.926 263.643L113.531 260.969C107.189 261.258 97.9194 263.275 98.019 263.975Z" fill="#F9F9F9"/>
<path d="M142.515 332.316C142.515 332.316 141.55 327.831 144.538 317.64C147.847 306.36 153.863 292.486 165.962 299.862C178.062 307.238 175.377 306.802 176.634 304.584C177.892 302.365 177.811 290.207 189.126 280.452C200.442 270.699 227.867 250.933 240.518 249.406C253.17 247.878 259.192 269.385 253.548 275.381C247.905 281.378 226.11 282.354 217.574 291.513C209.038 300.674 204.601 321.889 187.549 325.059C170.497 328.226 142.515 332.316 142.515 332.316Z" fill="#AA0052"/>
<path fill-rule="evenodd" clip-rule="evenodd" d="M37.0956 164.274C40.3252 166.926 44.5498 170.396 47.909 175.33C48.8722 176.744 49.7341 178.216 50.5148 179.758C51.1763 180.828 51.597 181.727 51.9276 182.433C52.535 183.73 52.8383 184.378 53.7723 184.247C54.2885 184.174 54.7713 183.848 55.27 183.511C56.178 182.898 57.1388 182.249 58.4507 183.03C60.4831 184.239 60.7299 186.611 58.9094 186.867C58.1355 186.976 57.1064 186.686 56.1951 186.429C54.9629 186.082 53.9464 185.796 54.0682 186.638C54.8934 192.342 56.2704 198.244 58.1922 203.72C58.4858 206.444 58.078 209.133 58.919 211.879C59.5323 213.882 60.3606 215.726 60.6785 216.947C61.1573 218.787 61.4637 219.965 62.5674 219.957C63.2185 219.953 63.8694 219.629 64.5418 219.295C65.7661 218.687 67.0616 218.044 68.5584 219.225C70.877 221.056 70.7951 224.029 68.4996 224.044C67.5236 224.051 66.2968 223.523 65.2106 223.055C63.7417 222.423 62.53 221.901 62.5433 222.962C62.1637 226.785 65.7802 236.079 69.7758 241.614C71.6531 248.257 73.9197 253.516 79.519 256.133C82.1018 257.939 82.1192 248.651 85.629 251.168C89.387 255.192 79.9628 254.946 85.1239 260.667C90.7379 266.891 101.734 264.81 110.542 263.023C111.478 262.833 112.888 262.585 114.657 262.274C127.143 260.076 157.205 257.101 164.754 246.878C164.028 244 164.655 241.773 165.301 239.476C166.136 236.51 172.172 230.891 170.203 226.136C149.57 218.199 144.742 199.253 144.68 199.198C144.232 198.991 142.702 198.456 142.478 200.553C142.318 202.058 139.961 202.933 139.314 201.727C138.668 200.521 139.635 198.717 141.137 198.882C143.222 199.112 143.643 198.084 143.227 197.384C140.799 193.3 135.724 190.721 133.937 186.786C133.729 186.328 133.604 186.054 132.962 185.905C131.882 185.654 130.297 187.634 130.995 189.246C131.692 190.859 129.468 192.244 128.214 191.59C126.96 190.936 126.744 188.191 128.43 187.461C131.584 186.097 131.383 184.531 129.898 182.781C126.988 179.353 124.138 178.038 121.304 175.614C120.791 175.175 120.545 174.769 120.347 174.442C120.241 174.267 120.148 174.114 120.036 173.992C119.942 173.921 119.847 173.851 119.752 173.78C119.624 173.719 119.467 173.682 119.263 173.672C118.157 173.62 117.533 175.362 117.931 177.073C118.22 178.315 117.213 179.192 115.864 178.774C114.515 178.356 114.565 176.768 115.363 175.763C117.499 173.07 117.827 172.608 116.063 171.156C110.883 167.648 109.255 167.652 105.723 165.574C105.244 165.292 104.986 164.997 104.778 164.761C104.497 164.439 104.308 164.225 103.788 164.293C102.883 164.411 102.505 166.598 103.081 167.929C103.583 169.091 102.624 170.378 101.171 169.796C100.089 169.363 99.3201 167.369 100.859 166.299C103.188 164.681 102.47 163.635 100.823 162.709C100.767 162.677 100.709 162.645 100.649 162.613C99.3762 162.049 98.0771 161.505 96.751 160.982C94.1632 160.106 92.4976 159.591 88.7336 158.635C88.2171 158.504 87.8825 158.314 87.6109 158.16C87.2157 157.935 86.9538 157.787 86.4592 158.005C85.6247 158.373 85.9019 159.488 86.4774 160.818C86.8345 161.644 86.9877 163.44 85.4332 163.288C84.2753 163.175 82.6207 162.084 84.1784 160.387C86.0981 158.296 84.9821 157.372 83.1458 156.944C82.4573 156.783 81.4721 156.538 80.4407 156.28C76.7442 155.358 73.8213 154.848 69.9244 154.58C69.476 154.55 69.1697 154.442 68.9211 154.355C68.5594 154.229 68.3197 154.145 67.9419 154.401C67.4662 154.724 67.8469 155.454 68.2728 156.271C68.4176 156.549 68.5677 156.837 68.691 157.122C69.0191 157.88 67.9263 159.214 66.6132 159.323C65.635 159.405 64.382 157.868 65.731 157.284C67.9284 156.334 66.6209 154.099 65.0323 154.021C54.8503 153.524 44.0401 151.156 34.3621 156.228C30.0506 158.487 32.6161 160.594 37.0956 164.274Z" fill="#E0349E"/>
<path fill-rule="evenodd" clip-rule="evenodd" d="M36.2119 155.456C35.506 155.699 34.8877 155.958 34.3649 156.232C30.0533 158.491 32.6189 160.599 37.0983 164.278C40.3279 166.931 44.5525 170.401 47.9118 175.334C48.875 176.749 49.7369 178.22 50.5175 179.763C51.179 180.833 51.5997 181.731 51.9303 182.437C52.5377 183.734 52.841 184.382 53.775 184.251C54.2913 184.178 54.774 183.852 55.2727 183.516C56.1808 182.902 57.1416 182.254 58.4535 183.034C60.4859 184.244 60.7326 186.615 58.9122 186.871C58.1383 186.98 57.1091 186.69 56.1979 186.434C54.9657 186.086 53.9491 185.8 54.071 186.642C54.8961 192.347 55.5376 195.985 57.4593 201.461C57.5649 202.44 58.3154 205.679 58.3303 206.654C58.3568 208.39 58.3833 210.125 58.9218 211.884C59.2269 212.88 59.5852 213.837 59.9074 214.698C60.2329 215.567 60.5215 216.338 60.6812 216.951C61.16 218.792 61.4665 219.969 62.5702 219.961C63.2212 219.957 63.8722 219.634 64.5445 219.3C65.7689 218.692 67.0644 218.048 68.5611 219.23C70.8798 221.06 70.7979 224.033 68.5023 224.049C67.5264 224.056 66.2996 223.527 65.2133 223.06C63.7445 222.427 62.5327 221.905 62.546 222.967C62.1665 226.789 65.2297 236.124 69.2253 241.659C71.1286 248.393 72.6011 253.363 79.7548 256.243C82.9701 257.537 83.108 254.393 83.5389 252.481C83.8032 251.309 84.6578 250.787 85.2918 251.319C86.6236 252.439 85.9974 253.313 84.9725 253.986C83.558 254.915 81.4561 258.296 83.9557 261.66C84.769 262.755 85.4466 263.478 86.3339 264.218C91.406 268.122 93.7908 268.885 96.1437 268.011C96.745 267.679 99.0793 265.196 99.6345 264.887C104.921 261.95 101.196 261.253 106.689 259.715C100.782 260.79 94.493 258.992 84.6029 234.141C77.5417 228.722 73.9284 221.563 72.0543 212.032C70.9453 206.392 70.0577 201.581 72.4145 196.363C63.902 193.186 67.4086 186.605 63.3177 180.93C54.8232 169.146 43.3382 157.001 36.2119 155.456Z" fill="#AA0052"/>
<path d="M119.999 224.439C119.999 224.439 139.455 223.475 151.5 223.628C173.341 210.991 170.191 207.679 175.409 206.019C183.38 203.483 190.492 206.667 199.513 199.942C214.614 188.685 223.034 195.999 234.533 199.505C244.093 202.42 253.22 200.477 261.116 188.861C268.963 186.883 264.39 189.844 264.747 195.078C265.104 200.311 246.318 235.676 252.376 230.756C258.436 225.836 261.365 239.785 264.092 239.031C266.82 238.277 266.34 235.704 266.34 235.704C266.34 235.704 272.288 240.165 271.272 248.792C271.272 248.792 274.313 246.096 274.379 242.138C274.379 242.138 284.351 265.344 272.898 274.229C272.898 274.229 277.008 273.169 278.722 270.147C278.722 270.147 278.778 289.912 264.997 294.573C251.217 299.232 239.555 293.106 229.954 297.228C220.353 301.352 217.612 312.389 211.177 324.901C196.322 353.786 155.532 352.415 134.241 330.79C145.917 330.218 156.781 332.099 170.327 328.071C184.092 323.977 195.699 323.701 202.485 310.233C209.271 296.766 216.442 288.602 231.516 284.434C246.592 280.265 258.719 275.213 256.8 266.315C254.88 257.419 247.027 243.827 239.457 249.706C231.887 255.585 225.935 269.835 218.243 273.038C210.552 276.243 199.011 276.42 201.423 278.998C203.835 281.577 202.063 291.099 191.103 288.067C180.142 285.037 150.184 262.487 144.214 260.737C138.244 258.989 110.064 226.08 119.999 224.439Z" fill="#E0349E"/>
<path d="M113.778 260.424C122.85 260.944 138.517 258.625 153.495 269.462C182.133 290.182 189.186 295.828 207.944 284.596C217.073 280.03 222.822 272.971 229.304 259.331C225.147 265.373 199.268 294.333 181.151 278.183C174.343 272.115 173.212 268.256 161.83 259.846C143.846 246.557 136.519 254.691 129.597 242.799C127.438 239.089 137.266 236.285 141.487 226.327C144.998 218.043 139.818 207.834 134.341 203.938C127.211 198.866 123.471 197.483 115.19 200.609C106.847 203.759 106.011 204.86 104.633 205.38C100.174 207.064 100.728 202.928 104.173 202.351C105.477 202.133 111.916 203.694 116.745 195.307C121.945 186.276 114.03 176.382 105.166 175.397C94.5622 174.218 91.4019 185.535 88.2784 184.014C86.4615 183.13 88.6205 180.856 92.4986 178.544C95.557 176.721 94.5429 170.943 89.0632 168.061C83.5836 165.179 78.2262 171.222 77.3342 172.048C76.4423 172.874 75.1076 172.854 76.0766 170.909C77.0456 168.965 76.68 167.001 74.6075 165.57C72.535 164.139 71.1232 165.237 70.4912 165.927C69.8591 166.617 68.1658 168.403 68.2429 167.285C68.3199 166.167 66.5183 165.256 65.3001 166.127C63.2403 167.601 62.1544 164.869 61.5165 165.107C60.8805 165.35 62.1 167.73 63.4038 168.197C65.0336 168.782 66.5577 167.266 66.7757 168.948C66.9938 170.631 67.3688 171.056 68.9633 170.94C70.5579 170.825 71.8197 168.467 72.6346 168.759C73.4495 169.051 70.3757 169.805 71.1746 174.193C71.9497 178.452 77.5611 178.172 79.8647 176.249C82.1684 174.325 85.5034 175.69 82.6956 177.868C81.3019 178.949 76.3574 180.606 76.8605 185.914C77.4299 191.921 80.4246 194.67 85.5035 194.896C90.7238 195.128 99.9973 184.964 102.847 187.989C104.968 190.241 103.071 194.765 93.1498 195.086C81.7377 195.454 77.9186 212.151 86.3911 220.563C97.5587 231.652 109.577 221.827 116.498 216.813C121.801 212.971 124.271 219.962 116.516 222.222C108.762 224.482 100.139 228.648 96.2712 237.726C92.403 246.805 97.8642 259.512 113.778 260.424Z" fill="#AA0052"/>
<path d="M267.31 253.003C267.31 253.003 266.761 255.208 265.58 255.311C264.453 255.408 262.723 257.716 262.723 257.716C262.723 257.716 266.423 254.556 265.674 252.824C266.436 251.519 267.019 250.114 267.061 248.823C267.158 245.891 264.833 242.771 264.833 242.771C264.833 242.771 264.427 246.455 262.686 246.818C260.945 247.182 258.348 249.635 258.348 249.635C258.348 249.635 261.074 245.434 257.716 239.718C257.469 239.297 256.636 236.356 256.314 236.037C262.745 231.038 262.119 227.068 262.119 227.068L234.155 227.418C234.155 227.418 237.278 236.376 245.593 236.676C230.751 241.48 231.014 268.649 212.846 271.384C196.425 273.854 203.737 277.139 201.502 281.079C203.122 291.252 181.898 285.061 179.112 281.053C178.624 280.351 177.726 277.286 174.535 279.492C181.154 283.585 187.284 287.016 191.106 288.073C202.067 291.103 207.013 282.707 204.599 280.129C202.187 277.55 210.555 276.247 218.247 273.044C225.939 269.839 231.89 255.59 239.46 249.71C247.03 243.831 254.884 257.423 256.803 266.321C258.721 275.218 246.596 280.271 231.52 284.438C216.445 288.606 209.275 296.77 202.489 310.237C195.703 323.705 185.177 335.564 170.342 335.57C159.51 336.859 155.286 330.173 139.058 334.264C149.491 344.391 190.652 356.27 214.806 308.038C219.01 299.643 219.198 292.133 227.999 290.01C236.8 287.885 248.178 290.187 258.921 286.56C266.857 283.88 269.901 274.862 268.9 264.788C269.876 261.637 269.026 260.324 268.313 258.026C268.775 255.488 267.918 254.319 267.31 253.003Z" fill="#AA0052"/>
<path d="M220.427 274.337C220.427 274.337 226.709 269.001 230.915 262.969C235.121 256.938 242.835 253.26 247.645 259.194C252.453 265.129 249.289 273.551 239.389 277.421C239.389 277.421 254.665 275.644 256.055 267.533C257.443 259.421 252.144 243.886 243.943 246.926C235.742 249.966 228.369 257.891 220.427 274.337Z" fill="#300375"/>
<path d="M141.315 316.433C141.315 316.433 131.896 313.951 126.701 311.3C116.99 306.346 108.668 297.957 104.293 292.372C92.9376 275.912 98.8649 269.352 103.183 266.387C109.111 262.317 128.291 260.056 147.843 270.886C166.858 281.419 184.834 291.694 190.671 291.935C196.507 292.177 207.929 287.532 209.626 284.54C211.323 281.546 208.962 279.159 204.885 278.947C204.885 278.947 216.4 278.855 221.893 273.008C227.386 267.162 234.503 250.048 242.81 251.77C251.116 253.492 256.003 268.935 245.738 274.658C235.471 280.382 221.135 280.327 212.133 286.524C203.13 292.723 200.021 312.162 184.696 321.07C171.585 328.691 168.383 327.058 143.565 330.313C143.565 330.313 140.155 331.924 134.029 330.477C141.818 344.763 186.464 353.494 206.209 312.279C210.985 302.309 215.83 292.817 223.969 288.713C232.106 284.608 253.391 284.081 260.142 279.433C264.811 276.22 266.951 270.453 266.961 264.068C266.963 262.821 268.179 260.422 267.141 258.923C266.939 257.278 267.931 256.243 266.706 255.213C266.475 256.482 265.721 255.639 264.878 256.394C264.035 257.148 263.565 256.962 263.094 256.776C266.301 254.322 267.338 247.527 265.072 244.227C265.072 244.227 264.337 246.786 263.484 246.863C261.017 247.086 260.115 250.21 257.529 250.218C257.529 250.218 261.901 249.292 259.099 242.134C256.296 234.976 247.126 236.448 237.313 244.932C234.115 247.696 225.405 261.116 225.405 261.116C225.405 261.116 217.954 270.976 211.018 271.687C199.558 272.862 194.265 277.063 198.097 280.102C201.66 282.929 193.86 289.873 179.627 279.383C165.393 268.894 164.98 269.772 156.915 265.201C148.852 260.629 128.658 252.836 112.247 253.971C97.6801 254.978 93.2424 259.7 91.717 269.277C90.522 276.78 99.4796 289.029 106.51 297.442C117.256 310.303 135.141 317.989 141.315 316.433Z" fill="#F2EABE"/>
<path d="M212.149 286.53C203.147 292.729 196.279 310.678 180.847 319.397C169.533 325.789 155.486 328.688 149.049 329.201C142.612 329.715 137.268 330.087 134.34 330.388C140.576 338.009 153.308 341.18 161.094 339.027C171.64 336.112 182.987 329.808 193.325 318.039C199.55 310.953 200.383 303.098 206.541 294.571C210.504 289.084 212.991 284.653 223.584 281.686C219.37 282.862 215.409 284.286 212.149 286.53Z" fill="#300375"/>
<path d="M144.332 293.227C161.264 280.179 167.287 295.905 172.958 284.821C189.91 290.201 187.782 307.904 173.875 307.838C164.052 307.792 157.783 311.294 154.557 322.652C153.135 327.656 149.079 333.954 145.506 339.123C142.023 344.16 129.121 347.476 119.132 344.679C108.905 341.815 98.3743 333.776 107.487 331.479C115.307 329.507 124.578 337.411 130.892 332.41C140.748 322.341 128.329 305.56 144.332 293.227Z" fill="#AA0052"/>
<path d="M173.455 297.235C174.215 297.05 177.717 291.849 176.795 286.868C173.734 284.492 164.799 280.232 156.38 276.734C156.284 278.223 158.777 286.74 161.309 290.772C164.237 295.436 170.63 297.926 173.455 297.235Z" fill="#F9F9F9"/>
<path d="M161.308 290.773C164.237 295.437 170.63 297.926 173.455 297.236C169.954 296.729 164.03 294.553 161.398 288.766C158.726 282.891 157.552 279.02 158.999 279.25C160.157 279.434 167.325 283.94 169.697 284.689C165.962 282.846 160.712 278.535 156.38 276.735C156.284 278.223 158.777 286.741 161.308 290.773Z" fill="#F9F9F9"/>
<path d="M198.186 290.6C197.915 290.62 197.575 290.699 197.165 290.811C186.217 292.595 167.434 281.451 161.527 278.213C155.432 274.872 127.817 253.8 103.35 263.908C95.8997 266.986 94.8384 273.439 95.8663 279.09C97.5391 288.285 107.711 297.494 114.838 303.637C104.507 293.172 88.4412 270.82 106.82 265.136C129.793 258.031 160.897 279.456 173.31 287.02C186.051 294.784 193.865 291.712 197.165 290.811C197.514 290.754 197.854 290.684 198.186 290.6Z" fill="#E0349E"/>
<path d="M132.907 323.731C133.487 323.159 133.383 320.686 135.048 314.638C129.447 312.808 128.276 312.162 121.205 306.44C120.812 308.603 121.674 314.07 123.272 317.044C126.668 323.367 130.353 326.252 132.907 323.731Z" fill="#F9F9F9"/>
<path d="M129.544 322.99C125.699 322.849 123.13 312.767 122.327 307.744L134.428 314.814C134.434 317.723 133.39 323.132 129.544 322.99Z" fill="#F9F9F9"/>
<path d="M115.056 312.734C116.646 313.834 120.93 315.943 121.132 306.325C115.917 302.011 113.925 301.461 108.431 296.13C108.391 298.953 109.56 300.609 110.716 305.195C111.395 307.889 112.423 310.915 115.056 312.734Z" fill="#F9F9F9"/>
<path d="M106.334 303.443C107.406 304.733 109.671 303.196 108.816 295.871C105.589 292.745 103.319 289.717 101.721 285.143C100.924 284.218 101.127 288.383 101.245 289.954C101.562 294.188 103.371 299.875 106.334 303.443Z" fill="#F9F9F9"/>
<path d="M108.816 295.87C106.515 293.64 104.7 291.461 103.269 288.735C103.404 293.133 104.088 301.863 107.756 302.685C108.876 302.403 109.252 299.607 108.816 295.87Z" fill="#F9F9F9"/>
<path d="M103.312 280.139C103.731 284.966 101.102 293.726 99.542 291.049C98.2112 288.764 96.7195 285.437 96.4178 282.222C96.1773 279.659 96.2965 277.187 96.8276 275.422C98.1644 270.979 99.9339 269.309 99.9993 269.5C100.425 270.745 102.893 275.311 103.312 280.139Z" fill="#F9F9F9"/>
<path d="M193.069 307.155C195.428 306.71 200.457 307.49 200.588 310.219C198.917 314.233 188.591 325.571 187.779 325.064C186.764 324.43 186.538 322.376 186.574 318.052C186.609 313.728 188.825 307.956 193.069 307.155Z" fill="#F9F9F9"/>
<path d="M186.575 318.052C186.611 313.728 188.826 307.955 193.07 307.154C194.532 306.879 197.018 307.073 198.73 307.91C197 308.28 193.133 307.931 190.325 311.219C186.87 315.265 188.057 321.679 188.296 324.876C188.04 325.046 187.862 325.115 187.78 325.064C186.765 324.43 186.54 322.376 186.575 318.052Z" fill="#E7E2C1"/>
<path d="M184.097 320.18C186.456 320.621 187.864 323.55 188.848 326.066C185.834 329.2 174.133 334.689 173.56 333.921C172.844 332.963 173.11 332.696 173.878 328.76C174.645 324.823 179.851 319.386 184.097 320.18Z" fill="#F9F9F9"/>
<path d="M173.879 328.76C174.646 324.823 179.852 319.386 184.098 320.18C185.407 320.425 186.423 321.436 187.237 322.717C184.274 321.281 182.13 320.478 178.392 323.756C175.576 326.226 174.316 331.203 174.213 333.943C173.859 334.016 173.63 334.014 173.561 333.922C172.846 332.963 173.111 332.697 173.879 328.76Z" fill="#E7E2C1"/>
<path d="M168.097 329.544C170.492 329.707 173.127 331.147 174.471 334.135C171.844 337.6 160.102 340.739 159.443 340.044C158.62 339.175 159.039 337.396 159.629 334.911C160.22 332.427 163.787 329.251 168.097 329.544Z" fill="#F9F9F9"/>
<path d="M159.63 334.913C160.221 332.429 163.788 329.254 168.098 329.546C170.251 329.692 172.597 330.87 174.026 333.277C172.681 332.164 168.973 330.188 164.908 331.192C160.842 332.195 159.571 337.513 159.444 340.046C158.621 339.177 159.04 337.398 159.63 334.913Z" fill="#E7E2C1"/>
<path d="M184.867 327.497C177.229 334.525 163.812 339.486 157.729 339.498C163.007 341.541 177.557 336.286 184.034 331.279C190.842 326.017 201.91 308.516 204.368 300.951C206.335 294.899 209.993 290.206 215.211 285.716C212.647 287.09 207.773 290.845 205.058 295.816C201.663 302.03 198.236 315.197 184.867 327.497Z" fill="#E0349E"/>
<path d="M262.394 181.668L262.396 181.667L262.397 181.67L262.395 181.671L262.394 181.668Z" fill="#FAC903"/>
<path d="M255.409 234.381C255.409 234.381 269.766 229.761 263.503 212.844C263.503 212.844 274.78 209.368 270.055 195.998C270.055 195.998 269.763 185.706 262.145 177.3C262.145 177.3 243.155 206.847 252.604 216.473C252.604 216.473 247.827 232.9 255.409 234.381Z" fill="#FFB348"/>
<path d="M260.469 211.531C260.469 211.531 268.594 227.62 255.411 234.389C242.228 241.157 224.804 222.376 230.344 211.352C235.884 200.328 251.393 195.101 255.315 186.716C259.237 178.334 253.17 172.853 256.932 173.057C260.693 173.261 269.493 185.879 267.74 196.02C267.74 196.02 275.019 203.887 260.469 211.531Z" fill="#FFB348"/>
<path d="M183.65 235.209C183.65 235.209 183.013 249.2 189.019 254.318C203.32 266.506 217.409 258.953 224.336 241.937C224.336 241.937 229.582 236.404 227.373 230.011C228.233 228.938 229.885 227.267 232.614 225.923L231.699 221.576L183.65 235.209Z" fill="#AA0052"/>
<path fill-rule="evenodd" clip-rule="evenodd" d="M185.646 220.591C183.261 217.755 185.181 210.469 188.318 209.676C192.319 214.704 196.402 213.889 201.106 212.95C204.153 212.342 207.46 211.682 211.173 212.522C216.661 213.764 217.257 219.106 223.237 220.786C223.88 220.966 225.795 219.876 226.237 219.366C226.796 218.721 227.521 217.885 229.591 217.999C230.854 218.07 231.306 216.798 231.788 215.443C232.158 214.403 232.546 213.313 233.331 212.742C234.677 211.763 235.164 211.937 237.699 212.954C234.245 214.151 235.111 217.247 235.972 220.324C236.1 220.781 236.228 221.239 236.342 221.69C237.329 225.608 236.25 228.447 235.148 231.348C235.096 231.484 235.043 231.621 234.992 231.759C233.154 236.617 229.714 238.7 223.696 241.642C223.696 241.642 216.891 254.221 207.96 256.473C203.197 257.674 199.481 257.54 197.151 256.759C189.159 254.084 183.541 248.028 181.532 236.34C175.612 232.204 174.631 226.823 176.339 220.951C177.571 221.232 178.809 220.932 180.105 220.618C181.809 220.205 183.615 219.768 185.646 220.591Z" fill="#F2EABE"/>
<path d="M196.12 253.146C196.12 253.146 187.993 252.592 186.523 238.685C185.6 229.94 194.247 214.676 211.053 219.828C227.089 224.745 220.536 247.758 212.236 251.186L196.12 253.146Z" fill="#FF902F"/>
<path d="M217.017 235.812C219.208 243.735 214.56 251.937 206.635 254.128C198.709 256.32 190.508 251.67 188.317 243.747C186.126 235.821 190.775 227.62 198.7 225.428C206.625 223.237 214.826 227.885 217.017 235.812Z" fill="white"/>
<path d="M195.571 231.939C191.485 233.07 188.595 236.377 187.786 240.26C187.824 241.415 187.995 242.583 188.316 243.747C189.498 248.019 192.429 251.337 196.119 253.147C197.81 253.523 199.613 253.506 201.398 253.012C207.217 251.403 210.629 245.382 209.021 239.563C207.412 233.744 201.391 230.331 195.571 231.939Z" fill="#31010E"/>
<path d="M248.066 261.463C248.456 263.76 248.625 266.416 249.209 269.277C250.046 273.381 249.857 275.712 248.613 276.615C248.414 276.76 248.191 276.867 247.941 276.936C246.725 277.272 244.889 276.698 242.156 275.148C236.447 271.911 232.612 261.301 232.451 260.85L232.415 260.744L232.458 260.64C234.217 256.427 245.398 245.756 248.066 261.463Z" fill="white"/>
<path d="M242.154 275.145C244.887 276.693 246.723 277.269 247.94 276.933C247.999 276.916 248.054 276.889 248.11 276.868C240.467 276.314 234.571 264.452 234.391 261.57C234.212 258.687 240.613 253.367 240.623 253.358C237.035 254.282 233.398 258.383 232.455 260.636L232.411 260.74L232.45 260.847C232.61 261.296 236.444 271.908 242.154 275.145Z" fill="#E7E2C1"/>
<path d="M224.491 270.511C224.491 270.511 230.501 276.757 234.196 276.148C237.892 275.538 231.29 261.908 231.29 261.908C231.29 261.908 226.418 266.141 224.491 270.511Z" fill="white"/>
<path d="M231.292 261.912C231.292 261.912 226.42 266.143 224.493 270.515C224.493 270.515 230.504 276.76 234.198 276.151C235.881 275.874 235.426 272.894 234.434 269.733C234.741 271.069 235.294 273.936 234.665 275.044C233.835 276.51 228.081 272.846 227.099 270.596C226.117 268.348 231.292 261.912 231.292 261.912Z" fill="#E7E2C1"/>
<path d="M173.517 252.407C173.517 252.407 173.069 256.936 177.101 259.221C177.101 259.221 169.887 264.152 173.517 252.407Z" fill="white"/>
<path d="M142.084 209.187C158.889 204.683 176.119 229.113 184.884 255.849C190.55 273.129 200.083 272.87 211.401 272.966C213.752 272.986 216.848 274.3 217.462 276.589C217.573 283.109 209.989 288.42 203.878 290.058C189.374 293.945 179.655 289.258 172.992 278.686C164.505 265.218 168.177 250.199 160.913 233.616C152.587 214.609 139.668 209.834 142.084 209.187Z" fill="white"/>
</g>
<defs>
<filter id="filter0_i_1713_10550" x="146.662" y="188.194" width="32.6846" height="45.5647" filterUnits="userSpaceOnUse" color-interpolation-filters="sRGB">
<feFlood flood-opacity="0" result="BackgroundImageFix"/>
<feBlend mode="normal" in="SourceGraphic" in2="BackgroundImageFix" result="shape"/>
<feColorMatrix in="SourceAlpha" type="matrix" values="0 0 0 0 0 0 0 0 0 0 0 0 0 0 0 0 0 0 127 0" result="hardAlpha"/>
<feOffset dy="5.45773"/>
<feGaussianBlur stdDeviation="3.75219"/>
<feComposite in2="hardAlpha" operator="arithmetic" k2="-1" k3="1"/>
<feColorMatrix type="matrix" values="0 0 0 0 0 0 0 0 0 0 0 0 0 0 0 0 0 0 0.12 0"/>
<feBlend mode="normal" in2="shape" result="effect1_innerShadow_1713_10550"/>
</filter>
<filter id="filter1_i_1713_10550" x="223.714" y="164.159" width="109.405" height="145.436" filterUnits="userSpaceOnUse" color-interpolation-filters="sRGB">
<feFlood flood-opacity="0" result="BackgroundImageFix"/>
<feBlend mode="normal" in="SourceGraphic" in2="BackgroundImageFix" result="shape"/>
<feColorMatrix in="SourceAlpha" type="matrix" values="0 0 0 0 0 0 0 0 0 0 0 0 0 0 0 0 0 0 127 0" result="hardAlpha"/>
<feOffset dy="1.36443"/>
<feGaussianBlur stdDeviation="16.8507"/>
<feComposite in2="hardAlpha" operator="arithmetic" k2="-1" k3="1"/>
<feColorMatrix type="matrix" values="0 0 0 0 0 0 0 0 0 0 0 0 0 0 0 0 0 0 0.12 0"/>
<feBlend mode="normal" in2="shape" result="effect1_innerShadow_1713_10550"/>
</filter>
<filter id="filter2_i_1713_10550" x="158.404" y="240.309" width="114.096" height="170.12" filterUnits="userSpaceOnUse" color-interpolation-filters="sRGB">
<feFlood flood-opacity="0" result="BackgroundImageFix"/>
<feBlend mode="normal" in="SourceGraphic" in2="BackgroundImageFix" result="shape"/>
<feColorMatrix in="SourceAlpha" type="matrix" values="0 0 0 0 0 0 0 0 0 0 0 0 0 0 0 0 0 0 127 0" result="hardAlpha"/>
<feOffset dy="1.36443"/>
<feGaussianBlur stdDeviation="16.8507"/>
<feComposite in2="hardAlpha" operator="arithmetic" k2="-1" k3="1"/>
<feColorMatrix type="matrix" values="0 0 0 0 0 0 0 0 0 0 0 0 0 0 0 0 0 0 0.12 0"/>
<feBlend mode="normal" in2="shape" result="effect1_innerShadow_1713_10550"/>
</filter>
<clipPath id="clip0_1713_10550">
<rect width="510" height="445" fill="white" transform="matrix(-1 0 0 -1 510 445)"/>
</clipPath>
</defs>
</svg>
