<svg width="1920" height="478" viewBox="0 0 1920 478" fill="none" xmlns="http://www.w3.org/2000/svg">
<path d="M886.102 266.874C876.108 282.372 876.239 297.174 876.369 299.981L919.825 298.001C919.825 297.972 920.246 294.215 922.661 290.466C928.963 280.69 944.526 275.193 956.021 274.293C991.448 271.523 1002.86 281.118 1006.35 284.352C1008.19 286.057 1010.31 288.863 1010.31 295.506H1053.82C1053.82 278.159 1047.63 263.263 1035.9 252.413C1018.69 236.487 991.274 230.236 952.097 233.289C913.516 236.299 894.913 253.218 886.102 266.874Z" fill="white" stroke="#300375" stroke-width="5.11284" stroke-miterlimit="10" stroke-linecap="round"/>
<path d="M994.072 261.398L979.299 263.407C966.905 265.097 954.344 265.01 941.972 263.16L930.216 261.398C926.445 261.398 923.392 258.345 923.392 254.574V217.624C923.392 212.438 927.591 208.239 932.776 208.239H991.505C996.69 208.239 1000.89 212.438 1000.89 217.624V254.574C1000.89 258.345 997.836 261.398 994.065 261.398H994.072Z" fill="#FFF742"/>
<path d="M994.108 261.978C983.433 263.102 972.903 265.277 962.14 265.901C954.047 266.481 945.837 266.191 937.758 265.241C935.097 264.958 932.435 264.661 929.773 264.342L930.216 264.378C925.654 264.552 921.296 261.115 920.338 256.625C920.128 255.726 920.084 254.74 920.063 253.826C919.729 242.694 919.337 230.481 919.098 219.414L919.062 217.978V217.616C918.881 211.342 923.435 205.424 929.549 203.974C930.781 203.626 932.188 203.539 933.465 203.51C937.069 203.466 958.057 202.611 962.14 202.473C971.699 202.139 981.257 202.11 990.816 202.415C998.467 202.19 1005.44 208.26 1005.82 215.976C1005.89 217.021 1005.77 218.363 1005.67 219.414C1004.51 231.388 1002.69 243.347 1001.88 255.364C1001.35 259.077 997.858 262.152 994.108 261.985V261.978ZM994.028 260.817C997.328 260.788 1000.14 257.815 999.823 254.537C999.555 250.468 999.185 246.414 998.728 242.346C997.829 234.223 996.697 226.101 995.986 217.971C995.936 217.26 995.653 216.52 995.276 215.94C994.42 214.671 993.013 213.939 991.519 214.055L990.823 214.076C981.264 214.381 971.706 214.352 962.147 214.018C957.129 213.844 937.069 213.018 932.406 212.967C929.802 212.967 927.641 215.396 927.728 217.978L927.692 219.414C927.409 230.851 927.061 243.448 926.698 254.936C926.778 256.988 928.62 258.511 930.658 258.467C941.101 260.346 951.472 262.833 962.133 263.326C972.837 264.059 983.469 262.478 994.036 260.832L994.028 260.817Z" fill="#E0349E"/>
<path d="M923.596 205.324C923.596 205.324 902.528 224.267 881.409 230.576C881.409 230.576 881.902 243.362 893.84 260.564C905.777 277.766 911.992 278.818 911.992 278.818C911.992 278.818 928.157 270.681 939.376 260.172C949.283 250.897 964.447 231.758 959.719 229.931C938.905 221.888 923.588 205.316 923.588 205.316L923.596 205.324Z" fill="#E0349E" stroke="#300375" stroke-width="4.35135" stroke-miterlimit="10" stroke-linecap="round"/>
<path d="M1001.2 200.791C1001.2 200.791 1022.26 219.734 1043.38 226.044C1043.38 226.044 1042.89 238.829 1030.95 256.032C1019.22 272.93 1012.8 274.286 1012.8 274.286C1012.8 274.286 996.634 266.149 985.415 255.64C975.508 246.365 960.344 227.226 965.072 225.398C985.886 217.356 1001.2 200.784 1001.2 200.784L1001.2 200.791Z" fill="#E0349E" stroke="#300375" stroke-width="4.35135" stroke-miterlimit="10" stroke-linecap="round"/>
<path d="M1071.15 247.619C1071.03 247.278 1058.97 215.549 1028.09 204.061C1022.65 202.038 1016.58 200.327 1010.06 198.956C997.48 196.316 988.865 184.691 989.909 171.883C991.156 156.625 1005.46 145.768 1020.45 148.908C1029.54 150.808 1038.11 153.238 1045.92 156.139C1099.54 176.082 1119.19 230.068 1120 232.353L1071.8 249.417L1071.16 247.611L1071.15 247.619Z" fill="white" stroke="#300375" stroke-width="5.11284" stroke-miterlimit="10" stroke-linecap="round"/>
<path d="M989.909 171.891C991.157 156.632 1005.47 145.775 1020.45 148.916C1029.54 150.816 1038.11 153.245 1045.92 156.146C1099.54 176.09 1119.19 230.076 1120 232.36" stroke="#E0349E" stroke-width="5.11284" stroke-miterlimit="10" stroke-linecap="square"/>
<path d="M882.656 234.768L832.34 225.688C832.818 223.048 835.799 209.095 847.765 193.314C858.259 179.477 878.399 160.911 914.733 151.048C918.214 150.105 921.789 149.249 925.459 148.495C940.543 145.384 954.881 156.407 955.969 171.768C956.876 184.568 948.137 195.997 935.576 198.615C933.016 199.152 930.535 199.739 928.135 200.392C910.374 205.215 896.675 213.453 888.509 224.216C884.215 229.88 882.67 234.724 882.663 234.761L882.656 234.768Z" fill="white" stroke="#300375" stroke-width="5.11284" stroke-miterlimit="10" stroke-linecap="round"/>
<path d="M832.34 225.688C832.818 223.048 835.799 209.095 847.765 193.314C858.259 179.477 878.399 160.911 914.733 151.048C918.214 150.105 921.789 149.249 925.459 148.495C940.543 145.384 954.881 156.407 955.969 171.768" stroke="#E0349E" stroke-width="5.11284" stroke-miterlimit="10" stroke-linecap="square"/>
<path d="M1015.21 174.799C1017.96 166.292 1018.51 157.184 1016.48 148.474C1014.61 140.387 1010.39 131.59 1001.27 126.304C980.999 114.555 958.364 116.6 948.211 121.894C938.965 126.717 927.281 134.114 923.546 153.768C920.58 169.36 919.122 184.655 919.753 192.183C920.384 199.711 923.467 216.094 935.462 225.195C947.457 234.297 962.266 233.753 964.485 233.753C966.704 233.753 986.242 232.614 996.468 218.487C1003.79 208.377 1011.44 186.446 1015.21 174.799Z" fill="white" stroke="#300375" stroke-width="4.35135" stroke-miterlimit="10" stroke-linecap="round"/>
<path d="M998.469 162.652C992.747 162.746 986.872 163.428 981.332 164.704C976.306 166.06 970.497 168.374 967.821 172.972C964.361 179.056 963.331 186.287 961.75 193.104C961.482 194.496 960.779 198.166 960.51 199.53C959.923 202.191 959.48 205.056 957.907 207.507C954.759 212.286 948.559 210.64 946.383 205.868C945.491 203.569 945.585 200.915 945.542 198.514C945.672 189.848 947.935 181.29 946.927 172.703C946.223 166.749 943.62 162.703 937.608 160.875C934.112 159.736 930.29 159.352 926.664 159.04C933.916 158.475 943.337 158.562 947.536 165.676C953.65 177.091 948.464 190.617 949.951 202.612C950.045 203.105 950.045 203.642 950.263 204.098C950.727 205.048 951.974 206.252 953.084 206.064C955.187 205.426 955.796 200.683 956.333 198.659C956.833 196.266 957.573 192.466 958.124 190.087C959.945 183.299 961.315 176.04 965.645 170.209C969.315 165.596 975.327 163.624 980.911 162.637C986.778 161.905 992.645 161.825 998.469 162.674V162.652Z" fill="#E0349E"/>
<mask id="mask0_1669_15976" style="mask-type:luminance" maskUnits="userSpaceOnUse" x="919" y="117" width="99" height="117">
<path d="M1015.21 174.799C1017.96 166.292 1018.51 157.184 1016.48 148.474C1014.61 140.387 1010.39 131.59 1001.27 126.304C981 114.555 958.365 116.6 948.212 121.894C938.966 126.717 927.282 134.114 923.547 153.768C920.581 169.36 919.123 184.655 919.754 192.183C920.385 199.711 923.468 216.094 935.463 225.195C947.458 234.297 962.267 233.753 964.486 233.753C966.705 233.753 986.243 232.614 996.469 218.487C1003.79 208.377 1011.44 186.446 1015.21 174.799Z" fill="white"/>
</mask>
<g mask="url(#mask0_1669_15976)">
<path d="M965.414 156.915C980.049 156.915 991.914 145.051 991.914 130.416C991.914 115.78 980.049 103.916 965.414 103.916C950.778 103.916 938.914 115.78 938.914 130.416C938.914 145.051 950.778 156.915 965.414 156.915Z" fill="#1A003E"/>
<path d="M1022.14 185.512C1037.88 185.512 1050.63 173.648 1050.63 159.012C1050.63 144.377 1037.88 132.512 1022.14 132.512C1006.4 132.512 993.646 144.377 993.646 159.012C993.646 173.648 1006.4 185.512 1022.14 185.512Z" fill="#1A003E"/>
</g>
<path d="M973.493 185.17C975.516 180.558 980.223 177.766 984.901 176.417C987.287 175.757 989.767 175.597 992.233 175.575C993.741 175.568 994.952 176.975 994.909 178.44C994.72 181.421 991.747 181.116 989.578 181.29C987.91 181.37 986.264 181.617 984.669 182.11C982.203 182.828 979.947 184.068 977.685 185.25C976.633 185.794 975.545 186.258 974.421 186.642C973.435 186.933 973.014 185.968 973.493 185.185V185.17Z" fill="#E0349E"/>
<path d="M928.601 174.653C931.531 170.614 937.369 177.859 939.167 180.288C940.741 182.863 941.938 186.01 941.329 189.056C940.379 190.855 939.051 188.172 938.384 187.425C936.897 185.372 935.432 183.291 933.496 181.637C932.205 180.281 930.588 179.353 929.079 178.28C928.035 177.424 927.847 175.763 928.601 174.653Z" fill="#E0349E"/>
<path d="M1003.78 178.824C1003.78 178.824 1008.82 168.018 1020.84 170.868C1031.73 173.45 1029.47 187.621 1026.67 193.575C1023.88 199.529 1017.14 202.64 1009.59 200.146C1005.7 198.855 1004.04 196.853 1004.04 196.853" fill="white"/>
<path d="M1003.78 178.824C1003.78 178.824 1008.82 168.018 1020.84 170.868C1031.73 173.45 1029.47 187.621 1026.67 193.575C1023.88 199.529 1017.14 202.64 1009.59 200.146C1005.7 198.855 1004.04 196.853 1004.04 196.853" stroke="#300375" stroke-width="4.35135" stroke-miterlimit="10" stroke-linecap="round"/>
</svg>
