<svg width="1920" height="478" viewBox="0 0 1920 478" fill="none" xmlns="http://www.w3.org/2000/svg">
<path d="M1607.9 211.105C1603.72 203.261 1606.69 193.512 1614.54 189.333L1665.64 161.386L1680.78 189.794L1629.68 217.741C1621.83 221.921 1612.08 218.954 1607.91 211.105H1607.9Z" fill="white" stroke="#300375" stroke-width="3.45888" stroke-miterlimit="10"/>
<path d="M1607.9 211.105C1603.72 203.261 1606.69 193.512 1614.54 189.333L1665.64 161.386" stroke="#E0349E" stroke-width="3.90162" stroke-miterlimit="10" stroke-linecap="square"/>
<path d="M1569.19 239.948L1537 239.514C1537.03 237.689 1537.4 221.315 1542.93 208.085C1547.14 198.02 1554.86 190.149 1563.79 188.169C1572.27 186.291 1580.86 189.452 1582.33 198.009V198.041C1583.78 206.244 1577.4 212.007 1573.71 219.475C1570.02 226.927 1569.25 236.182 1569.2 239.948H1569.19Z" fill="white" stroke="#300375" stroke-width="3.90162" stroke-miterlimit="10" stroke-linecap="round"/>
<path d="M1537 239.519C1537.03 237.695 1537.4 221.32 1542.93 208.09C1547.14 198.025 1554.86 190.154 1563.79 188.174C1572.27 186.297 1580.85 189.457 1582.32 198.014V198.046" stroke="#E0349E" stroke-width="3.90162" stroke-miterlimit="10" stroke-linecap="square"/>
<path d="M1595.64 265.642C1595.62 263.705 1595.72 261.613 1595.83 259.397C1596.29 249.809 1596.24 242.974 1591.38 242.518C1588.88 242.765 1586.05 243.538 1583.65 248.828C1582.37 251.655 1582.26 259.027 1582.71 265.073C1582.72 265.202 1582.72 265.272 1582.72 265.277L1582.7 266.946L1557.08 266.769L1557.11 265.068C1557.11 264.95 1557.1 264.612 1557.08 264.102C1556.56 250.088 1557.23 240.753 1559.07 236.359C1562.57 227.979 1565.85 222.839 1570.05 219.18C1574.82 215.027 1580.88 212.806 1589.12 212.2C1589.82 212.146 1590.56 212.119 1591.31 212.119C1602.62 212.119 1616.97 217.619 1623.52 229.905C1628.39 239.036 1629.08 257.75 1629.16 265.374L1629.18 267.053L1595.66 267.31L1595.64 265.637V265.642Z" fill="white"/>
<path d="M1591.32 213.798C1600.75 213.798 1615.32 218.079 1622.05 230.693C1626.74 239.502 1627.42 257.889 1627.49 265.389L1597.32 265.62C1597.23 256.193 1600.15 241.434 1591.37 240.828C1588.11 241.128 1584.75 242.319 1582.12 248.13C1580.01 252.792 1581.05 265.207 1581.05 265.255L1558.8 265.1C1558.82 264.123 1557.66 244.111 1560.63 237.002C1566.68 222.495 1573.13 215.059 1589.25 213.873C1589.91 213.825 1590.6 213.798 1591.32 213.798M1591.32 210.445C1590.53 210.445 1589.75 210.472 1589 210.525C1570.91 211.861 1563.76 220.767 1557.52 235.709C1555.57 240.393 1554.87 249.702 1555.41 264.161C1555.42 264.606 1555.43 264.917 1555.44 265.062L1555.37 268.437L1558.77 268.458L1581.02 268.614L1584.33 268.635L1584.4 265.33C1584.4 265.164 1584.4 265.051 1584.38 264.939C1583.96 259.289 1584.02 252.051 1585.17 249.514C1587.16 245.13 1589.25 244.428 1591.39 244.197C1592.22 244.283 1593.3 244.664 1593.93 247.759C1594.55 250.871 1594.35 255.163 1594.15 259.305C1594.04 261.548 1593.94 263.662 1593.96 265.652L1593.99 269L1597.34 268.973L1627.5 268.742L1630.86 268.716L1630.83 265.357C1630.74 255.737 1629.86 238.236 1624.99 229.116C1621.64 222.833 1616.15 217.768 1609.11 214.474C1603.62 211.91 1597.14 210.439 1591.31 210.439L1591.32 210.445Z" fill="#300375"/>
<path d="M1616.84 236.316L1606.39 237.802C1597.63 239.052 1588.74 238.988 1579.99 237.62L1571.68 236.316C1569.02 236.316 1566.86 234.057 1566.86 231.267V203.932C1566.86 200.096 1569.83 196.989 1573.5 196.989H1615.03C1618.69 196.989 1621.67 200.096 1621.67 203.932V231.267C1621.67 234.057 1619.5 236.316 1616.84 236.316H1616.84Z" fill="#FFF742"/>
<path d="M1616.87 236.734C1609.32 237.571 1601.88 239.17 1594.26 239.599C1588.53 240.012 1582.72 239.782 1577 239.079C1575.12 238.875 1573.24 238.644 1571.35 238.414L1571.68 238.44C1568.59 238.537 1565.74 236.332 1564.85 233.424C1564.57 232.555 1564.48 231.611 1564.47 230.709C1564.23 222.64 1563.94 213.788 1563.77 205.767C1563.77 205.461 1563.72 204.511 1563.73 204.205C1563.59 200.965 1565.02 197.681 1567.61 195.686C1569.25 194.382 1571.36 193.636 1573.46 193.582L1577.63 193.464L1594.26 192.831C1599.8 192.644 1605.34 192.563 1610.88 192.67C1613.38 192.783 1616.03 192.509 1618.43 193.411C1621.56 194.548 1624.03 197.258 1624.9 200.444C1625.3 201.85 1625.39 203.299 1625.22 204.731C1624.45 213.568 1623 222.377 1622.43 231.235C1622.33 234.148 1619.84 236.858 1616.86 236.745L1616.87 236.734ZM1616.81 235.897C1619.24 235.865 1621.14 233.585 1620.89 231.224C1620.69 228.279 1620.42 225.333 1620.09 222.388C1619.4 216.239 1618.54 210.096 1618.03 203.937C1617.84 202.698 1616.94 201.528 1615.75 201.26C1614.15 201.137 1612.52 201.33 1610.89 201.308C1605.35 201.416 1599.81 201.335 1594.27 201.147L1577.63 200.514L1573.49 200.396C1572.82 200.369 1572.17 200.541 1571.6 200.938C1570.55 201.641 1569.97 202.934 1569.99 204.2C1569.97 204.501 1569.97 205.439 1569.95 205.761C1569.75 214.061 1569.48 223.198 1569.23 231.535C1569.25 232.871 1570.34 234.132 1571.69 234.191C1579.2 235.495 1586.58 237.469 1594.26 237.78C1601.83 238.29 1609.35 237.11 1616.81 235.897Z" fill="#E0349E"/>
<path d="M1565.55 193.749C1565.55 193.749 1559.23 221.916 1558.79 238.805L1579.33 240.581C1579.33 240.581 1579.93 230.978 1580.48 219.62C1580.97 209.592 1580.69 197.344 1580.69 197.344L1565.55 193.754V193.749Z" fill="#E0349E" stroke="#300375" stroke-width="3.32053" stroke-miterlimit="10" stroke-linecap="round"/>
<path d="M1621.58 187.777C1621.58 187.777 1627.36 226.755 1627.49 240.854L1602.82 241.418C1602.82 241.418 1602.5 229.062 1601.96 218.374C1601.46 208.685 1601.41 199.183 1601.41 199.183C1612.8 201.308 1621.58 187.777 1621.58 187.777Z" fill="#E0349E" stroke="#300375" stroke-width="3.11576" stroke-miterlimit="10" stroke-linecap="round"/>
<path d="M1627.75 160.673C1629.05 154.192 1628.69 147.448 1626.47 141.214C1624.41 135.43 1620.58 129.314 1613.43 126.197C1597.54 119.265 1581.07 122.667 1574.06 127.415C1567.67 131.739 1559.7 138.156 1558.61 152.915C1557.74 164.627 1557.96 175.991 1559.05 181.474C1560.14 186.952 1563.79 198.739 1573.37 204.421C1582.95 210.102 1593.79 208.455 1595.42 208.273C1597.05 208.09 1611.31 205.606 1617.64 194.366C1622.18 186.319 1625.96 169.558 1627.75 160.679V160.673Z" fill="white" stroke="#300375" stroke-width="3.32053" stroke-miterlimit="10" stroke-linecap="round"/>
<path d="M1614.42 153.152C1610.23 153.704 1605.97 154.697 1602 156.097C1598.42 157.519 1594.34 159.703 1592.76 163.313C1590.74 168.077 1590.59 173.48 1590 178.62C1589.92 179.666 1589.71 182.424 1589.63 183.443C1589.42 185.45 1589.33 187.591 1588.38 189.522C1586.47 193.299 1581.77 192.607 1579.78 189.281C1578.93 187.666 1578.77 185.707 1578.54 183.948C1577.91 177.568 1578.85 171.087 1577.39 164.864C1576.37 160.545 1574.13 157.787 1569.55 156.95C1566.89 156.403 1564.04 156.446 1561.35 156.521C1566.63 155.496 1573.56 154.767 1577.25 159.644C1582.7 167.52 1580.03 177.896 1582.13 186.587C1582.23 186.941 1582.28 187.333 1582.48 187.655C1582.9 188.315 1583.92 189.093 1584.72 188.862C1586.21 188.213 1586.26 184.683 1586.48 183.148C1586.65 181.345 1586.87 178.491 1587.08 176.694C1587.85 171.554 1588.25 166.098 1590.94 161.452C1593.25 157.75 1597.5 155.797 1601.53 154.6C1605.77 153.57 1610.08 153.018 1614.43 153.152H1614.42Z" fill="#E0349E"/>
<mask id="mask0_1669_15976" style="mask-type:luminance" maskUnits="userSpaceOnUse" x="1558" y="122" width="71" height="87">
<path d="M1627.74 160.673C1629.05 154.192 1628.69 147.448 1626.47 141.214C1624.41 135.43 1620.57 129.314 1613.42 126.197C1597.54 119.265 1581.07 122.667 1574.06 127.415C1567.67 131.739 1559.7 138.156 1558.61 152.915C1557.74 164.627 1557.95 175.991 1559.05 181.474C1560.14 186.952 1563.78 198.739 1573.37 204.421C1582.95 210.102 1593.79 208.455 1595.42 208.273C1597.05 208.09 1611.31 205.606 1617.64 194.366C1622.17 186.319 1625.96 169.558 1627.74 160.679V160.673Z" fill="white"/>
</mask>
<g mask="url(#mask0_1669_15976)">
<path d="M1587.41 151.837C1598.24 151.837 1607.02 143.06 1607.02 132.233C1607.02 121.405 1598.24 112.628 1587.41 112.628C1576.59 112.628 1567.81 121.405 1567.81 132.233C1567.81 143.06 1576.59 151.837 1587.41 151.837Z" fill="#1A003E"/>
<path d="M1633.73 167.973C1645.3 166.651 1653.68 156.859 1652.45 146.102C1651.22 135.345 1640.85 127.696 1629.28 129.018C1617.72 130.34 1609.34 140.132 1610.56 150.889C1611.79 161.646 1622.17 169.295 1633.73 167.973Z" fill="#1A003E"/>
</g>
<path d="M1597.35 174.113C1598.45 170.55 1601.68 168.104 1605.01 166.72C1606.7 166.033 1608.51 165.706 1610.32 165.486C1611.43 165.351 1612.44 166.285 1612.53 167.363C1612.64 169.568 1610.43 169.601 1608.85 169.906C1607.63 170.105 1606.44 170.427 1605.31 170.92C1603.56 171.655 1602.01 172.755 1600.44 173.812C1599.71 174.3 1598.95 174.735 1598.16 175.111C1597.46 175.406 1597.07 174.735 1597.35 174.118V174.113Z" fill="#E0349E"/>
<path d="M1563.76 166.076C1565.58 162.862 1570.48 167.696 1572.01 169.333C1573.37 171.092 1574.52 173.308 1574.33 175.594C1573.79 176.994 1572.58 175.132 1572.03 174.644C1570.77 173.265 1569.52 171.854 1567.95 170.797C1566.89 169.912 1565.62 169.365 1564.42 168.699C1563.58 168.158 1563.31 166.95 1563.77 166.076H1563.76Z" fill="#E0349E"/>
<path d="M1619.68 164.59C1619.68 164.59 1622.48 156.226 1631.55 157.309C1639.77 158.291 1639.3 168.893 1637.75 173.507C1636.2 178.121 1631.5 180.97 1625.75 179.773C1622.78 179.151 1621.39 177.82 1621.39 177.82" fill="white"/>
<path d="M1619.68 164.59C1619.68 164.59 1622.48 156.226 1631.55 157.309C1639.77 158.291 1639.3 168.893 1637.75 173.507C1636.2 178.121 1631.5 180.97 1625.75 179.773C1622.78 179.151 1621.39 177.82 1621.39 177.82" stroke="#300375" stroke-width="3.32053" stroke-miterlimit="10" stroke-linecap="round"/>
<path d="M1648.43 151.026C1644.08 148.145 1641.55 143.128 1642.25 137.286C1643.05 130.601 1645.93 129.485 1647.05 119.801C1647.5 115.916 1642.6 110.337 1642.6 110.337C1642.6 110.337 1665.53 117.483 1670.31 124.586C1674.73 131.175 1674.7 134.941 1674.01 140.215C1673.47 144.341 1671.07 148.461 1666.13 151.214C1662.91 153.006 1653.49 154.368 1648.43 151.021V151.026Z" fill="white" stroke="#300375" stroke-width="3.45888" stroke-miterlimit="10" stroke-linecap="round"/>
<path d="M1658.53 154.178L1684.89 194.071C1685.95 195.723 1688.18 196.163 1689.79 195.042C1691.18 194.076 1691.66 192.252 1690.94 190.723L1669.99 146.096C1669.99 146.096 1666.7 146.3 1663.72 147.781C1660.09 149.583 1657.98 153.068 1657.98 153.068L1658.53 154.178Z" fill="#FFF742" stroke="#300375" stroke-width="3.45888" stroke-miterlimit="10" stroke-linecap="round"/>
<path d="M1656.33 131.266C1656.32 132.645 1655.21 132.141 1654.48 131.599C1653.24 130.655 1652.24 129.421 1650.93 128.568C1648.72 127.232 1646.6 128.9 1645.84 130.848C1646 128.728 1646.88 126.523 1647.37 124.458C1648.16 120.691 1647.66 117.467 1646.91 113.513C1648.55 114.076 1654.87 116.335 1656.57 117.311C1659.36 118.819 1658.76 118.465 1661.59 119.914C1661.87 120.15 1662.72 120.413 1662.82 120.616C1663.58 122.215 1663.71 123.642 1664.43 125.257C1664.68 125.998 1665.08 126.786 1664.93 127.586C1662.43 126.191 1658.81 119.973 1655.5 121.046C1652.4 122.886 1656.26 128.637 1656.33 131.266H1656.33Z" fill="#E0349E"/>
</svg>
