<svg width="1920" height="478" viewBox="0 0 1920 478" fill="none" xmlns="http://www.w3.org/2000/svg">
<path d="M1149.6 231.901L1112.92 231.406C1112.95 229.327 1113.37 210.668 1119.68 195.592C1124.47 184.123 1133.27 175.154 1143.45 172.898C1153.62 170.642 1162.89 174.359 1164.57 184.11V184.147C1166.22 193.495 1158.95 200.061 1154.74 208.571C1150.54 217.081 1149.66 227.609 1149.6 231.901H1149.6Z" fill="white" stroke="#300375" stroke-width="4.31011" stroke-miterlimit="10" stroke-linecap="round"/>
<path d="M1112.91 231.406C1112.94 229.327 1113.37 210.668 1119.67 195.592C1124.47 184.123 1133.26 175.154 1143.44 172.898C1153.62 170.642 1162.89 174.359 1164.56 184.111V184.147" stroke="#E0349E" stroke-width="4.31011" stroke-miterlimit="10" stroke-linecap="square"/>
<path d="M1179.74 261.172C1179.71 258.965 1179.83 256.581 1179.95 254.056C1180.48 243.131 1180.42 235.342 1174.88 234.822C1172.04 235.103 1168.8 235.984 1166.07 242.012C1164.52 245.448 1164.52 254.129 1165 260.518C1165.02 260.683 1165.02 260.775 1165.02 260.781L1164.97 262.664L1135.79 262.462L1135.84 260.524C1135.84 260.389 1135.82 260.004 1135.8 259.417C1135.21 243.449 1135.98 232.817 1138.07 227.81C1142.05 218.26 1145.8 212.404 1150.58 208.234C1156.02 203.502 1162.92 200.971 1172.31 200.28C1173.11 200.219 1173.95 200.188 1174.81 200.188C1187.7 200.188 1204.05 206.455 1211.51 220.455C1217.06 230.861 1217.85 252.185 1217.94 260.872L1217.95 262.786L1179.76 263.079L1179.74 261.172H1179.74Z" fill="white"/>
<path d="M1174.81 202.097C1185.56 202.097 1202.16 206.975 1209.82 221.349C1215.17 231.387 1215.94 252.339 1216.02 260.885L1181.65 261.148C1181.54 250.407 1184.87 233.588 1174.87 232.897C1171.15 233.24 1167.33 234.597 1164.33 241.218C1161.92 246.531 1163.11 260.678 1163.11 260.733L1137.75 260.555C1137.78 259.443 1136.46 236.639 1139.84 228.538C1146.73 212.007 1154.09 203.533 1172.46 202.182C1173.2 202.127 1173.99 202.097 1174.82 202.097M1174.81 198.276C1173.91 198.276 1173.02 198.306 1172.17 198.367C1151.56 199.89 1143.41 210.038 1136.3 227.065C1134.08 232.402 1133.28 243.009 1133.89 259.485C1133.91 259.993 1133.92 260.347 1133.92 260.512L1133.84 264.358L1137.72 264.382L1163.08 264.56L1166.85 264.584L1166.93 260.818C1166.93 260.629 1166.93 260.5 1166.91 260.372C1166.42 253.934 1166.5 245.687 1167.81 242.795C1170.07 237.8 1172.45 236.999 1174.89 236.737C1175.83 236.834 1177.07 237.268 1177.78 240.796C1178.5 244.342 1178.26 249.233 1178.03 253.953C1177.91 256.508 1177.8 258.917 1177.82 261.185L1177.86 265L1181.67 264.969L1216.04 264.706L1219.87 264.676L1219.83 260.849C1219.73 249.887 1218.73 229.944 1213.18 219.551C1209.37 212.392 1203.11 206.621 1195.08 202.867C1188.83 199.945 1181.44 198.27 1174.8 198.27L1174.81 198.276Z" fill="#300375"/>
<path d="M1203.9 227.756L1191.99 229.449C1182.01 230.874 1171.88 230.8 1161.91 229.241L1152.44 227.756C1149.41 227.756 1146.95 225.182 1146.95 222.003V190.854C1146.95 186.483 1150.34 182.943 1154.51 182.943H1201.84C1206.01 182.943 1209.4 186.483 1209.4 190.854V222.003C1209.4 225.182 1206.94 227.756 1203.9 227.756H1203.9Z" fill="#FFF742"/>
<path d="M1203.93 228.232C1195.33 229.186 1186.85 231.008 1178.16 231.497C1171.64 231.968 1165.01 231.705 1158.5 230.904C1156.35 230.672 1154.21 230.409 1152.06 230.146L1152.43 230.176C1148.92 230.286 1145.66 227.774 1144.65 224.46C1144.33 223.47 1144.23 222.394 1144.22 221.367C1143.95 212.172 1143.62 202.084 1143.41 192.944C1143.41 192.596 1143.37 191.514 1143.37 191.165C1143.21 187.473 1144.85 183.731 1147.8 181.457C1149.67 179.971 1152.07 179.121 1154.46 179.06L1159.21 178.926L1178.16 178.204C1184.47 177.99 1190.79 177.899 1197.11 178.021C1199.96 178.149 1202.97 177.838 1205.71 178.865C1209.28 180.161 1212.09 183.248 1213.09 186.88C1213.54 188.481 1213.65 190.132 1213.45 191.764C1212.57 201.834 1210.92 211.872 1210.27 221.966C1210.16 225.286 1207.31 228.367 1203.92 228.245L1203.93 228.232ZM1203.86 227.279C1206.62 227.242 1208.79 224.644 1208.51 221.954C1208.28 218.597 1207.97 215.241 1207.6 211.884C1206.81 204.878 1205.84 197.878 1205.25 190.86C1205.03 189.447 1204.01 188.115 1202.65 187.809C1200.83 187.668 1198.97 187.888 1197.12 187.864C1190.8 187.986 1184.49 187.894 1178.16 187.68L1159.22 186.959L1154.49 186.825C1153.73 186.794 1152.99 186.99 1152.35 187.442C1151.14 188.243 1150.49 189.716 1150.51 191.159C1150.49 191.502 1150.48 192.571 1150.46 192.938C1150.24 202.396 1149.93 212.808 1149.64 222.308C1149.66 223.83 1150.9 225.267 1152.44 225.334C1161 226.82 1169.42 229.07 1178.16 229.424C1186.79 230.005 1195.36 228.66 1203.86 227.279Z" fill="#E0349E"/>
<path d="M1233.42 212.086C1228.59 212.086 1210.01 211.817 1208.5 211.732C1201.33 211.732 1195.51 205.918 1195.51 198.747V188.035C1195.51 180.864 1201.33 175.05 1208.5 175.05H1209.68L1210.3 175.093C1212.09 175.209 1233.08 175.368 1234.95 175.405C1244.24 175.582 1247.55 168.129 1247.67 158.837C1247.74 152.711 1247.71 146.151 1247.56 140.208L1284.23 139.291C1284.45 148.175 1284.94 178.095 1281.91 190.071C1276.98 209.488 1252.34 211.182 1244.25 211.738C1240.44 212.001 1236.69 212.086 1233.42 212.086Z" fill="white" stroke="#300375" stroke-width="4.31011" stroke-miterlimit="10" stroke-linecap="round"/>
<path d="M1284.24 139.291C1284.46 148.174 1284.94 178.094 1281.91 190.071C1276.99 209.488 1252.35 211.181 1244.25 211.738C1240.44 212.001 1236.7 212.086 1233.43 212.086C1228.6 212.086 1210.02 211.817 1208.51 211.732C1201.33 211.732 1195.52 205.917 1195.52 198.746" stroke="#E0349E" stroke-width="4.31011" stroke-miterlimit="10" stroke-linecap="square"/>
<path d="M1145.45 179.25C1145.45 179.25 1138.25 211.346 1137.75 230.592L1161.16 232.616C1161.16 232.616 1161.83 221.672 1162.46 208.73C1163.01 197.303 1162.7 183.346 1162.7 183.346L1145.45 179.256V179.25Z" fill="#E0349E" stroke="#300375" stroke-width="3.66818" stroke-miterlimit="10" stroke-linecap="round"/>
<path d="M1209.29 172.445C1209.29 172.445 1215.87 216.861 1216.03 232.927L1187.92 233.569C1187.92 233.569 1187.55 219.49 1186.93 207.311C1186.37 196.27 1186.31 185.443 1186.31 185.443C1199.29 187.864 1209.29 172.445 1209.29 172.445Z" fill="#E0349E" stroke="#300375" stroke-width="3.44198" stroke-miterlimit="10" stroke-linecap="round"/>
<path d="M1216.32 141.56C1217.8 134.174 1217.39 126.49 1214.87 119.385C1212.52 112.795 1208.15 105.825 1200 102.273C1181.9 94.3746 1163.14 98.2506 1155.15 103.661C1147.86 108.589 1138.79 115.901 1137.54 132.719C1136.55 146.065 1136.79 159.014 1138.04 165.262C1139.29 171.504 1143.44 184.936 1154.36 191.41C1165.28 197.885 1177.63 196.008 1179.48 195.8C1181.34 195.592 1197.59 192.761 1204.81 179.953C1209.97 170.783 1214.28 151.684 1216.32 141.566V141.56Z" fill="white" stroke="#300375" stroke-width="3.66818" stroke-miterlimit="10" stroke-linecap="round"/>
<path d="M1201.14 132.989C1196.36 133.618 1191.5 134.749 1186.98 136.345C1182.9 137.965 1178.25 140.453 1176.46 144.568C1174.14 149.997 1173.97 156.153 1173.3 162.01C1173.21 163.202 1172.98 166.345 1172.88 167.506C1172.64 169.793 1172.54 172.232 1171.46 174.433C1169.28 178.737 1163.93 177.948 1161.65 174.158C1160.69 172.318 1160.51 170.086 1160.25 168.081C1159.53 160.812 1160.6 153.426 1158.94 146.335C1157.78 141.413 1155.22 138.271 1150 137.317C1146.97 136.693 1143.73 136.742 1140.66 136.828C1146.68 135.66 1154.57 134.829 1158.77 140.386C1164.99 149.361 1161.94 161.185 1164.33 171.089C1164.45 171.492 1164.51 171.939 1164.74 172.305C1165.22 173.057 1166.37 173.944 1167.29 173.681C1168.98 172.941 1169.04 168.918 1169.3 167.17C1169.49 165.116 1169.74 161.863 1169.98 159.815C1170.86 153.958 1171.31 147.741 1174.38 142.446C1177.01 138.228 1181.85 136.003 1186.44 134.639C1191.28 133.465 1196.19 132.836 1201.15 132.989H1201.14Z" fill="#E0349E"/>
<mask id="mask0_1669_15976" style="mask-type:luminance" maskUnits="userSpaceOnUse" x="1136" y="97" width="82" height="100">
<path d="M1216.31 141.559C1217.8 134.174 1217.39 126.489 1214.87 119.385C1212.52 112.795 1208.15 105.825 1200 102.273C1181.9 94.3744 1163.13 98.2504 1155.14 103.661C1147.86 108.589 1138.78 115.9 1137.53 132.719C1136.54 146.065 1136.79 159.014 1138.04 165.262C1139.28 171.504 1143.43 184.936 1154.35 191.41C1165.27 197.884 1177.62 196.007 1179.48 195.8C1181.34 195.592 1197.59 192.761 1204.8 179.953C1209.97 170.783 1214.28 151.684 1216.31 141.566V141.559Z" fill="white"/>
</mask>
<g mask="url(#mask0_1669_15976)">
<path d="M1170.36 131.49C1182.7 131.49 1192.7 121.489 1192.7 109.151C1192.7 96.8136 1182.7 86.812 1170.36 86.812C1158.02 86.812 1148.02 96.8136 1148.02 109.151C1148.02 121.489 1158.02 131.49 1170.36 131.49Z" fill="#1A003E"/>
<path d="M1223.14 149.882C1236.32 148.375 1245.87 137.217 1244.47 124.959C1243.07 112.701 1231.25 103.986 1218.07 105.492C1204.89 106.998 1195.34 118.157 1196.74 130.414C1198.14 142.672 1209.96 151.388 1223.14 149.882Z" fill="#1A003E"/>
</g>
<path d="M1181.69 156.875C1182.94 152.815 1186.62 150.027 1190.41 148.45C1192.34 147.667 1194.4 147.295 1196.46 147.044C1197.73 146.891 1198.88 147.955 1198.98 149.184C1199.11 151.696 1196.59 151.733 1194.79 152.081C1193.4 152.308 1192.04 152.675 1190.75 153.237C1188.76 154.075 1186.99 155.328 1185.2 156.532C1184.37 157.089 1183.51 157.584 1182.61 158.012C1181.8 158.348 1181.36 157.584 1181.69 156.881V156.875Z" fill="#E0349E"/>
<path d="M1143.41 147.716C1145.48 144.054 1151.06 149.563 1152.8 151.427C1154.36 153.433 1155.67 155.958 1155.45 158.562C1154.83 160.158 1153.46 158.036 1152.83 157.48C1151.39 155.909 1149.96 154.301 1148.18 153.096C1146.97 152.088 1145.53 151.464 1144.16 150.706C1143.2 150.088 1142.89 148.713 1143.42 147.716H1143.41Z" fill="#E0349E"/>
<path d="M1207.13 146.023C1207.13 146.023 1210.31 136.491 1220.65 137.726C1230.02 138.845 1229.49 150.926 1227.72 156.183C1225.95 161.441 1220.6 164.688 1214.04 163.324C1210.66 162.615 1209.08 161.099 1209.08 161.099" fill="white"/>
<path d="M1207.13 146.023C1207.13 146.023 1210.31 136.491 1220.65 137.726C1230.02 138.845 1229.49 150.926 1227.72 156.183C1225.95 161.441 1220.6 164.688 1214.04 163.324C1210.66 162.615 1209.08 161.099 1209.08 161.099" stroke="#300375" stroke-width="3.66818" stroke-miterlimit="10" stroke-linecap="round"/>
<path d="M1226.35 146.303L1253.45 136.558L1309.21 138.215L1295.86 148.162L1226.35 146.303Z" fill="#E0349E" stroke="#300375" stroke-width="3.82102" stroke-linecap="round" stroke-linejoin="round"/>
<path d="M1295.86 148.162L1296.31 156.935L1309.44 145.894L1309.21 138.215L1295.86 148.162Z" fill="#E0349E" stroke="#300375" stroke-width="3.82102" stroke-linecap="round" stroke-linejoin="round"/>
<path d="M1226.35 146.303L1226.76 154.434L1296.31 156.935L1295.86 148.162L1226.35 146.303Z" fill="#E0349E" stroke="#300375" stroke-width="3.82102" stroke-linecap="round" stroke-linejoin="round"/>
<path d="M1261.87 137.689L1244.98 146.144L1284.77 147.52L1295.72 138.569L1261.87 137.689Z" fill="#FFF742"/>
<path d="M1309.87 138.588L1315.29 138.759L1329 101.093L1324.29 99.1978L1309.87 138.588Z" fill="#E0349E" stroke="#300375" stroke-width="3.82102" stroke-linecap="round" stroke-linejoin="round"/>
<path d="M1263.76 137.511L1243.64 146.761" stroke="#300375" stroke-width="1.22273" stroke-linecap="round" stroke-linejoin="round"/>
<path d="M1275.26 137.011L1257.84 147.135" stroke="#300375" stroke-width="1.22273" stroke-linecap="round" stroke-linejoin="round"/>
<path d="M1295.42 139.322L1282.69 148.431" stroke="#300375" stroke-width="1.22273" stroke-linecap="round" stroke-linejoin="round"/>
<path d="M1283.64 138.35L1269.86 148.132" stroke="#300375" stroke-width="1.22273" stroke-linecap="round" stroke-linejoin="round"/>
<path d="M1258.09 140.091L1293.27 140.684" stroke="#300375" stroke-width="1.22273" stroke-linecap="round" stroke-linejoin="round"/>
<path d="M1253.9 142.061L1290.29 142.77" stroke="#300375" stroke-width="1.22273" stroke-linecap="round" stroke-linejoin="round"/>
<path d="M1226.35 146.303L1253.45 136.558L1309.21 138.214L1295.86 148.161L1226.35 146.303Z" stroke="#300375" stroke-width="3.82102" stroke-linecap="round" stroke-linejoin="round"/>
<path d="M1253.45 136.558L1263.32 98.4884L1324.29 99.1976L1309.21 138.215L1253.45 136.558Z" fill="#E0349E" stroke="#300375" stroke-width="3.82102" stroke-linecap="round" stroke-linejoin="round"/>
<path d="M1260.69 131.135L1267.98 103.93L1314.89 105.006L1305.41 132.456L1260.69 131.135Z" fill="#FFF742"/>
</svg>
