<svg width="1920" height="478" viewBox="0 0 1920 478" fill="none" xmlns="http://www.w3.org/2000/svg">
<path d="M515.748 298.346C516.232 294.546 518.186 274.454 508.98 252.412C500.872 232.987 482.283 208.168 439.832 200.251C396.729 192.214 369.593 200.589 348.544 220.516C334.209 234.086 321.453 251.111 319.343 274.675L367.632 278.992C384.025 247.572 408.039 248.406 429.228 252.356C441.876 254.716 453.917 267.437 459.722 281.34C461.951 286.675 461.95 291.817 461.945 291.858L515.741 298.355L515.748 298.346Z" fill="white" stroke="#300375" stroke-width="3.84025" stroke-miterlimit="10" stroke-linecap="round"/>
<path d="M443.165 237.516L428.151 236.123C415.554 234.959 403.197 232.009 391.427 227.367L380.245 222.952C376.529 222.092 374.216 218.392 375.075 214.681L383.49 178.324C384.671 173.222 389.764 170.048 394.874 171.231L452.742 184.625C457.851 185.807 461.032 190.897 459.851 195.999L451.436 232.356C450.577 236.066 446.874 238.374 443.158 237.514L443.165 237.516Z" fill="#FFF742"/>
<path d="M443.068 238.093C432.293 236.765 441.887 242.492 431.14 240.652C423.033 239.377 394.545 231.23 386.801 228.453C384.242 227.568 381.688 226.668 379.138 225.747L379.565 225.884C375.031 225.015 371.519 220.638 371.598 216.003C371.596 215.07 371.778 214.09 371.964 213.186C374.171 202.156 376.566 190.05 378.851 179.106L379.142 177.685L379.225 177.328C380.475 171.114 386.31 166.33 392.664 166.297C393.959 166.236 395.365 166.471 396.629 166.734C400.19 167.513 421.066 171.458 425.12 172.253C434.614 174.105 444.039 176.256 453.388 178.736C460.979 180.26 466.463 187.822 465.085 195.502C464.918 196.546 464.491 197.838 464.152 198.85C460.282 210.366 455.764 221.718 452.227 233.357C450.867 236.891 446.723 239.12 443.066 238.101L443.068 238.093ZM443.253 236.933C446.511 237.657 449.961 235.374 450.393 232.075C451.056 228.011 451.614 223.938 452.091 219.83C453.054 211.633 453.789 203.383 454.941 195.222C455.053 194.511 454.942 193.718 454.703 193.062C454.149 191.618 452.929 190.576 451.431 190.35L450.74 190.212C441.252 188.332 431.84 186.123 422.498 183.615C417.593 182.299 398.015 176.911 393.432 175.798C390.866 175.204 388.184 177.101 387.681 179.662L387.319 181.066C384.435 192.255 381.224 204.57 378.25 215.791C377.861 217.828 379.329 219.747 381.347 220.169C391.21 224.399 400.862 229.212 411.254 232.128C421.635 235.29 432.471 236.159 443.257 236.949L443.253 236.933Z" fill="#E0349E"/>
<path d="M528.11 142.319C527.952 142.64 513.108 172.726 481.623 181.142C476.069 182.627 469.931 183.742 463.379 184.48C450.748 185.9 441.167 196.541 440.995 209.229C440.794 224.358 453.868 236.366 468.925 234.684C478.055 233.662 486.73 232.072 494.685 229.947C549.369 215.336 573.782 164.066 574.79 161.888L528.916 140.604L528.11 142.319Z" fill="white" stroke="#300375" stroke-width="3.0781" stroke-miterlimit="10" stroke-linecap="round"/>
<path d="M440.995 209.229C440.794 224.357 453.869 236.365 468.925 234.684C478.056 233.661 486.731 232.072 494.685 229.947C549.369 215.335 573.782 164.066 574.791 161.888" stroke="#E0349E" stroke-width="3.0781" stroke-miterlimit="10" stroke-linecap="square"/>
<path d="M536.408 66.7829L500.979 126.933L599.087 184.543L634.517 124.393L536.408 66.7829Z" fill="#FFF742" stroke="#300375" stroke-width="2.28153" stroke-miterlimit="10" stroke-linecap="round"/>
<path d="M376.024 102.454L322.852 82.0956C321.783 84.8781 316.567 99.8726 318.861 121.786C320.868 140.995 329.339 170.26 358.249 200.584C361.019 203.49 363.939 206.359 366.995 209.199C379.569 220.855 399.589 218.631 409.492 204.641C417.743 192.983 416.018 177.069 405.561 167.349C403.432 165.366 401.408 163.374 399.495 161.364C385.362 146.542 377.068 130.809 375.502 115.869C374.68 108.006 376.012 102.503 376.025 102.47L376.024 102.454Z" fill="white" stroke="#300375" stroke-width="3.46655" stroke-miterlimit="10" stroke-linecap="round"/>
<path d="M322.852 82.0956C321.783 84.8781 316.567 99.8726 318.861 121.786C320.868 140.995 329.339 170.26 358.249 200.584C361.019 203.49 363.939 206.359 366.995 209.199C379.569 220.855 399.589 218.631 409.492 204.641" stroke="#E0349E" stroke-width="3.46655" stroke-miterlimit="10" stroke-linecap="square"/>
<path d="M472.186 182.52L499.793 230.714C485.409 235.616 461.375 247.725 438.816 245.816C428.931 233.057 428.291 178.418 428.291 178.418C453.744 187.968 472.186 182.52 472.186 182.52Z" fill="#E0349E" stroke="#300375" stroke-width="2.95026" stroke-miterlimit="10" stroke-linecap="round"/>
<path d="M342.226 188.119C348.572 179.511 395.79 155.172 395.79 155.172C395.79 155.172 402.859 169.45 428.311 179C428.311 179 404.3 218.676 382.676 227.394C360.913 223.468 342.226 188.119 342.226 188.119Z" fill="#E0349E" stroke="#300375" stroke-width="2.95026" stroke-miterlimit="10" stroke-linecap="round"/>
<path d="M490.764 131.733C493.96 123.287 494.965 114.126 493.35 105.24C491.851 96.9902 488.028 87.9083 479.072 82.1251C459.174 69.2737 436.209 70.2201 425.691 75.0598C416.113 79.4686 403.946 86.3543 399.205 105.996C395.441 121.578 393.215 136.935 393.481 144.56C393.748 152.185 396.054 168.863 407.723 178.636C419.392 188.409 434.379 188.591 436.621 188.7C438.863 188.81 458.655 188.625 469.681 174.878C477.571 165.041 486.388 143.296 490.764 131.733Z" fill="white" stroke="#300375" stroke-width="2.95026" stroke-miterlimit="10" stroke-linecap="round"/>
<path d="M475.643 121.015C469.881 120.468 463.9 120.494 458.188 121.155C452.985 121.953 446.887 123.625 443.683 127.94C439.525 133.66 437.681 140.802 435.329 147.467C434.904 148.835 433.786 152.44 433.364 153.778C432.476 156.384 431.71 159.21 429.854 161.494C426.156 165.938 420.107 163.591 418.454 158.558C417.815 156.15 418.207 153.496 418.431 151.082C419.532 142.398 422.764 134.062 422.711 125.33C422.67 119.275 420.506 114.921 414.667 112.413C411.281 110.879 407.482 110.065 403.872 109.346C411.225 109.59 420.685 110.733 424.109 118.344C428.978 130.487 422.253 143.482 422.405 155.689C422.445 156.194 422.385 156.733 422.552 157.216C422.913 158.222 424.032 159.57 425.168 159.505C427.354 159.1 428.496 154.407 429.262 152.437C430.033 150.09 431.202 146.359 432.022 144.033C434.611 137.423 436.801 130.29 441.805 124.923C446.009 120.704 452.273 119.398 457.997 119.033C463.976 118.955 469.882 119.532 475.641 121.036L475.643 121.015Z" fill="#E0349E"/>
<mask id="mask0_1669_15976" style="mask-type:luminance" maskUnits="userSpaceOnUse" x="393" y="71" width="102" height="118">
<path d="M490.764 131.733C493.96 123.288 494.965 114.126 493.35 105.24C491.851 96.9905 488.028 87.9087 479.072 82.1255C459.174 69.274 436.209 70.2205 425.691 75.0601C416.113 79.4689 403.946 86.3546 399.205 105.996C395.441 121.579 393.215 136.935 393.481 144.56C393.748 152.185 396.054 168.863 407.723 178.636C419.392 188.409 434.379 188.591 436.621 188.701C438.863 188.81 458.655 188.625 469.681 174.879C477.571 165.042 486.388 143.297 490.764 131.733Z" fill="white"/>
</mask>
<g mask="url(#mask0_1669_15976)">
<path d="M441.34 111.236C456.124 111.958 468.694 100.575 469.415 85.8115C470.136 71.048 458.735 58.4946 443.95 57.7726C429.166 57.0506 416.596 68.4335 415.875 83.197C415.154 97.9605 426.555 110.514 441.34 111.236Z" fill="#1A003E"/>
<path d="M497.236 142.879C513.133 143.655 526.605 132.316 527.326 117.553C528.047 102.789 515.744 90.1916 499.847 89.4153C483.95 88.639 470.478 99.9778 469.757 114.741C469.036 129.505 481.339 142.102 497.236 142.879Z" fill="#1A003E"/>
</g>
<path d="M445.835 142.908C448.106 138.355 452.998 135.771 457.79 134.641C460.233 134.093 462.746 134.055 465.238 134.154C466.762 134.221 467.916 135.7 467.8 137.176C467.463 140.173 464.474 139.719 462.275 139.788C460.586 139.786 458.911 139.954 457.275 140.373C454.749 140.975 452.409 142.115 450.065 143.196C448.976 143.693 447.854 144.107 446.7 144.439C445.689 144.683 445.312 143.69 445.834 142.923L445.835 142.908Z" fill="#E0349E"/>
<path d="M403.167 122.692C406.326 118.762 411.867 126.358 413.564 128.898C415.027 131.572 416.081 134.807 415.315 137.849C414.267 139.617 413.058 136.844 412.421 136.058C411.021 133.914 409.643 131.742 407.769 129.979C406.531 128.547 404.943 127.531 403.472 126.374C402.46 125.459 402.351 123.774 403.167 122.692Z" fill="#E0349E"/>
<path d="M479.02 135.229C479.02 135.229 484.644 124.577 496.643 128.045C507.52 131.187 504.536 145.37 501.422 151.239C498.308 157.107 491.342 159.913 483.845 157.024C479.975 155.53 478.396 153.429 478.396 153.429" fill="white"/>
<path d="M479.02 135.229C479.02 135.229 484.644 124.577 496.643 128.045C507.52 131.187 504.536 145.37 501.422 151.239C498.308 157.107 491.342 159.913 483.845 157.024C479.975 155.53 478.396 153.429 478.396 153.429" stroke="#300375" stroke-width="2.95026" stroke-miterlimit="10" stroke-linecap="round"/>
</svg>
