<svg width="361" height="238" viewBox="0 0 361 238" fill="none" xmlns="http://www.w3.org/2000/svg">
<path d="M88.9942 75.4737C92.0016 69.8323 89.8667 62.8211 84.2187 59.8152L47.4472 39.7153L36.5528 60.147L73.3243 80.2468C78.9684 83.2527 85.983 81.1189 88.9904 75.4737H88.9942Z" fill="white" stroke="#300375" stroke-width="2.41283" stroke-miterlimit="10"/>
<path d="M88.9942 75.4737C92.0016 69.8323 89.8667 62.8211 84.2187 59.8152L47.4472 39.7153" stroke="#E0349E" stroke-width="2.72167" stroke-miterlimit="10" stroke-linecap="square"/>
<path d="M116.848 96.2182L140.007 95.9057C139.988 94.5937 139.722 82.8171 135.741 73.3016C132.711 66.0627 127.159 60.402 120.732 58.9782C114.632 57.6276 108.451 59.9004 107.394 66.055V66.0781C106.347 71.9781 110.941 76.1223 113.597 81.4935C116.25 86.8532 116.806 93.5094 116.844 96.2182H116.848Z" fill="white" stroke="#300375" stroke-width="2.72167" stroke-miterlimit="10" stroke-linecap="round"/>
<path d="M140.011 95.9094C139.992 94.5974 139.726 82.8207 135.746 73.3053C132.715 66.0664 127.164 60.4057 120.736 58.9818C114.636 57.6313 108.455 59.9041 107.398 66.0587V66.0818" stroke="#E0349E" stroke-width="2.72167" stroke-miterlimit="10" stroke-linecap="square"/>
<path d="M97.8122 114.698C97.8277 113.305 97.7543 111.8 97.6771 110.206C97.3451 103.311 97.3798 98.3948 100.881 98.0669C102.676 98.2444 104.719 98.8 106.444 102.605C107.367 104.638 107.444 109.94 107.116 114.289C107.108 114.381 107.108 114.431 107.108 114.435L107.124 115.635L125.562 115.508L125.539 114.285C125.539 114.2 125.546 113.957 125.562 113.59C125.932 103.511 125.45 96.7974 124.129 93.6371C121.612 87.6099 119.25 83.9132 116.227 81.2816C112.795 78.295 108.436 76.6975 102.507 76.2615C102.001 76.2229 101.472 76.2036 100.928 76.2036C92.7897 76.2036 82.4666 80.1588 77.7529 88.9951C74.2475 95.5626 73.7495 109.022 73.6955 114.505L73.6839 115.713L97.8006 115.898L97.8122 114.694V114.698Z" fill="white"/>
<path d="M100.924 77.4107C94.137 77.4107 83.6556 80.4899 78.8145 89.5616C75.4365 95.8976 74.9501 109.121 74.8999 114.516L96.6038 114.682C96.6733 107.902 94.5732 97.2867 100.889 96.8507C103.236 97.0667 105.649 97.9234 107.541 102.102C109.062 105.456 108.313 114.384 108.313 114.419L124.326 114.307C124.311 113.605 125.145 99.2122 123.01 94.0994C118.655 83.6656 114.011 78.3174 102.41 77.4647C101.939 77.4299 101.441 77.4107 100.92 77.4107M100.924 74.999C101.495 74.999 102.055 75.0183 102.592 75.0569C115.609 76.0177 120.755 82.4231 125.241 93.1695C126.646 96.5381 127.148 103.233 126.766 113.632C126.755 113.952 126.747 114.176 126.743 114.28L126.793 116.707L124.346 116.723L108.332 116.835L105.954 116.85L105.904 114.473C105.904 114.354 105.904 114.273 105.915 114.192C106.22 110.128 106.174 104.923 105.348 103.098C103.92 99.9453 102.414 99.4398 100.874 99.2739C100.279 99.3356 99.4954 99.6096 99.0476 101.836C98.5959 104.074 98.7464 107.161 98.8893 110.14C98.9665 111.753 99.0398 113.273 99.0244 114.705L99.0012 117.113L96.5923 117.093L74.8884 116.927L72.4717 116.908L72.4948 114.493C72.5605 107.574 73.1936 94.9869 76.6951 88.4272C79.1041 83.9087 83.0572 80.2661 88.1261 77.8968C92.0716 76.0524 96.739 74.9951 100.932 74.9951L100.924 74.999Z" fill="#300375"/>
<path d="M82.5626 93.6061L90.079 94.6749C96.3833 95.574 102.78 95.5277 109.073 94.5437L115.053 93.6061C116.972 93.6061 118.523 91.9816 118.523 89.9751V70.3151C118.523 67.5562 116.385 65.322 113.748 65.322H83.8636C81.2269 65.322 79.0881 67.5562 79.0881 70.3151V89.9751C79.0881 91.9816 80.6439 93.6061 82.5587 93.6061H82.5626Z" fill="#FFF742"/>
<path d="M82.5394 93.907C87.9712 94.509 93.3257 95.6588 98.8077 95.9675C102.931 96.2647 107.112 96.0987 111.227 95.5932C112.582 95.4466 113.937 95.2807 115.292 95.1148L115.057 95.1341C117.276 95.2035 119.33 93.6176 119.971 91.5262C120.176 90.9011 120.234 90.222 120.241 89.5737C120.415 83.7703 120.624 77.4035 120.751 71.6347C120.751 71.4148 120.782 70.7318 120.778 70.5119C120.878 68.1812 119.848 65.8197 117.983 64.3843C116.802 63.4466 115.288 62.9103 113.775 62.8717L110.775 62.7868L98.8116 62.3315C94.8236 62.1964 90.8357 62.1385 86.8478 62.2157C85.0487 62.2967 83.1455 62.1 81.4198 62.7482C79.1653 63.5663 77.3895 65.5149 76.7602 67.8069C76.4706 68.8179 76.405 69.8598 76.5286 70.89C77.0845 77.2453 78.1307 83.5812 78.536 89.9519C78.6094 92.0471 80.4045 93.9958 82.5471 93.9147L82.5394 93.907ZM82.5819 93.3051C80.8369 93.2819 79.4703 91.642 79.6479 89.9442C79.7907 87.8257 79.9837 85.7073 80.2231 83.5889C80.7211 79.1669 81.3349 74.7487 81.7055 70.3189C81.8445 69.4276 82.4854 68.5864 83.3462 68.3935C84.4967 68.3047 85.6703 68.4436 86.84 68.4282C90.828 68.5054 94.8159 68.4475 98.8038 68.3124L110.771 67.8571L113.756 67.7722C114.238 67.7529 114.705 67.8764 115.111 68.1619C115.871 68.6674 116.284 69.5974 116.273 70.508C116.284 70.7241 116.288 71.3994 116.3 71.6309C116.443 77.6002 116.636 84.1716 116.821 90.168C116.805 91.1288 116.022 92.0356 115.049 92.078C109.644 93.0157 104.332 94.4357 98.8116 94.6595C93.3605 95.026 87.9519 94.1771 82.5819 93.3051Z" fill="#E0349E"/>
<path d="M119.466 62.9915C119.466 62.9915 124.014 83.2495 124.33 95.3966L109.548 96.6738C109.548 96.6738 109.12 89.7668 108.722 81.598C108.375 74.3861 108.575 65.5768 108.575 65.5768L119.466 62.9953V62.9915Z" fill="#E0349E" stroke="#300375" stroke-width="2.31632" stroke-miterlimit="10" stroke-linecap="round"/>
<path d="M79.1538 58.696C79.1538 58.696 74.996 86.7293 74.8995 96.8699L92.6502 97.2751C92.6502 97.2751 92.8818 88.3885 93.2717 80.7021C93.6269 73.7333 93.6655 66.8996 93.6655 66.8996C85.4696 68.4276 79.1538 58.696 79.1538 58.696Z" fill="#E0349E" stroke="#300375" stroke-width="2.17348" stroke-miterlimit="10" stroke-linecap="round"/>
<path d="M74.7144 39.2027C73.7763 34.5414 74.0349 29.6911 75.6293 25.2073C77.1118 21.0476 79.8721 16.6488 85.0182 14.4069C96.4492 9.42147 108.297 11.8679 113.343 15.2828C117.941 18.3929 123.674 23.0079 124.461 33.6231C125.087 42.0465 124.932 50.2192 124.145 54.1628C123.357 58.1025 120.736 66.58 113.841 70.6663C106.946 74.7527 99.1477 73.5681 97.9741 73.4369C96.8005 73.3057 86.5392 71.5191 81.9838 63.4352C78.7216 57.6472 76 45.5927 74.7144 39.2066V39.2027Z" fill="white" stroke="#300375" stroke-width="2.31632" stroke-miterlimit="10" stroke-linecap="round"/>
<path d="M84.3002 33.7928C87.3191 34.1903 90.3843 34.9041 93.2411 35.9113C95.8161 36.9338 98.7501 38.5043 99.8851 41.1012C101.344 44.5277 101.452 48.4134 101.877 52.11C101.935 52.8624 102.082 54.8458 102.144 55.5789C102.294 57.0221 102.356 58.5617 103.039 59.9508C104.414 62.6673 107.795 62.1695 109.231 59.7772C109.841 58.6157 109.953 57.2073 110.119 55.9416C110.575 51.3537 109.895 46.6924 110.946 42.2163C111.679 39.1101 113.297 37.1267 116.59 36.5248C118.504 36.1312 120.551 36.1621 122.489 36.2161C118.69 35.4791 113.702 34.9543 111.05 38.4618C107.127 44.1264 109.05 51.589 107.541 57.8401C107.463 58.0948 107.429 58.3764 107.286 58.608C106.981 59.0826 106.251 59.6421 105.676 59.4762C104.603 59.0093 104.568 56.4703 104.406 55.3667C104.286 54.0702 104.124 52.0174 103.973 50.7247C103.421 47.0281 103.136 43.1038 101.198 39.7622C99.5338 37.0997 96.4763 35.6952 93.5809 34.8347C90.5233 34.0938 87.4233 33.6964 84.2924 33.7928H84.3002Z" fill="#E0349E"/>
<mask id="mask0_1797_11520" style="mask-type:luminance" maskUnits="userSpaceOnUse" x="74" y="11" width="51" height="63">
<path d="M74.7144 39.2027C73.7763 34.5414 74.0349 29.6911 75.6293 25.2073C77.1118 21.0476 79.8721 16.6488 85.0182 14.4069C96.4492 9.42147 108.297 11.8679 113.343 15.2828C117.941 18.3929 123.674 23.0079 124.461 33.6231C125.087 42.0465 124.932 50.2192 124.145 54.1628C123.357 58.1025 120.736 66.58 113.841 70.6663C106.946 74.7527 99.1477 73.5681 97.9741 73.4369C96.8005 73.3057 86.5392 71.5191 81.9838 63.4352C78.7216 57.6472 76 45.5927 74.7144 39.2066V39.2027Z" fill="white"/>
</mask>
<g mask="url(#mask0_1797_11520)">
<path d="M103.734 32.8471C95.9435 32.8471 89.6278 26.5345 89.6278 18.7475C89.6278 10.9606 95.9435 4.64795 103.734 4.64795C111.525 4.64795 117.841 10.9606 117.841 18.7475C117.841 26.5345 111.525 32.8471 103.734 32.8471Z" fill="#300375"/>
<path d="M70.4033 44.4525C62.0804 43.5018 56.0505 36.4593 56.9351 28.7226C57.8198 20.986 65.284 15.485 73.6068 16.4357C81.9297 17.3865 87.9596 24.429 87.075 32.1656C86.1903 39.9023 78.7262 45.4033 70.4033 44.4525Z" fill="#300375"/>
</g>
<path d="M96.5807 48.8683C95.7893 46.3061 93.4691 44.5466 91.0756 43.551C89.8557 43.0571 88.5508 42.8218 87.2498 42.6636C86.4507 42.5671 85.7249 43.2385 85.6631 44.0141C85.5821 45.6 87.1726 45.6232 88.3076 45.8431C89.1839 45.9859 90.041 46.2174 90.8555 46.5724C92.1141 47.101 93.2336 47.8921 94.3609 48.6522C94.8859 49.0034 95.4303 49.3159 96.0016 49.586C96.5074 49.7982 96.7853 49.3159 96.5807 48.8722V48.8683Z" fill="#E0349E"/>
<path d="M120.752 43.0883C119.447 40.777 115.922 44.2536 114.822 45.4305C113.837 46.6962 113.011 48.2898 113.146 49.9336C113.54 50.9407 114.405 49.6017 114.803 49.2506C115.714 48.2589 116.613 47.2441 117.74 46.4839C118.505 45.8473 119.416 45.4537 120.277 44.9752C120.883 44.5855 121.08 43.7173 120.748 43.0883H120.752Z" fill="#E0349E"/>
<path d="M80.5171 42.0195C80.5171 42.0195 78.5058 36.0039 71.9776 36.7833C66.0594 37.4895 66.3991 45.1142 67.5148 48.4327C68.6305 51.7511 72.0123 53.8001 76.1508 52.9396C78.2896 52.492 79.2856 51.535 79.2856 51.535" fill="white"/>
<path d="M80.5171 42.0195C80.5171 42.0195 78.5058 36.0039 71.9776 36.7833C66.0594 37.4895 66.3991 45.1142 67.5148 48.4327C68.6305 51.7511 72.0123 53.8001 76.1508 52.9396C78.2896 52.492 79.2856 51.535 79.2856 51.535" stroke="#300375" stroke-width="2.31632" stroke-miterlimit="10" stroke-linecap="round"/>
<path d="M54.0269 18.053C54.0346 19.0446 54.8337 18.6819 55.3588 18.2922C56.2506 17.6131 56.9725 16.7256 57.9144 16.112C59.505 15.1512 61.0299 16.3513 61.5742 17.752C61.4584 16.2278 60.8291 14.6419 60.474 13.1563C59.9065 10.4475 59.9465 8.40286 61.5742 4.90454C60.3968 5.3097 55.0808 7.31426 53.857 8.01654C51.8457 9.10083 52.2819 8.84616 50.2436 9.888C50.0428 10.0578 49.429 10.2469 49.3556 10.3935C48.8113 11.5434 48.7186 12.5698 48.2013 13.7312C48.0199 14.2637 47.7303 14.831 47.8384 15.4059C49.6413 14.4026 52.2395 9.93044 54.6214 10.7022C56.8528 12.0257 54.0771 16.1622 54.0307 18.053H54.0269Z" fill="#E0349E"/>
<path d="M60.8205 9.8067C59.8834 14.8127 63.7005 17.5742 64.2757 22.3821C64.8509 27.19 63.2055 29.9834 59.565 32.3913C55.9245 34.7991 49.4127 33.688 47.0963 32.3992C43.5408 30.4197 41.8151 27.4563 41.4252 24.4889C40.9272 20.6959 40.904 17.9871 44.089 13.2486C47.5249 8.13975 64.0286 3 64.0286 3C64.0286 3 61.3612 6.91846 60.8205 9.8067Z" stroke="#300375" stroke-width="2.41283" stroke-miterlimit="10" stroke-linecap="round"/>
<path d="M30.0673 63.9212C31.2294 64.7277 32.8315 64.4112 33.5959 63.2228L52.3079 34.1399C52.3079 34.1399 51.4392 31.2266 48.8257 29.9301C46.6831 28.8651 44.3166 28.7185 44.3166 28.7185L29.2373 60.8149C28.72 61.9147 29.0713 63.2266 30.0673 63.9212Z" fill="#FFF742" stroke="#300375" stroke-width="2.41283" stroke-miterlimit="10" stroke-linecap="round"/>
<path d="M235.657 95.8017L212.234 95.4856C212.254 94.1587 212.523 82.248 216.549 72.6243C219.614 65.303 225.228 59.5779 231.729 58.1379C238.23 56.6978 244.149 59.0706 245.219 65.2952V65.3186C246.277 71.2857 241.631 75.477 238.945 80.9094C236.258 86.3418 235.7 93.0621 235.661 95.8017H235.657Z" fill="white" stroke="#300375" stroke-width="2.75264" stroke-miterlimit="10" stroke-linecap="round"/>
<path d="M212.23 95.4859C212.25 94.159 212.519 82.2483 216.545 72.6245C219.61 65.3033 225.225 59.5782 231.725 58.1381C238.226 56.6981 244.146 59.0709 245.215 65.2955V65.3189" stroke="#E0349E" stroke-width="2.75264" stroke-miterlimit="10" stroke-linecap="square"/>
<path d="M254.91 114.487C254.895 113.078 254.969 111.556 255.047 109.944C255.383 102.97 255.348 97.9982 251.806 97.6665C249.991 97.846 247.925 98.408 246.18 102.256C245.188 104.449 245.192 109.991 245.5 114.069C245.508 114.174 245.508 114.233 245.508 114.237L245.481 115.439L226.845 115.31L226.872 114.073C226.872 113.987 226.864 113.741 226.849 113.367C226.474 103.173 226.962 96.3864 228.297 93.1902C230.843 87.0944 233.233 83.3557 236.29 80.6941C239.761 77.6735 244.169 76.0579 250.166 75.6169C250.678 75.5778 251.213 75.5583 251.763 75.5583C259.994 75.5583 270.434 79.5585 275.202 88.4954C278.747 95.1376 279.251 108.75 279.305 114.295L279.317 115.517L254.926 115.704L254.914 114.487H254.91Z" fill="white"/>
<path d="M251.763 76.7765C258.627 76.7765 269.228 79.8908 274.124 89.0657C277.54 95.4738 278.032 108.848 278.083 114.304L256.132 114.472C256.062 107.615 258.186 96.8787 251.798 96.4377C249.424 96.6563 246.984 97.5226 245.071 101.749C243.532 105.14 244.29 114.171 244.29 114.206L228.094 114.093C228.11 113.383 227.266 98.8261 229.426 93.6552C233.83 83.1026 238.527 77.6936 250.26 76.8312C250.736 76.796 251.24 76.7765 251.767 76.7765M251.763 74.3374C251.185 74.3374 250.619 74.3569 250.076 74.3959C236.91 75.3677 231.706 81.846 227.169 92.7147C225.748 96.1216 225.24 102.893 225.627 113.41C225.638 113.734 225.646 113.96 225.65 114.066L225.599 116.52L228.075 116.536L244.27 116.649L246.676 116.665L246.726 114.261C246.726 114.14 246.726 114.058 246.715 113.976C246.406 109.867 246.453 104.602 247.289 102.756C248.733 99.5676 250.256 99.0564 251.814 98.8885C252.415 98.951 253.208 99.2281 253.661 101.48C254.117 103.743 253.965 106.865 253.821 109.878C253.743 111.51 253.668 113.047 253.684 114.495L253.707 116.93L256.144 116.911L278.095 116.743L280.539 116.723L280.516 114.28C280.449 107.283 279.809 94.5528 276.267 87.9184C273.831 83.3485 269.833 79.6644 264.706 77.2682C260.716 75.4028 255.995 74.3335 251.755 74.3335L251.763 74.3374Z" fill="#300375"/>
<path d="M270.337 93.156L262.735 94.237C256.359 95.1463 249.889 95.0995 243.525 94.1043L237.477 93.156C235.536 93.156 233.967 91.513 233.967 89.4837V69.6C233.967 66.8096 236.13 64.55 238.796 64.55H269.021C271.688 64.55 273.851 66.8096 273.851 69.6V89.4837C273.851 91.513 272.277 93.156 270.341 93.156H270.337Z" fill="#FFF742"/>
<path d="M270.356 93.4602C264.863 94.069 259.447 95.2319 253.903 95.5441C249.737 95.8446 245.504 95.6768 241.342 95.1656C239.972 95.0173 238.601 94.8495 237.231 94.6817L237.469 94.7012C235.224 94.7714 233.147 93.1675 232.499 91.0523C232.292 90.4201 232.233 89.7332 232.225 89.0776C232.05 83.2081 231.839 76.7688 231.71 70.9344C231.71 70.712 231.679 70.0213 231.683 69.7988C231.581 67.4416 232.624 65.0533 234.509 63.6015C235.704 62.6532 237.235 62.1107 238.765 62.0717L241.799 61.9858L253.899 61.5253C257.932 61.3887 261.966 61.3302 266.003 61.4083C267.822 61.4902 269.747 61.2912 271.492 61.9468C273.773 62.7742 275.569 64.745 276.205 67.0631C276.498 68.0856 276.564 69.1393 276.439 70.1813C275.877 76.6088 274.819 83.0169 274.409 89.46C274.335 91.5791 272.519 93.546 270.352 93.468L270.356 93.4602ZM270.313 92.8514C272.078 92.828 273.46 91.1693 273.281 89.4522C273.136 87.3097 272.941 85.1672 272.699 83.0247C272.195 78.5523 271.574 74.0838 271.2 69.6037C271.059 68.7022 270.411 67.8514 269.54 67.6563C268.377 67.5665 267.19 67.707 266.007 67.6914C261.973 67.7695 257.94 67.7109 253.903 67.5743L241.803 67.1138L238.785 67.028C238.297 67.0085 237.824 67.1333 237.414 67.4221C236.645 67.9334 236.227 68.8739 236.239 69.7949C236.227 70.0134 236.223 70.6964 236.212 70.9306C236.067 76.9679 235.872 83.614 235.685 89.6786C235.7 90.6503 236.493 91.5674 237.477 91.6103C242.943 92.5587 248.316 93.9948 253.899 94.2212C259.412 94.5919 264.882 93.7334 270.313 92.8514Z" fill="#E0349E"/>
<path d="M289.191 83.1531C286.11 83.1531 274.241 82.9814 273.276 82.9268C268.697 82.9268 264.983 79.2154 264.983 74.6377V67.8003C264.983 63.2226 268.697 59.5113 273.276 59.5113H274.03L274.424 59.5386C275.572 59.6127 288.976 59.7142 290.167 59.7376C296.102 59.8508 298.218 55.0935 298.292 49.1616C298.339 45.2512 298.316 41.0638 298.222 37.2704L321.641 36.6851C321.782 42.3555 322.094 61.4548 320.157 69.0999C317.014 81.4945 301.275 82.5755 296.106 82.9307C293.673 83.0985 291.28 83.1531 289.191 83.1531Z" fill="white" stroke="#300375" stroke-width="2.75264" stroke-miterlimit="10" stroke-linecap="round"/>
<path d="M321.645 36.6851C321.786 42.3555 322.098 61.4548 320.161 69.0999C317.018 81.4945 301.279 82.5755 296.11 82.9307C293.677 83.0985 291.284 83.1531 289.195 83.1531C286.114 83.1531 274.245 82.9814 273.28 82.9268C268.7 82.9268 264.987 79.2154 264.987 74.6377" stroke="#E0349E" stroke-width="2.75264" stroke-miterlimit="10" stroke-linecap="square"/>
<path d="M233.01 62.1924C233.01 62.1924 228.411 82.6809 228.091 94.9663L243.041 96.258C243.041 96.258 243.474 89.2724 243.876 81.0106C244.228 73.7167 244.025 64.8071 244.025 64.8071L233.01 62.1963V62.1924Z" fill="#E0349E" stroke="#300375" stroke-width="2.34268" stroke-miterlimit="10" stroke-linecap="round"/>
<path d="M273.78 57.8491C273.78 57.8491 277.985 86.2014 278.083 96.4574L260.13 96.8671C260.13 96.8671 259.896 87.8795 259.502 80.1055C259.143 73.0575 259.104 66.146 259.104 66.146C267.393 67.6914 273.78 57.8491 273.78 57.8491Z" fill="#E0349E" stroke="#300375" stroke-width="2.19821" stroke-miterlimit="10" stroke-linecap="round"/>
<path d="M278.27 38.1335C279.219 33.4192 278.958 28.5137 277.345 23.9789C275.846 19.7719 273.054 15.3229 267.849 13.0555C256.288 8.01339 244.305 10.4876 239.202 13.9414C234.552 17.0869 228.754 21.7544 227.958 32.4904C227.325 41.0097 227.481 49.2754 228.278 53.2638C229.074 57.2484 231.725 65.8224 238.699 69.9552C245.672 74.088 253.559 72.8899 254.746 72.7572C255.933 72.6246 266.311 70.8176 270.918 62.6417C274.218 56.7879 276.97 44.5962 278.27 38.1374V38.1335Z" fill="white" stroke="#300375" stroke-width="2.34268" stroke-miterlimit="10" stroke-linecap="round"/>
<mask id="mask1_1797_11520" style="mask-type:luminance" maskUnits="userSpaceOnUse" x="227" y="10" width="52" height="64">
<path d="M278.27 38.1335C279.219 33.4192 278.958 28.5137 277.345 23.9789C275.846 19.7719 273.054 15.3229 267.849 13.0555C256.288 8.01339 244.305 10.4876 239.202 13.9414C234.552 17.0869 228.754 21.7544 227.958 32.4904C227.325 41.0097 227.481 49.2754 228.278 53.2638C229.074 57.2484 231.725 65.8224 238.699 69.9552C245.672 74.088 253.559 72.8899 254.746 72.7572C255.933 72.6246 266.311 70.8176 270.918 62.6417C274.218 56.7879 276.97 44.5962 278.27 38.1374V38.1335Z" fill="white"/>
</mask>
<g mask="url(#mask1_1797_11520)">
<path d="M248.921 31.7056C256.8 31.7056 263.188 25.3212 263.188 17.4456C263.188 9.56999 256.8 3.18555 248.921 3.18555C241.041 3.18555 234.654 9.56999 234.654 17.4456C234.654 25.3212 241.041 31.7056 248.921 31.7056Z" fill="#300375"/>
<path d="M282.63 43.4454C291.047 42.4838 297.146 35.3611 296.251 27.5365C295.356 19.7118 287.807 14.1482 279.39 15.1097C270.972 16.0713 264.873 23.194 265.768 31.0186C266.663 38.8433 274.212 44.4069 282.63 43.4454Z" fill="#300375"/>
</g>
<path d="M268.576 32.6621C265.523 33.0641 262.422 33.7861 259.533 34.8047C256.929 35.8389 253.961 37.4272 252.814 40.0536C251.338 43.5191 251.228 47.449 250.799 51.1877C250.74 51.9487 250.592 53.9546 250.529 54.6961C250.377 56.1557 250.315 57.7128 249.624 59.1178C248.234 61.8652 244.813 61.3618 243.361 58.9422C242.744 57.7675 242.631 56.343 242.463 55.063C242.002 50.4228 242.689 45.7085 241.627 41.1815C240.885 38.0399 239.249 36.034 235.919 35.4252C233.982 35.0271 231.913 35.0583 229.953 35.113C233.795 34.3676 238.839 33.8368 241.522 37.3843C245.489 43.1133 243.544 50.6609 245.071 56.983C245.149 57.2406 245.184 57.5255 245.329 57.7597C245.637 58.2397 246.375 58.8056 246.957 58.6378C248.042 58.1656 248.077 55.5976 248.241 54.4815C248.362 53.1702 248.526 51.094 248.679 49.7867C249.237 46.048 249.526 42.0791 251.486 38.6995C253.169 36.0067 256.261 34.5861 259.189 33.7158C262.282 32.9665 265.417 32.5646 268.584 32.6621H268.576Z" fill="#E0349E"/>
<path d="M256.155 47.9095C256.956 45.3181 259.302 43.5386 261.723 42.5317C262.957 42.0322 264.277 41.7941 265.592 41.6341C266.401 41.5366 267.135 42.2156 267.197 43C267.279 44.604 265.671 44.6274 264.523 44.8498C263.636 44.9942 262.77 45.2284 261.946 45.5874C260.673 46.1221 259.541 46.9221 258.4 47.6909C257.869 48.0461 257.319 48.3622 256.741 48.6354C256.23 48.85 255.948 48.3622 256.155 47.9134V47.9095Z" fill="#E0349E"/>
<path d="M231.71 42.0637C233.03 39.726 236.594 43.2423 237.707 44.4326C238.703 45.7126 239.538 47.3244 239.402 48.9869C239.003 50.0054 238.129 48.6513 237.727 48.2961C236.805 47.2932 235.895 46.2668 234.755 45.498C233.982 44.854 233.061 44.456 232.19 43.9721C231.577 43.5779 231.378 42.6998 231.714 42.0637H231.71Z" fill="#E0349E"/>
<path d="M272.402 40.9823C272.402 40.9823 274.436 34.8981 281.039 35.6865C287.024 36.4006 286.68 44.1121 285.552 47.4684C284.424 50.8246 281.003 52.8969 276.818 52.0266C274.655 51.5739 273.647 50.606 273.647 50.606" fill="white"/>
<path d="M272.402 40.9823C272.402 40.9823 274.436 34.8981 281.039 35.6865C287.024 36.4006 286.68 44.1121 285.552 47.4684C284.424 50.8246 281.003 52.8969 276.818 52.0266C274.655 51.5739 273.647 50.606 273.647 50.606" stroke="#300375" stroke-width="2.34268" stroke-miterlimit="10" stroke-linecap="round"/>
<path d="M284.674 41.1614L301.982 34.9407L337.595 35.9983L329.071 42.3478L284.674 41.1614Z" fill="#E0349E" stroke="#300375" stroke-width="2.44029" stroke-linecap="round" stroke-linejoin="round"/>
<path d="M329.071 42.348L329.356 47.9482L337.739 40.9002L337.595 35.9985L329.071 42.348Z" fill="#E0349E" stroke="#300375" stroke-width="2.44029" stroke-linecap="round" stroke-linejoin="round"/>
<path d="M284.674 41.1616L284.939 46.3521L329.356 47.9482L329.071 42.348L284.674 41.1616Z" fill="#E0349E" stroke="#300375" stroke-width="2.44029" stroke-linecap="round" stroke-linejoin="round"/>
<path d="M307.359 35.6626L296.575 41.0599L321.985 41.938L328.982 36.2246L307.359 35.6626Z" fill="#FFF742"/>
<path d="M338.017 36.2366L341.476 36.3459L350.234 12.3021L347.227 11.0923L338.017 36.2366Z" fill="#E0349E" stroke="#300375" stroke-width="2.44029" stroke-linecap="round" stroke-linejoin="round"/>
<path d="M308.565 35.5491L295.716 41.4537" stroke="#300375" stroke-width="0.780892" stroke-linecap="round" stroke-linejoin="round"/>
<path d="M315.914 35.2295L304.79 41.6922" stroke="#300375" stroke-width="0.780892" stroke-linecap="round" stroke-linejoin="round"/>
<path d="M328.787 36.7051L320.658 42.5199" stroke="#300375" stroke-width="0.780892" stroke-linecap="round" stroke-linejoin="round"/>
<path d="M321.267 36.0845L312.462 42.3286" stroke="#300375" stroke-width="0.780892" stroke-linecap="round" stroke-linejoin="round"/>
<path d="M304.946 37.1963L327.416 37.575" stroke="#300375" stroke-width="0.780892" stroke-linecap="round" stroke-linejoin="round"/>
<path d="M302.271 38.4531L325.511 38.906" stroke="#300375" stroke-width="0.780892" stroke-linecap="round" stroke-linejoin="round"/>
<path d="M284.674 41.1611L301.982 34.9404L337.595 35.998L329.071 42.3475L284.674 41.1611Z" stroke="#300375" stroke-width="2.44029" stroke-linecap="round" stroke-linejoin="round"/>
<path d="M301.982 34.9405L308.284 10.6392L347.227 11.0919L337.595 35.9981L301.982 34.9405Z" fill="#E0349E" stroke="#300375" stroke-width="2.44029" stroke-linecap="round" stroke-linejoin="round"/>
<path d="M306.605 31.479L311.263 14.1125L341.222 14.7994L335.17 32.322L306.605 31.479Z" fill="#FFF742"/>
<g clip-path="url(#clip0_1797_11520)">
<path d="M-102.409 113.225C-104.677 127.644 -98.2037 133.175 -84.3914 136.1C-53.4137 139.779 -28.2295 135.333 -0.13947 125.159C58.0655 104.078 82.4768 86.83 164.639 106.619C208.38 117.154 238.962 119.175 279.743 101.661C336.49 77.2897 358.293 89.2197 382.831 102.646C396.55 110.153 411.124 118.127 433.137 120.487C447.239 121.999 464.613 117.747 482.625 113.34C500.806 108.891 529.24 89.7052 546.012 90.7048C576.101 92.4983 585.402 106.673 609.512 107.955C628.35 108.956 646.216 98.9781 652.512 102.646C686.012 80.4547 703.923 111.559 710.512 90.7048C713.785 80.3443 715.915 101.792 738.075 105.744C786.705 114.416 812.041 78.969 807.148 29.7906C805.919 17.4305 812.257 1.69844 809.254 -6.90288C805.743 -16.9574 812.013 -25.9294 821.485 -35.0697C805.068 -67.2667 808.624 -91.3927 822.074 -120.991C849.1 -180.467 859.753 -231.261 818.288 -278.526C795.861 -307.309 791.501 -349.334 809.254 -381.79C825.379 -411.271 846.848 -421.989 818.513 -469.289C815.855 -473.727 814.192 -477.736 813.316 -481.488C790.942 -480.495 769.751 -481.931 761.445 -492.31C743.252 -515.044 752.154 -537.398 788.171 -543.577L788.172 -543.577C803.116 -546.141 818.145 -548.719 827.742 -554.614C827.742 -554.614 831.622 -546.997 832.53 -544.056C832.399 -534.744 827.805 -525.912 823.142 -516.945L823.14 -516.942C822.609 -515.92 822.084 -514.92 821.568 -513.939C815.407 -502.208 810.61 -493.074 813.316 -481.488C852.026 -483.207 894.275 -492.201 879.444 -474.738C863.809 -456.329 873.964 -408.778 870.635 -391.546C839.177 -348.792 877.09 -324.19 901.473 -302.864C960.625 -251.128 876.061 -143.412 864.763 -86.1804C860.611 -65.1481 836.841 -49.8877 821.485 -35.0697C824.471 -29.2147 828.117 -23.0928 832.484 -16.6225C862.928 28.4857 850.912 51.8301 841.123 70.8497L840.966 71.1539C843.714 90.653 834.803 113.147 803.508 116.624C803.3 116.765 803.093 116.904 802.885 117.04C794.709 211.662 739.889 149.167 694.68 171.99C679.892 178.808 655.436 178.395 633.636 168.66C617.961 161.66 608.288 157.559 591.225 147.069C570.555 134.362 545.22 132.228 514.937 140.155C478.519 149.688 444.239 165.997 406.823 148.503C372.638 132.519 346.906 115.396 314.484 132.39C291.48 144.446 275.602 152.529 251.826 155.867C217.775 160.648 190.058 157.554 164.039 149.074C157.613 146.98 151.349 144.675 145.113 142.381L145.101 142.376C115.21 131.379 85.9914 120.628 42.9284 134.499C-3.0576 147.974 -16.8265 202.879 -98.2505 168.207C-141.683 184.872 -196.551 181.013 -190.875 128.639C-221.003 120.809 -240.166 79.1916 -215.082 7.34413C-203.49 -25.865 -213.613 -59.7795 -234.098 -87.9587C-260.849 -123.725 -249.612 -152.417 -240.65 -162.292C-243.886 -132.496 -207.889 -119.172 -194.253 -103.858L-194.252 -103.857C-177.999 -85.6036 -162.505 -68.2031 -178.158 -29.1613C-195.524 14.1544 -185.993 90.6682 -150.666 77.9863C-125.856 69.0797 -97.6635 83.054 -102.409 113.225Z" fill="#1A003E"/>
<path d="M88.9945 75.7133C92.0018 70.0692 89.8669 63.0546 84.219 60.0472L47.4474 39.9377L36.553 60.3793L73.3246 80.4888C78.9687 83.4961 85.9833 81.3612 88.9906 75.7133H88.9945Z" fill="white" stroke="#300375" stroke-width="2.41283" stroke-miterlimit="10"/>
<path d="M88.9945 75.7133C92.0018 70.0692 89.8669 63.0546 84.219 60.0472L47.4474 39.9377" stroke="#E0349E" stroke-width="2.72167" stroke-miterlimit="10" stroke-linecap="square"/>
<path d="M116.848 96.468L140.008 96.1553C139.988 94.8427 139.722 83.0604 135.742 73.5403C132.711 66.298 127.16 60.6346 120.732 59.2101C114.632 57.8589 108.452 60.1327 107.394 66.2903V66.3134C106.348 72.2162 110.942 76.3624 113.598 81.7363C116.25 87.0985 116.806 93.7579 116.844 96.468H116.848Z" fill="white" stroke="#300375" stroke-width="2.72167" stroke-miterlimit="10" stroke-linecap="round"/>
<path d="M140.012 96.159C139.992 94.8464 139.726 83.0641 135.746 73.544C132.715 66.3017 127.164 60.6383 120.736 59.2137C114.636 57.8625 108.456 60.1364 107.398 66.2939V66.3171" stroke="#E0349E" stroke-width="2.72167" stroke-miterlimit="10" stroke-linecap="square"/>
<path d="M97.8122 114.956C97.8277 113.563 97.7543 112.057 97.6771 110.463C97.3451 103.564 97.3798 98.6455 100.881 98.3174C102.676 98.495 104.719 99.0509 106.444 102.857C107.367 104.892 107.444 110.196 107.116 114.547C107.108 114.64 107.108 114.69 107.108 114.694L107.124 115.894L125.562 115.767L125.539 114.543C125.539 114.458 125.546 114.215 125.562 113.848C125.932 103.765 125.45 97.0473 124.129 93.8855C121.612 87.8553 119.25 84.1569 116.227 81.5241C112.795 78.536 108.436 76.9377 102.507 76.5015C102.001 76.4629 101.472 76.4436 100.928 76.4436C92.7897 76.4436 82.4666 80.4006 77.7529 89.2413C74.2475 95.8119 73.7495 109.277 73.6955 114.763L73.6839 115.972L97.8006 116.157L97.8122 114.952V114.956Z" fill="white"/>
<path d="M100.924 77.6513C94.1372 77.6513 83.6559 80.732 78.8148 89.8081C75.4368 96.1471 74.9504 109.377 74.9002 114.774L96.6041 114.94C96.6736 108.157 94.5734 97.5369 100.889 97.1007C103.236 97.3169 105.649 98.1739 107.541 102.355C109.062 105.71 108.313 114.643 108.313 114.678L124.327 114.566C124.311 113.863 125.145 99.4633 123.01 94.3481C118.655 83.9092 114.011 78.5585 102.41 77.7054C101.939 77.6706 101.441 77.6513 100.92 77.6513M100.924 75.2385C101.495 75.2385 102.055 75.2578 102.592 75.2964C115.609 76.2577 120.756 82.6661 125.241 93.4177C126.647 96.788 127.149 103.486 126.766 113.89C126.755 114.211 126.747 114.434 126.743 114.539L126.793 116.967L124.346 116.982L108.332 117.094L105.954 117.11L105.904 114.732C105.904 114.612 105.904 114.531 105.916 114.45C106.221 110.385 106.174 105.177 105.348 103.351C103.92 100.197 102.414 99.6911 100.874 99.5251C100.279 99.5869 99.4956 99.861 99.0478 102.088C98.5961 104.328 98.7467 107.416 98.8895 110.396C98.9667 112.01 99.0401 113.531 99.0246 114.963L99.0015 117.372L96.5925 117.353L74.8886 117.187L72.4719 117.168L72.4951 114.751C72.5607 107.829 73.1938 95.236 76.6953 88.6731C79.1043 84.1525 83.0575 80.5081 88.1264 78.1377C92.0718 76.2924 96.7392 75.2346 100.932 75.2346L100.924 75.2385Z" fill="#300375"/>
<path d="M82.5628 93.8543L90.0793 94.9237C96.3835 95.8232 102.78 95.7769 109.073 94.7924L115.053 93.8543C116.972 93.8543 118.524 92.229 118.524 90.2216V70.5522C118.524 67.7919 116.385 65.5566 113.748 65.5566H83.8638C81.2271 65.5566 79.0884 67.7919 79.0884 70.5522V90.2216C79.0884 92.229 80.6442 93.8543 82.559 93.8543H82.5628Z" fill="#FFF742"/>
<path d="M82.5397 94.1554C87.9714 94.7577 93.326 95.9081 98.8079 96.217C102.931 96.5142 107.112 96.3482 111.227 95.8425C112.582 95.6958 113.937 95.5298 115.292 95.3638L115.057 95.3831C117.277 95.4526 119.331 93.8659 119.971 91.7735C120.176 91.1481 120.234 90.4686 120.242 89.82C120.415 84.0138 120.624 77.6439 120.751 71.8724C120.751 71.6524 120.782 70.9691 120.778 70.749C120.879 68.4173 119.848 66.0546 117.983 64.6185C116.802 63.6804 115.289 63.1438 113.775 63.1052L110.776 63.0203L98.8118 62.5647C94.8239 62.4296 90.8359 62.3717 86.848 62.4489C85.049 62.53 83.1457 62.3331 81.4201 62.9816C79.1655 63.8001 77.3897 65.7496 76.7604 68.0428C76.4709 69.0543 76.4053 70.0966 76.5288 71.1274C77.0847 77.4857 78.1309 83.8246 78.5363 90.1984C78.6096 92.2947 80.4048 94.2442 82.5474 94.1631L82.5397 94.1554ZM82.5821 93.5532C80.8372 93.53 79.4705 91.8893 79.6481 90.1907C79.791 88.0712 79.984 85.9518 80.2233 83.8324C80.7213 79.4082 81.3352 74.9879 81.7058 70.556C81.8447 69.6642 82.4856 68.8226 83.3465 68.6296C84.4969 68.5408 85.6706 68.6798 86.8403 68.6643C90.8282 68.7416 94.8161 68.6837 98.8041 68.5485L110.772 68.093L113.756 68.008C114.238 67.9887 114.706 68.1123 115.111 68.398C115.871 68.9037 116.285 69.8341 116.273 70.7452C116.285 70.9614 116.288 71.6369 116.3 71.8686C116.443 77.8408 116.636 84.4153 116.821 90.4146C116.806 91.3758 116.022 92.2831 115.049 92.3255C109.644 93.2637 104.332 94.6843 98.8118 94.9082C93.3607 95.275 87.9521 94.4257 82.5821 93.5532Z" fill="#E0349E"/>
<path d="M119.466 63.2251C119.466 63.2251 124.014 83.4929 124.33 95.6458L109.548 96.9237C109.548 96.9237 109.12 90.0133 108.722 81.8406C108.375 74.6252 108.575 65.8117 108.575 65.8117L119.466 63.229V63.2251Z" fill="#E0349E" stroke="#300375" stroke-width="2.31632" stroke-miterlimit="10" stroke-linecap="round"/>
<path d="M79.154 58.9277C79.154 58.9277 74.9963 86.9745 74.8997 97.12L92.6505 97.5253C92.6505 97.5253 92.8821 88.6345 93.272 80.9443C93.6272 73.9722 93.6658 67.1352 93.6658 67.1352C85.4699 68.664 79.154 58.9277 79.154 58.9277Z" fill="#E0349E" stroke="#300375" stroke-width="2.17348" stroke-miterlimit="10" stroke-linecap="round"/>
<path d="M74.7146 39.425C73.7765 34.7615 74.0352 29.9088 75.6296 25.4228C77.112 21.2612 79.8723 16.8602 85.0184 14.6172C96.4494 9.62941 108.297 12.077 113.343 15.4936C117.941 18.6051 123.674 23.2223 124.461 33.8427C125.087 42.2702 124.932 50.4468 124.145 54.3923C123.357 58.3339 120.736 66.8154 113.841 70.9037C106.946 74.992 99.1479 73.8069 97.9743 73.6756C96.8007 73.5444 86.5395 71.7569 81.984 63.6691C78.7219 57.8783 76.0002 45.818 74.7146 39.4288V39.425Z" fill="white" stroke="#300375" stroke-width="2.31632" stroke-miterlimit="10" stroke-linecap="round"/>
<path d="M-57.4093 121.725C-59.6768 136.144 -53.204 141.675 -39.3916 144.6C-8.41404 148.279 16.7703 143.833 44.8603 133.659C103.065 112.578 127.477 95.33 209.638 115.119C253.38 125.654 283.962 127.675 324.743 110.161C381.49 85.7897 403.293 97.7197 427.831 111.146C441.55 118.653 456.124 126.627 478.137 128.987C492.239 130.499 509.613 126.247 527.625 121.84C545.806 117.391 564.637 112.783 581.409 113.782C611.498 115.576 615.756 116.255 636.224 128.987C641.235 132.104 649.137 130.131 655.433 133.8C685.416 148.153 728.117 128.367 734.706 107.512C737.98 97.152 760.915 110.292 783.075 114.244C831.705 122.916 857.041 87.469 852.148 38.2906C850.918 25.9305 857.257 10.1984 854.254 1.5971C850.743 -8.45743 857.013 -17.4294 866.485 -26.5697C850.068 -58.7668 853.624 -82.8928 867.073 -112.491C894.1 -171.967 904.753 -222.761 863.288 -270.026C840.86 -298.809 836.501 -340.834 854.254 -373.29C870.379 -402.771 891.848 -413.489 863.513 -460.789C860.855 -465.227 859.192 -469.236 858.315 -472.988C835.942 -471.995 814.75 -473.431 806.444 -483.81C788.252 -506.544 797.153 -528.898 833.171 -535.077C848.115 -537.641 863.144 -540.219 872.742 -546.114C872.742 -546.114 876.622 -538.497 877.53 -535.556C877.398 -526.244 872.805 -517.412 868.141 -508.445L868.14 -508.442C867.609 -507.421 867.083 -506.42 866.568 -505.439C860.406 -493.708 855.609 -484.574 858.315 -472.988C897.026 -474.707 939.275 -483.701 924.443 -466.238C908.808 -447.829 918.964 -400.278 915.635 -383.046C884.177 -340.292 922.09 -315.69 946.472 -294.364C1005.62 -242.628 921.061 -134.912 909.762 -77.6804C905.61 -56.6482 881.84 -41.3878 866.485 -26.5697C869.47 -20.7147 873.116 -14.5928 877.483 -8.12253C907.928 36.9857 895.912 60.33 886.122 79.3497L885.966 79.6539C888.714 99.153 879.803 121.647 848.508 125.124C848.3 125.265 848.093 125.404 847.885 125.54C839.709 220.162 784.889 157.667 739.68 180.49C724.892 187.308 700.435 186.895 678.636 177.16C662.961 170.16 653.287 166.059 636.224 155.569C615.555 142.862 590.22 140.728 559.937 148.655C523.519 158.188 489.239 174.497 451.823 157.003C417.638 141.019 391.906 123.896 359.483 140.89C336.48 152.946 320.601 161.029 296.826 164.367C262.774 169.148 235.057 166.054 209.039 157.574C202.614 155.481 196.35 153.176 190.115 150.882L190.113 150.881L190.1 150.876C160.21 139.879 130.991 129.128 87.9282 142.999C41.9422 156.474 28.1732 211.379 -53.2508 176.707C-96.6835 193.372 -151.552 189.513 -145.876 137.139C-176.004 129.309 -195.166 87.6916 -170.083 15.8441C-158.49 -17.365 -168.613 -51.2795 -189.098 -79.4587C-215.849 -115.225 -204.612 -143.917 -195.65 -153.792C-198.886 -123.996 -162.889 -110.672 -149.253 -95.358C-133 -77.1041 -117.505 -59.7036 -133.158 -20.6613C-150.524 22.6544 -140.993 99.1682 -105.666 86.4862C-80.8559 77.5797 -52.6638 91.554 -57.4093 121.725Z" fill="#27005C"/>
<path d="M-111.595 110.883C-111.595 110.883 -119.07 142.486 -80.9431 157.487C-80.9431 157.487 -88.9094 180.991 -69.2029 194.406C-48.5431 208.469 -18.688 207.318 20.5091 191.739C20.5091 191.739 -3.98737 195.98 -16.2559 184.449C-35.2756 166.572 -44.7453 141.891 -63.9513 138.937C-63.9513 138.937 -94.9092 104.266 -111.595 110.883Z" fill="#6027AE"/>
<path d="M50.5693 133.873C48.3018 148.291 54.7745 153.823 68.5869 156.747C99.5645 160.427 124.749 155.98 152.839 145.807C211.044 124.726 235.455 107.477 317.617 127.266C361.359 137.802 391.94 139.822 432.721 122.308C489.468 97.9372 511.271 109.867 535.81 123.294C549.528 130.8 564.102 138.775 586.115 141.135C600.217 142.646 617.591 138.395 635.603 133.987C653.784 129.538 672.616 124.93 689.387 125.93C719.477 127.723 723.734 128.403 744.203 141.135C749.213 144.251 757.115 142.279 763.411 145.947C793.394 160.3 836.096 140.514 842.685 119.66C845.958 109.299 868.893 122.439 891.053 126.391C939.683 135.063 965.02 99.6165 960.127 50.438C958.897 38.078 965.235 22.3459 962.232 13.7446C958.722 3.69004 964.992 -5.28196 974.464 -14.4223C958.047 -46.6193 961.602 -70.7453 975.052 -100.344C1002.08 -159.82 1012.73 -210.614 971.267 -257.878C948.839 -286.662 944.479 -328.687 962.232 -361.143C978.357 -390.623 999.827 -401.342 971.492 -448.642C968.833 -453.079 967.17 -457.089 966.294 -460.841C943.92 -459.847 922.729 -461.284 914.423 -471.663C896.23 -494.396 905.132 -516.751 941.149 -522.93C956.094 -525.493 971.123 -528.072 980.72 -533.967C980.72 -533.967 984.601 -526.35 985.508 -523.409C985.377 -514.096 980.784 -505.265 976.12 -496.298L976.118 -496.294C975.587 -495.273 975.062 -494.273 974.546 -493.291C968.385 -481.561 963.588 -472.427 966.294 -460.841C1005 -462.56 1047.25 -471.554 1032.42 -454.091C1016.79 -435.682 1026.94 -388.13 1023.61 -370.898C992.155 -328.145 1030.07 -303.542 1054.45 -282.217C1113.6 -230.481 1029.04 -122.764 1017.74 -65.533C1013.59 -44.5007 989.819 -29.2403 974.464 -14.4223C977.449 -8.56725 981.095 -2.44534 985.462 4.02493C1015.91 49.1331 1003.89 72.4775 994.101 91.4971L993.944 91.8013C996.693 111.3 987.782 133.794 956.486 137.272C956.279 137.413 956.071 137.552 955.864 137.688C947.688 232.31 892.867 169.814 847.659 192.637C832.871 199.456 808.414 199.043 786.614 189.307C770.94 182.307 761.266 178.206 744.203 167.716C723.533 155.009 698.198 152.875 667.915 160.802C631.497 170.335 597.218 186.644 559.802 169.15C525.616 153.167 499.884 136.043 467.462 153.037C444.459 165.094 428.58 173.177 404.805 176.515C370.753 181.295 343.036 178.201 317.018 169.722C310.593 167.628 304.329 165.323 298.094 163.029L298.091 163.028L298.079 163.024C268.189 152.026 238.97 141.275 195.907 155.146C149.921 168.621 136.152 223.526 54.7277 188.854C11.295 205.52 -43.5731 201.66 -37.8972 149.286C-68.0251 141.456 -87.1875 99.839 -62.104 27.9916C-50.5119 -5.21753 -60.6345 -39.132 -81.1197 -67.3113C-107.871 -103.078 -96.6339 -131.77 -87.6718 -141.645C-90.9077 -111.849 -54.9107 -98.5241 -41.2749 -83.2106C-25.0212 -64.9566 -9.52691 -47.5561 -25.1794 -8.51388C-42.5455 34.8018 -33.0144 111.316 2.31256 98.6337C27.1226 89.7272 55.3148 103.701 50.5693 133.873Z" fill="#6027AE"/>
<path d="M16.9296 146.81C23.3156 171.602 -13.0138 178.967 -25.4536 166.102C-37.8946 153.241 -26.4669 141.557 -26.4669 141.557C-34.7897 151.786 -17.2351 171.074 1.40849 157.491C20.0509 143.912 9.21418 116.237 -13.6777 112.243C-40.7425 106.751 -62.7266 128.075 -63.5067 128.563C-33.996 92.7437 -0.254388 108.346 -0.254388 108.346C44.6068 125.863 16.9296 146.81 16.9296 146.81Z" fill="#6027AE"/>
<path d="M-91.8029 111.021C-91.8029 111.021 -97.7905 136.336 -67.2491 148.353C-67.2491 148.353 -73.6306 167.181 -57.8446 177.927C-41.2951 189.193 -17.3795 188.27 14.0194 175.791C14.0194 175.791 -5.60355 179.188 -15.4313 169.951C-30.6671 155.631 -38.2528 135.86 -53.6378 133.494C-53.6378 133.494 -78.4367 105.72 -91.8029 111.021Z" fill="#8A2262"/>
<path fill-rule="evenodd" clip-rule="evenodd" d="M25.5681 145.495C14.1118 143.069 8.74299 138.481 10.6237 126.522C14.5598 101.497 -8.82357 89.9061 -29.4018 97.2934C-58.7031 107.812 -66.6085 44.3493 -52.2046 8.42188C-39.2219 -23.9609 -52.0734 -38.3935 -65.5547 -53.5339C-76.8646 -66.2354 -106.722 -77.2871 -104.038 -102.001C-102.081 -120.013 -138.619 -146.682 -135.349 -161.452C-129.619 -187.332 -138.179 -196.435 -142.655 -225.584C-144.011 -234.418 -119.585 -253.165 -121.548 -259.679C-128.122 -281.492 -126.28 -309.585 -88.3187 -346.286C-77.1055 -361.415 -45.6891 -350.465 -53.3793 -360.067C-54.5002 -361.467 -55.6172 -362.861 -56.6705 -364.267C-64.2834 -374.424 -68.3889 -385.813 -50.6907 -388.995L-59.6855 -404.478C-96.4523 -389.942 -113.258 -380.421 -97.3229 -348.973C-87.2974 -333.988 -87.839 -324.614 -94.7145 -316.178C-96.7202 -313.717 -98.7091 -311.378 -100.629 -309.12C-108.186 -300.235 -114.675 -292.604 -116.913 -283.733C-122.233 -262.644 -112.971 -245.902 -104.038 -229.756C-101.806 -225.722 -99.5948 -221.726 -97.6366 -217.708C-86.5509 -194.962 -92.1883 -167.672 -101.686 -148.39C-126.028 -98.9696 -112.005 -58.7823 -98.6031 -40.3465C-81.612 -16.9738 -73.2161 11.156 -82.8311 38.7007C-103.636 98.2932 -87.742 132.812 -62.7531 139.306C-67.4608 182.747 -21.9515 185.948 14.0729 172.125C81.6086 200.883 93.029 155.343 131.171 144.167C166.889 132.662 191.124 141.579 215.916 150.701L215.926 150.704C221.099 152.607 226.295 154.519 231.624 156.256C253.205 163.289 276.194 165.855 304.438 161.89C324.158 159.122 337.328 152.417 356.408 142.417C383.3 128.322 404.643 142.525 432.997 155.782C464.031 170.292 492.464 156.765 522.67 148.858C547.788 142.283 568.801 144.053 585.945 154.593C600.098 163.294 608.122 166.695 621.123 172.501C639.204 180.576 659.489 180.919 671.755 175.263C709.252 156.333 754.722 208.168 761.503 129.686C761.675 129.573 761.847 129.458 762.02 129.341C787.977 126.457 809.886 93.1453 807.606 76.9721C815.749 61.1505 793.464 52.0319 768.077 14.418C744.537 -20.46 764.234 -38.7304 777.419 -67.7445C799.835 -117.076 808.671 -159.206 774.279 -198.409C755.677 -222.283 752.061 -257.14 766.785 -284.06C780.16 -308.512 797.967 -317.402 774.466 -356.634C765.452 -371.681 770.234 -380.787 776.999 -393.668C777.427 -394.482 777.863 -395.311 778.303 -396.158C782.172 -403.597 785.983 -410.923 786.092 -418.648C785.339 -421.087 782.12 -427.405 782.12 -427.405C774.16 -422.516 761.694 -420.377 749.299 -418.251C719.425 -413.126 712.042 -394.584 727.131 -375.728C745.94 -352.224 844.415 -384.009 825.003 -361.153C812.035 -345.884 820.458 -306.444 817.697 -292.151C791.605 -256.69 823.051 -236.284 843.275 -218.596C892.337 -175.684 822.197 -86.3411 812.826 -38.8715C807.258 -10.6661 785.456 -1.09949 793.089 20.7599C795.58 27.8941 792.069 25.7863 793.089 36.0381C797.147 76.8283 748.083 127.509 707.748 120.316C689.367 117.039 678.477 127.069 675.762 135.663C670.296 152.96 631.84 156.892 606.972 144.986C601.75 141.944 597.212 139.122 593.056 136.537C576.079 125.976 565.436 121.421 540.479 119.934C526.569 119.105 510.949 122.927 495.869 126.617C480.929 130.273 466.519 133.799 454.823 132.545C436.564 130.588 424.476 123.973 413.097 117.747C392.744 106.611 374.66 96.7157 327.593 116.93C293.768 131.457 268.402 129.781 232.121 121.042C163.974 104.629 143.726 118.935 95.4493 136.42C72.1506 144.858 51.262 148.547 25.5681 145.495Z" fill="#8A2262"/>
<path d="M11.1521 139.8C16.2675 159.66 -12.8342 165.56 -22.7991 155.254C-32.7651 144.952 -23.6108 135.593 -23.6108 135.593C-30.2779 143.786 -16.2157 159.237 -1.2812 148.356C13.6523 137.479 4.97156 115.31 -13.366 112.111C-35.0463 107.711 -52.6567 124.793 -53.2817 125.184C-29.642 96.4906 -2.61325 108.989 -2.61325 108.989C33.3229 123.021 11.1521 139.8 11.1521 139.8Z" fill="#8A2262"/>
<path d="M-74.8029 122.519C-74.8029 122.519 -80.7286 147.572 -50.5024 159.465C-50.5024 159.465 -56.818 178.099 -41.1949 188.734C-24.8161 199.884 -1.14729 198.971 29.9277 186.62C29.9277 186.62 10.5072 189.982 0.780831 180.84C-14.2977 166.668 -21.8052 147.101 -37.0314 144.76C-37.0314 144.76 -61.5745 117.272 -74.8029 122.519Z" fill="#FFF742"/>
<path fill-rule="evenodd" clip-rule="evenodd" d="M41.3574 156.637C30.0192 154.236 24.7058 149.695 26.5672 137.859C30.4626 113.093 7.32044 101.621 -13.0454 108.933C-42.0444 119.343 -49.8683 56.5347 -35.613 20.978C-22.7642 -11.0708 -35.4831 -25.3544 -48.8253 -40.3386C-60.0185 -52.9091 -89.5676 -63.8468 -86.9112 -88.3056C-84.9752 -106.131 -121.136 -132.526 -117.899 -147.144C-112.228 -172.756 -120.701 -181.765 -125.13 -210.614C-126.472 -219.357 -102.298 -237.91 -104.241 -244.357C-110.747 -265.944 -108.925 -293.748 -71.3545 -330.07C-60.257 -345.043 -29.1647 -334.206 -36.7755 -343.709C-37.8849 -345.094 -38.9904 -346.475 -40.0328 -347.866C-47.5672 -357.918 -51.6304 -369.189 -34.1148 -372.339L-43.0167 -387.662C-79.4042 -373.276 -96.0368 -363.853 -80.2658 -332.73C-70.3437 -317.899 -70.8797 -308.622 -77.6843 -300.273C-79.6693 -297.837 -81.6377 -295.522 -83.5382 -293.288C-91.0164 -284.494 -97.4387 -276.942 -99.6537 -268.163C-104.919 -247.291 -95.7525 -230.722 -86.9112 -214.742C-84.7023 -210.75 -82.5142 -206.795 -80.5762 -202.819C-69.6049 -180.307 -75.1842 -153.299 -84.5836 -134.216C-108.675 -85.3055 -94.7968 -45.5329 -81.5328 -27.2873C-64.717 -4.15568 -56.4077 23.6839 -65.9234 50.9443C-86.5138 109.922 -70.7838 144.084 -46.0527 150.512C-50.7118 193.505 -5.67206 196.673 29.9807 182.992C96.8196 211.453 108.122 166.384 145.871 155.322C181.22 143.936 205.205 152.761 229.741 161.789L229.752 161.793C234.87 163.676 240.013 165.568 245.288 167.287C266.645 174.248 289.398 176.787 317.35 172.863C336.866 170.123 349.901 163.488 368.783 153.591C395.398 139.641 416.521 153.697 444.583 166.818C475.296 181.178 503.436 167.791 533.33 159.965C558.189 153.458 578.986 155.21 595.953 165.641C609.959 174.252 617.9 177.618 630.767 183.364C648.662 191.356 668.738 191.695 680.877 186.098C717.987 167.363 762.988 218.664 769.7 140.991C769.87 140.879 770.04 140.765 770.211 140.65C795.9 137.795 803.215 119.33 800.959 103.324C809.018 87.6657 819.121 68.4965 793.996 31.2707C770.699 -3.24748 772.403 -25.6879 785.451 -54.4026C807.636 -103.225 816.381 -144.92 782.344 -183.719C763.933 -207.346 760.355 -241.844 774.927 -268.486C788.164 -292.686 805.788 -301.484 782.528 -340.311C773.607 -355.203 778.34 -364.215 785.036 -376.963C785.459 -377.769 785.89 -378.59 786.326 -379.428C790.155 -386.79 793.926 -394.04 794.034 -401.686C793.289 -404.1 790.104 -410.353 790.104 -410.353C782.225 -405.514 769.889 -403.397 757.621 -401.292C728.055 -396.22 720.748 -377.87 735.682 -359.209C754.297 -335.947 851.756 -367.405 832.544 -344.784C819.71 -329.673 828.046 -290.639 825.314 -276.494C799.49 -241.398 830.612 -221.203 850.627 -203.697C899.184 -161.229 829.768 -72.8074 820.493 -25.8275C814.982 2.08693 767.374 17.6154 774.927 39.2493C777.393 46.3099 772.19 59.224 773.199 69.3701C777.216 109.739 756.418 138.837 716.498 131.718C698.308 128.474 687.53 138.401 684.843 146.906C679.434 164.024 641.374 167.916 616.762 156.133C611.594 153.122 607.104 150.329 602.991 147.771C586.188 137.32 575.656 132.812 550.956 131.339C537.189 130.519 521.731 134.301 506.806 137.953C492.021 141.572 477.759 145.061 466.183 143.82C448.113 141.883 436.15 135.337 424.888 129.175C404.745 118.154 386.848 108.361 340.266 128.366C306.79 142.743 281.686 141.085 245.779 132.436C178.335 116.192 158.297 130.351 110.518 147.656C87.4592 156.007 66.7861 159.657 41.3574 156.637Z" fill="#E0349E"/>
<path d="M27.0897 151.001C32.1524 170.655 3.35094 176.494 -6.5112 166.295C-16.3743 156.1 -7.31453 146.837 -7.31453 146.837C-13.9128 154.945 0.00428288 170.237 14.7847 159.468C29.5642 148.704 20.973 126.763 2.82462 123.597C-18.6321 119.242 -36.0607 136.148 -36.6793 136.535C-13.2835 108.138 13.4664 120.507 13.4664 120.507C49.0318 134.394 27.0897 151.001 27.0897 151.001Z" fill="#FFF742"/>
</g>
<defs>
<clipPath id="clip0_1797_11520">
<rect width="360" height="165" fill="white" transform="translate(0.0117188 72.2048)"/>
</clipPath>
</defs>
</svg>
