<svg width="1440" height="493" viewBox="0 0 1440 493" fill="none" xmlns="http://www.w3.org/2000/svg">
<path d="M183 15.5L208.5 5.5L204.5 14L203.5 25.5L208.5 38L210.5 50.5L201.5 63.5L187.5 67L181.5 61L172 57L166.5 55.5L163 41L169.5 25.5L183 15.5Z" fill="white"/>
<path d="M259.358 150.206C265.373 138.918 261.103 124.889 249.807 118.874L176.264 78.655L154.475 119.538L228.018 159.757C239.306 165.772 253.336 161.502 259.35 150.206H259.358Z" fill="white" stroke="#300375" stroke-width="4.82566" stroke-miterlimit="10"/>
<path d="M259.358 150.206C265.373 138.918 261.103 124.889 249.807 118.874L176.264 78.655" stroke="#E0349E" stroke-width="5.44335" stroke-miterlimit="10" stroke-linecap="square"/>
<path d="M315.066 191.715L361.384 191.09C361.346 188.465 360.813 164.9 352.853 145.86C346.791 131.375 335.689 120.048 322.833 117.199C310.634 114.497 298.272 119.045 296.157 131.36V131.406C294.064 143.212 303.252 151.504 308.564 162.252C313.869 172.976 314.981 186.295 315.058 191.715H315.066Z" fill="white" stroke="#300375" stroke-width="5.44335" stroke-miterlimit="10" stroke-linecap="round"/>
<path d="M361.393 191.098C361.354 188.472 360.821 164.908 352.861 145.868C346.8 131.383 335.697 120.056 322.841 117.207C310.642 114.505 298.281 119.052 296.165 131.367V131.414" stroke="#E0349E" stroke-width="5.44335" stroke-miterlimit="10" stroke-linecap="square"/>
<path d="M276.994 228.692C277.024 225.905 276.878 222.894 276.723 219.705C276.059 205.907 276.129 196.071 283.132 195.414C286.722 195.769 290.807 196.881 294.258 204.494C296.103 208.563 296.258 219.172 295.601 227.874C295.586 228.059 295.586 228.159 295.586 228.167L295.617 230.568L332.493 230.313L332.446 227.866C332.446 227.696 332.462 227.21 332.493 226.476C333.234 206.309 332.269 192.874 329.628 186.551C324.594 174.49 319.869 167.093 313.823 161.828C306.959 155.852 298.242 152.655 286.382 151.783C285.371 151.705 284.313 151.667 283.224 151.667C266.948 151.667 246.302 159.581 236.875 177.262C229.864 190.403 228.868 217.334 228.76 228.306L228.737 230.723L276.97 231.093L276.994 228.684V228.692Z" fill="white"/>
<path d="M283.217 154.082C269.644 154.082 248.681 160.244 238.999 178.396C232.243 191.074 231.27 217.534 231.17 228.328L274.577 228.66C274.716 215.094 270.516 193.853 283.148 192.981C287.842 193.413 292.668 195.127 296.451 203.489C299.493 210.199 297.995 228.065 297.995 228.135L330.022 227.911C329.991 226.506 331.659 197.706 327.389 187.476C318.68 166.598 309.392 155.897 286.19 154.19C285.248 154.121 284.252 154.082 283.209 154.082M283.217 149.257C284.36 149.257 285.479 149.295 286.553 149.372C312.588 151.295 322.88 164.112 331.852 185.615C334.663 192.355 335.666 205.752 334.902 226.56C334.879 227.201 334.863 227.648 334.856 227.857L334.956 232.713L330.061 232.744L298.034 232.968L293.278 232.999L293.177 228.243C293.177 228.004 293.177 227.841 293.201 227.679C293.81 219.549 293.718 209.133 292.066 205.481C289.209 199.173 286.198 198.162 283.117 197.83C281.928 197.953 280.36 198.501 279.465 202.957C278.561 207.435 278.862 213.612 279.148 219.572C279.303 222.8 279.449 225.842 279.418 228.706L279.372 233.524L274.554 233.486L231.146 233.154L226.313 233.115L226.359 228.282C226.491 214.438 227.757 189.252 234.76 176.126C239.578 167.084 247.484 159.796 257.622 155.055C265.513 151.364 274.848 149.249 283.233 149.249L283.217 149.257Z" fill="#300375"/>
<path d="M246.495 186.488L261.528 188.627C274.136 190.426 286.93 190.334 299.515 188.365L311.475 186.488C315.313 186.488 318.417 183.238 318.417 179.223V139.884C318.417 134.364 314.139 129.893 308.866 129.893H249.097C243.823 129.893 239.546 134.364 239.546 139.884V179.223C239.546 183.238 242.657 186.488 246.487 186.488H246.495Z" fill="#FFF742"/>
<path d="M246.448 187.09C257.312 188.295 268.021 190.596 278.985 191.213C287.231 191.808 295.593 191.476 303.824 190.465C306.534 190.171 309.244 189.839 311.954 189.507L311.483 189.546C315.923 189.685 320.03 186.511 321.312 182.327C321.721 181.076 321.837 179.717 321.852 178.42C322.2 166.807 322.617 154.067 322.871 142.524C322.871 142.084 322.933 140.718 322.926 140.278C323.126 135.614 321.065 130.889 317.336 128.017C314.973 126.14 311.946 125.067 308.92 124.99L302.92 124.82L278.993 123.909C271.017 123.639 263.041 123.523 255.065 123.677C251.467 123.839 247.661 123.446 244.209 124.743C239.7 126.38 236.149 130.279 234.89 134.865C234.311 136.888 234.18 138.973 234.427 141.034C235.539 153.751 237.631 166.429 238.442 179.176C238.588 183.369 242.179 187.268 246.464 187.106L246.448 187.09ZM246.533 185.886C243.043 185.84 240.31 182.558 240.665 179.161C240.951 174.922 241.337 170.683 241.816 166.444C242.812 157.596 244.039 148.755 244.781 139.892C245.059 138.108 246.34 136.425 248.062 136.039C250.363 135.861 252.71 136.139 255.05 136.108C263.026 136.263 271.001 136.147 278.977 135.877L302.913 134.966L308.881 134.796C309.846 134.757 310.78 135.004 311.591 135.575C313.112 136.587 313.938 138.448 313.915 140.27C313.938 140.702 313.946 142.053 313.969 142.517C314.255 154.461 314.641 167.61 315.011 179.609C314.981 181.531 313.413 183.346 311.467 183.431C300.658 185.307 290.034 188.148 278.993 188.596C268.091 189.33 257.273 187.631 246.533 185.886Z" fill="#E0349E"/>
<path d="M320.301 125.23C320.301 125.23 329.397 165.765 330.03 190.071L300.466 192.627C300.466 192.627 299.609 178.806 298.814 162.461C298.119 148.03 298.52 130.403 298.52 130.403L320.301 125.237V125.23Z" fill="#E0349E" stroke="#300375" stroke-width="4.63264" stroke-miterlimit="10" stroke-linecap="round"/>
<path d="M239.677 116.635C239.677 116.635 231.362 172.728 231.169 193.019L266.67 193.83C266.67 193.83 267.133 176.048 267.913 160.668C268.623 146.724 268.701 133.05 268.701 133.05C252.309 136.107 239.677 116.635 239.677 116.635Z" fill="#E0349E" stroke="#300375" stroke-width="4.34696" stroke-miterlimit="10" stroke-linecap="round"/>
<path d="M230.798 77.6295C228.922 68.3025 229.44 58.5971 232.628 49.6252C235.593 41.3019 241.114 32.4999 251.406 28.014C274.268 18.0384 297.964 22.9335 308.055 29.7667C317.251 35.9898 328.717 45.2242 330.292 66.4649C331.543 83.3199 331.234 99.6731 329.659 107.564C328.084 115.447 322.841 132.41 309.051 140.587C295.262 148.764 279.665 146.393 277.318 146.131C274.971 145.868 254.448 142.293 245.337 126.118C238.813 114.536 233.37 90.4156 230.798 77.6372V77.6295Z" fill="white" stroke="#300375" stroke-width="4.63264" stroke-miterlimit="10" stroke-linecap="round"/>
<path d="M249.97 66.8047C256.008 67.6 262.138 69.0284 267.852 71.0436C273.002 73.0896 278.87 76.2321 281.14 81.4284C284.058 88.2847 284.275 96.0598 285.124 103.457C285.24 104.962 285.533 108.931 285.657 110.398C285.958 113.285 286.081 116.366 287.448 119.146C290.197 124.581 296.96 123.585 299.833 118.798C301.052 116.474 301.276 113.656 301.608 111.124C302.52 101.943 301.161 92.6162 303.261 83.6598C304.728 77.4443 307.963 73.4757 314.549 72.2712C318.379 71.4837 322.471 71.5454 326.347 71.6535C318.749 70.1788 308.774 69.1287 303.469 76.1472C295.625 87.4817 299.47 102.414 296.451 114.922C296.296 115.432 296.227 115.996 295.941 116.459C295.331 117.409 293.872 118.528 292.721 118.196C290.575 117.262 290.506 112.181 290.181 109.973C289.942 107.379 289.618 103.271 289.316 100.685C288.212 93.2879 287.641 85.4356 283.765 78.7492C280.437 73.4216 274.322 70.6112 268.531 68.8894C262.416 67.4069 256.216 66.6117 249.954 66.8047H249.97Z" fill="#E0349E"/>
<mask id="mask0_1652_9981" style="mask-type:luminance" maskUnits="userSpaceOnUse" x="229" y="22" width="103" height="125">
<path d="M230.798 77.6295C228.922 68.3025 229.44 58.5971 232.628 49.6252C235.593 41.3019 241.114 32.4999 251.406 28.014C274.268 18.0384 297.964 22.9335 308.055 29.7667C317.251 35.9898 328.717 45.2242 330.292 66.4649C331.543 83.3199 331.234 99.6731 329.659 107.564C328.084 115.447 322.841 132.41 309.051 140.587C295.262 148.764 279.665 146.393 277.318 146.131C274.971 145.868 254.448 142.293 245.337 126.118C238.813 114.536 233.37 90.4156 230.798 77.6372V77.6295Z" fill="white"/>
</mask>
<g mask="url(#mask0_1652_9981)">
<path d="M288.838 64.9121C273.257 64.9121 260.625 52.2808 260.625 36.6993C260.625 21.1179 273.257 8.48657 288.838 8.48657C304.419 8.48657 317.051 21.1179 317.051 36.6993C317.051 52.2808 304.419 64.9121 288.838 64.9121Z" fill="#300375"/>
<path d="M222.176 88.134C205.53 86.2316 193.471 72.1397 195.24 56.659C197.009 41.1783 211.938 30.171 228.583 32.0734C245.229 33.9758 257.289 48.0677 255.52 63.5484C253.75 79.0291 238.822 90.0364 222.176 88.134Z" fill="#300375"/>
</g>
<path d="M274.531 96.9699C272.948 91.8431 268.308 88.3223 263.521 86.3303C261.081 85.342 258.471 84.871 255.869 84.5544C254.271 84.3614 252.819 85.7049 252.696 87.2568C252.534 90.4301 255.715 90.4765 257.985 90.9166C259.738 91.2022 261.452 91.6655 263.081 92.3759C265.598 93.4336 267.837 95.0164 270.091 96.5375C271.142 97.2401 272.23 97.8655 273.373 98.406C274.384 98.8307 274.94 97.8655 274.531 96.9776V96.9699Z" fill="#E0349E"/>
<path d="M322.873 85.4044C320.263 80.7795 313.214 87.7362 311.013 90.0911C309.044 92.6236 307.392 95.8124 307.662 99.1016C308.45 101.117 310.179 98.4375 310.975 97.7349C312.797 95.7506 314.596 93.72 316.85 92.1989C318.379 90.925 320.201 90.1374 321.923 89.18C323.135 88.4002 323.529 86.6629 322.865 85.4044H322.873Z" fill="#E0349E"/>
<path d="M242.404 83.2659C242.404 83.2659 238.381 71.2287 225.325 72.7884C213.488 74.2013 214.168 89.4582 216.399 96.0983C218.631 102.738 225.394 106.838 233.671 105.116C237.949 104.221 239.941 102.306 239.941 102.306" fill="white"/>
<path d="M242.404 83.2659C242.404 83.2659 238.381 71.2287 225.325 72.7884C213.488 74.2013 214.168 89.4582 216.399 96.0983C218.631 102.738 225.394 106.838 233.671 105.116C237.949 104.221 239.941 102.306 239.941 102.306" stroke="#300375" stroke-width="4.63264" stroke-miterlimit="10" stroke-linecap="round"/>
<path d="M189.424 35.3095C189.439 37.2938 191.038 36.568 192.088 35.7882C193.871 34.4293 195.315 32.6534 197.199 31.4258C200.38 29.5033 203.43 31.9045 204.519 34.7072C204.287 31.6574 203.028 28.4841 202.318 25.5115C201.183 20.0913 201.263 16 204.519 9C202.164 9.81071 191.532 13.8218 189.084 15.227C185.061 17.3966 185.934 16.887 181.857 18.9717C181.456 19.3114 180.228 19.6898 180.081 19.9832C178.993 22.2841 178.807 24.3379 177.773 26.6619C177.41 27.7274 176.831 28.8624 177.047 30.0128C180.653 28.0054 185.849 19.0566 190.613 20.6009C195.076 23.2492 189.524 31.5262 189.432 35.3095H189.424Z" fill="#E0349E"/>
<path d="M203.011 18.8092C201.136 28.8259 208.771 34.3517 209.921 43.9721C211.071 53.5925 207.781 59.1821 200.5 64C193.219 68.8179 180.195 66.5948 175.562 64.016C168.451 60.0551 165 54.1253 164.22 48.1878C163.224 40.598 163.178 35.1778 169.548 25.6963C176.419 15.4737 209.427 5.18921 209.427 5.18921C209.427 5.18921 204.092 13.0299 203.011 18.8092Z" stroke="#300375" stroke-width="4.82566" stroke-miterlimit="10" stroke-linecap="round"/>
<path d="M141.504 127.09C143.828 128.704 147.033 128.071 148.561 125.693L185.985 67.499C185.985 67.499 184.248 61.6696 179.021 59.0753C174.736 56.9443 170.003 56.6509 170.003 56.6509L139.844 120.875C138.81 123.075 139.512 125.7 141.504 127.09Z" fill="#FFF742" stroke="#300375" stroke-width="4.82566" stroke-miterlimit="10" stroke-linecap="round"/>
<path d="M1111.85 190.882L1065 190.249C1065.04 187.594 1065.58 163.761 1073.63 144.505C1079.76 129.855 1090.99 118.399 1103.99 115.518C1116.99 112.636 1128.83 117.384 1130.97 129.839V129.886C1133.09 141.826 1123.79 150.213 1118.42 161.083C1113.05 171.953 1111.93 185.4 1111.85 190.882H1111.85Z" fill="white" stroke="#300375" stroke-width="5.50529" stroke-miterlimit="10" stroke-linecap="round"/>
<path d="M1064.99 190.25C1065.03 187.595 1065.57 163.762 1073.62 144.505C1079.75 129.856 1090.98 118.4 1103.98 115.518C1116.99 112.637 1128.82 117.385 1130.96 129.84V129.887" stroke="#E0349E" stroke-width="5.50529" stroke-miterlimit="10" stroke-linecap="square"/>
<path d="M1150.35 228.27C1150.32 225.451 1150.47 222.405 1150.63 219.18C1151.3 205.226 1151.23 195.277 1144.15 194.613C1140.51 194.973 1136.38 196.097 1132.89 203.797C1130.91 208.185 1130.92 219.274 1131.53 227.434C1131.55 227.645 1131.55 227.762 1131.55 227.77L1131.49 230.175L1094.22 229.918L1094.28 227.442C1094.28 227.27 1094.26 226.778 1094.23 226.029C1093.48 205.632 1094.46 192.052 1097.13 185.657C1102.22 173.459 1107 165.978 1113.11 160.652C1120.05 154.608 1128.87 151.375 1140.87 150.493C1141.89 150.415 1142.96 150.376 1144.06 150.376C1160.52 150.376 1181.4 158.38 1190.94 176.263C1198.03 189.553 1199.03 216.791 1199.14 227.887L1199.17 230.332L1150.38 230.706L1150.36 228.27H1150.35Z" fill="white"/>
<path d="M1144.06 152.813C1157.79 152.813 1178.99 159.045 1188.78 177.403C1195.61 190.226 1196.6 216.987 1196.7 227.904L1152.8 228.24C1152.66 214.519 1156.9 193.037 1144.13 192.155C1139.38 192.592 1134.5 194.325 1130.67 202.782C1127.6 209.568 1129.11 227.638 1129.11 227.709L1096.72 227.482C1096.75 226.061 1095.07 196.934 1099.38 186.587C1108.19 165.471 1117.59 154.648 1141.05 152.923C1142.01 152.852 1143.01 152.813 1144.07 152.813M1144.06 147.933C1142.9 147.933 1141.77 147.972 1140.69 148.05C1114.35 149.994 1103.94 162.957 1094.87 184.705C1092.03 191.522 1091.01 205.071 1091.79 226.116C1091.81 226.764 1091.82 227.217 1091.83 227.427L1091.73 232.339L1096.68 232.371L1129.07 232.597L1133.88 232.628L1133.99 227.818C1133.99 227.576 1133.99 227.412 1133.96 227.248C1133.34 219.025 1133.44 208.491 1135.11 204.797C1138 198.417 1141.04 197.394 1144.16 197.059C1145.36 197.183 1146.95 197.738 1147.85 202.244C1148.77 206.773 1148.46 213.02 1148.17 219.048C1148.02 222.313 1147.87 225.389 1147.9 228.286L1147.95 233.159L1152.82 233.12L1196.72 232.784L1201.61 232.745L1201.56 227.857C1201.43 213.856 1200.15 188.383 1193.07 175.108C1188.19 165.963 1180.2 158.592 1169.95 153.797C1161.96 150.064 1152.52 147.925 1144.04 147.925L1144.06 147.933Z" fill="#300375"/>
<path d="M1181.21 185.588L1166 187.751C1153.25 189.57 1140.31 189.477 1127.58 187.485L1115.49 185.588C1111.61 185.588 1108.47 182.3 1108.47 178.24V138.453C1108.47 132.87 1112.79 128.348 1118.13 128.348H1178.57C1183.91 128.348 1188.23 132.87 1188.23 138.453V178.24C1188.23 182.3 1185.09 185.588 1181.21 185.588H1181.21Z" fill="#FFF742"/>
<path d="M1181.25 186.196C1170.26 187.415 1159.43 189.742 1148.34 190.366C1140.01 190.968 1131.54 190.632 1123.22 189.609C1120.48 189.312 1117.74 188.976 1114.99 188.641L1115.47 188.68C1110.98 188.82 1106.83 185.611 1105.53 181.378C1105.12 180.113 1105 178.739 1104.98 177.427C1104.63 165.682 1104.21 152.798 1103.95 141.123C1103.95 140.678 1103.89 139.296 1103.9 138.851C1103.69 134.134 1105.78 129.355 1109.55 126.45C1111.94 124.553 1115 123.467 1118.06 123.389L1124.13 123.217L1148.33 122.296C1156.4 122.023 1164.46 121.905 1172.54 122.062C1176.18 122.226 1180.03 121.827 1183.52 123.139C1188.08 124.795 1191.67 128.738 1192.94 133.377C1193.53 135.423 1193.66 137.531 1193.41 139.616C1192.29 152.477 1190.17 165.3 1189.35 178.192C1189.2 182.432 1185.57 186.368 1181.24 186.212L1181.25 186.196ZM1181.16 184.978C1184.69 184.931 1187.45 181.612 1187.09 178.177C1186.81 173.889 1186.41 169.602 1185.93 165.315C1184.92 156.366 1183.68 147.425 1182.93 138.46C1182.65 136.657 1181.35 134.954 1179.61 134.564C1177.29 134.384 1174.91 134.665 1172.55 134.634C1164.48 134.79 1156.41 134.673 1148.34 134.4L1124.14 133.478L1118.1 133.307C1117.13 133.267 1116.18 133.517 1115.36 134.095C1113.82 135.118 1112.99 137 1113.01 138.843C1112.99 139.28 1112.98 140.647 1112.96 141.115C1112.67 153.196 1112.28 166.494 1111.9 178.629C1111.93 180.574 1113.52 182.409 1115.49 182.495C1126.42 184.392 1137.16 187.266 1148.33 187.719C1159.36 188.461 1170.3 186.743 1181.16 184.978Z" fill="#E0349E"/>
<path d="M1218.91 165.573C1212.75 165.573 1189.01 165.229 1187.09 165.12C1177.93 165.12 1170.5 157.693 1170.5 148.534V134.852C1170.5 125.692 1177.93 118.266 1187.09 118.266H1188.59L1189.38 118.321C1191.68 118.469 1218.49 118.672 1220.87 118.719C1232.74 118.946 1236.97 109.426 1237.12 97.5569C1237.21 89.7324 1237.16 81.3534 1236.98 73.7631L1283.81 72.5918C1284.1 83.9382 1284.72 122.155 1280.85 137.453C1274.56 162.254 1243.08 164.417 1232.74 165.128C1227.88 165.463 1223.09 165.573 1218.91 165.573Z" fill="white" stroke="#300375" stroke-width="5.50529" stroke-miterlimit="10" stroke-linecap="round"/>
<path d="M1283.82 72.5916C1284.1 83.9379 1284.73 122.155 1280.86 137.452C1274.57 162.254 1243.09 164.417 1232.75 165.127C1227.89 165.463 1223.1 165.572 1218.92 165.572C1212.76 165.572 1189.02 165.229 1187.09 165.119C1177.93 165.119 1170.51 157.693 1170.51 148.533" stroke="#E0349E" stroke-width="5.50529" stroke-miterlimit="10" stroke-linecap="square"/>
<path d="M1106.55 123.631C1106.55 123.631 1097.35 164.628 1096.71 189.21L1126.61 191.795C1126.61 191.795 1127.48 177.817 1128.28 161.286C1128.99 146.691 1128.58 128.863 1128.58 128.863L1106.55 123.639V123.631Z" fill="#E0349E" stroke="#300375" stroke-width="4.68535" stroke-miterlimit="10" stroke-linecap="round"/>
<path d="M1188.09 114.94C1188.09 114.94 1196.5 171.672 1196.7 192.194L1160.79 193.014C1160.79 193.014 1160.32 175.03 1159.54 159.474C1158.82 145.371 1158.74 131.542 1158.74 131.542C1175.32 134.634 1188.09 114.94 1188.09 114.94Z" fill="#E0349E" stroke="#300375" stroke-width="4.39642" stroke-miterlimit="10" stroke-linecap="round"/>
<path d="M1197.07 75.49C1198.97 66.0568 1198.45 56.241 1195.22 47.167C1192.22 38.749 1186.64 29.8468 1176.23 25.3099C1153.11 15.2207 1129.14 20.1716 1118.94 27.0825C1109.64 33.3765 1098.04 42.716 1096.45 64.1983C1095.18 81.2452 1095.5 97.7845 1097.09 105.765C1098.68 113.738 1103.98 130.894 1117.93 139.164C1131.88 147.434 1147.65 145.036 1150.02 144.771C1152.4 144.505 1173.15 140.89 1182.37 124.53C1188.97 112.817 1194.47 88.4215 1197.07 75.4978V75.49Z" fill="white" stroke="#300375" stroke-width="4.68535" stroke-miterlimit="10" stroke-linecap="round"/>
<mask id="mask1_1652_9981" style="mask-type:luminance" maskUnits="userSpaceOnUse" x="1095" y="19" width="104" height="127">
<path d="M1197.07 75.49C1198.97 66.0568 1198.45 56.241 1195.22 47.167C1192.22 38.749 1186.64 29.8468 1176.23 25.3099C1153.11 15.2207 1129.14 20.1716 1118.94 27.0825C1109.64 33.3765 1098.04 42.716 1096.45 64.1983C1095.18 81.2452 1095.5 97.7845 1097.09 105.765C1098.68 113.738 1103.98 130.894 1117.93 139.164C1131.88 147.434 1147.65 145.036 1150.02 144.771C1152.4 144.505 1173.15 140.89 1182.37 124.53C1188.97 112.817 1194.47 88.4215 1197.07 75.4978V75.49Z" fill="white"/>
</mask>
<g mask="url(#mask1_1652_9981)">
<path d="M1138.37 62.6282C1154.13 62.6282 1166.91 49.8531 1166.91 34.0944C1166.91 18.3356 1154.13 5.56055 1138.37 5.56055C1122.62 5.56055 1109.84 18.3356 1109.84 34.0944C1109.84 49.8531 1122.62 62.6282 1138.37 62.6282Z" fill="#300375"/>
<path d="M1205.79 86.1187C1222.63 84.1946 1234.82 69.9424 1233.03 54.2856C1231.25 38.6287 1216.15 27.4961 1199.31 29.4202C1182.48 31.3443 1170.28 45.5964 1172.07 61.2533C1173.86 76.9102 1188.96 88.0428 1205.79 86.1187Z" fill="#300375"/>
</g>
<path d="M1177.68 64.5421C1171.58 65.3464 1165.38 66.7911 1159.6 68.8292C1154.39 70.8986 1148.46 74.0768 1146.16 79.3322C1143.21 86.2665 1142.99 94.1301 1142.13 101.611C1142.01 103.134 1141.72 107.148 1141.59 108.631C1141.29 111.552 1141.16 114.668 1139.78 117.479C1137 122.976 1130.16 121.969 1127.25 117.127C1126.02 114.777 1125.79 111.927 1125.46 109.365C1124.54 100.081 1125.91 90.6473 1123.79 81.589C1122.3 75.3028 1119.03 71.289 1112.37 70.0708C1108.5 69.2743 1104.36 69.3368 1100.44 69.4461C1108.12 67.9546 1118.21 66.8926 1123.58 73.9909C1131.51 85.4544 1127.62 100.557 1130.67 113.207C1130.83 113.723 1130.9 114.293 1131.19 114.761C1131.81 115.722 1133.28 116.854 1134.45 116.518C1136.62 115.573 1136.69 110.435 1137.02 108.202C1137.26 105.578 1137.59 101.424 1137.89 98.8076C1139.01 91.3267 1139.58 83.385 1143.5 76.6225C1146.87 71.2343 1153.06 68.3919 1158.91 66.6505C1165.1 65.1512 1171.37 64.3468 1177.7 64.5421H1177.68Z" fill="#E0349E"/>
<path d="M1152.84 95.0515C1154.44 89.8664 1159.14 86.3056 1163.98 84.2909C1166.45 83.2913 1169.09 82.815 1171.72 82.4948C1173.33 82.2996 1174.8 83.6583 1174.93 85.2279C1175.09 88.4374 1171.87 88.4843 1169.58 88.9294C1167.81 89.2183 1166.07 89.6868 1164.42 90.4053C1161.88 91.4751 1159.61 93.0759 1157.33 94.6142C1156.27 95.3248 1155.17 95.9574 1154.01 96.504C1152.99 96.9335 1152.43 95.9574 1152.84 95.0593V95.0515Z" fill="#E0349E"/>
<path d="M1103.95 83.3542C1106.59 78.6767 1113.72 85.7125 1115.95 88.0942C1117.94 90.6556 1119.61 93.8806 1119.34 97.2072C1118.54 99.2454 1116.79 96.5357 1115.99 95.8251C1114.14 93.8182 1112.32 91.7644 1110.04 90.226C1108.5 88.9376 1106.65 88.1411 1104.91 87.1728C1103.69 86.3841 1103.29 84.6271 1103.96 83.3542H1103.95Z" fill="#E0349E"/>
<path d="M1185.34 81.1899C1185.34 81.1899 1189.4 69.0158 1202.61 70.5932C1214.58 72.0222 1213.89 87.4527 1211.64 94.1683C1209.38 100.884 1202.54 105.031 1194.17 103.289C1189.84 102.383 1187.83 100.447 1187.83 100.447" fill="white"/>
<path d="M1185.34 81.1899C1185.34 81.1899 1189.4 69.0158 1202.61 70.5932C1214.58 72.0222 1213.89 87.4527 1211.64 94.1683C1209.38 100.884 1202.54 105.031 1194.17 103.289C1189.84 102.383 1187.83 100.447 1187.83 100.447" stroke="#300375" stroke-width="4.68535" stroke-miterlimit="10" stroke-linecap="round"/>
<path d="M1209.88 81.5487L1244.5 69.1013L1315.72 71.2176L1298.68 83.9226L1209.88 81.5487Z" fill="#E0349E" stroke="#300375" stroke-width="4.88057" stroke-linecap="round" stroke-linejoin="round"/>
<path d="M1298.68 83.9231L1299.25 95.1289L1316.01 81.026L1315.72 71.218L1298.68 83.9231Z" fill="#E0349E" stroke="#300375" stroke-width="4.88057" stroke-linecap="round" stroke-linejoin="round"/>
<path d="M1209.88 81.5488L1210.41 91.9347L1299.25 95.1286L1298.68 83.9227L1209.88 81.5488Z" fill="#E0349E" stroke="#300375" stroke-width="4.88057" stroke-linecap="round" stroke-linejoin="round"/>
<path d="M1255.25 70.5457L1233.68 81.3454L1284.5 83.1024L1298.5 71.6701L1255.25 70.5457Z" fill="#FFF742"/>
<path d="M1316.57 71.694L1323.48 71.9126L1341 23.8019L1334.99 21.3811L1316.57 71.694Z" fill="#E0349E" stroke="#300375" stroke-width="4.88057" stroke-linecap="round" stroke-linejoin="round"/>
<path d="M1257.66 70.3186L1231.96 82.1335" stroke="#300375" stroke-width="1.56178" stroke-linecap="round" stroke-linejoin="round"/>
<path d="M1272.36 69.6792L1250.11 82.6108" stroke="#300375" stroke-width="1.56178" stroke-linecap="round" stroke-linejoin="round"/>
<path d="M1298.11 72.6316L1281.85 84.2669" stroke="#300375" stroke-width="1.56178" stroke-linecap="round" stroke-linejoin="round"/>
<path d="M1283.07 71.3899L1265.46 83.8842" stroke="#300375" stroke-width="1.56178" stroke-linecap="round" stroke-linejoin="round"/>
<path d="M1250.42 73.6145L1295.36 74.3719" stroke="#300375" stroke-width="1.56178" stroke-linecap="round" stroke-linejoin="round"/>
<path d="M1245.08 76.1296L1291.55 77.0355" stroke="#300375" stroke-width="1.56178" stroke-linecap="round" stroke-linejoin="round"/>
<path d="M1209.88 81.5483L1244.5 69.1008L1315.72 71.2171L1298.68 83.9222L1209.88 81.5483Z" stroke="#300375" stroke-width="4.88057" stroke-linecap="round" stroke-linejoin="round"/>
<path d="M1244.5 69.101L1257.1 20.4749L1334.99 21.3807L1315.72 71.2172L1244.5 69.101Z" fill="#E0349E" stroke="#300375" stroke-width="4.88057" stroke-linecap="round" stroke-linejoin="round"/>
<path d="M1253.74 62.1748L1263.06 27.425L1322.98 28.7994L1310.87 63.8615L1253.74 62.1748Z" fill="#FFF742"/>
<g clip-path="url(#clip0_1652_9981)">
<path d="M1696.8 140.388C1696.8 140.388 1760.56 233.194 1638.67 262.949C1638.67 262.949 1634.02 327.149 1601.22 354.328C1542.47 403.006 1483.83 345.523 1366.49 360.234C1366.49 360.234 1515.88 293.598 1544.37 268.294C1588.54 229.065 1611.65 166.28 1655.29 160.825C1655.29 160.825 1659.47 124.351 1696.8 140.388Z" fill="#07000F"/>
<path d="M-169.841 246.041C-174.376 274.878 -161.431 285.942 -133.806 291.79C-71.8509 299.149 -21.4824 290.256 34.6976 269.909C151.108 227.747 199.93 193.251 364.254 232.828C451.737 253.899 512.9 257.94 594.462 222.912C707.957 174.17 751.563 198.03 800.639 224.883C828.077 239.896 857.224 255.845 901.251 260.565C929.454 263.588 964.202 255.085 1000.23 246.27C1036.59 237.372 1093.46 199.001 1127 201C1187.18 204.587 1205.78 232.937 1254 235.5C1291.68 237.502 1327.41 217.547 1340 224.883C1407 180.5 1442.82 242.708 1456 201C1462.55 180.279 1466.81 223.174 1511.13 231.078C1608.39 248.423 1659.06 177.529 1649.27 79.1718C1646.81 54.4517 1659.49 22.9875 1653.48 5.78481C1646.46 -14.3243 1659 -32.2683 1677.95 -50.5489C1645.11 -114.943 1652.22 -163.195 1679.12 -222.391C1733.18 -341.344 1754.48 -442.931 1671.55 -537.461C1626.7 -595.028 1617.98 -679.078 1653.48 -743.99C1685.73 -802.951 1728.67 -824.387 1672 -918.987C1666.69 -927.863 1663.36 -935.882 1661.61 -943.386C1616.86 -941.398 1574.48 -944.272 1557.87 -965.03C1521.48 -1010.5 1539.28 -1055.21 1611.32 -1067.56L1611.32 -1067.56C1641.21 -1072.69 1671.27 -1077.85 1690.46 -1089.64C1690.46 -1089.64 1698.22 -1074.4 1700.04 -1068.52C1699.77 -1049.9 1690.59 -1032.23 1681.26 -1014.3L1681.26 -1014.29C1680.19 -1012.25 1679.14 -1010.25 1678.11 -1008.29C1665.79 -984.826 1656.2 -966.558 1661.61 -943.386C1739.03 -946.824 1823.53 -964.812 1793.86 -929.885C1762.59 -893.067 1782.9 -797.965 1776.25 -763.501C1713.33 -677.993 1789.16 -628.789 1837.92 -586.137C1956.23 -482.666 1787.1 -267.233 1764.5 -152.77C1756.2 -110.706 1708.66 -80.1849 1677.95 -50.5489C1683.92 -38.8388 1691.21 -26.595 1699.94 -13.6545C1760.83 76.562 1736.8 123.251 1717.22 161.29L1716.91 161.898C1722.41 200.897 1704.58 245.885 1641.99 252.839C1641.58 253.122 1641.16 253.399 1640.75 253.671C1624.4 442.915 1514.75 317.924 1424.34 363.57C1394.76 377.208 1345.85 376.381 1302.25 356.91C1270.9 342.91 1251.55 334.708 1217.43 313.729C1176.09 288.314 1125.42 284.046 1064.85 299.9C992.014 318.966 923.455 351.584 848.623 316.596C780.252 284.629 728.788 250.382 663.944 284.37C617.938 308.483 586.18 324.649 538.63 331.325C470.526 340.886 415.092 334.698 363.055 317.74C350.203 313.551 337.674 308.941 325.203 304.353L325.178 304.344C265.397 282.348 206.959 260.846 120.833 288.589C28.8614 315.539 1.32348 425.348 -161.525 356.004C-248.39 389.335 -358.126 381.617 -346.774 276.868C-407.03 261.208 -445.355 177.974 -395.188 34.2788C-372.004 -32.1394 -392.249 -99.9684 -433.219 -156.327C-486.721 -227.86 -464.248 -285.243 -446.324 -304.994C-452.796 -245.401 -380.801 -218.753 -353.53 -188.125L-353.528 -188.124C-321.021 -151.617 -290.034 -116.816 -321.339 -38.7321C-356.071 47.8993 -337.009 200.927 -266.355 175.563C-216.735 157.75 -160.35 185.699 -169.841 246.041Z" fill="#1A003E"/>
<path d="M1243.06 329.323C1276.34 350.528 1283.42 355.811 1320.33 363.738C1294.56 353.5 1282.29 348.39 1262.81 329.602C1241.71 309.252 1227.91 300.97 1200.4 291.695C1172.88 282.42 1131.78 285.378 1121.42 290.581C1166.38 291.695 1201.48 302.818 1243.06 329.323Z" fill="#07000F"/>
<path d="M1786.8 157.388C1786.8 157.388 1850.56 250.194 1728.67 279.949C1728.67 279.949 1724.03 344.149 1691.22 371.328C1632.47 420.006 1573.83 362.523 1456.49 377.234C1456.49 377.234 1605.88 310.598 1634.37 285.294C1678.54 246.065 1701.65 183.28 1745.29 177.825C1745.29 177.825 1749.47 141.351 1786.8 157.388Z" fill="#27005C"/>
<path d="M-79.8415 263.041C-84.3765 291.878 -71.4309 302.942 -43.8062 308.79C18.149 316.149 68.5176 307.256 124.698 286.909C241.108 244.747 289.93 210.251 454.254 249.828C541.737 270.899 602.901 274.94 684.462 239.912C797.957 191.17 841.563 215.03 890.639 241.883C918.077 256.896 947.224 272.845 991.251 277.565C1019.45 280.588 1054.2 272.085 1090.23 263.27C1126.59 254.372 1164.25 245.156 1197.79 247.155C1257.97 250.742 1266.49 252.101 1307.43 277.565C1317.45 283.798 1333.25 279.853 1345.84 287.19C1405.81 315.896 1491.21 276.324 1504.39 234.616C1510.94 213.895 1556.81 240.174 1601.13 248.078C1698.39 265.423 1749.06 194.529 1739.27 96.1717C1736.81 71.4517 1749.49 39.9874 1743.48 22.7848C1736.46 2.67572 1749 -15.2683 1767.95 -33.5489C1735.11 -97.9429 1742.22 -146.195 1769.12 -205.391C1823.18 -324.344 1844.48 -425.931 1761.55 -520.461C1716.7 -578.028 1707.98 -662.078 1743.48 -726.99C1775.73 -785.951 1818.67 -807.388 1762 -901.988C1756.69 -910.863 1753.36 -918.882 1751.61 -926.386C1706.86 -924.399 1664.48 -927.272 1647.87 -948.03C1611.48 -993.497 1629.28 -1038.21 1701.32 -1050.56C1731.21 -1055.69 1761.27 -1060.85 1780.46 -1072.64C1780.46 -1072.64 1788.22 -1057.4 1790.04 -1051.52C1789.77 -1032.9 1780.59 -1015.23 1771.26 -997.3L1771.26 -997.293C1770.19 -995.25 1769.14 -993.25 1768.11 -991.287C1755.79 -967.826 1746.2 -949.558 1751.61 -926.386C1829.03 -929.824 1913.53 -947.812 1883.86 -912.885C1852.59 -876.068 1872.9 -780.965 1866.25 -746.501C1803.33 -660.993 1879.16 -611.789 1927.92 -569.137C2046.23 -465.666 1877.1 -250.233 1854.5 -135.77C1846.2 -93.7057 1798.66 -63.185 1767.95 -33.5489C1773.92 -21.8389 1781.21 -9.59502 1789.94 3.34551C1850.83 93.5619 1826.8 140.251 1807.22 178.29L1806.91 178.898C1812.41 217.896 1794.58 262.885 1731.99 269.839C1731.58 270.122 1731.16 270.399 1730.75 270.671C1714.4 459.915 1604.75 334.924 1514.34 380.57C1484.76 394.208 1435.85 393.381 1392.25 373.91C1360.9 359.91 1341.55 351.708 1307.43 330.729C1266.09 305.314 1215.42 301.046 1154.85 316.9C1082.01 335.966 1013.46 368.584 938.623 333.596C870.252 301.629 818.788 267.382 753.944 301.37C707.938 325.483 676.18 341.649 628.63 348.325C560.526 357.886 505.092 351.698 453.055 334.74C440.205 330.552 427.677 325.942 415.207 321.354L415.203 321.353L415.178 321.344C355.397 299.348 296.959 277.846 210.833 305.589C118.861 332.539 91.3235 442.348 -71.5245 373.004C-158.39 406.335 -268.126 398.617 -256.774 293.868C-317.03 278.208 -355.355 194.974 -305.188 51.2788C-282.004 -15.1394 -302.249 -82.9684 -343.219 -139.327C-396.721 -210.86 -374.248 -268.243 -356.324 -287.994C-362.795 -228.401 -290.801 -201.753 -263.53 -171.125C-231.022 -134.618 -200.034 -99.8165 -231.339 -21.7321C-266.071 64.8993 -247.009 217.927 -176.355 192.563C-126.735 174.75 -70.3505 202.699 -79.8415 263.041Z" fill="#27005C"/>
<path d="M1333.06 346.323C1366.34 367.528 1373.42 372.811 1410.33 380.738C1384.56 370.5 1372.29 365.39 1352.81 346.602C1331.71 326.252 1317.91 317.97 1290.4 308.695C1262.88 299.42 1221.78 302.378 1211.42 307.581C1256.38 308.695 1291.48 319.818 1333.06 346.323Z" fill="#27005C"/>
<path d="M-188.214 241.357C-188.214 241.357 -203.163 304.561 -126.91 334.564C-126.91 334.564 -142.842 381.572 -103.429 408.401C-62.1097 436.529 -2.39947 434.226 75.9948 403.068C75.9948 403.068 27.0018 411.55 2.46469 388.487C-35.5747 352.734 -54.514 303.372 -92.926 297.465C-92.926 297.465 -154.842 228.122 -188.214 241.357Z" fill="#6027AE"/>
<path d="M136.115 287.336C131.58 316.173 144.526 327.236 172.151 333.085C234.106 340.444 284.474 331.551 340.654 311.204C457.064 269.042 505.887 234.545 670.21 274.123C757.694 295.194 818.857 299.235 900.419 264.207C1013.91 215.465 1057.52 239.325 1106.6 266.178C1134.03 281.191 1163.18 297.14 1207.21 301.86C1235.41 304.883 1270.16 296.38 1306.18 287.565C1342.55 278.667 1380.21 269.451 1413.75 271.45C1473.93 275.037 1482.44 276.396 1523.38 301.86C1533.4 308.093 1549.21 304.148 1561.8 311.485C1621.76 340.191 1707.17 300.619 1720.35 258.91C1726.89 238.189 1772.76 264.469 1817.08 272.373C1914.34 289.718 1965.02 218.824 1955.23 120.467C1952.77 95.7466 1965.45 64.2823 1959.44 47.0797C1952.42 26.9706 1964.96 9.02665 1983.9 -9.25394C1951.07 -73.648 1958.18 -121.9 1985.08 -181.097C2039.13 -300.049 2060.44 -401.636 1977.51 -496.166C1932.65 -553.733 1923.94 -637.783 1959.44 -702.695C1991.69 -761.656 2034.63 -783.093 1977.96 -877.693C1972.64 -886.568 1969.32 -894.587 1967.56 -902.091C1922.82 -900.104 1880.43 -902.977 1863.82 -923.735C1827.44 -969.202 1845.24 -1013.91 1917.28 -1026.27C1947.16 -1031.4 1977.22 -1036.55 1996.42 -1048.34C1996.42 -1048.34 2004.18 -1033.11 2005.99 -1027.23C2005.73 -1008.6 1996.54 -990.939 1987.22 -973.005L1987.21 -972.998C1986.15 -970.956 1985.1 -968.955 1984.07 -966.992C1971.75 -943.531 1962.15 -925.263 1967.56 -902.091C2044.99 -905.529 2129.48 -923.517 2099.82 -888.59C2068.55 -851.773 2088.86 -756.67 2082.2 -722.206C2019.29 -636.699 2095.11 -587.494 2143.88 -544.843C2262.18 -441.371 2093.06 -225.938 2070.46 -111.475C2062.15 -69.4108 2014.61 -38.8901 1983.9 -9.25394C1989.87 2.45607 1997.17 14.6999 2005.9 27.6404C2066.79 117.857 2042.76 164.546 2023.18 202.585L2022.87 203.193C2028.36 242.191 2010.54 287.179 1947.95 294.134C1947.53 294.416 1947.12 294.694 1946.7 294.966C1930.35 484.21 1820.71 359.219 1730.29 404.865C1700.72 418.502 1651.8 417.676 1608.21 398.205C1576.86 384.205 1557.51 376.003 1523.38 355.023C1482.04 329.609 1431.37 325.341 1370.81 341.195C1297.97 360.261 1229.41 392.879 1154.58 357.891C1086.21 325.924 1034.75 291.677 969.901 325.665C923.894 349.778 892.136 365.944 844.586 372.62C776.483 382.181 721.049 375.993 669.012 359.034C656.162 354.847 643.634 350.237 631.164 345.649L631.16 345.648L631.135 345.638C571.354 323.643 512.916 302.141 426.79 329.883C334.818 356.834 307.28 466.643 144.432 397.299C57.5669 430.63 -52.1694 422.912 -40.8176 318.163C-101.073 302.503 -139.398 219.269 -89.2312 75.5737C-66.047 9.15552 -86.2922 -58.6735 -127.263 -115.032C-180.764 -186.565 -158.291 -243.949 -140.367 -263.699C-146.839 -204.107 -74.8446 -177.458 -47.5731 -146.831C-15.0657 -110.323 15.923 -75.5216 -15.382 2.56281C-50.1141 89.1943 -31.052 242.222 39.6019 216.858C89.222 199.045 145.606 226.993 136.115 287.336Z" fill="#6027AE"/>
<path d="M68.8359 313.21C81.6078 362.794 8.94905 377.523 -15.9306 351.793C-40.8127 326.073 -17.9572 302.705 -17.9572 302.705C-34.6029 323.162 0.506285 361.739 37.7936 334.572C75.0784 307.415 53.4049 252.065 7.62127 244.077C-46.5084 233.091 -90.4765 275.74 -92.0369 276.717C-33.0154 205.078 34.4678 236.283 34.4678 236.283C124.19 271.316 68.8359 313.21 68.8359 313.21Z" fill="#6027AE"/>
<path d="M1549.02 370.618C1582.29 391.823 1589.38 397.106 1626.29 405.032C1600.52 394.795 1588.25 389.685 1568.77 370.897C1547.66 350.547 1533.87 342.264 1506.36 332.99C1478.84 323.715 1437.74 326.673 1427.38 331.875C1472.34 332.99 1507.43 344.113 1549.02 370.618Z" fill="#6027AE"/>
<path d="M-148.629 241.632C-148.629 241.632 -160.604 292.263 -99.5217 316.296C-99.5217 316.296 -112.285 353.952 -80.7126 375.444C-47.6135 397.975 0.217491 396.13 63.0154 371.171C63.0154 371.171 23.7695 377.966 4.11393 359.492C-26.3576 330.851 -41.529 291.31 -72.299 286.578C-72.299 286.578 -121.897 231.03 -148.629 241.632Z" fill="#8A2262"/>
<path d="M1612.94 222.818C1612.94 222.818 1658.08 288.514 1571.79 309.577C1571.79 309.577 1568.51 355.022 1545.29 374.261C1503.7 408.719 1462.19 368.029 1379.12 378.443C1379.12 378.443 1484.87 331.273 1505.04 313.36C1536.31 285.591 1552.67 241.147 1583.56 237.285C1583.56 237.285 1586.52 211.466 1612.94 222.818Z" fill="#8A2262"/>
<path fill-rule="evenodd" clip-rule="evenodd" d="M86.1133 310.579C63.2005 305.728 52.463 296.552 56.2244 272.633C64.0965 222.584 17.3298 199.402 -23.8265 214.177C-82.4292 235.215 -98.2399 108.289 -69.4323 36.4339C-43.4668 -28.3318 -69.1698 -57.1969 -96.1325 -87.4776C-118.752 -112.881 -178.466 -134.984 -173.098 -184.412C-169.186 -220.435 -242.261 -273.774 -235.72 -303.315C-224.26 -355.073 -241.382 -373.28 -250.332 -431.578C-253.045 -449.247 -204.192 -486.739 -208.119 -499.769C-221.266 -543.393 -217.584 -599.579 -141.66 -672.982C-119.234 -703.24 -56.4011 -681.34 -71.7815 -700.544C-74.0233 -703.343 -76.2574 -706.132 -78.364 -708.943C-93.5898 -729.259 -101.801 -752.035 -66.4044 -758.401L-84.394 -789.366C-157.928 -760.293 -191.54 -741.251 -159.669 -678.356C-139.618 -648.386 -140.701 -629.639 -154.452 -612.766C-158.463 -607.844 -162.441 -603.166 -166.282 -598.649C-181.394 -580.879 -194.373 -565.617 -198.849 -547.876C-209.49 -505.698 -190.965 -472.214 -173.098 -439.922C-168.634 -431.854 -164.213 -423.861 -160.296 -415.826C-138.125 -370.333 -149.4 -315.754 -168.394 -277.19C-217.079 -178.349 -189.034 -97.9745 -162.229 -61.1029C-128.247 -14.3575 -111.455 41.902 -130.685 96.9914C-172.295 216.176 -140.507 285.213 -90.5291 298.203C-99.9447 385.084 -8.92615 391.486 63.1228 363.84C198.194 421.356 221.035 330.277 297.319 307.924C368.755 284.913 417.225 302.748 466.809 320.992L466.83 320.999C477.174 324.805 487.566 328.629 498.226 332.103C541.386 346.169 587.365 351.301 643.853 343.371C683.292 337.834 709.633 324.425 747.792 304.424C801.576 276.234 844.262 304.64 900.971 331.154C963.039 360.174 1019.9 333.12 1080.32 317.306C1130.55 304.156 1172.58 307.696 1206.87 328.776C1235.17 346.177 1251.22 352.98 1277.22 364.592C1313.38 380.742 1353.95 381.427 1378.49 370.116C1453.48 332.256 1544.42 435.927 1557.98 278.962C1558.33 278.736 1558.67 278.506 1559.02 278.272C1610.93 272.504 1654.75 205.881 1650.19 173.534C1666.47 141.891 1621.9 123.654 1571.13 48.4262C1524.05 -21.3299 1563.45 -57.8707 1589.81 -115.899C1634.65 -214.562 1652.32 -298.822 1583.53 -377.228C1546.33 -424.976 1539.1 -494.689 1568.55 -548.529C1595.3 -597.433 1630.91 -615.213 1583.91 -693.678C1565.88 -723.772 1575.44 -741.984 1588.98 -767.745C1589.83 -769.374 1590.7 -771.033 1591.58 -772.727C1599.32 -787.604 1606.94 -802.256 1607.16 -817.706C1605.65 -822.584 1599.22 -835.22 1599.22 -835.22C1583.3 -825.441 1558.37 -821.164 1533.57 -816.911C1473.83 -806.661 1459.06 -769.578 1489.24 -731.867C1526.86 -684.859 1723.81 -748.429 1684.98 -702.716C1659.05 -672.179 1675.89 -593.298 1670.37 -564.712C1618.19 -493.789 1681.08 -452.978 1721.53 -417.601C1819.65 -331.779 1679.37 -153.092 1660.63 -58.153C1649.49 -1.74209 1605.89 17.3911 1621.15 61.1099C1626.14 75.3783 1619.11 71.1627 1621.15 91.6663C1629.27 173.247 1531.14 274.609 1450.47 260.223C1413.71 253.667 1391.93 273.729 1386.5 290.915C1375.57 325.509 1298.66 333.373 1248.92 309.563C1238.48 303.478 1229.4 297.833 1221.09 292.663C1187.13 271.543 1165.85 262.433 1115.94 259.458C1088.11 257.799 1056.88 265.443 1026.72 272.824C996.836 280.135 968.015 287.188 944.622 284.68C908.105 280.765 883.929 267.537 861.171 255.084C820.466 232.812 784.298 213.022 690.162 253.45C622.512 282.503 571.781 279.151 499.219 261.674C362.925 228.847 322.43 257.46 225.876 292.43C179.278 309.307 137.501 316.683 86.1133 310.579Z" fill="#8A2262"/>
<path d="M57.2807 299.191C67.5116 338.911 9.30821 350.71 -10.6217 330.099C-30.5535 309.495 -12.2451 290.776 -12.2451 290.776C-25.5792 307.163 2.54512 338.065 32.4142 316.303C62.2812 294.549 44.9197 250.211 8.2446 243.812C-35.1161 235.012 -70.3369 269.176 -71.5868 269.959C-24.3075 212.572 29.7501 237.569 29.7501 237.569C101.622 265.632 57.2807 299.191 57.2807 299.191Z" fill="#8A2262"/>
<path d="M1228.13 341.711C1255.73 359.298 1261.61 363.681 1292.22 370.255C1270.85 361.764 1260.67 357.525 1244.51 341.942C1227.01 325.063 1215.57 318.193 1192.74 310.5C1169.92 302.808 1135.83 305.261 1127.24 309.576C1164.53 310.5 1193.64 319.726 1228.13 341.711Z" fill="#8A2262"/>
<path d="M-114.63 264.628C-114.63 264.628 -126.481 314.736 -66.0287 338.521C-66.0287 338.521 -78.6598 375.789 -47.4137 397.059C-14.6561 419.358 32.6815 417.532 94.8315 392.83C94.8315 392.83 55.9905 399.555 36.5377 381.271C6.38058 352.926 -8.63427 313.792 -39.0868 309.11C-39.0868 309.11 -88.1729 254.135 -114.63 264.628Z" fill="#FFF742"/>
<path d="M1628.77 246.007C1628.77 246.007 1673.44 311.025 1588.04 331.87C1588.04 331.87 1584.79 376.847 1561.81 395.888C1520.65 429.99 1473.58 383.33 1391.37 393.637C1391.37 393.637 1502.02 353.342 1521.98 335.615C1552.93 308.132 1569.11 264.146 1599.69 260.325C1599.69 260.325 1602.62 234.772 1628.77 246.007Z" fill="#FFF742"/>
<path fill-rule="evenodd" clip-rule="evenodd" d="M117.691 332.863C95.0149 328.062 84.3882 318.981 88.1109 295.309C95.9017 245.775 49.6174 222.833 8.88567 237.455C-49.1123 258.276 -64.7599 132.659 -36.2495 61.546C-10.5519 -2.55142 -35.9896 -31.1188 -62.6741 -61.0871C-85.0605 -86.2281 -144.159 -108.103 -138.846 -157.021C-134.974 -192.673 -207.295 -245.461 -200.822 -274.697C-189.48 -325.922 -206.425 -343.94 -215.283 -401.637C-217.968 -419.124 -169.619 -456.23 -173.506 -469.124C-186.517 -512.299 -182.873 -567.905 -107.732 -640.55C-85.5373 -670.496 -23.3528 -648.823 -38.5745 -667.828C-40.7932 -670.599 -43.0042 -673.359 -45.0892 -676.141C-60.1578 -696.247 -68.2842 -718.788 -33.253 -725.088L-51.0569 -755.733C-123.832 -726.961 -157.097 -708.116 -125.555 -645.869C-105.711 -616.208 -106.783 -597.654 -120.392 -580.956C-124.362 -576.085 -128.299 -571.455 -132.1 -566.985C-147.056 -549.398 -159.901 -534.293 -164.331 -516.735C-174.862 -474.992 -156.528 -441.854 -138.846 -409.895C-134.428 -401.911 -130.052 -394 -126.176 -386.047C-104.233 -341.025 -115.392 -287.008 -134.191 -248.842C-182.373 -151.021 -154.617 -71.4756 -128.089 -34.9844C-94.4574 11.2787 -77.8389 66.9578 -96.8703 121.479C-138.051 239.434 -106.591 307.759 -57.1288 320.614C-66.4471 406.599 23.6325 412.935 94.938 385.574C228.616 442.497 251.221 352.358 326.718 330.235C397.417 307.462 445.387 325.112 494.459 343.168L494.48 343.175C504.717 346.942 515.002 350.726 525.552 354.164C568.267 368.085 613.772 373.164 669.676 365.316C708.709 359.836 734.778 346.566 772.543 326.772C825.773 298.872 868.018 326.985 924.142 353.226C985.57 381.946 1041.85 355.171 1101.64 339.52C1151.35 326.506 1192.95 330.01 1226.88 350.872C1254.9 368.094 1270.78 374.826 1296.51 386.319C1332.3 402.302 1372.45 402.98 1396.73 391.786C1470.95 354.316 1560.95 456.917 1574.38 301.572C1574.72 301.349 1575.06 301.121 1575.4 300.889C1626.78 295.18 1641.41 258.251 1636.89 226.238C1653.01 194.922 1673.22 156.583 1622.97 82.1316C1576.37 13.0951 1579.78 -31.7856 1605.88 -89.2151C1650.25 -186.86 1667.74 -270.251 1599.66 -347.848C1562.84 -395.103 1555.69 -464.097 1584.83 -517.382C1611.3 -565.782 1646.55 -583.378 1600.03 -661.033C1582.19 -690.816 1591.66 -708.841 1605.05 -734.336C1605.89 -735.948 1606.76 -737.59 1607.63 -739.266C1615.29 -753.99 1622.83 -768.491 1623.05 -783.781C1621.55 -788.609 1615.18 -801.115 1615.18 -801.115C1599.43 -791.437 1574.75 -787.204 1550.22 -782.995C1491.09 -772.851 1476.47 -736.15 1506.34 -698.828C1543.57 -652.305 1738.49 -715.219 1700.07 -669.978C1674.4 -639.756 1691.07 -561.688 1685.6 -533.398C1633.96 -463.207 1696.2 -422.816 1736.23 -387.805C1833.34 -302.868 1694.51 -126.025 1675.96 -32.065C1664.94 23.7639 1569.72 54.821 1584.83 98.0887C1589.76 112.21 1579.36 138.038 1581.37 158.33C1589.41 239.069 1547.81 297.264 1467.97 283.026C1431.59 276.538 1410.04 296.392 1404.66 313.402C1393.84 347.639 1317.73 355.422 1268.5 331.857C1258.16 325.835 1249.18 320.249 1240.96 315.132C1207.35 294.229 1186.29 285.213 1136.89 282.269C1109.35 280.628 1078.44 288.193 1048.59 295.497C1019.02 302.733 990.494 309.713 967.343 307.231C931.202 303.357 907.276 290.265 884.753 277.941C844.467 255.898 808.673 236.312 715.508 276.323C648.556 305.077 598.349 301.759 526.535 284.463C391.647 251.974 351.57 280.292 256.012 314.901C209.895 331.604 168.549 338.904 117.691 332.863Z" fill="#E0349E"/>
<path d="M89.156 321.592C99.2814 360.901 41.6784 372.579 21.9542 352.18C2.22794 331.789 20.3475 313.263 20.3475 313.263C7.15102 329.481 34.9851 360.065 64.546 338.527C94.1049 316.997 76.9225 273.117 40.6258 266.784C-2.28756 258.075 -37.1449 291.886 -38.382 292.661C8.40953 235.866 61.9094 260.605 61.9094 260.605C133.04 288.379 89.156 321.592 89.156 321.592Z" fill="#FFF742"/>
<path d="M1247.93 363.673C1275.24 381.079 1281.06 385.416 1311.36 391.923C1290.2 383.519 1280.13 379.324 1264.14 363.902C1246.81 347.197 1235.49 340.398 1212.9 332.785C1190.32 325.171 1156.58 327.6 1148.08 331.87C1184.98 332.785 1213.79 341.915 1247.93 363.673Z" fill="#FFF742"/>
</g>
<defs>
<clipPath id="clip0_1652_9981">
<rect width="1440" height="329" fill="white" transform="translate(0 164)"/>
</clipPath>
</defs>
</svg>
