<svg width="1064" height="413" viewBox="0 0 1064 413" fill="none" xmlns="http://www.w3.org/2000/svg">
<g clip-path="url(#clip0_1639_2695)">
<g clip-path="url(#clip1_1639_2695)">
<rect width="1064" height="389" fill="#220552"/>
<g clip-path="url(#clip2_1639_2695)">
<path fill-rule="evenodd" clip-rule="evenodd" d="M927.027 352.61C942.732 349.285 950.092 342.996 947.514 326.601C942.118 292.295 974.173 276.406 1002.38 286.533C1042.55 300.953 1053.39 213.953 1033.64 164.701C1015.85 120.309 1033.46 100.523 1051.94 79.768C1067.45 62.3558 1108.38 47.2053 1104.7 13.3259C1102.02 -11.3656 1152.11 -47.9257 1147.62 -68.1742C1139.77 -103.651 1151.5 -116.131 1157.64 -156.09C1159.5 -168.201 1126.01 -193.9 1128.7 -202.831C1137.72 -232.733 1135.19 -271.244 1083.15 -321.557C1067.78 -342.297 1024.71 -327.286 1035.25 -340.449C1036.79 -342.368 1038.32 -344.28 1039.77 -346.206C1050.2 -360.131 1055.83 -375.743 1031.57 -380.106L1043.9 -401.331C1094.3 -381.403 1117.34 -368.351 1095.49 -325.241C1081.75 -304.698 1082.49 -291.848 1091.92 -280.283C1094.67 -276.909 1097.39 -273.703 1100.03 -270.607C1110.39 -258.427 1119.28 -247.966 1122.35 -235.805C1129.64 -206.895 1116.95 -183.944 1104.7 -161.81C1101.64 -156.28 1098.61 -150.801 1095.92 -145.293C1080.73 -114.111 1088.46 -76.7004 1101.48 -50.2676C1134.85 17.4815 1115.62 72.5731 1097.25 97.8462C1073.96 129.887 1062.45 168.449 1075.63 206.21C1104.15 287.903 1082.36 335.223 1048.1 344.127C1054.56 403.678 992.17 408.067 942.785 389.117C850.203 428.541 834.547 366.112 782.259 350.79C733.294 335.018 700.071 347.242 666.085 359.747L666.07 359.752C658.98 362.361 651.857 364.982 644.551 367.363C614.967 377.004 583.451 380.522 544.733 375.087C517.7 371.291 499.645 362.101 473.489 348.392C436.624 329.069 407.365 348.539 368.495 366.713C325.951 386.604 286.974 368.06 245.565 357.221C211.132 348.207 182.325 350.634 158.823 365.083C139.421 377.01 128.422 381.673 110.599 389.633C85.812 400.702 58.0037 401.172 41.189 393.419C-10.2148 367.468 -72.548 438.528 -81.8447 330.939C-82.0805 330.784 -82.3164 330.626 -82.5523 330.466C-118.137 326.512 -128.269 300.935 -125.144 278.764C-136.306 257.075 -150.301 230.522 -115.499 178.958C-83.2283 131.145 -85.5885 100.062 -103.662 60.2871C-134.393 -7.33993 -146.505 -65.0946 -99.3584 -118.837C-73.8572 -151.565 -68.9001 -199.349 -89.0857 -236.253C-107.421 -269.774 -131.832 -281.961 -99.6143 -335.743C-87.2574 -356.37 -93.813 -368.854 -103.087 -386.511C-103.674 -387.628 -104.271 -388.765 -104.875 -389.926C-110.178 -400.123 -115.402 -410.166 -115.552 -420.756C-114.52 -424.1 -110.108 -432.761 -110.108 -432.761C-99.1948 -426.058 -82.1063 -423.127 -65.1139 -420.211C-24.1605 -413.186 -14.0391 -387.768 -34.7247 -361.919C-60.5095 -329.698 -195.506 -373.271 -168.894 -341.938C-151.117 -321.007 -162.664 -266.939 -158.879 -247.345C-123.11 -198.732 -166.219 -170.759 -193.943 -146.51C-261.201 -87.6845 -165.048 34.7935 -152.202 99.8681C-144.569 138.534 -78.623 160.044 -89.0858 190.01C-92.5007 199.79 -85.2936 217.678 -86.6919 231.732C-92.2554 287.65 -90.0191 199.871 -34.7247 190.01C-9.52769 185.517 32 178.958 21 211C12.9254 234.52 -12.2743 304 73.5001 304C121.5 304 113 298.5 136.5 296.5C171.883 293.488 170.935 337.589 217.5 319.5C264.065 301.41 264.327 321.441 285 326.5C305.48 331.511 326.966 332.658 343 330.939C368.03 328.256 380.176 323.107 395.775 314.572C423.676 299.306 448.467 285.741 512.991 313.452C559.36 333.366 594.133 331.068 643.869 319.089C737.291 296.588 765.047 316.201 831.229 340.17C863.168 351.738 891.804 356.794 927.027 352.61Z" fill="#35007A"/>
</g>
<path d="M137.086 385.724L8.61182 320.594V400.891H1181.39L1170.68 280L1098.42 355.39L966.818 385.724L854.849 334.423L750.909 369.218L622.435 320.594L549.722 355.39L321.769 334.423L137.086 385.724Z" fill="#991767"/>
</g>
<path d="M-43.0937 308.026C-43.0937 308.026 -51.3018 342.729 -9.43358 359.203C-9.43358 359.203 -18.1817 385.014 3.45881 399.745C26.1461 415.189 58.9312 413.924 101.975 396.816C101.975 396.816 75.0745 401.474 61.6019 388.811C40.7157 369.179 30.3167 342.076 9.22584 338.833C9.22584 338.833 -24.7702 300.759 -43.0937 308.026Z" fill="#FFF742"/>
<path d="M1164.35 295.129C1164.35 295.129 1195.29 340.16 1136.14 354.597C1136.14 354.597 1133.89 385.747 1117.98 398.934C1089.47 422.553 1061.02 394.662 1004.08 401.8C1004.08 401.8 1076.57 369.468 1090.39 357.19C1111.82 338.156 1123.03 307.692 1144.21 305.046C1144.21 305.046 1146.24 287.348 1164.35 295.129Z" fill="#FFF742"/>
<path fill-rule="evenodd" clip-rule="evenodd" d="M117.807 355.284C102.102 351.959 94.7423 345.669 97.3206 329.275C102.716 294.969 70.6608 279.079 42.4508 289.207C2.2825 303.626 -0.74577 218.752 19 169.5C36.7977 125.107 11.3709 103.197 -7.1102 82.4418C-22.6146 65.0297 -63.5447 49.8791 -59.8653 15.9997C-57.1836 -8.69179 -107.272 -45.2519 -102.789 -65.5004C-94.9334 -100.978 -106.669 -113.457 -112.804 -153.417C-114.664 -165.527 -81.1783 -191.226 -83.8699 -200.157C-92.8816 -230.059 -90.3575 -268.57 -38.3167 -318.883C-22.9448 -339.623 20.1229 -324.612 9.58067 -337.776C8.04399 -339.694 6.51282 -341.606 5.06879 -343.533C-5.36749 -357.458 -10.9957 -373.069 13.2663 -377.433L0.935606 -398.657C-49.4669 -378.73 -72.5056 -365.678 -50.6603 -322.567C-36.9167 -302.024 -37.6591 -289.174 -47.0845 -277.609C-49.8341 -274.235 -52.5606 -271.029 -55.193 -267.933C-65.5516 -255.753 -74.4475 -245.292 -77.5156 -233.131C-84.8095 -204.221 -72.1119 -181.27 -59.8652 -159.136C-56.8056 -153.606 -53.7747 -148.127 -51.0903 -142.619C-35.8933 -111.437 -43.6214 -74.0266 -56.6411 -47.5937C-90.0113 20.1553 -70.7881 75.2469 -52.4153 100.52C-29.1227 132.561 -17.6131 171.123 -30.7939 208.883C-59.3148 290.577 -37.5262 337.897 -3.26958 346.801C-9.72335 406.352 52.6641 410.741 102.049 391.791C194.632 431.214 210.287 368.786 262.575 353.464C311.54 337.692 344.763 349.916 378.75 362.421L378.764 362.426C385.854 365.035 392.977 367.656 400.284 370.037C429.868 379.678 461.383 383.196 500.101 377.76C527.135 373.965 545.19 364.774 571.345 351.065C608.211 331.743 637.469 351.213 676.339 369.387C718.883 389.278 757.86 370.734 799.269 359.895C833.702 350.881 862.51 353.308 886.011 367.757C905.413 379.684 916.412 384.347 934.235 392.306C959.022 403.376 986.831 403.846 1003.65 396.093C1055.05 370.142 1117.38 441.202 1126.68 333.613C1126.91 333.458 1127.15 333.3 1127.39 333.14C1162.97 329.186 1173.1 303.609 1169.98 281.438C1181.14 259.748 1195.13 233.196 1160.33 181.632C1128.06 133.819 1130.42 102.735 1148.5 62.9609C1179.23 -4.6661 1191.34 -62.4208 1144.19 -116.163C1118.69 -148.891 1113.73 -196.675 1133.92 -233.579C1152.25 -267.1 1176.67 -279.287 1144.45 -333.069C1132.09 -353.696 1138.65 -366.18 1147.92 -383.837C1148.51 -384.954 1149.11 -386.091 1149.71 -387.252C1155.01 -397.449 1160.24 -407.492 1160.39 -418.082C1159.35 -421.426 1154.94 -430.087 1154.94 -430.087C1144.03 -423.384 1126.94 -420.453 1109.95 -417.537C1068.99 -410.512 1058.87 -385.094 1079.56 -359.245C1105.34 -327.024 1240.34 -370.597 1213.73 -339.265C1195.95 -318.333 1207.5 -264.265 1203.71 -244.671C1167.94 -196.059 1211.05 -168.085 1238.78 -143.836C1306.04 -85.0107 1209.88 37.4673 1197.04 102.542C1189.4 141.208 1123.46 162.717 1133.92 192.684C1137.33 202.464 1130.13 220.352 1131.53 234.406C1137.09 290.324 1108.28 330.629 1052.99 320.768C1027.79 316.275 1012.86 330.025 1009.14 341.806C1001.65 365.518 948.928 370.908 914.836 354.587C907.677 350.416 901.457 346.547 895.76 343.004C872.486 328.527 857.897 322.283 823.684 320.243C804.614 319.107 783.202 324.346 762.529 329.405C742.049 334.417 722.294 339.251 706.259 337.532C681.229 334.848 664.658 325.781 649.06 317.246C621.158 301.979 596.368 288.415 531.844 316.125C485.474 336.04 450.701 333.742 400.965 321.763C307.543 299.262 279.787 318.874 213.605 342.844C181.666 354.412 153.03 359.468 117.807 355.284Z" fill="#E0349E"/>
<path d="M98.044 347.478C105.057 374.703 65.162 382.791 51.5014 368.663C37.8393 354.541 50.3886 341.71 50.3886 341.71C41.249 352.943 60.5263 374.124 80.9996 359.208C101.472 344.296 89.5714 313.906 64.433 309.52C34.712 303.488 10.5705 326.905 9.71372 327.441C42.1206 288.106 79.1736 305.24 79.1736 305.24C128.437 324.476 98.044 347.478 98.044 347.478Z" fill="#FFF742"/>
<path d="M900.587 376.623C919.503 388.678 923.53 391.682 944.517 396.188C929.864 390.368 922.888 387.463 911.812 376.781C899.815 365.212 891.974 360.503 876.331 355.23C860.687 349.957 837.321 351.639 831.432 354.597C856.99 355.23 876.943 361.554 900.587 376.623Z" fill="#FFF742"/>
</g>
<defs>
<clipPath id="clip0_1639_2695">
<rect width="1064" height="413" fill="white"/>
</clipPath>
<clipPath id="clip1_1639_2695">
<rect width="1064" height="389" fill="white"/>
</clipPath>
<clipPath id="clip2_1639_2695">
<rect width="1399.53" height="887.244" fill="white" transform="translate(1165 436.902) rotate(-179.192)"/>
</clipPath>
</defs>
</svg>
