<svg width="328" height="489" viewBox="0 0 328 489" fill="none" xmlns="http://www.w3.org/2000/svg">
<g clip-path="url(#clip0_1746_12718)">
<g clip-path="url(#clip1_1746_12718)">
<rect width="328" height="465" fill="#220552"/>
<path d="M17.1967 455.339L-78 407.079V466.577H791L783.067 377L729.519 432.862L632.008 455.339L549.042 417.326L472.025 443.109L376.828 407.079L322.95 432.862L154.042 417.326L17.1967 455.339Z" fill="#991767"/>
<g clip-path="url(#clip2_1746_12718)">
<path fill-rule="evenodd" clip-rule="evenodd" d="M295.779 428.473C304.706 426.583 308.89 423.008 307.424 413.689C304.357 394.189 322.578 385.157 338.613 390.913C361.446 399.11 367.606 349.658 356.382 321.662C346.265 296.428 356.28 285.182 366.785 273.384C375.598 263.487 398.863 254.875 396.772 235.618C395.247 221.582 423.718 200.801 421.17 189.291C416.705 169.125 423.376 162.032 426.863 139.318C427.92 132.434 408.886 117.826 410.416 112.75C415.539 95.7533 414.104 73.8625 384.523 45.2637C375.785 33.4748 351.305 42.0072 357.297 34.525C358.171 33.4344 359.041 32.3477 359.862 31.2526C365.794 23.3374 368.993 14.4634 355.202 11.9833L362.211 -0.0810056C390.861 11.246 403.957 18.665 391.539 43.1699C383.727 54.8467 384.149 62.1508 389.507 68.7247C391.07 70.6423 392.619 72.4651 394.116 74.2246C400.004 81.1482 405.06 87.0946 406.804 94.0068C410.95 110.44 403.733 123.486 396.772 136.067C395.032 139.21 393.31 142.325 391.784 145.455C383.146 163.18 387.538 184.445 394.939 199.47C413.907 237.98 402.98 269.295 392.537 283.66C379.297 301.873 372.755 323.793 380.247 345.256C396.459 391.692 384.074 418.59 364.602 423.651C368.27 457.501 332.808 459.996 304.737 449.224C252.111 471.633 243.212 436.148 213.49 427.438C185.658 418.473 166.773 425.422 147.455 432.53L147.447 432.533C143.416 434.016 139.368 435.505 135.214 436.859C118.398 442.339 100.484 444.339 78.4762 441.249C63.11 439.092 8.67288 478.292 -6.19441 470.5C-27.1494 459.516 -41.9053 447.169 -63.9999 457.5C-88.1825 468.806 -68.0387 437.255 -91.5763 431.094C-111.149 425.97 -127.523 427.35 -140.882 435.563C-151.91 442.342 -158.163 444.993 -168.293 449.517C-182.383 455.809 -198.19 456.076 -207.747 451.669C-236.966 436.918 -272.398 477.31 -277.682 416.155C-277.816 416.067 -277.95 415.977 -278.084 415.886C-298.311 413.638 -304.071 399.1 -302.294 386.497C-308.639 374.169 -316.594 359.076 -296.812 329.766C-278.469 302.588 -279.81 284.92 -290.084 262.311C-307.551 223.871 -314.436 191.042 -287.637 160.494C-273.142 141.89 -270.324 114.729 -281.798 93.7522C-292.22 74.6984 -306.096 67.7711 -287.783 37.2003C-280.759 25.4753 -284.485 18.3795 -289.757 8.34261C-290.09 7.70809 -290.43 7.06172 -290.773 6.40173C-293.787 0.605342 -296.757 -5.10321 -296.842 -11.1227C-296.255 -13.0235 -293.747 -17.9467 -293.747 -17.9467C-287.544 -14.1366 -277.831 -12.4702 -268.172 -10.8131C-244.893 -6.81965 -239.14 7.62833 -250.898 22.3213C-265.555 40.6363 -342.289 15.8685 -327.163 33.6786C-317.058 45.5766 -323.621 76.3098 -321.47 87.4472C-301.138 115.08 -325.642 130.98 -341.401 144.764C-379.632 178.201 -324.977 247.82 -317.674 284.81C-313.335 306.788 -275.851 319.015 -281.798 336.048C-283.739 341.607 -279.643 351.775 -280.437 359.764C-283.6 391.548 -282.329 341.653 -250.898 336.048C-236.576 333.494 -212.971 329.766 -219.223 347.979C-223.813 361.348 -238.137 400.842 -189.381 400.842C-162.097 400.842 -166.929 397.716 -153.571 396.579C-133.459 394.867 -133.997 419.935 -107.529 409.652C-81.0606 399.37 -80.9116 410.756 -69.1607 413.631C-57.5193 416.48 -45.3066 417.132 -36.1925 416.155C-21.965 414.629 -15.061 411.703 -6.19435 406.851C9.66511 398.174 23.7567 390.463 60.4333 406.215C86.7907 417.534 106.556 416.228 134.827 409.419C187.93 396.629 203.707 407.777 241.326 421.402C259.481 427.977 275.758 430.851 295.779 428.473Z" fill="#35007A"/>
</g>
</g>
<g clip-path="url(#clip3_1746_12718)">
<path d="M-16.0219 411.717C-16.0219 411.717 -21.7338 437.485 9.42212 449.239C9.42212 449.239 3.21775 468.431 19.3863 479.106C36.3369 490.298 60.5857 489.02 92.261 475.91C92.261 475.91 72.4023 479.638 62.2999 470.408C46.6384 456.098 38.6598 436.149 23.018 433.969C23.018 433.969 -2.5378 406.148 -16.0219 411.717Z" fill="#FFF742"/>
<path fill-rule="evenodd" clip-rule="evenodd" d="M103.544 445.01C91.8868 442.714 86.3746 438.136 88.1115 425.976C91.7463 400.532 57.2708 388.211 36.5001 396C6.9248 407.091 -4.91602 345.654 9.18225 309C21.8895 275.962 -5.13947 254.167 -19.0328 239C-30.6884 226.276 -33.8517 220.894 -31.4825 195.784C-29.7559 177.483 -67.2048 150.951 -64.0983 135.919C-58.6557 109.583 -67.4709 100.47 -72.4283 70.9628C-73.9308 62.0198 -49.4188 42.6521 -51.5039 36.0713C-58.4851 14.037 -57.0193 -14.4893 -19.0328 -52.2659C-7.87372 -67.7745 24.1547 -57.1158 16.2156 -66.7469C15.0584 -68.1507 13.9053 -69.5496 12.8165 -70.9602C4.94794 -81.1562 0.619873 -92.6506 18.5289 -96.1329L9.18225 -111.711C-27.9092 -96.4376 -44.8224 -86.5381 -28.2059 -54.863C-17.8206 -39.8043 -18.2358 -30.2871 -25.0903 -21.6301C-27.0897 -19.1047 -29.074 -16.7032 -30.9898 -14.3849C-38.5283 -5.26288 -45.0024 2.57169 -47.1459 11.6028C-52.2417 33.0736 -42.6053 49.9254 -33.3113 66.1777C-30.9894 70.2379 -28.6893 74.2607 -26.6451 78.3087C-15.0732 101.226 -20.4016 128.992 -29.7606 148.689C-53.7482 199.174 -38.9471 239.743 -25.0867 258.254C-7.51489 281.722 1.4054 310.139 -7.95459 338.221C-28.2079 398.974 -11.5895 433.765 13.8544 439.997C9.70032 484.134 55.9148 486.73 92.2634 472.191C161.189 500.399 172.123 454.036 210.658 442.151C246.729 429.968 271.443 438.668 296.724 447.567L296.735 447.571C302.009 449.427 307.308 451.292 312.74 452.978C334.734 459.804 358.093 462.078 386.689 457.651C406.655 454.561 419.92 447.571 439.133 437.152C466.213 422.468 488.068 436.571 517.024 449.614C548.715 463.89 577.366 449.76 607.896 441.306C633.284 434.276 654.628 435.772 672.171 446.218C686.653 454.843 694.842 458.179 708.114 463.883C726.573 471.816 747.157 471.873 759.52 465.96C797.289 446.218 844.16 498.154 849.916 418.438C850.089 418.321 850.262 418.202 850.435 418.08C876.727 414.783 883.958 395.749 881.414 379.375C889.448 363.207 899.527 343.411 873.234 305.616C848.854 270.569 850.276 247.542 863.236 217.919C885.271 167.552 893.632 124.685 858.18 85.4059C838.967 61.4524 834.799 26.1424 849.352 -1.37866C862.57 -26.3764 880.509 -35.6501 856.105 -75.1143C846.745 -90.2504 851.466 -99.5569 858.145 -112.721C858.567 -113.553 858.997 -114.401 859.432 -115.266C863.25 -122.868 867.011 -130.355 867.011 -138.193C866.213 -140.657 862.857 -147.021 862.857 -147.021C854.851 -141.946 842.236 -139.598 829.691 -137.264C799.458 -131.637 792.233 -112.721 807.811 -93.808C827.229 -70.2327 926.676 -103.888 907.31 -80.4227C894.372 -64.7469 903.482 -24.8554 900.886 -10.316C874.923 26.0326 907.117 46.2839 927.887 63.939C978.275 106.77 908.397 198.412 899.57 246.703C894.325 275.397 845.747 292.003 853.803 314.07C856.432 321.272 851.286 334.585 852.467 344.971C857.168 386.294 836.27 416.422 795.247 409.702C776.554 406.64 765.649 416.972 763.018 425.728C757.721 443.354 718.764 447.894 693.364 436.172C688.023 433.16 683.38 430.362 679.127 427.799C661.752 417.329 650.89 412.86 625.55 411.708C611.426 411.066 595.635 415.167 580.389 419.127C565.285 423.049 550.716 426.833 538.833 425.728C520.282 424.004 507.924 417.467 496.291 411.313C475.484 400.307 456.996 390.527 409.536 411.708C375.428 426.93 349.672 425.592 312.74 417.247C243.37 401.571 223.034 416.374 174.308 434.804C150.792 443.698 129.654 447.739 103.544 445.01Z" fill="#E0349E"/>
<path d="M88.8366 439.439C94.3105 459.514 64.8716 465.915 54.6147 455.603C44.3569 445.295 53.5098 435.669 53.5098 435.669C46.8634 444.076 61.3505 459.55 76.3457 448.297C91.3399 437.049 82.216 414.683 63.5669 411.7C41.5095 407.546 23.8884 425.128 23.26 425.534C46.8314 396.086 74.4308 408.379 74.4308 408.379C111.088 422.099 88.8366 439.439 88.8366 439.439Z" fill="#FFF742"/>
</g>
</g>
<defs>
<clipPath id="clip0_1746_12718">
<rect width="328" height="489" fill="white"/>
</clipPath>
<clipPath id="clip1_1746_12718">
<rect width="328" height="465" fill="white"/>
</clipPath>
<clipPath id="clip2_1746_12718">
<rect width="1045.15" height="662.585" fill="white" transform="translate(573.66 481.902) rotate(-179.192)"/>
</clipPath>
<clipPath id="clip3_1746_12718">
<rect width="328" height="271" fill="white" transform="matrix(-1 0 0 -1 328 489)"/>
</clipPath>
</defs>
</svg>
