<svg width="478" height="457" viewBox="0 0 478 457" fill="none" xmlns="http://www.w3.org/2000/svg">
<g clip-path="url(#clip0_1313_9851)">
<path d="M326.474 307.024L295.497 306.607C295.523 304.855 295.879 289.13 301.203 276.424C305.256 266.758 312.682 259.2 321.279 257.298C329.876 255.397 337.704 258.53 339.119 266.748V266.779C340.519 274.657 334.374 280.191 330.821 287.363C327.269 294.535 326.53 303.407 326.479 307.024H326.474Z" fill="white" stroke="#300375" stroke-width="3.80534" stroke-miterlimit="10" stroke-linecap="round"/>
<path d="M295.491 306.607C295.517 304.856 295.874 289.13 301.197 276.425C305.251 266.759 312.676 259.2 321.273 257.299C329.871 255.398 337.699 258.53 339.114 266.748V266.779" stroke="#E0349E" stroke-width="3.80534" stroke-miterlimit="10" stroke-linecap="square"/>
<path d="M351.935 331.695C351.914 329.835 352.012 327.826 352.115 325.698C352.559 316.49 352.513 309.926 347.83 309.488C345.429 309.725 342.697 310.467 340.389 315.547C339.077 318.443 339.082 325.759 339.49 331.144C339.501 331.283 339.501 331.36 339.501 331.365L339.465 332.952L314.819 332.782L314.855 331.149C314.855 331.036 314.844 330.711 314.824 330.216C314.328 316.758 314.973 307.798 316.739 303.578C320.106 295.53 323.266 290.594 327.309 287.08C331.9 283.092 337.73 280.959 345.661 280.377C346.337 280.326 347.045 280.3 347.773 280.3C358.658 280.3 372.465 285.581 378.77 297.38C383.459 306.149 384.125 324.121 384.197 331.443L384.212 333.055L351.955 333.303L351.94 331.695H351.935Z" fill="white"/>
<path d="M347.773 281.907C356.85 281.907 370.869 286.019 377.345 298.132C381.863 306.592 382.513 324.249 382.581 331.453L353.551 331.674C353.458 322.621 356.267 308.447 347.819 307.865C344.68 308.153 341.452 309.297 338.922 314.877C336.888 319.355 337.889 331.277 337.889 331.324L316.471 331.174C316.491 330.237 315.376 311.018 318.232 304.191C324.056 290.259 330.268 283.118 345.785 281.979C346.415 281.933 347.081 281.907 347.778 281.907M347.773 278.687C347.008 278.687 346.26 278.713 345.542 278.764C328.13 280.047 321.247 288.6 315.247 302.949C313.367 307.447 312.696 316.387 313.207 330.273C313.223 330.7 313.233 330.999 313.238 331.138L313.171 334.379L316.445 334.4L337.864 334.549L341.044 334.57L341.112 331.396C341.112 331.236 341.112 331.128 341.096 331.02C340.688 325.594 340.75 318.644 341.855 316.207C343.766 311.997 345.779 311.322 347.84 311.101C348.635 311.183 349.683 311.549 350.282 314.522C350.886 317.51 350.685 321.632 350.494 325.61C350.391 327.763 350.292 329.793 350.313 331.705L350.344 334.92L353.566 334.894L382.596 334.673L385.828 334.647L385.797 331.422C385.71 322.183 384.863 305.376 380.179 296.617C376.957 290.584 371.67 285.72 364.89 282.556C359.613 280.093 353.37 278.682 347.762 278.682L347.773 278.687Z" fill="#300375"/>
<path d="M372.336 303.531L362.283 304.958C353.851 306.159 345.295 306.097 336.878 304.783L328.879 303.531C326.313 303.531 324.237 301.362 324.237 298.683V272.431C324.237 268.747 327.098 265.764 330.625 265.764H370.596C374.123 265.764 376.984 268.747 376.984 272.431V298.683C376.984 301.362 374.903 303.531 372.342 303.531H372.336Z" fill="#FFF742"/>
<path d="M372.362 303.933C365.097 304.737 357.935 306.272 350.603 306.685C345.093 307.081 339.496 306.86 333.991 306.185C332.179 305.989 330.367 305.767 328.554 305.546L328.869 305.572C325.9 305.664 323.153 303.547 322.296 300.754C322.022 299.919 321.945 299.013 321.934 298.147C321.702 290.398 321.423 281.896 321.253 274.193C321.253 273.9 321.212 272.988 321.217 272.694C321.082 269.582 322.461 266.429 324.955 264.512C326.535 263.26 328.559 262.544 330.583 262.492L334.596 262.379L350.598 261.771C355.932 261.591 361.266 261.513 366.605 261.616C369.011 261.725 371.557 261.462 373.865 262.328C376.88 263.42 379.256 266.022 380.097 269.082C380.485 270.432 380.572 271.823 380.407 273.199C379.664 281.685 378.264 290.145 377.722 298.652C377.624 301.45 375.223 304.047 372.357 303.943L372.362 303.933ZM372.305 303.129C374.639 303.098 376.467 300.909 376.23 298.642C376.039 295.813 375.781 292.984 375.46 290.156C374.794 284.251 373.973 278.351 373.478 272.437C373.292 271.246 372.435 270.123 371.283 269.865C369.744 269.747 368.175 269.932 366.61 269.912C361.276 270.015 355.942 269.938 350.603 269.757L334.601 269.149L330.609 269.036C329.964 269.01 329.339 269.175 328.797 269.556C327.78 270.231 327.227 271.473 327.243 272.689C327.227 272.978 327.222 273.879 327.206 274.188C327.015 282.159 326.757 290.934 326.509 298.94C326.53 300.223 327.578 301.434 328.879 301.491C336.109 302.743 343.214 304.639 350.598 304.938C357.889 305.427 365.123 304.294 372.305 303.129Z" fill="#E0349E"/>
<path d="M397.272 290.327C393.197 290.327 377.5 290.1 376.225 290.028C370.168 290.028 365.257 285.128 365.257 279.084V270.057C365.257 264.013 370.168 259.113 376.225 259.113H377.221L377.743 259.15C379.261 259.247 396.988 259.381 398.562 259.412C406.411 259.562 409.21 253.281 409.308 245.449C409.37 240.287 409.339 234.758 409.215 229.75L440.186 228.977C440.372 236.463 440.785 261.679 438.224 271.773C434.068 288.137 413.253 289.564 406.416 290.033C403.199 290.255 400.034 290.327 397.272 290.327Z" fill="white" stroke="#300375" stroke-width="3.80534" stroke-miterlimit="10" stroke-linecap="round"/>
<path d="M440.191 228.977C440.377 236.463 440.79 261.679 438.229 271.772C434.072 288.136 413.258 289.564 406.421 290.033C403.204 290.254 400.039 290.326 397.276 290.326C393.202 290.326 377.505 290.1 376.23 290.027C370.173 290.027 365.262 285.127 365.262 279.084" stroke="#E0349E" stroke-width="3.80534" stroke-miterlimit="10" stroke-linecap="square"/>
<path d="M322.972 262.652C322.972 262.652 316.889 289.702 316.466 305.922L336.237 307.628C336.237 307.628 336.811 298.405 337.342 287.497C337.807 277.867 337.539 266.104 337.539 266.104L322.972 262.658V262.652Z" fill="#E0349E" stroke="#300375" stroke-width="3.23858" stroke-miterlimit="10" stroke-linecap="round"/>
<path d="M376.891 256.918C376.891 256.918 382.452 294.35 382.581 307.891L358.839 308.432C358.839 308.432 358.529 296.566 358.007 286.302C357.532 276.997 357.481 267.872 357.481 267.872C368.443 269.912 376.891 256.918 376.891 256.918Z" fill="#E0349E" stroke="#300375" stroke-width="3.03887" stroke-miterlimit="10" stroke-linecap="round"/>
<path d="M382.829 230.888C384.083 224.664 383.737 218.187 381.605 212.2C379.622 206.646 375.93 200.772 369.047 197.778C353.757 191.122 337.91 194.388 331.161 198.948C325.012 203.101 317.344 209.263 316.29 223.437C315.454 234.685 315.66 245.598 316.714 250.864C317.767 256.124 321.273 267.444 330.495 272.9C339.718 278.357 350.148 276.775 351.718 276.6C353.288 276.425 367.012 274.039 373.105 263.245C377.469 255.516 381.109 239.42 382.829 230.893V230.888Z" fill="white" stroke="#300375" stroke-width="3.23858" stroke-miterlimit="10" stroke-linecap="round"/>
<path d="M370.008 223.664C365.97 224.194 361.87 225.148 358.049 226.492C354.605 227.858 350.681 229.955 349.162 233.422C347.211 237.998 347.066 243.186 346.498 248.122C346.421 249.127 346.224 251.775 346.142 252.754C345.94 254.681 345.858 256.737 344.944 258.592C343.106 262.219 338.582 261.554 336.661 258.36C335.846 256.809 335.696 254.928 335.474 253.238C334.864 247.112 335.773 240.888 334.369 234.911C333.388 230.764 331.224 228.115 326.82 227.312C324.258 226.786 321.522 226.827 318.93 226.899C324.011 225.915 330.682 225.214 334.229 229.898C339.476 237.462 336.904 247.426 338.923 255.773C339.026 256.113 339.073 256.49 339.264 256.799C339.672 257.432 340.648 258.18 341.417 257.958C342.853 257.335 342.899 253.944 343.116 252.471C343.276 250.739 343.493 247.998 343.694 246.272C344.433 241.336 344.815 236.096 347.407 231.634C349.632 228.079 353.722 226.204 357.595 225.055C361.684 224.065 365.831 223.535 370.018 223.664H370.008Z" fill="#E0349E"/>
<mask id="mask0_1313_9851" style="mask-type:luminance" maskUnits="userSpaceOnUse" x="315" y="194" width="69" height="83">
<path d="M382.829 230.888C384.083 224.664 383.737 218.187 381.605 212.2C379.622 206.646 375.93 200.772 369.047 197.778C353.757 191.122 337.91 194.388 331.161 198.948C325.012 203.101 317.344 209.263 316.29 223.437C315.454 234.685 315.66 245.598 316.714 250.864C317.767 256.124 321.273 267.444 330.495 272.9C339.718 278.357 350.148 276.775 351.718 276.6C353.288 276.425 367.012 274.039 373.105 263.245C377.469 255.516 381.109 239.42 382.829 230.893V230.888Z" fill="white"/>
</mask>
<g mask="url(#mask0_1313_9851)">
<path d="M344.014 222.402C354.434 222.402 362.882 213.973 362.882 203.575C362.882 193.177 354.434 184.748 344.014 184.748C333.593 184.748 325.146 193.177 325.146 203.575C325.146 213.973 333.593 222.402 344.014 222.402Z" fill="#300375"/>
<path d="M388.594 237.901C399.726 236.631 407.791 227.227 406.608 216.897C405.425 206.566 395.441 199.221 384.309 200.49C373.177 201.76 365.112 211.164 366.295 221.494C367.478 231.825 377.462 239.17 388.594 237.901Z" fill="#300375"/>
</g>
<path d="M353.582 243.794C354.641 240.373 357.744 238.024 360.946 236.694C362.577 236.035 364.323 235.721 366.063 235.509C367.132 235.381 368.102 236.277 368.185 237.313C368.293 239.43 366.166 239.461 364.648 239.755C363.476 239.946 362.329 240.255 361.24 240.729C359.557 241.435 358.059 242.491 356.551 243.506C355.849 243.975 355.121 244.392 354.357 244.753C353.68 245.036 353.309 244.392 353.582 243.8V243.794Z" fill="#E0349E"/>
<path d="M321.253 236.076C322.998 232.99 327.713 237.632 329.184 239.203C330.501 240.893 331.606 243.021 331.425 245.216C330.899 246.561 329.742 244.773 329.21 244.304C327.992 242.98 326.788 241.625 325.281 240.61C324.258 239.76 323.04 239.234 321.888 238.595C321.077 238.075 320.814 236.916 321.258 236.076H321.253Z" fill="#E0349E"/>
<path d="M375.068 234.648C375.068 234.648 377.758 226.616 386.49 227.657C394.406 228.599 393.951 238.781 392.459 243.212C390.967 247.643 386.443 250.379 380.908 249.23C378.047 248.632 376.715 247.354 376.715 247.354" fill="white"/>
<path d="M375.068 234.648C375.068 234.648 377.758 226.616 386.49 227.657C394.406 228.599 393.951 238.781 392.459 243.212C390.967 247.643 386.443 250.379 380.908 249.23C378.047 248.632 376.715 247.354 376.715 247.354" stroke="#300375" stroke-width="3.23858" stroke-miterlimit="10" stroke-linecap="round"/>
<path d="M391.297 234.886L414.188 226.673L461.285 228.07L450.013 236.453L391.297 234.886Z" fill="#E0349E" stroke="#300375" stroke-width="3.37352" stroke-linecap="round" stroke-linejoin="round"/>
<path d="M450.013 236.452L450.39 243.846L461.476 234.541L461.285 228.069L450.013 236.452Z" fill="#E0349E" stroke="#300375" stroke-width="3.37352" stroke-linecap="round" stroke-linejoin="round"/>
<path d="M391.297 234.885L391.649 241.738L450.39 243.845L450.013 236.452L391.297 234.885Z" fill="#E0349E" stroke="#300375" stroke-width="3.37352" stroke-linecap="round" stroke-linejoin="round"/>
<path d="M421.298 227.626L407.036 234.752L440.641 235.912L449.894 228.368L421.298 227.626Z" fill="#FFF742"/>
<path d="M461.843 228.383L466.418 228.528L478 196.784L474.024 195.187L461.843 228.383Z" fill="#E0349E" stroke="#300375" stroke-width="3.37352" stroke-linecap="round" stroke-linejoin="round"/>
<path d="M422.893 227.477L405.9 235.272" stroke="#300375" stroke-width="1.07953" stroke-linecap="round" stroke-linejoin="round"/>
<path d="M432.611 227.054L417.9 235.587" stroke="#300375" stroke-width="1.07953" stroke-linecap="round" stroke-linejoin="round"/>
<path d="M449.636 229.002L438.885 236.679" stroke="#300375" stroke-width="1.07953" stroke-linecap="round" stroke-linejoin="round"/>
<path d="M439.691 228.183L428.047 236.426" stroke="#300375" stroke-width="1.07953" stroke-linecap="round" stroke-linejoin="round"/>
<path d="M418.107 229.651L447.823 230.151" stroke="#300375" stroke-width="1.07953" stroke-linecap="round" stroke-linejoin="round"/>
<path d="M414.57 231.311L445.304 231.908" stroke="#300375" stroke-width="1.07953" stroke-linecap="round" stroke-linejoin="round"/>
<path d="M391.297 234.886L414.188 226.673L461.285 228.07L450.013 236.453L391.297 234.886Z" stroke="#300375" stroke-width="3.37352" stroke-linecap="round" stroke-linejoin="round"/>
<path d="M414.188 226.673L422.522 194.589L474.024 195.187L461.285 228.069L414.188 226.673Z" fill="#E0349E" stroke="#300375" stroke-width="3.37352" stroke-linecap="round" stroke-linejoin="round"/>
<path d="M420.301 222.103L426.461 199.175L466.082 200.082L458.078 223.216L420.301 222.103Z" fill="#FFF742"/>
<path d="M239.764 369.372C244.288 360.881 241.076 350.329 232.58 345.804L177.262 315.553L160.873 346.304L216.191 376.556C224.681 381.08 235.234 377.868 239.758 369.372H239.764Z" fill="white" stroke="#300375" stroke-width="3.62974" stroke-miterlimit="10"/>
<path d="M239.764 369.372C244.288 360.881 241.076 350.329 232.58 345.804L177.262 315.553" stroke="#E0349E" stroke-width="4.09435" stroke-miterlimit="10" stroke-linecap="square"/>
<path d="M281.665 400.594L316.505 400.123C316.476 398.149 316.075 380.424 310.088 366.103C305.529 355.207 297.177 346.688 287.508 344.545C278.332 342.512 269.034 345.933 267.442 355.196V355.231C265.869 364.111 272.78 370.348 276.775 378.432C280.765 386.499 281.601 396.517 281.659 400.594H281.665Z" fill="white" stroke="#300375" stroke-width="4.09435" stroke-miterlimit="10" stroke-linecap="round"/>
<path d="M316.511 400.129C316.482 398.155 316.082 380.43 310.094 366.108C305.535 355.213 297.184 346.694 287.514 344.551C278.338 342.518 269.04 345.939 267.449 355.202V355.237" stroke="#E0349E" stroke-width="4.09435" stroke-miterlimit="10" stroke-linecap="square"/>
<path d="M253.029 428.407C253.052 426.31 252.942 424.045 252.825 421.647C252.326 411.269 252.378 403.87 257.646 403.376C260.346 403.643 263.418 404.479 266.014 410.206C267.402 413.266 267.519 421.246 267.025 427.791C267.013 427.931 267.013 428.006 267.013 428.012L267.037 429.818L294.774 429.626L294.739 427.785C294.739 427.658 294.75 427.292 294.774 426.74C295.331 411.571 294.605 401.465 292.619 396.709C288.832 387.637 285.278 382.074 280.731 378.113C275.568 373.618 269.011 371.214 260.091 370.557C259.33 370.499 258.534 370.47 257.715 370.47C245.473 370.47 229.943 376.423 222.852 389.722C217.579 399.607 216.83 419.864 216.749 428.116L216.731 429.934L253.011 430.213L253.029 428.401V428.407Z" fill="white"/>
<path d="M257.71 372.287C247.5 372.287 231.732 376.921 224.45 390.575C219.368 400.111 218.636 420.014 218.561 428.133L251.211 428.382C251.316 418.179 248.156 402.202 257.657 401.546C261.188 401.871 264.818 403.16 267.664 409.45C269.952 414.497 268.825 427.935 268.825 427.988L292.915 427.819C292.892 426.762 294.147 405.1 290.935 397.405C284.384 381.701 277.397 373.652 259.946 372.368C259.237 372.316 258.488 372.287 257.704 372.287M257.71 368.657C258.569 368.657 259.411 368.686 260.219 368.744C279.802 370.19 287.543 379.831 294.292 396.005C296.406 401.075 297.161 411.151 296.586 426.803C296.568 427.285 296.557 427.622 296.551 427.778L296.626 431.431L292.944 431.455L268.854 431.623L265.277 431.646L265.202 428.069C265.202 427.889 265.202 427.767 265.219 427.645C265.678 421.529 265.608 413.695 264.365 410.948C262.216 406.203 259.951 405.442 257.634 405.193C256.74 405.286 255.561 405.698 254.887 409.049C254.208 412.417 254.434 417.063 254.649 421.547C254.765 423.974 254.876 426.263 254.852 428.417L254.818 432.041L251.194 432.012L218.543 431.762L214.908 431.733L214.943 428.098C215.041 417.685 215.994 398.741 221.261 388.868C224.885 382.067 230.832 376.585 238.458 373.019C244.393 370.243 251.414 368.651 257.721 368.651L257.71 368.657Z" fill="#300375"/>
<path d="M230.088 396.662L241.396 398.271C250.879 399.624 260.502 399.555 269.969 398.074L278.965 396.662C281.851 396.662 284.186 394.217 284.186 391.197V361.608C284.186 357.455 280.968 354.093 277.002 354.093H232.045C228.079 354.093 224.861 357.455 224.861 361.608V391.197C224.861 394.217 227.202 396.662 230.082 396.662H230.088Z" fill="#FFF742"/>
<path d="M230.053 397.115C238.225 398.021 246.28 399.752 254.527 400.216C260.729 400.663 267.019 400.414 273.21 399.653C275.248 399.432 277.286 399.183 279.325 398.933L278.971 398.962C282.31 399.066 285.4 396.679 286.364 393.532C286.672 392.591 286.759 391.569 286.77 390.593C287.032 381.858 287.345 372.276 287.537 363.594C287.537 363.263 287.583 362.235 287.577 361.904C287.728 358.396 286.178 354.842 283.373 352.681C281.596 351.27 279.319 350.463 277.043 350.405L272.53 350.277L254.532 349.591C248.533 349.388 242.534 349.301 236.535 349.417C233.828 349.539 230.965 349.243 228.369 350.219C224.977 351.45 222.306 354.383 221.359 357.832C220.924 359.354 220.825 360.922 221.011 362.473C221.847 372.038 223.421 381.574 224.031 391.162C224.141 394.316 226.842 397.249 230.065 397.127L230.053 397.115ZM230.117 396.209C227.492 396.174 225.436 393.706 225.703 391.151C225.918 387.962 226.209 384.774 226.569 381.586C227.318 374.93 228.241 368.28 228.799 361.613C229.008 360.272 229.972 359.006 231.267 358.715C232.998 358.582 234.763 358.791 236.523 358.767C242.522 358.884 248.521 358.797 254.521 358.593L272.524 357.908L277.013 357.78C277.739 357.751 278.442 357.937 279.052 358.367C280.196 359.128 280.817 360.527 280.8 361.898C280.817 362.223 280.823 363.239 280.841 363.588C281.056 372.572 281.346 382.462 281.625 391.487C281.601 392.934 280.423 394.298 278.959 394.362C270.828 395.773 262.837 397.911 254.532 398.247C246.332 398.799 238.196 397.522 230.117 396.209Z" fill="#E0349E"/>
<path d="M285.603 350.585C285.603 350.585 292.445 381.075 292.921 399.357L270.684 401.279C270.684 401.279 270.039 390.884 269.441 378.589C268.918 367.735 269.22 354.476 269.22 354.476L285.603 350.591V350.585Z" fill="#E0349E" stroke="#300375" stroke-width="3.48455" stroke-miterlimit="10" stroke-linecap="round"/>
<path d="M224.96 344.12C224.96 344.12 218.705 386.312 218.56 401.575L245.263 402.184C245.263 402.184 245.612 388.81 246.198 377.241C246.733 366.752 246.791 356.467 246.791 356.467C234.461 358.767 224.96 344.12 224.96 344.12Z" fill="#E0349E" stroke="#300375" stroke-width="3.26967" stroke-miterlimit="10" stroke-linecap="round"/>
<path d="M218.282 314.781C216.87 307.766 217.26 300.465 219.658 293.717C221.888 287.456 226.041 280.836 233.782 277.462C250.978 269.958 268.802 273.64 276.392 278.78C283.309 283.461 291.934 290.407 293.118 306.383C294.059 319.061 293.827 331.362 292.642 337.297C291.457 343.227 287.514 355.986 277.142 362.136C266.769 368.286 255.038 366.504 253.272 366.306C251.507 366.109 236.07 363.42 229.217 351.253C224.31 342.541 220.216 324.399 218.282 314.787V314.781Z" fill="white" stroke="#300375" stroke-width="3.48455" stroke-miterlimit="10" stroke-linecap="round"/>
<path d="M232.702 306.639C237.244 307.237 241.855 308.312 246.152 309.828C250.026 311.367 254.44 313.73 256.147 317.639C258.343 322.796 258.505 328.644 259.144 334.208C259.231 335.34 259.452 338.325 259.545 339.429C259.771 341.601 259.864 343.918 260.892 346.009C262.96 350.097 268.047 349.348 270.207 345.747C271.125 343.999 271.294 341.88 271.543 339.975C272.229 333.07 271.206 326.054 272.786 319.317C273.89 314.642 276.323 311.657 281.277 310.751C284.157 310.159 287.235 310.205 290.151 310.286C284.436 309.177 276.933 308.387 272.943 313.666C267.042 322.192 269.935 333.424 267.664 342.832C267.548 343.215 267.495 343.639 267.28 343.988C266.822 344.702 265.724 345.544 264.859 345.294C263.244 344.592 263.192 340.77 262.948 339.109C262.768 337.158 262.524 334.068 262.298 332.123C261.467 326.559 261.037 320.653 258.122 315.624C255.619 311.616 251.019 309.502 246.664 308.207C242.064 307.092 237.4 306.494 232.69 306.639H232.702Z" fill="#E0349E"/>
<mask id="mask1_1313_9851" style="mask-type:luminance" maskUnits="userSpaceOnUse" x="217" y="273" width="77" height="94">
<path d="M218.282 314.781C216.87 307.766 217.26 300.465 219.658 293.717C221.888 287.456 226.041 280.836 233.782 277.462C250.978 269.958 268.802 273.64 276.392 278.78C283.309 283.461 291.934 290.407 293.118 306.383C294.059 319.061 293.827 331.362 292.642 337.297C291.457 343.227 287.514 355.986 277.142 362.136C266.769 368.286 255.038 366.504 253.272 366.306C251.507 366.109 236.07 363.42 229.217 351.253C224.31 342.541 220.216 324.399 218.282 314.787V314.781Z" fill="white"/>
</mask>
<g mask="url(#mask1_1313_9851)">
<path d="M261.938 305.215C250.218 305.215 240.717 295.714 240.717 283.994C240.717 272.274 250.218 262.773 261.938 262.773C273.658 262.773 283.158 272.274 283.158 283.994C283.158 295.714 273.658 305.215 261.938 305.215Z" fill="#300375"/>
<path d="M211.796 322.682C199.276 321.251 190.205 310.652 191.535 299.008C192.866 287.363 204.095 279.084 216.615 280.515C229.136 281.946 238.207 292.545 236.876 304.19C235.545 315.834 224.317 324.113 211.796 322.682Z" fill="#300375"/>
</g>
<path d="M251.176 329.329C249.986 325.472 246.495 322.824 242.895 321.326C241.059 320.582 239.096 320.228 237.139 319.99C235.937 319.845 234.845 320.855 234.752 322.023C234.63 324.41 237.023 324.444 238.731 324.775C240.049 324.99 241.338 325.339 242.564 325.873C244.457 326.669 246.141 327.859 247.837 329.003C248.627 329.532 249.446 330.002 250.305 330.409C251.066 330.728 251.484 330.002 251.176 329.334V329.329Z" fill="#E0349E"/>
<path d="M287.538 320.629C285.575 317.15 280.272 322.383 278.617 324.154C277.136 326.059 275.893 328.458 276.097 330.932C276.689 332.448 277.99 330.432 278.588 329.904C279.959 328.411 281.312 326.884 283.008 325.74C284.158 324.781 285.528 324.189 286.823 323.469C287.735 322.882 288.031 321.576 287.532 320.629H287.538Z" fill="#E0349E"/>
<path d="M227.011 319.02C227.011 319.02 223.985 309.966 214.164 311.14C205.261 312.202 205.773 323.678 207.451 328.673C209.129 333.667 214.217 336.751 220.442 335.456C223.66 334.782 225.158 333.342 225.158 333.342" fill="white"/>
<path d="M227.011 319.02C227.011 319.02 223.985 309.966 214.164 311.14C205.261 312.202 205.773 323.678 207.451 328.673C209.129 333.667 214.217 336.751 220.442 335.456C223.66 334.782 225.158 333.342 225.158 333.342" stroke="#300375" stroke-width="3.48455" stroke-miterlimit="10" stroke-linecap="round"/>
<path d="M197.38 270.538C195.971 278.072 201.713 282.229 202.578 289.465C203.444 296.701 200.968 300.906 195.492 304.529C190.015 308.153 180.219 306.481 176.734 304.541C171.386 301.562 168.79 297.102 168.203 292.636C167.454 286.927 167.419 282.85 172.21 275.718C177.379 268.029 202.207 260.293 202.207 260.293C202.207 260.293 198.194 266.191 197.38 270.538Z" fill="white" stroke="#300375" stroke-width="3.62974" stroke-miterlimit="10" stroke-linecap="round"/>
<path d="M187.161 282.949C187.172 284.442 188.374 283.896 189.164 283.309C190.506 282.287 191.592 280.951 193.009 280.028C195.402 278.582 197.696 280.388 198.515 282.496C198.34 280.202 197.394 277.815 196.859 275.579C196.006 271.502 196.066 268.425 198.515 263.16C196.743 263.769 188.746 266.786 186.905 267.843C183.879 269.475 184.536 269.092 181.469 270.66C181.167 270.916 180.244 271.2 180.133 271.421C179.315 273.152 179.175 274.696 178.397 276.445C178.124 277.246 177.688 278.1 177.851 278.965C180.563 277.455 184.472 270.724 188.055 271.886C191.412 273.878 187.236 280.103 187.167 282.949H187.161Z" fill="#E0349E"/>
<path d="M151.117 351.984C152.865 353.198 155.275 352.722 156.425 350.933L184.575 307.161C184.575 307.161 183.268 302.776 179.336 300.825C176.113 299.222 172.553 299.001 172.553 299.001L149.868 347.309C149.09 348.964 149.619 350.939 151.117 351.984Z" fill="#FFF742" stroke="#300375" stroke-width="3.62974" stroke-miterlimit="10" stroke-linecap="round"/>
</g>
<defs>
<clipPath id="clip0_1313_9851">
<rect width="478" height="457" fill="white"/>
</clipPath>
</defs>
</svg>
