<svg width="205" height="162" viewBox="0 0 205 162" fill="none" xmlns="http://www.w3.org/2000/svg">
<g clip-path="url(#clip0_1713_10552)">
<path d="M140.813 44.3497C142.772 67.5067 119.387 77.3423 111.753 82.806L111.912 17.0443C111.912 17.0443 117.76 16.6829 127.371 23.1466C137.464 29.9347 140.813 44.3497 140.813 44.3497Z" fill="#300375"/>
<path d="M92.5034 62.6358C93.6416 58.7766 99.0665 70.6963 105.332 75.4036C113.391 75.9293 104.057 75.6856 117.105 96.3594C98.8621 90.3645 88.6415 104.181 79.5863 99.0763C63.5878 90.0567 52.154 114.655 44.2133 114.8C30.3034 115.053 28.8005 100.569 20.6139 99.5354C15.9347 98.9444 11.0933 100.746 4.55647 106.407C9.08093 100.363 14.0832 91.2937 24.5758 92.4397C33.2546 93.3875 43.4929 108.18 47.6119 99.1004C51.7309 90.0211 58.8382 67.4754 72.6668 72.8802C79.8464 75.6864 88.6943 75.5506 92.5034 62.6358Z" fill="#AA0052"/>
<path d="M120.778 122.036C119.615 118.81 121.631 113.205 129.802 113.114C137.972 113.033 139.736 108.532 139.736 108.532C139.736 108.532 144.828 110.528 152.694 106.353C160.552 102.167 182.816 100.555 189.88 107.419C188.349 96.8975 172.905 93.2964 160.938 96.5375C170.172 86.2872 179.471 85.2949 186.866 92.5035C181.477 79.1323 159.849 80.8201 152.316 91.1744C151.292 81.4272 159.367 73.12 172.544 78.8181C167.474 69.2655 147.717 73.2081 145.726 84.9085C144.818 90.2419 143.489 97.1043 137.602 93.4459L110.965 76.8585C127.086 70.3728 134.187 61.5928 135.727 52.7198C136.209 49.9323 136.154 47.139 135.645 44.4027C133.395 32.0684 122.7 21.1326 112.378 17.2654C112.378 17.2654 100 12.3984 83.3718 22.9421C76.4226 27.3485 69.1311 34.2751 69.1121 41.7219C69.0878 51.2369 82.3891 47.3343 91.2612 61.3558C94.4837 66.4469 94.4861 71.0416 93.2075 74.8127C92.3577 77.2957 90.9701 79.4238 89.5404 81.1196C87.6076 83.4385 88.5656 86.9567 91.401 87.9474L130.246 101.669C131.938 102.267 132.165 104.593 130.615 105.464C128.792 106.483 126.272 107.598 123.003 108.375C115.57 110.131 115.725 119.019 120.78 122.027L120.778 122.036Z" fill="#FF1726"/>
<path d="M120.778 122.036C119.615 118.81 121.631 113.205 129.802 113.114C137.972 113.033 139.736 108.532 139.736 108.532C139.736 108.532 144.828 110.528 152.694 106.353C160.552 102.167 182.816 100.555 189.88 107.419C188.349 96.8975 172.905 93.2964 160.938 96.5375C170.172 86.2872 179.471 85.2949 186.866 92.5035C181.477 79.1323 159.849 80.8201 152.316 91.1744C151.292 81.4272 159.367 73.12 172.544 78.8181C167.474 69.2655 147.717 73.2081 145.726 84.9085C144.818 90.2419 143.489 97.1043 137.602 93.4459L110.965 76.8585C127.086 70.3728 134.187 61.5928 135.727 52.7198C136.209 49.9323 136.154 47.139 135.645 44.4027C133.395 32.0684 122.7 21.1326 112.378 17.2654C112.378 17.2654 100 12.3984 83.3718 22.9421C76.4226 27.3485 69.1311 34.2751 69.1121 41.7219C69.0878 51.2369 82.3891 47.3343 91.2612 61.3558C94.4837 66.4469 94.4861 71.0416 93.2075 74.8127C92.3577 77.2957 90.9701 79.4238 89.5404 81.1196C87.6076 83.4385 88.5656 86.9567 91.401 87.9474L130.246 101.669C131.938 102.267 132.165 104.593 130.615 105.464C128.792 106.483 126.272 107.598 123.003 108.375C115.57 110.131 115.725 119.019 120.78 122.027L120.778 122.036Z" fill="#E0349E"/>
<path d="M120.174 119.723C119.726 117.528 118.661 116.207 117.211 116.25C117.757 122.388 121.957 124.106 123.861 124.006C122.646 123.985 120.622 121.918 120.174 119.723Z" fill="#AA0052"/>
<path d="M169.151 76.9912C166.98 76.4391 165.711 75.3112 165.824 73.8656C171.929 74.7046 173.444 78.9818 173.253 80.8786C173.29 79.6643 171.323 77.5433 169.151 76.9912Z" fill="#AA0052"/>
<path d="M187.492 105.157C185.86 103.622 185.298 102.021 186.097 100.811C191.029 104.504 190.281 108.98 189.195 110.546C189.816 109.502 189.123 106.693 187.492 105.157Z" fill="#AA0052"/>
</g>
<defs>
<clipPath id="clip0_1713_10552">
<rect width="204.298" height="160.56" fill="white" transform="matrix(-1 0 0 -1 204.943 161.061)"/>
</clipPath>
</defs>
</svg>
