<svg width="35" height="35" viewBox="0 0 35 35" fill="none" xmlns="http://www.w3.org/2000/svg">
<path fill-rule="evenodd" clip-rule="evenodd" d="M7.85763 4.28613H27.8576C29.4356 4.28613 30.7148 5.56532 30.7148 7.14328V27.1433C30.7148 28.7213 29.4356 30.0004 27.8576 30.0004H7.85763C6.27967 30.0004 5.00049 28.7213 5.00049 27.1433V7.14328C5.00049 5.56532 6.27967 4.28613 7.85763 4.28613ZM12.1433 25.7147C12.5378 25.7147 12.8576 25.3948 12.8576 25.0004V15.0004C12.8576 14.606 12.5378 14.2861 12.1433 14.2861H10.0005C9.606 14.2861 9.2862 14.606 9.2862 15.0004V25.0004C9.2862 25.3948 9.606 25.7147 10.0005 25.7147H12.1433ZM11.0719 12.8576C9.88845 12.8576 8.92906 11.8982 8.92906 10.7147C8.92906 9.53123 9.88845 8.57185 11.0719 8.57185C12.2554 8.57185 13.2148 9.53123 13.2148 10.7147C13.2148 11.8982 12.2554 12.8576 11.0719 12.8576ZM25.7148 25.7147C26.1092 25.7147 26.4291 25.3948 26.4291 25.0004V18.429C26.4755 16.1587 24.7971 14.2212 22.5433 13.9433C20.9676 13.7993 19.4409 14.5353 18.5719 15.8576V15.0004C18.5719 14.606 18.2521 14.2861 17.8576 14.2861H15.7148C15.3203 14.2861 15.0005 14.606 15.0005 15.0004V25.0004C15.0005 25.3948 15.3203 25.7147 15.7148 25.7147H17.8576C18.2521 25.7147 18.5719 25.3948 18.5719 25.0004V19.6433C18.5719 18.4598 19.5313 17.5004 20.7148 17.5004C21.8982 17.5004 22.8576 18.4598 22.8576 19.6433V25.0004C22.8576 25.3948 23.1775 25.7147 23.5719 25.7147H25.7148Z" fill="#E0349E"/>
</svg>
