<svg width="286" height="80" viewBox="0 0 286 80" fill="none" xmlns="http://www.w3.org/2000/svg">
<g style="mix-blend-mode:hard-light">
<path d="M96.1673 7.75V21.5689C96.1673 23.8998 95.8689 25.7757 95.272 27.1964C94.6972 28.5949 93.7577 29.605 92.4534 30.2266C91.1492 30.8481 89.4028 31.1589 87.2142 31.1589C84.8931 31.1589 83.0362 30.8481 81.6435 30.2266C80.2508 29.605 79.2449 28.5949 78.626 27.1964C78.0291 25.7757 77.7307 23.8998 77.7307 21.5689V7.75H82.7709V21.5689C82.7709 23.0119 82.8925 24.144 83.1356 24.9654C83.4009 25.7646 83.832 26.3306 84.4289 26.6636C85.0478 26.9966 85.8879 27.1631 86.949 27.1631C87.988 27.1631 88.8059 26.9966 89.4028 26.6636C90.0217 26.3306 90.4639 25.7646 90.7291 24.9654C90.9944 24.144 91.1271 23.0119 91.1271 21.5689V7.75H96.1673Z" fill="black"/>
</g>
<path fill-rule="evenodd" clip-rule="evenodd" d="M107.472 16.9425L108.95 14.0767H113.891L109.471 20.8182L107.472 16.9425ZM105.253 21.2443L104.81 22.1016L105.295 23.0147L105.801 22.1794L105.253 21.2443ZM107.512 27.1926L109.281 30.5262H114.288L109.515 23.4196L107.512 27.1926Z" fill="black"/>
<path d="M103.849 14.0767L107.988 22.1016L103.517 30.5262H98.5103L104.169 22.1016L98.9082 14.0767H103.849Z" fill="black"/>
<g style="mix-blend-mode:hard-light">
<path d="M60.9076 28.4618C62.654 28.4618 64.4557 28.484 66.3126 28.5284C68.1916 28.5506 69.8938 28.6505 71.4191 28.8281L71.1539 32.4909H62.864C61.6482 32.4909 61.0402 33.057 61.0402 34.1891V38.185H69.927V41.7812H61.0402V51.5377H56V33.1569C56 31.7139 56.4532 30.5707 57.3595 29.7271C58.2659 28.8836 59.4486 28.4618 60.9076 28.4618Z" fill="black"/>
<path d="M80.7714 34.6553C82.8273 34.6553 84.4742 34.9439 85.7121 35.5211C86.9501 36.0761 87.8343 36.9973 88.3649 38.2849C88.9175 39.5502 89.1939 41.2373 89.1939 43.3463C89.1939 45.4552 88.9175 47.1423 88.3649 48.4077C87.8343 49.6508 86.9501 50.5499 85.7121 51.1048C84.4742 51.6598 82.8273 51.9373 80.7714 51.9373C78.7155 51.9373 77.0686 51.6598 75.8306 51.1048C74.5927 50.5499 73.6974 49.6508 73.1447 48.4077C72.6142 47.1423 72.3489 45.4552 72.3489 43.3463C72.3489 41.2373 72.6142 39.5502 73.1447 38.2849C73.6974 36.9973 74.5927 36.0761 75.8306 35.5211C77.0686 34.9439 78.7155 34.6553 80.7714 34.6553ZM80.7714 38.2183C79.9092 38.2183 79.235 38.3626 78.7487 38.6512C78.2844 38.9397 77.9528 39.4614 77.7539 40.2162C77.5549 40.9488 77.4554 41.9921 77.4554 43.3463C77.4554 44.6782 77.5549 45.7105 77.7539 46.443C77.9528 47.1756 78.2844 47.6862 78.7487 47.9748C79.235 48.2412 79.9092 48.3744 80.7714 48.3744C81.6335 48.3744 82.2967 48.2412 82.7609 47.9748C83.2473 47.6862 83.5899 47.1756 83.7889 46.443C83.9878 45.7105 84.0873 44.6782 84.0873 43.3463C84.0873 41.9921 83.9878 40.9488 83.7889 40.2162C83.5899 39.4614 83.2473 38.9397 82.7609 38.6512C82.2967 38.3626 81.6335 38.2183 80.7714 38.2183Z" fill="black"/>
<path d="M96.6827 35.0882V45.9103C96.6827 46.5984 96.8264 47.0868 97.1138 47.3754C97.4012 47.664 97.8875 47.8083 98.5728 47.8083C99.1697 47.8083 99.7776 47.7084 100.397 47.5086C101.016 47.3088 101.756 46.9758 102.618 46.5096V35.0882H107.526V51.5377H103.679L103.248 49.1402C102.099 50.0948 100.971 50.8052 99.866 51.2713C98.7607 51.7375 97.6222 51.9706 96.4506 51.9706C93.3557 51.9706 91.8083 50.45 91.8083 47.4087V35.0882H96.6827Z" fill="black"/>
<path d="M134.831 34.6886C135.826 34.6664 136.776 34.7774 137.683 35.0216C138.611 35.2658 139.462 35.6543 140.236 36.1871C140.148 35.0771 140.103 33.9117 140.103 32.6907V28.2287H145.011V51.5377H141.131L140.7 48.9737C140.037 49.8173 139.186 50.5277 138.147 51.1048C137.13 51.6598 135.903 51.9373 134.466 51.9373C132.366 51.9373 130.863 51.1936 129.957 49.7063C129.072 48.1968 128.63 46.0213 128.63 43.1798C128.63 41.0043 128.862 39.2949 129.327 38.0518C129.791 36.8086 130.476 35.9318 131.383 35.4212C132.311 34.9106 133.461 34.6664 134.831 34.6886ZM133.671 43.1465C133.671 44.4562 133.759 45.4552 133.936 46.1433C134.135 46.8315 134.433 47.2977 134.831 47.5419C135.229 47.7861 135.76 47.9082 136.423 47.9082C137.174 47.9082 137.804 47.7972 138.313 47.5752C138.843 47.3532 139.44 47.0202 140.103 46.5762V38.8509C139.507 38.6734 138.932 38.518 138.379 38.3848C137.849 38.2516 137.241 38.185 136.555 38.185C135.87 38.185 135.306 38.3071 134.864 38.5513C134.444 38.7955 134.135 39.2727 133.936 39.9831C133.759 40.6935 133.671 41.7479 133.671 43.1465Z" fill="black"/>
<path d="M156.972 34.6553C159.028 34.6553 160.608 35.0882 161.714 35.954C162.819 36.8197 163.372 38.3848 163.372 40.6491V51.5377H159.492L158.961 48.9404C158.364 49.6286 157.558 50.2946 156.541 50.9384C155.524 51.5821 154.275 51.904 152.794 51.904C151.313 51.904 150.064 51.5155 149.047 50.7386C148.03 49.9616 147.521 48.8072 147.521 47.2755V45.5773C147.521 44.2675 147.963 43.2464 148.848 42.5138C149.732 41.7812 150.948 41.4149 152.495 41.4149H158.464V40.6491C158.442 39.8499 158.243 39.2838 157.867 38.9508C157.513 38.5957 156.839 38.4181 155.844 38.4181C154.982 38.4181 153.921 38.4514 152.661 38.518C151.401 38.5624 150.108 38.629 148.781 38.7178L148.35 35.4545C149.124 35.3213 150.019 35.1992 151.036 35.0882C152.075 34.955 153.114 34.8551 154.153 34.7885C155.192 34.6997 156.132 34.6553 156.972 34.6553ZM154.319 48.3411C154.916 48.3411 155.579 48.2079 156.309 47.9415C157.06 47.6529 157.779 47.2644 158.464 46.776V44.1787H154.021C153.424 44.2009 152.993 44.3563 152.727 44.6449C152.484 44.9335 152.363 45.322 152.363 45.8104V46.6095C152.363 47.7639 153.015 48.3411 154.319 48.3411Z" fill="black"/>
<path d="M177.509 35.0882V38.3182H172.933V46.2765C172.933 46.8759 173.065 47.3088 173.33 47.5752C173.596 47.8194 174.06 47.9415 174.723 47.9415H176.845L177.376 51.2713C176.956 51.4267 176.459 51.5488 175.884 51.6376C175.309 51.7264 174.734 51.793 174.159 51.8374C173.607 51.8818 173.132 51.904 172.734 51.904C171.252 51.904 170.092 51.5155 169.252 50.7386C168.434 49.9394 168.025 48.8183 168.025 47.3754V38.3182H165.173V35.2547L168.025 35.1215V30.5263H172.933V35.0882H177.509Z" fill="black"/>
<path d="M183.118 27.8291C184.09 27.8291 184.577 28.3175 184.577 29.2942V31.0924C184.577 32.0691 184.09 32.5575 183.118 32.5575H180.995C180.023 32.5575 179.536 32.0691 179.536 31.0924V29.2942C179.536 28.3175 180.023 27.8291 180.995 27.8291H183.118ZM184.477 35.0882V51.5377H179.636V35.0882H184.477Z" fill="black"/>
<path d="M195.764 34.6553C197.819 34.6553 199.466 34.9439 200.704 35.5211C201.942 36.0761 202.827 36.9973 203.357 38.2849C203.91 39.5502 204.186 41.2373 204.186 43.3463C204.186 45.4552 203.91 47.1423 203.357 48.4077C202.827 49.6508 201.942 50.5499 200.704 51.1048C199.466 51.6598 197.819 51.9373 195.764 51.9373C193.708 51.9373 192.061 51.6598 190.823 51.1048C189.585 50.5499 188.69 49.6508 188.137 48.4077C187.606 47.1423 187.341 45.4552 187.341 43.3463C187.341 41.2373 187.606 39.5502 188.137 38.2849C188.69 36.9973 189.585 36.0761 190.823 35.5211C192.061 34.9439 193.708 34.6553 195.764 34.6553ZM195.764 38.2183C194.901 38.2183 194.227 38.3626 193.741 38.6512C193.277 38.9397 192.945 39.4614 192.746 40.2162C192.547 40.9488 192.448 41.9921 192.448 43.3463C192.448 44.6782 192.547 45.7105 192.746 46.443C192.945 47.1756 193.277 47.6862 193.741 47.9748C194.227 48.2412 194.901 48.3744 195.764 48.3744C196.626 48.3744 197.289 48.2412 197.753 47.9748C198.24 47.6862 198.582 47.1756 198.781 46.443C198.98 45.7105 199.08 44.6782 199.08 43.3463C199.08 41.9921 198.98 40.9488 198.781 40.2162C198.582 39.4614 198.24 38.9397 197.753 38.6512C197.289 38.3626 196.626 38.2183 195.764 38.2183Z" fill="black"/>
<path d="M210.813 35.0882L211.244 37.5856C213.587 35.6321 215.93 34.6553 218.274 34.6553C221.369 34.6553 222.916 36.176 222.916 39.2172V51.5377H218.008V40.749C218.008 40.0164 217.876 39.5169 217.61 39.2505C217.345 38.9619 216.892 38.8176 216.251 38.8176C215.588 38.8176 214.914 38.9397 214.228 39.1839C213.543 39.4059 212.725 39.7611 211.774 40.2495V51.5377H206.9V35.0882H210.813Z" fill="black"/>
<path d="M114.251 35.0882L114.682 37.5856C117.025 35.6321 119.369 34.6553 121.712 34.6553C124.807 34.6553 126.354 36.176 126.354 39.2172V51.5377H121.447V40.749C121.447 40.0164 121.314 39.5169 121.049 39.2505C120.783 38.9619 120.33 38.8176 119.689 38.8176C119.026 38.8176 118.352 38.9397 117.666 39.1839C116.981 39.4059 116.163 39.7611 115.213 40.2495V51.5377H110.338V35.0882H114.251Z" fill="black"/>
</g>
<g style="mix-blend-mode:hard-light">
<path d="M228.276 46.6484C228.917 46.6484 229.359 46.7816 229.602 47.048C229.867 47.2922 230 47.7362 230 48.38V49.9783C230 50.6443 229.867 51.0994 229.602 51.3435C229.359 51.5877 228.917 51.7098 228.276 51.7098H227.016C226.375 51.7098 225.921 51.5877 225.656 51.3435C225.413 51.0994 225.291 50.6443 225.291 49.9783V48.38C225.291 47.7362 225.413 47.2922 225.656 47.048C225.921 46.7816 226.375 46.6484 227.016 46.6484H228.276Z" fill="black"/>
</g>
<g style="mix-blend-mode:hard-light">
<path d="M178.904 55.3006L173.499 70.5846C173.234 71.3616 172.703 71.7501 171.907 71.7501H167.663C166.845 71.7501 166.314 71.3616 166.071 70.5846L160.666 55.3006H165.839L168.857 65.5898C168.989 66.0782 169.111 66.5777 169.221 67.0883C169.332 67.5989 169.442 68.0872 169.553 68.5534H169.984C170.095 68.065 170.216 67.5767 170.349 67.0883C170.481 66.5777 170.614 66.0782 170.747 65.5898L173.731 55.3006H178.904Z" fill="black"/>
<path d="M184.423 55.3006L184.854 57.798C187.197 55.8444 189.54 54.8677 191.884 54.8677C194.978 54.8677 196.526 56.3883 196.526 59.4296V71.7501H191.618V60.9613C191.618 60.2288 191.486 59.7293 191.22 59.4629C190.955 59.1743 190.502 59.03 189.861 59.03C189.198 59.03 188.523 59.1521 187.838 59.3963C187.153 59.6183 186.335 59.9735 185.384 60.4618V71.7501H180.51V55.3006H184.423Z" fill="black"/>
</g>
</svg>
