<svg width="110" height="82" viewBox="0 0 110 82" fill="none" xmlns="http://www.w3.org/2000/svg">
<g clip-path="url(#clip0_1961_10927)">
<path d="M39.6809 41.25C39.6809 33.7942 33.7455 27.75 26.4238 27.75C19.102 27.75 13.1666 33.7942 13.1666 41.25C13.1666 48.7058 19.102 54.75 26.4238 54.75C33.7455 54.75 39.6809 48.7058 39.6809 41.25Z" fill="#FFF100"/>
<path d="M26.8753 41.2504C26.8753 40.3529 26.1619 39.6265 25.2806 39.6265C24.3993 39.6265 23.6859 40.3529 23.6859 41.2504C23.6859 42.1478 24.3993 42.8743 25.2806 42.8743C26.1619 42.8743 26.8753 42.1478 26.8753 41.2504Z" fill="#010101"/>
<path d="M15.9603 41.2499C15.9603 41.2499 19.0318 45.7533 25.2807 45.7533C28.1683 45.7533 30.952 44.6992 33.1363 42.7802C33.9776 43.7163 34.711 45.7533 34.711 45.7533H36.8872C36.8872 45.7533 36.3436 43.352 34.5991 41.2499C36.4216 39.0745 36.8872 36.7485 36.8872 36.7485H34.711C34.711 36.7485 34.1514 38.4864 33.1363 39.7216C30.952 37.8027 28.1683 36.7485 25.2807 36.7485C19.0818 36.7485 15.9603 41.2519 15.9603 41.2519M25.2807 38.8669C27.6268 38.8669 29.8989 39.7115 31.6914 41.2499C29.8989 42.7883 27.6288 43.6328 25.2807 43.6328C22.9326 43.6328 20.6605 42.7883 18.8699 41.2499C20.6625 39.7115 22.9326 38.8669 25.2807 38.8669Z" fill="#010101"/>
<path d="M50.4601 51.8866H43.3699V30.5825H50.6019C52.6782 30.5825 54.4648 31.0078 55.9596 31.8564C57.4543 32.707 58.6034 33.926 59.4087 35.5133C60.2121 37.1005 60.6137 39.0012 60.6137 41.2132C60.6137 43.4252 60.2101 45.3401 59.4027 46.9356C58.5954 48.531 57.4344 49.754 55.9196 50.6087C54.4048 51.4613 52.5843 51.8887 50.4601 51.8887M47.1608 48.5472H50.2762C51.733 48.5472 52.95 48.2746 53.9232 47.7312C54.8964 47.1859 55.6298 46.3719 56.1194 45.2872C56.609 44.2026 56.8548 42.8453 56.8548 41.2152C56.8548 39.5852 56.609 38.232 56.1194 37.1534C55.6298 36.0749 54.9044 35.267 53.9492 34.7298C52.992 34.1926 51.805 33.9239 50.3901 33.9239H47.1628V48.5513L47.1608 48.5472Z" fill="#010101"/>
<path d="M64.2969 51.8866H60.2522L67.6182 30.5825H72.2963L79.6723 51.8866H75.6276L70.0382 34.9516H69.8743L64.2969 51.8866Z" fill="#010101"/>
<path d="M92.234 36.4393C92.138 35.5317 91.7384 34.8235 91.0329 34.3168C90.3275 33.8101 89.4143 33.5578 88.2912 33.5578C87.4998 33.5578 86.8224 33.6799 86.2569 33.9221C85.6913 34.1642 85.2597 34.4939 84.9599 34.9111C84.6602 35.3282 84.5063 35.8024 84.5003 36.3355C84.5003 36.7792 84.6002 37.1638 84.802 37.4894C85.0039 37.815 85.2777 38.0917 85.6254 38.3156C85.9731 38.5414 86.3568 38.7307 86.7804 38.8833C87.2021 39.0359 87.6277 39.1641 88.0574 39.2679L90.0198 39.7665C90.8091 39.9537 91.5705 40.206 92.3039 40.5255C93.0353 40.845 93.6928 41.248 94.2763 41.7323C94.8578 42.2186 95.3194 42.8047 95.6612 43.4905C96.0009 44.1763 96.1727 44.9821 96.1727 45.904C96.1727 47.1534 95.859 48.2503 95.2335 49.1966C94.606 50.1428 93.7028 50.8815 92.5217 51.4126C91.3407 51.9438 89.9119 52.2083 88.2352 52.2083C86.5586 52.2083 85.1957 51.9519 84.0007 51.4391C82.8057 50.9263 81.8725 50.1774 81.201 49.1925C80.5296 48.2076 80.1678 47.009 80.1139 45.5926H83.8428C83.8968 46.3354 84.1226 46.952 84.5163 47.4444C84.912 47.9369 85.4275 48.3052 86.065 48.5474C86.7025 48.7896 87.4139 48.9117 88.2053 48.9117C88.9966 48.9117 89.752 48.7855 90.3755 48.5311C90.999 48.2788 91.4866 47.9247 91.8423 47.4709C92.196 47.0171 92.3758 46.4839 92.3838 45.8734C92.3778 45.3179 92.216 44.86 91.9042 44.4958C91.5905 44.1315 91.1528 43.8263 90.5913 43.58C90.0298 43.3338 89.3743 43.114 88.6249 42.9187L86.2449 42.2939C84.5223 41.8422 83.1614 41.1584 82.1642 40.2386C81.167 39.3188 80.6674 38.0978 80.6674 36.5716C80.6674 35.316 81.0032 34.2171 81.6746 33.2729C82.3461 32.3287 83.2593 31.5961 84.4164 31.0731C85.5734 30.5501 86.8843 30.2876 88.3491 30.2876C89.8139 30.2876 91.1369 30.5501 92.2559 31.0731C93.375 31.5961 94.2563 32.3205 94.8958 33.2464C95.5353 34.1724 95.867 35.2346 95.887 36.4352H92.24L92.234 36.4393Z" fill="#010101"/>
<path d="M72.638 48.3196C72.638 49.8254 71.439 51.0444 69.9622 51.0444C68.4854 51.0444 67.2864 49.8234 67.2864 48.3196C67.2864 46.8157 68.4854 45.5947 69.9622 45.5947C71.439 45.5947 72.638 46.8157 72.638 48.3196Z" fill="#FFF100"/>
</g>
<defs>
<clipPath id="clip0_1961_10927">
<rect width="83" height="27" fill="white" transform="translate(13.1666 27.75)"/>
</clipPath>
</defs>
</svg>
