<svg width="110" height="82" viewBox="0 0 110 82" fill="none" xmlns="http://www.w3.org/2000/svg">
<g clip-path="url(#clip0_1961_10933)">
<path fill-rule="evenodd" clip-rule="evenodd" d="M92.4279 28.7484C92.4279 32.7609 89.1637 36.0138 85.1373 36.0138H77.7144V21.4829H85.1373C89.1637 21.4829 92.4279 24.7358 92.4279 28.7484ZM85.1373 33.636C87.8461 33.636 90.0418 31.4477 90.0418 28.7484C90.0418 26.049 87.8461 23.8607 85.1373 23.8607H80.1005V33.636H85.1373Z" fill="#211814"/>
<path fill-rule="evenodd" clip-rule="evenodd" d="M65.3873 28.7484C65.3873 32.7609 68.6513 36.0138 72.6777 36.0138H80.1006V21.4829H72.6777C68.6513 21.4829 65.3873 24.7358 65.3873 28.7484ZM72.6777 33.636C69.9691 33.636 67.7732 31.4477 67.7732 28.7484C67.7732 26.049 69.9691 23.8607 72.6777 23.8607H77.7147V33.636H72.6777Z" fill="#211814"/>
<path fill-rule="evenodd" clip-rule="evenodd" d="M65.3873 40.9017C65.3873 44.9142 68.6513 48.1671 72.6777 48.1671H80.1006V33.6362L72.6777 33.6364C68.6513 33.6364 65.3873 36.8891 65.3873 40.9017ZM72.6777 45.7893C69.9691 45.7893 67.7732 43.601 67.7732 40.9017C67.7732 38.2023 69.9691 36.0142 72.6777 36.0142L77.7147 36.014V45.7893H72.6777Z" fill="#211814"/>
<path fill-rule="evenodd" clip-rule="evenodd" d="M65.3873 53.0544C65.3873 57.0754 68.6926 60.3198 72.7105 60.3198C76.7652 60.3198 80.1006 57.0457 80.1006 52.9883V45.7891H72.6777C68.6513 45.7891 65.3873 49.0418 65.3873 53.0544ZM72.7105 57.942C69.9936 57.942 67.7732 55.7456 67.7732 53.0544C67.7732 50.355 69.9691 48.1668 72.6777 48.1668H77.7147V52.9883C77.7147 55.7158 75.4642 57.942 72.7105 57.942Z" fill="#211814"/>
<path fill-rule="evenodd" clip-rule="evenodd" d="M77.7134 40.9017C77.7134 44.9142 80.9773 48.1671 85.0037 48.1671H85.1364C89.1627 48.1671 92.4267 44.9142 92.4267 40.9017C92.4267 36.8891 89.1627 33.6362 85.1364 33.6362H85.0037C80.9773 33.6362 77.7134 36.8891 77.7134 40.9017ZM85.0037 45.7893C82.2951 45.7893 80.0993 43.601 80.0993 40.9017C80.0993 38.2023 82.2951 36.014 85.0037 36.014H85.1364C87.8449 36.014 90.0408 38.2023 90.0408 40.9017C90.0408 43.601 87.8449 45.7893 85.1364 45.7893H85.0037Z" fill="#211814"/>
<path d="M41.1221 28.0929C42.1827 28.0929 43.0425 27.2335 43.0425 26.1734C43.0425 25.1133 42.1827 24.2539 41.1221 24.2539C40.0615 24.2539 39.2018 25.1133 39.2018 26.1734C39.2018 27.2335 40.0615 28.0929 41.1221 28.0929Z" fill="white"/>
<path d="M20.5309 35.6749C21.5915 35.6749 22.4513 34.8156 22.4513 33.7554C22.4513 32.6953 21.5915 31.8359 20.5309 31.8359C19.4702 31.8359 18.6105 32.6953 18.6105 33.7554C18.6105 34.8156 19.4702 35.6749 20.5309 35.6749Z" fill="white"/>
<path d="M63.5907 33.7554C63.5907 34.8156 62.7309 35.6749 61.6703 35.6749C60.6097 35.6749 59.7498 34.8156 59.7498 33.7554C59.7498 32.6953 60.6097 31.8359 61.6703 31.8359C62.7309 31.8359 63.5907 32.6953 63.5907 33.7554Z" fill="white"/>
<path d="M41.0689 61.1081C42.1295 61.1081 42.9893 60.2488 42.9893 59.1886C42.9893 58.1286 42.1295 57.269 41.0689 57.269C40.0083 57.269 39.1486 58.1286 39.1486 59.1886C39.1486 60.2488 40.0083 61.1081 41.0689 61.1081Z" fill="white"/>
<path fill-rule="evenodd" clip-rule="evenodd" d="M36.7406 56.8312L38.0693 58.0213C37.9538 58.3507 37.891 58.7045 37.891 59.0732C37.891 60.8276 39.314 62.25 41.0693 62.25C42.8246 62.25 44.2476 60.8276 44.2476 59.0732C44.2476 58.7345 44.1946 58.408 44.0964 58.102L45.5186 56.828L45.5858 56.7682C50.4937 52.3889 54.7594 48.5827 57.7749 44.9524C59.9248 42.3642 61.567 39.7187 62.3512 36.8508C63.741 36.5113 64.7723 35.2583 64.7723 33.7646C64.7723 32.3816 63.8882 31.205 62.654 30.7687C61.5651 24.6942 56.2758 20.25 49.8392 20.25C47.5525 20.25 45.4598 21.1224 43.7378 22.2176C43.2606 22.5211 42.8009 22.8486 42.3607 23.1918C41.9661 23.0161 41.5292 22.9185 41.0693 22.9185C40.6385 22.9185 40.2278 23.0042 39.8532 23.1594C39.4259 22.828 38.9801 22.5116 38.5179 22.2176C36.796 21.1224 34.7033 20.25 32.4165 20.25C25.9944 20.25 20.7145 24.6742 19.6092 30.7276C18.3104 31.1268 17.3663 32.3355 17.3663 33.7646C17.3663 35.3027 18.4598 36.5855 19.9122 36.8786C20.6994 39.7358 22.3378 42.3726 24.4808 44.9524C27.4963 48.5827 31.762 52.3889 36.6698 56.768L36.7406 56.8312ZM22.2554 36.4425C23.9475 42.2274 29.936 47.5801 38.3208 55.0618L39.634 56.238C40.065 56.0194 40.5528 55.8964 41.0693 55.8964C41.6155 55.8964 42.1295 56.034 42.5786 56.2766L43.9349 55.0618C52.2902 47.6063 58.2662 42.2649 59.9822 36.5034C59.0447 35.9509 58.4157 34.9312 58.4157 33.7646C58.4157 32.4873 59.1698 31.386 60.2575 30.8814C59.2499 26.0992 55.0285 22.6219 49.8392 22.6219C47.772 22.6219 45.7558 23.597 44.0189 24.9095C44.1665 25.276 44.2476 25.6762 44.2476 26.0954C44.2476 27.8499 42.8246 29.2722 41.0693 29.2722C39.314 29.2722 37.891 27.8499 37.891 26.0954C37.891 25.6505 37.9825 25.227 38.1477 24.8426C36.4311 23.564 34.4484 22.6219 32.4165 22.6219C27.2085 22.6219 22.9753 26.1244 21.9874 30.9332C23.0176 31.4587 23.723 32.5293 23.723 33.7646C23.723 34.8896 23.138 35.878 22.2554 36.4425ZM19.3998 32.7908C19.3998 32.7908 19.3998 32.7909 19.3998 32.7908C19.6755 32.4673 20.0861 32.2621 20.5447 32.2621C21.0509 32.2621 21.4988 32.5122 21.7712 32.8956C21.9455 33.1409 22.0479 33.4408 22.0479 33.7646C22.0479 34.5945 21.3749 35.2672 20.5447 35.2672C19.7144 35.2672 19.0414 34.5945 19.0414 33.7646C19.0414 33.3931 19.1763 33.0531 19.3998 32.7908ZM42.5726 59.0732C42.5726 59.016 42.5695 58.9597 42.5632 58.9041C42.5364 58.6652 42.4536 58.4432 42.3283 58.2515C42.0704 57.8579 41.6332 57.5926 41.1325 57.572L41.1225 57.5714C41.1049 57.5707 41.0872 57.5705 41.0693 57.5705C40.2391 57.5705 39.566 58.2434 39.566 59.0732C39.566 59.1418 39.5706 59.2092 39.5796 59.2753C39.5847 59.3148 39.5916 59.3541 39.6001 59.3925C39.7465 60.0689 40.3486 60.5758 41.0693 60.5758C41.8995 60.5758 42.5726 59.903 42.5726 59.0732ZM61.594 35.2672C61.1588 35.2672 60.7669 35.0825 60.4924 34.7872C60.4531 34.745 60.4163 34.7006 60.3822 34.6541C60.1988 34.4051 60.0907 34.0975 60.0907 33.7646C60.0907 33.3757 60.2386 33.0213 60.481 32.7545C60.7561 32.4519 61.1528 32.2621 61.594 32.2621C62.0583 32.2621 62.4735 32.4725 62.7492 32.8031C62.7885 32.8504 62.8251 32.9 62.8586 32.9519C63.0095 33.1862 63.0973 33.4652 63.0973 33.7646C63.0973 34.5945 62.4242 35.2672 61.594 35.2672ZM41.0693 24.5928C41.5883 24.5928 42.0457 24.8556 42.3158 25.2553C42.4493 25.4526 42.537 25.6832 42.5638 25.9321C42.5697 25.9857 42.5726 26.0402 42.5726 26.0954C42.5726 26.9253 41.8995 27.598 41.0693 27.598C40.2391 27.598 39.566 26.9253 39.566 26.0954C39.566 26.0715 39.5667 26.0478 39.5677 26.0242C39.6049 25.2274 40.263 24.5928 41.0693 24.5928Z" fill="#211814"/>
<mask id="mask0_1961_10933" style="mask-type:alpha" maskUnits="userSpaceOnUse" x="21" y="22" width="40" height="35">
<path d="M39.634 56.238L38.321 55.0618C29.9362 47.5802 23.9476 42.2275 22.2556 36.4427C23.1381 35.8782 23.7231 34.8898 23.7231 33.7648C23.7231 32.5295 23.0177 31.4588 21.9875 30.9334C22.9755 26.1245 27.2086 22.6221 32.4166 22.6221C34.4486 22.6221 36.4312 23.5642 38.1478 24.8428C37.9826 25.2272 37.8911 25.6507 37.8911 26.0956C37.8911 27.8501 39.314 29.2724 41.0695 29.2724C42.8248 29.2724 44.2478 27.8501 44.2478 26.0956C44.2478 25.6764 44.1665 25.2761 44.0189 24.9097C45.7558 23.5972 47.7721 22.6221 49.8394 22.6221C55.0287 22.6221 59.2501 26.0994 60.2577 30.8816C59.1701 31.3862 58.4157 32.4874 58.4157 33.7648C58.4157 34.9314 59.0449 35.9511 59.9824 36.5035C58.2662 42.2651 52.2904 47.6066 43.9351 55.0618L42.5788 56.2767C42.1297 56.0343 41.6157 55.8964 41.0695 55.8964C40.553 55.8964 40.0653 56.0195 39.634 56.238Z" fill="#236DF6"/>
</mask>
<g mask="url(#mask0_1961_10933)">
<path d="M62.0201 21.7837H20.2035V59.5548H62.0201V21.7837Z" fill="#DA251D"/>
<path d="M41.1733 31.8936L42.7838 36.8502H47.9954L43.7791 39.9135L45.3897 44.8701L41.1733 41.8068L36.9569 44.8701L38.5674 39.9135L34.3511 36.8502H39.5627L41.1733 31.8936Z" fill="#FFFF00"/>
</g>
</g>
<defs>
<clipPath id="clip0_1961_10933">
<rect width="75.2673" height="42" fill="white" transform="translate(17.3663 20.25)"/>
</clipPath>
</defs>
</svg>
