<svg width="60" height="60" viewBox="0 0 60 60" fill="none" xmlns="http://www.w3.org/2000/svg">
<rect x="0.5" y="0.5" width="59" height="59" rx="29.5" stroke="#7F56D9"/>
<path fill-rule="evenodd" clip-rule="evenodd" d="M36.6667 15H23.3333C18.731 15 15 18.731 15 23.3333V36.6667C15 41.269 18.731 45 23.3333 45H36.6667C41.269 45 45 41.269 45 36.6667V23.3333C45 18.731 41.269 15 36.6667 15ZM42.0833 36.6667C42.0742 39.6543 39.6543 42.0742 36.6667 42.0833H23.3333C20.3456 42.0742 17.9258 39.6543 17.9167 36.6667V23.3333C17.9258 20.3456 20.3456 17.9258 23.3333 17.9167H36.6667C39.6543 17.9258 42.0742 20.3456 42.0833 23.3333V36.6667ZM37.9167 23.75C38.8372 23.75 39.5833 23.0038 39.5833 22.0833C39.5833 21.1629 38.8372 20.4167 37.9167 20.4167C36.9962 20.4167 36.25 21.1629 36.25 22.0833C36.25 23.0038 36.9962 23.75 37.9167 23.75ZM30 22.5C25.8579 22.5 22.5 25.8579 22.5 30C22.5 34.1422 25.8579 37.5 30 37.5C34.1422 37.5 37.5 34.1422 37.5 30C37.5045 28.0095 36.7157 26.0993 35.3082 24.6918C33.9007 23.2843 31.9905 22.4956 30 22.5ZM25.4167 30C25.4167 32.5313 27.4687 34.5833 30 34.5833C32.5313 34.5833 34.5833 32.5313 34.5833 30C34.5833 27.4687 32.5313 25.4167 30 25.4167C27.4687 25.4167 25.4167 27.4687 25.4167 30Z" fill="white"/>
</svg>
