<svg width="108" height="36" viewBox="0 0 108 36" fill="none" xmlns="http://www.w3.org/2000/svg">
<g clip-path="url(#clip0_2139_10387)">
<path d="M34.5005 17.5737C34.5005 7.90875 26.7773 0.0737305 17.2502 0.0737305C7.7232 0.0737305 0 7.90875 0 17.5737C0 27.2387 7.7232 35.0737 17.2502 35.0737C26.7773 35.0737 34.5005 27.2387 34.5005 17.5737Z" fill="#FFF100"/>
<path d="M17.8375 17.5738C17.8375 16.4105 16.9092 15.4688 15.7625 15.4688C14.6158 15.4688 13.6875 16.4105 13.6875 17.5738C13.6875 18.7371 14.6158 19.6789 15.7625 19.6789C16.9092 19.6789 17.8375 18.7371 17.8375 17.5738Z" fill="#010101"/>
<path d="M3.63477 17.5739C3.63477 17.5739 7.63139 23.4116 15.7625 23.4116C19.5199 23.4116 23.1421 22.0451 25.9842 19.5576C27.0789 20.771 28.0332 23.4116 28.0332 23.4116H30.8649C30.8649 23.4116 30.1576 20.2988 27.8876 17.5739C30.259 14.7539 30.8649 11.7388 30.8649 11.7388H28.0332C28.0332 11.7388 27.3051 13.9916 25.9842 15.5928C23.1421 13.1052 19.5199 11.7388 15.7625 11.7388C7.6964 11.7388 3.63477 17.5765 3.63477 17.5765M15.7625 14.4849C18.8152 14.4849 21.7717 15.5796 24.1042 17.5739C21.7717 19.5681 18.8178 20.6629 15.7625 20.6629C12.7071 20.6629 9.75062 19.5681 7.42077 17.5739C9.75322 15.5796 12.7071 14.4849 15.7625 14.4849Z" fill="#010101"/>
<path d="M48.5266 31.3621H39.3008V3.74561H48.7112C51.4129 3.74561 53.7375 4.29693 55.6825 5.39695C57.6276 6.4996 59.1227 8.07972 60.1706 10.1373C61.2159 12.1949 61.7386 14.6587 61.7386 17.5261C61.7386 20.3936 61.2133 22.8758 60.1628 24.944C59.1123 27.0121 57.6015 28.5975 55.6305 29.7054C53.6595 30.8107 51.2907 31.3647 48.5266 31.3647M44.2335 27.0332H48.2873C50.183 27.0332 51.7665 26.6797 53.0329 25.9754C54.2992 25.2684 55.2535 24.2133 55.8906 22.8073C56.5276 21.4012 56.8475 19.6417 56.8475 17.5288C56.8475 15.4158 56.5276 13.6616 55.8906 12.2635C55.2535 10.8654 54.3096 9.81811 53.0667 9.1217C51.8211 8.42529 50.2766 8.07708 48.4356 8.07708H44.2361V27.0385L44.2335 27.0332Z" fill="#010101"/>
<path d="M66.5305 31.3621H61.2676L70.8522 3.74561H76.9395L86.5371 31.3621H81.2741L74.0011 9.40923H73.7879L66.5305 31.3621Z" fill="#010101"/>
<path d="M102.884 11.3377C102.759 10.1612 102.239 9.24322 101.321 8.58638C100.403 7.92953 99.215 7.60243 97.7536 7.60243C96.7239 7.60243 95.8424 7.7607 95.1065 8.07462C94.3707 8.38853 93.809 8.81588 93.419 9.35665C93.0289 9.89742 92.8287 10.5121 92.8209 11.2032C92.8209 11.7783 92.9509 12.2768 93.2135 12.6989C93.4762 13.121 93.8324 13.4797 94.2848 13.7699C94.7373 14.0627 95.2366 14.308 95.7878 14.5059C96.3365 14.7037 96.8903 14.8699 97.4494 15.0045L100.003 15.6507C101.03 15.8934 102.021 16.2205 102.975 16.6347C103.927 17.0488 104.782 17.5712 105.541 18.199C106.298 18.8294 106.899 19.5892 107.343 20.4781C107.785 21.3671 108.009 22.4117 108.009 23.6067C108.009 25.2264 107.601 26.6483 106.787 27.8749C105.971 29.1015 104.795 30.0591 103.258 30.7476C101.722 31.4361 99.8624 31.779 97.6808 31.779C95.4992 31.779 93.7258 31.4466 92.1708 30.7819C90.6159 30.1171 89.4015 29.1464 88.5278 27.8696C87.6541 26.5929 87.1835 25.0391 87.1133 23.2031H91.9654C92.0356 24.166 92.3294 24.9653 92.8417 25.6036C93.3566 26.242 94.0274 26.7195 94.8569 27.0334C95.6864 27.3473 96.6121 27.5056 97.6418 27.5056C98.6715 27.5056 99.6544 27.342 100.466 27.0123C101.277 26.6852 101.911 26.2262 102.374 25.6379C102.835 25.0497 103.069 24.3585 103.079 23.5672C103.071 22.847 102.861 22.2535 102.455 21.7813C102.047 21.3091 101.477 20.9134 100.747 20.5942C100.016 20.275 99.163 19.9901 98.1879 19.7369L95.0909 18.927C92.8495 18.3414 91.0787 17.4551 89.7812 16.2627C88.4836 15.0704 87.8336 13.4876 87.8336 11.5092C87.8336 9.8816 88.2704 8.45712 89.1441 7.23312C90.0178 6.00912 91.2061 5.05947 92.7117 4.38152C94.2172 3.70357 95.923 3.36328 97.829 3.36328C99.735 3.36328 101.456 3.70357 102.913 4.38152C104.369 5.05947 105.515 5.99857 106.348 7.19883C107.18 8.39908 107.611 9.77608 107.637 11.3325H102.892L102.884 11.3377Z" fill="#010101"/>
<path d="M77.3854 26.7382C77.3854 28.6903 75.8253 30.2704 73.9036 30.2704C71.982 30.2704 70.4219 28.6877 70.4219 26.7382C70.4219 24.7888 71.982 23.2061 73.9036 23.2061C75.8253 23.2061 77.3854 24.7888 77.3854 26.7382Z" fill="#FFF100"/>
</g>
<defs>
<clipPath id="clip0_2139_10387">
<rect width="108" height="35" fill="white" transform="translate(0 0.0737305)"/>
</clipPath>
</defs>
</svg>
