<svg width="64" height="65" viewBox="0 0 64 65" fill="none" xmlns="http://www.w3.org/2000/svg">
<g clip-path="url(#clip0_2165_12633)">
<path d="M64 0.0737305H0V64.0737H64V0.0737305Z" fill="#FFDE73"/>
<path fill-rule="evenodd" clip-rule="evenodd" d="M13.075 39.4619V45.6334C13.075 46.247 13.193 46.7214 13.4086 46.9785C13.4676 47.0576 13.6444 47.2757 14.254 47.2757C14.7057 47.2757 15.0596 47.1371 15.374 46.8403C15.825 46.4814 15.845 45.8509 15.8459 45.5884L15.8459 39.4619H19.7753V50.9155H15.8459V50.5195C15.1577 50.8757 14.4308 51.0737 13.6839 51.0737C12.3672 51.0737 11.2472 50.6384 10.4025 49.7877C9.57239 48.991 9.14005 47.7919 9.12539 46.3245L9.125 46.247V39.4619H13.075ZM24.9232 39.4417L26.4561 41.8155L28.0481 39.4417H32.8033L28.9909 45.08L32.9409 50.935H28.1267L26.358 48.4427L24.6284 50.935H19.9518L23.8033 45.0997L20.1481 39.4417H24.9232ZM34.4516 39.4731L38.4298 49.3366L42.4079 39.4731H43.9991L39.339 50.9153H37.5205L32.8604 39.4731H34.4516ZM49.5448 39.1987C52.3175 39.1987 54 41.029 54 43.89V50.9153H52.4994V43.89C52.4994 41.8531 51.3859 40.6631 49.4078 40.6631C47.4074 40.6631 45.7256 41.8531 45.7256 44.9197V50.9153H44.2249V39.4731H45.7256V41.2581C46.6122 39.8165 47.9305 39.1987 49.5448 39.1987Z" fill="#1A1F26"/>
</g>
<defs>
<clipPath id="clip0_2165_12633">
<rect width="64" height="64" fill="white" transform="translate(0 0.0737305)"/>
</clipPath>
</defs>
</svg>
