<svg width="110" height="82" viewBox="0 0 110 82" fill="none" xmlns="http://www.w3.org/2000/svg">
<g clip-path="url(#clip0_1961_10929)">
<path d="M51.355 30.706C51.355 32.8696 53.1486 34.6493 55.3291 34.6493C57.5097 34.6493 59.3033 32.8696 59.3033 30.706C59.3033 28.5424 57.5097 26.7627 55.3291 26.7627C53.1486 26.7627 51.355 28.5424 51.355 30.706Z" fill="#241775"/>
<path d="M42.4571 23.3424C46.0444 17.2006 53.5355 14.4787 60.1826 16.7819L59.6902 18.108C57.2283 17.2704 54.5203 17.1308 51.8474 17.8288C45.4817 19.5387 41.3317 25.4711 41.9647 31.9619L43.688 31.7874C43.1253 26.1342 46.7478 20.9695 52.3046 19.4689C57.8614 18.0033 63.594 20.6903 65.9856 25.855L67.5331 25.1571C66.1966 22.2955 63.9458 20.0622 61.2729 18.771L62.3983 15.8397L61.6246 15.4907C53.9927 12.35 45.0948 15.3511 40.98 22.47C36.8299 29.5889 38.6588 38.7319 45.2003 43.7221L46.2554 42.3611C40.3821 37.8943 38.7643 29.6936 42.4571 23.3424Z" fill="#241775"/>
<path d="M66.3722 20.8652C70.6629 25.6112 71.4014 32.5207 68.1659 38.0693C64.4731 44.4554 56.5247 47.1424 49.6666 44.3158L48.9984 45.8861C51.0383 46.7236 53.1836 47.1424 55.2938 47.1424C61.0616 47.1424 66.6536 44.1413 69.6782 38.9417C73.2655 32.765 72.4565 25.0528 67.6735 19.7485L66.3722 20.8652Z" fill="#241775"/>
<path d="M43.1252 36.2192C45.3408 41.0699 50.1591 44.0361 55.2939 44.0361C56.4545 44.0361 57.6151 43.8965 58.8108 43.5824C65.1414 41.8725 69.2914 35.9401 68.6583 29.4493L66.935 29.6238C67.4977 35.277 63.8753 40.4766 58.3185 41.9423C53.0782 43.3381 47.6269 41.0001 45.0243 36.3239L46.3256 35.7656C47.2048 37.301 48.5061 38.6271 50.1239 39.5344C51.7417 40.4766 53.5354 40.9303 55.2939 40.9303C58.0723 40.9303 60.8155 39.8136 62.8202 37.65L63.4181 36.987L60.9913 34.9281C61.4134 34.3697 61.7651 33.7067 62.0113 33.0087C62.996 30.1821 62.0816 27.0065 59.6901 25.157L58.635 26.4831C60.4286 27.9138 61.132 30.2868 60.3935 32.4504C59.6549 34.614 57.5799 36.0447 55.2939 36.0797V37.7896C56.982 37.7896 58.5646 37.1963 59.7956 36.1494L60.8859 37.0916C58.1426 39.4995 54.1684 39.9183 50.968 38.0687C50.8625 37.9989 50.7218 37.9292 50.6163 37.8594L52.5506 35.4515L51.8824 34.9281C50.0888 33.4973 49.3853 31.1243 50.1239 28.9607C50.8625 26.7971 52.9375 25.3664 55.2235 25.3315V23.6215C53.5354 23.6215 51.9176 24.2497 50.6866 25.2617L49.6667 24.3195C52.4099 21.9116 56.3841 21.4928 59.6197 23.3424C63.1015 25.3315 64.7193 29.4144 63.5236 33.2181L65.1765 33.7067C66.6185 29.1352 64.6842 24.2497 60.499 21.8418C56.3138 19.4339 51.0735 20.2366 47.7676 23.7611L47.1697 24.3893L49.5612 26.4831C49.1392 27.0414 48.7875 27.6695 48.5765 28.3675C47.6972 30.9149 48.3654 33.7416 50.2646 35.6609L49.3502 36.7776C47.0642 34.5791 46.1497 31.2988 47.1345 28.1581L45.4815 27.6695C44.7781 29.868 44.8836 32.1712 45.6222 34.1952L42.7031 35.4166L43.1252 36.2192Z" fill="#241775"/>
<path d="M37.2781 52.0869V53.5244H39.3411V59.7109H40.8554V53.5244H42.9294V52.0869H37.2781Z" fill="#241775"/>
<path d="M46.3863 56.5633H49.2943V55.1474H46.3863V53.5244H49.5686V52.0869H44.8719V59.7109H49.6235V58.2731H46.3863V56.5633Z" fill="#241775"/>
<path d="M53.3026 52.0869H51.7883V59.7109H56.2326V58.2731H53.3026V52.0869Z" fill="#241775"/>
<path d="M64.6536 58.7195C65.4327 57.9463 65.8168 57.0094 65.8168 55.8986C65.8168 54.7878 65.4327 53.8509 64.6536 53.0886C63.8745 52.3154 62.9308 51.9341 61.8225 51.9341C60.7142 51.9341 59.7704 52.3154 58.9913 53.0886C58.2232 53.8509 57.8391 54.7878 57.8391 55.8986C57.8391 57.0094 58.2232 57.9463 58.9913 58.7195C59.7704 59.4818 60.7142 59.8631 61.8225 59.8631C62.9308 59.8631 63.8745 59.4818 64.6536 58.7195ZM60.0558 57.6958C59.5839 57.2274 59.3425 56.6284 59.3425 55.8986C59.3425 55.1688 59.5839 54.5698 60.0558 54.1017C60.5276 53.6333 61.1202 53.3937 61.8225 53.3937C62.5248 53.3937 63.1173 53.6333 63.5892 54.1017C64.0611 54.5698 64.3025 55.1688 64.3025 55.8986C64.3025 56.6284 64.0611 57.2274 63.5892 57.6958C63.1173 58.164 62.5248 58.3929 61.8225 58.3929C61.1202 58.3929 60.5276 58.164 60.0558 57.6958Z" fill="#241775"/>
<path d="M70.6013 59.8631C71.4243 59.8631 72.0935 59.6561 72.6093 59.2423C73.1251 58.8285 73.3885 58.273 73.3885 57.565C73.3885 57.1293 73.2679 56.748 73.1032 56.4866C72.9604 56.2253 72.6093 55.9533 72.379 55.8115C72.269 55.7353 72.1047 55.6591 71.896 55.5829C71.6876 55.4958 71.523 55.4302 71.4024 55.3977L70.8756 55.2234C70.3049 55.0492 69.9208 54.8859 69.7124 54.7441C69.5148 54.5917 69.4161 54.3956 69.4161 54.156C69.4161 53.7095 69.8001 53.3937 70.4258 53.3937C71.095 53.3937 71.5889 53.7204 71.896 54.374L73.1691 53.6442C72.6424 52.5658 71.6658 51.9341 70.4258 51.9341C69.7343 51.9341 69.1307 52.1411 68.637 52.5549C68.1431 52.9581 67.9017 53.5133 67.9017 54.1998C67.9017 54.8968 68.1541 55.4196 68.626 55.7681C69.1088 56.1057 69.5258 56.269 70.2171 56.476C70.8425 56.6503 71.2705 56.8136 71.512 56.966C71.7536 57.1075 71.8741 57.3145 71.8741 57.5869C71.8741 58.0553 71.4902 58.3929 70.6451 58.3929C69.7672 58.3929 69.1746 58.0006 68.8784 57.2274L67.5835 57.9788C68.0115 59.1442 69.0759 59.8631 70.6013 59.8631Z" fill="#241775"/>
<path d="M40.1115 68.1948L38.8821 64.981H38.5531L37.3237 68.1948H37.6619L37.959 67.405H39.4762L39.7733 68.1948H40.1115ZM38.7176 65.3805L39.362 67.1019H38.0732L38.7176 65.3805Z" fill="#241775"/>
<path d="M44.3913 68.2501C44.9809 68.2501 45.5156 67.938 45.776 67.456L45.4927 67.2953C45.2916 67.6852 44.8666 67.938 44.3913 67.938C43.9937 67.938 43.6647 67.8095 43.4133 67.5478C43.162 67.286 43.034 66.9693 43.034 66.588C43.034 66.207 43.162 65.8903 43.4133 65.6286C43.6647 65.3669 43.9937 65.2383 44.3913 65.2383C44.8666 65.2383 45.2916 65.4908 45.4927 65.881L45.776 65.7157C45.5064 65.2337 44.9809 64.9263 44.3913 64.9263C43.9069 64.9263 43.5047 65.0869 43.1894 65.4083C42.8741 65.7296 42.7141 66.1245 42.7141 66.588C42.7141 67.0518 42.8741 67.4467 43.1894 67.7681C43.5047 68.0894 43.9069 68.2501 44.3913 68.2501Z" fill="#241775"/>
<path d="M51.2159 68.1948L49.9866 64.981H49.6576L48.4282 68.1948H48.7664L49.0634 67.405H50.5807L50.8778 68.1948H51.2159ZM49.8221 65.3805L50.4664 67.1019H49.1777L49.8221 65.3805Z" fill="#241775"/>
<path d="M54.1174 64.981V68.1948H55.3513C55.7855 68.1948 56.1465 68.0388 56.4299 67.731C56.7178 67.4189 56.8595 67.0376 56.8595 66.5877C56.8595 66.1378 56.7178 65.7568 56.4299 65.4494C56.1465 65.137 55.7855 64.981 55.3513 64.981H54.1174ZM54.4374 67.8917V65.2841H55.3513C55.7032 65.2841 55.9866 65.408 56.2105 65.6604C56.4345 65.9129 56.5487 66.2206 56.5487 66.5877C56.5487 66.9551 56.4345 67.2629 56.2105 67.5153C55.9866 67.7678 55.7032 67.8917 55.3513 67.8917H54.4374Z" fill="#241775"/>
<path d="M60.2171 66.7255H61.6338V66.4224H60.2171V65.2841H61.7481V64.981H59.8972V68.1948H61.7709V67.8917H60.2171V66.7255Z" fill="#241775"/>
<path d="M67.3385 64.981L66.2737 66.7716L65.2089 64.981H64.8113V68.1948H65.1312V65.4676L66.2509 67.35H66.2965L67.4162 65.4676V68.1948H67.7361V64.981H67.3385Z" fill="#241775"/>
<path d="M72.9041 64.981L71.9533 66.5556L70.9982 64.981H70.6371L71.789 66.868V68.1948H72.1087V66.8769L73.2649 64.981H72.9041Z" fill="#241775"/>
</g>
<defs>
<clipPath id="clip0_1961_10929">
<rect width="36.1104" height="54" fill="white" transform="translate(37.2781 14.25)"/>
</clipPath>
</defs>
</svg>
