<svg width="84" height="49" viewBox="0 0 84 49" fill="none" xmlns="http://www.w3.org/2000/svg">
<g clip-path="url(#clip0_2173_12999)">
<path d="M1.33412 1.16552C2.08737 0.452251 3.13755 0.0607338 4.18336 0.0735471C5.68186 0.0813774 7.18108 0.069276 8.67957 0.0799537C8.65846 7.41841 8.66501 14.7569 8.66356 22.096C8.67811 23.398 8.94521 24.7989 9.89204 25.777C10.6002 26.5529 11.6438 26.9864 12.694 27.0605C13.2653 27.0697 13.8439 27.1039 14.4072 26.9886C15.4719 26.7971 16.4813 26.2169 17.0985 25.3371C17.7804 24.4067 18.0075 23.23 17.9878 22.1046C17.9973 15.2231 17.9878 8.34168 17.9915 1.46094C17.9878 1.00607 18.0017 0.551198 17.9813 0.0963262C18.0621 0.0856485 18.1436 0.0792419 18.2258 0.0763945C21.0205 0.0742589 23.8159 0.0792419 26.6113 0.0799537C26.6127 7.2554 26.6083 14.4308 26.6083 21.6063C26.6258 22.862 26.5618 24.1269 26.2605 25.352C25.5967 28.0457 23.9199 30.4994 21.6005 32.0968C20.2993 33.0258 18.8 33.6714 17.2513 34.0907C16.2594 34.3327 15.247 34.5292 14.223 34.5484C13.619 34.6039 13.0077 34.6196 12.4036 34.5541C8.64609 34.4238 4.89877 32.7346 2.56988 29.8089C1.68491 28.6949 1.02481 27.4178 0.592512 26.0731C0.206063 24.7868 0.042313 23.4428 0.055413 22.1046C0.0575963 16.1015 0.0597796 10.0985 0.0590518 4.0955C0.0430408 3.00138 0.515368 1.91154 1.33412 1.16552Z" fill="#005E68"/>
<path d="M31.3915 1.23457C32.1505 0.480008 33.2357 0.0678474 34.3135 0.0778133C40.8708 0.0813726 47.428 0.0735422 53.9853 0.0849318C53.9853 2.58993 53.9882 5.09493 53.9839 7.59993C48.9222 7.59352 43.8612 7.6042 38.8002 7.59423C38.7777 9.49772 38.7879 11.4019 38.7951 13.3061C43.0024 13.304 47.2097 13.3082 51.417 13.304C51.5276 13.3111 51.6491 13.2876 51.7532 13.3389C51.7605 15.3826 51.751 17.427 51.7547 19.4707C51.7474 19.9163 51.77 20.3634 51.7394 20.8083C47.4251 20.7855 43.1101 20.8083 38.7959 20.7969C38.7828 22.8029 38.7871 24.8096 38.7944 26.8156C43.8547 26.8256 48.9156 26.8163 53.9766 26.8199C53.994 27.9531 53.9795 29.0864 53.9853 30.2197C53.9904 31.1415 53.7088 32.0833 53.1011 32.798C52.3478 33.754 51.12 34.3299 49.8872 34.3107C46.1755 34.3142 42.4646 34.3078 38.7529 34.3071C35.8971 34.3 33.0413 34.3206 30.1855 34.2971C30.1921 24.2294 30.1899 14.1618 30.1936 4.09407C30.155 3.03199 30.6113 1.97062 31.3915 1.23457Z" fill="#005E68"/>
<path d="M57.6621 0.0956565C60.5193 0.0607759 63.3788 0.0977921 66.2375 0.0771484C66.2615 4.28774 66.2382 8.49833 66.2491 12.7089C66.2499 12.862 66.2448 13.015 66.2229 13.1666C66.3314 13.262 66.4835 13.2485 66.6196 13.2528C69.5452 13.2485 72.4702 13.2563 75.3951 13.2485C75.3907 8.86279 75.406 4.47709 75.3944 0.0913854C78.2596 0.0664707 81.1263 0.100639 83.9923 0.0807077C84.0076 9.7946 83.996 19.5085 83.9974 29.2231C83.972 29.9236 84.0687 30.6397 83.8744 31.3245C83.528 32.6991 82.3687 33.848 80.9619 34.1897C80.2501 34.3797 79.5078 34.2922 78.7807 34.3121C77.6512 34.3143 76.5217 34.3078 75.3929 34.3157C75.3995 30.2688 75.3929 26.2227 75.3958 22.1758C75.3915 21.7067 75.4046 21.2369 75.3856 20.7678C72.3508 20.7799 69.316 20.7692 66.2812 20.7727C66.2768 25.2837 66.2681 29.7954 66.2826 34.3064C63.4072 34.3185 60.5317 34.2965 57.657 34.3178C57.6279 31.1964 57.6534 28.0735 57.6446 24.952C57.6454 16.9793 57.6417 9.00659 57.6483 1.03387C57.6541 0.721372 57.6301 0.407447 57.6621 0.0956565Z" fill="#005E68"/>
<path d="M54.5893 38.0936C55.2188 37.7576 55.9451 37.6294 56.6569 37.6508C57.6598 37.6216 58.7027 37.7533 59.5789 38.2637C59.846 38.4253 60.1735 38.6018 60.2783 38.9051C59.937 39.2987 59.5251 39.6297 59.1692 40.0113C59.0207 40.1423 58.897 40.333 58.6947 40.3829C58.4436 40.2683 58.2435 40.0604 57.9727 39.9871C57.4764 39.8554 56.956 39.8447 56.4458 39.8661C55.9502 39.8938 55.4401 40.2526 55.3884 40.7587C55.3877 41.1688 55.7857 41.4684 56.1678 41.5418C56.9553 41.6685 57.7624 41.7076 58.5324 41.9262C59.1845 42.1155 59.8154 42.4971 60.1466 43.0957C60.5068 43.7222 60.5148 44.4689 60.4908 45.1686C60.4697 45.8456 60.1095 46.4692 59.6401 46.949C58.9203 47.6281 57.9291 47.9619 56.9487 48.0552C55.9713 48.1036 54.9677 48.0708 54.0354 47.7512C53.4154 47.5298 52.799 47.2309 52.3594 46.7354C52.8805 46.188 53.4474 45.6854 53.9743 45.1437C54.5216 45.5815 55.2297 45.731 55.9175 45.7879C56.5099 45.8036 57.1547 45.8477 57.6743 45.5146C57.924 45.348 57.9472 45.0191 57.9254 44.7508C57.9138 44.4141 57.6314 44.1165 57.2915 44.0724C56.3512 43.8966 55.3709 43.8802 54.4692 43.5371C53.8004 43.2915 53.2334 42.7498 53.0318 42.0721C52.7502 41.3047 52.7742 40.4434 53.0726 39.6845C53.3171 38.9727 53.9146 38.4231 54.5893 38.0936Z" fill="#F16F33"/>
<path d="M0 37.7286C0.899532 37.7194 1.79906 37.7308 2.6986 37.7236C2.68477 39.9211 2.69641 42.1186 2.69277 44.3161C2.67967 44.7745 2.86016 45.2372 3.22041 45.5376C3.51807 45.8586 4.00132 45.8074 4.40159 45.7896C5.04422 45.7462 5.53984 45.1432 5.53038 44.5275C5.54202 42.2631 5.52965 39.998 5.5362 37.7329C6.40735 37.7222 7.2785 37.7229 8.14965 37.7322C8.17221 39.9254 8.1511 42.12 8.16056 44.3139C8.17221 45.1461 7.96697 46.0281 7.38111 46.6588C6.07839 48.1572 3.68401 48.4626 1.93589 47.5721C1.48466 47.2987 1.0349 46.9912 0.730688 46.5563C0.289655 45.9704 0.0866054 45.2465 0.0123722 44.531C0.00145555 42.2638 0.0262 39.9959 0 37.7286Z" fill="#F16F33"/>
<path d="M10.1221 37.7305C10.8586 37.7241 11.5958 37.7205 12.3323 37.7276C12.4706 37.6999 12.5375 37.8301 12.5994 37.9248C12.8796 38.3818 13.1998 38.8132 13.4873 39.2659C13.9887 39.9927 14.4123 40.7694 14.9436 41.4777C15.2551 41.8841 15.4705 42.3646 15.8489 42.7191C15.8766 41.0548 15.8569 39.3891 15.8591 37.7241C16.7368 37.7255 17.6145 37.7276 18.4922 37.7227C18.4922 41.1445 18.4915 44.5664 18.4922 47.9875C17.7135 47.9761 16.9355 47.9861 16.1575 47.9825C15.6532 47.1561 15.1415 46.3339 14.5659 45.553C14.2755 45.1223 14.0258 44.666 13.7093 44.2517C13.3745 43.8161 13.1169 43.3306 12.7988 42.8836C12.7653 44.0951 12.7944 45.3088 12.785 46.5211C12.7799 47.0102 12.8097 47.5006 12.745 47.9875C11.8694 47.9747 10.9939 47.9904 10.1191 47.979C10.1213 44.5628 10.1322 41.1467 10.1213 37.7305H10.1221Z" fill="#F16F33"/>
<path d="M20.6537 37.7222C21.5322 37.73 22.4099 37.7229 23.2883 37.7272C23.2796 41.1362 23.2737 44.546 23.2912 47.955C22.4208 48.0205 21.5453 47.9607 20.6734 47.9885C20.6363 47.6902 20.645 47.3898 20.6465 47.0908C20.6494 43.9679 20.6406 40.8451 20.6537 37.7222Z" fill="#F16F33"/>
<path d="M24.3477 37.7264C25.2566 37.7243 26.1656 37.725 27.0746 37.7264C27.2842 38.5002 27.5193 39.2676 27.7879 40.0243C27.972 40.6308 28.1474 41.2394 28.3417 41.8424C28.5258 42.3627 28.6423 42.9037 28.857 43.4141C29.2099 42.4958 29.4355 41.537 29.7317 40.6016C29.9646 39.9944 30.1109 39.3609 30.3031 38.7415C30.4042 38.4084 30.5163 38.0774 30.5905 37.7371C31.5133 37.7172 32.4362 37.7321 33.359 37.7293C33.1814 38.4241 32.8721 39.0782 32.6596 39.763C32.1312 41.2451 31.6327 42.7379 31.1167 44.2249C30.8358 44.9439 30.6444 45.692 30.362 46.4103C30.1662 46.9264 30.036 47.4674 29.7994 47.9678C29.1706 47.9956 28.5367 47.9906 27.9072 47.9685C27.7726 47.7991 27.7449 47.5792 27.67 47.3834C26.9538 45.324 26.2522 43.2589 25.5412 41.1981C25.2275 40.4322 24.9961 39.6399 24.7319 38.8576C24.6308 38.471 24.4372 38.1151 24.3477 37.7257V37.7264Z" fill="#F16F33"/>
<path d="M34.4189 37.7263C36.849 37.7291 39.2797 37.7327 41.7105 37.7241C41.7032 38.4822 41.712 39.2404 41.7047 39.9985C40.1582 39.9942 38.6109 39.9842 37.0651 40.0042C37.0644 40.5665 37.0426 41.1296 37.0768 41.6913C38.3999 41.719 39.7237 41.6941 41.0475 41.7034C41.0395 42.4451 41.0359 43.1869 41.049 43.9286C39.7237 43.9457 38.3977 43.9158 37.0724 43.945C37.052 44.5315 37.0586 45.1181 37.0658 45.7047C38.6007 45.7232 40.1363 45.7225 41.6712 45.7054C41.7447 46.4592 41.6865 47.2209 41.7011 47.9776C39.7237 47.9911 37.7463 47.9797 35.769 47.9833C35.3177 47.9762 34.8658 48.0047 34.416 47.9591C34.4342 44.5486 34.4284 41.1367 34.4189 37.7263Z" fill="#F16F33"/>
<path d="M43.5212 37.7276C44.9644 37.7297 46.4068 37.7283 47.85 37.7283C48.9337 37.7006 50.0814 38.1284 50.7313 39.0061C51.168 39.5144 51.3703 40.1721 51.4416 40.8227C51.5013 41.4798 51.2822 42.1368 50.9213 42.6856C50.6098 43.1355 50.1527 43.4623 49.6768 43.7313C50.1287 44.387 50.4729 45.1095 50.8397 45.8142C51.1883 46.5574 51.6694 47.2336 52.002 47.9839C51.077 47.9939 50.152 47.9861 49.227 47.9896C49.1054 47.9782 48.9308 48.0145 48.8777 47.8722C48.2721 46.6421 47.6972 45.3949 47.0437 44.1869C46.7642 44.1378 46.4789 44.1528 46.2002 44.199C46.1929 45.3771 46.2016 46.5553 46.1958 47.7334C46.2147 47.8722 46.1201 48.0288 45.96 47.9846C45.1456 47.9626 44.3283 48.0238 43.5176 47.9505C43.5489 46.5019 43.5227 45.0518 43.5314 43.6025C43.5241 41.6442 43.5452 39.6859 43.5212 37.7276ZM46.1907 40.0198C46.2096 40.6903 46.1907 41.3609 46.2023 42.0322C46.8362 42.0685 47.4832 42.1033 48.1106 41.9902C48.6826 41.8029 48.9417 41.1053 48.6993 40.5793C48.5254 40.2461 48.1732 39.9842 47.778 39.997C47.2489 39.997 46.7176 39.9714 46.1907 40.0198Z" fill="#F16F33"/>
<path d="M62.2229 37.7284C63.1006 37.7284 63.9783 37.7334 64.856 37.7241C64.8582 41.146 64.8553 44.5671 64.8545 47.9883C63.9761 47.9861 63.0984 47.9911 62.2207 47.9869C62.2287 44.5671 62.2243 41.1474 62.2229 37.7284Z" fill="#F16F33"/>
<path d="M66.3633 37.7212C68.9891 37.7361 71.6171 37.7312 74.2437 37.724C74.2866 38.4743 74.3048 39.2268 74.2531 39.9778C73.3725 40.0169 72.4912 39.9799 71.6113 39.9991C71.6331 42.6593 71.6251 45.3202 71.6156 47.9811C70.7423 47.9932 69.8697 47.9918 68.9971 47.9804C68.9978 45.3195 68.9906 42.6579 69.0007 39.9963C68.1216 39.9756 67.2403 40.0304 66.3633 39.9657C66.3698 39.2175 66.3844 38.4686 66.3633 37.7212Z" fill="#F16F33"/>
<path d="M74.8594 37.7261C75.7545 37.7325 76.6504 37.7282 77.5456 37.7289C77.622 37.7424 77.7523 37.7069 77.785 37.8058C78.1293 38.6764 78.574 39.5043 78.94 40.3663C79.0943 40.6845 79.1875 41.0404 79.4298 41.3109C79.7682 40.5514 80.1205 39.7976 80.456 39.0366C80.6452 38.6031 80.8752 38.1859 81.0287 37.7389C82.0003 37.7175 82.9734 37.7346 83.9457 37.7296C83.3263 38.9369 82.6873 40.135 82.0578 41.3373C81.6102 42.0797 81.266 42.8763 80.8184 43.6188C80.7253 43.7604 80.7063 43.9306 80.7092 44.095C80.7151 45.3906 80.7129 46.6868 80.7114 47.9824C79.8374 47.9931 78.9626 47.9959 78.0892 47.9781C78.0747 46.6142 78.09 45.2503 78.082 43.8864C78.0849 43.7412 78.0034 43.6166 77.9313 43.4977C77.5449 42.9055 77.2909 42.2435 76.9277 41.6391C76.5653 41.0376 76.2822 40.3955 75.9212 39.7933C75.6694 39.3612 75.4976 38.8878 75.2284 38.4643C75.0784 38.2315 74.9605 37.9816 74.8594 37.7261Z" fill="#F16F33"/>
</g>
<defs>
<clipPath id="clip0_2173_12999">
<rect width="84" height="48" fill="white" transform="translate(0 0.0737305)"/>
</clipPath>
</defs>
</svg>
