<svg width="60" height="60" viewBox="0 0 60 60" fill="none" xmlns="http://www.w3.org/2000/svg">
<rect x="0.5" y="0.5" width="59" height="59" rx="29.5" stroke="#7F56D9"/>
<path fill-rule="evenodd" clip-rule="evenodd" d="M20.0002 17.1436H40.0002C41.5782 17.1436 42.8574 18.4227 42.8574 20.0007V40.0007C42.8574 41.5787 41.5782 42.8578 40.0002 42.8578H20.0002C18.4223 42.8578 17.1431 41.5787 17.1431 40.0007V20.0007C17.1431 18.4227 18.4223 17.1436 20.0002 17.1436ZM24.2859 38.5721C24.6804 38.5721 25.0002 38.2523 25.0002 37.8578V27.8578C25.0002 27.4634 24.6804 27.1436 24.2859 27.1436H22.1431C21.7486 27.1436 21.4288 27.4634 21.4288 27.8578V37.8578C21.4288 38.2523 21.7486 38.5721 22.1431 38.5721H24.2859ZM23.2145 25.715C22.031 25.715 21.0716 24.7556 21.0716 23.5721C21.0716 22.3887 22.031 21.4293 23.2145 21.4293C24.398 21.4293 25.3574 22.3887 25.3574 23.5721C25.3574 24.7556 24.398 25.715 23.2145 25.715ZM37.8574 38.5721C38.2518 38.5721 38.5716 38.2523 38.5716 37.8578V31.2864C38.6181 29.0161 36.9396 27.0786 34.6859 26.8007C33.1102 26.6568 31.5835 27.3927 30.7145 28.715V27.8578C30.7145 27.4634 30.3946 27.1436 30.0002 27.1436H27.8574C27.4629 27.1436 27.1431 27.4634 27.1431 27.8578V37.8578C27.1431 38.2523 27.4629 38.5721 27.8574 38.5721H30.0002C30.3946 38.5721 30.7145 38.2523 30.7145 37.8578V32.5007C30.7145 31.3173 31.6739 30.3578 32.8574 30.3578C34.0408 30.3578 35.0002 31.3173 35.0002 32.5007V37.8578C35.0002 38.2523 35.3201 38.5721 35.7145 38.5721H37.8574Z" fill="white"/>
</svg>
