<svg width="60" height="60" viewBox="0 0 60 60" fill="none" xmlns="http://www.w3.org/2000/svg">
<rect x="0.5" y="0.5" width="59" height="59" rx="29.5" stroke="#7F56D9"/>
<path d="M36.375 21.5H32.125C31.3426 21.5 30.7084 22.1343 30.7084 22.9167V27.1667H36.375C36.5361 27.1631 36.689 27.2381 36.7847 27.3677C36.8805 27.4973 36.9074 27.6653 36.8567 27.8183L35.8084 30.935C35.7117 31.221 35.4444 31.4144 35.1425 31.4167H30.7084V42.0417C30.7084 42.4328 30.3912 42.75 30 42.75H26.4584C26.0672 42.75 25.75 42.4328 25.75 42.0417V31.4167H23.625C23.2338 31.4167 22.9167 31.0995 22.9167 30.7083V27.875C22.9167 27.4839 23.2338 27.1667 23.625 27.1667H25.75V22.9167C25.75 19.7871 28.2871 17.25 31.4167 17.25H36.375C36.7662 17.25 37.0834 17.5671 37.0834 17.9583V20.7917C37.0834 21.1829 36.7662 21.5 36.375 21.5Z" fill="white"/>
</svg>
