<svg width="64" height="65" viewBox="0 0 64 65" fill="none" xmlns="http://www.w3.org/2000/svg">
<g clip-path="url(#clip0_2139_10400)">
<path d="M64 0.57373H0V64.5737H64V0.57373Z" fill="#FFDE73"/>
<path fill-rule="evenodd" clip-rule="evenodd" d="M13.075 39.9619V46.1334C13.075 46.747 13.193 47.2214 13.4086 47.4785C13.4676 47.5576 13.6444 47.7757 14.254 47.7757C14.7057 47.7757 15.0596 47.6371 15.374 47.3403C15.825 46.9814 15.845 46.3509 15.8459 46.0884L15.8459 39.9619H19.7753V51.4155H15.8459V51.0195C15.1577 51.3757 14.4308 51.5737 13.6839 51.5737C12.3672 51.5737 11.2472 51.1384 10.4025 50.2877C9.57239 49.491 9.14005 48.2919 9.12539 46.8245L9.125 46.747V39.9619H13.075ZM24.9232 39.9417L26.4561 42.3155L28.0481 39.9417H32.8033L28.9909 45.58L32.9409 51.435H28.1267L26.358 48.9427L24.6284 51.435H19.9518L23.8033 45.5997L20.1481 39.9417H24.9232ZM34.4516 39.9731L38.4298 49.8366L42.4079 39.9731H43.9991L39.339 51.4153H37.5205L32.8604 39.9731H34.4516ZM49.5448 39.6987C52.3175 39.6987 54 41.529 54 44.39V51.4153H52.4994V44.39C52.4994 42.3531 51.3859 41.1631 49.4078 41.1631C47.4074 41.1631 45.7256 42.3531 45.7256 45.4197V51.4153H44.2249V39.9731H45.7256V41.7581C46.6122 40.3165 47.9305 39.6987 49.5448 39.6987Z" fill="#1A1F26"/>
</g>
<defs>
<clipPath id="clip0_2139_10400">
<rect width="64" height="64" fill="white" transform="translate(0 0.57373)"/>
</clipPath>
</defs>
</svg>
