<svg width="116" height="43" viewBox="0 0 116 43" fill="none" xmlns="http://www.w3.org/2000/svg">
<g style="mix-blend-mode:hard-light">
<path d="M26.7774 0.0737305V9.1424C26.7774 10.6721 26.5785 11.9031 26.1805 12.8354C25.7974 13.7532 25.171 14.4161 24.3015 14.824C23.432 15.2319 22.2677 15.4358 20.8087 15.4358C19.2613 15.4358 18.0233 15.2319 17.0949 14.824C16.1664 14.4161 15.4958 13.7532 15.0832 12.8354C14.6853 11.9031 14.4863 10.6721 14.4863 9.1424V0.0737305H17.8465V9.1424C17.8465 10.0893 17.9275 10.8323 18.0897 11.3713C18.2665 11.8958 18.5539 12.2673 18.9518 12.4858C19.3644 12.7043 19.9245 12.8136 20.6319 12.8136C21.3245 12.8136 21.8698 12.7043 22.2677 12.4858C22.6804 12.2673 22.9751 11.8958 23.152 11.3713C23.3288 10.8323 23.4173 10.0893 23.4173 9.1424V0.0737305H26.7774Z" fill="black"/>
</g>
<path fill-rule="evenodd" clip-rule="evenodd" d="M34.3152 6.10525L35.3006 4.22461H38.5944L35.6479 8.64868L34.3152 6.10525ZM32.8359 8.9283L32.541 9.49099L32.8642 10.0904L33.2017 9.54212L32.8359 8.9283ZM34.3423 12.8321L35.5217 15.0196H38.8597L35.6773 10.3561L34.3423 12.8321Z" fill="black"/>
<path d="M31.9009 4.22461L34.6605 9.49099L31.6798 15.0196H28.3418L32.1146 9.49099L28.6071 4.22461H31.9009Z" fill="black"/>
<g style="mix-blend-mode:hard-light">
<path d="M3.27173 13.6657C4.43599 13.6657 5.6371 13.6802 6.87505 13.7094C8.12774 13.7239 9.26253 13.7895 10.2794 13.9061L10.1026 16.3098H4.576C3.76544 16.3098 3.36015 16.6813 3.36015 17.4243V20.0465H9.28464V22.4066H3.36015V28.8093H0V16.7468C0 15.7999 0.302119 15.0497 0.906357 14.4961C1.5106 13.9425 2.29905 13.6657 3.27173 13.6657Z" fill="black"/>
<path d="M16.5143 17.7302C17.8848 17.7302 18.9828 17.9196 19.8081 18.2983C20.6334 18.6626 21.2229 19.2671 21.5766 20.1121C21.945 20.9425 22.1292 22.0496 22.1292 23.4336C22.1292 24.8176 21.945 25.9248 21.5766 26.7552C21.2229 27.571 20.6334 28.161 19.8081 28.5252C18.9828 28.8894 17.8848 29.0715 16.5143 29.0715C15.1437 29.0715 14.0457 28.8894 13.2204 28.5252C12.3951 28.161 11.7982 27.571 11.4298 26.7552C11.0761 25.9248 10.8993 24.8176 10.8993 23.4336C10.8993 22.0496 11.0761 20.9425 11.4298 20.1121C11.7982 19.2671 12.3951 18.6626 13.2204 18.2983C14.0457 17.9196 15.1437 17.7302 16.5143 17.7302ZM16.5143 20.0684C15.9395 20.0684 15.49 20.1631 15.1658 20.3525C14.8563 20.5418 14.6352 20.8842 14.5026 21.3795C14.3699 21.8603 14.3036 22.545 14.3036 23.4336C14.3036 24.3077 14.3699 24.9851 14.5026 25.4659C14.6352 25.9466 14.8563 26.2817 15.1658 26.4711C15.49 26.6459 15.9395 26.7333 16.5143 26.7333C17.089 26.7333 17.5311 26.6459 17.8406 26.4711C18.1649 26.2817 18.3933 25.9466 18.5259 25.4659C18.6586 24.9851 18.7249 24.3077 18.7249 23.4336C18.7249 22.545 18.6586 21.8603 18.5259 21.3795C18.3933 20.8842 18.1649 20.5418 17.8406 20.3525C17.5311 20.1631 17.089 20.0684 16.5143 20.0684Z" fill="black"/>
<path d="M27.1218 18.0143V25.1162C27.1218 25.5679 27.2176 25.8884 27.4092 26.0777C27.6008 26.2671 27.925 26.3618 28.3819 26.3618C28.7798 26.3618 29.1851 26.2963 29.5977 26.1651C30.0104 26.034 30.5041 25.8155 31.0788 25.5096V18.0143H34.3506V28.8093H31.7862L31.4989 27.2359C30.7325 27.8623 29.9809 28.3285 29.244 28.6345C28.5071 28.9404 27.7482 29.0933 26.9671 29.0933C24.9038 29.0933 23.8722 28.0954 23.8722 26.0996V18.0143H27.1218Z" fill="black"/>
<path d="M52.5541 17.752C53.2173 17.7375 53.851 17.8103 54.4552 17.9706C55.0742 18.1308 55.6416 18.3858 56.1574 18.7354C56.0984 18.007 56.069 17.2422 56.069 16.4409V13.5127H59.3407V28.8093H56.7543L56.4669 27.1267C56.0248 27.6802 55.4574 28.1464 54.7647 28.5252C54.0868 28.8894 53.2688 29.0715 52.3109 29.0715C50.9108 29.0715 49.9087 28.5835 49.3045 27.6074C48.715 26.6168 48.4202 25.1891 48.4202 23.3244C48.4202 21.8967 48.5749 20.7749 48.8844 19.9591C49.1939 19.1433 49.6508 18.5679 50.255 18.2328C50.874 17.8977 51.6403 17.7375 52.5541 17.752ZM51.7804 23.3025C51.7804 24.162 51.8393 24.8176 51.9572 25.2692C52.0898 25.7208 52.2888 26.0268 52.5541 26.187C52.8193 26.3473 53.1731 26.4274 53.6152 26.4274C54.1163 26.4274 54.5363 26.3545 54.8752 26.2089C55.2289 26.0632 55.6268 25.8447 56.069 25.5533V20.4836C55.6711 20.367 55.2879 20.2651 54.9194 20.1776C54.5657 20.0902 54.1605 20.0465 53.7036 20.0465C53.2467 20.0465 52.8709 20.1267 52.5762 20.2869C52.2962 20.4472 52.0898 20.7604 51.9572 21.2266C51.8393 21.6927 51.7804 22.3847 51.7804 23.3025Z" fill="black"/>
<path d="M67.3145 17.7302C68.6851 17.7302 69.7388 18.0143 70.4757 18.5824C71.2126 19.1506 71.581 20.1776 71.581 21.6636V28.8093H68.9946L68.6409 27.1048C68.243 27.5564 67.705 27.9935 67.0271 28.4159C66.3492 28.8384 65.5165 29.0496 64.5291 29.0496C63.5417 29.0496 62.709 28.7947 62.0311 28.2848C61.3532 27.7749 61.0142 27.0174 61.0142 26.0122V24.8977C61.0142 24.0382 61.309 23.3681 61.8985 22.8873C62.488 22.4066 63.2985 22.1662 64.3302 22.1662H68.3093V21.6636C68.2946 21.1391 68.1619 20.7677 67.9114 20.5491C67.6756 20.316 67.2261 20.1995 66.5629 20.1995C65.9881 20.1995 65.2807 20.2213 64.4407 20.2651C63.6007 20.2942 62.7385 20.3379 61.8543 20.3962L61.5669 18.2546C62.0827 18.1672 62.6796 18.0871 63.3575 18.0143C64.0501 17.9269 64.7428 17.8613 65.4355 17.8176C66.1281 17.7593 66.7545 17.7302 67.3145 17.7302ZM65.546 26.7115C65.9439 26.7115 66.386 26.6241 66.8724 26.4492C67.3735 26.2598 67.8524 26.0049 68.3093 25.6844V23.9799H65.347C64.9491 23.9945 64.6618 24.0965 64.4849 24.2859C64.3228 24.4752 64.2417 24.7302 64.2417 25.0507V25.5751C64.2417 26.3327 64.6765 26.7115 65.546 26.7115Z" fill="black"/>
<path d="M81.0057 18.0143V20.1339H77.9551V25.3566C77.9551 25.75 78.0435 26.034 78.2203 26.2089C78.3972 26.3691 78.7067 26.4492 79.1488 26.4492H80.5636L80.9173 28.6345C80.6373 28.7364 80.3057 28.8166 79.9225 28.8748C79.5393 28.9331 79.1562 28.9768 78.773 29.0059C78.4045 29.0351 78.0877 29.0496 77.8224 29.0496C76.835 29.0496 76.0613 28.7947 75.5013 28.2848C74.956 27.7604 74.6833 27.0247 74.6833 26.0777V20.1339H72.7822V18.1235L74.6833 18.0361V15.0205H77.9551V18.0143H81.0057Z" fill="black"/>
<path d="M84.7451 13.2505C85.3936 13.2505 85.7178 13.571 85.7178 14.212V15.392C85.7178 16.033 85.3936 16.3535 84.7451 16.3535H83.3303C82.6819 16.3535 82.3577 16.033 82.3577 15.392V14.212C82.3577 13.571 82.6819 13.2505 83.3303 13.2505H84.7451ZM85.6515 18.0143V28.8093H82.424V18.0143H85.6515Z" fill="black"/>
<path d="M93.1757 17.7302C94.5463 17.7302 95.6443 17.9196 96.4696 18.2984C97.2949 18.6626 97.8844 19.2671 98.2381 20.1121C98.6065 20.9425 98.7907 22.0496 98.7907 23.4336C98.7907 24.8176 98.6065 25.9248 98.2381 26.7552C97.8844 27.571 97.2949 28.161 96.4696 28.5252C95.6443 28.8894 94.5463 29.0715 93.1757 29.0715C91.8052 29.0715 90.7072 28.8894 89.8819 28.5252C89.0566 28.161 88.4597 27.571 88.0913 26.7552C87.7376 25.9248 87.5608 24.8176 87.5608 23.4336C87.5608 22.0496 87.7376 20.9425 88.0913 20.1121C88.4597 19.2671 89.0566 18.6626 89.8819 18.2984C90.7072 17.9196 91.8052 17.7302 93.1757 17.7302ZM93.1757 20.0684C92.601 20.0684 92.1515 20.1631 91.8273 20.3525C91.5178 20.5418 91.2967 20.8842 91.1641 21.3795C91.0314 21.8603 90.9651 22.545 90.9651 23.4336C90.9651 24.3077 91.0314 24.9851 91.1641 25.4659C91.2967 25.9466 91.5178 26.2817 91.8273 26.4711C92.1515 26.6459 92.601 26.7333 93.1757 26.7333C93.7505 26.7333 94.1926 26.6459 94.5021 26.4711C94.8263 26.2817 95.0548 25.9466 95.1874 25.4659C95.3201 24.9851 95.3864 24.3077 95.3864 23.4336C95.3864 22.545 95.3201 21.8603 95.1874 21.3795C95.0548 20.8842 94.8263 20.5418 94.5021 20.3525C94.1926 20.1631 93.7505 20.0684 93.1757 20.0684Z" fill="black"/>
<path d="M103.209 18.0143L103.496 19.6532C105.058 18.3712 106.62 17.7302 108.182 17.7302C110.246 17.7302 111.277 18.7281 111.277 20.7239V28.8093H108.006V21.7292C108.006 21.2484 107.917 20.9206 107.74 20.7458C107.563 20.5564 107.261 20.4617 106.834 20.4617C106.392 20.4617 105.942 20.5418 105.485 20.7021C105.029 20.8478 104.483 21.0809 103.85 21.4014V28.8093H100.6V18.0143H103.209Z" fill="black"/>
<path d="M38.834 18.0143L39.1214 19.6532C40.6836 18.3712 42.2458 17.7302 43.8079 17.7302C45.8712 17.7302 46.9028 18.7281 46.9028 20.7239V28.8093H43.6311V21.7291C43.6311 21.2484 43.5427 20.9206 43.3658 20.7458C43.189 20.5564 42.8868 20.4617 42.4595 20.4617C42.0173 20.4617 41.5678 20.5418 41.111 20.7021C40.6541 20.8478 40.1088 21.0809 39.4751 21.4014V28.8093H36.2255V18.0143H38.834Z" fill="black"/>
</g>
<g style="mix-blend-mode:hard-light">
<path d="M114.851 25.6006C115.278 25.6006 115.573 25.688 115.735 25.8628C115.912 26.0231 116 26.3144 116 26.7369V27.7858C116 28.2229 115.912 28.5215 115.735 28.6817C115.573 28.842 115.278 28.9221 114.851 28.9221H114.011C113.583 28.9221 113.281 28.842 113.104 28.6817C112.942 28.5215 112.861 28.2229 112.861 27.7858V26.7369C112.861 26.3144 112.942 26.0231 113.104 25.8628C113.281 25.688 113.583 25.6006 114.011 25.6006H114.851Z" fill="black"/>
</g>
<g style="mix-blend-mode:hard-light">
<path d="M81.9358 31.2787L78.3325 41.3089C78.1556 41.8188 77.8019 42.0737 77.2714 42.0737H74.4418C73.8965 42.0737 73.5428 41.8188 73.3807 41.3089L69.7773 31.2787H73.2259L75.2376 38.031C75.326 38.3515 75.4071 38.6793 75.4808 39.0144C75.5545 39.3495 75.6281 39.67 75.7018 39.9759H75.9892C76.0629 39.6554 76.144 39.3349 76.2324 39.0144C76.3208 38.6793 76.4092 38.3515 76.4977 38.031L78.4872 31.2787H81.9358Z" fill="black"/>
<path d="M85.6149 31.2787L85.9023 32.9176C87.4645 31.6356 89.0267 30.9946 90.5888 30.9946C92.6521 30.9946 93.6837 31.9925 93.6837 33.9884V42.0737H90.412V34.9936C90.412 34.5128 90.3236 34.1851 90.1467 34.0102C89.9699 33.8209 89.6678 33.7262 89.2404 33.7262C88.7982 33.7262 88.3487 33.8063 87.8919 33.9665C87.435 34.1122 86.8897 34.3453 86.256 34.6658V42.0737H83.0064V31.2787H85.6149Z" fill="black"/>
</g>
</svg>
