<svg width="120" height="40" viewBox="0 0 120 40" fill="none" xmlns="http://www.w3.org/2000/svg">
<g clip-path="url(#clip0_2139_10387)">
<path d="M38.3339 19.5737C38.3339 8.80418 29.7526 0.0737305 19.1669 0.0737305C8.58133 0.0737305 0 8.80418 0 19.5737C0 30.3433 8.58133 39.0737 19.1669 39.0737C29.7526 39.0737 38.3339 30.3433 38.3339 19.5737Z" fill="#FFF100"/>
<path d="M19.8201 19.5737C19.8201 18.2774 18.7887 17.228 17.5146 17.228C16.2404 17.228 15.209 18.2774 15.209 19.5737C15.209 20.8699 16.2404 21.9193 17.5146 21.9193C18.7887 21.9193 19.8201 20.8699 19.8201 19.5737Z" fill="#010101"/>
<path d="M4.03906 19.5737C4.03906 19.5737 8.47976 26.0786 17.5143 26.0786C21.6892 26.0786 25.7138 24.556 28.8717 21.7842C30.0881 23.1363 31.1484 26.0786 31.1484 26.0786H34.2948C34.2948 26.0786 33.5089 22.6101 30.9866 19.5737C33.6216 16.4315 34.2948 13.0718 34.2948 13.0718H31.1484C31.1484 13.0718 30.3394 15.582 28.8717 17.3662C25.7138 14.5944 21.6892 13.0718 17.5143 13.0718C8.55199 13.0718 4.03906 19.5767 4.03906 19.5767M17.5143 16.1317C20.9062 16.1317 24.1912 17.3515 26.7828 19.5737C24.1912 21.7959 20.9091 23.0158 17.5143 23.0158C14.1195 23.0158 10.8345 21.7959 8.24574 19.5737C10.8373 17.3515 14.1195 16.1317 17.5143 16.1317Z" fill="#010101"/>
<path d="M53.9188 34.9381H43.668V4.16553H54.124C57.1259 4.16553 59.7088 4.77986 61.8699 6.00559C64.031 7.23426 65.6923 8.99497 66.8567 11.2877C68.0181 13.5804 68.5989 16.3258 68.5989 19.521C68.5989 22.7161 68.0152 25.4821 66.848 27.7866C65.6808 30.0911 64.0022 31.8577 61.8121 33.0922C59.6221 34.3238 56.9901 34.9411 53.9188 34.9411M49.1488 30.1146H53.653C55.7593 30.1146 57.5188 29.7207 58.9258 28.9359C60.3329 28.1481 61.3932 26.9724 62.1011 25.4057C62.8089 23.839 63.1643 21.8784 63.1643 19.5239C63.1643 17.1694 62.8089 15.2147 62.1011 13.6569C61.3932 12.099 60.3444 10.932 58.9634 10.156C57.5795 9.38003 55.8633 8.99203 53.8177 8.99203H49.1517V30.1205L49.1488 30.1146Z" fill="#010101"/>
<path d="M73.9239 34.9381H68.0762L78.7258 4.16553H85.4894L96.1534 34.9381H90.3057L82.2246 10.4764H81.9877L73.9239 34.9381Z" fill="#010101"/>
<path d="M114.316 12.6251C114.177 11.3141 113.599 10.2912 112.58 9.55928C111.56 8.82737 110.239 8.46288 108.616 8.46288C107.471 8.46288 106.492 8.63924 105.674 8.98903C104.857 9.33882 104.233 9.815 103.799 10.4176C103.366 11.0202 103.143 11.705 103.135 12.4752C103.135 13.116 103.279 13.6715 103.571 14.1418C103.863 14.6121 104.259 15.0119 104.761 15.3352C105.264 15.6615 105.819 15.9348 106.431 16.1553C107.041 16.3758 107.656 16.5609 108.278 16.7108L111.115 17.431C112.256 17.7014 113.357 18.0659 114.417 18.5274C115.475 18.9889 116.425 19.5709 117.269 20.2705C118.109 20.973 118.777 21.8195 119.271 22.8101C119.762 23.8007 120.011 24.9647 120.011 26.2962C120.011 28.101 119.557 29.6854 118.653 31.0522C117.745 32.419 116.44 33.486 114.732 34.2532C113.024 35.0204 110.959 35.4025 108.535 35.4025C106.111 35.4025 104.14 35.0322 102.412 34.2914C100.685 33.5507 99.3355 32.469 98.3647 31.0463C97.3939 29.6236 96.871 27.8923 96.793 25.8465H102.184C102.262 26.9194 102.589 27.81 103.158 28.5214C103.73 29.2327 104.475 29.7647 105.397 30.1145C106.319 30.4643 107.347 30.6407 108.491 30.6407C109.635 30.6407 110.728 30.4584 111.629 30.091C112.53 29.7265 113.235 29.2151 113.75 28.5596C114.261 27.9041 114.521 27.134 114.533 26.2521C114.524 25.4497 114.29 24.7883 113.839 24.2622C113.386 23.736 112.753 23.2951 111.941 22.9394C111.129 22.5838 110.182 22.2663 109.098 21.9841L105.657 21.0817C103.167 20.4292 101.199 19.4416 99.7573 18.1129C98.3156 16.7843 97.5933 15.0207 97.5933 12.8161C97.5933 11.0025 98.0787 9.41525 99.0494 8.05136C100.02 6.68748 101.341 5.62929 103.013 4.87387C104.686 4.11844 106.582 3.73926 108.699 3.73926C110.817 3.73926 112.73 4.11844 114.348 4.87387C115.966 5.62929 117.24 6.67572 118.164 8.01315C119.089 9.35058 119.569 10.8849 119.597 12.6192H114.325L114.316 12.6251Z" fill="#010101"/>
<path d="M85.9834 29.7855C85.9834 31.9606 84.2498 33.7213 82.1147 33.7213C79.9796 33.7213 78.2461 31.9577 78.2461 29.7855C78.2461 27.6133 79.9796 25.8496 82.1147 25.8496C84.2498 25.8496 85.9834 27.6133 85.9834 29.7855Z" fill="#FFF100"/>
</g>
<defs>
<clipPath id="clip0_2139_10387">
<rect width="120" height="39" fill="white" transform="translate(0 0.0737305)"/>
</clipPath>
</defs>
</svg>
