<svg width="286" height="80" viewBox="0 0 286 80" fill="none" xmlns="http://www.w3.org/2000/svg">
<g clip-path="url(#clip0_1961_10801)">
<path d="M113.751 40.25C113.751 25.8906 102.166 14.25 87.8754 14.25C73.5848 14.25 62 25.8906 62 40.25C62 54.6094 73.5848 66.25 87.8754 66.25C102.166 66.25 113.751 54.6094 113.751 40.25Z" fill="#FFF100"/>
<path d="M88.7566 40.2501C88.7566 38.5217 87.3641 37.1226 85.644 37.1226C83.9239 37.1226 82.5315 38.5217 82.5315 40.2501C82.5315 41.9785 83.9239 43.3776 85.644 43.3776C87.3641 43.3776 88.7566 41.9785 88.7566 40.2501Z" fill="#010101"/>
<path d="M67.4527 40.2498C67.4527 40.2498 73.4476 48.923 85.6442 48.923C91.2803 48.923 96.7136 46.8929 100.977 43.1971C102.619 44.9999 104.05 48.923 104.05 48.923H108.298C108.298 48.923 107.237 44.2984 103.832 40.2498C107.389 36.0602 108.298 31.5806 108.298 31.5806H104.05C104.05 31.5806 102.958 34.9276 100.977 37.3065C96.7136 33.6107 91.2803 31.5806 85.6442 31.5806C73.5451 31.5806 67.4527 40.2538 67.4527 40.2538M85.6442 35.6605C90.2233 35.6605 94.6581 37.2869 98.1568 40.2498C94.6581 43.2128 90.2272 44.8392 85.6442 44.8392C81.0612 44.8392 76.6265 43.2128 73.1317 40.2498C76.6304 37.2869 81.0612 35.6605 85.6442 35.6605Z" fill="#010101"/>
<path d="M134.79 60.7362H120.951V19.7061H135.067C139.119 19.7061 142.606 20.5252 145.524 22.1595C148.441 23.7977 150.684 26.1453 152.256 29.2023C153.824 32.2593 154.608 35.9198 154.608 40.18C154.608 44.4402 153.82 48.1281 152.244 51.2008C150.668 54.2734 148.402 56.6289 145.446 58.2749C142.489 59.9171 138.936 60.7401 134.79 60.7401M128.35 54.3048H134.431C137.274 54.3048 139.65 53.7796 141.549 52.7332C143.449 51.6828 144.88 50.1152 145.836 48.0262C146.791 45.9373 147.271 43.3232 147.271 40.1839C147.271 37.0446 146.791 34.4383 145.836 32.3612C144.88 30.284 143.464 28.7281 141.6 27.6934C139.731 26.6587 137.415 26.1414 134.653 26.1414H128.354V54.3126L128.35 54.3048Z" fill="#010101"/>
<path d="M161.796 60.7362H153.902L168.279 19.7061H177.41L191.806 60.7362H183.912L173.002 28.1206H172.682L161.796 60.7362Z" fill="#010101"/>
<path d="M216.324 30.9855C216.137 29.2375 215.357 27.8736 213.98 26.8977C212.603 25.9218 210.821 25.4359 208.629 25.4359C207.084 25.4359 205.762 25.671 204.658 26.1374C203.554 26.6038 202.712 27.2387 202.127 28.0421C201.541 28.8456 201.241 29.7587 201.229 30.7856C201.229 31.64 201.424 32.3807 201.818 33.0078C202.212 33.6348 202.747 34.1678 203.425 34.599C204.104 35.034 204.853 35.3985 205.68 35.6924C206.503 35.9864 207.334 36.2333 208.172 36.4331L212.002 37.3934C213.543 37.7539 215.029 38.2399 216.461 38.8552C217.888 39.4705 219.171 40.2465 220.31 41.1793C221.445 42.116 222.346 43.2447 223.013 44.5655C223.676 45.8863 224.012 47.4383 224.012 49.2137C224.012 51.6201 223.399 53.7325 222.179 55.5549C220.954 57.3774 219.191 58.8 216.886 59.823C214.581 60.8459 211.792 61.3554 208.519 61.3554C205.247 61.3554 202.587 60.8616 200.254 59.8739C197.922 58.8863 196.1 57.444 194.79 55.5471C193.479 53.6502 192.773 51.3418 192.668 48.614H199.946C200.052 50.0445 200.492 51.2321 201.261 52.1805C202.033 53.129 203.039 53.8383 204.283 54.3047C205.528 54.7711 206.916 55.0063 208.461 55.0063C210.005 55.0063 211.48 54.7633 212.697 54.2734C213.914 53.7874 214.865 53.1054 215.56 52.2315C216.25 51.3575 216.601 50.3306 216.617 49.1549C216.605 48.0849 216.289 47.2031 215.681 46.5016C215.068 45.8 214.214 45.2122 213.118 44.7379C212.022 44.2637 210.743 43.8404 209.28 43.4642L204.635 42.261C201.272 41.3909 198.616 40.0741 196.67 38.3026C194.724 36.5311 193.748 34.1796 193.748 31.2402C193.748 28.822 194.404 26.7057 195.714 24.8872C197.025 23.0687 198.807 21.6577 201.066 20.6505C203.324 19.6433 205.883 19.1377 208.742 19.1377C211.601 19.1377 214.183 19.6433 216.367 20.6505C218.551 21.6577 220.271 23.053 221.519 24.8362C222.768 26.6195 223.415 28.6653 223.454 30.9776H216.336L216.324 30.9855Z" fill="#010101"/>
<path d="M178.077 53.866C178.077 56.7662 175.736 59.1138 172.854 59.1138C169.972 59.1138 167.631 56.7623 167.631 53.866C167.631 50.9697 169.972 48.6182 172.854 48.6182C175.736 48.6182 178.077 50.9697 178.077 53.866Z" fill="#FFF100"/>
</g>
<defs>
<clipPath id="clip0_1961_10801">
<rect width="162" height="52" fill="white" transform="translate(62 14.25)"/>
</clipPath>
</defs>
</svg>
