<svg width="46" height="70" viewBox="0 0 46 70" fill="none" xmlns="http://www.w3.org/2000/svg">
<g clip-path="url(#clip0_2139_10408)">
<path d="M17.9316 21.1007C17.9316 23.8653 20.2165 26.1394 22.9942 26.1394C25.7719 26.1394 28.0568 23.8653 28.0568 21.1007C28.0568 18.3361 25.7719 16.062 22.9942 16.062C20.2165 16.062 17.9316 18.3361 17.9316 21.1007Z" fill="#241775"/>
<path d="M6.59781 11.6918C11.1676 3.84398 20.7103 0.365952 29.1778 3.3089L28.5506 5.00334C25.4145 3.93316 21.9648 3.7548 18.5598 4.64661C10.4508 6.83154 5.16417 14.4118 5.97061 22.7056L8.16586 22.4827C7.44907 15.2591 12.0636 8.6597 19.1423 6.74235C26.2209 4.86957 33.5236 8.30302 36.5701 14.9023L38.5414 14.0105C36.8389 10.3541 33.9716 7.50037 30.5667 5.85055L32.0003 2.10497L31.0147 1.65907C21.2927 -2.35405 9.95792 1.48071 4.71616 10.5771C-0.57044 19.6735 1.75925 31.3561 10.0923 37.7325L11.4364 35.9935C3.95452 30.2859 1.89365 19.8073 6.59781 11.6918Z" fill="#241775"/>
<path d="M37.0617 8.52647C42.5275 14.5908 43.4681 23.4196 39.3465 30.5094C34.6424 38.6694 24.5172 42.1029 15.7809 38.4911L14.9297 40.4976C17.5282 41.5678 20.2611 42.1029 22.9492 42.1029C30.2966 42.1029 37.4201 38.2681 41.273 31.6242C45.8428 23.7317 44.8123 13.8773 38.7193 7.09961L37.0617 8.52647Z" fill="#241775"/>
<path d="M7.44777 28.1455C10.2703 34.3435 16.4081 38.1337 22.9491 38.1337C24.4276 38.1337 25.906 37.9553 27.4293 37.554C35.4936 35.3691 40.7802 27.7888 39.9737 19.495L37.7784 19.718C38.4953 26.9416 33.8807 33.5855 26.8021 35.4583C20.1266 37.2419 13.1824 34.2544 9.86707 28.2793L11.5247 27.5658C12.6448 29.5278 14.3024 31.2222 16.3633 32.3816C18.4242 33.5855 20.7091 34.1652 22.9491 34.1652C26.4884 34.1652 29.983 32.7383 32.5367 29.9737L33.2983 29.1265L30.207 26.4957C30.7446 25.7822 31.1926 24.935 31.5062 24.0432C32.7607 20.4314 31.5958 16.3737 28.5493 14.0104L27.2053 15.7048C29.4902 17.533 30.3862 20.5651 29.4453 23.3298C28.5045 26.0943 25.8612 27.9225 22.9491 27.9672V30.152C25.0996 30.152 27.1157 29.394 28.6837 28.0563L30.0726 29.2602C26.5781 32.337 21.5155 32.872 17.4385 30.5088C17.3041 30.4196 17.1249 30.3304 16.9905 30.2412L19.4546 27.1645L18.6034 26.4957C16.3185 24.6675 15.4224 21.6353 16.3633 18.8708C17.3041 16.1061 19.9474 14.278 22.8595 14.2334V12.0484C20.7091 12.0484 18.6482 12.8511 17.0801 14.1442L15.7809 12.9403C19.2754 9.86354 24.338 9.32843 28.4597 11.6917C32.8951 14.2334 34.9559 19.4504 33.4327 24.3107L35.5384 24.935C37.3752 19.0937 34.9112 12.8511 29.5798 9.77435C24.2484 6.69763 17.5729 7.72319 13.3616 12.2268L12.5999 13.0294L15.6464 15.7048C15.1088 16.4183 14.6608 17.2209 14.392 18.1127C13.272 21.3678 14.1232 24.9796 16.5425 27.432L15.3777 28.8589C12.4656 26.0498 11.3007 21.8583 12.5552 17.8451L10.4495 17.2209C9.55343 20.0301 9.68784 22.973 10.6287 25.5593L6.91016 27.1199L7.44777 28.1455Z" fill="#241775"/>
<path d="M0 48.4209V50.2577H2.62801V58.1626H4.55708V50.2577H7.19908V48.4209H0Z" fill="#241775"/>
<path d="M11.6029 54.1407H15.3073V52.3315H11.6029V50.2577H15.6567V48.4209H9.67383V58.1626H15.7267V56.3254H11.6029V54.1407Z" fill="#241775"/>
<path d="M20.4134 48.4209H18.4844V58.1626H24.1458V56.3254H20.4134V48.4209Z" fill="#241775"/>
<path d="M34.8722 56.8959C35.8647 55.9079 36.354 54.7107 36.354 53.2914C36.354 51.872 35.8647 50.6749 34.8722 49.7008C33.8797 48.7128 32.6776 48.2256 31.2657 48.2256C29.8539 48.2256 28.6516 48.7128 27.6592 49.7008C26.6807 50.6749 26.1914 51.872 26.1914 53.2914C26.1914 54.7107 26.6807 55.9079 27.6592 56.8959C28.6516 57.8699 29.8539 58.3572 31.2657 58.3572C32.6776 58.3572 33.8797 57.8699 34.8722 56.8959ZM29.0151 55.5878C28.414 54.9893 28.1065 54.2239 28.1065 53.2914C28.1065 52.3588 28.414 51.5935 29.0151 50.9953C29.6162 50.3968 30.3711 50.0907 31.2657 50.0907C32.1603 50.0907 32.9152 50.3968 33.5163 50.9953C34.1174 51.5935 34.4249 52.3588 34.4249 53.2914C34.4249 54.2239 34.1174 54.9893 33.5163 55.5878C32.9152 56.186 32.1603 56.4785 31.2657 56.4785C30.3711 56.4785 29.6162 56.186 29.0151 55.5878Z" fill="#241775"/>
<path d="M42.4498 58.3572C43.4981 58.3572 44.3506 58.0926 45.0077 57.5639C45.6647 57.0351 46.0002 56.3253 46.0002 55.4206C46.0002 54.864 45.8466 54.3767 45.6369 54.0427C45.455 53.7088 45.0077 53.3612 44.7144 53.18C44.5742 53.0827 44.3649 52.9853 44.0991 52.888C43.8336 52.7766 43.6239 52.6928 43.4702 52.6513L42.7992 52.4287C42.0722 52.206 41.5829 51.9973 41.3174 51.8161C41.0658 51.6214 40.9399 51.3708 40.9399 51.0647C40.9399 50.4941 41.4292 50.0907 42.2261 50.0907C43.0786 50.0907 43.7078 50.5081 44.0991 51.3433L45.7209 50.4107C45.0499 49.0328 43.8057 48.2256 42.2261 48.2256C41.3453 48.2256 40.5765 48.4902 39.9474 49.0189C39.3184 49.534 39.0109 50.2435 39.0109 51.1206C39.0109 52.0113 39.3324 52.6793 39.9335 53.1246C40.5485 53.5559 41.0797 53.7646 41.9604 54.0292C42.757 54.2519 43.3023 54.4606 43.6099 54.6553C43.9176 54.836 44.0712 55.1006 44.0712 55.4486C44.0712 56.0471 43.5821 56.4785 42.5055 56.4785C41.3872 56.4785 40.6324 55.9773 40.255 54.9893L38.6055 55.9494C39.1506 57.4386 40.5066 58.3572 42.4498 58.3572Z" fill="#241775"/>
<path d="M3.6098 69.003L2.04377 64.8965H1.62462L0.0585938 69.003H0.489395L0.867802 67.9939H2.80059L3.17899 69.003H3.6098ZM1.83419 65.407L2.65505 67.6065H1.01334L1.83419 65.407Z" fill="#241775"/>
<path d="M9.06229 69.0738C9.81332 69.0738 10.4945 68.675 10.8263 68.0591L10.4653 67.8538C10.2092 68.352 9.66776 68.675 9.06229 68.675C8.55583 68.675 8.13668 68.5108 7.81649 68.1763C7.49631 67.8419 7.33328 67.4372 7.33328 66.95C7.33328 66.4632 7.49631 66.0585 7.81649 65.7241C8.13668 65.3897 8.55583 65.2254 9.06229 65.2254C9.66776 65.2254 10.2092 65.548 10.4653 66.0466L10.8263 65.8354C10.4828 65.2195 9.81332 64.8267 9.06229 64.8267C8.44522 64.8267 7.93293 65.032 7.53121 65.4426C7.12953 65.8532 6.92578 66.3578 6.92578 66.95C6.92578 67.5426 7.12953 68.0472 7.53121 68.4578C7.93293 68.8685 8.44522 69.0738 9.06229 69.0738Z" fill="#241775"/>
<path d="M17.7563 69.003L16.1903 64.8965H15.7711L14.2051 69.003H14.6359L15.0143 67.9939H16.9471L17.3255 69.003H17.7563ZM15.9807 65.407L16.8015 67.6065H15.1598L15.9807 65.407Z" fill="#241775"/>
<path d="M21.4512 64.8965V69.003H23.023C23.5761 69.003 24.036 68.8037 24.3969 68.4104C24.7637 68.0116 24.9442 67.5244 24.9442 66.9496C24.9442 66.3747 24.7637 65.8879 24.3969 65.495C24.036 65.0959 23.5761 64.8965 23.023 64.8965H21.4512ZM21.8587 68.6157V65.2838H23.023C23.4713 65.2838 23.8322 65.4421 24.1175 65.7647C24.4028 66.0873 24.5483 66.4805 24.5483 66.9496C24.5483 67.419 24.4028 67.8123 24.1175 68.1348C23.8322 68.4574 23.4713 68.6157 23.023 68.6157H21.8587Z" fill="#241775"/>
<path d="M29.222 67.1257H31.0267V66.7383H29.222V65.2838H31.1722V64.8965H28.8145V69.003H31.2013V68.6157H29.222V67.1257Z" fill="#241775"/>
<path d="M38.2936 64.8965L36.9371 67.1845L35.5807 64.8965H35.0742V69.003H35.4817V65.5183L36.9081 67.9236H36.9663L38.3925 65.5183V69.003H38.8001V64.8965H38.2936Z" fill="#241775"/>
<path d="M45.382 64.8965L44.1708 66.9085L42.9541 64.8965H42.4941L43.9615 67.3077V69.003H44.3687V67.3191L45.8416 64.8965H45.382Z" fill="#241775"/>
</g>
<defs>
<clipPath id="clip0_2139_10408">
<rect width="46" height="69" fill="white" transform="translate(0 0.0737305)"/>
</clipPath>
</defs>
</svg>
