<svg width="76" height="63" viewBox="0 0 76 63" fill="none" xmlns="http://www.w3.org/2000/svg">
<g clip-path="url(#clip0_2173_12904)">
<path d="M37.3457 0.238336C37.8081 0.198352 38.2704 0.161721 38.7336 0.125977C38.1481 0.838597 37.5593 1.54786 36.9738 2.25966C37.7327 3.23869 38.4957 4.21684 39.2545 5.19669C38.8098 5.23414 38.3642 5.26995 37.9194 5.30405C37.3876 4.54734 36.854 3.79056 36.3213 3.03384C36.0642 3.33853 35.8088 3.64492 35.5533 3.95043C35.5935 4.46243 35.637 4.97438 35.6781 5.48638C35.3338 5.51384 34.9904 5.54218 34.6479 5.56882C34.508 3.87552 34.3698 2.18223 34.2324 0.48893C34.5758 0.46065 34.9192 0.432307 35.2635 0.405672C35.3246 1.15739 35.3849 1.90835 35.4486 2.65925C36.0826 1.85337 36.7134 1.04585 37.3457 0.238336Z" fill="#273E74"/>
<path d="M40.2226 0.288086C40.5652 0.316366 40.9094 0.344709 41.2528 0.373811C41.1975 1.0398 41.1423 1.70498 41.0845 2.37015C41.7579 2.42677 42.4321 2.48339 43.1055 2.53748C43.1625 1.87231 43.2169 1.20714 43.2731 0.54197C43.6156 0.568604 43.959 0.596884 44.3024 0.625227C44.1625 2.31688 44.021 4.00847 43.8795 5.70094C43.5361 5.67266 43.1927 5.64514 42.8501 5.61604C42.9104 4.87678 42.9732 4.1367 43.0335 3.39663C42.3601 3.34171 41.6876 3.28509 41.0141 3.23093C40.9513 3.97019 40.891 4.70944 40.8282 5.4487C40.484 5.42124 40.1414 5.3929 39.7988 5.36462C39.9396 3.67221 40.0802 1.98056 40.2226 0.288086Z" fill="#273E74"/>
<path d="M47.2259 1.43465C48.3306 1.22651 49.6465 1.70188 50.1498 2.75164C50.5025 3.47261 50.3902 4.32341 50.1188 5.05184C49.8935 5.67121 49.4546 6.23895 48.8348 6.50536C48.1204 6.83004 47.2811 6.70269 46.5901 6.37883C45.9988 6.10496 45.5331 5.57049 45.3731 4.93942C45.1863 4.21263 45.3656 3.44592 45.6637 2.7741C45.9502 2.1281 46.5315 1.60698 47.2259 1.43465ZM47.5525 2.33624C46.9511 2.49694 46.622 3.09214 46.4729 3.64995C46.3179 4.17195 46.2836 4.79132 46.6336 5.24581C47.111 5.90934 48.2183 5.98089 48.7427 5.33489C49.1732 4.78796 49.3809 4.052 49.2938 3.36354C49.1749 2.58848 48.2787 2.13645 47.5525 2.33624Z" fill="#273E74"/>
<path d="M27.8002 1.83431C28.4485 1.48717 29.2694 1.35393 29.9512 1.68532C30.3088 1.8493 30.5676 2.15734 30.7779 2.47784C30.4747 2.64765 30.1706 2.81416 29.8683 2.98485C29.6421 2.60608 29.2099 2.3355 28.7568 2.4204C28.1629 2.47702 27.6713 3.01395 27.6922 3.61086C27.7081 4.25186 27.8941 4.90704 28.2643 5.43651C28.6571 5.99514 29.5592 6.0417 30.0182 5.54222C30.2862 5.26417 30.3231 4.86206 30.3247 4.49664C30.674 4.50828 31.0241 4.5191 31.3742 4.53245C31.365 5.05192 31.2586 5.60055 30.9068 6.00431C30.4797 6.49962 29.8163 6.74275 29.1738 6.78184C28.3689 6.82512 27.5816 6.36727 27.1787 5.68128C26.8303 5.08355 26.6469 4.38592 26.6653 3.69494C26.6829 2.93405 27.121 2.19315 27.8002 1.83431Z" fill="#273E74"/>
<path d="M49.8047 7.27771C51.123 6.01063 52.4422 4.74444 53.7622 3.479C54.0931 3.63052 54.4248 3.78205 54.7556 3.93439C54.6635 5.76174 54.5688 7.58904 54.4758 9.41639C54.1349 9.26069 53.7941 9.10588 53.454 8.94854C53.4799 8.53643 53.5067 8.12439 53.5335 7.71145C52.9129 7.42676 52.2923 7.14036 51.6699 6.85984C51.381 7.15206 51.0912 7.4434 50.8005 7.73398C50.4681 7.58239 50.1355 7.43087 49.8047 7.27771ZM52.3241 6.21042C52.7463 6.40604 53.1692 6.59919 53.5931 6.79151C53.6442 6.12217 53.6978 5.45288 53.7472 4.78354C53.2723 5.25891 52.7974 5.73422 52.3241 6.21042Z" fill="#273E74"/>
<path d="M22.8444 3.6684C23.4751 3.48361 24.1853 3.58768 24.7272 3.96145C25.2825 4.34357 25.6503 4.93877 25.889 5.55649C26.1176 6.14923 26.1494 6.83521 25.8739 7.41877C25.5531 8.12886 24.8462 8.59007 24.1166 8.80903C23.4641 9.00635 22.7238 8.88975 22.1743 8.48517C21.6114 8.07477 21.2555 7.44458 21.0268 6.80105C20.7722 6.09007 20.861 5.24763 21.3233 4.63908C21.7053 4.16124 22.2614 3.84074 22.8444 3.6684ZM22.9222 4.57164C22.4984 4.70817 22.1114 5.02038 21.9799 5.45407C21.8182 5.9519 22.0017 6.47884 22.2362 6.92176C22.4666 7.3588 22.8183 7.78337 23.3192 7.91161C24.0714 8.12722 24.9483 7.56194 25.0186 6.77695C25.0689 6.14341 24.7615 5.5365 24.3846 5.0462C24.053 4.61163 23.4508 4.38185 22.9222 4.57164Z" fill="#273E74"/>
<path d="M17.8291 6.51011C18.1081 6.30867 18.3878 6.10799 18.6684 5.9082C19.6676 7.28599 20.6685 8.66208 21.6669 10.0407C21.388 10.243 21.1082 10.4428 20.8285 10.6426C20.3904 10.0407 19.9548 9.43879 19.516 8.83777C18.9674 9.22988 18.4196 9.62283 17.8718 10.0166C18.309 10.6185 18.7462 11.2204 19.1834 11.8214C18.9045 12.0237 18.6248 12.2244 18.3442 12.425C17.3441 11.048 16.3449 9.6711 15.3457 8.29413C15.6238 8.09269 15.9035 7.89201 16.1833 7.69222C16.5778 8.23251 16.9698 8.77615 17.3651 9.31725C17.9137 8.92431 18.4615 8.53055 19.0093 8.13679C18.6164 7.59403 18.2211 7.05375 17.8291 6.51011Z" fill="#273E74"/>
<path d="M59.6141 6.60547C59.8855 6.81526 60.1543 7.0284 60.4249 7.23901C60.0137 7.76847 59.5907 8.28877 59.1761 8.81406C59.7054 9.23117 60.234 9.64904 60.7649 10.0636C61.1846 9.5425 61.5983 9.01632 62.018 8.49438C62.2877 8.70581 62.5582 8.91895 62.8279 9.13209C61.7684 10.4633 60.708 11.7936 59.6485 13.1256C59.3771 12.9133 59.1057 12.701 58.836 12.4871C59.3001 11.906 59.7632 11.3232 60.2264 10.7413C59.6971 10.3242 59.1686 9.90634 58.6376 9.49176C58.1719 10.0712 57.7112 10.6548 57.2463 11.235C56.975 11.0236 56.7044 10.8113 56.4355 10.599C57.4943 9.26698 58.5546 7.93663 59.6141 6.60547Z" fill="#273E74"/>
<path d="M24.3711 9.11695C24.6609 8.96708 24.9515 8.81809 25.243 8.66992C25.3938 8.95879 25.5437 9.24684 25.6911 9.53735C25.4013 9.68723 25.1107 9.83539 24.82 9.98356C24.6693 9.69476 24.5202 9.40582 24.3711 9.11695Z" fill="#273E74"/>
<path d="M11.7012 11.6709C11.9366 11.4212 12.1727 11.1715 12.4106 10.9233C13.6527 12.088 14.8948 13.2526 16.1361 14.4182C15.8999 14.6679 15.6637 14.9168 15.4266 15.1658C14.1846 14.0011 12.9424 12.8364 11.7012 11.6709Z" fill="#273E74"/>
<path d="M63.6349 11.0817C64.2086 10.9668 64.8301 11.0725 65.3092 11.4164C65.9524 11.8684 66.491 12.5569 66.558 13.3602C66.625 14.0212 66.3469 14.6722 65.9139 15.1626C65.4591 15.6796 64.8787 16.1316 64.1893 16.274C63.5519 16.4113 62.8693 16.2332 62.3609 15.8336C61.7687 15.3732 61.2854 14.6998 61.2435 13.933C61.1958 13.287 61.4772 12.6576 61.9036 12.1814C62.3651 11.6728 62.9413 11.2132 63.6349 11.0817ZM63.882 12.0707C63.449 12.1898 63.0896 12.4819 62.7839 12.7983C62.4891 13.1064 62.247 13.5001 62.2437 13.9372C62.2169 14.6572 62.8685 15.3299 63.5973 15.3166C64.1116 15.3158 64.5579 15.0061 64.9164 14.6672C65.2347 14.3609 65.5329 13.9838 65.5815 13.5317C65.6853 12.6543 64.7505 11.8176 63.882 12.0707Z" fill="#273E74"/>
<path d="M40.946 16.0672C42.3807 14.8859 43.8197 13.7113 45.2662 12.5449C43.5232 21.8955 41.7768 31.2453 40.0322 40.595C37.2724 40.0447 34.5444 39.2488 32.0165 38.0035C29.9528 36.9845 28.0254 35.6417 26.5028 33.9109C25.9776 33.319 25.5697 32.5639 25.6057 31.7539C25.6241 31.0371 26.0044 30.4011 26.388 29.8176C27.1435 28.7062 28.0531 27.7089 28.9778 26.7356C32.7008 22.8954 36.8284 19.4746 40.946 16.0672ZM34.1063 24.3356C33.8759 24.8458 33.953 25.4253 34.0485 25.9581C33.5367 26.142 32.9931 26.366 32.6631 26.8197C32.452 27.0952 32.4571 27.4998 32.6706 27.7729C33.0023 28.2191 33.5392 28.4414 34.0484 28.622C33.9538 29.154 33.875 29.7334 34.1046 30.2429C34.2394 30.5667 34.5979 30.7674 34.948 30.7166C35.5 30.6499 35.959 30.3012 36.3711 29.9557C36.784 30.3036 37.2472 30.6541 37.8033 30.7174C38.1459 30.7632 38.4969 30.5675 38.6334 30.2512C38.8662 29.7401 38.7892 29.1573 38.6928 28.6228C39.2021 28.4405 39.7415 28.2182 40.0732 27.7703C40.2834 27.4981 40.2884 27.0985 40.0816 26.8237C39.7524 26.3675 39.2063 26.1427 38.6929 25.9588C38.7875 25.4285 38.8654 24.8515 38.6393 24.3437C38.5145 24.049 38.2063 23.8417 37.8821 23.8609C37.2941 23.8875 36.8024 24.2638 36.3711 24.6259C35.9415 24.2663 35.4548 23.8933 34.871 23.8609C34.546 23.8377 34.2336 24.0409 34.1063 24.3356Z" fill="#273E74"/>
<path d="M9.7032 13.9048C11.4688 14.4218 13.2319 14.9471 14.9967 15.4657C14.7647 15.7588 14.5319 16.0501 14.299 16.3423C13.902 16.22 13.5059 16.0967 13.1097 15.9744C12.685 16.5063 12.2604 17.0375 11.8366 17.5702C12.0535 17.9199 12.2713 18.2687 12.4874 18.6184C12.2604 18.9039 12.0318 19.1878 11.8073 19.475C10.8801 17.9024 9.95284 16.3298 9.02734 14.7564C9.25178 14.4717 9.47876 14.1895 9.7032 13.9048ZM10.2979 15.0794C10.6489 15.6513 11.0065 16.2191 11.3566 16.7919C11.6456 16.4281 11.9354 16.0643 12.2252 15.7013C11.5828 15.4932 10.9403 15.2842 10.2979 15.0794Z" fill="#273E74"/>
<path d="M60.6543 15.9943C60.893 15.7712 61.1309 15.5481 61.3713 15.3267C61.5949 15.5631 61.8194 15.7987 62.0422 16.0367C61.8043 16.2607 61.5656 16.4838 61.3268 16.7061C61.1015 16.4697 60.8779 16.2324 60.6543 15.9943Z" fill="#273E74"/>
<path d="M66.6888 16.1687C67.2525 15.8807 67.9225 15.7475 68.5423 15.9306C69.4134 16.1737 70.05 16.9829 70.2242 17.8462C70.3498 18.4456 70.1078 19.0541 69.7015 19.4945C69.4502 19.2531 69.1998 19.0108 68.9519 18.7669C69.0683 18.6096 69.1974 18.4514 69.2443 18.2574C69.421 17.6014 68.8766 16.878 68.2023 16.828C67.719 16.7905 67.2726 17.0303 66.8789 17.28C66.5196 17.5181 66.1519 17.7979 65.981 18.2058C65.7373 18.7785 66.0732 19.5211 66.6746 19.7035C66.987 19.8025 67.3179 19.7235 67.6236 19.636C67.7115 19.9723 67.8003 20.3087 67.8891 20.645C67.2902 20.8298 66.595 20.8398 66.0606 20.476C65.2657 19.9299 64.7757 18.8868 65.0488 17.9369C65.2599 17.1186 65.9559 16.5334 66.6888 16.1687Z" fill="#273E74"/>
<path d="M14.0235 17.3638C14.2798 17.5652 14.5352 17.7667 14.7916 17.9699C14.5897 18.2254 14.3862 18.4801 14.1827 18.7349C13.9263 18.5343 13.6709 18.3303 13.4121 18.1314C13.6148 17.8741 13.8183 17.6185 14.0235 17.3638Z" fill="#273E74"/>
<path d="M6.87024 18.3277C7.43559 17.9922 8.15174 18.0172 8.75229 18.2461C9.32019 18.4659 9.86543 18.7755 10.2859 19.2193C10.6536 19.6081 10.9191 20.1317 10.868 20.677C10.8446 21.0857 10.6728 21.4662 10.4735 21.8166C10.1468 22.3852 9.81934 22.9513 9.49268 23.5191C8.84439 23.1536 8.19865 22.7832 7.55118 22.4161C7.46322 22.5684 7.37442 22.72 7.28652 22.8723C7.09888 22.7666 6.91129 22.66 6.72365 22.5543C6.8099 22.4003 6.89786 22.247 6.985 22.0939C6.34008 21.7251 5.69262 21.358 5.04688 20.99C5.36851 20.4289 5.69097 19.8686 6.01514 19.3091C6.23538 18.9354 6.48247 18.55 6.87024 18.3277ZM7.06622 19.3525C6.75045 19.698 6.55281 20.1309 6.31157 20.528C6.70691 20.7544 7.1039 20.9784 7.49924 21.2048C7.68186 20.8901 7.86193 20.5738 8.04537 20.2591C8.23302 20.3648 8.4206 20.4714 8.60742 20.5796C8.42735 20.8951 8.2439 21.2098 8.06383 21.5262C8.46 21.7526 8.85789 21.9782 9.25488 22.2038C9.48186 21.7826 9.77332 21.3888 9.91826 20.9301C10.0221 20.6063 9.88058 20.2591 9.64354 20.0327C9.26494 19.663 8.79258 19.4008 8.30679 19.1969C7.90636 19.0311 7.38703 19.022 7.06622 19.3525Z" fill="#273E74"/>
<path d="M71.7647 22.1373C72.0336 22.0324 72.3033 21.9292 72.5738 21.8276C73.0613 23.0864 73.5488 24.3459 74.0346 25.6063C73.7649 25.7104 73.4952 25.8128 73.2263 25.916C73.0437 25.4465 72.862 24.9778 72.6819 24.5083C71.3552 25.0111 70.0318 25.5214 68.7059 26.025C68.5811 25.7062 68.4572 25.3865 68.334 25.0668C69.6582 24.5598 70.9832 24.0537 72.3083 23.5483C72.1299 23.0772 71.9456 22.6077 71.7647 22.1373Z" fill="#273E74"/>
<path d="M34.4274 24.6473C34.5447 24.4292 34.7867 24.2877 35.0363 24.2952C35.471 24.3027 35.8463 24.5558 36.1838 24.803C35.915 25.0777 35.6654 25.37 35.4342 25.6764C35.0506 25.723 34.6703 25.7904 34.2959 25.8853C34.2549 25.4731 34.2163 25.0236 34.4274 24.6473Z" fill="#273E74"/>
<path d="M36.5605 24.8029C36.8997 24.554 37.2775 24.2984 37.7164 24.295C37.966 24.29 38.2064 24.4366 38.322 24.6564C38.5255 25.0318 38.4895 25.4763 38.446 25.886C38.0724 25.7903 37.6921 25.7228 37.3093 25.6762C37.0782 25.369 36.8286 25.0776 36.5605 24.8029Z" fill="#273E74"/>
<path d="M35.7266 25.6503C35.9284 25.4097 36.1412 25.1783 36.3715 24.9644C36.601 25.1783 36.8137 25.4097 37.0164 25.6503C36.5867 25.6245 36.1554 25.6254 35.7266 25.6503Z" fill="#273E74"/>
<path d="M3.54488 25.5893C3.8858 25.3413 4.31462 25.2572 4.7309 25.268C4.70156 25.6118 4.66973 25.9556 4.63708 26.2995C4.28362 26.3228 3.92679 26.4735 3.72998 26.7781C3.42846 27.2443 3.36227 27.897 3.6797 28.3732C3.90165 28.7145 4.28191 28.9143 4.66133 29.0358C5.07761 29.164 5.5282 29.2464 5.95957 29.1432C6.37833 29.0417 6.73351 28.7244 6.88175 28.3215C7.07188 27.8611 7.00989 27.3433 6.85413 26.8821C6.64223 26.823 6.43116 26.7638 6.2201 26.7048C6.11208 27.0827 6.00565 27.4607 5.89764 27.8378C5.62037 27.7612 5.34317 27.6838 5.0659 27.6055C5.26774 26.8937 5.46875 26.1819 5.67231 25.4702C6.32983 25.6534 6.98563 25.8407 7.64315 26.0213C8.07115 26.972 8.02424 28.125 7.51751 29.0374C7.18665 29.641 6.57775 30.0988 5.8851 30.1912C4.87246 30.3394 3.75595 29.9997 3.08175 29.2139C2.62696 28.6778 2.46281 27.9294 2.61691 27.2492C2.75 26.6258 3.00213 25.9706 3.54488 25.5893Z" fill="#273E74"/>
<path d="M35.5561 25.8793C36.0988 25.8285 36.6449 25.8285 37.1876 25.8801C37.5101 26.3189 37.7806 26.7942 38.0101 27.2887C37.7832 27.7857 37.5118 28.2636 37.1852 28.7032C36.6508 28.7448 36.1097 28.7681 35.5778 28.6965C35.2143 28.2886 34.9706 27.7783 34.7344 27.2871C34.963 26.7934 35.2327 26.318 35.5561 25.8793ZM36.0686 26.7059C35.6147 26.9124 35.5921 27.6209 36.031 27.8556C36.4271 28.1162 37.016 27.8106 37.0319 27.3411C37.0922 26.8508 36.5008 26.457 36.0686 26.7059Z" fill="#273E74"/>
<path d="M34.3457 26.1271C34.6464 26.0364 34.9538 25.9681 35.2645 25.9165C35.0275 26.272 34.813 26.6416 34.6213 27.0229C34.5107 26.7298 34.416 26.4318 34.3457 26.1271Z" fill="#273E74"/>
<path d="M37.4785 25.9165C37.7884 25.9681 38.0958 26.0364 38.3973 26.1271C38.327 26.4318 38.2323 26.7307 38.1218 27.0237C37.93 26.6416 37.7156 26.272 37.4785 25.9165Z" fill="#273E74"/>
<path d="M33.105 26.9213C33.3337 26.5641 33.7316 26.3718 34.1093 26.2095C34.214 26.5766 34.3421 26.9371 34.4954 27.2876C34.3455 27.6414 34.214 28.0027 34.1093 28.3723C33.7374 28.2116 33.3462 28.0235 33.1159 27.6772C32.961 27.4549 32.9551 27.1469 33.105 26.9213Z" fill="#273E74"/>
<path d="M38.248 27.2859C38.4005 26.9362 38.5286 26.5766 38.6333 26.2095C39.0111 26.3718 39.4106 26.565 39.6385 26.9229C39.7842 27.1443 39.7817 27.4449 39.6351 27.6655C39.4056 28.0193 39.0086 28.21 38.6333 28.3731C38.5295 28.0018 38.3955 27.6414 38.248 27.2859Z" fill="#273E74"/>
<path d="M71.3344 27.6406C72.3839 27.3775 73.4435 27.1544 74.498 26.9097C74.5759 27.2435 74.6521 27.5781 74.7291 27.912C73.6881 28.1534 72.6444 28.3798 71.605 28.6288C71.3043 28.702 70.9668 28.8028 70.8051 29.0908C70.6158 29.4363 70.7029 29.8617 70.8512 30.2064C70.9642 30.4819 71.2524 30.6809 71.5573 30.6451C72.0473 30.6068 72.5222 30.4645 73.0021 30.3637C73.7283 30.1989 74.4536 30.0324 75.1806 29.8683C75.2568 30.2022 75.3347 30.5369 75.411 30.8715C74.8146 31.008 74.2175 31.1403 73.6228 31.2794C73.7434 31.5058 73.8741 31.7548 74.1194 31.8697C74.2794 31.9504 74.4645 31.9097 74.6379 31.9113C74.6036 31.7515 74.5684 31.5924 74.5348 31.4343C74.8531 31.3618 75.1714 31.2894 75.4905 31.2178C75.5642 31.535 75.6371 31.8514 75.71 32.1694C75.225 32.2609 74.7409 32.4524 74.2409 32.3891C73.7224 32.2984 73.4209 31.8139 73.2349 31.3677C72.595 31.4967 71.9551 31.7015 71.2959 31.6665C70.646 31.6191 70.1744 31.0622 69.9918 30.4785C69.7874 29.8342 69.6551 29.0799 69.9985 28.4597C70.2649 27.9669 70.8235 27.7737 71.3344 27.6406Z" fill="#273E74"/>
<path d="M34.3438 28.4531C34.4158 28.1484 34.5113 27.8495 34.6201 27.5557C34.8103 27.9386 35.0263 28.3091 35.2642 28.6654C34.9535 28.6129 34.6453 28.5454 34.3438 28.4531Z" fill="#273E74"/>
<path d="M38.1237 27.5581C38.2326 27.8512 38.3306 28.1492 38.3951 28.4563C38.0952 28.5446 37.7887 28.6112 37.4805 28.6661C37.7159 28.309 37.9311 27.9394 38.1237 27.5581Z" fill="#273E74"/>
<path d="M34.2951 28.6978C34.6703 28.791 35.0514 28.8584 35.4359 28.9075C35.6662 29.213 35.9158 29.5053 36.1838 29.78C35.8446 30.0264 35.4702 30.2803 35.0339 30.287C34.765 30.2953 34.5112 30.1272 34.4006 29.8857C34.2205 29.517 34.2565 29.0924 34.2951 28.6978Z" fill="#273E74"/>
<path d="M37.3085 28.9075C37.6913 28.8584 38.0724 28.7918 38.4476 28.6978C38.4887 29.0915 38.523 29.5136 38.3463 29.8824C38.2357 30.123 37.9844 30.2936 37.7156 30.287C37.2775 30.2828 36.9006 30.0264 36.5605 29.7791C36.8286 29.5053 37.0782 29.2139 37.3085 28.9075Z" fill="#273E74"/>
<path d="M35.7285 28.9326C36.1565 28.9568 36.5862 28.9559 37.015 28.9326C36.8149 29.1732 36.6021 29.4038 36.3726 29.6161C36.1415 29.4038 35.9295 29.1724 35.7285 28.9326Z" fill="#273E74"/>
<path d="M68.4863 29.889C68.8055 29.815 69.1246 29.7417 69.4445 29.6709C69.5174 29.9872 69.5903 30.3044 69.6631 30.6216C69.344 30.6957 69.0249 30.7681 68.7057 30.8397C68.6313 30.5226 68.5584 30.2054 68.4863 29.889Z" fill="#273E74"/>
<path d="M1.82461 31.0498C3.51818 31.2746 5.21259 31.4894 6.90451 31.7233C6.85926 32.0612 6.81324 32.4001 6.76964 32.7389C5.57693 33.2759 4.38003 33.8053 3.1865 34.3407C4.28958 34.4888 5.39266 34.6312 6.49574 34.7777C6.45469 35.0924 6.4128 35.4079 6.37175 35.7234C4.67734 35.5044 2.98459 35.278 1.29102 35.0566C1.33373 34.7261 1.37815 34.3956 1.42252 34.0651C2.64457 33.524 3.86655 32.9853 5.08777 32.4434C3.95872 32.2935 2.82801 32.147 1.69896 31.9972C1.74001 31.6808 1.7819 31.3653 1.82461 31.0498Z" fill="#273E74"/>
<path d="M24.3901 33.4658C25.8249 35.6253 27.9331 37.2554 30.2071 38.4708C31.6218 39.2325 33.1127 39.8428 34.6279 40.3755C36.2913 40.9066 37.9924 41.3079 39.6894 41.7192C41.1258 42.0755 42.5933 42.3327 43.9862 42.8447C46.215 43.6406 48.3005 44.9659 49.7562 46.8457C51.0461 48.544 51.5219 50.7243 51.4691 52.8205C51.2069 52.8213 50.9448 52.8213 50.6835 52.8213C50.7505 51.2787 50.4883 49.6986 49.7638 48.3217C48.7621 46.3862 46.9588 44.9818 45.0097 44.0635C43.5859 43.4342 42.074 43.032 40.563 42.6716C39.1484 42.3295 37.7044 42.118 36.3073 41.7059C34.6707 41.2539 33.0642 40.6861 31.5172 39.9877C30.5079 39.5273 29.5062 39.0378 28.5848 38.4192C27.3394 37.6043 26.0889 36.7559 25.0963 35.637C24.8669 35.4148 24.6164 35.1875 24.5251 34.8703C24.4069 34.4132 24.3642 33.9361 24.3901 33.4658Z" fill="#273E74"/>
<path d="M70.8648 35.8198C72.5718 35.8773 74.2787 35.9347 75.9865 35.993C75.9757 36.3251 75.9631 36.6573 75.9539 36.9903C74.7922 37.6505 73.6254 38.3023 72.462 38.96C73.602 39 74.7411 39.0374 75.881 39.0765C75.8701 39.3946 75.8592 39.7125 75.8484 40.0314C74.1413 39.9748 72.4336 39.9157 70.7266 39.8591C70.7366 39.5186 70.7517 39.1789 70.7567 38.8392C71.8858 38.1757 73.0341 37.5422 74.1699 36.8887C73.0567 36.8487 71.9444 36.813 70.8321 36.7746C70.8413 36.4558 70.8521 36.1378 70.8648 35.8198Z" fill="#273E74"/>
<path d="M24.6816 36.1724C26.5335 38.0188 28.7724 39.4532 31.1628 40.5114C33.8531 41.6935 36.6808 42.5693 39.5729 43.1046C40.9952 43.391 42.409 43.7398 43.7734 44.2376C44.7985 44.6139 45.802 45.0826 46.6781 45.7403C47.6748 46.4005 48.5216 47.2929 49.0744 48.3526C49.7998 49.7196 50.046 51.288 50.0301 52.8198C42.342 52.8115 34.6538 52.8015 26.9657 52.7932C26.4229 49.4208 25.9991 46.0308 25.5367 42.6467C25.2487 40.4888 24.9656 38.331 24.6816 36.1724ZM31.4032 48.5615C31.4024 49.5913 31.4024 50.6211 31.4024 51.6509C31.6394 51.6501 31.8764 51.6501 32.1135 51.6501C32.1135 51.3388 32.1143 51.0282 32.1135 50.7177C32.3028 50.5445 32.4937 50.3722 32.6847 50.2016C33.0071 50.6836 33.3288 51.1656 33.6487 51.6493C33.9545 51.6509 34.261 51.6509 34.5667 51.6501C34.1044 51.0207 33.6379 50.3938 33.1755 49.7645C33.6161 49.3632 34.0583 48.9636 34.4981 48.5615C34.1806 48.5607 33.8632 48.5607 33.5457 48.5624C33.0683 49.0178 32.5917 49.4731 32.1143 49.9285C32.1135 49.4723 32.1143 49.0169 32.1135 48.5615C31.8764 48.5607 31.6394 48.5607 31.4032 48.5615ZM34.9345 48.5615C34.9345 49.5913 34.9345 50.6203 34.9345 51.6501C35.1715 51.6501 35.4077 51.6501 35.6447 51.6509C35.6464 51.2005 35.6447 50.7501 35.6464 50.2998C36.107 50.2998 36.5677 50.2989 37.0284 50.3006C37.0284 50.7501 37.0276 51.1996 37.0284 51.65C37.2654 51.6509 37.5025 51.6509 37.7395 51.65C37.7395 50.6203 37.7403 49.5913 37.7395 48.5615C37.5025 48.5607 37.2654 48.5607 37.0292 48.5615C37.0276 48.9669 37.0284 49.3724 37.0284 49.7778C36.5677 49.7778 36.1062 49.7778 35.6456 49.7778C35.6456 49.3724 35.6456 48.9669 35.6456 48.5615C35.4076 48.5607 35.1715 48.5607 34.9345 48.5615ZM38.2261 48.5615C38.2253 48.7347 38.2253 48.9087 38.2261 49.0827C38.5721 49.0835 38.9188 49.0827 39.2656 49.0835C39.2656 49.9385 39.2656 50.7942 39.2656 51.6501C39.5026 51.6509 39.7396 51.6509 39.9767 51.6509C39.9775 50.7951 39.9767 49.9393 39.9775 49.0835C40.3217 49.0827 40.6668 49.0827 41.0119 49.0827C41.0111 48.9087 41.0111 48.7347 41.0119 48.5615C40.083 48.5607 39.1542 48.5607 38.2261 48.5615ZM41.4717 48.5615C41.4709 49.5913 41.4717 50.6203 41.4717 51.6501C41.6903 51.6501 41.9098 51.6501 42.1292 51.6501C42.1292 50.9741 42.1284 50.2981 42.1301 49.6221C42.6066 50.2973 43.0765 50.9783 43.5556 51.6526C43.791 51.6501 44.0263 51.6501 44.2625 51.6501C44.2625 50.6203 44.2625 49.5913 44.2617 48.5615C44.0422 48.5607 43.8236 48.5607 43.6051 48.5615C43.6034 49.2467 43.6084 49.9326 43.6026 50.6178C43.1126 49.9384 42.6427 49.245 42.1594 48.5615C41.9299 48.5607 41.7004 48.5607 41.4717 48.5615Z" fill="#273E74"/>
<path d="M1.0918 36.6427C1.5399 36.6161 1.99139 36.5329 2.43943 36.5995C2.82891 36.6619 3.10446 36.9774 3.2795 37.3071C4.02747 37.1856 4.85329 37.1988 5.50915 37.6218C6.07533 37.9706 6.43554 38.5892 6.52599 39.2376C6.65081 39.9719 6.52599 40.7928 6.00583 41.358C5.4413 42.0023 4.53668 42.2121 3.70921 42.1929C2.98384 42.1871 2.23422 41.9057 1.77612 41.3288C1.27779 40.6878 1.17136 39.8095 1.33386 39.0328C1.50057 38.2719 2.112 37.6716 2.84069 37.4177C2.67901 37.1721 2.40347 37.0498 2.11283 37.054C2.12454 37.2147 2.13715 37.3753 2.14969 37.5368C1.82385 37.5643 1.49719 37.5901 1.17143 37.6159C1.14456 37.2912 1.11859 36.9665 1.0918 36.6427ZM3.32896 38.3843C3.00816 38.4584 2.69072 38.5974 2.4654 38.8439C2.06758 39.2743 2.06337 39.9611 2.32887 40.4597C2.58182 40.9159 3.12203 41.1233 3.62462 41.1341C4.20589 41.1515 4.84495 41.0542 5.2872 40.6454C5.89609 40.0951 5.78973 38.9696 5.07613 38.5534C4.55514 38.2394 3.9052 38.2678 3.32896 38.3843Z" fill="#273E74"/>
<path d="M1.02128 39.4131C1.03885 39.6162 1.05565 39.8202 1.07322 40.0242C0.753243 40.3721 0.430784 40.7193 0.109153 41.0665C0.0781543 40.7027 0.0488746 40.3397 0.0195312 39.9767C0.352938 39.7869 0.687937 39.6021 1.02128 39.4131Z" fill="#273E74"/>
<path d="M70.6929 40.9238C72.374 41.2269 74.0541 41.5324 75.7343 41.8371C75.6723 42.1734 75.6112 42.5105 75.5492 42.8477C74.8875 42.7295 74.2267 42.6079 73.5658 42.4898C73.4436 43.1499 73.3221 43.8109 73.2023 44.4719C73.8623 44.5926 74.5241 44.71 75.1857 44.8316C75.1237 45.1687 75.0617 45.5059 74.9998 45.8431C73.3196 45.54 71.6411 45.232 69.9609 44.9331C70.0204 44.5943 70.0824 44.2563 70.1452 43.9183C70.8797 44.0498 71.6135 44.1847 72.3489 44.3162C72.4695 43.6552 72.591 42.9951 72.7116 42.3349C71.977 42.2008 71.2425 42.0693 70.5079 41.9361C70.5681 41.5982 70.6301 41.261 70.6929 40.9238Z" fill="#273E74"/>
<path d="M1.7168 43.4499C2.20761 43.3575 2.69843 43.1594 3.20516 43.2343C3.71444 43.3334 4.00673 43.8113 4.19183 44.2516C4.91465 44.1193 5.65677 43.8279 6.39468 44.0044C7.11082 44.2158 7.44837 44.9776 7.57147 45.6511C7.69877 46.2613 7.68203 46.9905 7.20045 47.4526C6.79002 47.8539 6.19119 47.9421 5.65849 48.0886C4.7489 48.2959 3.83843 48.5032 2.92885 48.7096C2.85177 48.375 2.77392 48.0412 2.6985 47.7065C3.78484 47.4526 4.87704 47.2245 5.95835 46.9539C6.29424 46.8806 6.64184 46.6675 6.70715 46.3071C6.76742 45.9058 6.67367 45.4521 6.39054 45.1491C6.12588 44.8876 5.72386 44.9776 5.39802 45.0392C4.34516 45.2656 3.29822 45.5178 2.24619 45.7501C2.16911 45.4163 2.09209 45.0825 2.01583 44.7487C2.61136 44.6113 3.20854 44.479 3.80406 44.3399C3.6893 44.1251 3.56868 43.892 3.3459 43.7696C3.17754 43.6631 2.97232 43.7038 2.7864 43.713C2.8216 43.8695 2.85756 44.026 2.89359 44.1834C2.57533 44.2575 2.25618 44.3299 1.93709 44.4015C1.86256 44.0843 1.78968 43.7672 1.7168 43.4499Z" fill="#273E74"/>
<path d="M69.6595 45.958C71.3045 46.4176 72.9487 46.8821 74.5945 47.3416C74.5015 47.6721 74.4077 48.0018 74.3131 48.3323C72.668 47.8719 71.0239 47.4091 69.3789 46.9487C69.4702 46.6182 69.5648 46.2877 69.6595 45.958Z" fill="#273E74"/>
<path d="M67.6855 51.46C68.1529 50.2554 68.6211 49.0499 69.0901 47.8462C70.6832 48.4573 72.2763 49.0699 73.8694 49.681C73.4154 50.8565 72.9581 52.0303 72.5016 53.205C72.2311 53.1017 71.9614 52.9976 71.6934 52.8936C72.0242 52.0387 72.3576 51.1853 72.6893 50.3312C72.3358 50.1947 71.9823 50.0581 71.6289 49.9233C71.319 50.7183 71.0116 51.5141 70.7017 52.31C70.4328 52.2068 70.1648 52.1027 69.8967 51.9995C70.205 51.2044 70.5149 50.4095 70.824 49.6152C70.3909 49.4462 69.9563 49.2814 69.5223 49.1149C69.1773 49.999 68.8364 50.8848 68.4904 51.7681C68.2216 51.6656 67.9536 51.5633 67.6855 51.46Z" fill="#273E74"/>
<path d="M7.08684 49.6786C7.40262 49.1333 7.77033 48.6196 8.11373 48.0918C8.28457 48.4639 8.45713 48.8369 8.62797 49.2106C8.24772 49.8558 7.81298 50.471 7.47633 51.1404C7.28957 51.5008 7.50732 51.8796 7.65557 52.2093C8.30551 51.9146 8.95298 51.6157 9.60375 51.3235C9.74697 51.6348 9.89101 51.9462 10.0343 52.2584C8.48056 52.9668 6.92606 53.6745 5.3715 54.3813C5.03395 53.6428 4.68635 52.9094 4.35549 52.1677C4.19636 51.7705 4.01209 51.336 4.12431 50.9023C4.31106 50.2055 5.09588 49.7485 5.80032 49.8733C6.22996 49.9491 6.55662 50.2713 6.78952 50.6201C6.83052 50.2913 6.916 49.965 7.08684 49.6786ZM5.08169 51.3219C5.02472 51.5293 5.11517 51.7365 5.19645 51.9247C5.36984 52.3134 5.55074 52.6997 5.72998 53.0868C6.12449 52.9079 6.51811 52.7289 6.9118 52.549C6.67642 52.062 6.48629 51.5509 6.19063 51.0963C5.91508 50.6792 5.19894 50.8666 5.08169 51.3219Z" fill="#273E74"/>
<path d="M73.6209 51.1338C73.7148 50.8882 73.8094 50.6435 73.9074 50.4004C74.1394 50.7501 74.3739 51.0988 74.6034 51.4501C74.4928 51.729 74.3848 52.0096 74.2767 52.2893C73.8689 52.3908 73.4618 52.4916 73.0547 52.5915C73.1477 52.3467 73.2423 52.102 73.3395 51.8589C73.5489 51.7956 73.7582 51.7324 73.9693 51.6699C73.8529 51.4901 73.7365 51.312 73.6209 51.1338Z" fill="#273E74"/>
<path d="M66.7591 53.0707C66.9283 52.8001 67.1 52.5321 67.2725 52.2632C68.7165 53.1722 70.1605 54.0814 71.6036 54.9921C71.4236 55.2735 71.2443 55.5566 71.0634 55.8379C69.7258 55.8179 68.389 55.7963 67.0514 55.778C68.0137 56.3874 68.9786 56.9918 69.9411 57.6004C69.7693 57.8684 69.5985 58.1365 69.4276 58.4054C67.982 57.4988 66.5397 56.5872 65.0957 55.679C65.2741 55.3901 65.4642 55.1087 65.6359 54.8165C66.9501 54.8049 68.265 54.844 69.5801 54.8481C68.6395 54.2545 67.698 53.6643 66.7591 53.0707Z" fill="#273E74"/>
<path d="M7.57486 56.3766C8.77597 55.624 9.97536 54.8689 11.1765 54.1172C11.3624 54.4061 11.5458 54.6966 11.7293 54.9872C10.529 55.7406 9.32796 56.4931 8.12768 57.2474C8.39654 57.6736 8.66878 58.099 8.93765 58.5261C8.69392 58.6801 8.44931 58.8333 8.20559 58.9873C7.48021 57.8451 6.75491 56.7046 6.03125 55.5616C6.27414 55.4067 6.51869 55.2536 6.76331 55.1012C7.03376 55.5257 7.30263 55.952 7.57486 56.3766Z" fill="#273E74"/>
<path d="M30.5884 56.4024C31.3506 56.2542 32.2125 56.3383 32.8365 56.8328C33.3206 57.2066 33.6037 57.7893 33.6858 58.3854C33.8114 59.2528 33.6942 60.2168 33.0919 60.897C33.3499 61.0718 33.6288 61.2133 33.9186 61.3291C33.7887 61.5755 33.6614 61.8227 33.535 62.0708C33.1095 61.9384 32.7594 61.6612 32.3908 61.4248C31.6563 61.7178 30.7994 61.7212 30.0716 61.4073C29.4074 61.1159 28.9509 60.4674 28.8202 59.7673C28.6871 59.043 28.7113 58.2613 29.033 57.5878C29.3253 56.976 29.9225 56.5306 30.5884 56.4024ZM30.2023 57.6686C29.8555 58.0699 29.8003 58.6293 29.8162 59.1371C29.8313 59.6191 29.9561 60.1436 30.3439 60.4691C30.6889 60.7821 31.199 60.8429 31.6371 60.713C31.4327 60.579 31.2141 60.4708 30.9896 60.3775C31.0859 60.1778 31.1822 59.9788 31.2794 59.7806C31.632 59.9097 31.9612 60.0953 32.2652 60.3151C32.5232 59.978 32.6472 59.5584 32.658 59.1379C32.674 58.6417 32.6237 58.099 32.3004 57.6969C31.8012 57.0684 30.719 57.0567 30.2023 57.6686Z" fill="#273E74"/>
<path d="M35.3037 56.829C36.0081 56.2795 36.9914 56.2396 37.829 56.4569C38.4807 56.6275 38.9656 57.1945 39.1063 57.8388C38.7637 57.9046 38.422 57.967 38.0794 58.032C37.9604 57.7123 37.7368 57.4159 37.4027 57.3027C36.8641 57.1229 36.1965 57.2295 35.8104 57.6674C35.5307 57.9771 35.4385 58.4066 35.4243 58.812C35.4142 59.2241 35.4519 59.6537 35.6438 60.0267C35.8314 60.4004 36.2066 60.676 36.6237 60.7376C37.1556 60.8293 37.6916 60.6286 38.1197 60.3239C38.1155 60.1057 38.1147 59.8885 38.1155 59.6721C37.7193 59.6712 37.324 59.6721 36.9286 59.6712C36.9278 59.3815 36.9278 59.0918 36.9286 58.8029C37.6732 58.8021 38.4178 58.8021 39.1624 58.8029C39.1616 59.4897 39.1641 60.1765 39.1608 60.8633C38.3525 61.5152 37.236 61.7941 36.2184 61.5593C35.6145 61.4228 35.0558 61.0507 34.7476 60.5096C34.1026 59.3573 34.2165 57.6831 35.3037 56.829Z" fill="#273E74"/>
<path d="M49.2748 56.4025C49.9817 56.251 50.7925 56.3434 51.3528 56.8321C51.6619 57.0869 51.8302 57.4615 51.9517 57.8336C51.6117 57.916 51.2716 57.9976 50.9324 58.0792C50.8537 57.8694 50.7716 57.6488 50.5957 57.4997C50.1007 57.0443 49.2137 57.1592 48.8427 57.717C48.5646 58.1341 48.5454 58.6594 48.5562 59.1447C48.578 59.5793 48.6384 60.0563 48.9457 60.3926C49.3394 60.8346 50.1074 60.8938 50.543 60.48C50.7775 60.2678 50.8747 59.9572 50.9651 59.6659C51.2977 59.7699 51.631 59.8715 51.9643 59.9755C51.8262 60.4451 51.6025 60.9154 51.2038 61.221C50.6569 61.6439 49.9081 61.7163 49.2472 61.579C48.4273 61.4033 47.7756 60.7106 47.588 59.9073C47.4289 59.2188 47.4472 58.4787 47.6835 57.8094C47.9288 57.1126 48.5445 56.5549 49.2748 56.4025Z" fill="#273E74"/>
<path d="M18.6028 56.4235C19.2511 56.4211 19.9002 56.4219 20.5493 56.4227C21.0117 56.4261 21.5017 56.4552 21.902 56.7107C22.5042 57.0837 22.8116 57.7871 22.8777 58.469C22.964 59.2698 22.8979 60.1506 22.3995 60.8182C22.0376 61.3185 21.4003 61.5392 20.7997 61.5509C20.0685 61.565 19.3365 61.5525 18.6053 61.5559C18.6044 60.81 18.6053 60.064 18.6053 59.3181C18.4277 59.3173 18.251 59.3173 18.0742 59.3181C18.075 59.1008 18.075 58.8835 18.0759 58.6679C18.2517 58.6671 18.4277 58.6663 18.6044 58.6671C18.6036 57.9187 18.6078 57.1711 18.6028 56.4235ZM19.6447 57.291C19.643 57.7496 19.6439 58.2084 19.6447 58.6671C20.0116 58.6671 20.3792 58.6663 20.747 58.6679C20.747 58.8835 20.747 59.1 20.7486 59.3173C20.3801 59.3181 20.0123 59.3173 19.6439 59.3181C19.6447 59.7751 19.6439 60.2313 19.6447 60.6884C20.1749 60.6625 20.7319 60.7624 21.2403 60.5726C21.7462 60.3396 21.8132 59.7119 21.8383 59.2248C21.8467 58.6338 21.8668 57.9087 21.3509 57.5057C20.8475 57.1827 20.21 57.3276 19.6447 57.291Z" fill="#273E74"/>
<path d="M23.7823 56.4225C24.1282 56.4217 24.4741 56.4217 24.8201 56.4225C24.8217 57.096 24.8192 57.7695 24.8217 58.4429C25.4976 58.4413 26.1727 58.4429 26.8486 58.4413C26.8495 57.7686 26.8486 57.0951 26.8495 56.4225C27.1954 56.4217 27.5413 56.4217 27.8881 56.4225C27.8889 58.1332 27.8881 59.8449 27.8889 61.5557C27.5421 61.5565 27.1954 61.5565 26.8486 61.5557C26.8486 60.8072 26.8495 60.0589 26.8486 59.3112C26.1727 59.3104 25.4968 59.3104 24.8209 59.3104C24.8209 60.0589 24.8217 60.8073 24.8209 61.5565C24.4741 61.5565 24.1274 61.5565 23.7815 61.5557C23.7815 59.8449 23.7806 58.1333 23.7823 56.4225Z" fill="#273E74"/>
<path d="M42.4932 56.4227C42.8392 56.4219 43.1851 56.4211 43.5318 56.4235C43.5318 57.0962 43.531 57.7689 43.5318 58.4423C44.2078 58.4423 44.8837 58.4423 45.5596 58.4423C45.5604 57.7689 45.5596 57.0962 45.5596 56.4235C45.9055 56.4211 46.2514 56.4219 46.5982 56.4227C46.5998 58.1335 46.599 59.8451 46.599 61.5559C46.2522 61.5567 45.9064 61.5567 45.5596 61.5559C45.5596 60.8082 45.5596 60.0599 45.5604 59.3115C44.8837 59.3106 44.2077 59.3098 43.5309 59.3115C43.5318 60.0599 43.5318 60.8083 43.5318 61.5567C43.185 61.5567 42.8382 61.5567 42.4923 61.5567C42.4924 59.8451 42.4916 58.1335 42.4932 56.4227Z" fill="#273E74"/>
<path d="M52.832 56.4225C53.3513 56.4217 53.8715 56.4217 54.3908 56.4225C54.6982 57.5888 55.0064 58.7551 55.3155 59.9214C55.6237 58.7551 55.9244 57.588 56.2326 56.4225C56.7528 56.4217 57.2729 56.4217 57.793 56.4225C57.7947 58.1332 57.793 59.8449 57.7939 61.5557C57.4731 61.5565 57.1523 61.5565 56.8323 61.5557C56.8299 60.2145 56.8315 58.8733 56.8273 57.533C56.4823 58.8725 56.1497 60.2154 55.8097 61.5565C55.4763 61.5565 55.143 61.5565 54.8104 61.5565C54.4796 60.2161 54.1253 58.8809 53.8129 57.5363C53.7744 58.8759 53.8037 60.2161 53.7928 61.5557C53.472 61.5565 53.1512 61.5565 52.8321 61.5557C52.8329 59.8449 52.832 58.1333 52.832 56.4225Z" fill="#273E74"/>
<path d="M39.9876 59.2047C40.6325 59.2039 41.2783 59.2039 41.9241 59.2047C41.9241 59.531 41.9241 59.8574 41.9241 60.1846C41.2792 60.1879 40.6334 60.1854 39.9876 60.1862C39.9859 59.8583 39.9859 59.531 39.9876 59.2047Z" fill="#273E74"/>
<path d="M34.1085 24.3362C34.2358 24.0415 34.5482 23.8383 34.8732 23.8617C35.457 23.8941 35.9437 24.2671 36.3733 24.6268C36.8047 24.2646 37.2963 23.8883 37.8843 23.8617C38.2084 23.8425 38.5166 24.0498 38.6415 24.3445C38.8676 24.8524 38.7897 25.4293 38.6951 25.9596C39.2085 26.1435 39.7546 26.3683 40.0837 26.8245C40.2906 27.0992 40.2856 27.4989 40.0753 27.7711C39.7437 28.219 39.2043 28.4413 38.695 28.6236C38.7913 29.1581 38.8684 29.7408 38.6355 30.252C38.499 30.5683 38.1481 30.764 37.8055 30.7182C37.2494 30.6549 36.7862 30.3044 36.3732 29.9565C35.9612 30.302 35.5022 30.6508 34.9502 30.7174C34.6001 30.7682 34.2416 30.5675 34.1067 30.2437C33.8772 29.7342 33.9559 29.1548 34.0506 28.6228C33.5413 28.4422 33.0045 28.2199 32.6728 27.7737C32.4592 27.5006 32.4542 27.0961 32.6653 26.8205C32.9953 26.3667 33.5389 26.1428 34.0507 25.9589C33.9552 25.4259 33.8782 24.8465 34.1085 24.3362ZM34.4285 24.6476C34.2174 25.0239 34.2559 25.4734 34.297 25.8855C34.6714 25.7906 35.0516 25.7231 35.4353 25.6765C35.6664 25.3702 35.916 25.078 36.1849 24.8032C35.8473 24.556 35.4721 24.3029 35.0374 24.2954C34.7878 24.2879 34.5457 24.4294 34.4285 24.6476ZM36.5618 24.8032C36.8298 25.0779 37.0794 25.3693 37.3106 25.6765C37.6934 25.7231 38.0736 25.7906 38.4472 25.8863C38.4907 25.4767 38.5268 25.0322 38.3232 24.6567C38.2076 24.4369 37.9673 24.2904 37.7176 24.2954C37.2787 24.2987 36.901 24.5543 36.5618 24.8032ZM35.7284 25.6507C36.1572 25.6257 36.5886 25.6249 37.0183 25.6507C36.8156 25.4101 36.6028 25.1787 36.3734 24.9647C36.143 25.1787 35.9302 25.4101 35.7284 25.6507ZM35.5575 25.8797C35.2343 26.3184 34.9646 26.7937 34.7359 27.2874C34.9721 27.7786 35.2158 28.2889 35.5793 28.6969C36.1112 28.7685 36.6522 28.7451 37.1866 28.7035C37.5133 28.2639 37.7846 27.7861 38.0116 27.2891C37.7821 26.7946 37.5116 26.3192 37.1891 25.8805C36.6464 25.8289 36.1003 25.8289 35.5575 25.8797ZM34.3464 26.1277C34.4167 26.4324 34.5114 26.7305 34.6219 27.0235C34.8137 26.6422 35.0281 26.2726 35.2652 25.9171C34.9544 25.9687 34.6471 26.037 34.3464 26.1277ZM37.4806 25.9171C37.7176 26.2726 37.9321 26.6422 38.1238 27.0243C38.2344 26.7313 38.3291 26.4324 38.3994 26.1277C38.0979 26.037 37.7905 25.9687 37.4806 25.9171ZM33.1068 26.9219C32.9569 27.1475 32.9627 27.4555 33.1176 27.6778C33.348 28.0241 33.7391 28.2123 34.111 28.3729C34.2157 28.0033 34.3472 27.642 34.4971 27.2882C34.3438 26.9377 34.2157 26.5772 34.111 26.2101C33.7333 26.3725 33.3354 26.5648 33.1068 26.9219ZM38.2495 27.2866C38.3969 27.642 38.5309 28.0025 38.6348 28.3738C39.01 28.2106 39.407 28.02 39.6365 27.6661C39.7831 27.4455 39.7856 27.145 39.6399 26.9235C39.4121 26.5656 39.0126 26.3724 38.6348 26.2101C38.5301 26.5773 38.4019 26.9369 38.2495 27.2866ZM34.3455 28.4537C34.6471 28.5462 34.9553 28.6135 35.266 28.6661C35.0281 28.3097 34.8121 27.9393 34.6219 27.5563C34.5131 27.8501 34.4176 28.149 34.3455 28.4537ZM38.1247 27.5588C37.9321 27.9401 37.7168 28.3097 37.4814 28.6668C37.7896 28.6119 38.0962 28.5453 38.396 28.457C38.3316 28.1499 38.2336 27.8518 38.1247 27.5588ZM34.2962 28.6984C34.2576 29.093 34.2216 29.5176 34.4017 29.8864C34.5123 30.1279 34.766 30.296 35.0349 30.2877C35.4713 30.2811 35.8457 30.0271 36.1849 29.7807C35.9169 29.506 35.6673 29.2138 35.4369 28.9083C35.0525 28.8591 34.6714 28.7917 34.2962 28.6984ZM37.3089 28.9082C37.0786 29.2146 36.829 29.506 36.5609 29.7798C36.901 30.0271 37.2779 30.2835 37.716 30.2877C37.9848 30.2943 38.2361 30.1237 38.3467 29.8831C38.5235 29.5143 38.4891 29.0922 38.448 28.6984C38.0727 28.7925 37.6917 28.8591 37.3089 28.9082ZM35.7292 28.9332C35.9302 29.173 36.1421 29.4044 36.3733 29.6167C36.6028 29.4044 36.8156 29.1738 37.0157 28.9332C36.5869 28.9565 36.1572 28.9574 35.7292 28.9332Z" fill="#FEFEFE"/>
<path d="M36.0689 26.7062C36.5011 26.4574 37.0924 26.8511 37.0321 27.3414C37.0162 27.811 36.4274 28.1165 36.0312 27.8559C35.5923 27.6212 35.6149 26.9127 36.0689 26.7062Z" fill="#FEFEFE"/>
<path d="M31.4032 48.5617C31.6394 48.5608 31.8764 48.5608 32.1135 48.5617C32.1143 49.017 32.1135 49.4724 32.1143 49.9286C32.5917 49.4732 33.0683 49.0179 33.5457 48.5625C33.8631 48.5608 34.1805 48.5608 34.498 48.5617C34.0583 48.9638 33.6161 49.3633 33.1755 49.7646C33.6379 50.3939 34.1044 51.0208 34.5667 51.6502C34.261 51.651 33.9545 51.651 33.6487 51.6494C33.3288 51.1657 33.0071 50.6837 32.6847 50.2017C32.4937 50.3724 32.3028 50.5446 32.1135 50.7178C32.1143 51.0283 32.1135 51.3388 32.1135 51.6502C31.8764 51.6502 31.6394 51.6502 31.4023 51.651C31.4023 50.6213 31.4023 49.5914 31.4032 48.5617Z" fill="#FEFEFE"/>
<path d="M34.9336 48.5617C35.1706 48.5608 35.4068 48.5608 35.6447 48.5617C35.6447 48.9671 35.6447 49.3725 35.6447 49.7779C36.1054 49.7779 36.5669 49.7779 37.0275 49.7779C37.0275 49.3725 37.0267 48.9671 37.0284 48.5617C37.2646 48.5608 37.5016 48.5608 37.7387 48.5617C37.7395 49.5914 37.7387 50.6204 37.7387 51.6502C37.5016 51.651 37.2646 51.651 37.0275 51.6502C37.0267 51.1998 37.0275 50.7502 37.0275 50.3007C36.5669 50.2991 36.1062 50.2999 35.6455 50.2999C35.6439 50.7503 35.6455 51.2007 35.6439 51.6511C35.4068 51.6503 35.1706 51.6503 34.9336 51.6503C34.9336 50.6204 34.9336 49.5914 34.9336 48.5617Z" fill="#FEFEFE"/>
<path d="M38.2252 48.5617C39.1533 48.5608 40.0821 48.5608 41.011 48.5617C41.0102 48.7348 41.0102 48.9088 41.011 49.0828C40.666 49.0828 40.3208 49.0828 39.9766 49.0836C39.9758 49.9394 39.9766 50.7952 39.9758 51.651C39.7387 51.651 39.5017 51.651 39.2647 51.6502C39.2647 50.7944 39.2647 49.9386 39.2647 49.0836C38.9179 49.0828 38.5712 49.0836 38.2252 49.0828C38.2244 48.9088 38.2244 48.7348 38.2252 48.5617Z" fill="#FEFEFE"/>
<path d="M41.4711 48.5617C41.6997 48.5608 41.9292 48.5608 42.1587 48.5617C42.642 49.2451 43.1119 49.9386 43.6019 50.6179C43.6077 49.9327 43.6027 49.2468 43.6044 48.5617C43.8229 48.5608 44.0416 48.5608 44.261 48.5617C44.2618 49.5914 44.2618 50.6204 44.2618 51.6502C44.0256 51.6502 43.7903 51.6502 43.5549 51.6527C43.0758 50.9783 42.6059 50.2973 42.1294 49.6222C42.1277 50.2982 42.1285 50.9742 42.1285 51.6502C41.9091 51.6502 41.6897 51.6502 41.471 51.6502C41.4711 50.6204 41.4702 49.5914 41.4711 48.5617Z" fill="#FEFEFE"/>
</g>
<defs>
<clipPath id="clip0_2173_12904">
<rect width="76" height="62" fill="white" transform="translate(0 0.0737305)"/>
</clipPath>
</defs>
</svg>
