<svg width="50" height="76" viewBox="0 0 50 76" fill="none" xmlns="http://www.w3.org/2000/svg">
<g clip-path="url(#clip0_2139_10408)">
<path d="M19.4902 22.929C19.4902 25.934 21.9738 28.4058 24.993 28.4058C28.0123 28.4058 30.4958 25.934 30.4958 22.929C30.4958 19.924 28.0123 17.4521 24.993 17.4521C21.9738 17.4521 19.4902 19.924 19.4902 22.929Z" fill="#241775"/>
<path d="M7.17103 12.7021C12.1382 4.17183 22.5107 0.391363 31.7145 3.59022L31.0328 5.432C27.6239 4.26877 23.8742 4.0749 20.1732 5.04425C11.359 7.41917 5.61272 15.6586 6.48928 24.6736L8.87543 24.4313C8.0963 16.5795 13.1121 9.40631 20.8063 7.32223C28.5005 5.2866 36.4381 9.01861 39.7496 16.1918L41.8923 15.2224C40.0418 11.2481 36.9252 8.14617 33.2241 6.35289L34.7825 2.2816L33.7111 1.79692C23.1438 -2.56516 10.8233 1.60305 5.12575 11.4904C-0.620553 21.3778 1.91171 34.0763 10.9694 41.0072L12.4303 39.1169C4.29788 32.9131 2.05781 21.5232 7.17103 12.7021Z" fill="#241775"/>
<path d="M40.285 9.26139C46.2261 15.853 47.2486 25.4496 42.7686 33.1559C37.6554 42.0255 26.6498 45.7575 17.1537 41.8316L16.2285 44.0127C19.053 45.1758 22.0235 45.7575 24.9454 45.7575C32.9317 45.7575 40.6746 41.5893 44.8626 34.3676C49.8298 25.7889 48.7096 15.0775 42.0868 7.71045L40.285 9.26139Z" fill="#241775"/>
<path d="M8.09608 30.5864C11.164 37.3234 17.8356 41.4431 24.9454 41.4431C26.5524 41.4431 28.1594 41.2493 29.8151 40.8131C38.5807 38.4382 44.327 30.1987 43.4504 21.1837L41.0642 21.4261C41.8434 29.2778 36.8275 36.4994 29.1334 38.5351C21.8775 40.4738 14.3293 37.2265 10.7258 30.7318L12.5275 29.9563C13.745 32.0889 15.5468 33.9307 17.7869 35.1909C20.0269 36.4994 22.5105 37.1295 24.9454 37.1295C28.7925 37.1295 32.5909 35.5786 35.3666 32.5736L36.1945 31.6527L32.8343 28.7931C33.4187 28.0176 33.9057 27.0967 34.2466 26.1274C35.6101 22.2015 34.344 17.791 31.0325 15.2222L29.5716 17.064C32.0552 19.0511 33.0292 22.3469 32.0065 25.3519C30.9838 28.3569 28.1107 30.3441 24.9454 30.3926V32.7674C27.2829 32.7674 29.4742 31.9435 31.1786 30.4895L32.6883 31.7981C28.8899 35.1424 23.387 35.724 18.9556 33.1552C18.8095 33.0582 18.6147 32.9613 18.4686 32.8644L21.147 29.5201L20.2217 28.7931C17.7382 26.806 16.7642 23.5101 17.7869 20.5052C18.8095 17.5002 21.6826 15.513 24.848 15.4645V13.0896C22.5105 13.0896 20.2704 13.962 18.566 15.3676L17.1538 14.059C20.9522 10.7147 26.455 10.1331 30.9352 12.7019C35.7562 15.4645 37.9963 21.1352 36.3406 26.4182L38.6293 27.0967C40.6259 20.7475 37.9476 13.962 32.1526 10.6178C26.3576 7.27352 19.1017 8.38825 14.5242 13.2835L13.6963 14.1559L17.0077 17.064C16.4233 17.8394 15.9364 18.7118 15.6442 19.6812C14.4267 23.2193 15.352 27.1452 17.9817 29.8109L16.7155 31.3619C13.5502 28.3084 12.2841 23.7525 13.6476 19.3904L11.3588 18.7118C10.3848 21.7653 10.5309 24.9642 11.5536 27.7753L7.51172 29.4717L8.09608 30.5864Z" fill="#241775"/>
<path d="M0 52.625V54.6215H2.85653V63.2138H4.95335V54.6215H7.82509V52.625H0Z" fill="#241775"/>
<path d="M12.6125 58.8422H16.639V56.8756H12.6125V54.6215H17.0188V52.625H10.5156V63.2138H17.0948V61.2169H12.6125V58.8422Z" fill="#241775"/>
<path d="M22.1886 52.625H20.0918V63.2138H26.2455V61.2169H22.1886V52.625Z" fill="#241775"/>
<path d="M37.9064 61.8368C38.9852 60.7629 39.517 59.4617 39.517 57.9189C39.517 56.3761 38.9852 55.0749 37.9064 54.0161C36.8276 52.9422 35.5209 52.4126 33.9863 52.4126C32.4516 52.4126 31.1449 52.9422 30.0661 54.0161C29.0025 55.0749 28.4707 56.3761 28.4707 57.9189C28.4707 59.4617 29.0025 60.7629 30.0661 61.8368C31.1449 62.8956 32.4516 63.4252 33.9863 63.4252C35.5209 63.4252 36.8276 62.8956 37.9064 61.8368ZM31.54 60.4151C30.8866 59.7644 30.5523 58.9325 30.5523 57.9189C30.5523 56.9052 30.8866 56.0733 31.54 55.4232C32.1933 54.7726 33.0138 54.4399 33.9863 54.4399C34.9587 54.4399 35.7791 54.7726 36.4325 55.4232C37.0859 56.0733 37.4202 56.9052 37.4202 57.9189C37.4202 58.9325 37.0859 59.7644 36.4325 60.4151C35.7791 61.0652 34.9587 61.3832 33.9863 61.3832C33.0138 61.3832 32.1933 61.0652 31.54 60.4151Z" fill="#241775"/>
<path d="M46.1415 63.4252C47.281 63.4252 48.2076 63.1376 48.9218 62.5629C49.636 61.9882 50.0007 61.2166 50.0007 60.2333C50.0007 59.6282 49.8337 59.0986 49.6057 58.7356C49.408 58.3726 48.9218 57.9948 48.603 57.7979C48.4507 57.692 48.2232 57.5862 47.9342 57.4804C47.6456 57.3594 47.4177 57.2683 47.2507 57.2232L46.5213 56.9812C45.7311 56.7391 45.1993 56.5123 44.9106 56.3154C44.6371 56.1037 44.5003 55.8313 44.5003 55.4986C44.5003 54.8784 45.0322 54.4399 45.8984 54.4399C46.825 54.4399 47.5089 54.8936 47.9342 55.8014L49.697 54.7878C48.9677 53.2901 47.6154 52.4126 45.8984 52.4126C44.941 52.4126 44.1053 52.7002 43.4216 53.2749C42.7378 53.8348 42.4035 54.606 42.4035 55.5594C42.4035 56.5275 42.753 57.2535 43.4064 57.7376C44.0749 58.2065 44.6523 58.4333 45.6095 58.7209C46.4755 58.9629 47.0681 59.1897 47.4025 59.4014C47.7369 59.5979 47.9039 59.8855 47.9039 60.2637C47.9039 60.9143 47.3723 61.3832 46.2021 61.3832C44.9866 61.3832 44.1661 60.8384 43.7558 59.7644L41.9629 60.808C42.5555 62.4267 44.0293 63.4252 46.1415 63.4252Z" fill="#241775"/>
<path d="M3.92251 74.9969L2.2203 70.5332H1.7647L0.0625 74.9969H0.530762L0.942074 73.8999H3.04293L3.45424 74.9969H3.92251ZM1.9925 71.0881L2.88473 73.4789H1.10027L1.9925 71.0881Z" fill="#241775"/>
<path d="M9.84964 75.0739C10.666 75.0739 11.4063 74.6405 11.767 73.971L11.3747 73.7479C11.0962 74.2894 10.5078 74.6405 9.84964 74.6405C9.29913 74.6405 8.84354 74.462 8.49551 74.0985C8.14748 73.735 7.97028 73.2951 7.97028 72.7655C7.97028 72.2364 8.14748 71.7965 8.49551 71.433C8.84354 71.0695 9.29913 70.891 9.84964 70.891C10.5078 70.891 11.0962 71.2416 11.3747 71.7836L11.767 71.554C11.3937 70.8845 10.666 70.4575 9.84964 70.4575C9.1789 70.4575 8.62207 70.6807 8.18542 71.127C7.74881 71.5733 7.52734 72.1218 7.52734 72.7655C7.52734 73.4097 7.74881 73.9581 8.18542 74.4045C8.62207 74.8508 9.1789 75.0739 9.84964 75.0739Z" fill="#241775"/>
<path d="M19.2995 74.9969L17.5973 70.5332H17.1417L15.4395 74.9969H15.9077L16.319 73.8999H18.4199L18.8312 74.9969H19.2995ZM17.3695 71.0881L18.2617 73.4789H16.4772L17.3695 71.0881Z" fill="#241775"/>
<path d="M23.3164 70.5332V74.9969H25.0249C25.6261 74.9969 26.126 74.7801 26.5183 74.3527C26.917 73.9193 27.1131 73.3896 27.1131 72.7648C27.1131 72.14 26.917 71.6108 26.5183 71.1838C26.126 70.7499 25.6261 70.5332 25.0249 70.5332H23.3164ZM23.7594 74.5758V70.9542H25.0249C25.5122 70.9542 25.9045 71.1263 26.2146 71.4769C26.5247 71.8275 26.6829 72.255 26.6829 72.7648C26.6829 73.2751 26.5247 73.7025 26.2146 74.0531C25.9045 74.4038 25.5122 74.5758 25.0249 74.5758H23.7594Z" fill="#241775"/>
<path d="M31.7632 72.9562H33.7249V72.5352H31.7632V70.9542H33.8831V70.5332H31.3203V74.9969H33.9147V74.5758H31.7632V72.9562Z" fill="#241775"/>
<path d="M41.6224 70.5332L40.148 73.0202L38.6735 70.5332H38.123V74.9969H38.566V71.2091L40.1163 73.8235H40.1796L41.7299 71.2091V74.9969H42.1729V70.5332H41.6224Z" fill="#241775"/>
<path d="M49.3284 70.5332L48.0119 72.7202L46.6895 70.5332H46.1895L47.7844 73.1541V74.9969H48.2271V73.1665L49.828 70.5332H49.3284Z" fill="#241775"/>
</g>
<defs>
<clipPath id="clip0_2139_10408">
<rect width="50" height="75" fill="white" transform="translate(0 0.0737305)"/>
</clipPath>
</defs>
</svg>
