<svg width="143" height="53" viewBox="0 0 143 53" fill="none" xmlns="http://www.w3.org/2000/svg">
<g style="mix-blend-mode:hard-light">
<path d="M33.0304 0.0737305V11.3016C33.0304 13.1955 32.7868 14.7196 32.2997 15.8739C31.8307 17.0102 31.0639 17.8309 29.9995 18.3359C28.9351 18.841 27.5099 19.0935 25.7239 19.0935C23.8296 19.0935 22.3142 18.841 21.1776 18.3359C20.041 17.8309 19.2202 17.0102 18.715 15.8739C18.2279 14.7196 17.9844 13.1955 17.9844 11.3016V0.0737305H22.0977V11.3016C22.0977 12.474 22.1969 13.3939 22.3953 14.0612C22.6118 14.7106 22.9636 15.1705 23.4507 15.441C23.9559 15.7116 24.6414 15.8469 25.5074 15.8469C26.3553 15.8469 27.0228 15.7116 27.5099 15.441C28.015 15.1705 28.3758 14.7106 28.5923 14.0612C28.8088 13.3939 28.9171 12.474 28.9171 11.3016V0.0737305H33.0304Z" fill="black"/>
</g>
<path fill-rule="evenodd" clip-rule="evenodd" d="M42.2556 7.54262L43.4621 5.21387H47.4942L43.8871 10.6916L42.2556 7.54262ZM40.4448 11.0378L40.084 11.7342L40.4794 12.476L40.8925 11.7975L40.4448 11.0378ZM42.2889 15.8705L43.7327 18.5791H47.819L43.923 12.805L42.2889 15.8705Z" fill="black"/>
<path d="M39.3002 5.21436L42.6783 11.7346L39.0296 18.5796H34.9434L39.5618 11.7346L35.2681 5.21436H39.3002Z" fill="black"/>
<g style="mix-blend-mode:hard-light">
<path d="M4.25505 16.9022C5.68027 16.9022 7.15059 16.9203 8.66601 16.9563C10.1995 16.9744 11.5886 17.0555 12.8334 17.1998L12.6169 20.1759H5.85165C4.85941 20.1759 4.36329 20.6358 4.36329 21.5557V24.8023H11.6157V27.7243H4.36329V35.6514H0.25V20.717C0.25 19.5446 0.619835 18.6157 1.35951 17.9303C2.09918 17.2449 3.06436 16.9022 4.25505 16.9022Z" fill="black"/>
<path d="M20.4657 21.9345C22.1435 21.9345 23.4875 22.169 24.4978 22.6379C25.5081 23.0888 26.2297 23.8374 26.6627 24.8835C27.1137 25.9116 27.3392 27.2824 27.3392 28.9959C27.3392 30.7094 27.1137 32.0802 26.6627 33.1083C26.2297 34.1183 25.5081 34.8488 24.4978 35.2997C23.4875 35.7506 22.1435 35.9761 20.4657 35.9761C18.7879 35.9761 17.4439 35.7506 16.4336 35.2997C15.4233 34.8488 14.6927 34.1183 14.2417 33.1083C13.8087 32.0802 13.5922 30.7094 13.5922 28.9959C13.5922 27.2824 13.8087 25.9116 14.2417 24.8835C14.6927 23.8374 15.4233 23.0888 16.4336 22.6379C17.4439 22.169 18.7879 21.9345 20.4657 21.9345ZM20.4657 24.8294C19.7621 24.8294 19.2119 24.9466 18.815 25.1811C18.4361 25.4156 18.1655 25.8394 18.0032 26.4527C17.8408 27.0479 17.7596 27.8956 17.7596 28.9959C17.7596 30.0781 17.8408 30.9168 18.0032 31.512C18.1655 32.1072 18.4361 32.5221 18.815 32.7565C19.2119 32.973 19.7621 33.0812 20.4657 33.0812C21.1693 33.0812 21.7105 32.973 22.0894 32.7565C22.4863 32.5221 22.7659 32.1072 22.9283 31.512C23.0907 30.9168 23.1718 30.0781 23.1718 28.9959C23.1718 27.8956 23.0907 27.0479 22.9283 26.4527C22.7659 25.8394 22.4863 25.4156 22.0894 25.1811C21.7105 24.9466 21.1693 24.8294 20.4657 24.8294Z" fill="black"/>
<path d="M33.4508 22.2862V31.0791C33.4508 31.6383 33.5681 32.0351 33.8026 32.2695C34.0372 32.504 34.4341 32.6213 34.9933 32.6213C35.4804 32.6213 35.9765 32.5401 36.4817 32.3778C36.9868 32.2154 37.5912 31.9449 38.2948 31.5661V22.2862H42.2998V35.6514H39.1607L38.8089 33.7035C37.8708 34.479 36.9507 35.0562 36.0487 35.435C35.1467 35.8138 34.2176 36.0031 33.2614 36.0031C30.7357 36.0031 29.4729 34.7676 29.4729 32.2966V22.2862H33.4508Z" fill="black"/>
<path d="M64.5834 21.9615C65.3953 21.9435 66.171 22.0337 66.9107 22.2321C67.6684 22.4305 68.363 22.7461 68.9944 23.179C68.9222 22.2772 68.8862 21.3303 68.8862 20.3382V16.7128H72.8912V35.6514H69.7251L69.3732 33.5682C68.832 34.2536 68.1375 34.8308 67.2896 35.2997C66.4597 35.7506 65.4584 35.9761 64.2858 35.9761C62.5719 35.9761 61.3451 35.3719 60.6054 34.1634C59.8838 32.9369 59.523 31.1693 59.523 28.8606C59.523 27.093 59.7124 25.7042 60.0913 24.6941C60.4701 23.6841 61.0294 22.9716 61.7691 22.5568C62.5268 22.1419 63.4649 21.9435 64.5834 21.9615ZM63.6363 28.8335C63.6363 29.8977 63.7085 30.7094 63.8528 31.2685C64.0152 31.8276 64.2587 32.2064 64.5834 32.4048C64.9082 32.6032 65.3411 32.7024 65.8824 32.7024C66.4958 32.7024 67.0099 32.6122 67.4249 32.4319C67.8578 32.2515 68.3449 31.981 68.8862 31.6202V25.3434C68.3991 25.1991 67.93 25.0729 67.479 24.9647C67.046 24.8564 66.5499 24.8023 65.9906 24.8023C65.4314 24.8023 64.9713 24.9015 64.6105 25.0999C64.2677 25.2983 64.0152 25.6861 63.8528 26.2633C63.7085 26.8405 63.6363 27.6972 63.6363 28.8335Z" fill="black"/>
<path d="M82.6522 21.9345C84.33 21.9345 85.6199 22.2862 86.522 22.9896C87.424 23.6931 87.875 24.9647 87.875 26.8044V35.6514H84.7089L84.2759 33.5411C83.7888 34.1003 83.1303 34.6414 82.3004 35.1644C81.4706 35.6875 80.4513 35.949 79.2425 35.949C78.0338 35.949 77.0145 35.6334 76.1846 35.0021C75.3547 34.3708 74.9398 33.4329 74.9398 32.1884V30.8086C74.9398 29.7444 75.3006 28.9147 76.0223 28.3195C76.7439 27.7243 77.7361 27.4267 78.999 27.4267H83.87V26.8044C83.852 26.1551 83.6896 25.6951 83.3829 25.4246C83.0942 25.136 82.544 24.9917 81.7322 24.9917C81.0286 24.9917 80.1626 25.0188 79.1343 25.0729C78.106 25.109 77.0506 25.1631 75.9681 25.2352L75.6163 22.5838C76.2478 22.4756 76.9784 22.3764 77.8083 22.2862C78.6562 22.178 79.5041 22.0968 80.352 22.0427C81.2 21.9706 81.9667 21.9345 82.6522 21.9345ZM80.4874 33.0541C80.9744 33.0541 81.5157 32.9459 82.111 32.7295C82.7244 32.495 83.3107 32.1794 83.87 31.7826V29.6723H80.2438C79.7567 29.6903 79.4049 29.8165 79.1884 30.051C78.99 30.2855 78.8907 30.6011 78.8907 30.998V31.6473C78.8907 32.5852 79.423 33.0541 80.4874 33.0541Z" fill="black"/>
<path d="M99.4122 22.2862V24.9106H95.6777V31.3767C95.6777 31.8637 95.786 32.2154 96.0025 32.4319C96.2189 32.6303 96.5978 32.7295 97.139 32.7295H98.8709L99.3039 35.435C98.9612 35.5613 98.5552 35.6605 98.0862 35.7326C97.6171 35.8047 97.148 35.8589 96.679 35.8949C96.228 35.931 95.8401 35.949 95.5154 35.949C94.3066 35.949 93.3595 35.6334 92.6739 35.0021C92.0064 34.3528 91.6727 33.4419 91.6727 32.2695V24.9106H89.3454V22.4215L91.6727 22.3133V18.5796H95.6777V22.2862H99.4122Z" fill="black"/>
<path d="M103.99 16.3882C104.784 16.3882 105.18 16.785 105.18 17.5786V19.0396C105.18 19.8332 104.784 20.23 103.99 20.23H102.258C101.464 20.23 101.067 19.8332 101.067 19.0396V17.5786C101.067 16.785 101.464 16.3882 102.258 16.3882H103.99ZM105.099 22.2862V35.6514H101.148V22.2862H105.099Z" fill="black"/>
<path d="M114.31 21.9345C115.988 21.9345 117.332 22.169 118.342 22.6379C119.352 23.0888 120.074 23.8374 120.507 24.8835C120.958 25.9116 121.183 27.2824 121.183 28.9959C121.183 30.7094 120.958 32.0802 120.507 33.1083C120.074 34.1183 119.352 34.8488 118.342 35.2997C117.332 35.7506 115.988 35.9761 114.31 35.9761C112.632 35.9761 111.288 35.7506 110.278 35.2997C109.268 34.8488 108.537 34.1183 108.086 33.1083C107.653 32.0802 107.436 30.7094 107.436 28.9959C107.436 27.2824 107.653 25.9116 108.086 24.8835C108.537 23.8374 109.268 23.0888 110.278 22.6379C111.288 22.169 112.632 21.9345 114.31 21.9345ZM114.31 24.8294C113.606 24.8294 113.056 24.9466 112.659 25.1811C112.28 25.4156 112.01 25.8394 111.847 26.4527C111.685 27.0479 111.604 27.8956 111.604 28.9959C111.604 30.0781 111.685 30.9168 111.847 31.512C112.01 32.1072 112.28 32.5221 112.659 32.7565C113.056 32.973 113.606 33.0812 114.31 33.0812C115.014 33.0812 115.555 32.973 115.934 32.7565C116.331 32.5221 116.61 32.1072 116.773 31.512C116.935 30.9168 117.016 30.0781 117.016 28.9959C117.016 27.8956 116.935 27.0479 116.773 26.4527C116.61 25.8394 116.331 25.4156 115.934 25.1811C115.555 24.9466 115.014 24.8294 114.31 24.8294Z" fill="black"/>
<path d="M126.591 22.2862L126.943 24.3153C128.856 22.7281 130.768 21.9345 132.68 21.9345C135.206 21.9345 136.469 23.17 136.469 25.641V35.6514H132.464V26.8856C132.464 26.2904 132.356 25.8845 132.139 25.6681C131.923 25.4336 131.553 25.3164 131.029 25.3164C130.488 25.3164 129.938 25.4156 129.379 25.614C128.82 25.7943 128.152 26.0829 127.376 26.4797V35.6514H123.398V22.2862H126.591Z" fill="black"/>
<path d="M47.7882 22.2862L48.14 24.3153C50.0523 22.7281 51.9646 21.9345 53.877 21.9345C56.4027 21.9345 57.6655 23.17 57.6655 25.641V35.6514H53.6605V26.8856C53.6605 26.2904 53.5522 25.8845 53.3357 25.6681C53.1193 25.4336 52.7494 25.3164 52.2262 25.3164C51.685 25.3164 51.1348 25.4156 50.5755 25.614C50.0162 25.7943 49.3487 26.0829 48.573 26.4797V35.6514H44.595V22.2862H47.7882Z" fill="black"/>
</g>
<g style="mix-blend-mode:hard-light">
<path d="M140.844 31.6787C141.367 31.6787 141.728 31.7869 141.926 32.0034C142.143 32.2018 142.251 32.5625 142.251 33.0856V34.3842C142.251 34.9253 142.143 35.2951 141.926 35.4935C141.728 35.6919 141.367 35.7911 140.844 35.7911H139.815C139.292 35.7911 138.922 35.6919 138.706 35.4935C138.507 35.2951 138.408 34.9253 138.408 34.3842V33.0856C138.408 32.5625 138.507 32.2018 138.706 32.0034C138.922 31.7869 139.292 31.6787 139.815 31.6787H140.844Z" fill="black"/>
</g>
<g style="mix-blend-mode:hard-light">
<path d="M100.552 38.7087L96.1406 51.127C95.9241 51.7582 95.4912 52.0739 94.8417 52.0739H91.3779C90.7104 52.0739 90.2774 51.7582 90.0789 51.127L85.668 38.7087H89.8895L92.3521 47.0687C92.4603 47.4655 92.5595 47.8713 92.6497 48.2862C92.7399 48.701 92.8301 49.0978 92.9204 49.4766H93.2721C93.3624 49.0798 93.4616 48.683 93.5698 48.2862C93.6781 47.8713 93.7863 47.4655 93.8946 47.0687L96.3301 38.7087H100.552Z" fill="black"/>
<path d="M105.055 38.7087L105.407 40.7378C107.319 39.1506 109.232 38.3569 111.144 38.3569C113.67 38.3569 114.933 39.5925 114.933 42.0635V52.0739H110.928V43.308C110.928 42.7128 110.819 42.307 110.603 42.0905C110.386 41.8561 110.017 41.7388 109.493 41.7388C108.952 41.7388 108.402 41.838 107.843 42.0364C107.283 42.2168 106.616 42.5054 105.84 42.9022V52.0739H101.862V38.7087H105.055Z" fill="black"/>
</g>
</svg>
