<svg width="286" height="80" viewBox="0 0 286 80" fill="none" xmlns="http://www.w3.org/2000/svg">
<rect width="286" height="79.5" transform="translate(0 0.5)" fill="white"/>
<g clip-path="url(#clip0_1967_3807)">
<path d="M137.105 24.6296C137.105 27.8349 139.763 30.4715 142.993 30.4715C146.224 30.4715 148.881 27.8349 148.881 24.6296C148.881 21.4243 146.224 18.7876 142.993 18.7876C139.763 18.7876 137.105 21.4243 137.105 24.6296Z" fill="#241775"/>
<path d="M123.925 13.7203C129.239 4.62131 140.337 0.588808 150.185 4.00092L149.455 5.96548C145.808 4.7247 141.796 4.51791 137.836 5.55189C128.406 8.08514 122.257 16.8739 123.195 26.4898L125.748 26.2314C124.915 17.8562 130.281 10.2047 138.514 7.98173C146.746 5.81039 155.239 9.7912 158.782 17.4426L161.074 16.4086C159.094 12.1693 155.76 8.8606 151.8 6.94777L153.467 2.60506L152.321 2.08807C141.015 -2.56482 127.832 1.88128 121.736 12.4278C115.588 22.9744 118.298 36.5194 127.989 43.9123L129.552 41.8961C120.851 35.2787 118.454 23.1295 123.925 13.7203Z" fill="#241775"/>
<path d="M159.353 10.0508C165.71 17.0819 166.804 27.3182 162.01 35.5383C156.54 44.9992 144.764 48.98 134.604 44.7924L133.614 47.1188C136.636 48.3596 139.815 48.98 142.941 48.98C151.486 48.98 159.77 44.5339 164.251 36.8308C169.566 27.6801 168.367 16.2547 161.281 8.39648L159.353 10.0508Z" fill="#241775"/>
<path d="M124.915 32.7975C128.197 39.9836 135.335 44.378 142.943 44.378C144.662 44.378 146.381 44.1713 148.153 43.7059C157.531 41.1727 163.68 32.3839 162.742 22.768L160.189 23.0265C161.022 31.4016 155.656 39.1048 147.423 41.2761C139.66 43.3441 131.584 39.8803 127.728 32.9526L129.656 32.1254C130.959 34.4002 132.887 36.3647 135.283 37.7089C137.68 39.1048 140.337 39.7769 142.943 39.7769C147.059 39.7769 151.123 38.1225 154.093 34.9172L154.978 33.9349L151.383 30.8847C152.008 30.0575 152.53 29.0752 152.894 28.0412C154.353 23.8536 152.998 19.149 149.455 16.409L147.892 18.3736C150.55 20.4932 151.592 24.0087 150.497 27.2141C149.403 30.4194 146.329 32.539 142.943 32.5907V35.1239C145.443 35.1239 147.788 34.2451 149.612 32.6941L151.227 34.09C147.163 37.6572 141.275 38.2776 136.534 35.5375C136.378 35.4341 136.169 35.3308 136.013 35.2274L138.878 31.6601L137.888 30.8847C135.231 28.765 134.189 25.2495 135.283 22.0442C136.378 18.8388 139.452 16.7192 142.838 16.6675V14.1342C140.337 14.1342 137.941 15.0649 136.117 16.5641L134.606 15.1683C138.67 11.601 144.558 10.9806 149.351 13.7207C154.509 16.6675 156.906 22.7162 155.135 28.3514L157.583 29.0752C159.72 22.3027 156.854 15.0649 150.654 11.4976C144.453 7.93042 136.69 9.11948 131.792 14.3411L130.907 15.2716L134.45 18.3736C133.824 19.2008 133.303 20.1313 132.991 21.1653C131.688 24.9393 132.678 29.1269 135.492 31.9703L134.137 33.6247C130.75 30.3677 129.396 25.508 130.855 20.8551L128.406 20.1313C127.364 23.3883 127.52 26.8005 128.614 29.799L124.29 31.6085L124.915 32.7975Z" fill="#241775"/>
<path d="M116.251 56.3047V58.4343H119.307V67.5994H121.551V58.4343H124.623V56.3047H116.251Z" fill="#241775"/>
<path d="M129.744 62.9363H134.053V60.8387H129.744V58.4343H134.459V56.3047H127.501V67.5994H134.54V65.4694H129.744V62.9363Z" fill="#241775"/>
<path d="M139.991 56.3047H137.748V67.5994H144.332V65.4694H139.991V56.3047Z" fill="#241775"/>
<path d="M156.808 66.1306C157.962 64.9851 158.531 63.5971 158.531 61.9515C158.531 60.3059 157.962 58.9179 156.808 57.7886C155.653 56.643 154.255 56.0781 152.613 56.0781C150.971 56.0781 149.573 56.643 148.419 57.7886C147.281 58.9179 146.712 60.3059 146.712 61.9515C146.712 63.5971 147.281 64.9851 148.419 66.1306C149.573 67.26 150.971 67.8249 152.613 67.8249C154.255 67.8249 155.653 67.26 156.808 66.1306ZM149.996 64.6141C149.297 63.9201 148.939 63.0327 148.939 61.9515C148.939 60.8703 149.297 59.9829 149.996 59.2894C150.695 58.5954 151.573 58.2406 152.613 58.2406C153.654 58.2406 154.531 58.5954 155.231 59.2894C155.93 59.9829 156.287 60.8703 156.287 61.9515C156.287 63.0327 155.93 63.9201 155.231 64.6141C154.531 65.3076 153.654 65.6467 152.613 65.6467C151.573 65.6467 150.695 65.3076 149.996 64.6141Z" fill="#241775"/>
<path d="M165.619 67.8249C166.838 67.8249 167.829 67.5181 168.594 66.9051C169.358 66.2921 169.748 65.469 169.748 64.4202C169.748 63.7748 169.569 63.2099 169.325 62.8227C169.114 62.4354 168.594 62.0325 168.252 61.8224C168.089 61.7095 167.846 61.5967 167.537 61.4838C167.228 61.3547 166.984 61.2575 166.806 61.2094L166.025 60.9513C165.18 60.6931 164.611 60.4511 164.302 60.2411C164.009 60.0153 163.863 59.7248 163.863 59.3699C163.863 58.7083 164.432 58.2406 165.359 58.2406C166.35 58.2406 167.082 58.7245 167.537 59.6928L169.423 58.6116C168.643 57.0141 167.196 56.0781 165.359 56.0781C164.334 56.0781 163.44 56.3849 162.709 56.9979C161.977 57.5952 161.619 58.4178 161.619 59.4347C161.619 60.4673 161.993 61.2418 162.692 61.7581C163.408 62.2582 164.025 62.5002 165.05 62.807C165.976 63.0651 166.61 63.3071 166.968 63.5328C167.326 63.7424 167.504 64.0492 167.504 64.4526C167.504 65.1466 166.936 65.6467 165.684 65.6467C164.383 65.6467 163.505 65.0656 163.066 63.9201L161.148 65.0332C161.782 66.7598 163.359 67.8249 165.619 67.8249Z" fill="#241775"/>
<path d="M120.449 80.1685L118.628 75.4072H118.14L116.319 80.1685H116.82L117.26 78.9984H119.508L119.948 80.1685H120.449ZM118.384 75.9991L119.338 78.5493H117.429L118.384 75.9991Z" fill="#241775"/>
<path d="M126.789 80.2503C127.662 80.2503 128.454 79.788 128.84 79.0739L128.421 78.8359C128.123 79.4135 127.493 79.788 126.789 79.788C126.2 79.788 125.712 79.5976 125.34 79.2099C124.968 78.8221 124.778 78.3529 124.778 77.788C124.778 77.2236 124.968 76.7544 125.34 76.3667C125.712 75.9789 126.2 75.7885 126.789 75.7885C127.493 75.7885 128.123 76.1625 128.421 76.7407L128.84 76.4957C128.441 75.7816 127.662 75.3262 126.789 75.3262C126.071 75.3262 125.475 75.5642 125.008 76.0403C124.541 76.5164 124.304 77.1014 124.304 77.788C124.304 78.4751 124.541 79.0602 125.008 79.5362C125.475 80.0123 126.071 80.2503 126.789 80.2503Z" fill="#241775"/>
<path d="M136.9 80.1685L135.079 75.4072H134.591L132.77 80.1685H133.271L133.711 78.9984H135.959L136.399 80.1685H136.9ZM134.835 75.9991L135.79 78.5493H133.88L134.835 75.9991Z" fill="#241775"/>
<path d="M141.198 75.4072V80.1685H143.026C143.669 80.1685 144.204 79.9373 144.624 79.4813C145.051 79.019 145.261 78.4541 145.261 77.7876C145.261 77.1211 145.051 76.5567 144.624 76.1012C144.204 75.6384 143.669 75.4072 143.026 75.4072H141.198ZM141.672 79.7194V75.8563H143.026C143.548 75.8563 143.967 76.0399 144.299 76.4139C144.631 76.7878 144.8 77.2438 144.8 77.7876C144.8 78.3319 144.631 78.7878 144.299 79.1618C143.967 79.5358 143.548 79.7194 143.026 79.7194H141.672Z" fill="#241775"/>
<path d="M150.235 77.9918H152.334V77.5427H150.235V75.8563H152.503V75.4072H149.761V80.1685H152.537V79.7194H150.235V77.9918Z" fill="#241775"/>
<path d="M160.785 75.4072L159.208 78.06L157.63 75.4072H157.041V80.1685H157.515V76.1282L159.174 78.9169H159.241L160.9 76.1282V80.1685H161.374V75.4072H160.785Z" fill="#241775"/>
<path d="M169.03 75.4072L167.621 77.74L166.206 75.4072H165.671L167.378 78.2028V80.1685H167.852V78.2161L169.564 75.4072H169.03Z" fill="#241775"/>
</g>
<defs>
<clipPath id="clip0_1967_3807">
<rect width="53.4969" height="80" fill="white" transform="translate(116.251 0.25)"/>
</clipPath>
</defs>
</svg>
