<svg width="110" height="82" viewBox="0 0 110 82" fill="none" xmlns="http://www.w3.org/2000/svg">
<g style="mix-blend-mode:hard-light">
<path d="M29.3663 23.25V30.8072C29.3663 32.0819 29.205 33.1078 28.8826 33.8847C28.5721 34.6496 28.0645 35.2019 27.3599 35.5419C26.6553 35.8818 25.7119 36.0518 24.5296 36.0518C23.2756 36.0518 22.2724 35.8818 21.5201 35.5419C20.7677 35.2019 20.2243 34.6496 19.8899 33.8847C19.5675 33.1078 19.4062 32.0819 19.4062 30.8072V23.25H22.1291V30.8072C22.1291 31.5963 22.1948 32.2155 22.3262 32.6647C22.4695 33.1017 22.7024 33.4113 23.0248 33.5934C23.3592 33.7755 23.813 33.8665 24.3863 33.8665C24.9476 33.8665 25.3894 33.7755 25.7119 33.5934C26.0463 33.4113 26.2851 33.1017 26.4284 32.6647C26.5717 32.2155 26.6434 31.5963 26.6434 30.8072V23.25H29.3663Z" fill="black"/>
</g>
<path fill-rule="evenodd" clip-rule="evenodd" d="M35.4731 28.2773L36.2717 26.71H38.9409L36.5531 30.3968L35.4731 28.2773ZM34.2744 30.6298L34.0355 31.0986L34.2973 31.5979L34.5708 31.1411L34.2744 30.6298ZM35.4951 33.8827L36.4509 35.7058H39.1559L36.5768 31.8193L35.4951 33.8827Z" fill="black"/>
<path d="M33.5161 26.71L35.7523 31.0986L33.3369 35.7058H30.632L33.6892 31.0986L30.8469 26.71H33.5161Z" fill="black"/>
<g style="mix-blend-mode:hard-light">
<path d="M10.3179 34.5769C11.2613 34.5769 12.2346 34.5891 13.2378 34.6134C14.2529 34.6255 15.1725 34.6801 15.9965 34.7773L15.8532 36.7804H11.3748C10.7179 36.7804 10.3895 37.09 10.3895 37.7091V39.8943H15.1904V41.861H10.3895V47.1966H7.66663V37.1446C7.66663 36.3555 7.91145 35.7303 8.40109 35.2689C8.89073 34.8076 9.52965 34.5769 10.3179 34.5769Z" fill="black"/>
<path d="M21.0489 37.964C22.1595 37.964 23.0492 38.1219 23.718 38.4375C24.3868 38.741 24.8645 39.2448 25.1511 39.949C25.4497 40.6409 25.5989 41.5636 25.5989 42.7169C25.5989 43.8702 25.4497 44.7929 25.1511 45.4848C24.8645 46.1647 24.3868 46.6564 23.718 46.9599C23.0492 47.2634 22.1595 47.4151 21.0489 47.4151C19.9382 47.4151 19.0485 47.2634 18.3797 46.9599C17.7109 46.6564 17.2273 46.1647 16.9287 45.4848C16.6421 44.7929 16.4988 43.8702 16.4988 42.7169C16.4988 41.5636 16.6421 40.6409 16.9287 39.949C17.2273 39.2448 17.7109 38.741 18.3797 38.4375C19.0485 38.1219 19.9382 37.964 21.0489 37.964ZM21.0489 39.9125C20.5831 39.9125 20.2189 39.9914 19.9561 40.1493C19.7053 40.3071 19.5262 40.5924 19.4187 41.0051C19.3112 41.4058 19.2575 41.9764 19.2575 42.7169C19.2575 43.4453 19.3112 44.0098 19.4187 44.4104C19.5262 44.8111 19.7053 45.0903 19.9561 45.2481C20.2189 45.3938 20.5831 45.4666 21.0489 45.4666C21.5146 45.4666 21.8729 45.3938 22.1237 45.2481C22.3864 45.0903 22.5715 44.8111 22.679 44.4104C22.7865 44.0098 22.8402 43.4453 22.8402 42.7169C22.8402 41.9764 22.7865 41.4058 22.679 41.0051C22.5715 40.5924 22.3864 40.3071 22.1237 40.1493C21.8729 39.9914 21.5146 39.9125 21.0489 39.9125Z" fill="black"/>
<path d="M29.6446 38.2008V44.1191C29.6446 44.4954 29.7223 44.7625 29.8775 44.9203C30.0328 45.0782 30.2955 45.1571 30.6657 45.1571C30.9882 45.1571 31.3166 45.1024 31.651 44.9932C31.9854 44.8839 32.3854 44.7018 32.8512 44.4469V38.2008H35.5024V47.1966H33.4244L33.1916 45.8855C32.5706 46.4075 31.9615 46.796 31.3644 47.0509C30.7672 47.3059 30.1522 47.4333 29.5192 47.4333C27.8473 47.4333 27.0113 46.6017 27.0113 44.9385V38.2008H29.6446Z" fill="black"/>
<path d="M50.2535 37.9823C50.791 37.9701 51.3045 38.0308 51.7941 38.1644C52.2957 38.2979 52.7555 38.5104 53.1735 38.8017C53.1257 38.1947 53.1018 37.5574 53.1018 36.8896V34.4495H55.7531V47.1966H53.6572L53.4243 45.7944C53.066 46.2558 52.6062 46.6442 52.0449 46.9599C51.4956 47.2634 50.8328 47.4151 50.0565 47.4151C48.922 47.4151 48.1099 47.0084 47.6202 46.1951C47.1425 45.3695 46.9037 44.1798 46.9037 42.6259C46.9037 41.4361 47.0291 40.5013 47.2799 39.8215C47.5307 39.1416 47.9009 38.6621 48.3905 38.3829C48.8921 38.1037 49.5131 37.9701 50.2535 37.9823ZM49.6266 42.6076C49.6266 43.3239 49.6743 43.8702 49.7699 44.2466C49.8774 44.6229 50.0386 44.8778 50.2535 45.0114C50.4685 45.1449 50.7551 45.2117 51.1134 45.2117C51.5195 45.2117 51.8598 45.151 52.1345 45.0296C52.4211 44.9082 52.7436 44.7261 53.1018 44.4833V40.2585C52.7794 40.1614 52.4689 40.0764 52.1703 40.0036C51.8837 39.9307 51.5553 39.8943 51.1851 39.8943C50.8148 39.8943 50.5103 39.9611 50.2715 40.0946C50.0446 40.2282 49.8774 40.4892 49.7699 40.8777C49.6743 41.2662 49.6266 41.8428 49.6266 42.6076Z" fill="black"/>
<path d="M62.2146 37.964C63.3252 37.964 64.1791 38.2008 64.7762 38.6742C65.3734 39.1477 65.6719 40.0036 65.6719 41.2419V47.1966H63.576L63.2894 45.7762C62.967 46.1526 62.5311 46.5168 61.9817 46.8688C61.4324 47.2209 60.7576 47.3969 59.9575 47.3969C59.1573 47.3969 58.4826 47.1845 57.9332 46.7596C57.3839 46.3347 57.1092 45.7034 57.1092 44.8657V43.937C57.1092 43.2207 57.348 42.6623 57.8257 42.2616C58.3034 41.861 58.9603 41.6607 59.7962 41.6607H63.0207V41.2419C63.0088 40.8048 62.9013 40.4953 62.6983 40.3132C62.5072 40.1189 62.1429 40.0218 61.6055 40.0218C61.1398 40.0218 60.5665 40.04 59.8858 40.0764C59.2051 40.1007 58.5065 40.1371 57.7899 40.1857L57.557 38.4011C57.975 38.3282 58.4587 38.2615 59.008 38.2008C59.5693 38.1279 60.1306 38.0733 60.6919 38.0369C61.2532 37.9883 61.7608 37.964 62.2146 37.964ZM60.7815 45.4484C61.1039 45.4484 61.4622 45.3756 61.8563 45.2299C62.2624 45.0721 62.6505 44.8596 63.0207 44.5926V43.1722H60.6203C60.2978 43.1843 60.0649 43.2693 59.9216 43.4271C59.7903 43.5849 59.7246 43.7974 59.7246 44.0645V44.5015C59.7246 45.1328 60.0769 45.4484 60.7815 45.4484Z" fill="black"/>
<path d="M73.3092 38.2008V39.9672H70.8371V44.3194C70.8371 44.6472 70.9088 44.8839 71.0521 45.0296C71.1954 45.1631 71.4462 45.2299 71.8044 45.2299H72.9509L73.2375 47.0509C73.0106 47.1359 72.7419 47.2027 72.4314 47.2512C72.1209 47.2998 71.8104 47.3362 71.4999 47.3605C71.2013 47.3848 70.9446 47.3969 70.7296 47.3969C69.9295 47.3969 69.3025 47.1845 68.8487 46.7596C68.4068 46.3225 68.1859 45.7094 68.1859 44.9203V39.9672H66.6453V38.2918L68.1859 38.219V35.706H70.8371V38.2008H73.3092Z" fill="black"/>
<path d="M76.3394 34.231C76.8649 34.231 77.1276 34.498 77.1276 35.0322V36.0156C77.1276 36.5497 76.8649 36.8168 76.3394 36.8168H75.1929C74.6675 36.8168 74.4047 36.5497 74.4047 36.0156V35.0322C74.4047 34.498 74.6675 34.231 75.1929 34.231H76.3394ZM77.0739 38.2008V47.1966H74.4585V38.2008H77.0739Z" fill="black"/>
<path d="M83.1711 37.964C84.2818 37.964 85.1715 38.1219 85.8403 38.4375C86.509 38.741 86.9867 39.2448 87.2734 39.949C87.5719 40.6409 87.7212 41.5636 87.7212 42.7169C87.7212 43.8702 87.5719 44.7929 87.2734 45.4849C86.9867 46.1647 86.509 46.6564 85.8403 46.9599C85.1715 47.2634 84.2818 47.4151 83.1711 47.4151C82.0605 47.4151 81.1708 47.2634 80.502 46.9599C79.8332 46.6564 79.3495 46.1647 79.051 45.4849C78.7643 44.7929 78.621 43.8702 78.621 42.7169C78.621 41.5636 78.7643 40.6409 79.051 39.949C79.3495 39.2448 79.8332 38.741 80.502 38.4375C81.1708 38.1219 82.0605 37.964 83.1711 37.964ZM83.1711 39.9125C82.7054 39.9125 82.3411 39.9914 82.0784 40.1493C81.8276 40.3071 81.6484 40.5924 81.541 41.0051C81.4335 41.4058 81.3797 41.9764 81.3797 42.7169C81.3797 43.4453 81.4335 44.0098 81.541 44.4105C81.6484 44.8111 81.8276 45.0903 82.0784 45.2481C82.3411 45.3938 82.7054 45.4666 83.1711 45.4666C83.6369 45.4666 83.9951 45.3938 84.2459 45.2481C84.5087 45.0903 84.6938 44.8111 84.8013 44.4105C84.9087 44.0098 84.9625 43.4453 84.9625 42.7169C84.9625 41.9764 84.9087 41.4058 84.8013 41.0051C84.6938 40.5924 84.5087 40.3071 84.2459 40.1493C83.9951 39.9914 83.6369 39.9125 83.1711 39.9125Z" fill="black"/>
<path d="M91.3011 38.2008L91.534 39.5665C92.7999 38.4982 94.0658 37.964 95.3317 37.964C97.0037 37.964 97.8396 38.7956 97.8396 40.4588V47.1966H95.1884V41.2965C95.1884 40.8959 95.1168 40.6227 94.9735 40.4771C94.8301 40.3192 94.5853 40.2403 94.239 40.2403C93.8807 40.2403 93.5165 40.3071 93.1462 40.4406C92.776 40.562 92.3342 40.7563 91.8206 41.0234V47.1966H89.1873V38.2008H91.3011Z" fill="black"/>
<path d="M39.1356 38.2008L39.3685 39.5665C40.6344 38.4982 41.9003 37.964 43.1662 37.964C44.8381 37.964 45.6741 38.7956 45.6741 40.4588V47.1966H43.0229V41.2965C43.0229 40.8959 42.9512 40.6227 42.8079 40.477C42.6646 40.3192 42.4198 40.2403 42.0734 40.2403C41.7152 40.2403 41.3509 40.3071 40.9807 40.4406C40.6105 40.562 40.1686 40.7563 39.6551 41.0234V47.1966H37.0218V38.2008H39.1356Z" fill="black"/>
</g>
<g style="mix-blend-mode:hard-light">
<path d="M100.735 44.5229C101.081 44.5229 101.32 44.5958 101.452 44.7415C101.595 44.875 101.667 45.1178 101.667 45.4699V46.344C101.667 46.7082 101.595 46.957 101.452 47.0906C101.32 47.2241 101.081 47.2909 100.735 47.2909H100.054C99.7081 47.2909 99.4633 47.2241 99.32 47.0906C99.1886 46.957 99.1229 46.7082 99.1229 46.344V45.4699C99.1229 45.1178 99.1886 44.875 99.32 44.7415C99.4633 44.5958 99.7081 44.5229 100.054 44.5229H100.735Z" fill="black"/>
</g>
<g style="mix-blend-mode:hard-light">
<path d="M74.063 49.2543L71.1431 57.6128C70.9997 58.0377 70.7131 58.2501 70.2832 58.2501H67.9902C67.5484 58.2501 67.2618 58.0377 67.1304 57.6128L64.2104 49.2543H67.005L68.6351 54.8813C68.7068 55.1483 68.7725 55.4215 68.8322 55.7007C68.8919 55.9799 68.9516 56.247 69.0113 56.502H69.2442C69.3039 56.2349 69.3696 55.9678 69.4413 55.7007C69.5129 55.4215 69.5846 55.1483 69.6562 54.8813L71.2684 49.2543H74.063Z" fill="black"/>
<path d="M77.0444 49.2543L77.2772 50.6201C78.5431 49.5517 79.809 49.0176 81.0749 49.0176C82.7469 49.0176 83.5829 49.8492 83.5829 51.5124V58.2501H80.9316V52.35C80.9316 51.9494 80.86 51.6763 80.7167 51.5306C80.5734 51.3728 80.3285 51.2939 79.9822 51.2939C79.6239 51.2939 79.2597 51.3606 78.8895 51.4942C78.5193 51.6156 78.0774 51.8098 77.5639 52.0769V58.2501H74.9305V49.2543H77.0444Z" fill="black"/>
</g>
</svg>
