<svg width="213" height="44" viewBox="0 0 213 44" fill="none" xmlns="http://www.w3.org/2000/svg">
<path d="M17.4415 0.0916008C13.1049 -0.380501 8.72073 0.988595 5.38493 3.82121C1.95382 6.79545 0 11.0444 0 15.5293C0 23.0358 4.71777 29.1259 11.9612 31.0143C12.1042 31.0615 15.5829 32.0057 15.9165 35.452V42.1087C15.9165 43.0529 16.679 43.8082 17.6321 43.8082C18.5852 43.8082 19.3476 43.0529 19.3476 42.1087V35.4048V35.2632C18.8711 29.3147 13.0573 27.804 12.819 27.7096C5.90913 25.9156 3.43111 20.2504 3.43111 15.5293C3.43111 12.0358 4.95604 8.68386 7.67233 6.37056C10.2457 4.15168 13.6768 3.11305 17.0602 3.44352C20.0624 3.774 22.6834 5.1903 24.399 7.5036C27.4965 11.6581 26.7817 17.3705 22.7311 20.8169C21.3491 21.9971 19.3476 22.5164 17.2032 22.2804C15.0587 22.0443 13.1049 21.1001 11.8659 19.6838C9.91208 17.465 10.055 13.6409 12.1518 11.5637C14.0103 9.72248 17.0602 9.95853 18.5375 11.422C19.2523 12.1302 19.5859 12.9328 19.4906 13.7826C19.4429 14.5379 19.0617 15.1517 18.4898 15.5765C18.061 15.907 17.3938 16.0486 16.9173 15.907C16.7266 15.8598 16.536 15.7654 16.4407 15.4349C16.0595 14.5851 15.0587 14.1602 14.201 14.4907C13.3432 14.8684 12.9143 15.8598 13.2479 16.7096C13.7721 17.9371 14.7252 18.7868 15.9642 19.1645C17.3938 19.5894 19.157 19.2589 20.4437 18.3147C21.8733 17.3233 22.7311 15.7654 22.874 14.0186C23.017 12.1774 22.3022 10.3362 20.9202 8.96712C17.9657 6.04009 12.7237 6.0873 9.67381 9.10875C6.33801 12.4607 6.09974 18.2675 9.19727 21.8555C11.0081 23.9327 13.7721 25.3018 16.7743 25.5851C19.8718 25.9156 22.8264 25.0658 24.9232 23.319C30.3558 18.6924 31.3088 10.9499 27.0676 5.37914C24.8755 2.45211 21.3968 0.516493 17.4415 0.0916008Z" fill="white"/>
<path d="M42.0304 26.4345V14.5375C42.0304 14.4431 42.0781 14.3959 42.1257 14.3015C42.1734 14.2542 42.2687 14.207 42.364 14.207H44.6037C44.699 14.207 44.7467 14.2542 44.842 14.3015C44.8897 14.3487 44.9373 14.4431 44.9373 14.5375V24.074H49.1785C49.2738 24.074 49.3215 24.1212 49.4168 24.1684C49.4645 24.2156 49.5121 24.31 49.5121 24.4044V26.4345C49.5121 26.5289 49.4645 26.5761 49.4168 26.6705C49.3691 26.7177 49.2738 26.7649 49.1785 26.7649H42.364C42.2687 26.7649 42.221 26.7177 42.1257 26.6705C42.0304 26.6233 42.0304 26.5289 42.0304 26.4345Z" fill="white"/>
<path d="M51.6578 20.4805C51.6578 20.1028 51.7055 19.6779 51.7531 19.3002C51.8008 18.9226 51.8961 18.4977 52.0867 18.0728C52.2297 17.6479 52.4203 17.223 52.6586 16.8453C52.8968 16.4676 53.1828 16.0899 53.5164 15.7595C53.8499 15.429 54.2312 15.0985 54.6601 14.8625C55.0889 14.6264 55.5655 14.3904 56.1373 14.2487C56.7092 14.1071 57.3287 14.0127 57.9958 14.0127C58.9013 14.0127 59.7591 14.1543 60.4739 14.4376C61.1887 14.7208 61.8082 15.0985 62.2847 15.5234C62.7613 15.9483 63.1425 16.4676 63.4284 17.0814C63.7144 17.6479 63.9526 18.2144 64.0956 18.7809C64.2386 19.3474 64.2862 19.914 64.2862 20.4805C64.2862 20.9054 64.2386 21.2831 64.1909 21.708C64.1432 22.1328 64.0479 22.5105 63.8573 22.9354C63.7144 23.3603 63.5237 23.7852 63.3331 24.1629C63.0949 24.5406 62.8566 24.9183 62.523 25.2487C62.1894 25.5792 61.8082 25.9097 61.3793 26.1457C60.9504 26.3818 60.4739 26.6178 59.902 26.7594C59.3302 26.9011 58.7107 26.9955 58.0435 26.9955C57.3763 26.9955 56.7568 26.9011 56.185 26.7594C55.6131 26.6178 55.1366 26.429 54.7077 26.1457C54.2788 25.9097 53.8976 25.5792 53.564 25.2487C53.2304 24.9183 52.9445 24.5406 52.7062 24.1629C52.468 23.7852 52.325 23.3603 52.1344 22.9354C51.9914 22.5105 51.8961 22.0856 51.8008 21.708C51.7055 21.3303 51.6578 20.8582 51.6578 20.4805ZM54.6124 20.4805C54.6124 20.6693 54.6124 20.8582 54.6601 21.0942C54.7077 21.3303 54.7554 21.5663 54.803 21.8968C54.8983 22.1801 54.9936 22.4633 55.1843 22.7466C55.3749 23.0298 55.5655 23.2659 55.7561 23.5019C55.9944 23.738 56.2803 23.9268 56.6615 24.0685C57.0428 24.2101 57.4717 24.3045 57.9005 24.3045C58.2818 24.3045 58.663 24.2573 58.9966 24.1629C59.3302 24.0685 59.6161 23.9268 59.8067 23.738C60.045 23.5492 60.2356 23.3603 60.3786 23.1243C60.5692 22.8882 60.6645 22.6522 60.7598 22.4161C60.8551 22.1801 60.9504 21.944 60.9981 21.708C61.0457 21.4719 61.0934 21.2359 61.0934 21.047C61.0934 20.8582 61.141 20.7165 61.141 20.5277C61.141 20.2917 61.141 20.0556 61.0934 19.7723C61.0457 19.4891 60.9504 19.2058 60.8075 18.8281C60.6645 18.4505 60.4739 18.12 60.2356 17.8367C59.9973 17.5535 59.6638 17.3174 59.2825 17.0814C58.8536 16.8925 58.3771 16.7509 57.8052 16.7509C57.2334 16.7509 56.7568 16.8453 56.328 17.0814C55.8991 17.2702 55.5655 17.5535 55.3272 17.8367C55.0889 18.12 54.8983 18.4505 54.7554 18.8281C54.6124 19.2058 54.5171 19.5363 54.4694 19.7723C54.6124 20.0084 54.6124 20.2444 54.6124 20.4805Z" fill="white"/>
<path d="M67.0916 26.4345V14.5375C67.0916 14.4431 67.1392 14.3959 67.1869 14.3015C67.2345 14.2542 67.3298 14.207 67.4251 14.207H69.6649C69.7602 14.207 69.8078 14.2542 69.9032 14.3015C69.9508 14.3487 69.9985 14.4431 69.9985 14.5375V24.074H74.2397C74.335 24.074 74.3827 24.1212 74.478 24.1684C74.5256 24.2156 74.5733 24.31 74.5733 24.4044V26.4345C74.5733 26.5289 74.5256 26.5761 74.478 26.6705C74.4303 26.7177 74.335 26.7649 74.2397 26.7649H67.4251C67.3298 26.7649 67.2822 26.7177 67.1869 26.6705C67.1392 26.6233 67.0916 26.5289 67.0916 26.4345Z" fill="white"/>
<path d="M77.769 26.4345V14.5375C77.769 14.4431 77.8167 14.3959 77.8644 14.3015C77.912 14.2542 78.0073 14.207 78.1026 14.207H80.3424C80.4377 14.207 80.4853 14.2542 80.5806 14.3015C80.6283 14.3487 80.676 14.4431 80.676 14.5375V24.074H84.9172C85.0125 24.074 85.0601 24.1212 85.1555 24.1684C85.2031 24.2156 85.2508 24.31 85.2508 24.4044V26.4345C85.2508 26.5289 85.2031 26.5761 85.1555 26.6705C85.1078 26.7177 85.0125 26.7649 84.9172 26.7649H78.1026C78.0073 26.7649 77.9597 26.7177 77.8644 26.6705C77.769 26.6233 77.769 26.5289 77.769 26.4345Z" fill="white"/>
<path d="M86.1116 14.4903C86.1116 14.4431 86.064 14.4431 86.064 14.3959C86.064 14.3487 86.064 14.3487 86.1116 14.3015C86.1593 14.2542 86.2069 14.207 86.2546 14.207H88.8279C89.0185 14.207 89.2091 14.3015 89.3044 14.4903L91.6872 18.4087L94.0699 14.4903C94.1652 14.3015 94.3081 14.207 94.5464 14.207H97.1197C97.1674 14.207 97.2627 14.2542 97.3104 14.3015C97.3104 14.3487 97.358 14.3487 97.358 14.3959C97.358 14.4431 97.358 14.4431 97.3104 14.4903L93.1644 21.1941V26.4345C93.1644 26.5289 93.1168 26.5761 93.0691 26.6705C93.0215 26.7177 92.9262 26.7649 92.8309 26.7649H90.6388C90.5435 26.7649 90.4958 26.7177 90.4005 26.6705C90.3528 26.6233 90.3052 26.5289 90.3052 26.4345V21.2413L86.1116 14.4903Z" fill="white"/>
<path d="M100.412 26.4345V14.5375C100.412 14.4431 100.46 14.3959 100.508 14.3015C100.555 14.2542 100.651 14.207 100.746 14.207H105.321C105.988 14.207 106.607 14.3015 107.132 14.4903C107.656 14.6791 108.085 14.9152 108.466 15.1984C108.8 15.4817 109.085 15.8122 109.324 16.1899C109.562 16.5675 109.705 16.9452 109.8 17.2757C109.896 17.6534 109.943 17.9838 109.943 18.3615C109.943 19.1641 109.705 19.8723 109.276 20.5332C108.847 21.1941 108.275 21.6662 107.608 21.9967C106.941 22.3272 106.274 22.516 105.511 22.516H103.319V26.4345C103.319 26.5289 103.272 26.5761 103.224 26.6705C103.176 26.7177 103.081 26.7649 102.986 26.7649H100.746C100.651 26.7649 100.603 26.7177 100.508 26.6705C100.46 26.6233 100.412 26.5289 100.412 26.4345ZM103.319 19.8723H105.416C105.654 19.8723 105.845 19.825 106.036 19.7306C106.226 19.6362 106.369 19.5418 106.464 19.4474C106.56 19.3529 106.655 19.2113 106.75 19.0697C106.798 18.9281 106.846 18.7864 106.893 18.692C106.941 18.5976 106.941 18.4559 106.941 18.3615C106.941 18.2199 106.941 18.0783 106.893 17.8894C106.846 17.7006 106.75 17.559 106.655 17.4173C106.56 17.2757 106.369 17.1341 106.179 17.0396C105.94 16.9452 105.702 16.898 105.368 16.898H103.319V19.8723Z" fill="white"/>
<path d="M112.034 20.4805C112.034 20.1028 112.082 19.6779 112.129 19.3002C112.177 18.9226 112.272 18.4977 112.463 18.0728C112.606 17.6479 112.797 17.223 113.035 16.8453C113.273 16.4676 113.559 16.0899 113.893 15.7595C114.226 15.429 114.607 15.0985 115.036 14.8625C115.465 14.6264 115.942 14.3904 116.514 14.2487C117.085 14.1071 117.705 14.0127 118.372 14.0127C119.277 14.0127 120.135 14.1543 120.85 14.4376C121.565 14.7208 122.184 15.0985 122.661 15.5234C123.137 15.9483 123.519 16.4676 123.805 17.0814C124.091 17.6479 124.329 18.2144 124.472 18.7809C124.615 19.3474 124.662 19.914 124.662 20.4805C124.662 20.9054 124.615 21.2831 124.567 21.708C124.519 22.1328 124.424 22.5105 124.234 22.9354C124.091 23.3603 123.9 23.7852 123.709 24.1629C123.471 24.5406 123.233 24.9183 122.899 25.2487C122.566 25.5792 122.184 25.9097 121.756 26.1457C121.327 26.3818 120.85 26.6178 120.278 26.7594C119.706 26.9011 119.087 26.9955 118.42 26.9955C117.753 26.9955 117.133 26.9011 116.561 26.7594C115.989 26.6178 115.513 26.429 115.084 26.1457C114.655 25.9097 114.274 25.5792 113.94 25.2487C113.607 24.9183 113.321 24.5406 113.082 24.1629C112.844 23.7852 112.701 23.3603 112.511 22.9354C112.368 22.5105 112.272 22.0856 112.177 21.708C112.034 21.2831 112.034 20.8582 112.034 20.4805ZM114.941 20.4805C114.941 20.6693 114.941 20.8582 114.989 21.0942C115.036 21.3303 115.084 21.5663 115.132 21.8968C115.227 22.1801 115.322 22.4633 115.513 22.7466C115.703 23.0298 115.894 23.2659 116.085 23.5019C116.323 23.738 116.609 23.9268 116.99 24.0685C117.371 24.2101 117.8 24.3045 118.229 24.3045C118.61 24.3045 118.992 24.2573 119.325 24.1629C119.659 24.0685 119.945 23.9268 120.135 23.738C120.374 23.5492 120.564 23.3603 120.707 23.1243C120.898 22.8882 120.993 22.6522 121.088 22.4161C121.184 22.1801 121.279 21.944 121.327 21.708C121.374 21.4719 121.422 21.2359 121.422 21.047C121.422 20.8582 121.47 20.7165 121.47 20.5277C121.47 20.2917 121.47 20.0556 121.422 19.7723C121.374 19.4891 121.279 19.2058 121.136 18.8281C120.993 18.4505 120.802 18.12 120.564 17.8367C120.326 17.5535 119.992 17.3174 119.611 17.0814C119.182 16.8925 118.706 16.7509 118.134 16.7509C117.562 16.7509 117.085 16.8453 116.657 17.0814C116.228 17.2702 115.894 17.5535 115.656 17.8367C115.418 18.12 115.227 18.4505 115.084 18.8281C114.941 19.2058 114.846 19.5363 114.798 19.7723C114.989 20.0084 114.941 20.2444 114.941 20.4805Z" fill="white"/>
<path d="M127.477 26.4345V14.5375C127.477 14.4431 127.524 14.3959 127.572 14.3015C127.62 14.2542 127.715 14.207 127.81 14.207H132.385C133.052 14.207 133.672 14.3015 134.196 14.4903C134.72 14.6791 135.149 14.9152 135.53 15.1984C135.864 15.4817 136.15 15.8122 136.388 16.1899C136.626 16.5675 136.769 16.9452 136.865 17.2757C136.96 17.6534 137.008 17.9838 137.008 18.3615C137.008 19.1641 136.769 19.8723 136.34 20.5332C135.911 21.1941 135.34 21.6662 134.672 21.9967C134.005 22.3272 133.338 22.516 132.576 22.516H130.384V26.4345C130.384 26.5289 130.336 26.5761 130.288 26.6705C130.241 26.7649 130.145 26.7649 130.05 26.7649H127.81C127.715 26.7649 127.667 26.7177 127.572 26.6705C127.477 26.6233 127.477 26.5289 127.477 26.4345ZM130.384 19.8723H132.48C132.719 19.8723 132.909 19.825 133.1 19.7306C133.29 19.6362 133.433 19.5418 133.529 19.4474C133.624 19.3529 133.719 19.2113 133.815 19.0697C133.862 18.9281 133.91 18.7864 133.958 18.692C134.005 18.5976 134.005 18.4559 134.005 18.3615C134.005 18.2199 134.005 18.0783 133.958 17.8894C133.91 17.7006 133.815 17.559 133.719 17.4173C133.624 17.2757 133.433 17.1341 133.243 17.0396C133.005 16.9452 132.766 16.898 132.433 16.898H130.384V19.8723Z" fill="white"/>
<path d="M137.051 25.2985C137.051 24.8736 137.194 24.4959 137.528 24.1655C137.814 23.835 138.195 23.6934 138.624 23.6934C139.053 23.6934 139.386 23.835 139.72 24.1655C140.006 24.4487 140.149 24.8264 140.149 25.2985C140.149 25.7234 140.006 26.1011 139.72 26.3843C139.434 26.6676 139.053 26.8564 138.624 26.8564C138.195 26.8564 137.861 26.7148 137.528 26.3843C137.194 26.1011 137.051 25.7234 137.051 25.2985Z" fill="white"/>
<path d="M144.967 26.4345V14.5375C144.967 14.4431 145.014 14.3959 145.062 14.3015C145.11 14.2542 145.205 14.207 145.3 14.207H149.494C150.161 14.207 150.78 14.2542 151.352 14.3959C151.924 14.5375 152.401 14.7263 152.83 14.9624C153.258 15.1984 153.64 15.4817 153.973 15.8122C154.307 16.1426 154.593 16.4731 154.783 16.8508C155.022 17.2285 155.165 17.6062 155.308 18.0311C155.45 18.4559 155.546 18.8336 155.641 19.2585C155.689 19.6362 155.736 20.0611 155.736 20.4388C155.736 21.0053 155.689 21.5718 155.546 22.1383C155.403 22.7049 155.212 23.2714 154.926 23.7907C154.64 24.3572 154.259 24.8293 153.783 25.2542C153.306 25.6791 152.734 26.0096 151.972 26.2928C151.257 26.5761 150.399 26.7177 149.494 26.7177H145.3C145.205 26.7177 145.157 26.6705 145.062 26.6233C144.967 26.6233 144.967 26.5289 144.967 26.4345ZM147.826 24.074H149.494C149.875 24.074 150.256 24.0268 150.59 23.9323C150.923 23.8379 151.209 23.6963 151.448 23.5547C151.686 23.413 151.876 23.177 152.067 22.9881C152.258 22.7521 152.353 22.5632 152.496 22.3272C152.591 22.0911 152.687 21.8551 152.734 21.619C152.782 21.383 152.829 21.1469 152.877 21.0053C152.877 20.8165 152.925 20.6748 152.925 20.5332C152.925 20.3444 152.925 20.1555 152.877 19.9195C152.829 19.7306 152.782 19.4474 152.734 19.1641C152.639 18.8808 152.544 18.5976 152.353 18.3615C152.21 18.1255 151.972 17.8894 151.781 17.6534C151.543 17.4173 151.257 17.2757 150.876 17.1341C150.494 16.9924 150.066 16.9452 149.637 16.9452H147.969V24.074H147.826Z" fill="white"/>
<path d="M158.644 26.4345V14.5375C158.644 14.4431 158.692 14.3959 158.74 14.3015C158.787 14.2542 158.883 14.207 158.978 14.207H167.079C167.174 14.207 167.222 14.2542 167.317 14.3015C167.365 14.3487 167.413 14.4431 167.413 14.5375V16.5675C167.413 16.662 167.365 16.7092 167.317 16.8036C167.27 16.8508 167.174 16.898 167.079 16.898H161.551V19.2585H165.84C165.935 19.2585 165.983 19.3057 166.078 19.3529C166.126 19.4002 166.174 19.4946 166.174 19.589V21.619C166.174 21.7135 166.126 21.7607 166.078 21.8551C166.031 21.9023 165.935 21.9495 165.84 21.9495H161.551V24.074H167.079C167.174 24.074 167.222 24.1212 167.317 24.1684C167.365 24.2156 167.413 24.31 167.413 24.4044V26.4345C167.413 26.5289 167.365 26.5761 167.317 26.6705C167.27 26.7177 167.174 26.7649 167.079 26.7649H158.978C158.883 26.7649 158.835 26.7177 158.74 26.6705C158.692 26.6233 158.644 26.5289 158.644 26.4345Z" fill="white"/>
<path d="M169.701 25.4913C169.701 25.4441 169.701 25.3969 169.701 25.3969C169.701 25.3496 169.701 25.3024 169.749 25.2552L170.75 23.414C170.797 23.3196 170.845 23.2724 170.94 23.2724C171.036 23.2252 171.131 23.2724 171.179 23.2724C172.561 23.8861 173.657 24.2166 174.514 24.2166C174.991 24.2166 175.42 24.1222 175.753 23.9333C176.087 23.7445 176.278 23.4612 176.278 23.178C176.278 23.0363 176.23 22.8947 176.135 22.7531C176.039 22.6115 175.944 22.517 175.849 22.4226C175.753 22.3282 175.563 22.2338 175.372 22.1393C175.182 22.0449 174.991 21.9505 174.8 21.9033C174.61 21.8561 174.419 21.7617 174.085 21.6672C173.085 21.3368 172.322 21.0535 171.893 20.8175C170.797 20.2509 170.13 19.4012 169.987 18.3625C169.94 18.1737 169.94 17.9849 169.94 17.796C169.94 16.663 170.321 15.7188 171.083 15.0578C171.846 14.3969 172.846 14.0664 174.085 14.0664C175.563 14.0664 177.088 14.4441 178.66 15.1522C178.851 15.2467 178.899 15.3883 178.803 15.5771L177.993 17.4183C177.945 17.5128 177.898 17.56 177.803 17.6072C177.707 17.6544 177.612 17.6544 177.564 17.6072C176.039 17.0406 174.943 16.8046 174.276 16.8046C173.847 16.8046 173.514 16.899 173.228 17.0406C172.942 17.1823 172.846 17.4183 172.846 17.7016C172.846 17.796 172.846 17.8904 172.894 17.9376C172.942 18.0321 172.989 18.0793 173.037 18.1737C173.085 18.2209 173.18 18.3153 173.228 18.3625C173.275 18.4097 173.371 18.5042 173.514 18.5514C173.657 18.5986 173.752 18.6458 173.847 18.693C173.943 18.7402 174.085 18.7874 174.228 18.8346C174.371 18.8818 174.514 18.9291 174.61 18.9763C174.705 19.0235 174.848 19.0707 175.086 19.1179C175.277 19.1651 175.42 19.2595 175.563 19.2595C175.992 19.4012 176.325 19.5428 176.611 19.6844C176.897 19.8261 177.231 19.9677 177.564 20.2037C177.898 20.4398 178.184 20.6758 178.422 20.9119C178.66 21.1479 178.803 21.4784 178.994 21.8089C179.137 22.1866 179.232 22.5642 179.232 23.0363C179.232 24.1222 178.803 25.0664 177.898 25.7745C177.04 26.5299 175.896 26.8604 174.514 26.8604C173.657 26.8604 172.894 26.7659 172.132 26.5771C171.369 26.3883 170.607 26.0578 169.797 25.6801C169.749 25.6801 169.701 25.5857 169.701 25.4913Z" fill="white"/>
<path d="M182.135 26.4345V14.5375C182.135 14.4431 182.182 14.3959 182.23 14.3015C182.278 14.2542 182.373 14.207 182.468 14.207H184.708C184.803 14.207 184.851 14.2542 184.946 14.3015C184.994 14.3487 185.042 14.4431 185.042 14.5375V26.4345C185.042 26.5289 184.994 26.5761 184.946 26.6705C184.899 26.7177 184.803 26.7649 184.708 26.7649H182.468C182.373 26.7649 182.325 26.7177 182.23 26.6705C182.135 26.6233 182.135 26.5289 182.135 26.4345Z" fill="white"/>
<path d="M187.897 20.4805C187.897 20.1028 187.945 19.6779 187.992 19.3002C188.04 18.9226 188.135 18.4977 188.326 18.0728C188.469 17.6479 188.66 17.223 188.898 16.8453C189.136 16.4676 189.422 16.0899 189.756 15.7595C190.089 15.429 190.47 15.0985 190.899 14.8625C191.328 14.6264 191.805 14.3904 192.377 14.2487C192.948 14.1071 193.568 14.0127 194.235 14.0127C195.951 14.0127 197.476 14.6736 198.81 15.9483C198.858 15.9955 198.905 16.0899 198.905 16.1844C198.905 16.2788 198.858 16.3732 198.81 16.4204L197.428 17.8839C197.38 17.9311 197.285 17.9784 197.19 17.9784C197.094 17.9784 197.047 17.9784 196.951 17.8839C196.57 17.5535 196.094 17.2702 195.569 17.0341C195.045 16.7981 194.569 16.7037 194.14 16.7037C193.759 16.7037 193.377 16.7509 193.044 16.8453C192.71 16.9397 192.424 17.0814 192.186 17.2702C191.948 17.459 191.757 17.6479 191.566 17.8839C191.376 18.12 191.281 18.356 191.138 18.5449C191.042 18.7809 190.947 19.017 190.899 19.253C190.852 19.4891 190.804 19.7251 190.756 19.914C190.756 20.1028 190.709 20.2444 190.709 20.4333C190.709 20.5749 190.709 20.7638 190.756 20.9526C190.756 21.1414 190.804 21.3303 190.899 21.6135C190.947 21.8496 191.042 22.1328 191.138 22.3689C191.233 22.605 191.376 22.841 191.566 23.0771C191.757 23.3131 191.948 23.5019 192.186 23.6908C192.424 23.8796 192.71 24.0213 193.044 24.1157C193.377 24.2101 193.759 24.2573 194.14 24.2573C194.473 24.2573 194.759 24.2101 195.141 24.1157C195.474 24.0213 195.76 23.8796 195.951 23.738V22.5577H193.902C193.806 22.5577 193.759 22.5105 193.663 22.4633C193.616 22.4161 193.568 22.3217 193.568 22.2273V20.1972C193.568 20.1028 193.616 20.0556 193.663 19.9612C193.711 19.914 193.806 19.8668 193.902 19.8668H198.572C198.667 19.8668 198.715 19.914 198.81 19.9612C198.858 20.0084 198.905 20.1028 198.905 20.1972V24.635C198.905 24.871 198.81 25.0599 198.667 25.2015C197.428 26.3346 195.951 26.9011 194.187 26.9011C193.52 26.9011 192.901 26.8067 192.329 26.665C191.757 26.5234 191.281 26.3346 190.852 26.0985C190.423 25.8625 190.042 25.5792 189.708 25.2015C189.374 24.871 189.088 24.4934 188.85 24.1157C188.612 23.738 188.469 23.3131 188.278 22.8882C188.135 22.4633 188.04 22.0384 187.945 21.6607C187.897 21.2831 187.897 20.9054 187.897 20.4805Z" fill="white"/>
<path d="M201.866 26.4355V14.3497C201.866 14.3025 201.866 14.208 201.914 14.1608C201.961 14.1136 202.009 14.0664 202.104 14.0664C202.295 14.0664 202.438 14.1136 202.581 14.2552L209.443 20.6286V14.5385C209.443 14.4441 209.491 14.3969 209.538 14.3025C209.586 14.2552 209.681 14.208 209.777 14.208H212.016C212.112 14.208 212.159 14.2552 212.255 14.3025C212.302 14.3497 212.35 14.4441 212.35 14.5385V26.6243C212.35 26.6715 212.35 26.7187 212.302 26.7659C212.255 26.8132 212.207 26.8132 212.112 26.8132C211.969 26.8132 211.826 26.7659 211.731 26.6715L204.773 20.1565V26.4355C204.773 26.5299 204.725 26.5771 204.678 26.6715C204.63 26.7187 204.535 26.7659 204.439 26.7659H202.2C202.104 26.7659 202.057 26.7187 201.961 26.6715C201.914 26.6243 201.866 26.5299 201.866 26.4355Z" fill="white"/>
<path d="M47.5159 43.8487L46.7535 41.9131H43.6083L42.8458 43.8487H41.8451L44.6567 36.9561H45.7527L48.612 43.8487H47.5159ZM45.2285 37.9003L43.9895 41.1105H46.4676L45.2285 37.9003Z" fill="white"/>
<path d="M138.915 38.7543C138.486 38.0934 137.819 37.7157 136.961 37.7157C135.532 37.7157 134.579 38.8015 134.579 40.4067C134.579 42.0118 135.532 43.0977 136.914 43.0977C137.771 43.0977 138.439 42.6728 138.868 42.0118L139.678 42.5311C139.106 43.4281 138.153 43.9474 136.914 43.9474C134.865 43.9474 133.53 42.4367 133.53 40.3595C133.53 38.2822 134.865 36.7715 136.914 36.7715C138.105 36.7715 139.011 37.2908 139.63 38.1406L138.915 38.7543Z" fill="white"/>
<path d="M144.732 44.0002C142.635 44.0002 141.349 42.4422 141.349 40.4122C141.349 38.3822 142.683 36.8242 144.732 36.8242C146.829 36.8242 148.116 38.3822 148.116 40.4122C148.116 42.4422 146.781 44.0002 144.732 44.0002ZM144.732 37.7684C143.255 37.7684 142.349 38.8543 142.349 40.4122C142.349 41.9701 143.255 43.1032 144.732 43.1032C146.209 43.1032 147.115 42.0173 147.115 40.4122C147.067 38.8543 146.209 37.7684 144.732 37.7684Z" fill="white"/>
<path d="M156.735 43.8487V37.9475L154.448 43.8487H153.59L151.303 37.9475V43.8487H150.349V36.9561H151.827L154.019 42.6213L156.211 36.9561H157.641V43.8487H156.735Z" fill="white"/>
<path d="M163.311 41.2522H161.357V43.8487H160.356V36.9561H163.263C164.836 36.9561 165.741 37.8058 165.741 39.0805C165.741 40.3552 164.883 41.2522 163.311 41.2522ZM163.311 40.3552C164.264 40.3552 164.741 39.8831 164.741 39.1277C164.741 38.3724 164.264 37.853 163.311 37.853H161.357V40.3552H163.311Z" fill="white"/>
<path d="M172.222 43.8487L171.459 41.9131H168.314L167.552 43.8487H166.551L169.363 36.9561H170.459L173.318 43.8487H172.222ZM169.934 37.9003L168.695 41.1105H171.173L169.934 37.9003Z" fill="white"/>
<path d="M179.804 43.8487L176.134 38.1835V43.8487H175.181V36.9561H176.42L179.947 42.4796V36.9561H180.9V43.8487H179.804Z" fill="white"/>
<path d="M186.422 41.0633V43.896H185.421V41.0633L182.752 36.9561H183.896L185.898 40.1663L187.947 36.9561H189.043L186.422 41.0633Z" fill="white"/>
<path d="M57.5173 37.7212V43.7169H56.5166V37.7212H54.1815V36.8242H59.8524V37.7212H57.5173Z" fill="white"/>
<path d="M62.1411 43.6697V36.8242H67.0495V37.7212H63.0942V39.6568H65.6199V40.5066H63.0942V42.8199H67.1448V43.7169H62.1411V43.6697Z" fill="white"/>
<path d="M90.2612 43.6697L89.4987 41.7813H86.3535L85.5911 43.6697H84.5903L87.4019 36.8242H88.4503L91.2619 43.6697H90.2612ZM87.9738 37.7684L86.7348 40.9315H89.2128L87.9738 37.7684Z" fill="white"/>
<path d="M93.45 43.6697V36.8242H94.403V42.8199H98.263V43.7169H93.45V43.6697Z" fill="white"/>
<path d="M103.125 43.8081C101.076 43.8081 99.7417 42.2502 99.7417 40.2673C99.7417 38.2373 101.076 36.7266 103.125 36.7266C105.174 36.7266 106.509 38.2845 106.509 40.2673C106.556 42.2502 105.222 43.8081 103.125 43.8081ZM103.125 37.5763C101.648 37.5763 100.742 38.6622 100.742 40.2201C100.742 41.778 101.648 42.8639 103.125 42.8639C104.602 42.8639 105.508 41.778 105.508 40.2201C105.508 38.7094 104.602 37.5763 103.125 37.5763Z" fill="white"/>
<path d="M109.555 40.2618C109.555 41.867 110.46 42.9528 111.937 42.9528C113.176 42.9528 114.082 42.1974 114.177 41.0172H111.937V40.1674H115.13C115.13 40.309 115.178 40.4506 115.178 40.6867C115.178 42.3391 114.034 43.8026 111.985 43.8026C109.936 43.8026 108.601 42.2918 108.601 40.2146C108.601 38.1373 109.936 36.6738 111.985 36.6738C113.176 36.6738 114.082 37.1459 114.701 38.0429L113.939 38.5622C113.51 37.9013 112.843 37.5236 111.985 37.5236C110.46 37.5708 109.555 38.6567 109.555 40.2618Z" fill="white"/>
<path d="M117.514 43.6697V36.8242H118.467V43.6697H117.514Z" fill="white"/>
<path d="M126.288 38.6094C125.859 37.9485 125.239 37.5708 124.334 37.5708C122.904 37.5708 121.951 38.6567 121.951 40.2146C121.951 41.8197 122.904 42.9056 124.286 42.9056C125.144 42.9056 125.811 42.4807 126.24 41.8197L127.05 42.3391C126.478 43.236 125.525 43.7554 124.286 43.7554C122.237 43.7554 120.903 42.2446 120.903 40.2146C120.903 38.1846 122.237 36.6738 124.286 36.6738C125.477 36.6738 126.383 37.1459 127.002 38.0429L126.288 38.6094Z" fill="white"/>
<path d="M73.5354 40.7371C74.3455 40.4539 74.965 39.7929 74.965 38.8015C74.965 37.5741 74.0596 36.7715 72.6299 36.7715H69.5801V43.617H70.5808V41.3037V39.5569V37.6213H72.6299C73.4401 37.6213 73.9643 38.0934 73.9643 38.8015C73.9643 39.5097 73.4401 39.9818 72.6299 39.9818H71.5816V40.8316H72.5346L74.0119 43.617H75.108L73.5354 40.7371Z" fill="white"/>
<path d="M81.2037 40.7371C82.0138 40.4539 82.6333 39.7929 82.6333 38.8015C82.6333 37.5741 81.7279 36.7715 80.2983 36.7715H77.2484V43.617H78.2491V41.3037V39.5569V37.6213H80.2983C81.1084 37.6213 81.6326 38.0934 81.6326 38.8015C81.6326 39.5097 81.1084 39.9818 80.2983 39.9818H79.2499V40.8316H80.203L81.6803 43.617H82.7763L81.2037 40.7371Z" fill="white"/>
</svg>
