<svg width="286" height="80" viewBox="0 0 286 80" fill="none" xmlns="http://www.w3.org/2000/svg">
<rect width="286" height="79.5" transform="translate(0 0.5)" fill="white"/>
<g clip-path="url(#clip0_1967_3805)">
<path fill-rule="evenodd" clip-rule="evenodd" d="M188.894 24.921C188.894 29.8412 184.891 33.8298 179.954 33.8298H170.852V16.0122H179.954C184.891 16.0122 188.894 20.0008 188.894 24.921ZM179.954 30.9142C183.276 30.9142 185.968 28.231 185.968 24.921C185.968 21.6111 183.276 18.9278 179.954 18.9278H173.778V30.9142H179.954Z" fill="#211814"/>
<path fill-rule="evenodd" clip-rule="evenodd" d="M155.737 24.921C155.737 29.8412 159.739 33.8298 164.676 33.8298H173.778V16.0122H164.676C159.739 16.0122 155.737 20.0008 155.737 24.921ZM164.676 30.9142C161.355 30.9142 158.662 28.231 158.662 24.921C158.662 21.6111 161.355 18.9278 164.676 18.9278H170.853V30.9142H164.676Z" fill="#211814"/>
<path fill-rule="evenodd" clip-rule="evenodd" d="M155.737 39.8224C155.737 44.7425 159.739 48.7312 164.676 48.7312H173.778V30.9136L164.676 30.9138C159.739 30.9138 155.737 34.9022 155.737 39.8224ZM164.676 45.8156C161.355 45.8156 158.662 43.1322 158.662 39.8224C158.662 36.5124 161.355 33.8294 164.676 33.8294L170.853 33.8292V45.8156H164.676Z" fill="#211814"/>
<path fill-rule="evenodd" clip-rule="evenodd" d="M155.737 54.7247C155.737 59.6551 159.79 63.6334 164.716 63.6334C169.688 63.6334 173.778 59.6187 173.778 54.6436V45.8159H164.676C159.739 45.8159 155.737 49.8044 155.737 54.7247ZM164.716 60.7178C161.385 60.7178 158.662 58.0245 158.662 54.7247C158.662 51.4146 161.355 48.7315 164.676 48.7315H170.853V54.6436C170.853 57.988 168.093 60.7178 164.716 60.7178Z" fill="#211814"/>
<path fill-rule="evenodd" clip-rule="evenodd" d="M170.851 39.8224C170.851 44.7425 174.853 48.7312 179.79 48.7312H179.953C184.89 48.7312 188.892 44.7425 188.892 39.8224C188.892 34.9022 184.89 30.9136 179.953 30.9136H179.79C174.853 30.9136 170.851 34.9022 170.851 39.8224ZM179.79 45.8156C176.469 45.8156 173.777 43.1322 173.777 39.8224C173.777 36.5124 176.469 33.8292 179.79 33.8292H179.953C183.274 33.8292 185.967 36.5124 185.967 39.8224C185.967 43.1322 183.274 45.8156 179.953 45.8156H179.79Z" fill="#211814"/>
<path d="M125.983 24.1165C127.284 24.1165 128.338 23.0627 128.338 21.7628C128.338 20.4629 127.284 19.4092 125.983 19.4092C124.683 19.4092 123.628 20.4629 123.628 21.7628C123.628 23.0627 124.683 24.1165 125.983 24.1165Z" fill="white"/>
<path d="M100.734 33.4139C102.035 33.4139 103.089 32.3601 103.089 31.0602C103.089 29.7603 102.035 28.7065 100.734 28.7065C99.4336 28.7065 98.3794 29.7603 98.3794 31.0602C98.3794 32.3601 99.4336 33.4139 100.734 33.4139Z" fill="white"/>
<path d="M153.534 31.0597C153.534 32.3596 152.48 33.4134 151.179 33.4134C149.879 33.4134 148.824 32.3596 148.824 31.0597C148.824 29.7598 149.879 28.7061 151.179 28.7061C152.48 28.7061 153.534 29.7598 153.534 31.0597Z" fill="white"/>
<path d="M125.918 64.6C127.218 64.6 128.272 63.5463 128.272 62.2463C128.272 60.9465 127.218 59.8926 125.918 59.8926C124.617 59.8926 123.563 60.9465 123.563 62.2463C123.563 63.5463 124.617 64.6 125.918 64.6Z" fill="white"/>
<path fill-rule="evenodd" clip-rule="evenodd" d="M120.611 59.3555L122.24 60.8148C122.098 61.2187 122.021 61.6526 122.021 62.1046C122.021 64.2559 123.766 66 125.918 66C128.071 66 129.816 64.2559 129.816 62.1046C129.816 61.6893 129.751 61.289 129.63 60.9137L131.374 59.3517L131.456 59.2782C137.475 53.9085 142.705 49.2413 146.403 44.7899C149.039 41.6163 151.052 38.3723 152.014 34.8557C153.718 34.4394 154.983 32.9031 154.983 31.0715C154.983 29.3757 153.899 27.9329 152.385 27.398C151.05 19.9495 144.564 14.5 136.672 14.5C133.868 14.5 131.302 15.5697 129.19 16.9127C128.605 17.2848 128.042 17.6864 127.502 18.1072C127.018 17.8918 126.482 17.7721 125.918 17.7721C125.39 17.7721 124.887 17.8772 124.427 18.0674C123.903 17.6611 123.357 17.2731 122.79 16.9127C120.678 15.5697 118.112 14.5 115.308 14.5C107.434 14.5 100.959 19.9249 99.6042 27.3475C98.0116 27.837 96.854 29.3192 96.854 31.0715C96.854 32.9575 98.1948 34.5304 99.9757 34.8898C100.941 38.3933 102.95 41.6265 105.578 44.7899C109.275 49.2413 114.506 53.9085 120.524 59.278L120.611 59.3555ZM102.849 34.3551C104.924 41.4485 112.267 48.012 122.548 57.1858L124.158 58.6281C124.687 58.3602 125.285 58.2092 125.918 58.2092C126.588 58.2092 127.218 58.378 127.769 58.6755L129.432 57.1858C139.677 48.0441 147.005 41.4944 149.109 34.4297C147.96 33.7523 147.188 32.502 147.188 31.0715C147.188 29.5052 148.113 28.1548 149.447 27.5362C148.211 21.6723 143.035 17.4084 136.672 17.4084C134.137 17.4084 131.665 18.6041 129.535 20.2135C129.716 20.6628 129.816 21.1535 129.816 21.6676C129.816 23.819 128.071 25.563 125.918 25.563C123.766 25.563 122.021 23.819 122.021 21.6676C122.021 21.1221 122.133 20.6028 122.336 20.1314C120.231 18.5636 117.8 17.4084 115.308 17.4084C108.922 17.4084 103.732 21.7031 102.52 27.5996C103.783 28.244 104.648 29.5568 104.648 31.0715C104.648 32.4509 103.931 33.6629 102.849 34.3551ZM99.3474 29.8775C99.3474 29.8774 99.3474 29.8775 99.3474 29.8775C99.6855 29.4807 100.189 29.2291 100.751 29.2291C101.372 29.2291 101.921 29.5358 102.255 30.0059C102.469 30.3068 102.595 30.6744 102.595 31.0715C102.595 32.0891 101.769 32.914 100.751 32.914C99.7332 32.914 98.9079 32.0891 98.9079 31.0715C98.9079 30.6159 99.0733 30.1991 99.3474 29.8775ZM127.762 62.1046C127.762 62.0345 127.758 61.9654 127.75 61.8973C127.717 61.6044 127.616 61.3321 127.462 61.097C127.146 60.6144 126.61 60.2891 125.996 60.2639L125.984 60.2631C125.962 60.2623 125.94 60.2621 125.918 60.2621C124.9 60.2621 124.075 61.0871 124.075 62.1046C124.075 62.1887 124.081 62.2713 124.092 62.3524C124.098 62.4009 124.106 62.4491 124.117 62.4962C124.296 63.3256 125.035 63.9471 125.918 63.9471C126.936 63.9471 127.762 63.1221 127.762 62.1046ZM151.086 32.914C150.552 32.914 150.071 32.6875 149.735 32.3254C149.687 32.2737 149.642 32.2192 149.6 32.1622C149.375 31.8568 149.242 31.4797 149.242 31.0715C149.242 30.5946 149.424 30.1601 149.721 29.8329C150.058 29.4619 150.545 29.2291 151.086 29.2291C151.655 29.2291 152.164 29.4871 152.502 29.8925C152.55 29.9504 152.595 30.0114 152.636 30.075C152.821 30.3623 152.929 30.7043 152.929 31.0715C152.929 32.0891 152.104 32.914 151.086 32.914ZM125.918 19.8252C126.555 19.8252 127.116 20.1474 127.447 20.6375C127.61 20.8794 127.718 21.1622 127.751 21.4673C127.758 21.5331 127.762 21.5999 127.762 21.6676C127.762 22.6851 126.936 23.5101 125.918 23.5101C124.9 23.5101 124.075 22.6851 124.075 21.6676C124.075 21.6383 124.076 21.6092 124.077 21.5803C124.123 20.6032 124.93 19.8252 125.918 19.8252Z" fill="#211814"/>
<mask id="mask0_1967_3805" style="mask-type:alpha" maskUnits="userSpaceOnUse" x="102" y="17" width="48" height="42">
<path d="M124.158 58.6283L122.548 57.186C112.267 48.0121 104.924 41.4487 102.849 34.3554C103.931 33.6632 104.649 32.4513 104.649 31.0718C104.649 29.5571 103.784 28.2443 102.521 27.5999C103.732 21.7034 108.923 17.4087 115.309 17.4087C117.8 17.4087 120.231 18.5639 122.336 20.1317C122.134 20.603 122.021 21.1224 122.021 21.6679C122.021 23.8192 123.766 25.5633 125.919 25.5633C128.071 25.5633 129.816 23.8192 129.816 21.6679C129.816 21.1538 129.716 20.6631 129.535 20.2138C131.665 18.6044 134.137 17.4087 136.672 17.4087C143.035 17.4087 148.212 21.6726 149.447 27.5365C148.113 28.1551 147.188 29.5055 147.188 31.0718C147.188 32.5023 147.96 33.7526 149.109 34.43C147.005 41.4948 139.678 48.0445 129.432 57.186L127.769 58.6757C127.219 58.3784 126.588 58.2094 125.919 58.2094C125.285 58.2094 124.687 58.3603 124.158 58.6283Z" fill="#236DF6"/>
</mask>
<g mask="url(#mask0_1967_3805)">
<path d="M151.608 16.3809H100.333V62.6954H151.608V16.3809Z" fill="#DA251D"/>
<path d="M126.046 28.7773L128.021 34.8551H134.411L129.241 38.6113L131.216 44.6891L126.046 40.9329L120.876 44.6891L122.851 38.6113L117.681 34.8551H124.071L126.046 28.7773Z" fill="#FFFF00"/>
</g>
</g>
<defs>
<clipPath id="clip0_1967_3805">
<rect width="92.2921" height="51.5" fill="white" transform="translate(96.854 14.5)"/>
</clipPath>
</defs>
</svg>
