<svg width="393" height="136" viewBox="0 0 393 136" fill="none" xmlns="http://www.w3.org/2000/svg">
<path fill-rule="evenodd" clip-rule="evenodd" d="M99.2035 109.228V134.757H95.0952V109.228H85.2207V105.443H109.12V109.228H99.2035Z" fill="#141A5F"/>
<path fill-rule="evenodd" clip-rule="evenodd" d="M117.556 134.757V105.443H138.206V109.228H121.669V117.505H132.211V121.07H121.669V130.972H138.644V134.757H117.556Z" fill="#141A5F"/>
<path fill-rule="evenodd" clip-rule="evenodd" d="M227.87 109.448L222.387 123.006H233.217L227.87 109.448ZM237.879 134.757L234.635 126.617H220.925L217.633 134.757H213.155L225.542 105.443H230.248L242.678 134.757H237.879Z" fill="#141A5F"/>
<path fill-rule="evenodd" clip-rule="evenodd" d="M251.113 134.757V105.443H255.349V130.972H272.201V134.757H251.113Z" fill="#141A5F"/>
<path fill-rule="evenodd" clip-rule="evenodd" d="M291.881 108.763C285.643 108.763 281.91 113.437 281.91 120.103C281.91 126.765 285.643 131.486 291.881 131.486C298.072 131.486 301.848 126.765 301.848 120.103C301.848 113.437 298.072 108.763 291.881 108.763ZM291.881 135.324C283.138 135.324 277.607 128.753 277.607 120.103C277.607 111.454 283.138 104.878 291.881 104.878C300.62 104.878 306.198 111.454 306.198 120.103C306.198 128.753 300.62 135.324 291.881 135.324Z" fill="#141A5F"/>
<path fill-rule="evenodd" clip-rule="evenodd" d="M319.055 120.103C319.055 126.985 322.878 131.576 329.026 131.576C334.252 131.576 338.118 128.398 338.511 123.321H329.026V119.704H342.421C342.508 120.28 342.597 120.987 342.597 121.91C342.597 129.017 337.678 135.324 329.07 135.324C320.373 135.324 314.752 128.883 314.752 120.059C314.752 111.189 320.373 104.878 328.94 104.878C333.945 104.878 337.808 106.997 340.447 110.79L337.195 113.042C335.393 110.261 332.67 108.672 329.026 108.672C322.789 108.672 319.055 113.307 319.055 120.103Z" fill="#141A5F"/>
<path fill-rule="evenodd" clip-rule="evenodd" d="M352.646 134.797H356.73V105.408H352.646V134.797Z" fill="#141A5F"/>
<path fill-rule="evenodd" clip-rule="evenodd" d="M389.619 113.043C387.817 110.262 385.096 108.673 381.449 108.673C375.388 108.673 371.478 113.221 371.478 120.06C371.478 126.986 375.432 131.577 381.362 131.577C384.963 131.577 387.817 129.853 389.619 127.03L392.999 129.238C390.498 133.033 386.502 135.324 381.406 135.324C372.841 135.324 367.176 128.927 367.176 120.104C367.176 111.319 372.841 104.878 381.362 104.878C386.368 104.878 390.231 106.997 392.869 110.791L389.619 113.043Z" fill="#141A5F"/>
<path fill-rule="evenodd" clip-rule="evenodd" d="M167.017 122.221C170.486 120.986 173.03 118.115 173.03 114.012C173.03 108.806 169.254 105.406 163.24 105.406H150.415V134.796H154.544V124.842H154.543V117.408H154.544V109.201H163.107C166.487 109.201 168.772 111.189 168.772 114.321C168.772 117.322 166.621 119.354 163.24 119.354H158.815V122.97H162.93L169.168 134.796H173.824L167.017 122.221Z" fill="#141A5F"/>
<path fill-rule="evenodd" clip-rule="evenodd" d="M199.266 122.221C202.735 120.986 205.279 118.115 205.279 114.012C205.279 108.806 201.503 105.406 195.489 105.406H182.663V134.796H186.793V124.842H186.792V117.408H186.793V109.201H195.355C198.735 109.201 201.02 111.189 201.02 114.321C201.02 117.322 198.869 119.354 195.489 119.354H191.064V122.97H195.179L201.416 134.796H206.072L199.266 122.221Z" fill="#141A5F"/>
<mask id="mask0_2139_10272" style="mask-type:alpha" maskUnits="userSpaceOnUse" x="0" y="42" width="76" height="77">
<path d="M0 75.2489L29.1679 75.3329L16.8061 118.959H53.9138L75.4928 42.7451L9.58871 42.7407L0 75.2489Z" fill="white"/>
</mask>
<g mask="url(#mask0_2139_10272)">
<path fill-rule="evenodd" clip-rule="evenodd" d="M0 75.2489L29.1679 75.3329L16.8061 118.959H53.9138L75.4928 42.7451L9.58871 42.7407L0 75.2489Z" fill="url(#paint0_linear_2139_10272)"/>
</g>
<mask id="mask1_2139_10272" style="mask-type:alpha" maskUnits="userSpaceOnUse" x="75" y="0" width="77" height="76">
<path d="M97.0907 0L75.4541 75.1199L141.537 75.1243L151.15 43.0824L121.904 43.0004L134.3 0H97.0907Z" fill="white"/>
</mask>
<g mask="url(#mask1_2139_10272)">
<path fill-rule="evenodd" clip-rule="evenodd" d="M97.0907 0L75.4541 75.1199L141.537 75.1243L151.15 43.0824L121.904 43.0004L134.3 0H97.0907Z" fill="url(#paint1_linear_2139_10272)"/>
</g>
<defs>
<linearGradient id="paint0_linear_2139_10272" x1="-12.0444" y1="109.115" x2="113.995" y2="29.6702" gradientUnits="userSpaceOnUse">
<stop stop-color="#3333FF"/>
<stop offset="1" stop-color="#FF3397"/>
</linearGradient>
<linearGradient id="paint1_linear_2139_10272" x1="-10.276" y1="116.645" x2="119.134" y2="36.4651" gradientUnits="userSpaceOnUse">
<stop stop-color="#3333FF"/>
<stop offset="1" stop-color="#FF3397"/>
</linearGradient>
</defs>
</svg>
