<svg width="100" height="100" viewBox="0 0 100 100" fill="none" xmlns="http://www.w3.org/2000/svg">
<g clip-path="url(#clip0_1313_6867)">
<path d="M73.2125 15.4858C73.1639 14.8087 72.7692 14.2353 72.233 13.8418C71.794 13.5202 71.2705 13.3171 70.7491 13.1732C70.5105 13.1076 70.2699 13.0526 70.0271 13.0081C69.662 12.9087 69.2989 12.8368 68.9717 12.786C65.628 12.1724 62.2717 13.0928 58.9871 13.6577C57.8831 13.8905 54.0518 14.6585 53.3721 14.8616C51.6053 15.2615 43.9891 17.6673 41.8086 18.4078C41.6883 18.448 41.4793 18.52 41.2703 18.5898C39.2649 19.269 37.2575 20.0117 35.2732 20.8115C33.0821 21.6959 30.9205 22.6459 28.7928 23.6742C27.7479 24.1799 26.7114 24.7089 25.6982 25.2759C24.668 25.8493 23.6485 26.4397 22.6669 27.0935C21.7297 27.7198 20.765 28.4032 19.8911 29.2009C19.6737 29.3997 19.4668 29.605 19.262 29.8166C19.0763 30.007 18.8947 30.2144 18.7385 30.4281C18.5528 30.6777 18.3839 30.9316 18.2319 31.2025C17.9258 31.742 17.7696 32.4043 17.9068 33.0158C18.1559 34.1393 19.2346 34.7275 20.2541 35.0174C20.8452 35.1845 21.451 35.2755 22.0611 35.3369C22.6711 35.3982 23.2706 35.4236 23.8786 35.4236C24.4084 35.4236 24.9404 35.4046 25.466 35.3728C25.504 35.3707 25.542 35.3686 25.58 35.3665L25.9114 35.3474C25.9114 35.3474 25.9156 35.3474 25.9177 35.3474C25.9304 35.3474 25.943 35.3474 25.9557 35.3474C26.6375 35.2988 27.3193 35.2395 28.0012 35.1612C30.3147 34.8989 32.6135 34.4863 34.8912 34.0018C37.154 33.5215 39.4 32.9629 41.6292 32.3387C43.8688 31.7124 46.0958 31.0353 48.2996 30.2863C48.3017 30.2863 48.3038 30.2863 48.3081 30.2863C48.3165 30.2842 48.3228 30.2821 48.3292 30.2778C48.3292 30.2778 48.3524 30.2715 48.3735 30.263C48.3988 30.2546 48.422 30.2461 48.4495 30.2376C48.5846 30.2038 48.7176 30.1466 48.8463 30.1043L48.935 30.0726C49.0152 30.0493 49.0933 30.0197 49.1735 29.9922C49.3508 29.9308 49.5282 29.8695 49.7034 29.8081C49.963 29.7192 50.2226 29.6261 50.4802 29.5352C51.5061 29.1733 52.5278 28.7967 53.5431 28.4053C55.7173 27.5674 57.8768 26.683 59.994 25.7076C62.0986 24.7406 64.1842 23.7165 66.1874 22.5507C67.2049 21.9583 68.2033 21.3341 69.1701 20.657C69.6155 20.3438 70.0546 20.018 70.4747 19.671C70.9137 19.3092 71.3465 18.9326 71.7391 18.5179C72.5096 17.7054 73.3033 16.6749 73.2167 15.4879L73.2125 15.4858ZM70.7617 15.3885C70.7448 15.3652 70.7301 15.3419 70.7132 15.3208C70.728 15.325 70.7427 15.3271 70.7575 15.3314C70.7596 15.3504 70.7617 15.3694 70.7617 15.3906V15.3885ZM39.8454 31.0819C37.6079 31.6806 35.3513 32.2117 33.08 32.6624C32.8562 32.7068 32.5248 32.7724 32.1913 32.8317C29.9559 33.2358 27.7077 33.5659 25.4406 33.7076C24.4105 33.7605 23.3867 33.7711 22.3587 33.6992C21.9365 33.6569 21.5186 33.604 21.1006 33.5257C20.8473 33.4643 20.6003 33.3945 20.3534 33.3141C20.2436 33.2697 20.1338 33.2231 20.0283 33.1723C19.9586 33.1342 19.8911 33.094 19.8235 33.0517C19.7813 33.02 19.7391 32.9861 19.6969 32.9523C19.6673 32.9227 19.6357 32.8909 19.6061 32.8571L19.5681 32.8084C19.5576 32.7894 19.5449 32.7682 19.5343 32.747C19.5259 32.7301 19.5196 32.7132 19.5111 32.6941C19.5069 32.6772 19.5027 32.6603 19.4984 32.6434C19.4963 32.6286 19.4942 32.6137 19.4921 32.5968C19.4921 32.5545 19.4921 32.5143 19.4921 32.472C19.4963 32.4466 19.4984 32.4233 19.5027 32.3979C19.5153 32.345 19.5301 32.2921 19.5449 32.2392C19.5765 32.1567 19.6124 32.0763 19.6504 31.9938C19.7243 31.8626 19.8024 31.7335 19.8847 31.6045C20.0473 31.3865 20.214 31.1792 20.3914 30.9761C20.7017 30.6502 21.0267 30.3455 21.3624 30.0472C22.0716 29.4569 22.8147 28.911 23.5788 28.3947C24.5245 27.7726 25.4892 27.1823 26.4771 26.6343C27.446 26.0969 28.4276 25.587 29.4155 25.0855C29.8841 24.8549 30.3548 24.6242 30.8277 24.4021C32.9365 23.4076 35.0748 22.4809 37.2427 21.6218C39.419 20.7586 41.6186 19.9524 43.8351 19.197C44.5549 18.9558 45.3612 18.6892 46.1676 18.4311C48.3608 17.7329 50.5688 17.0791 52.7958 16.4993C54.7442 15.9915 56.7052 15.5303 58.6768 15.1198C59.5465 15.0246 60.4141 14.9442 61.2817 14.8765C62.5925 14.7897 63.9245 14.6987 65.2544 14.6881C66.1811 14.8045 67.0402 15.0521 67.5869 15.5472C68.2118 16.0804 68.2962 16.7003 67.912 17.4091C66.2866 20.0455 63.0992 21.7657 60.3613 23.2786C59.9771 23.4499 55.8841 25.6145 50.8601 27.3791C49.6527 27.8044 42.0893 30.4852 39.8412 31.0861L39.8454 31.0819Z" fill="#300375"/>
<path d="M39.8455 31.0817C37.6079 31.6805 35.3513 32.2116 33.08 32.6623C32.8563 32.7067 32.5248 32.7723 32.1913 32.8315C29.9559 33.2357 27.7078 33.5657 25.4407 33.7075C24.4105 33.7604 23.3867 33.771 22.3587 33.699C21.9366 33.6567 21.5186 33.6038 21.1006 33.5255C20.8473 33.4642 20.6004 33.3944 20.3534 33.3139C20.2436 33.2695 20.1338 33.223 20.0283 33.1722C19.9586 33.1341 19.8911 33.0939 19.8235 33.0516C19.7813 33.0198 19.7391 32.986 19.6969 32.9521C19.6673 32.9225 19.6357 32.8908 19.6061 32.8569L19.5681 32.8083C19.5576 32.7892 19.5449 32.7681 19.5343 32.7469C19.5259 32.73 19.5196 32.713 19.5111 32.694C19.5069 32.6771 19.5027 32.6601 19.4985 32.6432C19.4963 32.6284 19.4942 32.6136 19.4921 32.5967C19.4921 32.5544 19.4921 32.5142 19.4921 32.4718C19.4963 32.4464 19.4985 32.4232 19.5027 32.3978C19.5153 32.3449 19.5301 32.292 19.5449 32.2391C19.5766 32.1566 19.6124 32.0762 19.6504 31.9936C19.7243 31.8625 19.8024 31.7334 19.8848 31.6043C20.0473 31.3864 20.2141 31.179 20.3914 30.9759C20.7017 30.6501 21.0268 30.3454 21.3624 30.0471C22.0717 29.4567 22.8147 28.9108 23.5788 28.3946C24.5245 27.7725 25.4892 27.1822 26.4771 26.6342C27.446 26.0967 28.4276 25.5868 29.4155 25.0853C29.8841 24.8547 30.3548 24.6241 30.8277 24.4019C32.9365 23.4075 35.0748 22.4807 37.2427 21.6217C39.4191 20.7584 41.6186 19.9523 43.8351 19.1969C44.5549 18.9557 45.3612 18.6891 46.1676 18.431C48.3608 17.7327 50.5688 17.0789 52.7958 16.4992C54.7442 15.9914 56.7052 15.5301 58.6768 15.1196C59.5465 15.0244 60.4141 14.944 61.2817 14.8763C62.5926 14.7895 63.9245 14.6986 65.2544 14.688C66.1811 14.8044 67.0402 15.0519 67.5869 15.547C68.2118 16.0802 68.2962 16.7002 67.912 17.409C66.2866 20.0454 63.0992 21.7656 60.3613 23.2784C59.9771 23.4498 55.8841 25.6143 50.8602 27.3789C49.6527 27.8042 42.0893 30.485 39.8412 31.0859L39.8455 31.0817Z" fill="white"/>
<path d="M70.1454 68.2048C70.462 67.8303 70.7723 67.4516 71.0826 67.0729C72.5771 65.5664 73.831 63.825 74.7514 61.8699C75.6654 60.0164 76.4084 58.0826 77.0037 56.0979C77.5293 55.9688 77.9874 55.5435 78.4433 55.2642C79.1188 54.803 79.7774 54.3184 80.4276 53.8212C84.6114 50.9288 87.1403 47.4165 88.9282 42.6664C91.4001 36.0247 92.3035 26.0208 87.478 20.2572C84.7254 17.185 79.8302 17.7605 76.3683 19.1887C76.1741 19.3009 75.7773 19.4469 75.5029 19.6457C75.2685 18.9264 75.0258 18.2112 74.7683 17.5003C74.4601 16.7047 74.0738 15.9366 73.5608 15.2532C73.3518 14.9972 73.1661 14.6777 72.8199 14.5994C72.3618 14.4619 71.8869 14.8681 71.9481 15.34C71.9629 15.5939 72.1149 15.7716 72.2605 15.962C72.5434 16.3323 72.7798 16.7364 72.9888 17.1533C73.6157 18.5138 74.0548 19.9504 74.4854 21.3829C76.0686 26.7022 77.0586 32.1992 77.2887 37.7512C77.58 44.3083 77.0354 50.9394 74.9034 57.1833C74.1139 59.4388 73.1344 61.7007 71.7729 63.6896C71.7687 63.6959 71.7623 63.7002 71.7581 63.7065C71.1164 64.519 70.4536 65.3167 69.7696 66.0953C65.5394 70.1684 59.4727 72.3646 53.6107 71.806C47.1598 71.093 40.3795 66.7809 35.5878 62.2423C35.5878 62.2233 35.5878 62.2064 35.5878 62.1873C35.535 61.7768 35.1846 61.4743 34.7835 61.4574C34.7096 61.3833 34.6337 61.3092 34.5598 61.2331C32.9998 59.6335 31.5306 57.9492 30.1607 56.191C28.3854 53.6985 26.7368 51.1087 25.0818 48.5315C22.8548 44.522 21.1007 40.25 19.9059 35.7877C19.6631 34.9371 19.4373 34.0823 19.1628 33.2402C19.0932 32.9799 18.9053 32.8699 18.7386 32.8974C18.7238 32.853 18.709 32.8064 18.6879 32.7641C18.595 32.6097 18.3839 32.5419 18.2594 32.6964C18.0778 32.9122 18.1644 33.2254 18.1391 33.4835C18.1369 33.7057 18.1475 33.9321 18.1644 34.1627C18.1623 34.1796 18.1559 34.1923 18.1538 34.2092C18.1348 35.0006 18.2826 35.8046 18.4536 36.6002C18.519 37.053 18.5908 37.5079 18.6816 37.9564C18.557 38.0178 18.4388 38.0855 18.3269 38.149C18.0251 38.3225 17.7295 38.5066 17.4361 38.697C15.6735 39.8459 14.0228 41.1831 12.5684 42.7087C3.50205 52.7231 13.7716 61.1759 23.0997 65.1115C28.3347 67.3225 33.7091 69.3009 39.4254 69.779C39.5584 69.8066 39.6914 69.8171 39.8244 69.8171C40.2592 69.8171 40.6877 69.6965 41.1247 69.6457C41.2197 69.6309 41.3294 69.6309 41.4455 69.6352C44.6098 71.605 48.0738 73.1602 51.7425 73.7103C52.3315 74.1335 52.8845 74.6117 53.3215 75.1935C53.6297 75.6485 53.8872 76.133 54.1616 76.6091C53.9843 76.8714 53.8619 77.174 53.8112 77.4935C53.6128 78.6657 54.0244 79.8273 54.3516 80.9381C54.6387 81.9178 55.1474 82.6414 54.3242 83.5322C52.3462 85.629 49.9757 87.6496 49.315 90.5907C48.6965 92.9393 48.7408 95.4318 49.2052 97.8037C49.3783 98.4067 49.3488 99.2277 49.9293 99.5958C50.0053 99.7947 50.1826 99.9534 50.4485 99.9873C50.4654 99.9873 50.4823 99.9873 50.4992 99.9873C50.9066 99.9873 51.295 99.7799 51.6898 99.6847C52.2534 99.507 52.8149 99.3271 53.3827 99.1599C56.4013 98.2819 59.3777 97.2726 62.3751 96.3247C70.5528 93.627 78.6502 90.6626 86.8996 88.1892C87.3239 88.039 87.4928 87.7025 87.478 87.3746C87.5899 87.2138 87.649 87.0149 87.6131 86.7991C87.5329 85.3709 86.9904 84.0379 86.2621 82.8234C84.8077 80.5424 82.7981 78.5535 80.2988 77.4618C78.2787 76.5456 75.7498 76.1668 73.4827 76.6027C73.4616 76.2049 73.221 75.8198 73.107 75.4432C72.556 74.0552 71.8278 72.244 70.5549 71.2961C70.2784 70.9407 69.9955 70.5915 69.7126 70.2424C69.5754 69.8235 69.4551 69.4024 69.3327 68.9771C69.6134 68.7275 69.8857 68.4672 70.1454 68.1985V68.2048ZM83.8156 19.8002C85.3186 20.2149 86.488 21.3617 87.2331 22.7011C90.5557 28.8392 89.4179 37.529 86.6801 43.7158C85.6331 46.0052 84.2906 48.1909 82.4942 49.9682C80.9743 51.4028 79.2518 52.6025 77.6053 53.8847C78.1731 51.5403 78.551 49.1409 78.7769 46.7288C78.9647 46.5595 79.1209 46.3205 79.2518 46.0983C79.8893 45.1313 80.4951 44.1475 81.0756 43.1467C83.5728 38.6801 86.2853 33.0476 84.9323 27.8299C84.394 25.731 82.6694 23.6722 80.3052 24.1504C79.1758 24.3345 78.0486 24.745 77.1726 25.4982C76.7462 23.7759 76.2712 22.0642 75.7393 20.3736C78.3505 19.6246 81.1369 19.1295 83.8177 19.8002H83.8156ZM79.0259 39.92C78.9626 36.0056 78.6375 32.0828 77.8122 28.251C77.6834 27.667 77.5483 27.0851 77.409 26.5033C77.6792 26.3975 77.9283 26.2113 78.2069 26.1266C79.4545 25.7331 81.1326 25.1639 82.2071 26.1986C85.9244 30.6165 81.5738 39.0652 79.0513 43.2609C79.0302 43.2948 79.0091 43.3329 78.988 43.3667C79.0302 42.2136 79.0407 41.0646 79.0238 39.92H79.0259ZM26.7515 54.2296C28.4107 56.703 30.1543 59.168 32.0816 61.4616C31.6256 61.4108 31.1232 61.3304 30.625 61.2288C29.8123 61.0553 29.0123 60.8289 28.225 60.5581C27.3109 60.2344 26.4201 59.8535 25.5504 59.424C25.5335 59.4155 25.4702 59.3838 25.4069 59.3521C24.5879 58.9395 23.7034 58.4147 22.8527 57.8456C22.0801 57.3166 21.3392 56.7496 20.632 56.136C20.0515 55.6218 19.4837 55.0632 18.9496 54.4644C18.576 54.0412 18.1644 53.5186 17.7844 52.9664C17.5248 52.5792 17.2884 52.1772 17.0752 51.7625C16.9 51.4028 16.7416 51.0346 16.6065 50.658C16.5348 50.4358 16.4736 50.2094 16.425 49.9809C16.387 49.7735 16.3596 49.5641 16.3427 49.3525C16.3342 49.179 16.3321 49.0076 16.3385 48.8341C16.3511 48.6966 16.3701 48.559 16.3933 48.4236C16.425 48.284 16.4609 48.1486 16.5052 48.0131C16.5495 47.8968 16.596 47.7804 16.6488 47.6661C16.7142 47.5392 16.7839 47.4165 16.862 47.2959C16.9274 47.2028 16.9971 47.1118 17.0688 47.025C17.1744 46.9108 17.282 46.8029 17.396 46.6971C17.5353 46.5807 17.6768 46.4707 17.8266 46.367C18.0166 46.2422 18.2108 46.1279 18.4114 46.0242C18.6182 45.9248 18.8293 45.8359 19.0446 45.7555C19.376 45.6455 19.7117 45.5566 20.0536 45.4847C20.3027 45.436 20.5645 45.3937 20.8326 45.3556C23.0363 48.1401 24.7926 51.2737 26.7558 54.2274L26.7515 54.2296ZM56.6926 73.869C56.7158 73.9346 56.7433 73.9981 56.7855 74.051C56.7686 74.0531 56.7496 74.0552 56.7327 74.0573C56.7179 73.9939 56.6968 73.9304 56.6736 73.8711C56.6799 73.8711 56.6863 73.8711 56.6926 73.8711V73.869ZM57.1844 75.274C57.1844 75.274 57.1802 75.257 57.1781 75.2486C57.1908 75.2486 57.2034 75.2486 57.2161 75.2486C57.2055 75.257 57.1971 75.2655 57.1865 75.274H57.1844ZM65.647 79.2158C63.7493 79.8315 61.8242 80.3668 59.9793 81.1328C59.8801 81.118 59.7787 81.1137 59.6816 81.118C58.9386 81.0354 58.2526 80.9656 57.6911 80.7519C57.6889 80.7477 57.6868 80.7435 57.6847 80.7413C57.6531 80.6927 57.6193 80.6461 57.5855 80.5975C56.4752 78.2108 57.3934 76.2874 59.8104 74.9862C61.8453 74.6201 63.971 73.9008 65.7779 72.9571C68.6424 72.5466 70.5169 73.3125 71.5344 76.4758C71.5956 76.6387 71.7032 76.7614 71.8341 76.8418C71.8573 76.9011 71.8805 76.9603 71.9059 77.0174C71.9122 77.0322 71.9207 77.047 71.9291 77.0619C71.8046 77.1105 71.68 77.1613 71.5597 77.2163C71.4098 77.3031 71.2156 77.4152 71.0298 77.5485C69.3031 78.0309 67.5827 78.5514 65.8898 79.1396C65.8096 79.165 65.7294 79.1904 65.6492 79.2158H65.647ZM13.5837 43.9761C14.1516 43.3625 14.7511 42.7785 15.3738 42.2199C15.4941 42.2474 15.6207 42.2432 15.7432 42.1924C17.0878 41.5788 18.3713 42.6283 19.2747 43.5466C19.5914 43.8851 19.8953 44.2321 20.193 44.5833C19.433 44.6214 18.6858 44.7568 17.9638 45.0086C16.9949 45.345 16.1316 46.0031 15.5849 46.8769C15.0381 47.7508 14.8566 48.8362 14.9537 49.8518C15.0487 50.8357 15.3463 51.7815 15.7812 52.6659C16.6931 54.5215 18.0905 56.1063 19.6336 57.4605C19.7623 57.5726 19.9439 57.7313 20.1317 57.8858C21.7487 59.223 23.543 60.3338 25.4386 61.2288C27.1885 62.054 29.0482 62.674 30.9565 63.0019C31.7692 63.1416 32.5966 63.2241 33.422 63.2241C33.4917 63.2241 33.5634 63.2241 33.6331 63.222C35.2923 65.012 37.0907 66.6603 39.094 68.0758C36.086 67.7711 33.1328 67.0411 30.2683 66.0678C21.3392 63.2431 3.8609 55.2558 13.5858 43.9782L13.5837 43.9761ZM80.9954 79.7236C82.9776 81.0545 84.6262 82.9672 85.5592 85.1762C85.7576 85.6777 85.8568 86.2066 85.9159 86.7377C80.9004 88.2167 75.982 90.0025 71.0277 91.6677C66.2465 93.2757 61.4949 94.9663 56.6905 96.5066C55.1305 97.0483 53.5347 97.5011 51.9811 98.0618C51.9937 98.0026 52.0022 97.9391 52.0001 97.8714C51.7932 96.0242 51.7552 94.139 52.0507 92.2982C52.3188 90.7007 52.9711 89.1985 53.8175 87.8274C53.8471 87.7808 53.8767 87.7364 53.9041 87.6898C56.6694 84.6557 59.7998 82.8424 63.3462 81.4734C63.3926 81.4607 63.439 81.4502 63.4834 81.4375C65.2776 80.9931 67.0149 80.3838 68.7374 79.7278C70.538 79.2158 72.3302 78.6826 74.135 78.1854C74.4052 78.1177 74.6775 78.0605 74.9519 78.0098C77.0755 77.9971 79.1969 78.5578 80.9912 79.7236H80.9954Z" fill="#300375"/>
<path d="M68.0303 55.9326C67.9817 55.7697 67.893 55.611 67.8424 55.4544C67.4476 54.5192 66.9642 53.6009 66.4597 52.7165C65.818 51.5697 65.0518 50.4864 64.3383 49.3798C64.2982 49.3057 64.256 49.2317 64.2158 49.1576C64.2095 49.147 64.2053 49.1343 64.199 49.1238C63.6776 48.0383 63.1984 46.9317 62.6665 45.8526C62.5905 45.6918 62.5145 45.4993 62.4026 45.3448C62.4068 45.3385 62.411 45.3321 62.4153 45.3279C62.6517 44.9513 62.886 44.5747 63.1308 44.2044C64.4143 42.3382 65.6682 40.4508 66.7152 38.4386C67.093 37.8399 67.4603 37.2305 67.7854 36.6C67.8255 36.5132 67.8783 36.4328 67.9205 36.3503C68.2055 35.9694 67.9205 35.322 67.4012 35.3452C64.6908 35.9525 62.0311 36.8221 59.3228 37.4738C59.023 37.586 58.0309 37.7954 57.3406 38.0663C56.8741 37.6008 56.2493 37.3109 55.7237 36.9152C53.9695 35.7642 52.285 34.482 50.4063 33.5383C50.1087 33.4346 49.4649 33.0326 49.201 33.2971C49.1482 33.3669 49.1419 33.4367 49.1567 33.5023C48.7429 33.9594 48.5192 34.6428 48.23 35.1696C47.8838 35.906 47.5334 36.6423 47.1745 37.3744C46.6109 38.4683 46.2584 39.6532 45.8721 40.8169C45.8573 40.8655 45.8425 40.9184 45.8257 40.9734C45.5977 41.0856 45.3866 41.2379 45.1628 41.3564C44.538 41.7055 43.9174 42.0589 43.3052 42.4313C41.6186 43.4554 39.97 44.545 38.3573 45.6855C37.6818 46.2208 36.9345 46.6736 36.3076 47.2681C36.0775 47.4586 36.1239 47.8627 36.4554 47.8796H36.4659C36.4891 47.8796 36.5124 47.8754 36.5335 47.8733C38.2961 48.9418 40.0903 49.8685 41.8656 50.9349C43.2419 51.7707 44.6499 52.5599 46.1191 53.2201C46.1908 53.2433 46.2605 53.2539 46.3259 53.2539C46.3618 53.2539 46.3977 53.2497 46.4315 53.2433C46.4463 53.3872 46.4632 53.529 46.4737 53.6729C46.6806 55.9517 46.8874 58.2326 47.2315 60.4986C47.3117 61.0509 47.4004 61.6052 47.4954 62.1702C47.6094 62.6653 47.6115 63.2408 47.9429 63.6492C48.0484 63.7719 48.1983 63.829 48.3524 63.829C48.5909 63.829 48.8316 63.6894 48.8991 63.4397C48.9055 63.4037 48.9076 63.3656 48.9118 63.3276C49.1482 63.044 49.3868 62.7626 49.6316 62.4854C50.7884 61.1884 51.9874 59.9295 53.1589 58.6473C54.1933 57.4645 55.3775 56.3981 56.3274 55.1455C56.3337 55.1392 56.3401 55.1349 56.3443 55.1286C56.4055 55.0672 56.4498 55.0037 56.4836 54.9382C56.4878 54.9318 56.4942 54.9255 56.4984 54.9191C56.6124 54.9466 56.7264 54.9741 56.8404 55.0016C58.6114 55.4439 60.3972 55.8184 62.1936 56.1484C63.2723 56.324 64.3467 56.5631 65.4296 56.7261C65.9362 56.8149 66.4429 56.8974 66.9474 56.9757C67.1183 57.0032 67.2914 57.0307 67.4624 57.0307C67.5384 57.0307 67.6144 57.0244 67.6904 57.0117C68.1949 56.925 68.3342 56.2648 68.0197 55.9347L68.0303 55.9326ZM56.5596 54.5848C56.5596 54.5848 56.5617 54.5848 56.5638 54.5848C56.5638 54.5848 56.5617 54.5848 56.5596 54.5848ZM47.774 56.4637C47.5292 55.1032 47.3835 53.7046 46.9107 52.3991C46.9064 52.3864 46.9022 52.3737 46.898 52.361C46.8917 52.3462 46.8874 52.3293 46.8811 52.3124C46.8304 52.1198 46.6172 51.7792 46.4209 51.9759C45.8995 51.7601 45.3887 51.5189 44.88 51.2735C42.3997 50.042 39.9827 48.6752 37.4222 47.6109C37.3694 47.5919 37.3166 47.5707 37.2638 47.5496C37.7641 47.2893 38.2496 47.0058 38.7267 46.7032C39.7104 46.1002 40.7278 45.5226 41.7347 44.9259C42.9781 44.1938 44.2488 43.504 45.5217 42.8227C45.8067 42.6534 46.1191 42.5307 46.4083 42.3699C46.613 42.3361 46.7587 42.207 46.8706 42.0356C46.9592 41.9362 47.012 41.8219 47.0331 41.7055C47.1239 41.4707 47.1935 41.221 47.2737 41.0263C47.5967 40.0721 47.8859 39.1051 48.268 38.1742C48.7239 37.0168 49.1123 35.8361 49.4733 34.647C49.4944 34.5201 49.5936 34.2725 49.6696 34.0249C51.5504 35.4722 53.3679 36.9999 55.2825 38.4048C55.7554 38.7327 56.1796 39.158 56.739 39.34C56.8129 39.3654 56.8847 39.3781 56.9543 39.3781C57.0029 39.3781 57.0493 39.3717 57.0937 39.3612C57.1063 39.3696 57.1169 39.3781 57.1317 39.3844C57.1633 39.3929 57.1929 39.395 57.2224 39.395C57.2984 39.395 57.3744 39.3739 57.4504 39.3485C58.0457 39.158 58.641 38.9655 59.2468 38.8068C61.1909 38.2778 63.1119 37.897 65.0792 37.4273C65.36 37.3426 65.6513 37.2538 65.9299 37.1374C65.6914 37.5309 65.5162 37.9668 65.322 38.3879C64.8576 39.1496 64.4058 39.9176 63.9562 40.6878C63.1984 41.9743 62.4427 43.2586 61.8052 44.6106C61.7187 44.7989 61.6321 44.9872 61.5561 45.1798C61.3281 45.3639 61.2416 45.7341 61.4041 46.0473C62.1725 47.8923 63.1498 49.6379 64.1314 51.375C64.562 52.2362 65.0222 53.0974 65.4676 53.9204C65.7083 54.3648 65.9637 54.8027 66.2275 55.2344C66.2888 55.3444 66.3458 55.4544 66.4091 55.5644C65.3072 55.4269 64.1715 55.2894 63.057 55.1392C61.4675 54.9318 59.8948 54.6123 58.318 54.3182C57.6721 54.187 57.0261 54.0685 56.376 53.967C56.2599 53.95 56.1564 53.9395 56.0488 53.9881C56.0361 53.9924 56.0255 54.0008 56.015 54.0051C55.8419 53.9754 55.6519 54.0156 55.4788 54.168C53.1885 56.2712 51.162 58.6388 49.3445 61.1609C49.1482 61.4275 48.9604 61.7047 48.7788 61.9861C48.7218 61.7343 48.6648 61.4868 48.6353 61.2413C48.3545 59.6481 48.0463 58.0591 47.7804 56.4637H47.774Z" fill="#300375"/>
<path d="M65.1426 8.63916C63.9267 8.39161 64.6275 6.85549 64.6338 6.01549C64.7774 4.88351 64.9653 3.75575 65.1679 2.63223C65.2481 2.20482 65.322 1.7753 65.4275 1.35424C65.4888 1.12785 65.55 0.886637 65.7526 0.740642C65.9933 0.543867 66.3458 0.55233 66.5695 0.770264C66.8777 1.05802 66.7806 1.5087 66.749 1.88109C66.6793 2.74225 66.5695 3.59918 66.4703 4.4561C66.331 5.56905 66.2212 6.68834 66.0967 7.8034C66.0798 8.30063 65.6386 8.71322 65.1426 8.63916Z" fill="#E0349E"/>
<path d="M69.358 7.97902C68.9337 7.86265 68.653 7.39293 68.7817 6.96129C69.0878 5.94567 69.3939 4.93006 69.7169 3.92079C70.1348 2.68089 70.4958 1.4008 71.0953 0.237071C71.2979 -0.0401073 71.7539 -0.0993516 71.965 0.194754C72.1993 0.476164 72.0536 0.850672 72.003 1.17228C71.8468 1.96996 71.623 2.75072 71.4225 3.53782C71.1502 4.57459 70.8568 5.60502 70.5781 6.64179C70.4092 7.31887 70.2678 8.16733 69.3559 7.97902H69.358Z" fill="#E0349E"/>
<path d="M71.3444 9.2124C70.9032 7.89633 78.0698 3.38108 79.3342 2.61936C80.2862 2.09886 81.0905 3.46571 80.168 4.04969C77.8101 5.42077 75.4607 6.81512 73.2653 8.44011C72.9804 8.64746 72.6996 8.85482 72.421 9.07064C72.1318 9.32454 71.5998 9.72655 71.3444 9.2124Z" fill="#E0349E"/>
<path d="M39.0961 68.0736C36.0881 67.7689 33.1328 67.0368 30.2683 66.0635C21.3392 63.2388 3.86092 55.2514 13.5858 43.9739C14.1558 43.3603 14.7511 42.7763 15.3738 42.2156C15.4941 42.2452 15.6229 42.2388 15.7453 42.1881C17.0899 41.5745 18.3734 42.6239 19.2768 43.5422C19.5935 43.8808 19.8996 44.2256 20.1972 44.579C19.4373 44.615 18.6879 44.7525 17.966 45.0064C16.9971 45.3428 16.1337 46.0008 15.587 46.8747C15.0403 47.7486 14.8587 48.834 14.9558 49.8496C15.0508 50.8335 15.3485 51.7793 15.7833 52.6637C16.6952 54.5193 18.0926 56.1041 19.6357 57.4583C19.7645 57.5704 19.946 57.7291 20.1339 57.8835C21.7508 59.2208 23.5451 60.3316 25.4407 61.2266C27.1906 62.0518 29.0503 62.6717 30.9586 62.9997C31.7713 63.1394 32.5988 63.2219 33.4241 63.2219C33.4938 63.2219 33.5634 63.2219 33.631 63.2198C35.2902 65.0098 37.0929 66.658 39.0961 68.0736Z" fill="#FFF742"/>
<path d="M67.701 57.0097C68.2055 56.923 68.3469 56.2607 68.0303 55.9285C67.9817 55.7656 67.8931 55.6069 67.8445 55.4524C67.4498 54.5172 66.9664 53.5989 66.4619 52.7145C65.8202 51.5698 65.0539 50.4865 64.3404 49.3778C64.3088 49.3206 64.2771 49.2635 64.2454 49.2064C64.2454 49.2022 64.2412 49.2 64.2412 49.1979C64.2286 49.1725 64.2159 49.1471 64.2032 49.1218C63.6818 48.0384 63.2006 46.9297 62.6686 45.8506C62.5926 45.6898 62.5187 45.4952 62.4047 45.3407C62.409 45.3344 62.4132 45.3301 62.4174 45.3238C62.6517 44.945 62.8881 44.5705 63.133 44.2003C64.4228 42.3235 65.6872 40.4277 66.7363 38.4049C67.1099 37.8146 67.4688 37.2179 67.7875 36.598C67.8255 36.5133 67.8783 36.435 67.9184 36.3525C68.2097 35.9717 67.9226 35.3179 67.4013 35.3411C64.6909 35.9484 62.029 36.818 59.3228 37.4697C59.0231 37.5818 58.0331 37.7913 57.3428 38.0621C56.8763 37.5966 56.2493 37.3068 55.7258 36.9111C53.9717 35.7622 52.2872 34.4779 50.4085 33.5363C50.1108 33.4326 49.467 33.0306 49.2031 33.2951C49.1504 33.3649 49.1398 33.4347 49.1546 33.5003C48.7409 33.9574 48.5192 34.6408 48.2321 35.1676C47.8859 35.9039 47.5355 36.6403 47.1767 37.3724C46.6131 38.4663 46.2606 39.6511 45.8743 40.8149C45.8595 40.8635 45.8447 40.9164 45.8299 40.9693C45.5998 41.0815 45.3909 41.2338 45.1671 41.3544C44.5423 41.7035 43.9217 42.0569 43.3095 42.4293C41.6229 43.4534 39.9743 44.543 38.3616 45.6835C37.6861 46.2209 36.9388 46.6716 36.3119 47.2661C36.0818 47.4545 36.1282 47.8586 36.4596 47.8776H36.4702C36.4934 47.8776 36.5187 47.8776 36.542 47.8713C38.3024 48.9398 40.0967 49.8665 41.872 50.9308C43.2483 51.7666 44.6563 52.5558 46.1276 53.216C46.1993 53.2392 46.269 53.2498 46.3344 53.2498C46.3703 53.2498 46.4062 53.2456 46.44 53.2392C46.4548 53.3831 46.4695 53.5249 46.4822 53.6688C46.6891 55.9497 46.8959 58.2284 47.24 60.4945C47.3202 61.0468 47.4089 61.6011 47.5039 62.1661C47.6179 62.6612 47.62 63.2367 47.9514 63.6451C48.0569 63.7678 48.2068 63.827 48.3609 63.827C48.5994 63.827 48.8401 63.6874 48.9076 63.4377C48.9161 63.3996 48.9203 63.3594 48.9245 63.3192C49.1588 63.0399 49.3952 62.7585 49.638 62.4834C50.7948 61.1864 51.9938 59.9275 53.1653 58.6453C54.2039 57.4583 55.3965 56.3898 56.3486 55.1308C56.3486 55.1308 56.3507 55.1308 56.3528 55.1287C56.4203 55.0631 56.4689 54.9954 56.5027 54.9256C56.5027 54.9256 56.5069 54.9213 56.5069 54.9192C56.6209 54.9467 56.7327 54.9764 56.8467 55.0017C58.6178 55.444 60.4036 55.8185 62.2 56.1485C63.2892 56.3242 64.3742 56.5696 65.4677 56.7325C65.9637 56.8193 66.4598 56.8997 66.9537 56.9758C67.1247 57.0034 67.2978 57.0309 67.4688 57.0309C67.5448 57.0309 67.6208 57.0245 67.6968 57.0118L67.701 57.0097ZM77.2887 37.7532C77.58 44.3103 77.0354 50.9414 74.9034 57.1853C74.1181 59.4302 73.145 61.6858 71.7898 63.6683C71.7793 63.681 71.7687 63.6937 71.7582 63.7064C71.1207 64.5104 70.4684 65.3039 69.7929 66.0762H69.7908C65.5605 70.164 59.4832 72.3666 53.6107 71.8081C47.1619 71.095 40.3838 66.7871 35.592 62.2486C35.592 62.2295 35.5899 62.2105 35.5878 62.1893C35.2642 61.9524 34.9947 61.7083 34.7793 61.4572C34.7055 61.3832 34.6316 61.3091 34.5598 61.2372C32.9999 59.6355 31.5286 57.9513 30.1565 56.1909C28.3812 53.6963 26.7326 51.1043 25.0797 48.5293C22.8527 44.524 21.1028 40.2521 19.908 35.7918C19.813 35.4617 19.7223 35.1295 19.6294 34.7974C19.8363 34.8841 20.0474 34.956 20.2563 35.0153C20.8474 35.1824 21.4532 35.2734 22.0633 35.3348C22.6733 35.3961 23.2728 35.4215 23.8808 35.4215C24.4106 35.4215 24.9425 35.4025 25.4682 35.3708C25.5061 35.3686 25.5441 35.3665 25.5821 35.3644L25.9136 35.3454C25.9136 35.3454 25.9178 35.3454 25.9199 35.3454C25.9326 35.3454 25.9452 35.3454 25.9579 35.3454C26.6397 35.2967 27.3215 35.2375 28.0033 35.1592C30.3169 34.8968 32.6157 34.4842 34.8933 33.9997C37.1562 33.5194 39.4022 32.9608 41.6313 32.3366C43.871 31.7103 46.098 31.0332 48.3018 30.2842C48.3039 30.2842 48.306 30.2842 48.3102 30.2842C48.3187 30.2821 48.325 30.28 48.3313 30.2757C48.3313 30.2757 48.3546 30.2694 48.3757 30.2609C48.401 30.2525 48.4242 30.244 48.4517 30.2355C48.5868 30.2017 48.7198 30.1446 48.8485 30.1022L48.9372 30.0705C49.0174 30.0472 49.0955 30.0176 49.1757 29.9901C49.353 29.9287 49.5303 29.8674 49.7055 29.806C49.9652 29.7172 50.2248 29.6241 50.4824 29.5331C51.5083 29.1713 52.5299 28.7946 53.5453 28.4032C55.7195 27.5653 57.879 26.6809 59.9962 25.7055C62.1008 24.7385 64.1863 23.7145 66.1896 22.5486C67.207 21.9562 68.2055 21.332 69.1723 20.6549C69.6177 20.3418 70.0568 20.0159 70.4768 19.6689C70.9159 19.3071 71.3486 18.9305 71.7413 18.5158C72.1719 18.063 72.6067 17.5425 72.8938 16.9648C72.9276 17.0283 72.9614 17.0939 72.993 17.1574C73.62 18.5179 74.059 19.9546 74.4897 21.387C76.0728 26.7063 77.0629 32.2033 77.2929 37.7553L77.2887 37.7532Z" fill="white"/>
<path d="M87.2332 22.7012C90.5536 28.8372 89.4201 37.5228 86.6822 43.7096C85.6352 46.0011 84.2906 48.1889 82.4921 49.9683C80.9722 51.4029 79.2497 52.6026 77.6032 53.8827C78.1711 51.5404 78.5489 49.141 78.7748 46.7332C78.9626 46.5639 79.1167 46.3227 79.2476 46.0984C79.8851 45.1315 80.4909 44.1476 81.0714 43.1468C83.5686 38.6802 86.2811 33.0478 84.9281 27.83C84.3898 25.7311 82.6652 23.6724 80.301 24.1505C79.1737 24.3346 78.0423 24.743 77.1684 25.4983C76.742 23.776 76.2691 22.0664 75.7372 20.3737C78.3484 19.6247 81.1348 19.1317 83.8156 19.8003C85.3186 20.215 86.488 21.3618 87.2332 22.7012Z" fill="#FFF742"/>
<path d="M85.5592 85.174C85.7576 85.6733 85.8568 86.2023 85.9181 86.7334C80.9026 88.2124 75.9842 90.0024 71.0278 91.6676C66.2466 93.2756 61.4949 94.9662 56.6905 96.5065C55.1305 97.0482 53.5347 97.4989 51.9832 98.0596C51.9959 98.0003 52.0022 97.939 52.0001 97.8713C51.7932 96.0241 51.7552 94.1389 52.0507 92.2981C52.3188 90.7006 52.9711 89.1983 53.8176 87.8273C53.8471 87.7807 53.8767 87.7321 53.9083 87.6855C56.6694 84.6556 59.7935 82.8465 63.3356 81.4776L63.4855 81.4374C65.284 80.9909 67.0255 80.3815 68.7522 79.7235C70.5465 79.2136 72.3365 78.6804 74.135 78.1853C74.4073 78.1176 74.6775 78.0604 74.9519 78.0075C77.0755 77.9948 79.1991 78.5577 80.9912 79.7235C82.9734 81.0544 84.622 82.9671 85.555 85.1761L85.5592 85.174Z" fill="white"/>
<path d="M71.9059 77.015C71.9122 77.0299 71.9185 77.0447 71.9249 77.0574C71.8003 77.106 71.6779 77.1589 71.5576 77.2139C71.4098 77.3007 71.2156 77.4107 71.032 77.5419C69.2482 78.0391 67.4709 78.5766 65.723 79.1902L65.647 79.2156C63.7493 79.8313 61.8221 80.3666 59.9772 81.1304C59.8801 81.1156 59.7787 81.1114 59.6795 81.1156C58.9365 81.0331 58.2504 80.9654 57.6889 80.7517C57.6889 80.7474 57.6847 80.7432 57.6826 80.739C57.6488 80.6861 57.613 80.6353 57.5771 80.5824C56.4773 78.2021 57.3913 76.2851 59.802 74.9881C61.8411 74.622 63.9689 73.9005 65.78 72.9547C68.6445 72.5442 70.5169 73.3102 71.5344 76.4755C71.5956 76.6384 71.7032 76.759 71.8341 76.8416L71.9059 77.0172V77.015Z" fill="white"/>
<path d="M66.2192 55.2347C66.2804 55.3447 66.3395 55.4526 66.4007 55.5605C65.3009 55.423 64.1631 55.2854 63.0507 55.1352C61.4591 54.9279 59.8886 54.6084 58.3117 54.3143C57.6679 54.1831 57.0198 54.0646 56.3697 53.963C56.2536 53.9461 56.1501 53.9355 56.0425 53.9842C56.0298 53.9884 56.0172 53.9948 56.0066 53.999C55.8335 53.9694 55.6456 54.0117 55.4704 54.1661C53.1801 56.2693 51.1536 58.637 49.3361 61.1591C49.1398 61.4257 48.952 61.7029 48.7704 61.9864C48.7134 61.7346 48.6564 61.487 48.6269 61.2416C48.3461 59.6484 48.0379 58.0593 47.772 56.464C47.5292 55.1056 47.3836 53.7091 46.9128 52.4057C46.9086 52.3909 46.9023 52.3761 46.8959 52.3613C46.8896 52.3465 46.8854 52.3296 46.8791 52.3127C46.8284 52.1201 46.6152 51.7773 46.4189 51.9783C45.8975 51.7625 45.3866 51.5213 44.8779 51.2759C42.3976 50.0444 39.9806 48.6776 37.4201 47.6133C37.3673 47.5943 37.3146 47.5731 37.2618 47.552C37.7621 47.2917 38.2476 47.0061 38.7246 46.7035C39.7083 46.1005 40.7258 45.525 41.7327 44.9241C42.976 44.192 44.2468 43.5043 45.5196 42.823C45.8046 42.6537 46.1191 42.531 46.4083 42.3702C46.611 42.3385 46.7545 42.2115 46.8643 42.0422C46.9593 41.9386 47.0142 41.8201 47.0332 41.6995C47.1239 41.4667 47.1915 41.2171 47.2696 41.0245C47.5925 40.0703 47.8817 39.1033 48.2638 38.1723C48.7198 37.0149 49.1082 35.8343 49.4691 34.6452C49.4902 34.5161 49.5895 34.2707 49.6654 34.021C51.5463 35.4682 53.3638 36.998 55.2783 38.4008C55.7512 38.7288 56.1755 39.1541 56.7328 39.3361C56.8045 39.3614 56.8784 39.3741 56.9481 39.3741C56.9945 39.3741 57.0409 39.3699 57.0853 39.3593C57.0979 39.3657 57.1106 39.3741 57.1254 39.3805C57.1549 39.3889 57.1866 39.3911 57.2162 39.3911C57.2921 39.3911 57.3681 39.3699 57.4441 39.3466C58.0394 39.1562 58.6347 38.9637 59.2405 38.805C61.1846 38.276 63.1056 37.8951 65.0729 37.4254C65.3516 37.3408 65.6408 37.254 65.9173 37.1377H65.9194C65.683 37.527 65.512 37.9607 65.3199 38.3776C64.8534 39.1414 64.3996 39.9116 63.9478 40.6839C63.19 41.9703 62.4343 43.2546 61.7968 44.6067C61.7103 44.795 61.6237 44.9833 61.5477 45.1737C61.3197 45.3578 61.2332 45.7281 61.3957 46.0433C62.1599 47.8799 63.133 49.617 64.1104 51.3478C64.5452 52.2174 65.0096 53.0849 65.4592 53.9165C65.6999 54.3629 65.9532 54.8009 66.217 55.2347H66.2192Z" fill="#E0349E"/>
</g>
<defs>
<clipPath id="clip0_1313_6867">
<rect width="100" height="100" fill="white"/>
</clipPath>
</defs>
</svg>
