<svg width="100" height="100" viewBox="0 0 100 100" fill="none" xmlns="http://www.w3.org/2000/svg">
<circle cx="50.625" cy="50" r="36.875" fill="white"/>
<path d="M55.9375 80.9375L63.125 83.4375L66.875 82.1875L75.3125 76.5625L81.5625 70.3125L83.4375 65.9375L81.5625 65.3125H77.5L76.5625 62.5L77.5 56.5625L75.9375 54.0625H70.9375L68.125 51.5625L64.6875 45.3125L62.5 39.375L60 36.5625H55.9375L52.1875 39.375L49.0625 43.125L47.5 48.4375L50.3125 53.4375L57.5 58.75L60 62.5V67.1875L56.875 69.375L51.5625 72.5L52.1875 77.1875L55.9375 80.9375Z" fill="#E0349E"/>
<path d="M27.5 26.25L28.75 20L32.8125 17.1875L40.625 14.0625L48.125 12.5L47.1875 17.1875L49.375 21.875V25.625L45.625 27.5L40 25.625L37.8125 26.25L35.9375 30L32.8125 32.1875L28.75 30L27.5 26.25Z" fill="#FFF742"/>
<path d="M70.3125 27.8125L76.875 36.5625H78.4375L81.5625 32.8125L89.0625 21.25L90 13.75L85.9375 6.25L78.4375 3.75L72.1875 5.3125L66.875 10.9375L65.9375 17.8125L70.3125 27.8125Z" fill="#FECC02"/>
<circle cx="78.75" cy="15" r="4.375" fill="white"/>
<path d="M15.1137 88.5833L20.9091 96.25H22.289L25.0487 92.9643L31.6721 82.8333L32.5 76.2619L28.9124 69.6905L22.289 67.5L16.7695 68.869L12.078 73.7976L11.25 79.8214L15.1137 88.5833Z" fill="#FECC02"/>
<circle cx="23.125" cy="77.5" r="3.75" fill="white"/>
<path d="M28.2361 77.2066C28.089 74.2655 25.7361 72.0596 22.7949 72.0596C19.8537 72.0596 17.3537 74.4125 17.3537 77.5007C17.3537 80.589 19.7066 82.9419 22.7949 82.9419C25.8831 82.9419 28.2361 80.589 28.2361 77.5007C28.2361 77.3537 28.2361 77.3537 28.2361 77.2066ZM24.4125 80.2949C23.8243 80.4419 23.2361 80.2949 22.7949 80.1478C21.7655 79.5596 21.1772 78.5302 21.0302 77.5007C21.0302 76.7655 21.3243 75.2949 21.9125 74.5596C22.2066 74.4125 22.6478 74.4125 22.9419 74.4125C24.7066 74.4125 26.1772 75.8831 26.1772 77.6478C26.0302 78.6772 25.4419 79.8537 24.4125 80.2949Z" fill="#300375"/>
<path d="M78.2352 21.3236C81.6176 21.3236 84.4117 18.5295 84.4117 15.1472C84.4117 11.7648 81.6176 8.9707 78.2352 8.9707C74.8529 9.11776 72.0587 11.7648 72.0587 15.1472C72.0587 18.5295 74.8529 21.3236 78.2352 21.3236ZM82.0587 15.1472C82.0587 16.9119 81.0293 18.2354 79.4117 18.8236C78.8235 18.8236 78.2352 18.6766 77.794 18.5295C76.6176 17.9413 75.7352 16.6178 75.5882 15.2942C75.4411 14.4119 75.8823 12.5001 76.7646 11.6178C77.2058 11.4707 77.647 11.3236 78.2352 11.3236C80.294 11.3236 82.0587 13.0884 82.0587 15.1472Z" fill="#300375"/>
<path d="M9.11771 22.6478C8.97065 23.236 9.26477 23.8242 9.853 24.1184L16.7648 26.4713H17.0589C17.5001 26.4713 17.9412 26.1772 18.0883 25.736C18.2354 25.1478 17.9412 24.5595 17.353 24.2654L10.4412 21.9125C9.853 21.7654 9.26477 22.0595 9.11771 22.6478Z" fill="#E0349E"/>
<path d="M16.1768 12.5004C15.7356 12.0592 15.1474 11.9121 14.5591 12.3533C14.118 12.7945 13.9709 13.3827 14.4121 13.9709L19.265 20.0004C19.4121 20.2945 19.8532 20.4415 20.1474 20.4415C20.4415 20.4415 20.5885 20.2945 20.8827 20.1474C21.3238 19.7062 21.4709 19.118 21.0297 18.5298L16.1768 12.5004Z" fill="#E0349E"/>
<path d="M23.9705 8.08887C23.3822 8.08887 22.794 8.53004 22.794 9.11828C22.4999 11.6183 22.794 14.2653 23.5293 16.7653C23.6764 17.2065 24.1175 17.6477 24.5587 17.6477H24.8528C25.4411 17.5006 25.7352 16.9124 25.5881 16.3242C24.9999 13.9712 24.8528 11.6183 24.9999 9.26534C24.9999 8.6771 24.5587 8.08887 23.9705 8.08887Z" fill="#E0349E"/>
<path d="M16.6181 68.3828C16.4711 68.5298 16.324 68.6769 16.0299 68.6769C15.8828 68.8239 15.5887 68.8239 15.4417 68.971C13.3828 70.1475 11.7652 72.2063 11.0299 74.4122C9.70636 78.2357 10.5887 82.5004 12.3534 86.0298C14.1181 89.5592 16.9122 92.6475 19.7064 95.5886C20.4417 96.3239 21.324 97.2063 22.2064 97.0592C22.9417 96.9122 23.3828 96.471 23.9711 95.8828C23.9711 95.7357 24.1181 95.7357 24.1181 95.5886C24.2652 95.4416 24.4122 95.2945 24.5593 95.1475C26.6181 92.3533 29.7064 88.2357 31.7652 84.4122C32.9417 84.8534 34.8534 85.4416 35.7358 85.7357C37.2064 86.3239 38.5299 86.7651 40.0005 87.0592C45.7358 88.5298 51.7652 88.6769 57.5005 87.2063C61.9123 86.1769 66.177 84.1181 69.8534 81.471C75.7358 78.2357 80.5887 73.5298 84.1181 67.7945C87.5005 62.0592 89.2652 55.4416 89.2652 48.6769C89.2652 42.0592 87.5005 35.7357 84.2652 30.0004C87.6475 25.1475 90.8828 19.2651 90.8828 15.5886C90.8828 8.38276 85.0005 2.64746 77.9417 2.64746C75.1475 2.64746 72.6475 3.52981 70.4417 5.0004C68.677 5.88276 67.2064 7.35334 66.0299 9.26511C65.2946 10.5886 64.7064 11.9122 64.4123 13.3828C57.5005 11.1769 49.8534 11.0298 42.6475 12.7945C35.7358 13.6769 29.1181 16.7651 23.9711 21.471C17.6475 27.3533 13.5299 35.5886 12.3534 44.1181C11.324 52.5004 12.9417 61.0298 16.6181 68.3828ZM47.3534 20.4416C47.9417 21.471 48.5299 22.5004 48.5299 23.5298C48.5299 24.2651 48.2358 25.0004 47.6475 25.5886C47.0593 26.1769 46.324 26.471 45.5887 26.471C44.7064 26.471 43.677 26.0298 42.7946 25.5886C42.5005 25.4416 42.0593 25.2945 41.7652 25.1475C39.5593 24.2651 37.6475 24.4122 36.324 25.4416C35.2946 26.3239 35.0005 27.5004 34.7064 28.5298C34.4123 29.4122 34.2652 30.1475 33.824 30.5886C33.0887 31.1769 31.9122 31.0298 31.0299 30.5886C30.1475 30.1475 29.4122 29.1181 28.9711 27.6475C28.3828 25.7357 28.677 23.5298 29.5593 22.0592C29.7064 21.7651 29.7064 21.471 29.7064 21.1769C30.7358 20.2945 31.9122 19.5592 33.0887 18.8239C37.2064 16.471 41.6181 14.8533 46.177 14.1181V15.4416V16.0298C45.8828 17.7945 46.6181 19.118 47.3534 20.4416ZM33.2358 66.3239C34.1181 66.6181 35.0005 66.6181 35.8828 66.6181H37.0593C37.9417 66.7651 38.5299 67.0592 38.824 67.7945C39.7064 69.8533 38.677 73.5298 37.5005 75.1475C36.6181 76.471 35.4417 77.3533 33.9711 77.9416C33.9711 77.9416 33.9711 77.7945 33.9711 77.6475C33.9711 71.471 28.824 66.3239 22.6475 66.3239C21.9122 66.3239 21.177 66.471 20.4417 66.6181C18.5299 62.7945 17.2064 58.3828 16.6181 53.6769C19.5593 55.2945 22.7946 56.3239 25.7358 54.5592C27.6475 53.3828 28.5299 51.471 29.2652 49.5592L29.4122 49.1181C30.0005 47.6475 30.5887 46.1769 31.6181 45.1475C32.5005 44.2651 34.1181 43.6769 35.1475 44.4122C36.0299 45.0004 36.177 46.471 35.8828 47.5004C35.4417 48.6769 34.5593 49.8533 33.5299 51.0298C31.6181 53.2357 29.8534 55.5886 29.2652 58.3828C28.824 61.6181 30.1475 65.2945 33.2358 66.3239ZM23.0887 93.971C22.9417 94.1181 22.7946 94.1181 22.6475 94.1181C22.5005 94.1181 22.3534 94.1181 22.3534 93.971C16.9122 86.9122 13.5299 80.8828 13.5299 78.0886C13.5299 73.0886 17.6475 68.971 22.6475 68.971C27.6475 68.971 31.7652 73.0886 31.7652 78.0886C31.7652 80.8828 28.5299 86.7651 23.0887 93.971ZM63.824 82.0592C63.677 81.9122 63.5299 81.9122 63.2358 81.7651C59.7064 81.3239 56.6181 80.7357 54.4123 78.8239C53.2358 77.7945 52.5005 76.0298 52.6475 74.4122C52.6475 73.6769 52.9417 72.5004 53.9711 71.7651C54.5593 71.3239 55.2946 71.1769 56.177 70.8828C57.2064 70.5886 58.2358 70.2945 59.1181 69.5592C61.9123 67.5004 61.7652 63.3828 60.1475 60.5886C58.824 58.3828 56.6181 56.9122 54.5593 55.4416L53.677 54.8533C51.6181 53.3828 49.5593 51.6181 48.824 49.2651C47.7946 45.4416 51.0299 41.6181 52.5005 40.1475C53.824 38.8239 56.4711 36.7651 58.9711 37.5004C60.4417 37.9416 61.6181 39.4122 62.5005 41.9122C62.7946 42.7945 63.0887 43.6769 63.3828 44.5592C63.9711 46.471 64.5593 48.3828 65.5887 50.1475C67.0593 52.7945 69.8534 55.4416 73.3828 55.2945H74.1181C74.7064 55.2945 75.1475 55.1475 75.4417 55.2945C76.4711 55.7357 76.324 57.5004 75.8828 58.6769L75.7358 59.1181C75.1475 60.8828 74.4123 63.0886 75.7358 64.8533C76.9123 66.6181 78.9711 67.0592 82.0593 66.3239L81.9123 66.471C78.0887 73.971 71.6181 79.1181 63.824 82.0592ZM88.824 15.8828C88.824 18.5298 86.4711 23.5298 82.2064 29.5592V29.7063C81.177 31.3239 79.8534 32.9416 78.677 34.5592C78.5299 34.7063 78.2358 34.8533 78.2358 34.8533C78.2358 34.8533 77.9417 34.8533 77.7946 34.5592C71.324 26.1769 67.5005 19.2651 67.5005 15.8828C67.5005 10.0004 72.3534 5.14746 78.2358 5.14746C84.1181 5.14746 88.824 9.85334 88.824 15.8828ZM64.5593 20.1475C66.0299 25.7357 70.4417 30.1475 73.677 34.7063C74.4122 35.8828 75.4417 36.9122 76.7652 37.3533C79.4123 38.0886 81.177 35.5886 82.2064 33.3828C82.5005 33.0886 82.6476 32.6475 82.9417 32.3533C85.7358 37.5004 87.2064 43.0886 87.2064 48.971C87.2064 54.4122 86.0299 59.7063 83.677 64.4122C83.3828 64.2651 83.0887 64.2651 82.7946 64.2651C81.0299 64.8533 78.677 65.2945 77.9417 63.971C77.3534 63.0886 77.7946 61.6181 78.2358 60.1475L78.3828 59.7063C79.1181 57.3533 78.824 54.5592 76.6181 53.5298C75.7358 53.2357 75.0005 53.2357 74.2652 53.3828C74.1181 53.3828 73.824 53.3828 73.677 53.3828C71.0299 53.5298 68.9711 51.3239 67.7946 49.2651C66.9123 47.6475 66.324 45.8828 65.7358 44.1181C65.4417 43.2357 65.1475 42.2063 64.8534 41.3239C63.677 38.2357 62.0593 36.3239 60.0005 35.5886C57.3534 34.7063 54.2652 35.7357 51.324 38.6769C47.6475 42.3533 46.0299 46.3239 47.0593 49.8533C47.9417 52.9416 50.4417 55.0004 52.6475 56.6181L53.5299 57.2063C55.4417 58.5298 57.3534 59.8533 58.5299 61.7651C59.7064 63.6769 59.8534 66.471 58.0887 67.7945C57.5005 68.2357 56.7652 68.5298 55.8828 68.6769C55.0005 68.971 53.9711 69.2651 53.0887 69.8533C51.7652 70.7357 50.8828 72.3533 50.8828 74.1181C50.7358 76.3239 51.7652 78.8239 53.3828 80.2945C55.1475 81.9122 57.5005 82.7945 59.7064 83.2357C57.9417 83.6769 56.177 83.971 54.4123 84.1181C47.6475 84.8533 40.7358 83.5298 34.5593 80.2945C36.6181 79.5592 38.5299 78.2357 39.7064 76.471C41.177 74.4122 42.6475 69.8533 41.324 66.9122C40.7358 65.4416 39.4123 64.5592 37.7946 64.4122C37.3534 64.4122 36.9122 64.4122 36.4711 64.2651C35.7358 64.2651 35.0005 64.2651 34.4122 63.971C32.5005 63.3828 31.6181 60.7357 32.0593 58.6769C32.5005 56.3239 34.1181 54.4122 35.8828 52.3533C36.9122 51.1769 37.9417 49.8533 38.5299 48.0886C39.1181 46.3239 38.824 43.971 37.0593 42.6475C35.0005 41.1769 32.2064 41.9122 30.5887 43.6769C29.2652 45.0004 28.5299 46.7651 27.9417 48.3828L27.7946 48.8239C27.2064 50.2945 26.4711 51.9122 25.1475 52.7945C22.7946 54.2651 19.5593 52.6475 16.9122 51.1769C16.7652 48.6769 16.7652 46.0298 17.0593 43.5298C17.9417 35.8828 21.4711 28.971 27.0593 23.6769C26.7652 25.1475 26.9122 26.7651 27.3534 28.2357C27.9417 30.1475 28.9711 31.7651 30.4417 32.5004C31.177 32.9416 32.2064 33.2357 33.0887 33.2357C33.9711 33.2357 34.8534 32.9416 35.7358 32.3533C36.7652 31.471 37.0593 30.2945 37.3534 29.2651C37.6475 28.3828 37.7946 27.6475 38.2358 27.2063C39.1181 26.471 40.8828 27.0592 41.4711 27.2063C41.7652 27.3533 42.0593 27.5004 42.3534 27.6475C43.3828 28.0886 44.7064 28.6769 46.0299 28.6769C47.3534 28.6769 48.677 28.0886 49.5593 27.0592C50.5887 26.0298 51.0299 24.7063 51.0299 23.3828C51.0299 21.7651 50.2946 20.4416 49.5593 19.2651C48.9711 18.2357 48.5299 17.2063 48.5299 16.1769C48.5299 16.0298 48.5299 15.7357 48.5299 15.4416C48.5299 15.0004 48.5299 14.2651 48.677 13.971C48.824 13.971 49.1181 13.8239 49.2652 13.6769C54.4123 13.2357 59.7064 13.8239 64.5593 15.5886C63.9711 17.3533 64.1181 18.8239 64.5593 20.1475Z" fill="#300375"/>
</svg>
