<svg width="100" height="100" viewBox="0 0 100 100" fill="none" xmlns="http://www.w3.org/2000/svg">
<path d="M54.896 68.4375V55.3125H67.0835V50.3125L70.521 46.5625H75.2085L78.3335 50.3125L79.5835 54.375H91.771L93.3335 57.1875L94.896 65V87.8125L91.771 92.8125L86.146 93.75H55.8335L54.896 90L55.8335 80.9375L62.0835 78.125L63.021 75.3125L60.521 70.9375L54.896 68.4375Z" fill="white"/>
<path d="M3.33347 65.9375L4.58347 57.8125L17.0835 54.6875V50.3125L20.8335 45.9375L26.4585 47.1875L29.5835 50.3125V54.6875L40.521 56.25L42.7085 57.8125V69.6875H45.521L48.3335 70.9375L51.146 75.625L48.3335 81.875H42.7085V93.75H10.2085H4.58347L3.33347 65.9375Z" fill="white"/>
<path d="M40.9375 25.9375L37.8125 31.25H56.25L59.0625 30.3125L57.5 25.9375L53.4375 22.5L48.75 21.25L45 22.5L40.9375 25.9375Z" fill="#FECC02"/>
<circle cx="24.375" cy="64.375" r="5" fill="#FFF742"/>
<circle cx="78.125" cy="65" r="5" fill="#E0349E"/>
<path d="M30.2085 20.3125V7.1875L31.771 5.3125H62.396L68.646 7.1875V43.125L56.4585 44.6875L55.2085 39.6875L52.396 37.1875H48.021L44.896 43.125L35.521 44.6875L30.2085 43.125V32.5H25.521L22.396 30.3125L21.146 24.0625L24.5835 20.3125H30.2085Z" fill="white"/>
<path d="M59.3174 31.8629L59.3492 31.8625C59.953 31.8582 60.4406 31.3685 60.4435 30.7653C60.4459 30.2884 60.2344 29.8476 60.0751 29.4814C59.2192 27.1384 58.3676 24.9782 56.464 23.2041C54.4323 21.3112 51.7859 20.2894 49.2166 20.2759C45.9027 20.2773 43.4842 22.0193 41.9241 23.3811C38.9957 25.5337 37.0572 28.3453 36.1559 31.7921C36.0798 32.0833 36.3073 32.3693 36.6083 32.368C60.8137 32.4307 58.9964 32.2691 59.3174 31.8629ZM57.7938 29.6695L39.8624 29.8419C40.4081 28.1789 41.4788 26.714 43.2703 25.1314C45.2147 23.414 47.264 22.2903 49.8262 22.5076C51.7169 22.6756 53.5408 23.4957 54.9604 24.8183C56.3854 26.1465 57.1059 27.8229 57.7938 29.6695Z" fill="#300375"/>
<path d="M47.4803 19.7342C52.3429 21.702 57.0753 17.0855 55.1744 12.5759C52.9819 7.37841 44.7761 8.14261 43.9778 13.905C43.2552 16.6925 44.7971 19.0389 47.4803 19.7342Z" fill="#300375"/>
<path d="M23.3356 70.4459C26.6115 71.086 29.5954 69.3756 30.7482 66.7159C32.952 61.6298 27.618 56.4695 22.2219 58.4654C20.5322 59.0909 19.1524 60.3172 18.4475 62.1448C16.3551 66.1666 18.9631 70.2602 23.3356 70.4459ZM28.724 65.8385C27.2538 69.2337 21.9895 69.236 20.5323 65.781C19.6825 63.7635 20.6827 61.387 22.9874 60.5334C26.601 59.1983 30.1482 62.5528 28.724 65.8385Z" fill="#300375"/>
<path d="M32.31 74.3965C30.275 72.4994 27.6541 71.3232 24.9334 71.0848C22.0274 70.8238 19.4776 71.7739 17.1417 73.444C13.5547 75.4339 10.1492 79.2588 8.84657 84.2408C8.75816 84.579 9.0224 84.9109 9.37201 84.9093C36.7509 84.84 34.9983 84.7929 35.3076 84.6765C35.5357 84.5905 35.7179 84.3725 35.8603 84.128C36.4239 84.0807 36.8706 83.6236 36.8747 83.0492C36.8776 82.5839 36.6945 82.1659 36.5473 81.8299C35.6376 79.7336 34.9519 76.8582 32.31 74.3965ZM34.2301 81.9505L12.9073 82.1559C13.5255 80.0951 14.8008 78.3071 16.9909 76.3726C19.2581 74.3699 21.7014 73.0141 24.7388 73.2821C26.9741 73.4774 29.129 74.4468 30.8064 76.0107C32.5451 77.6311 33.3928 79.6823 34.2301 81.9505Z" fill="#300375"/>
<path d="M76.7206 71.3292C81.9533 72.3577 86.0864 67.4409 84.1603 62.8758C81.9458 57.6271 73.9554 57.5755 71.8392 63.0266C69.7352 67.0685 72.3786 71.1415 76.7206 71.3292ZM82.1146 66.7217C80.642 70.1225 75.3792 70.1164 73.9229 66.6657C73.0588 64.6151 74.105 62.26 76.378 61.4181C80.0044 60.08 83.5383 63.4374 82.1146 66.7217Z" fill="#300375"/>
<path d="M85.7006 75.2806C83.4729 73.2047 80.5071 71.9556 77.4048 71.9272C75.0156 71.9283 72.7924 72.7096 70.5269 74.3306C66.9428 76.3205 63.5394 80.1436 62.2371 85.1241C62.1487 85.4623 62.413 85.7943 62.7625 85.7928C90.9332 85.9826 88.8669 85.6702 89.2504 85.0121C89.8143 84.9651 90.2612 84.5077 90.2653 83.9332C90.2682 83.4665 90.0843 83.0471 89.9364 82.7096C88.8765 79.876 87.9447 77.3702 85.7006 75.2806ZM87.6214 82.8346L66.2979 83.04C66.9161 80.9791 68.1914 79.1897 70.3815 77.2553C72.6614 75.2413 75.097 73.8988 78.1286 74.1647C80.3647 74.3615 82.5196 75.3309 84.197 76.8948C85.9356 78.5126 86.7877 80.5747 87.6214 82.8346Z" fill="#300375"/>
<path d="M54.7651 44.0697C54.7732 44.6052 55.0964 45.0673 55.8041 45.1583C59.673 45.7356 63.0565 45.8361 66.1478 45.4642C71.2965 44.8446 71.9546 41.4411 71.8356 36.7236C71.1779 10.6704 71.4906 9.99645 69.9911 7.42583C69.1345 5.95757 67.4637 4.8575 65.8336 4.85176C64.321 4.51321 46.6516 3.61299 32.8369 4.68409C30.575 4.85786 28.7591 6.72195 28.6133 9.01831C28.3995 12.3824 28.4611 15.7936 28.7647 19.1808C26.8029 18.917 25.2622 18.7025 23.4964 19.884C20.3655 21.954 19.1892 25.7469 20.8414 29.1987C21.1422 30.6233 21.7356 31.9327 23.1716 32.9446C24.7047 34.0251 26.7759 34.3829 28.6338 33.9452C28.4144 37.2155 28.4315 40.1032 28.6966 42.6882C28.8416 44.0913 29.9115 45.2043 31.2981 45.3981C36.3461 46.0955 43.4677 45.2348 43.8821 45.1009C44.0294 45.0256 44.1242 44.9834 44.2049 44.9206C45.016 44.7759 45.7651 44.5864 46.6623 44.5041C46.9184 43.0404 47.5628 41.1147 48.5291 39.9854C49.4952 38.8562 50.9722 38.099 52.45 38.2556C52.4616 38.2568 52.4727 38.261 52.4842 38.2622C54.1627 39.6648 54.7318 41.8805 54.7651 44.0697ZM31.6019 43.2124C31.2292 43.1607 30.9305 42.8447 30.891 42.4627C30.5686 39.3176 30.6303 35.5334 31.0762 31.2136C31.1471 30.5259 30.5022 29.9307 29.8562 30.0043C29.3433 30.0854 29.3425 29.9995 27.6712 30.3935C26.1905 30.7468 25.3081 30.9105 24.3767 30.1925C21.704 28.1318 21.4278 23.8959 24.7185 21.7208C26.4174 20.5814 28.2624 21.5914 30.0236 21.4878C30.6685 21.4524 31.1391 20.871 31.0755 20.2775C30.6691 16.5795 30.5815 12.8384 30.8149 9.15905C30.8917 7.95127 31.8331 6.97327 33.0064 6.88423C42.3117 6.1633 52.7811 6.18197 65.0082 6.94742C66.1262 7.01635 67.0238 7.91106 67.097 9.02692C67.8826 21.0013 67.8675 31.8182 67.0511 42.0936C67.0023 42.7025 66.5118 43.1994 65.8842 43.2741C63.2489 43.5944 60.246 43.5326 56.9271 43.0889C56.5729 38.5739 54.0059 35.8566 51.3212 35.272C47.7432 34.5038 43.4659 37.2242 42.558 43.0558C37.9732 43.5628 34.4755 43.6102 31.6019 43.2124Z" fill="#300375"/>
<path d="M48.6953 69.3226C47.5045 68.55 46.3685 68.4117 45.3048 68.4712C45.2135 66.8001 45.3809 65.1187 45.4323 63.4417C45.4914 61.5087 45.3545 59.5028 44.4632 57.7864C43.9265 56.7533 42.6154 55.4191 40.977 54.8483C40.4064 54.537 39.7712 54.3297 39.0834 54.2864C36.6677 54.1424 34.1167 54.0685 31.5184 54.0286C31.8262 51.7409 31.0791 49.3142 29.4833 47.6381C28.1968 46.2869 25.366 44.7468 23.3177 45.3049C20.8118 45.1125 18.2259 46.3526 16.6971 48.7459C15.4338 50.72 15.8925 52.6216 16.3147 54.304C13.2677 54.4534 10.1349 54.6564 6.76777 54.9298C4.5504 55.1165 2.79976 56.9303 2.69636 59.1477C2.11617 71.2585 2.32656 82.1773 3.34046 92.526C3.65952 95.8374 6.98042 95.8262 10.0902 95.8262C10.2392 95.8262 40.3718 95.3496 41.8656 94.8299C42.5399 94.8202 43.2149 94.6725 43.7719 94.2996C46.2805 92.6208 45.8376 86.184 45.1663 83.2063C50.2865 83.6147 52.8405 80.2168 52.1768 75.7462C52.2785 72.9885 50.8566 70.7006 48.6953 69.3226ZM6.71535 93.4609C6.09064 93.4021 5.59446 92.9195 5.53629 92.312C4.53244 82.0696 4.32421 71.2556 4.89937 59.2525C4.95179 58.1352 5.83501 57.2218 6.94944 57.1271C13.9453 56.5622 17.6789 56.4879 18.0294 56.3699C20.1177 55.6834 16.9571 52.4315 18.5562 49.9335C20.5928 46.7468 24.7583 46.5138 26.9819 50.0197C27.985 51.5685 27.5732 53.0301 27.4781 55.0389C27.4776 55.0479 27.4821 55.0555 27.4819 55.0644C27.4817 55.0736 27.4766 55.0813 27.4766 55.0906C27.4766 55.12 27.547 55.4661 27.5581 55.4942C28.0313 56.6881 28.5851 55.8705 38.9484 56.488C40.1339 56.5627 41.0746 57.5091 41.1837 58.7255C41.7688 66.1255 40.8823 69.5504 41.2089 70.3577C41.6195 71.3694 42.8684 71.0322 44.0796 70.8377C45.431 70.6237 46.4054 70.4658 47.5019 71.1766C50.8187 73.2969 50.6541 77.5229 47.9988 79.6368C46.5998 80.7595 45.0326 79.7766 42.9372 79.5894C42.7901 79.6189 41.1288 79.2781 41.3129 80.7872C41.8343 85.051 41.9642 88.8338 41.7 92.0248C41.6662 92.404 41.3711 92.7242 41.0013 92.7831C38.4067 93.1947 8.66402 93.6647 6.71535 93.4609Z" fill="#300375"/>
<path d="M91.0707 53.6578C90.6591 53.5181 90.2298 53.4179 89.7778 53.3989C86.9139 53.279 84.0149 53.3483 81.128 53.6039C81.2495 51.5571 80.5527 49.4611 79.1749 47.9377C78.2698 46.9369 76.4979 45.6273 74.9687 45.6001C72.0483 44.6309 68.6796 45.6794 66.7416 48.3107C65.3354 50.22 65.8935 51.9712 66.3982 54.0527C62.4823 53.7982 59.0872 53.8375 56.1201 54.2075C54.7429 54.3784 53.627 55.4971 53.4654 56.8672C53.0856 60.1171 53.2493 64.0435 53.9853 69.2508C54.0616 69.7111 54.4769 70.1292 54.981 70.1753C54.9816 70.1753 54.9821 70.1757 54.9827 70.1757C54.9839 70.1759 54.9835 70.1756 54.9906 70.1771C57.3586 70.375 59.5432 71.0472 60.9558 72.9569C61.7116 74.6807 61.2287 76.6784 60.0289 77.8902C58.895 79.0351 56.8121 79.7862 55.2661 79.332C55.0824 79.7912 54.8083 80.1903 54.5772 80.6181C54.4092 80.7813 54.3084 80.9969 54.2709 81.2372C54.2608 81.2801 54.2379 81.3171 54.2323 81.3616C53.7376 85.2449 53.7103 88.6284 54.149 91.7089C54.3867 93.3719 55.7582 94.6458 57.4112 94.742C68.5407 95.3858 79.6398 95.0438 90.7902 94.0713C91.7905 93.9837 92.6825 93.5525 93.3809 92.9145C97.2934 90.6712 97.5419 86.1599 97.5552 81.6388C97.6085 63.5769 97.9485 61.1276 96.3739 57.838C95.6455 56.316 93.1637 53.5634 91.0707 53.6578ZM57.5383 92.539C56.9293 92.5045 56.4224 92.0248 56.3334 91.3987C55.9585 88.7663 55.9557 85.7576 56.3255 82.4402C66.8685 81.3864 66.6154 69.5058 56.0497 68.0746C55.4437 63.502 55.3195 60.0065 55.6569 57.1242C55.7007 56.7494 56.0095 56.4435 56.3922 56.3961C62.4331 55.6424 67.3105 56.4404 67.9492 56.3078C69.1542 56.0791 68.7383 54.8393 68.7695 54.6914C68.4913 52.5775 67.4596 51.0549 68.5174 49.619C70.5424 46.8723 74.7611 46.5492 76.9948 49.7785C78.3116 51.6559 76.9852 53.8292 77.3851 55.2919C77.8762 57.0948 79.5912 55.1885 89.6858 55.6019C90.8936 55.6536 91.8917 56.5742 92.0073 57.7446C92.9286 67.0435 93.1333 77.51 92.6335 89.7414C92.5882 90.8601 91.7129 91.7764 90.5992 91.8741C78.6378 92.9167 67.8238 93.1378 57.5383 92.539Z" fill="#300375"/>
<path d="M76.6031 39.5103C76.5314 40.1127 76.9603 40.6629 77.5675 40.7368C78.1727 40.8089 78.7215 40.3772 78.7941 39.7725L79.6438 32.6781C79.7168 32.0728 79.2853 31.525 78.6804 31.4514C78.0757 31.3788 77.5263 31.81 77.4537 32.4148L76.6031 39.5103Z" fill="#E0349E"/>
<path d="M81.8705 43.5194C82.2951 43.8448 82.906 43.8208 83.3036 43.4388L90.4563 36.5742C90.8963 36.1523 90.9104 35.4539 90.4886 35.0149C90.0704 34.575 89.3688 34.5603 88.9294 34.9826L81.7767 41.8473C81.2892 42.3148 81.3324 43.107 81.8705 43.5194Z" fill="#E0349E"/>
<path d="M89.2677 47.7358L94.6078 45.9141C95.1846 45.7174 95.4919 45.0908 95.2952 44.514C95.0986 43.9372 94.472 43.6299 93.8952 43.8266L88.5551 45.6482C87.9783 45.8449 87.6709 46.4715 87.8676 47.0483C88.0633 47.6233 88.6902 47.9329 89.2677 47.7358Z" fill="#E0349E"/>
</svg>
