<svg width="100" height="100" viewBox="0 0 100 100" fill="none" xmlns="http://www.w3.org/2000/svg">
<g clip-path="url(#clip0_1313_6844)">
<path d="M71.0823 87.653C70.898 87.8686 70.7112 88.0863 70.5046 88.2831C69.7175 89.0414 68.8817 89.7483 68.0326 90.4389C66.31 91.562 64.4341 92.4552 62.5187 93.2106C60.2616 94.0974 57.9346 94.7909 55.5694 95.3034C54.0182 95.5502 52.4552 95.7305 50.8851 95.8401C49.0428 95.9669 47.1912 96.0137 45.3422 95.9763C45.3079 95.9753 45.2738 95.9698 45.2397 95.9665C44.8418 95.9824 44.4438 96.0005 44.044 96.0027C43.5483 96.0043 43.055 96.0015 42.5619 95.9941C42.4592 95.9911 42.3587 95.9882 42.256 95.9853C41.4367 95.9616 40.6184 95.9016 39.8001 95.8416C39.3489 95.8081 38.9004 95.7564 38.4518 95.7071C38.0351 95.6609 37.6186 95.6102 37.2071 95.5437C36.7093 95.461 36.2114 95.3783 35.7139 95.2843C35.2277 95.1928 34.7464 95.0901 34.2629 94.9874C33.8293 94.8952 33.4006 94.7895 32.9696 94.6859C32.77 94.6392 32.5683 94.581 32.3711 94.5298C32.1807 94.4787 31.9855 94.4344 31.7953 94.3788C31.4601 94.2803 31.1248 94.1841 30.7897 94.0811C30.2286 93.9738 29.6725 93.8531 29.1217 93.7051C28.9608 93.6617 28.8 93.6138 28.6392 93.5659C28.5305 93.5332 28.4241 93.5005 28.3177 93.4679C28.2045 93.4327 28.0936 93.3976 27.9804 93.3602C27.8877 93.3302 27.7949 93.2979 27.7021 93.2679C27.571 93.2232 27.442 93.1785 27.3109 93.1314C27.2386 93.1043 27.164 93.0794 27.0916 93.0522C26.9266 92.9928 26.7617 92.9311 26.5968 92.8672C26.5855 92.8623 26.5719 92.8573 26.5606 92.8525C24.7951 91.8975 23.0494 90.8908 21.5342 89.5696C20.3424 88.5218 19.2785 87.3161 18.5681 85.8906C18.3705 85.4568 18.1937 85.0145 18.0377 84.5614C18.0311 84.5521 18.0268 84.5429 18.0202 84.5336C17.993 84.4485 17.9634 84.3657 17.9361 84.2829C17.8005 83.8372 17.6808 83.392 17.5889 82.9362C17.5008 82.5056 17.4518 82.0669 17.405 81.6306C17.4012 81.6032 17.3997 81.5758 17.3959 81.5484C17.3853 81.4411 17.3748 81.3314 17.3665 81.2219C17.3583 81.1124 17.3523 81.0029 17.3509 80.8935C17.3484 80.5838 17.4099 80.2736 17.4801 79.975C17.501 79.8845 17.5266 79.7896 17.559 79.6972C17.5865 79.6137 17.6185 79.5327 17.6595 79.4587C17.8889 78.4725 18.1819 77.4994 18.4907 76.536C20.3082 71.4078 23.0715 66.596 26.6416 62.4748C28.3318 60.4194 30.3968 58.7506 32.4554 57.0656C33.1853 56.5492 33.9349 56.0585 34.6845 55.57C35.5203 55.0225 36.3625 54.4889 37.231 53.997C37.3866 53.9081 37.5444 53.8216 37.7021 53.7373C37.6914 53.712 37.6785 53.6865 37.6632 53.6633C37.4024 53.2004 36.8212 53.1586 36.4039 52.8938C35.7833 52.5548 35.1941 52.1552 34.6143 51.7468C31.7498 49.6922 28.916 47.2855 26.6495 44.5353C22.3516 39.3583 19.3739 33.0716 18.2381 26.4373C18.0295 25.2745 17.8783 24.1019 17.8094 22.9249C17.8975 22.4037 17.9948 21.8805 18.1531 21.3818C18.6083 20.7254 19.2825 20.0799 20.6829 20.2296C23.0006 21.4419 25.535 22.271 28.0256 23.1102C35.0109 25.3952 42.3233 26.7105 49.6629 27.0861C55.9453 27.4471 61.5635 26.8394 67.4356 24.4788C68.4103 24.1038 69.3811 23.706 70.3217 23.248C70.4606 23.186 70.5927 23.1192 70.7226 23.0478C71.1399 22.8367 71.5484 22.6116 71.9504 22.375C72.0177 22.336 72.0852 22.2947 72.1504 22.251C72.237 23.367 72.2782 24.4727 72.2591 25.6084C72.3002 31.2343 70.0854 36.5127 66.7721 40.9966C64.9319 43.5031 62.9251 45.9228 60.5063 47.9003C60.2922 48.1173 60.0735 48.3341 59.8571 48.5511C59.8618 48.5466 59.8665 48.5422 59.8689 48.5377L59.723 48.6861C59.723 48.6861 59.7395 48.6706 59.7466 48.6617C59.6383 48.7725 59.5234 48.8762 59.413 48.9823L58.7858 49.5836C58.5556 49.8024 58.3232 50.0212 58.0886 50.2353C57.7695 50.529 57.4526 50.825 57.129 51.1162C56.7913 51.4207 56.4492 51.7183 56.1092 52.0227C55.8702 52.2345 55.6311 52.4439 55.3898 52.6533C55.172 52.8406 54.9518 53.03 54.7317 53.2173C54.631 53.3032 54.5301 53.3959 54.4249 53.4794C54.0861 53.7452 53.7516 54.0156 53.4018 54.2674C53.2944 54.3463 53.1871 54.4229 53.0776 54.4994C53.3959 54.7864 53.7142 55.0757 54.0208 55.376C54.3695 55.7208 54.7016 56.0834 55.0362 56.4414C55.6897 57.1457 56.3714 57.8235 57.0226 58.53C57.6318 59.1874 58.2105 59.8713 58.7635 60.575C59.4104 61.2722 60.0362 61.9871 60.6386 62.7195C62.8878 65.4396 65.1035 68.2087 66.9071 71.2484C69.284 75.3977 71.1144 79.9661 71.8297 84.7074C71.7434 85.7205 71.5159 86.7182 71.08 87.6552L71.0823 87.653Z" fill="white"/>
<path d="M66.0567 35.6626C66.056 35.6854 66.0554 35.706 66.0571 35.7266C66.0577 35.7061 66.0584 35.6832 66.0567 35.6626Z" fill="#300375"/>
<path d="M63.4586 35.9357C63.7141 35.8679 63.9743 35.7957 64.2302 35.7143C63.96 36.3714 63.7057 37.029 63.2797 37.7045C62.5401 38.7967 61.6549 39.7913 60.7302 40.7279C56.1357 44.9654 50.0274 47.8316 43.7113 47.9273C39.7337 47.9583 35.6945 46.6418 32.6113 44.0935C30.7793 42.5924 29.2117 40.7915 27.9281 38.8075C27.0299 37.4016 26.1998 35.9294 25.6169 34.3618C26.0604 34.5841 26.5376 34.7482 27.013 34.8985C27.5019 35.0538 27.9961 35.1842 28.4927 35.3101C29.4519 35.5495 30.4286 35.7416 31.4035 35.9155C32.392 36.092 33.386 36.2368 34.3829 36.3612C35.3956 36.4883 36.4089 36.5995 37.4249 36.6925C39.539 36.8856 41.6571 37.0195 43.7788 37.1103C44.2875 37.1318 44.7986 37.1511 45.3076 37.1658C46.8367 37.2099 48.369 37.2222 49.8997 37.2094C51.9332 37.1906 53.9702 37.1263 56.0005 36.9777C57.026 36.9025 58.0518 36.8159 59.074 36.6951C60.0526 36.5798 61.0317 36.4509 62.0009 36.2648C62.4925 36.1697 62.9821 36.0631 63.4655 35.9336L63.4586 35.9357Z" fill="#FFF742"/>
<path d="M64.2051 33.3343C64.903 34.4019 62.9479 34.7942 62.2758 35.13C62.2549 35.1431 62.2317 35.1538 62.2063 35.1645C62.0775 35.1949 61.9466 35.2207 61.8178 35.2489C59.8785 35.6484 57.906 35.8512 55.9325 36.0083C55.1588 36.0657 54.3831 36.1162 53.6054 36.153C51.5216 36.2546 49.4352 36.2901 47.3498 36.2869C45.3216 36.283 43.2975 36.2156 41.2741 36.1254C39.6024 36.0339 37.9177 35.9215 36.2344 35.7592C34.2367 35.5672 32.2384 35.3206 30.2614 34.9653C29.1777 34.7632 28.1044 34.5159 27.0518 34.1873C26.6672 34.0578 26.2897 33.9194 25.9199 33.7539C25.7533 33.6694 25.5891 33.5826 25.4298 33.4824C25.3806 33.4468 25.3313 33.4135 25.2844 33.3757C25.2594 33.2908 25.2345 33.2058 25.2118 33.1209C25.1815 32.9834 25.1633 32.8212 25.0892 32.6983C25.0916 32.6939 25.094 32.6916 25.0987 32.6872L25.1409 32.6497C25.2064 32.5947 25.2764 32.5443 25.3464 32.494C25.4487 32.4309 25.5509 32.3723 25.6552 32.3184C25.8962 32.2001 26.1478 32.1095 26.3973 32.0119C26.6832 31.92 26.9666 31.8325 27.2544 31.7543C27.5468 31.6739 27.8411 31.6072 28.1354 31.5405C29.0843 31.3493 30.0371 31.1787 30.9998 31.0629C31.9969 30.9414 32.9957 30.8404 33.9985 30.7577C34.8202 30.6994 35.6441 30.6458 36.4652 30.6057C38.5284 30.5058 40.5965 30.4743 42.6612 30.4769C44.6963 30.4809 46.7323 30.5328 48.7646 30.6301C50.352 30.7123 51.9362 30.8263 53.5172 30.9721C55.5492 31.1605 57.5721 31.4306 59.581 31.7868C60.794 32.0199 61.9992 32.287 63.1783 32.6648C63.2099 32.6771 63.2416 32.6871 63.2732 32.6994C63.6157 32.8641 63.9435 33.0603 64.1982 33.3364L64.2051 33.3343Z" fill="#FFF742"/>
<path d="M66.0565 35.8286C66.0565 35.8286 66.0565 35.8286 66.0564 35.8309C66.0565 35.8286 66.0566 35.8241 66.0567 35.8218C66.0567 35.8218 66.0569 35.815 66.057 35.8104C66.0572 35.8036 66.0573 35.799 66.0575 35.7922C66.0577 35.7854 66.058 35.7763 66.0582 35.7695C66.0584 35.7626 66.0585 35.7581 66.0587 35.7513L66.0589 35.7444C66.0589 35.7444 66.0592 35.7353 66.0593 35.7308C66.0599 35.708 66.0605 35.6876 66.0589 35.6647C66.0584 35.6829 66.0579 35.6989 66.0575 35.7148C66.054 35.5189 66.0482 35.3229 66.0401 35.1291C66.0404 35.12 66.0406 35.1109 66.0408 35.104C66.0378 35.0516 66.037 34.9992 66.0339 34.9467C66.0296 34.8578 66.0254 34.7688 66.0188 34.6798C66.0188 34.6798 66.0188 34.6798 66.0189 34.6776C66.0139 34.6114 66.0089 34.5475 66.0017 34.4812C66.0017 34.4812 66.0018 34.4767 66.0019 34.4744C66.0019 34.4744 66.002 34.4699 66.0021 34.4676C65.9945 34.4127 65.9847 34.3578 65.9748 34.3051C65.9748 34.3051 65.9702 34.305 65.968 34.3026C65.9482 34.195 65.9286 34.0852 65.902 33.9774C65.877 33.8924 65.852 33.8097 65.8224 33.7269C65.8096 33.6969 65.7944 33.6691 65.7792 33.6414C65.7792 33.6414 65.7793 33.6391 65.7793 33.6368C65.7465 33.5858 65.7137 33.537 65.6808 33.4905C65.6587 33.4625 65.6321 33.4367 65.6077 33.411C65.5679 33.3643 65.5281 33.3176 65.486 33.2754C65.4682 33.2567 65.4504 33.2402 65.4304 33.2214C65.4304 33.2214 65.4304 33.2214 65.4281 33.2213C65.3504 33.144 65.2749 33.0689 65.1972 32.9915C65.215 33.008 65.2327 33.0267 65.2505 33.0432C65.1594 32.9563 65.0658 32.8739 64.9724 32.7869C64.9207 32.7581 64.8691 32.727 64.8196 32.6983C64.7388 32.6504 64.6533 32.6047 64.5774 32.5455C64.1259 32.3595 63.6622 32.2003 63.1935 32.0593C62.9625 31.9912 62.7291 31.9252 62.4978 31.8662C59.4779 30.6861 56.239 30.1327 53.0495 29.608C49.3728 29.0261 45.6429 28.8616 41.9267 28.7818C37.549 28.7444 33.0898 28.8435 28.8504 30.033C27.603 30.4388 26.2401 30.8868 25.2572 31.783C25.2178 31.8024 25.1784 31.8217 25.139 31.8433C24.9113 31.9757 24.6625 32.1279 24.5078 32.3466C24.4126 32.4782 24.3472 32.6062 24.3084 32.7644C24.2802 32.8729 24.2882 32.9893 24.3056 33.0991C24.3344 33.2889 24.4343 33.4694 24.5579 33.6187C24.709 35.0304 25.3575 36.3858 25.9535 37.66C29.1694 44.1607 35.0622 49.2403 42.5504 49.611C42.8308 49.6305 43.109 49.6454 43.3897 49.6535C47.9497 49.7849 52.6733 48.2793 56.593 46.0582C60.2742 43.8666 63.9021 40.9927 65.7135 37.0279C65.7368 36.933 65.7623 36.8403 65.7924 36.7478C65.8749 36.4997 65.9642 36.2564 66.0625 36.0155C66.0643 35.9541 66.0614 35.8948 66.0632 35.8334L66.0565 35.8286ZM26.1905 32.9235C28.2422 31.7188 30.6395 31.2801 32.9696 30.951C37.1297 30.4539 41.3315 30.4885 45.5102 30.6932C48.7725 30.8328 52.0215 31.1952 55.2314 31.807C57.7658 32.3173 61.4781 33.0095 63.7579 34.5053C63.2726 34.7806 62.6141 34.962 62.278 35.1322C62.2571 35.1452 62.2339 35.1559 62.2108 35.1667C62.0798 35.1948 61.951 35.2252 61.82 35.251C59.8807 35.6506 57.9082 35.8533 55.9347 36.0104C55.1611 36.0678 54.3853 36.1183 53.6076 36.1551C51.5238 36.2567 49.4374 36.2922 47.352 36.289C45.3238 36.2852 43.2997 36.2177 41.2763 36.1275C39.6047 36.036 37.9199 35.9237 36.2366 35.7613C34.239 35.5693 32.2406 35.3227 30.2636 34.9674C29.1799 34.7654 28.1066 34.5181 27.054 34.1894C26.6694 34.0599 26.292 33.9215 25.9221 33.756C25.7848 33.686 25.6476 33.6137 25.5151 33.5348C25.7335 33.327 25.9357 33.0482 26.1881 32.9302L26.1905 32.9235ZM60.7278 40.7304C56.1333 44.9678 50.0251 47.834 43.709 47.9297C39.7314 47.9608 35.6921 46.6442 32.6089 44.096C30.7769 42.5948 29.2094 40.7939 27.9258 38.8099C27.0275 37.4063 26.202 35.932 25.6213 34.3667C26.0626 34.5889 26.5399 34.7507 27.0106 34.9009C27.4995 35.0562 27.9937 35.1866 28.4903 35.3125C29.4496 35.5519 30.4262 35.7441 31.4011 35.9179C32.3896 36.0944 33.3836 36.2392 34.3805 36.3636C35.3933 36.4907 36.4065 36.6019 37.4226 36.695C39.5367 36.888 41.6548 37.022 43.7764 37.1127C44.2852 37.1342 44.7963 37.1535 45.3052 37.1682C46.8343 37.2123 48.3666 37.2246 49.8974 37.2118C51.9308 37.193 53.9678 37.1288 55.9982 36.9801C57.0236 36.9049 58.0494 36.8183 59.0716 36.6975C60.0503 36.5823 61.0293 36.4534 61.9986 36.2673C62.4902 36.1721 62.9797 36.0656 63.4632 35.936C63.7209 35.8683 63.9788 35.796 64.2347 35.7146C63.9645 36.374 63.708 37.0293 63.2819 37.707C62.5423 38.7992 61.6571 39.7939 60.7324 40.7305L60.7278 40.7304Z" fill="#300375"/>
<path d="M63.1827 76.208C61.1389 73.2593 57.8732 71.5734 54.7413 70.0007C51.8889 68.5567 50.472 67.7894 49.3874 64.6088C49.0594 63.7863 48.7419 62.9141 48.1002 62.274C45.8777 60.1376 42.735 61.4748 41.4846 63.9642C37.7005 71.1466 35.749 70.0679 30.6208 73.3244C30.5674 73.3548 30.5118 73.3828 30.4561 73.413C28.2443 74.7862 26.297 76.57 24.5669 78.5058C24.5125 78.5726 24.4202 78.6815 24.3089 78.8195C23.3373 79.798 22.39 81.0459 22.0206 82.3697C21.5662 84.2671 23.3116 85.6815 24.6096 86.771C28.8024 89.8909 35.1874 90.8926 40.3179 91.1976C45.2881 91.4388 50.3942 91.2445 55.1923 89.8503C56.641 89.514 59.6193 88.6503 63.2379 86.4934C65.204 85.3227 65.51 83.1067 65.514 82.5739C65.4293 80.2829 64.4557 78.0847 63.1758 76.2101L63.1827 76.208ZM33.5117 73.8291C34.5898 73.1952 35.6992 72.5873 36.7008 71.8351C39.839 70.1767 41.5301 67.1399 43.1875 64.0793C43.7794 63.1195 45.0161 62.2921 46.1697 62.6851C47.4096 63.0146 47.7939 64.3442 48.2503 65.3889C48.6267 66.2765 49.0536 67.1541 49.6646 67.9096C51.0966 69.7362 53.351 70.6073 55.3052 71.7521C58.93 73.6602 62.2473 76.0103 63.6226 80.0418C63.658 80.1613 63.6956 80.2853 63.7354 80.4094C63.7409 80.4551 63.7442 80.4985 63.752 80.5443C63.7837 80.7137 63.8087 80.8761 63.827 81.0337C63.777 81.1052 63.7404 81.1861 63.7219 81.2721C63.3078 83.1183 61.9563 84.5208 60.4384 85.5906C53.2577 90.4822 38.7747 90.2969 30.685 87.7341C28.3579 87.0066 26.0723 85.9478 24.4025 84.128C23.6217 83.3244 23.6175 82.7573 24.2239 81.848C25.3118 80.0029 27.1126 78.7819 28.7144 77.414C29.62 76.6658 30.5322 75.9247 31.4465 75.1882C31.5096 75.1377 31.5593 75.0799 31.6022 75.0174C31.6393 74.9957 31.6765 74.974 31.7136 74.9545C32.3144 74.6371 32.8777 74.2708 33.4213 73.8743C33.4515 73.8569 33.4817 73.8419 33.5096 73.8245L33.5117 73.8291Z" fill="#300375"/>
<path d="M63.6224 80.0416C62.2471 76.01 58.9297 73.6622 55.3051 71.7519C53.3509 70.607 51.0987 69.736 49.6644 67.9093C49.0535 67.1539 48.6265 66.2762 48.2501 65.3887C47.7913 64.3462 47.4071 63.0166 46.1695 62.6849C45.0137 62.2917 43.7792 63.1192 43.1873 64.0791C42.712 64.958 42.2299 65.8345 41.7168 66.6782C41.4577 67.0282 41.1919 67.3758 40.9127 67.7116C40.0113 68.7126 38.9488 69.5177 37.832 70.3031C36.0376 71.5379 34.1184 72.6645 32.2431 73.8537C32.0369 73.9548 31.8306 74.0582 31.6265 74.1661C30.0393 75.029 28.5628 76.0908 27.2303 77.3072C26.0262 78.4292 24.9597 79.6919 24.0544 81.0663C23.8467 81.3769 23.684 81.7115 23.5462 82.0559C23.5458 82.0696 23.5408 82.0831 23.5404 82.0967C23.4914 82.2911 23.4355 82.4877 23.3886 82.6867C23.3922 82.721 23.3981 82.753 23.4019 82.7827C23.5512 83.5453 23.9435 84.2762 24.4638 84.8491C25.2089 85.547 26.0443 86.1221 26.8939 86.6772C27.0332 86.7586 27.1725 86.8401 27.3094 86.9237C29.3466 87.882 31.6232 88.3826 33.8129 88.8055C38.7054 89.5227 43.6705 89.9414 48.617 89.6582C50.7906 89.5318 52.8999 89.1782 55.0194 88.711C56.604 88.3331 58.1302 87.7668 59.654 87.2005C59.646 87.1638 59.6401 87.1295 59.6389 87.093C59.708 87.0723 59.7772 87.0492 59.8464 87.0239C59.9641 86.9817 60.0797 86.935 60.191 86.8767C60.307 86.8163 60.4141 86.7442 60.5212 86.6744C60.703 86.5499 60.878 86.4206 61.0465 86.2797C61.0512 86.2753 61.0559 86.2708 61.0605 86.2687C61.3159 86.0483 61.5511 85.8115 61.7953 85.5794C62.0583 85.3319 62.3212 85.0867 62.5553 84.8088C62.6168 84.7378 62.6759 84.6666 62.7352 84.5931C63.1074 84.2805 63.4507 83.9397 63.7495 83.5567C64.4856 82.5053 63.9559 81.1533 63.6293 80.0418L63.6224 80.0416Z" fill="#E0349E"/>
<path d="M73.655 84.2229C73.0921 81.087 72.1686 78.0226 70.9169 75.0922C68.9905 70.5278 66.0739 66.4791 62.8984 62.6962C61.1617 60.583 59.2777 58.5862 57.2522 56.7471C56.4278 56.0288 55.5847 55.3236 54.7013 54.6696C54.7106 54.6653 54.7175 54.661 54.7268 54.6567C55.0558 54.4954 55.3783 54.3202 55.6901 54.1242C55.7429 54.1144 55.7915 54.093 55.8358 54.0601C56.1623 53.8259 56.4845 53.587 56.8109 53.355C57.8328 52.6922 58.8042 51.9551 59.7072 51.1363C60.3127 50.5753 60.9181 50.0166 61.5169 49.4509C63.9691 47.4244 66.0941 45.024 67.9614 42.4477C68.1657 42.1735 68.3655 41.8991 68.5631 41.6225C69.1111 40.9141 69.6481 40.1941 70.1717 39.4622C72.9775 34.8385 74.3769 30.033 74.2567 24.6166C74.2276 23.09 74.2297 21.512 73.7857 20.0395C73.8189 19.7581 73.7839 19.4679 73.6643 19.1775C73.5886 19.0296 73.4753 18.9193 73.3426 18.8472C72.6557 17.6387 69.7603 15.7858 69.1344 15.4695C66.8238 14.0912 64.3122 13.1056 61.7847 12.197C59.2776 11.2958 56.7027 10.6067 54.0884 10.0964C51.5134 9.56672 48.9131 9.12284 46.2794 9.0469C42.3128 8.85738 38.324 9.19554 34.4091 9.8273C32.473 10.1928 30.5427 10.5971 28.6413 11.1047C26.7503 11.6491 24.9135 12.3749 23.0773 13.0803C21.3436 13.7932 19.5982 14.5194 18.1471 15.73C17.7954 16.0432 17.3354 16.3123 17.0346 16.6839C15.6899 16.9776 15.7657 22.272 15.7342 23.5213C15.8016 30.6098 17.7469 37.6888 21.6433 43.6444C22.9694 45.7367 24.437 47.7556 26.2307 49.4765C27.0955 50.3007 28.0352 51.0611 29.0391 51.7322C29.4621 52.1133 29.9442 52.4255 30.3294 52.8488C30.9582 53.4612 30.3523 54.5118 29.7015 55.3766C27.7124 57.0271 25.8535 58.8363 24.0928 60.7234C22.3663 62.5341 20.8718 64.5382 19.5656 66.6661C17.6667 69.7835 16.5058 73.2865 15.4689 76.768C15.0263 78.1785 14.6288 79.604 14.2927 81.0426C14.2528 81.1598 14.2128 81.2794 14.1728 81.3966C14.1621 81.5307 14.1515 81.6624 14.1385 81.7941C14.1388 81.785 14.139 81.7782 14.1393 81.7691C14.1016 82.2052 14.0524 82.641 14.0124 83.0794C13.9917 83.3224 13.9778 83.5657 13.964 83.809C13.9897 84.0238 14.0178 84.2386 14.0459 84.4535C14.0535 84.5061 14.0588 84.5586 14.0664 84.6135C14.0721 84.6546 14.0777 84.6958 14.0834 84.737C14.1079 84.9176 14.1346 85.0982 14.1637 85.279C14.1772 85.3659 14.1976 85.4507 14.2134 85.5354C14.2312 85.6293 14.2467 85.7254 14.2692 85.8194C14.2692 85.8194 14.2693 85.8149 14.2694 85.8126C14.2653 85.7965 14.2612 85.7805 14.257 85.7644C14.2568 85.7712 14.2612 85.7782 14.2633 85.7851C14.2635 85.7783 14.2591 85.7713 14.257 85.7644C14.2633 85.7851 14.2673 85.8057 14.2735 85.8264C14.2733 85.8332 14.2754 85.8424 14.2774 85.8493C14.296 85.9181 14.3147 85.9847 14.3332 86.0535C14.356 86.1362 14.3786 86.2211 14.4014 86.3037C14.4056 86.3175 14.4075 86.3289 14.4117 86.3427C14.4157 86.3611 14.4221 86.3772 14.4261 86.3955C14.4447 86.4644 14.4634 86.531 14.4842 86.5999L14.4841 86.6044C14.484 86.609 14.4883 86.6159 14.4905 86.6205C14.5092 86.6826 14.5303 86.7447 14.5491 86.8067C14.5575 86.832 14.5659 86.8573 14.572 86.8825C14.5804 86.9078 14.5865 86.933 14.595 86.956C14.595 86.956 14.595 86.956 14.5949 86.9583C14.6012 86.979 14.6075 86.9997 14.6137 87.0203L14.6136 87.0249C14.6451 87.1191 14.6789 87.2135 14.7128 87.3056C14.7277 87.3447 14.7403 87.3838 14.7551 87.4229C14.7615 87.439 14.7702 87.4552 14.7766 87.4691C14.8195 87.5682 14.8645 87.6697 14.9097 87.7667C14.9097 87.7667 14.9119 87.769 14.9141 87.7714C14.9227 87.7898 14.9313 87.8083 14.9399 87.8267C14.9399 87.829 14.942 87.8336 14.9442 87.836C14.9808 87.9145 15.0196 87.993 15.0585 88.0716C15.1343 88.1375 15.217 88.1991 15.2952 88.2606C15.988 89.1049 16.8022 89.8639 17.6529 90.5397C17.7777 90.648 17.8981 90.7517 18.0118 90.8483C21.0351 93.3334 24.4506 95.2923 28.04 96.8419C31.6326 98.437 35.4838 99.4635 39.405 99.8042C40.1002 99.8539 40.7935 99.8898 41.4896 99.9099C44.6665 100.002 47.8545 99.786 51.0028 99.3644C54.6602 98.9529 58.2886 98.1991 61.774 96.9378C65.3961 95.6099 69.7335 93.6354 72.3586 90.7644C72.6558 90.4382 73.2799 89.3905 73.3636 88.6255C73.3755 88.6076 73.3897 88.5921 73.4016 88.5742C74.1206 87.2468 73.8746 85.6366 73.6463 84.2068L73.655 84.2229ZM71.0824 87.6534C70.898 87.8689 70.7113 88.0867 70.5046 88.2834C69.7175 89.0418 68.8817 89.7487 68.0326 90.4392C66.31 91.5623 64.4341 92.4556 62.5188 93.211C60.2616 94.0978 57.9346 94.7913 55.5694 95.3038C54.0182 95.5505 52.4552 95.7309 50.8852 95.8405C49.0428 95.9673 47.1913 96.0141 45.3422 95.9767C45.3079 95.9757 45.2738 95.9702 45.2397 95.9669C44.8418 95.9828 44.4438 96.0009 44.044 96.003C43.5483 96.0047 43.055 96.0018 42.5619 95.9944C42.4592 95.9915 42.3587 95.9886 42.256 95.9856C41.4367 95.962 40.6184 95.902 39.8002 95.8419C39.3489 95.8084 38.9004 95.7568 38.4518 95.7074C38.0352 95.6613 37.6186 95.6105 37.2071 95.544C36.7093 95.4613 36.2114 95.3787 35.7139 95.2846C35.2277 95.1932 34.7465 95.0905 34.2629 94.9877C33.8293 94.8955 33.4006 94.7898 32.9696 94.6863C32.77 94.6396 32.5684 94.5814 32.3711 94.5301C32.1807 94.4791 31.9856 94.4348 31.7953 94.3792C31.4601 94.2807 31.1248 94.1845 30.7897 94.0815C30.2286 93.9742 29.6725 93.8534 29.1217 93.7055C28.9608 93.6621 28.8 93.6142 28.6392 93.5663C28.5305 93.5336 28.4241 93.5009 28.3177 93.4682C28.2045 93.4331 28.0936 93.398 27.9804 93.3606C27.8877 93.3306 27.7949 93.2983 27.7022 93.2683C27.571 93.2235 27.4421 93.1788 27.3109 93.1318C27.2386 93.1047 27.164 93.0797 27.0917 93.0526C26.9266 92.9932 26.7617 92.9315 26.5968 92.8675C26.5855 92.8627 26.5719 92.8577 26.5606 92.8528C24.7951 91.8979 23.0494 90.8911 21.5342 89.5699C20.3424 88.5222 19.2785 87.3165 18.5681 85.891C18.3705 85.4572 18.1937 85.0149 18.0377 84.5618C18.0311 84.5525 18.0268 84.5432 18.0202 84.5339C17.993 84.4489 17.9634 84.3661 17.9361 84.2833C17.8005 83.8376 17.6808 83.3924 17.5889 82.9366C17.5008 82.5059 17.4518 82.0673 17.405 81.631C17.4012 81.6036 17.3997 81.5762 17.396 81.5488C17.3853 81.4414 17.3748 81.3318 17.3665 81.2223C17.3583 81.1127 17.3523 81.0033 17.3509 80.8939C17.3484 80.5841 17.4099 80.2739 17.4801 79.9754C17.501 79.8849 17.5266 79.79 17.559 79.6976C17.5865 79.6141 17.6185 79.533 17.6595 79.4591C17.8889 78.4728 18.182 77.4998 18.4907 76.5363C20.3083 71.4081 23.0715 66.5964 26.6416 62.4752C28.3318 60.4198 30.3968 58.7509 32.4554 57.0659C33.1853 56.5496 33.9349 56.0588 34.6845 55.5703C35.5203 55.0229 36.3625 54.4892 37.231 53.9974C37.3866 53.9085 37.5444 53.8219 37.7021 53.7377C37.6915 53.7123 37.6785 53.6869 37.6632 53.6637C37.4024 53.2007 36.8212 53.1589 36.4039 52.8941C35.7833 52.5551 35.1941 52.1556 34.6143 51.7472C31.7498 49.6925 28.9161 47.2858 26.6495 44.5357C22.3516 39.3587 19.3739 33.072 18.2381 26.4377C18.0295 25.2749 17.8783 24.1023 17.8094 22.9253C17.8975 22.4041 17.9949 21.8808 18.1531 21.3822C18.6083 20.7258 19.2825 20.0803 20.6829 20.23C23.0006 21.4422 25.535 22.2713 28.0256 23.1105C35.0109 25.3956 42.3234 26.7109 49.6629 27.0864C55.9453 27.4475 61.5636 26.8398 67.4356 24.4791C68.4104 24.1042 69.3812 23.7063 70.3217 23.2484C70.4606 23.1864 70.5927 23.1196 70.7227 23.0482C71.1399 22.8371 71.5484 22.612 71.9504 22.3754C72.0177 22.3363 72.0852 22.295 72.1504 22.2514C72.237 23.3674 72.2782 24.473 72.2592 25.6088C72.3002 31.2346 70.0855 36.5131 66.7721 40.997C64.9319 43.5035 62.9252 45.9232 60.5063 47.9006C60.2922 48.1176 60.0735 48.3345 59.8571 48.5514C59.8618 48.547 59.8665 48.5426 59.8689 48.5381L59.7231 48.6865C59.7231 48.6865 59.7395 48.671 59.7466 48.6621C59.6383 48.7728 59.5234 48.8765 59.413 48.9827L58.7858 49.584C58.5556 49.8028 58.3232 50.0215 58.0886 50.2356C57.7695 50.5293 57.4526 50.8253 57.129 51.1166C56.7913 51.4211 56.4492 51.7187 56.1093 52.0231C55.8702 52.2348 55.6312 52.4443 55.3898 52.6536C55.172 52.8409 54.9518 53.0304 54.7317 53.2176C54.631 53.3035 54.5302 53.3963 54.425 53.4798C54.0861 53.7455 53.7517 54.016 53.4018 54.2678C53.2944 54.3467 53.1872 54.4233 53.0776 54.4998C53.396 54.7868 53.7142 55.0761 54.0208 55.3764C54.3695 55.7212 54.7016 56.0837 55.0362 56.4418C55.6897 57.1461 56.3714 57.8238 57.0226 58.5303C57.6318 59.1878 58.2105 59.8717 58.7635 60.5753C59.4104 61.2726 60.0362 61.9875 60.6387 62.7199C62.8878 65.4399 65.1035 68.2091 66.9071 71.2488C69.2841 75.398 71.1144 79.9665 71.8297 84.7077C71.7434 85.7209 71.5159 86.7186 71.08 87.6556L71.0824 87.6534Z" fill="#300375"/>
<path d="M77.3193 13.3349C77.2043 12.9048 77.5698 12.589 77.8334 12.3104C78.069 12.0591 78.306 11.8127 78.5474 11.5672C80.5179 9.56777 82.8401 7.94636 85.1396 6.34859C85.8213 5.99038 86.674 6.58817 86.4203 7.35196C86.3161 7.72407 85.9925 7.93635 85.6852 8.13538C85.051 8.5646 84.4201 9.00136 83.7915 9.43852C82.2208 10.52 80.8677 11.5529 79.4696 12.758C78.9949 13.1003 78.5663 13.6244 77.9814 13.7549C77.6933 13.7701 77.4025 13.6459 77.3216 13.3353L77.3193 13.3349Z" fill="#E0349E"/>
<path d="M81.3347 16.3623C81.1687 15.6616 83.8629 14.6924 84.445 14.4365C86.1005 13.7728 87.7734 13.1538 89.4763 12.6258C90.015 12.443 90.5556 12.2629 91.1285 12.2251C91.6197 12.0869 92.1729 12.0294 92.3946 12.6013C92.597 13.3062 92.0578 13.5305 91.498 13.7141C90.4254 14.2332 89.213 14.3824 88.0848 14.7596C86.9496 15.0985 85.8281 15.4769 84.6961 15.8233C84.1313 15.9967 83.5654 16.163 83.0077 16.3609C82.5046 16.4876 81.5687 17.1493 81.3343 16.3646L81.3347 16.3623Z" fill="#E0349E"/>
<path d="M84.0091 21.6297C83.0944 19.9082 90.3341 20.8408 91.193 20.9146C92.2665 21.0341 93.3439 21.1451 94.4067 21.3366C95.4791 21.604 95.1994 23.2073 94.0969 23.0941C91.3466 22.5984 88.6283 22.0668 85.8421 21.886C85.405 21.8651 84.9701 21.8584 84.5323 21.8419C84.3342 21.834 84.1395 21.7943 84.0072 21.627L84.0091 21.6297Z" fill="#E0349E"/>
</g>
<defs>
<clipPath id="clip0_1313_6844">
<rect width="100" height="100" fill="white"/>
</clipPath>
</defs>
</svg>
