<svg width="188" height="96" viewBox="0 0 188 96" fill="none" xmlns="http://www.w3.org/2000/svg">
<g clip-path="url(#clip0_2139_10300)">
<path d="M7.16698 93.344L9.7449 87.4233H11.1426L7.45771 95.1793H6.35986L5.52326 89.315L2.60683 95.1793H1.50898L0.634766 87.4233H1.92779L2.42182 93.2011L5.29047 87.4233H6.38121L7.16698 93.344Z" fill="#3B3A36"/>
<path d="M18.3984 93.344L20.9763 87.4233H22.3741L18.6892 95.1793H17.5913L16.7547 89.315L13.8383 95.1793H12.7404L11.8662 87.4233H13.1592L13.6543 93.2011L16.5229 87.4233H17.6137L18.3994 93.344H18.3984Z" fill="#3B3A36"/>
<path d="M29.6308 93.344L32.2088 87.4233H33.6065L29.9216 95.1793H28.8237L27.9871 89.315L25.0707 95.1793H23.9728L23.0986 87.4233H24.3906L24.8847 93.2011L27.7533 87.4233H28.8441L29.6298 93.344H29.6308Z" fill="#3B3A36"/>
<path d="M32.8438 94.5062C32.8438 94.2728 32.92 94.0765 33.0745 93.9216C33.229 93.7666 33.4293 93.6841 33.6722 93.6751C33.9162 93.67 34.1175 93.7415 34.2781 93.8894C34.4377 94.0373 34.5139 94.2285 34.5109 94.4629C34.5048 94.6964 34.4234 94.8866 34.2638 95.0325C34.1042 95.1784 33.906 95.2568 33.6661 95.2659C33.5462 95.2699 33.4354 95.2548 33.3337 95.2186C33.2321 95.1824 33.1446 95.1311 33.0725 95.0636C33.0003 94.9972 32.9454 94.9167 32.9058 94.8201C32.8661 94.7245 32.8458 94.6199 32.8458 94.5042L32.8438 94.5062Z" fill="#3B3A36"/>
<path d="M41.5792 95.1796C41.5446 95.0408 41.5263 94.9049 41.5263 94.7711C41.5263 94.6373 41.5355 94.5014 41.5497 94.3636C41.2203 94.6544 40.8585 94.8898 40.4661 95.0699C40.0717 95.2491 39.6457 95.3336 39.1883 95.3235C38.8488 95.3195 38.5316 95.2631 38.2399 95.1555C37.9451 95.0478 37.691 94.8969 37.4765 94.7007C37.264 94.5055 37.0983 94.271 36.9835 93.9973C36.8686 93.7256 36.8218 93.4218 36.8411 93.0867C36.8716 92.5946 37.0068 92.1821 37.2488 91.847C37.4907 91.5129 37.7957 91.2433 38.1647 91.04C38.5316 90.8367 38.9413 90.6908 39.3896 90.6033C39.8369 90.5148 40.2841 90.4705 40.7273 90.4705L42.1403 90.4775L42.2298 89.8607C42.2552 89.6353 42.244 89.4321 42.1993 89.2479C42.1556 89.0638 42.0753 88.9048 41.9614 88.771C41.8465 88.6371 41.6981 88.5335 41.5162 88.46C41.3342 88.3856 41.1238 88.3453 40.8859 88.3413C40.6765 88.3373 40.4691 88.3584 40.2658 88.4097C40.0605 88.46 39.8734 88.5365 39.7006 88.6391C39.5299 88.7418 39.3804 88.8716 39.2574 89.0265C39.1314 89.1815 39.048 89.3626 39.0033 89.5679L37.6432 89.5749C37.6828 89.1875 37.814 88.8494 38.0356 88.5607C38.2572 88.2709 38.5286 88.0294 38.8498 87.8362C39.172 87.643 39.5227 87.4991 39.906 87.4065C40.2892 87.3129 40.6623 87.2697 41.0201 87.2737C41.4298 87.2828 41.7977 87.3482 42.1291 87.4709C42.4615 87.5927 42.7421 87.7667 42.9708 87.9901C43.1995 88.2155 43.3673 88.4862 43.474 88.8042C43.5807 89.1221 43.6163 89.4814 43.5756 89.8828L42.9556 93.4892C42.9098 93.7518 42.8844 94.0154 42.8753 94.277C42.8681 94.5407 42.8986 94.8003 42.9698 95.0579L42.9556 95.1796H41.5792ZM39.4577 94.1764C39.6864 94.1814 39.907 94.1563 40.1194 94.102C40.3309 94.0466 40.5301 93.9671 40.7212 93.8615C40.9103 93.7568 41.0852 93.6321 41.2468 93.4892C41.4084 93.3453 41.5538 93.1873 41.6849 93.0162L41.9756 91.4183L40.952 91.4113C40.6826 91.4113 40.3959 91.4284 40.092 91.4646C39.7881 91.4999 39.5044 91.5723 39.2412 91.68C38.9759 91.7866 38.7502 91.9376 38.5652 92.1318C38.3781 92.325 38.2633 92.5795 38.2257 92.8945C38.2002 93.0907 38.2124 93.2668 38.2653 93.4217C38.3182 93.5767 38.3974 93.7105 38.5093 93.8232C38.618 93.9359 38.7542 94.0225 38.9169 94.0808C39.0785 94.1412 39.2584 94.1734 39.4587 94.1774L39.4577 94.1764Z" fill="#3B3A36"/>
<path d="M49.8452 88.6057C49.6358 88.5725 49.4234 88.5513 49.2089 88.5413C48.7565 88.5413 48.3621 88.6399 48.0256 88.8351C47.6892 89.0313 47.4025 89.308 47.1626 89.6672L46.1684 95.1794H44.8154L46.2203 87.4234L47.5296 87.4153L47.3273 88.3189C47.5804 87.9989 47.8732 87.7413 48.2015 87.5441C48.5288 87.3489 48.912 87.2553 49.3522 87.2654C49.4671 87.2654 49.5758 87.2754 49.6795 87.2976C49.7852 87.3187 49.8899 87.3439 49.9936 87.373L49.8452 88.6057Z" fill="#3B3A36"/>
<path d="M53.1251 95.3226C52.5721 95.3126 52.0943 95.2049 51.6938 94.9966C51.2923 94.7894 50.967 94.5126 50.7179 94.1695C50.4689 93.8254 50.294 93.4309 50.1924 92.9862C50.0887 92.5424 50.0612 92.0786 50.105 91.5956L50.1436 91.2877C50.1832 90.9576 50.2564 90.6276 50.3632 90.2986C50.4699 89.9685 50.6081 89.6536 50.7779 89.3527C50.9466 89.0518 51.1489 88.7741 51.3797 88.5175C51.6125 88.2619 51.8707 88.0416 52.1573 87.8554C52.443 87.6693 52.755 87.5244 53.0915 87.4207C53.428 87.3191 53.7878 87.2718 54.1711 87.2809C54.7271 87.296 55.1907 87.4137 55.5597 87.6361C55.9287 87.8584 56.2163 88.1482 56.4227 88.5034C56.6301 88.8597 56.7632 89.2621 56.8232 89.7109C56.8832 90.1597 56.8791 90.6195 56.8161 91.0874L56.7246 91.6821H51.4488C51.4051 91.983 51.4051 92.2848 51.4488 92.5857C51.4945 92.8866 51.5871 93.1572 51.7284 93.3987C51.8717 93.6402 52.0669 93.8385 52.3159 93.9934C52.565 94.1494 52.8719 94.2319 53.2359 94.241C53.6943 94.251 54.105 94.1584 54.4679 93.9642C54.8318 93.7721 55.1622 93.5185 55.4621 93.2086L56.2387 93.8395C56.0608 94.088 55.8555 94.3054 55.6257 94.4915C55.397 94.6777 55.149 94.8346 54.8826 94.9604C54.6173 95.0882 54.3357 95.1798 54.0389 95.2401C53.7421 95.2995 53.4371 95.3277 53.123 95.3216L53.1251 95.3226ZM54.0958 88.3636C53.7523 88.3485 53.4483 88.4058 53.181 88.5356C52.9136 88.6644 52.6808 88.8355 52.4796 89.0488C52.2783 89.2611 52.1035 89.5026 51.9601 89.7723C51.8148 90.043 51.6968 90.3167 51.6023 90.5924L55.5322 90.6075L55.5617 90.4787C55.6013 90.2251 55.6034 89.9745 55.5688 89.726C55.5342 89.4775 55.458 89.2531 55.338 89.0559C55.2181 88.8576 55.0565 88.6946 54.8521 88.5688C54.6468 88.4421 54.3957 88.3746 54.0958 88.3646V88.3636Z" fill="#3B3A36"/>
<path d="M60.3897 87.4163L60.1955 88.3994C60.5249 88.0553 60.8959 87.7806 61.3097 87.5743C61.7224 87.369 62.1788 87.2704 62.6769 87.2805C63.1099 87.2895 63.4698 87.371 63.7564 87.525C64.0441 87.6779 64.2688 87.8812 64.4324 88.1378C64.5961 88.3934 64.7028 88.6902 64.7537 89.0303C64.8024 89.3694 64.8085 89.7256 64.7689 90.0979L63.8866 95.1804H62.5346L63.424 90.0758C63.4545 89.8423 63.4566 89.625 63.4311 89.4237C63.4057 89.2235 63.3478 89.0474 63.2563 88.8965C63.1638 88.7456 63.0306 88.6258 62.8599 88.5383C62.687 88.4497 62.4675 88.4034 62.1981 88.3984C61.9633 88.3934 61.7457 88.4226 61.5404 88.487C61.3371 88.5513 61.146 88.6409 60.9691 88.7526C60.7912 88.8643 60.6276 88.9981 60.4751 89.1541C60.3246 89.309 60.1864 89.4731 60.0603 89.6451L59.0591 95.1794H57.7061L59.1109 87.4234L60.3887 87.4153L60.3897 87.4163Z" fill="#3B3A36"/>
<path d="M70.8878 95.1796C70.8533 95.0408 70.835 94.9049 70.835 94.7711C70.835 94.6373 70.8441 94.5014 70.8583 94.3636C70.529 94.6544 70.1671 94.8898 69.7747 95.0699C69.3803 95.2491 68.9554 95.3336 68.4969 95.3235C68.1574 95.3195 67.8403 95.2631 67.5475 95.1555C67.2527 95.0478 66.9986 94.8969 66.7841 94.7007C66.5716 94.5055 66.4059 94.271 66.2911 93.9973C66.1762 93.7256 66.1294 93.4218 66.1488 93.0867C66.1793 92.5946 66.3145 92.1821 66.5564 91.847C66.7983 91.5129 67.1033 91.2433 67.4723 91.04C67.8392 90.8367 68.2489 90.6908 68.6972 90.6033C69.1445 90.5148 69.5917 90.4705 70.035 90.4705L71.4479 90.4775L71.5374 89.8607C71.5628 89.6353 71.5516 89.4321 71.5069 89.2479C71.4632 89.0638 71.3829 88.9048 71.269 88.771C71.1541 88.6371 71.0057 88.5335 70.8238 88.46C70.6418 88.3856 70.4314 88.3453 70.1925 88.3413C69.9831 88.3373 69.7757 88.3584 69.5724 88.4097C69.3671 88.46 69.18 88.5365 69.0072 88.6391C68.8365 88.7418 68.687 88.8716 68.564 89.0265C68.439 89.1815 68.3546 89.3626 68.3099 89.5679L66.9498 89.5749C66.9894 89.1875 67.1206 88.8494 67.3422 88.5607C67.5638 88.2709 67.8352 88.0294 68.1564 87.8362C68.4776 87.643 68.8293 87.4991 69.2126 87.4065C69.5958 87.3129 69.9689 87.2697 70.3267 87.2737C70.7353 87.2828 71.1043 87.3482 71.4357 87.4709C71.7681 87.5927 72.0487 87.7667 72.2774 87.9901C72.5061 88.2155 72.6739 88.4862 72.7806 88.8042C72.8883 89.1221 72.9229 89.4814 72.8822 89.8828L72.2622 93.4892C72.2164 93.7518 72.191 94.0154 72.1819 94.277C72.1747 94.5407 72.2052 94.8003 72.2764 95.0579L72.2622 95.1796H70.8858H70.8878ZM68.7663 94.1764C68.995 94.1814 69.2156 94.1563 69.4281 94.102C69.6385 94.0466 69.8388 93.9671 70.0299 93.8615C70.2189 93.7568 70.3938 93.6321 70.5554 93.4892C70.717 93.3453 70.8624 93.1873 70.9935 93.0162L71.2843 91.4183L70.2606 91.4113C69.9912 91.4113 69.7046 91.4284 69.4006 91.4646C69.0967 91.4999 68.8131 91.5723 68.5498 91.68C68.2845 91.7866 68.0588 91.9376 67.8738 92.1318C67.6868 92.325 67.5719 92.5795 67.5343 92.8945C67.5089 93.0907 67.5221 93.2668 67.5739 93.4217C67.6268 93.5767 67.7071 93.7105 67.8179 93.8232C67.9267 93.9359 68.0629 94.0225 68.2255 94.0808C68.3872 94.1412 68.5671 94.1734 68.7673 94.1774L68.7663 94.1764Z" fill="#3B3A36"/>
<path d="M77.6288 91.2873H74.0801L74.2813 90.2046H77.8301L77.6278 91.2873H77.6288Z" fill="#3B3A36"/>
<path d="M80.9605 87.4163L80.7877 88.2837C81.1171 87.9496 81.4881 87.6961 81.8988 87.524C82.3095 87.3509 82.7588 87.2704 83.2477 87.2795C83.4714 87.2845 83.6899 87.3107 83.9003 87.359C84.1128 87.4063 84.309 87.4807 84.4909 87.5804C84.6729 87.682 84.8325 87.8108 84.9687 87.9678C85.107 88.1257 85.2127 88.3119 85.2869 88.5272C85.6356 88.1348 86.032 87.8269 86.4762 87.6025C86.9184 87.3781 87.4175 87.2704 87.9705 87.2795C88.4087 87.2886 88.7776 87.368 89.0796 87.516C89.3815 87.6639 89.6193 87.8641 89.7982 88.1147C89.9741 88.3662 90.0951 88.66 90.1561 88.9961C90.2181 89.3332 90.2272 89.6954 90.1815 90.0828L89.293 95.1794H87.9482L88.8305 90.0678C88.861 89.8192 88.861 89.5928 88.8305 89.3865C88.801 89.1813 88.7339 89.0062 88.6292 88.8603C88.5256 88.7144 88.3802 88.6017 88.1962 88.5192C88.0122 88.4377 87.7804 88.3954 87.5019 88.3904C87.2478 88.3863 87.0038 88.4246 86.7731 88.5051C86.5423 88.5866 86.3309 88.6983 86.1459 88.8412C85.9588 88.9851 85.7982 89.1581 85.6681 89.3604C85.5359 89.5636 85.4424 89.785 85.3865 90.0235L84.4686 95.1774H83.1085L84.005 90.0728C84.0345 89.8343 84.0325 89.6129 83.9979 89.4097C83.9634 89.2064 83.8922 89.0323 83.7855 88.8864C83.6787 88.7405 83.5334 88.6248 83.3514 88.5383C83.1695 88.4518 82.9438 88.4065 82.6754 88.4024C82.2282 88.3934 81.8388 88.486 81.5105 88.6822C81.1811 88.8774 80.8995 89.1521 80.6668 89.5063L79.6411 95.1764H78.2881L79.6939 87.4204L80.9646 87.4123L80.9605 87.4163Z" fill="#3B3A36"/>
<path d="M96.4303 94.413C96.101 94.738 95.734 94.9735 95.3284 95.1194C94.9228 95.2653 94.4847 95.3327 94.0161 95.3237C93.578 95.3136 93.214 95.2291 92.9213 95.0701C92.6305 94.9091 92.4018 94.6968 92.2341 94.4321C92.0664 94.1675 91.9576 93.8616 91.9047 93.5185C91.8519 93.1744 91.8468 92.8131 91.8864 92.4358L92.7535 87.4258H94.1055L93.2313 92.4579C93.2059 92.6682 93.2008 92.8745 93.2171 93.0778C93.2313 93.281 93.2791 93.4642 93.3594 93.6262C93.4397 93.7882 93.5556 93.923 93.7101 94.0276C93.8646 94.1333 94.072 94.1907 94.3302 94.2007C94.8141 94.2148 95.243 94.1263 95.6191 93.9351C95.9953 93.7439 96.3134 93.4581 96.5716 93.0758L97.5882 87.4278H98.9412L97.5373 95.1838H96.2596L96.4303 94.416V94.413Z" fill="#3B3A36"/>
<path d="M101.101 95.1796H99.7559L101.745 84.1685H103.097L101.101 95.1796Z" fill="#3B3A36"/>
<path d="M106.886 85.546L106.542 87.4236H108.015L107.828 88.4479H106.364L105.518 93.2718C105.504 93.3965 105.5 93.5123 105.511 93.6199C105.521 93.7276 105.55 93.8232 105.593 93.9067C105.638 93.9902 105.706 94.0556 105.795 94.1039C105.884 94.1522 106.002 94.1754 106.146 94.1754C106.256 94.1754 106.365 94.1683 106.475 94.1532C106.584 94.1391 106.695 94.123 106.804 94.1029L106.701 95.1846C106.375 95.2712 106.048 95.3134 105.714 95.3134C105.405 95.3094 105.146 95.248 104.939 95.1313C104.734 95.0136 104.57 94.8606 104.45 94.6684C104.33 94.4772 104.252 94.2589 104.212 94.0124C104.173 93.7668 104.164 93.5123 104.189 93.2486L105.012 88.4459H103.583L103.77 87.4216H105.197L105.541 85.5439H106.886V85.546Z" fill="#3B3A36"/>
<path d="M109.703 95.1795H108.358L109.763 87.4235H111.108L109.703 95.1795ZM110.024 85.3879C110.03 85.1625 110.105 84.9763 110.248 84.8284C110.393 84.6815 110.583 84.602 110.817 84.5919C110.935 84.5879 111.045 84.603 111.141 84.6392C111.238 84.6745 111.323 84.7278 111.395 84.7962C111.468 84.8656 111.522 84.9471 111.56 85.0407C111.597 85.1343 111.615 85.2349 111.615 85.3446C111.611 85.57 111.535 85.7531 111.388 85.897C111.24 86.0409 111.049 86.1174 110.817 86.1274C110.583 86.1365 110.39 86.0721 110.241 85.9343C110.092 85.7954 110.019 85.6133 110.024 85.3889V85.3879Z" fill="#3B3A36"/>
<path d="M114.582 87.4163L114.409 88.2837C114.738 87.9496 115.109 87.6961 115.52 87.524C115.931 87.3509 116.38 87.2704 116.869 87.2795C117.093 87.2845 117.311 87.3107 117.522 87.359C117.734 87.4063 117.931 87.4807 118.112 87.5804C118.294 87.682 118.454 87.8108 118.59 87.9678C118.728 88.1257 118.834 88.3119 118.908 88.5272C119.257 88.1348 119.653 87.8269 120.096 87.6025C120.539 87.3781 121.039 87.2704 121.591 87.2795C122.029 87.2886 122.398 87.368 122.7 87.516C123.002 87.6639 123.24 87.8641 123.417 88.1147C123.593 88.3662 123.714 88.66 123.775 88.9961C123.837 89.3332 123.846 89.6954 123.801 90.0828L122.911 95.1794H121.566L122.448 90.0678C122.478 89.8192 122.478 89.5928 122.448 89.3865C122.418 89.1813 122.351 89.0062 122.246 88.8603C122.143 88.7144 121.997 88.6017 121.813 88.5192C121.629 88.4377 121.398 88.3954 121.119 88.3904C120.865 88.3863 120.621 88.4246 120.39 88.5051C120.159 88.5866 119.948 88.6983 119.763 88.8412C119.576 88.9851 119.415 89.1581 119.285 89.3604C119.152 89.5636 119.06 89.785 119.004 90.0235L118.086 95.1774H116.726L117.622 90.0728C117.652 89.8343 117.65 89.6129 117.615 89.4097C117.581 89.2064 117.509 89.0323 117.403 88.8864C117.296 88.7405 117.15 88.6248 116.969 88.5383C116.787 88.4518 116.561 88.4065 116.293 88.4024C115.845 88.3934 115.456 88.486 115.128 88.6822C114.798 88.8774 114.517 89.1521 114.284 89.5063L113.258 95.1764H111.905L113.311 87.4204L114.582 87.4123V87.4163Z" fill="#3B3A36"/>
<path d="M128.355 95.3226C127.802 95.3126 127.324 95.2049 126.924 94.9966C126.523 94.7894 126.197 94.5126 125.948 94.1695C125.699 93.8254 125.524 93.4309 125.423 92.9862C125.319 92.5424 125.292 92.0786 125.335 91.5956L125.374 91.2877C125.414 90.9576 125.487 90.6276 125.594 90.2986C125.701 89.9685 125.839 89.6536 126.008 89.3527C126.177 89.0518 126.379 88.7741 126.61 88.5175C126.843 88.2619 127.101 88.0416 127.388 87.8554C127.673 87.6693 127.986 87.5244 128.322 87.4207C128.658 87.3191 129.018 87.2718 129.402 87.2809C129.958 87.296 130.421 87.4137 130.79 87.6361C131.159 87.8584 131.447 88.1482 131.653 88.5034C131.861 88.8597 131.994 89.2621 132.054 89.7109C132.114 90.1597 132.11 90.6195 132.047 91.0874L131.956 91.6821H126.68C126.637 91.983 126.637 92.2848 126.68 92.5857C126.726 92.8866 126.819 93.1572 126.96 93.3987C127.103 93.6402 127.298 93.8385 127.547 93.9934C127.796 94.1494 128.103 94.2319 128.467 94.241C128.926 94.251 129.336 94.1584 129.7 93.9642C130.064 93.7721 130.395 93.5185 130.695 93.2086L131.471 93.8395C131.293 94.088 131.088 94.3054 130.858 94.4915C130.63 94.6777 130.382 94.8346 130.115 94.9604C129.85 95.0882 129.568 95.1798 129.271 95.2401C128.976 95.2995 128.67 95.3277 128.356 95.3216L128.355 95.3226ZM129.325 88.3636C128.982 88.3485 128.678 88.4058 128.411 88.5356C128.144 88.6644 127.911 88.8355 127.71 89.0488C127.508 89.2611 127.334 89.5026 127.19 89.7723C127.044 90.043 126.926 90.3167 126.832 90.5924L130.763 90.6075L130.792 90.4787C130.832 90.2251 130.834 89.9745 130.799 89.726C130.765 89.4775 130.688 89.2531 130.569 89.0559C130.449 88.8576 130.287 88.6946 130.084 88.5688C129.878 88.4421 129.627 88.3746 129.327 88.3646L129.325 88.3636Z" fill="#3B3A36"/>
<path d="M133.323 91.2875C133.363 90.9675 133.429 90.6445 133.522 90.3195C133.614 89.9945 133.734 89.6836 133.879 89.3837C134.027 89.0859 134.201 88.8061 134.403 88.5445C134.604 88.2849 134.837 88.0585 135.097 87.8673C135.359 87.6761 135.65 87.5272 135.968 87.4195C136.288 87.3119 136.639 87.2636 137.022 87.2736C137.435 87.2827 137.822 87.3632 138.18 87.5131C138.538 87.6641 138.846 87.8995 139.1 88.2195L139.877 84.1694H141.23L139.243 95.1806H138.009L138.152 94.3484C137.837 94.6785 137.483 94.926 137.091 95.09C136.696 95.255 136.263 95.3325 135.79 95.3225C135.436 95.3124 135.126 95.25 134.859 95.1333C134.592 95.0156 134.363 94.8596 134.168 94.6634C133.974 94.4672 133.812 94.2418 133.686 93.9862C133.559 93.7306 133.463 93.4609 133.397 93.1762C133.333 92.8914 133.294 92.6006 133.283 92.3018C133.27 92.0039 133.28 91.7151 133.308 91.4374L133.322 91.2875H133.323ZM134.661 91.4374C134.636 91.6246 134.622 91.8228 134.619 92.0331C134.617 92.2434 134.631 92.4487 134.658 92.6499C134.685 92.8502 134.732 93.0444 134.799 93.2305C134.866 93.4167 134.959 93.5807 135.079 93.7216C135.199 93.8624 135.349 93.9771 135.531 94.0657C135.713 94.1532 135.931 94.2005 136.186 94.2056C136.415 94.2156 136.628 94.1925 136.824 94.1371C137.02 94.0818 137.206 94.0043 137.377 93.9047C137.55 93.8041 137.708 93.6823 137.855 93.5384C138.002 93.3955 138.141 93.2406 138.27 93.0725L138.913 89.4884C138.768 89.1493 138.558 88.8846 138.282 88.6965C138.003 88.5073 137.673 88.4087 137.284 88.3996C136.866 88.3906 136.504 88.4711 136.2 88.6431C135.896 88.8152 135.638 89.0396 135.43 89.3173C135.22 89.595 135.055 89.9069 134.933 90.2531C134.811 90.5992 134.728 90.9434 134.682 91.2825L134.661 91.4394V91.4374Z" fill="#3B3A36"/>
<path d="M142.844 95.1795H141.499L142.904 87.4235H144.25L142.844 95.1795ZM143.165 85.3879C143.171 85.1625 143.245 84.9763 143.389 84.8284C143.534 84.6815 143.723 84.602 143.958 84.5919C144.076 84.5879 144.186 84.603 144.281 84.6392C144.38 84.6745 144.463 84.7278 144.536 84.7962C144.609 84.8656 144.663 84.9471 144.702 85.0407C144.739 85.1343 144.757 85.2349 144.757 85.3446C144.753 85.57 144.677 85.7531 144.529 85.897C144.382 86.0409 144.191 86.1174 143.958 86.1274C143.723 86.1365 143.531 86.0721 143.382 85.9343C143.232 85.7954 143.16 85.6133 143.165 85.3889V85.3879Z" fill="#3B3A36"/>
<path d="M149.974 95.1796C149.94 95.0408 149.921 94.9049 149.921 94.7711C149.921 94.6373 149.93 94.5014 149.945 94.3636C149.615 94.6544 149.253 94.8898 148.861 95.0699C148.467 95.2491 148.042 95.3336 147.583 95.3235C147.244 95.3195 146.927 95.2631 146.634 95.1555C146.339 95.0478 146.085 94.8969 145.87 94.7007C145.658 94.5055 145.492 94.271 145.377 93.9973C145.262 93.7256 145.216 93.4218 145.236 93.0867C145.267 92.5946 145.402 92.1821 145.644 91.847C145.886 91.5129 146.191 91.2433 146.56 91.04C146.927 90.8367 147.336 90.6908 147.785 90.6033C148.232 90.5148 148.679 90.4705 149.122 90.4705L150.535 90.4775L150.625 89.8607C150.65 89.6353 150.639 89.4321 150.594 89.2479C150.55 89.0638 150.47 88.9048 150.356 88.771C150.241 88.6371 150.093 88.5335 149.911 88.46C149.729 88.3856 149.519 88.3453 149.28 88.3413C149.07 88.3373 148.864 88.3584 148.66 88.4097C148.454 88.46 148.267 88.5365 148.095 88.6391C147.924 88.7418 147.774 88.8716 147.651 89.0265C147.526 89.1815 147.442 89.3626 147.397 89.5679L146.037 89.5749C146.077 89.1875 146.208 88.8494 146.429 88.5607C146.651 88.2709 146.922 88.0294 147.244 87.8362C147.565 87.643 147.917 87.4991 148.3 87.4065C148.683 87.3129 149.056 87.2697 149.414 87.2737C149.823 87.2828 150.192 87.3482 150.523 87.4709C150.855 87.5927 151.136 87.7667 151.365 87.9901C151.593 88.2155 151.761 88.4862 151.868 88.8042C151.976 89.1221 152.009 89.4814 151.97 89.8828L151.349 93.4892C151.304 93.7518 151.278 94.0154 151.269 94.277C151.262 94.5407 151.293 94.8003 151.364 95.0579L151.349 95.1796H149.973H149.974ZM147.853 94.1764C148.081 94.1814 148.302 94.1563 148.514 94.102C148.726 94.0466 148.925 93.9671 149.116 93.8615C149.305 93.7568 149.48 93.6321 149.642 93.4892C149.803 93.3453 149.949 93.1873 150.08 93.0162L150.371 91.4183L149.347 91.4113C149.078 91.4113 148.791 91.4284 148.487 91.4646C148.184 91.4999 147.899 91.5723 147.636 91.68C147.371 91.7866 147.145 91.9376 146.96 92.1318C146.773 92.325 146.658 92.5795 146.621 92.8945C146.595 93.0907 146.608 93.2668 146.66 93.4217C146.713 93.5767 146.793 93.7105 146.904 93.8232C147.013 93.9359 147.149 94.0225 147.312 94.0808C147.473 94.1412 147.653 94.1734 147.854 94.1774L147.853 94.1764Z" fill="#3B3A36"/>
<path d="M153.373 94.5062C153.373 94.2728 153.449 94.0765 153.604 93.9216C153.758 93.7666 153.959 93.6841 154.202 93.6751C154.445 93.67 154.647 93.7415 154.806 93.8894C154.966 94.0373 155.043 94.2285 155.039 94.4629C155.034 94.6964 154.952 94.8866 154.792 95.0325C154.633 95.1784 154.434 95.2568 154.194 95.2659C154.074 95.2699 153.964 95.2548 153.862 95.2186C153.76 95.1824 153.673 95.1311 153.601 95.0636C153.528 94.9972 153.474 94.9167 153.434 94.8201C153.394 94.7245 153.374 94.6199 153.374 94.5042L153.373 94.5062Z" fill="#3B3A36"/>
<path d="M160.129 93.3661L163.044 87.4233H164.471L160.399 95.1793H159.368L157.783 87.4233H159.114L160.13 93.3661H160.129Z" fill="#3B3A36"/>
<path d="M166.68 87.4163L166.465 88.3994C166.828 88.0553 167.238 87.7806 167.696 87.5743C168.152 87.369 168.656 87.2704 169.206 87.2805C169.684 87.2895 170.081 87.371 170.398 87.525C170.716 87.6779 170.965 87.8812 171.145 88.1378C171.325 88.3934 171.443 88.6902 171.5 89.0303C171.554 89.3694 171.56 89.7256 171.517 90.0979L170.543 95.1804H169.049L170.031 90.0758C170.066 89.8423 170.067 89.625 170.04 89.4237C170.011 89.2235 169.947 89.0474 169.846 88.8965C169.744 88.7456 169.597 88.6258 169.408 88.5383C169.217 88.4497 168.974 88.4034 168.677 88.3984C168.418 88.3934 168.177 88.4226 167.951 88.487C167.726 88.5513 167.515 88.6409 167.32 88.7526C167.123 88.8643 166.943 88.9981 166.774 89.1541C166.608 89.309 166.455 89.4731 166.317 89.6451L165.211 95.1794H163.718L165.269 87.4234L166.681 87.4153L166.68 87.4163Z" fill="#3B3A36"/>
<path d="M168.992 43.1748H2.69922V74.9414H168.992V43.1748Z" fill="#F3E809"/>
<path d="M169.583 1.95166H2.4502V43.3046H169.583V1.95166Z" fill="white"/>
<path d="M23.596 31.3163H17.1329L16.2353 35.5978H10.4238L17.3474 9.6582H23.5554L30.4769 35.5978H24.517L23.596 31.3163ZM22.4138 25.7075L20.3817 16.3828L18.37 25.7075H22.4148H22.4138Z" fill="#E82829"/>
<path d="M45.6202 35.5988V9.6582H55.1074C56.866 9.6582 58.2109 9.87052 59.14 10.2951C60.0701 10.7198 60.8193 11.5066 61.3886 12.6578C61.9578 13.8079 62.2435 15.2086 62.2435 16.8598C62.2435 18.2987 62.0259 19.5404 61.5888 20.5848C61.1537 21.6283 60.554 22.4755 59.7916 23.1235C59.3057 23.5361 58.6399 23.8792 57.7921 24.1499C58.4711 24.4689 58.9641 24.7868 59.2742 25.1058C59.4846 25.3181 59.7875 25.7729 60.185 26.4693C60.5825 27.1666 60.8478 27.7029 60.982 28.0812L63.7378 35.5978H57.3062L54.2647 27.6707C53.8784 26.6443 53.5359 25.9782 53.234 25.6713C52.8233 25.2698 52.3577 25.0696 51.8383 25.0696H51.3351V35.5978H45.6191L45.6202 35.5988ZM51.3371 20.1693H53.7371C53.9984 20.1693 54.4995 20.0515 55.2467 19.8151C55.6228 19.7084 55.9318 19.4367 56.1687 19.001C56.4076 18.5643 56.5275 18.0632 56.5275 17.4967C56.5275 16.6595 56.3384 16.0166 55.9613 15.5678C55.5852 15.119 54.8777 14.8956 53.8378 14.8956H51.3371V20.1683V20.1693Z" fill="#E82829"/>
<path d="M78.7314 9.6582H93.9855V15.1965H84.4362V19.319H93.2932V24.6097H84.4362V29.7234H94.262V35.5978H78.7314V9.6582Z" fill="#E82829"/>
<path d="M109.52 9.6582H114.834L121.77 24.01V9.6582H127.136V35.5978H121.77L114.873 21.3546V35.5978H109.52V9.6582Z" fill="#E82829"/>
<path d="M155.136 31.3163H148.673L147.775 35.5978H141.964L148.888 9.6582H155.096L162.018 35.5978H156.058L155.137 31.3163H155.136ZM153.955 25.7075L151.923 16.3828L149.911 25.7075H153.956H153.955Z" fill="#E82829"/>
<path d="M9.83891 66.7684L13.1314 50.1938L18.4997 62.176L24.0591 50.1938L27.0162 66.7684H24.5959L23.0863 57.4628L18.457 67.4768L13.9599 57.4528L12.2796 66.7684H9.83789H9.83891Z" fill="#3B3A36"/>
<path d="M34.7071 51.353V60.6385C34.7071 61.9627 34.9267 62.9317 35.3659 63.5445C36.0205 64.43 36.9415 64.8727 38.1298 64.8727C39.3181 64.8727 40.2513 64.43 40.9049 63.5445C41.343 62.9518 41.5636 61.9828 41.5636 60.6385V51.353H43.922V61.2775C43.922 62.9015 43.4096 64.2398 42.3819 65.2913C41.2272 66.4625 39.8101 67.0482 38.1288 67.0482C36.4474 67.0482 35.0324 66.4625 33.8848 65.2913C32.8581 64.2398 32.3447 62.9015 32.3447 61.2775V51.353H34.7051H34.7071Z" fill="#3B3A36"/>
<path d="M53.1435 51.3531V64.5819H57.7423V66.7685H50.7852V51.3521H53.1435V51.3531Z" fill="#3B3A36"/>
<path d="M66.3933 53.5396V66.7694H64.0329V53.5396H60.4385V51.353H69.9796V53.5396H66.3933Z" fill="#3B3A36"/>
<path d="M77.5567 51.353V66.7694H75.1963V51.353H77.5567Z" fill="#3B3A36"/>
<path d="M83.8789 66.7684L87.1715 50.1938L92.5398 62.176L98.0992 50.1938L101.056 66.7684H98.6359L97.1264 57.4628L92.4971 67.4768L88 57.4528L86.3196 66.7684H83.8779H83.8789Z" fill="#3B3A36"/>
<path d="M116.109 53.5396H109.84V57.2445H115.927V59.431H109.84V64.5829H116.109V66.7694H107.479V51.353H116.109V53.5396Z" fill="#3B3A36"/>
<path d="M122.321 66.7685V51.3521H125.603C127.176 51.3521 128.418 51.505 129.33 51.8109C130.308 52.1107 131.197 52.6199 131.995 53.3383C133.609 54.7893 134.415 56.6971 134.415 59.0598C134.415 61.4224 133.574 63.3463 131.893 64.8114C131.049 65.5439 130.164 66.052 129.239 66.3388C128.375 66.6246 127.149 66.7685 125.562 66.7685H122.321ZM124.682 64.5819H125.744C126.805 64.5819 127.686 64.4723 128.388 64.2529C129.089 64.0195 129.726 63.6502 130.293 63.145C131.455 62.0996 132.034 60.7381 132.034 59.0608C132.034 57.3834 131.46 55.9988 130.312 54.9473C129.279 54.0085 127.756 53.5386 125.744 53.5386H124.682V64.5819Z" fill="#3B3A36"/>
<path d="M142.852 51.353V66.7694H140.494V51.353H142.852Z" fill="#3B3A36"/>
<path d="M157.808 63.024H151.112L149.37 66.7682H146.828L154.566 50.3838L162.03 66.7682H159.446L157.807 63.024H157.808ZM156.845 60.8375L154.526 55.596L152.095 60.8375H156.845Z" fill="#3B3A36"/>
<path d="M171.009 76.8553H0V0.428223H171.009V76.8553ZM2.80359 73.9352H167.919V3.27384H2.80359V73.9352Z" fill="#3B3A36"/>
<path d="M162.23 41.9805H10.0537V44.9197H162.23V41.9805Z" fill="#3B3A36"/>
<path d="M182.498 0.32373C183.423 0.32373 184.324 0.557175 185.206 1.02507C186.085 1.49297 186.771 2.1611 187.263 3.0325C187.753 3.90288 188 4.8105 188 5.75434C188 6.69819 187.758 7.5887 187.273 8.45204C186.791 9.31438 186.112 9.98453 185.238 10.4615C184.365 10.9384 183.451 11.1769 182.499 11.1769C181.546 11.1769 180.632 10.9384 179.76 10.4615C178.887 9.98453 178.207 9.31438 177.721 8.45204C177.235 7.5887 176.991 6.69014 176.991 5.75434C176.991 4.81855 177.238 3.90188 177.731 3.0325C178.224 2.16211 178.911 1.49297 179.793 1.02507C180.672 0.557175 181.576 0.32373 182.499 0.32373L182.498 0.32373ZM182.498 1.2233C181.725 1.2233 180.972 1.41851 180.239 1.80892C179.508 2.20035 178.935 2.7588 178.521 3.4853C178.108 4.2118 177.901 4.96848 177.901 5.75434C177.901 6.54021 178.103 7.28482 178.51 8.00226C178.915 8.71869 179.484 9.27715 180.214 9.67763C180.943 10.0781 181.704 10.2783 182.497 10.2783C183.29 10.2783 184.052 10.0781 184.78 9.67763C185.51 9.27715 186.077 8.71869 186.481 8.00226C186.884 7.28482 187.087 6.53618 187.087 5.75434C187.087 4.9725 186.882 4.2118 186.47 3.4853C186.06 2.7588 185.486 2.20035 184.752 1.80892C184.016 1.41851 183.266 1.2233 182.497 1.2233H182.498ZM180.083 8.75391V2.91376H182.119C182.815 2.91376 183.317 2.96709 183.628 3.07476C183.939 3.18343 184.187 3.3716 184.372 3.64026C184.557 3.90892 184.65 4.19368 184.65 4.49555C184.65 4.92219 184.495 5.29349 184.187 5.61045C183.877 5.92741 183.468 6.10451 182.956 6.14275C183.167 6.22928 183.333 6.33192 183.459 6.45166C183.697 6.68209 183.989 7.06747 184.335 7.60983L185.057 8.7529H183.89L183.366 7.8322C182.952 7.10873 182.619 6.65492 182.366 6.47279C182.191 6.33796 181.936 6.27154 181.599 6.27154H181.038V8.7529H180.082L180.083 8.75391ZM181.04 5.46656H182.2C182.754 5.46656 183.132 5.38506 183.333 5.22205C183.536 5.05904 183.636 4.8427 183.636 4.57404C183.636 4.40197 183.587 4.24701 183.491 4.11017C183.394 3.97433 183.259 3.87169 183.085 3.80427C182.914 3.73686 182.593 3.70365 182.127 3.70365H181.04V5.46556V5.46656Z" fill="#3B3A36"/>
</g>
<defs>
<clipPath id="clip0_2139_10300">
<rect width="188" height="95" fill="white" transform="translate(0 0.32373)"/>
</clipPath>
</defs>
</svg>
