<svg width="269" height="38" viewBox="0 0 269 38" fill="none" xmlns="http://www.w3.org/2000/svg">
<path d="M11.4552 2.4L24.4632 34.56V2.4H30.6552L30.2712 36H19.2312L6.51119 4.608L6.17519 36H0.367191V2.4H11.4552ZM56.0836 0.671997L56.2756 0.623998C57.0916 1.92 57.9076 4.896 57.9076 8.112C57.9076 10.272 57.3796 13.104 55.3636 13.104C51.7636 13.104 49.6996 3.12 43.0276 3.12C41.3956 3.12 36.3076 3.84 37.8436 9.936C39.5716 16.848 46.0996 15.744 49.9396 15.744C51.6676 15.744 52.8196 15.984 52.8196 17.184C52.8196 18.288 51.9076 18.576 50.7076 18.576C49.0756 18.576 46.8676 18.048 45.4756 18C40.5316 17.904 37.9396 23.472 40.7716 27.936C43.8916 32.784 48.3556 35.04 51.9556 35.04C54.4516 35.04 56.4676 33.984 57.3796 32.016C59.0596 28.32 54.7876 26.544 51.5716 26.544C50.0356 26.544 48.7396 26.976 48.4996 27.792C48.3076 28.56 48.3556 28.992 49.2676 30.048L49.0276 30.192C46.4836 27.6 43.9396 22.944 45.2836 21.264C45.9556 20.4 47.0596 20.016 48.3556 20.016C53.1076 20.016 60.3556 25.488 57.9556 32.112C56.7076 35.52 51.8116 37.296 46.5316 37.296C39.0436 37.296 30.8356 33.792 30.8356 26.352C30.8356 16.224 45.6196 17.184 48.3556 17.184V16.896C45.8596 16.8 31.3636 16.224 31.3636 7.392C31.3636 4.944 32.4676 0.239997 37.7956 0.239997C44.5156 0.191998 48.2596 6.288 53.0116 6.288C55.2196 6.288 57.2836 3.168 56.0836 0.671997ZM81.4501 36L76.4101 8.4L71.4181 36H59.9461V2.4H65.6101L65.9941 33.984L71.7061 2.352H81.3061L87.0661 33.888V2.4H92.7301L93.1141 36H81.4501ZM112.869 2.4V17.04H122.373V2.4H128.277L128.325 36H122.373V21.36H112.917V36H106.965V2.4H112.869ZM154.009 0.671997L154.201 0.623998C155.017 1.92 155.833 4.896 155.833 8.112C155.833 10.272 155.305 13.104 153.289 13.104C149.689 13.104 147.625 3.12 140.953 3.12C139.321 3.12 134.233 3.84 135.769 9.936C137.497 16.848 144.025 15.744 147.865 15.744C149.593 15.744 150.745 15.984 150.745 17.184C150.745 18.288 149.833 18.576 148.633 18.576C147.001 18.576 144.793 18.048 143.401 18C138.457 17.904 135.865 23.472 138.697 27.936C141.817 32.784 146.281 35.04 149.881 35.04C152.377 35.04 154.393 33.984 155.305 32.016C156.985 28.32 152.713 26.544 149.497 26.544C147.961 26.544 146.665 26.976 146.425 27.792C146.233 28.56 146.281 28.992 147.193 30.048L146.953 30.192C144.409 27.6 141.865 22.944 143.209 21.264C143.881 20.4 144.985 20.016 146.281 20.016C151.033 20.016 158.281 25.488 155.881 32.112C154.633 35.52 149.737 37.296 144.457 37.296C136.969 37.296 128.761 33.792 128.761 26.352C128.761 16.224 143.545 17.184 146.281 17.184V16.896C143.785 16.8 129.289 16.224 129.289 7.392C129.289 4.944 130.393 0.239997 135.721 0.239997C142.441 0.191998 146.185 6.288 150.937 6.288C153.145 6.288 155.209 3.168 154.009 0.671997ZM165.168 2.4L165.216 36H159.264V2.4H165.168ZM172.021 19.392C172.021 26.496 176.533 31.296 184.357 31.296C187.573 31.296 192.133 30.48 192.661 21.936V21.36H176.821V17.04H197.797V36H192.661V29.04C191.557 34.32 187.717 36.384 182.725 36.384C173.605 36.384 167.125 29.568 167.125 19.392C167.125 9.216 173.605 2.4 183.445 2.4H197.653L197.605 7.584L183.445 7.488C176.533 7.488 172.021 12.288 172.021 19.392ZM205.216 2.4V17.04H214.72V2.4H220.624L220.672 36H214.72V21.36H205.264V36H199.312V2.4H205.216ZM221.685 6.768V2.448H243.765V6.768H235.701L235.749 36H229.797V6.768H221.685ZM262.779 27.744C262.779 20.352 246.747 22.272 246.747 11.232C246.747 5.232 251.451 2.016 257.595 2.016C264.795 2.016 268.539 6.384 268.539 12.768H262.635C262.635 9.12 261.003 7.584 257.355 7.584C254.955 7.584 252.651 8.4 252.651 10.992C252.651 17.904 268.539 17.04 268.539 27.744C268.539 33.12 264.555 36.384 257.355 36.384C248.619 36.384 244.827 31.296 244.827 25.584H250.731C250.779 28.608 253.707 31.2 257.499 31.2C260.427 31.2 262.779 30.576 262.779 27.744Z" fill="#FFFEF9"/>
</svg>
