<svg width="128" height="38" viewBox="0 0 128 38" fill="none" xmlns="http://www.w3.org/2000/svg">
<path d="M6.66706 20.208L6.61906 36H0.763061V2.4H10.4591C16.4111 2.4 21.8831 4.224 21.8831 10.992C21.8831 16.032 18.8111 19.008 13.9631 19.92L21.8351 36H15.8351L8.10706 20.208H6.66706ZM6.66706 15.648H10.4591C13.6751 15.648 15.9791 14.928 15.9791 11.28C15.9791 7.68 13.6751 6.912 10.4591 6.96H6.66706V15.648ZM48.0161 0.671997L48.2081 0.623998C49.0241 1.92 49.8401 4.896 49.8401 8.112C49.8401 10.272 49.3121 13.104 47.2961 13.104C43.6961 13.104 41.6321 3.12 34.9601 3.12C33.3281 3.12 28.2401 3.84 29.7761 9.936C31.5041 16.848 38.0321 15.744 41.8721 15.744C43.6001 15.744 44.7521 15.984 44.7521 17.184C44.7521 18.288 43.8401 18.576 42.6401 18.576C41.0081 18.576 38.8001 18.048 37.4081 18C32.4641 17.904 29.8721 23.472 32.7041 27.936C35.8241 32.784 40.2881 35.04 43.8881 35.04C46.3841 35.04 48.4001 33.984 49.3121 32.016C50.9921 28.32 46.7201 26.544 43.5041 26.544C41.9681 26.544 40.6721 26.976 40.4321 27.792C40.2401 28.56 40.2881 28.992 41.2001 30.048L40.9601 30.192C38.4161 27.6 35.8721 22.944 37.2161 21.264C37.8881 20.4 38.9921 20.016 40.2881 20.016C45.0401 20.016 52.2881 25.488 49.8881 32.112C48.6401 35.52 43.7441 37.296 38.4641 37.296C30.9761 37.296 22.7681 33.792 22.7681 26.352C22.7681 16.224 37.5521 17.184 40.2881 17.184V16.896C37.7921 16.8 23.2961 16.224 23.2961 7.392C23.2961 4.944 24.4001 0.239997 29.7281 0.239997C36.4481 0.191998 40.1921 6.288 44.9441 6.288C47.1521 6.288 49.2161 3.168 48.0161 0.671997ZM67.1426 36L66.0386 29.04H58.2146L57.1106 36H51.3026L56.5346 2.4H67.9106L73.1426 36H67.1426ZM58.8866 24.48H65.3666L62.1506 3.792L58.8866 24.48ZM77.8469 19.392C77.8469 26.496 82.3589 31.296 89.2709 31.296C94.3589 31.296 98.5349 28.848 99.7349 24.336H105.351C103.575 31.728 97.3349 36.384 89.2709 36.384C79.4309 36.384 72.9509 29.568 72.9509 19.392C72.9509 9.216 79.4309 2.4 89.2709 2.4C98.4389 2.4 104.055 8.592 104.055 17.568H99.1109C98.7749 10.8 95.4629 7.488 89.2709 7.488C82.3589 7.488 77.8469 12.288 77.8469 19.392ZM111.832 2.4V17.04H121.336V2.4H127.24L127.288 36H121.336V21.36H111.88V36H105.928V2.4H111.832Z" fill="#FFFEF9"/>
</svg>
