<svg width="1192" height="109" viewBox="0 0 1192 109" fill="none" xmlns="http://www.w3.org/2000/svg">
<path d="M17.3342 58.94L17.1942 105H0.114165V6.99999H28.3942C45.7542 6.99999 61.7142 12.32 61.7142 32.06C61.7142 46.76 52.7542 55.44 38.6142 58.1L61.5742 105H44.0742L21.5342 58.94H17.3342ZM17.3342 45.64H28.3942C37.7742 45.64 44.4942 43.54 44.4942 32.9C44.4942 22.4 37.7742 20.16 28.3942 20.3H17.3342V45.64ZM137.935 1.95999L138.495 1.81999C140.875 5.59999 143.255 14.28 143.255 23.66C143.255 29.96 141.715 38.22 135.835 38.22C125.335 38.22 119.315 9.09999 99.8554 9.09999C95.0954 9.09999 80.2554 11.2 84.7354 28.98C89.7754 49.14 108.815 45.92 120.015 45.92C125.055 45.92 128.415 46.62 128.415 50.12C128.415 53.34 125.755 54.18 122.255 54.18C117.495 54.18 111.055 52.64 106.995 52.5C92.5754 52.22 85.0154 68.46 93.2754 81.48C102.375 95.62 115.395 102.2 125.895 102.2C133.175 102.2 139.055 99.12 141.715 93.38C146.615 82.6 134.155 77.42 124.775 77.42C120.295 77.42 116.515 78.68 115.815 81.06C115.255 83.3 115.395 84.56 118.055 87.64L117.355 88.06C109.935 80.5 102.515 66.92 106.435 62.02C108.395 59.5 111.615 58.38 115.395 58.38C129.255 58.38 150.395 74.34 143.395 93.66C139.755 103.6 125.475 108.78 110.075 108.78C88.2354 108.78 64.2954 98.56 64.2954 76.86C64.2954 47.32 107.415 50.12 115.395 50.12V49.28C108.115 49 65.8354 47.32 65.8354 21.56C65.8354 14.42 69.0554 0.699991 84.5954 0.699991C104.195 0.559993 115.115 18.34 128.975 18.34C135.415 18.34 141.435 9.24 137.935 1.95999ZM193.721 105L190.501 84.7H167.681L164.461 105H147.521L162.781 6.99999H195.961L211.221 105H193.721ZM169.641 71.4H188.541L179.161 11.06L169.641 71.4ZM224.942 56.56C224.942 77.28 238.102 91.28 258.262 91.28C273.102 91.28 285.282 84.14 288.782 70.98H305.162C299.982 92.54 281.782 106.12 258.262 106.12C229.562 106.12 210.662 86.24 210.662 56.56C210.662 26.88 229.562 6.99999 258.262 6.99999C285.002 6.99999 301.382 25.06 301.382 51.24H286.962C285.982 31.5 276.322 21.84 258.262 21.84C238.102 21.84 224.942 35.84 224.942 56.56ZM324.066 6.99999V49.7H351.786V6.99999H369.006L369.147 105H351.786V62.3H324.206V105H306.846V6.99999H324.066ZM442.004 6.99999L479.944 100.8V6.99999H498.004L496.884 105H464.684L427.584 13.44L426.604 105H409.664V6.99999H442.004ZM572.171 1.95999L572.731 1.81999C575.111 5.59999 577.491 14.28 577.491 23.66C577.491 29.96 575.951 38.22 570.071 38.22C559.571 38.22 553.551 9.09999 534.091 9.09999C529.331 9.09999 514.491 11.2 518.971 28.98C524.011 49.14 543.051 45.92 554.251 45.92C559.291 45.92 562.651 46.62 562.651 50.12C562.651 53.34 559.991 54.18 556.491 54.18C551.731 54.18 545.291 52.64 541.231 52.5C526.811 52.22 519.251 68.46 527.511 81.48C536.611 95.62 549.631 102.2 560.131 102.2C567.411 102.2 573.291 99.12 575.951 93.38C580.851 82.6 568.391 77.42 559.011 77.42C554.531 77.42 550.751 78.68 550.051 81.06C549.491 83.3 549.631 84.56 552.291 87.64L551.591 88.06C544.171 80.5 536.751 66.92 540.671 62.02C542.631 59.5 545.851 58.38 549.631 58.38C563.491 58.38 584.631 74.34 577.631 93.66C573.991 103.6 559.711 108.78 544.311 108.78C522.471 108.78 498.531 98.56 498.531 76.86C498.531 47.32 541.651 50.12 549.631 50.12V49.28C542.351 49 500.071 47.32 500.071 21.56C500.071 14.42 503.291 0.699991 518.831 0.699991C538.431 0.559993 549.351 18.34 563.211 18.34C569.651 18.34 575.671 9.24 572.171 1.95999ZM646.156 105L631.456 24.5L616.896 105H583.436V6.99999H599.956L601.076 99.12L617.736 6.86H645.736L662.536 98.84V6.99999H679.056L680.176 105H646.156ZM737.794 6.99999V49.7H765.514V6.99999H782.734L782.874 105H765.514V62.3H737.934V105H720.574V6.99999H737.794ZM857.787 1.95999L858.347 1.81999C860.727 5.59999 863.107 14.28 863.107 23.66C863.107 29.96 861.567 38.22 855.687 38.22C845.187 38.22 839.167 9.09999 819.707 9.09999C814.947 9.09999 800.107 11.2 804.587 28.98C809.627 49.14 828.667 45.92 839.867 45.92C844.907 45.92 848.267 46.62 848.267 50.12C848.267 53.34 845.607 54.18 842.107 54.18C837.347 54.18 830.907 52.64 826.847 52.5C812.427 52.22 804.867 68.46 813.127 81.48C822.227 95.62 835.247 102.2 845.747 102.2C853.027 102.2 858.907 99.12 861.567 93.38C866.467 82.6 854.007 77.42 844.627 77.42C840.147 77.42 836.367 78.68 835.667 81.06C835.107 83.3 835.247 84.56 837.907 87.64L837.207 88.06C829.787 80.5 822.367 66.92 826.287 62.02C828.247 59.5 831.467 58.38 835.247 58.38C849.107 58.38 870.247 74.34 863.247 93.66C859.607 103.6 845.327 108.78 829.927 108.78C808.087 108.78 784.147 98.56 784.147 76.86C784.147 47.32 827.267 50.12 835.247 50.12V49.28C827.967 49 785.687 47.32 785.687 21.56C785.687 14.42 788.907 0.699991 804.447 0.699991C824.047 0.559993 834.967 18.34 848.827 18.34C855.267 18.34 861.287 9.24 857.787 1.95999ZM890.333 6.99999L890.473 105H873.113V6.99999H890.333ZM910.321 56.56C910.321 77.28 923.481 91.28 946.301 91.28C955.681 91.28 968.981 88.9 970.521 63.98V62.3H924.321V49.7H985.501V105H970.521V84.7C967.301 100.1 956.101 106.12 941.541 106.12C914.941 106.12 896.041 86.24 896.041 56.56C896.041 26.88 914.941 6.99999 943.641 6.99999H985.081L984.941 22.12L943.641 21.84C923.481 21.84 910.321 35.84 910.321 56.56ZM1007.14 6.99999V49.7H1034.86V6.99999H1052.08L1052.22 105H1034.86V62.3H1007.28V105H989.921V6.99999H1007.14ZM1055.17 19.74V7.13999H1119.57V19.74H1096.05L1096.19 105H1078.83V19.74H1055.17ZM1175.03 80.92C1175.03 59.36 1128.27 64.96 1128.27 32.76C1128.27 15.26 1141.99 5.88 1159.91 5.88C1180.91 5.88 1191.83 18.62 1191.83 37.24H1174.61C1174.61 26.6 1169.85 22.12 1159.21 22.12C1152.21 22.12 1145.49 24.5 1145.49 32.06C1145.49 52.22 1191.83 49.7 1191.83 80.92C1191.83 96.6 1180.21 106.12 1159.21 106.12C1133.73 106.12 1122.67 91.28 1122.67 74.62H1139.89C1140.03 83.44 1148.57 91 1159.63 91C1168.17 91 1175.03 89.18 1175.03 80.92Z" fill="#FFFEF9"/>
</svg>
