<svg width="1063" height="183" viewBox="0 0 1063 183" fill="none" xmlns="http://www.w3.org/2000/svg">
<path d="M14.4527 106.56C14.4527 127.28 27.6127 141.28 47.7727 141.28C62.6127 141.28 74.7927 134.14 78.2927 120.98H94.6727C89.4927 142.54 71.2927 156.12 47.7727 156.12C19.0727 156.12 0.172669 136.24 0.172669 106.56C0.172669 76.88 19.0727 57 47.7727 57C74.5127 57 90.8927 75.06 90.8927 101.24H76.4727C75.4927 81.5 65.8327 71.84 47.7727 71.84C27.6127 71.84 14.4527 85.84 14.4527 106.56ZM113.577 57V99.7H141.297V57H158.517L158.657 155H141.297V112.3H113.717V155H96.357V57H113.577ZM241.97 71.84C240.15 83.46 228.53 118.6 225.03 132.04C221.25 147.02 222.09 154.58 226.29 155.7C236.09 158.36 240.43 128.54 233.15 127.84C230.91 127.56 229.65 127.84 226.99 131.06L226.43 130.5C231.89 122.8 241.83 114.68 247.85 114.68C248.83 114.68 249.81 114.96 250.51 115.38C263.67 123.22 244.21 157.8 224.75 157.8C216.91 157.8 207.39 151.64 203.61 144.5L224.05 86.68H222.51C207.95 130.78 192.27 159.48 181.35 159.48C164.97 159.48 157.83 147.3 157.83 136.66C157.83 103.76 229.37 75.62 229.93 55.04C229.93 52.52 228.95 51.82 227.27 51.82C216.49 51.68 191.43 90.04 177.29 90.04C170.29 90.04 166.93 81.5 166.93 75.2C166.93 65.4 169.31 56.44 171.69 52.52L171.97 52.94C167.35 63.16 174.49 67.64 181.07 67.64C200.81 67.64 214.53 50 229.51 50C236.51 50 244.35 56.02 241.97 71.84ZM226.57 67.36L225.87 66.66C202.63 90.88 180.09 101.1 178.97 126.58C178.69 132.88 181.49 137.08 187.51 137.08C206.41 137.08 217.61 97.46 226.57 67.36ZM197.17 174.74C197.17 169.98 200.25 166.9 205.01 166.9C209.49 166.9 212.57 169.98 212.57 174.74C212.57 179.22 209.49 182.3 205.01 182.3C200.25 182.3 197.17 179.22 197.17 174.74ZM316.693 57H349.173L348.053 155H331.393V74.92L318.933 155H285.753L273.013 72.96L272.033 155H255.513V57H287.433L302.133 150.94L316.693 57ZM387.136 69.74V57.14H451.536V69.74H428.016L428.156 155H410.796V69.74H387.136ZM476.056 57L476.196 155H458.836V57H476.056ZM553.164 51.96L553.724 51.82C556.104 55.6 558.484 64.28 558.484 73.66C558.484 79.96 556.944 88.22 551.064 88.22C540.564 88.22 534.544 59.1 515.084 59.1C510.324 59.1 495.484 61.2 499.964 78.98C505.004 99.14 524.044 95.92 535.244 95.92C540.284 95.92 543.644 96.62 543.644 100.12C543.644 103.34 540.984 104.18 537.484 104.18C532.724 104.18 526.284 102.64 522.224 102.5C507.804 102.22 500.244 118.46 508.504 131.48C517.604 145.62 530.624 152.2 541.124 152.2C548.404 152.2 554.284 149.12 556.944 143.38C561.844 132.6 549.384 127.42 540.004 127.42C535.524 127.42 531.744 128.68 531.044 131.06C530.484 133.3 530.624 134.56 533.284 137.64L532.584 138.06C525.164 130.5 517.744 116.92 521.664 112.02C523.624 109.5 526.844 108.38 530.624 108.38C544.484 108.38 565.624 124.34 558.624 143.66C554.984 153.6 540.704 158.78 525.304 158.78C503.464 158.78 479.524 148.56 479.524 126.86C479.524 97.32 522.644 100.12 530.624 100.12V99.28C523.344 99 481.064 97.32 481.064 71.56C481.064 64.42 484.284 50.7 499.824 50.7C519.424 50.56 530.344 68.34 544.204 68.34C550.644 68.34 556.664 59.24 553.164 51.96ZM505.844 45.1H504.584L524.604 19.34L544.484 45.1H543.084L524.604 31.8L505.844 45.1ZM540.984 24.8L521.524 0.159991H534.544L541.964 24.8H540.984ZM626.17 57H658.65L657.53 155H640.87V74.92L628.41 155H595.23L582.49 72.96L581.51 155H564.99V57H596.91L611.61 150.94L626.17 57ZM730.353 57L768.293 150.8V57H786.353L785.233 155H753.033L715.933 63.44L714.953 155H698.013V57H730.353ZM868.919 71.84C867.099 83.46 855.479 118.6 851.979 132.04C848.199 147.02 849.039 154.58 853.239 155.7C863.039 158.36 867.379 128.54 860.099 127.84C857.859 127.56 856.599 127.84 853.939 131.06L853.379 130.5C858.839 122.8 868.779 114.68 874.799 114.68C875.779 114.68 876.759 114.96 877.459 115.38C890.619 123.22 871.159 157.8 851.699 157.8C843.859 157.8 834.339 151.64 830.559 144.5L850.999 86.68H849.459C834.899 130.78 819.219 159.48 808.299 159.48C791.919 159.48 784.779 147.3 784.779 136.66C784.779 103.76 856.319 75.62 856.879 55.04C856.879 52.52 855.899 51.82 854.219 51.82C843.439 51.68 818.379 90.04 804.239 90.04C797.239 90.04 793.879 81.5 793.879 75.2C793.879 65.4 796.259 56.44 798.639 52.52L798.919 52.94C794.299 63.16 801.439 67.64 808.019 67.64C827.759 67.64 841.479 50 856.459 50C863.459 50 871.299 56.02 868.919 71.84ZM853.519 67.36L852.819 66.66C829.579 90.88 807.039 101.1 805.919 126.58C805.639 132.88 808.439 137.08 814.459 137.08C833.359 137.08 844.559 97.46 853.519 67.36ZM813.059 21.72H813.899C813.899 31.94 824.959 35.02 833.359 35.02C841.619 35.02 852.539 31.8 852.539 21.72H853.379C853.379 29 851.279 34.74 846.799 39.22C842.879 43 838.399 45.1 833.359 45.1C821.179 45.1 813.059 33.06 813.059 21.72ZM914.381 57L952.321 150.8V57H970.381L969.261 155H937.061L899.961 63.44L898.981 155H882.041V57H914.381ZM987.427 106.56C987.427 127.28 1000.59 141.28 1023.41 141.28C1032.79 141.28 1046.09 138.9 1047.63 113.98V112.3H1001.43V99.7H1062.61V155H1047.63V134.7C1044.41 150.1 1033.21 156.12 1018.65 156.12C992.047 156.12 973.147 136.24 973.147 106.56C973.147 76.88 992.047 57 1020.75 57H1062.19L1062.05 72.12L1020.75 71.84C1000.59 71.84 987.427 85.84 987.427 106.56Z" fill="#FFFEF9"/>
</svg>
