<svg width="462" height="521" viewBox="0 0 462 521" fill="none" xmlns="http://www.w3.org/2000/svg">
<path d="M171.452 128.856L205.96 128.391C205.931 126.438 205.535 108.907 199.604 94.7419C195.088 83.9658 186.816 75.5392 177.239 73.4196C167.661 71.3 158.941 74.7925 157.365 83.9544V83.9888C155.806 92.7716 162.651 98.9408 166.609 106.937C170.566 114.933 171.389 124.824 171.446 128.856H171.452Z" fill="white" stroke="#300375" stroke-width="3.58918" stroke-miterlimit="10" stroke-linecap="round"/>
<path d="M205.966 128.392C205.937 126.439 205.54 108.907 199.609 94.7423C195.094 83.9663 186.822 75.5397 177.244 73.4201C167.667 71.3005 158.946 74.793 157.37 83.9549V83.9893" stroke="#E0349E" stroke-width="3.58918" stroke-miterlimit="10" stroke-linecap="square"/>
<path d="M143.087 156.36C143.11 154.287 143.001 152.046 142.886 149.674C142.391 139.409 142.443 132.091 147.66 131.603C150.335 131.867 153.378 132.694 155.949 138.358C157.41 141.586 157.405 149.743 156.95 155.746C156.939 155.901 156.939 155.987 156.939 155.993L156.979 157.762L184.435 157.572L184.394 155.751C184.394 155.625 184.406 155.263 184.429 154.712C184.981 139.708 184.262 129.719 182.295 125.015C178.544 116.042 175.024 110.539 170.52 106.622C165.406 102.176 158.912 99.7977 150.076 99.1486C149.323 99.0912 148.535 99.0625 147.723 99.0625C135.598 99.0625 120.216 104.95 113.192 118.104C107.969 127.881 107.227 147.916 107.147 156.079L107.129 157.877L143.064 158.152L143.081 156.36H143.087Z" fill="white"/>
<path d="M147.724 100.854C137.611 100.854 121.994 105.438 114.78 118.943C109.747 128.375 109.022 148.06 108.947 156.09L141.287 156.337C141.39 146.245 138.261 130.442 147.672 129.793C151.169 130.115 154.764 131.39 157.583 137.611C159.85 142.603 158.734 155.895 158.734 155.946L182.594 155.78C182.571 154.734 183.814 133.309 180.633 125.698C174.144 110.166 167.224 102.204 149.938 100.935C149.236 100.883 148.494 100.854 147.718 100.854M147.724 97.2643C148.575 97.2643 149.409 97.293 150.209 97.3504C169.605 98.7807 177.273 108.316 183.957 124.313C186.051 129.328 186.799 139.294 186.23 154.775C186.212 155.251 186.201 155.585 186.195 155.74L186.27 159.353L182.623 159.376L158.762 159.542L155.219 159.565L155.144 156.027C155.144 155.849 155.144 155.728 155.161 155.608C155.616 149.559 155.547 141.81 154.316 139.093C152.187 134.4 149.944 133.648 147.649 133.401C146.763 133.493 145.595 133.9 144.928 137.215C144.255 140.546 144.479 145.142 144.692 149.576C144.807 151.977 144.917 154.24 144.894 156.371L144.859 159.956L141.27 159.927L108.93 159.68L105.329 159.651L105.364 156.056C105.461 145.756 106.405 127.019 111.622 117.254C115.212 110.528 121.102 105.105 128.655 101.578C134.534 98.8325 141.488 97.2585 147.735 97.2585L147.724 97.2643Z" fill="#300375"/>
<path d="M120.36 124.962L131.56 126.553C140.953 127.892 150.485 127.823 159.861 126.358L168.771 124.962C171.63 124.962 173.943 122.544 173.943 119.557V90.2906C173.943 86.1835 170.756 82.8577 166.827 82.8577H122.298C118.369 82.8577 115.183 86.1835 115.183 90.2906V119.557C115.183 122.544 117.501 124.962 120.354 124.962H120.36Z" fill="#FFF742"/>
<path d="M120.331 125.41C128.424 126.306 136.403 128.018 144.571 128.478C150.709 128.92 156.944 128.673 163.076 127.92C165.095 127.702 167.115 127.455 169.134 127.208L168.783 127.237C172.09 127.34 175.151 124.979 176.105 121.866C176.41 120.936 176.497 119.925 176.508 118.96C176.767 110.32 177.078 100.843 177.267 92.255C177.267 91.9276 177.313 90.9109 177.308 90.5835C177.457 87.114 175.921 83.5986 173.143 81.4618C171.383 80.066 169.128 79.2675 166.873 79.2101L162.403 79.0837L144.577 78.4059C138.635 78.2049 132.693 78.1187 126.745 78.2336C124.064 78.3542 121.228 78.0613 118.657 79.0263C115.298 80.244 112.652 83.1448 111.714 86.5568C111.283 88.0618 111.185 89.6127 111.369 91.1464C112.197 100.607 113.756 110.039 114.36 119.522C114.469 122.642 117.144 125.537 120.337 125.422L120.331 125.41ZM120.394 124.514C117.794 124.48 115.758 122.038 116.022 119.511C116.235 116.357 116.523 113.204 116.88 110.05C117.622 103.468 118.536 96.8906 119.088 90.2963C119.296 88.9694 120.25 87.7172 121.533 87.43C123.247 87.2978 124.996 87.5046 126.739 87.4816C132.681 87.5965 138.623 87.5104 144.571 87.3093L162.398 86.6315L166.844 86.5052C167.563 86.4764 168.259 86.6602 168.863 87.0853C169.996 87.8378 170.612 89.2221 170.595 90.5777C170.612 90.8994 170.618 91.9047 170.635 92.2493C170.848 101.135 171.135 110.918 171.412 119.844C171.389 121.274 170.221 122.624 168.771 122.688C160.718 124.083 152.803 126.197 144.577 126.53C136.455 127.076 128.396 125.812 120.394 124.514Z" fill="#E0349E"/>
<path d="M92.582 110.24C97.1206 110.24 114.608 109.988 116.028 109.907C122.776 109.907 128.246 104.445 128.246 97.7068V87.643C128.246 80.9051 122.776 75.4425 116.028 75.4425H114.918L114.337 75.4827C112.646 75.5918 92.8984 75.7411 91.1439 75.7756C82.4004 75.9422 79.2826 68.9401 79.1734 60.209C79.1043 54.4533 79.1389 48.2899 79.2769 42.7066L44.7745 41.845C44.5675 50.1912 44.1073 78.303 46.9604 89.5558C51.591 107.799 74.7786 109.39 82.3947 109.913C85.9784 110.16 89.5045 110.24 92.582 110.24Z" fill="white" stroke="#300375" stroke-width="3.58918" stroke-miterlimit="10" stroke-linecap="round"/>
<path d="M44.7686 41.8447C44.5615 50.191 44.1013 78.3028 46.9545 89.5556C51.5851 107.799 74.7726 109.39 82.3887 109.913C85.9724 110.16 89.4986 110.24 92.576 110.24C97.1146 110.24 114.602 109.987 116.022 109.907C122.77 109.907 128.24 104.444 128.24 97.7065" stroke="#E0349E" stroke-width="3.58918" stroke-miterlimit="10" stroke-linecap="square"/>
<path d="M175.352 79.3884C175.352 79.3884 182.128 109.545 182.6 127.628L160.575 129.529C160.575 129.529 159.936 119.247 159.344 107.087C158.826 96.3509 159.125 83.237 159.125 83.237L175.352 79.3942V79.3884Z" fill="#E0349E" stroke="#300375" stroke-width="3.05463" stroke-miterlimit="10" stroke-linecap="round"/>
<path d="M115.286 72.9951C115.286 72.9951 109.091 114.726 108.947 129.822L135.396 130.425C135.396 130.425 135.741 117.196 136.322 105.754C136.852 95.38 136.909 85.2072 136.909 85.2072C124.697 87.4818 115.286 72.9951 115.286 72.9951Z" fill="#E0349E" stroke="#300375" stroke-width="2.86626" stroke-miterlimit="10" stroke-linecap="round"/>
<path d="M108.671 43.9756C107.274 37.0367 107.659 29.8163 110.035 23.1416C112.244 16.9494 116.357 10.4011 124.024 7.06373C141.057 -0.357696 158.711 3.28408 166.229 8.36765C173.08 12.9974 181.622 19.8674 182.796 35.6696C183.728 48.209 183.498 60.3751 182.324 66.2456C181.151 72.1104 177.245 84.7303 166.971 90.8133C156.698 96.8964 145.078 95.1329 143.329 94.9376C141.58 94.7423 126.291 92.0828 119.503 80.0488C114.642 71.4326 110.587 53.4879 108.671 43.9813V43.9756Z" fill="white" stroke="#300375" stroke-width="3.05463" stroke-miterlimit="10" stroke-linecap="round"/>
<path d="M122.954 35.9221C127.452 36.5138 132.019 37.5765 136.276 39.0757C140.113 40.5979 144.485 42.9357 146.176 46.8015C148.35 51.9023 148.511 57.6867 149.144 63.1896C149.23 64.3097 149.449 67.2622 149.541 68.3536C149.765 70.5019 149.857 72.7938 150.876 74.8617C152.923 78.9056 157.962 78.1646 160.102 74.6032C161.011 72.8742 161.178 70.7776 161.425 68.8935C162.104 62.0637 161.092 55.1248 162.656 48.4616C163.749 43.8376 166.159 40.8851 171.066 39.989C173.919 39.4031 176.968 39.449 179.856 39.5295C174.195 38.4323 166.763 37.6511 162.812 42.8726C156.967 51.305 159.832 62.4141 157.583 71.7196C157.468 72.0987 157.416 72.5181 157.203 72.8627C156.749 73.5693 155.661 74.4022 154.804 74.1552C153.205 73.4601 153.153 69.6805 152.912 68.0376C152.734 66.1076 152.492 63.0517 152.268 61.1274C151.445 55.6245 151.019 49.7828 148.132 44.8083C145.652 40.8449 141.097 38.754 136.782 37.4731C132.227 36.3702 127.607 35.7785 122.942 35.9221H122.954Z" fill="#E0349E"/>
<mask id="mask0_1313_6592" style="mask-type:luminance" maskUnits="userSpaceOnUse" x="107" y="2" width="77" height="94">
<path d="M108.671 43.9756C107.274 37.0367 107.659 29.8163 110.035 23.1416C112.244 16.9494 116.357 10.4011 124.024 7.06373C141.057 -0.357696 158.711 3.28408 166.229 8.36765C173.08 12.9974 181.622 19.8674 182.796 35.6696C183.728 48.209 183.498 60.3751 182.324 66.2456C181.151 72.1104 177.245 84.7303 166.971 90.8133C156.698 96.8964 145.078 95.1329 143.329 94.9376C141.58 94.7423 126.291 92.0828 119.503 80.0488C114.642 71.4326 110.587 53.4879 108.671 43.9813V43.9756Z" fill="white"/>
</mask>
<g mask="url(#mask0_1313_6592)">
<path d="M151.911 34.5153C140.302 34.5153 130.892 25.1182 130.892 13.5262C130.892 1.93425 140.302 -7.46289 151.911 -7.46289C163.519 -7.46289 172.93 1.93425 172.93 13.5262C172.93 25.1182 163.519 34.5153 151.911 34.5153Z" fill="#300375"/>
<path d="M102.249 51.7944C89.8474 50.3791 80.8626 39.8953 82.1808 28.3784C83.4989 16.8614 94.6208 8.67238 107.022 10.0877C119.423 11.503 128.408 21.9867 127.09 33.5037C125.772 45.0207 114.65 53.2097 102.249 51.7944Z" fill="#300375"/>
</g>
<path d="M141.252 58.3646C140.073 54.5505 136.616 51.9312 133.049 50.4492C131.232 49.7139 129.287 49.3636 127.349 49.128C126.158 48.9844 125.077 49.9839 124.985 51.1385C124.864 53.4993 127.234 53.5338 128.925 53.8612C130.231 54.0737 131.508 54.4184 132.722 54.9469C134.597 55.7338 136.265 56.9113 137.945 58.0429C138.727 58.5656 139.538 59.0309 140.389 59.433C141.143 59.749 141.557 59.0309 141.252 58.3703V58.3646Z" fill="#E0349E"/>
<path d="M177.268 49.7601C175.323 46.3194 170.071 51.4948 168.432 53.2468C166.965 55.1309 165.734 57.5032 165.935 59.9502C166.522 61.4494 167.811 59.4562 168.403 58.9335C169.761 57.4573 171.101 55.9465 172.781 54.8149C173.92 53.8672 175.277 53.2813 176.56 52.569C177.463 51.9888 177.756 50.6964 177.262 49.7601H177.268Z" fill="#E0349E"/>
<path d="M117.317 48.1688C117.317 48.1688 114.32 39.2137 104.593 40.374C95.775 41.4252 96.2812 52.7756 97.9436 57.7156C99.606 62.6555 104.645 65.7057 110.812 64.4248C113.998 63.7584 115.482 62.3339 115.482 62.3339" fill="white"/>
<path d="M117.317 48.1688C117.317 48.1688 114.32 39.2137 104.593 40.374C95.775 41.4252 96.2812 52.7756 97.9436 57.7156C99.606 62.6555 104.645 65.7057 110.812 64.4248C113.998 63.7584 115.482 62.3339 115.482 62.3339" stroke="#300375" stroke-width="3.05463" stroke-miterlimit="10" stroke-linecap="round"/>
<path d="M99.2369 48.4333L73.7369 39.2771L21.27 40.8338L33.8274 50.1795L99.2369 48.4333Z" fill="#E0349E" stroke="#300375" stroke-width="3.1819" stroke-linecap="round" stroke-linejoin="round"/>
<path d="M33.8275 50.1794L33.4075 58.4223L21.0573 48.0484L21.2702 40.8337L33.8275 50.1794Z" fill="#E0349E" stroke="#300375" stroke-width="3.1819" stroke-linecap="round" stroke-linejoin="round"/>
<path d="M99.2369 48.4329L98.8457 56.0726L33.4074 58.4219L33.8274 50.1791L99.2369 48.4329Z" fill="#E0349E" stroke="#300375" stroke-width="3.1819" stroke-linecap="round" stroke-linejoin="round"/>
<path d="M65.8164 40.3398L81.7043 48.284L44.2683 49.5764L33.9601 41.167L65.8164 40.3398Z" fill="#FFF742"/>
<path d="M20.6492 41.1841L15.5527 41.3449L2.65023 5.95523L7.07952 4.17456L20.6492 41.1841Z" fill="#E0349E" stroke="#300375" stroke-width="3.1819" stroke-linecap="round" stroke-linejoin="round"/>
<path d="M64.039 40.1731L82.9699 48.864" stroke="#300375" stroke-width="1.01821" stroke-linecap="round" stroke-linejoin="round"/>
<path d="M53.213 39.7021L69.6014 49.2144" stroke="#300375" stroke-width="1.01821" stroke-linecap="round" stroke-linejoin="round"/>
<path d="M34.2476 41.8735L46.2239 50.4323" stroke="#300375" stroke-width="1.01821" stroke-linecap="round" stroke-linejoin="round"/>
<path d="M45.3266 40.9602L58.298 50.1508" stroke="#300375" stroke-width="1.01821" stroke-linecap="round" stroke-linejoin="round"/>
<path d="M69.3713 42.5972L36.2667 43.1543" stroke="#300375" stroke-width="1.01821" stroke-linecap="round" stroke-linejoin="round"/>
<path d="M73.3116 44.447L39.0739 45.1133" stroke="#300375" stroke-width="1.01821" stroke-linecap="round" stroke-linejoin="round"/>
<path d="M99.2369 48.4335L73.7369 39.2773L21.2701 40.834L33.8274 50.1797L99.2369 48.4335Z" stroke="#300375" stroke-width="3.1819" stroke-linecap="round" stroke-linejoin="round"/>
<path d="M73.7369 39.2768L64.4527 3.50806L7.07912 4.17438L21.2701 40.8335L73.7369 39.2768Z" fill="#E0349E" stroke="#300375" stroke-width="3.1819" stroke-linecap="round" stroke-linejoin="round"/>
<path d="M66.9266 34.182L60.0641 8.62061L15.9266 9.63158L24.8427 35.4228L66.9266 34.182Z" fill="#FFF742"/>
<path d="M141.463 220.312L175.236 215.137C174.94 213.226 172.144 196.085 164.387 183.016C158.481 173.069 149.209 165.937 139.532 165.164C129.856 164.39 121.775 169.014 121.49 178.21V178.244C121.171 187.071 128.729 192.178 133.712 199.48C138.684 206.765 140.854 216.365 141.463 220.312Z" fill="white" stroke="#300375" stroke-width="3.58918" stroke-miterlimit="10" stroke-linecap="round"/>
<path d="M175.242 215.137C174.945 213.226 172.149 196.085 164.392 183.016C158.486 173.069 149.214 165.937 139.538 165.164C129.862 164.39 121.78 169.014 121.495 178.21V178.244" stroke="#E0349E" stroke-width="3.58918" stroke-miterlimit="10" stroke-linecap="square"/>
<path d="M105.16 267.772C105.183 265.338 105.069 262.699 104.944 259.901C104.431 248.128 104.477 239.057 109.882 238.46C112.655 238.767 115.805 239.757 118.51 246.416C120.76 251.95 121.01 257.666 121.01 257.723L121.09 259.685L123.055 259.656L157.153 259.025L157.113 257.023C157.113 256.932 157.113 256.767 157.113 256.54C157.13 246.206 156.025 237.772 153.912 232.136C146.958 213.562 131.848 201.999 112.456 200.401C111.653 200.333 110.81 200.305 109.944 200.305C97.0674 200.305 80.7505 207.254 73.3238 222.78C67.8336 234.263 67.0476 257.842 66.9622 267.442L66.9451 269.45L105.132 269.774L105.149 267.772H105.16Z" fill="white"/>
<path d="M109.95 202.312C99.2659 202.312 82.761 207.715 75.1407 223.651C69.8213 234.775 69.0582 257.995 68.9784 267.465L103.15 267.755C103.258 255.846 99.955 237.214 109.893 236.447C113.59 236.828 117.388 238.329 120.367 245.666C122.759 251.552 123.015 257.597 123.015 257.654L155.108 257.063C155.085 255.829 155.399 241.821 152.033 232.841C145.176 214.517 130.556 203.905 112.291 202.403C111.551 202.341 110.765 202.312 109.945 202.312M109.95 198.303C110.867 198.303 111.767 198.337 112.621 198.411C132.822 200.071 148.559 212.111 155.792 231.436C157.984 237.294 159.135 245.978 159.118 256.545C159.118 256.756 159.118 256.904 159.118 256.989L159.192 260.998L155.176 261.072L123.084 261.664L119.074 261.738L119 257.785C118.977 257.37 118.67 252.16 116.648 247.178C114.273 241.332 111.79 240.706 109.882 240.485C109.085 240.61 107.911 241.184 107.205 245.08C106.482 249.089 106.715 254.543 106.943 259.821C107.063 262.642 107.182 265.303 107.16 267.794L107.125 271.804L103.11 271.77L68.9386 271.48L64.9234 271.446L64.9576 267.436C65.1968 239.262 69.1664 226.83 71.5128 221.927C75.2945 214.016 81.5251 207.63 89.5327 203.461C95.8146 200.191 103.253 198.314 109.945 198.314L109.95 198.303Z" fill="#300375"/>
<path d="M87.3575 230.953L99.0328 230.089C108.829 229.361 118.465 227.251 127.663 223.81L136.405 220.546C139.298 219.932 141.149 217.088 140.534 214.199L134.503 185.854C133.654 181.879 129.742 179.342 125.761 180.184L80.6485 189.761C76.6675 190.609 74.1274 194.516 74.9703 198.491L81.0016 226.836C81.6167 229.725 84.4643 231.573 87.3575 230.959V230.953Z" fill="#FFF742"/>
<path d="M87.4204 231.403C95.8038 230.521 104.25 230.481 112.616 229.196C118.927 228.32 125.186 226.762 131.234 224.715C133.233 224.061 135.232 223.401 137.22 222.724L136.89 222.821C140.421 222.212 143.206 218.862 143.211 215.268C143.228 214.546 143.097 213.778 142.966 213.073C141.406 204.48 139.714 195.05 138.091 186.519L137.886 185.416L137.835 185.137C136.941 180.298 132.476 176.499 127.544 176.385C126.541 176.317 125.448 176.482 124.462 176.664C121.683 177.215 105.423 179.985 102.262 180.542C94.8641 181.845 87.5172 183.386 80.2272 185.172C74.3155 186.246 69.9529 192.042 70.9154 198.019C71.035 198.832 71.3426 199.839 71.5989 200.635C74.4465 209.626 77.7954 218.51 80.381 227.592C81.3891 230.356 84.5727 232.142 87.4317 231.408L87.4204 231.403ZM87.2893 230.504C84.7493 231.022 82.101 229.202 81.8162 226.631C81.3606 223.469 80.979 220.296 80.6658 217.105C80.0336 210.724 79.5723 204.315 78.792 197.962C78.7123 197.405 78.8091 196.796 79.0084 196.284C79.4584 195.17 80.4209 194.379 81.5884 194.226L82.1294 194.123C89.5219 192.798 96.8631 191.223 104.147 189.403C107.975 188.453 123.244 184.546 126.82 183.744C128.825 183.323 130.881 184.83 131.234 186.827L131.496 187.918C133.581 196.648 135.904 206.248 138.057 215.007C138.33 216.593 137.169 218.066 135.591 218.362C127.874 221.507 120.316 225.107 112.206 227.217C104.102 229.52 95.6785 230.049 87.295 230.504H87.2893Z" fill="#E0349E"/>
<path d="M136.941 178.802C136.941 178.802 147.38 207.573 150.114 225.271L128.717 229.895C128.717 229.895 126.797 219.88 124.696 208.005C122.839 197.529 121.489 184.608 121.489 184.608L136.941 178.802Z" fill="#E0349E" stroke="#300375" stroke-width="3.05463" stroke-miterlimit="10" stroke-linecap="round"/>
<path d="M75.0672 180.394C75.0672 180.394 71.7354 216.11 67.9822 231.556L94.9892 238.801C94.9892 238.801 100.485 225.715 101.829 213.732C103.014 203.16 102.308 184.022 98.5488 185.342C82.0211 191.149 75.0672 180.394 75.0672 180.394Z" fill="#E0349E" stroke="#300375" stroke-width="3.05463" stroke-miterlimit="10" stroke-linecap="round"/>
<path d="M90.4439 261.652L106.915 231.755L98.6792 246.701L106.954 231.772C98.03 226.801 83.9626 215.336 82.1287 206.509C81.8668 205.241 81.2517 202.272 85.6826 197.643C88.6726 194.515 92.1752 192.593 92.2037 192.576L93.1434 192.104L98.1211 188.771C105.958 183.522 108.048 172.921 102.791 165.095C97.5345 157.27 86.9185 155.183 79.0818 160.432L75.6817 162.707C73.0163 164.174 66.8426 167.933 60.9708 174.07C50.1156 185.416 45.7473 199.395 48.6633 213.442C54.4212 241.15 86.7647 259.628 90.4325 261.647L90.4439 261.652Z" fill="white" stroke="#300375" stroke-width="3.58918" stroke-miterlimit="10" stroke-linecap="round"/>
<path d="M102.797 165.101C97.5405 157.275 86.9245 155.188 79.0878 160.437L75.6877 162.712C73.0224 164.18 66.8487 167.939 60.9769 174.075C50.1217 185.421 45.7534 199.4 48.6694 213.448C54.4273 241.156 86.7708 259.633 90.4385 261.652" stroke="#E0349E" stroke-width="3.58918" stroke-miterlimit="10" stroke-linecap="square"/>
<path d="M71.9177 141.733C71.1659 134.76 72.2025 127.68 75.1526 121.316C77.892 115.412 82.5394 109.327 90.4046 106.728C107.872 100.95 124.946 106.136 131.9 111.824C138.239 117.005 146.036 124.552 145.757 140.243C145.541 152.686 144.214 164.663 142.522 170.345C140.831 176.021 135.836 188.112 125.157 193.179C114.479 198.246 103.179 195.459 101.476 195.107C99.7733 194.754 84.9314 190.756 79.333 178.273C75.3235 169.338 72.9485 151.281 71.9234 141.733H71.9177Z" fill="white" stroke="#300375" stroke-width="3.05463" stroke-miterlimit="10" stroke-linecap="round"/>
<path d="M86.731 135.084C91.1163 136.074 95.5188 137.535 99.5795 139.401C103.224 141.249 107.319 143.951 108.641 147.909C110.326 153.135 109.962 158.851 110.082 164.333C110.065 165.448 110.013 168.377 110.002 169.463C110.025 171.602 109.911 173.871 110.731 176.004C112.382 180.172 117.417 179.899 119.849 176.584C120.903 174.963 121.256 172.904 121.671 171.073C122.959 164.396 122.588 157.463 124.741 151.037C126.222 146.589 128.904 143.877 133.802 143.444C136.673 143.126 139.669 143.444 142.51 143.786C137.026 142.193 129.77 140.754 125.402 145.543C118.875 153.329 120.692 164.544 117.634 173.513C117.485 173.877 117.394 174.286 117.155 174.604C116.643 175.259 115.492 175.986 114.672 175.662C113.157 174.832 113.448 171.101 113.362 169.458C113.362 167.541 113.396 164.504 113.356 162.587C113.043 157.088 113.151 151.293 110.759 146.123C108.675 141.994 104.375 139.52 100.234 137.865C95.8434 136.364 91.3441 135.369 86.731 135.084Z" fill="#E0349E"/>
<mask id="mask1_1313_6592" style="mask-type:luminance" maskUnits="userSpaceOnUse" x="71" y="104" width="75" height="93">
<path d="M71.9177 141.733C71.1659 134.76 72.2025 127.68 75.1526 121.316C77.892 115.412 82.5394 109.327 90.4046 106.728C107.872 100.95 124.946 106.136 131.9 111.824C138.239 117.005 146.036 124.552 145.757 140.243C145.541 152.686 144.214 164.663 142.522 170.345C140.831 176.021 135.836 188.112 125.157 193.179C114.479 198.246 103.179 195.459 101.476 195.107C99.7733 194.754 84.9314 190.756 79.333 178.273C75.3235 169.338 72.9485 151.281 71.9234 141.733H71.9177Z" fill="white"/>
</mask>
<g mask="url(#mask1_1313_6592)">
<path d="M117.309 136.404C105.816 136.404 96.4984 127.1 96.4984 115.623C96.4984 104.146 105.816 94.8418 117.309 94.8418C128.802 94.8418 138.119 104.146 138.119 115.623C138.119 127.1 128.802 136.404 117.309 136.404Z" fill="#300375"/>
<path d="M64.8456 148.815C52.7471 146.298 44.8399 135.149 47.1844 123.913C49.5288 112.677 61.2371 105.61 73.3356 108.127C85.4341 110.644 93.3413 121.793 90.9969 133.029C88.6524 144.265 76.9441 151.332 64.8456 148.815Z" fill="#300375"/>
</g>
<path d="M102.325 156.366C101.505 152.499 98.338 149.604 94.955 147.818C93.2293 146.925 91.3442 146.408 89.4534 145.998C88.2915 145.748 87.1354 146.635 86.9417 147.767C86.6114 150.087 88.9408 150.332 90.581 150.804C91.8511 151.134 93.0756 151.589 94.226 152.22C96.0029 153.164 97.5407 154.478 99.0955 155.746C99.8188 156.332 100.576 156.861 101.379 157.333C102.091 157.714 102.57 157.043 102.325 156.36V156.366Z" fill="#E0349E"/>
<path d="M138.524 155.467C136.918 151.901 131.268 156.525 129.497 158.106C127.879 159.829 126.45 162.058 126.427 164.487C126.871 166.017 128.318 164.168 128.956 163.708C130.425 162.371 131.889 161.006 133.643 160.045C134.856 159.215 136.246 158.76 137.573 158.174C138.513 157.685 138.923 156.439 138.518 155.467H138.524Z" fill="#E0349E"/>
<path d="M80.0562 146.646C80.0562 146.646 77.9148 137.547 68.2214 137.814C59.4336 138.053 58.9039 149.291 60.0943 154.312C61.239 159.141 65.9775 162.798 72.174 162.087C75.3747 161.723 76.9694 160.449 76.9694 160.449" fill="white"/>
<path d="M80.0562 146.646C80.0562 146.646 77.9148 137.547 68.2214 137.814C59.4336 138.053 58.9039 149.291 60.0943 154.312C61.239 159.141 65.9775 162.798 72.174 162.087C75.3747 161.723 76.9694 160.449 76.9694 160.449" stroke="#300375" stroke-width="3.05463" stroke-miterlimit="10" stroke-linecap="round"/>
<path d="M230.078 337.657C237.306 348.851 237.212 359.542 237.117 361.569C226.946 361.093 206.42 360.139 205.686 360.139C205.686 360.118 205.382 357.405 203.635 354.697C199.076 347.636 187.819 343.666 179.505 343.016C153.881 341.015 145.629 347.945 143.101 350.281C141.769 351.512 140.237 353.539 140.237 358.337H108.764C108.764 345.808 113.243 335.049 121.725 327.213C134.178 315.71 154.007 311.194 182.343 313.4C210.249 315.574 223.704 327.794 230.078 337.657Z" fill="white" stroke="#300375" stroke-width="3.58918" stroke-miterlimit="10" stroke-linecap="round"/>
<path d="M151.982 333.702L162.667 335.153C171.632 336.374 180.717 336.311 189.666 334.975L198.169 333.702C200.897 333.702 203.105 331.497 203.105 328.773V302.085C203.105 298.34 200.068 295.307 196.317 295.307H153.839C150.088 295.307 147.051 298.34 147.051 302.085V328.773C147.051 331.497 149.259 333.702 151.987 333.702H151.982Z" fill="#FFF742"/>
<path d="M151.956 334.122C159.677 334.933 167.294 336.505 175.078 336.955C180.932 337.374 186.87 337.165 192.714 336.479C194.639 336.274 196.564 336.06 198.489 335.829L198.169 335.855C201.468 335.981 204.621 333.498 205.313 330.256C205.466 329.606 205.497 328.894 205.513 328.234C205.754 320.193 206.037 311.372 206.21 303.379L206.237 302.342V302.08C206.368 297.549 203.074 293.275 198.652 292.227C197.76 291.976 196.742 291.913 195.819 291.892C193.212 291.86 178.031 291.242 175.078 291.143C168.164 290.902 161.251 290.881 154.337 291.101C148.803 290.939 143.762 295.323 143.484 300.896C143.432 301.65 143.521 302.62 143.594 303.379C144.433 312.027 145.75 320.665 146.338 329.344C146.715 332.026 149.244 334.247 151.956 334.127V334.122ZM152.013 333.283C149.627 333.263 147.591 331.115 147.822 328.747C148.016 325.809 148.284 322.881 148.614 319.942C149.265 314.075 150.083 308.209 150.597 302.337C150.634 301.823 150.838 301.289 151.111 300.87C151.73 299.953 152.748 299.424 153.828 299.508L154.332 299.524C161.246 299.744 168.159 299.723 175.073 299.482C178.703 299.356 193.212 298.759 196.585 298.722C198.468 298.722 200.031 300.477 199.968 302.342L199.994 303.379C200.199 311.64 200.451 320.738 200.713 329.035C200.655 330.518 199.323 331.618 197.849 331.586C190.295 332.943 182.794 334.74 175.083 335.096C167.341 335.625 159.651 334.483 152.008 333.294L152.013 333.283Z" fill="#E0349E"/>
<path d="M202.958 293.201C202.958 293.201 218.197 306.883 233.472 311.44C233.472 311.44 233.115 320.675 224.481 333.1C215.847 345.525 211.351 346.284 211.351 346.284C211.351 346.284 199.659 340.407 191.544 332.817C184.378 326.118 173.41 312.294 176.83 310.974C191.885 305.165 202.963 293.196 202.963 293.196L202.958 293.201Z" fill="#E0349E" stroke="#300375" stroke-width="3.05463" stroke-miterlimit="10" stroke-linecap="round"/>
<path d="M146.83 289.928C146.83 289.928 131.592 303.61 116.317 308.167C116.317 308.167 116.674 317.402 125.308 329.826C133.79 342.031 138.438 343.011 138.438 343.011C138.438 343.011 150.13 337.134 158.245 329.544C165.41 322.844 176.379 309.021 172.959 307.701C157.904 301.892 146.825 289.923 146.825 289.923L146.83 289.928Z" fill="#E0349E" stroke="#300375" stroke-width="3.05463" stroke-miterlimit="10" stroke-linecap="round"/>
<path d="M96.232 323.75C96.3211 323.504 105.039 300.587 127.375 292.29C131.309 290.828 135.7 289.592 140.421 288.602C149.516 286.696 155.748 278.299 154.993 269.048C154.09 258.027 143.741 250.186 132.904 252.454C126.331 253.826 120.125 255.581 114.481 257.676C75.6956 272.081 61.4854 311.074 60.8979 312.724L95.7599 325.049L96.2267 323.745L96.232 323.75Z" fill="white" stroke="#300375" stroke-width="3.58918" stroke-miterlimit="10" stroke-linecap="round"/>
<path d="M154.993 269.054C154.09 258.033 143.741 250.192 132.904 252.46C126.331 253.832 120.125 255.587 114.481 257.682C75.6955 272.087 61.4853 311.08 60.8978 312.73" stroke="#E0349E" stroke-width="3.58918" stroke-miterlimit="10" stroke-linecap="square"/>
<path d="M232.569 314.468L268.963 307.91C268.617 306.003 266.461 295.925 257.806 284.527C250.215 274.533 235.648 261.123 209.368 253.999C206.85 253.318 204.264 252.7 201.61 252.155C190.699 249.908 180.329 257.87 179.542 268.965C178.886 278.21 185.207 286.465 194.292 288.356C196.144 288.744 197.938 289.168 199.674 289.639C212.521 293.123 222.43 299.073 228.336 306.847C231.441 310.937 232.559 314.437 232.564 314.463L232.569 314.468Z" fill="white" stroke="#300375" stroke-width="3.58918" stroke-miterlimit="10" stroke-linecap="round"/>
<path d="M268.963 307.91C268.617 306.003 266.461 295.925 257.806 284.527C250.215 274.533 235.648 261.123 209.368 253.999C206.85 253.318 204.264 252.7 201.61 252.155C190.699 249.908 180.329 257.87 179.542 268.965" stroke="#E0349E" stroke-width="3.58918" stroke-miterlimit="10" stroke-linecap="square"/>
<path d="M136.696 271.154C134.708 265.01 134.309 258.431 135.773 252.14C137.131 246.3 140.179 239.946 146.778 236.127C161.439 227.642 177.811 229.119 185.154 232.942C191.843 236.426 200.293 241.769 202.995 255.964C205.14 267.226 206.194 278.273 205.738 283.71C205.282 289.147 203.052 300.98 194.376 307.554C185.7 314.128 174.989 313.735 173.383 313.735C171.778 313.735 157.647 312.913 150.25 302.709C144.958 295.407 139.418 279.567 136.696 271.154Z" fill="white" stroke="#300375" stroke-width="3.05463" stroke-miterlimit="10" stroke-linecap="round"/>
<path d="M148.803 262.381C152.942 262.449 157.191 262.941 161.199 263.863C164.834 264.843 169.035 266.514 170.971 269.835C173.473 274.229 174.218 279.452 175.362 284.376C175.556 285.381 176.065 288.032 176.259 289.017C176.684 290.939 177.003 293.008 178.142 294.779C180.418 298.23 184.903 297.041 186.477 293.595C187.122 291.934 187.054 290.017 187.085 288.283C186.991 282.024 185.354 275.843 186.084 269.641C186.592 265.34 188.476 262.418 192.824 261.098C195.352 260.275 198.117 259.998 200.74 259.772C195.494 259.364 188.68 259.427 185.643 264.565C181.221 272.81 184.971 282.579 183.896 291.243C183.828 291.599 183.828 291.987 183.671 292.317C183.335 293.003 182.433 293.872 181.63 293.736C180.109 293.275 179.668 289.849 179.28 288.388C178.918 286.659 178.383 283.915 177.984 282.197C176.668 277.294 175.676 272.05 172.545 267.839C169.891 264.508 165.542 263.083 161.503 262.37C157.259 261.841 153.016 261.784 148.803 262.397V262.381Z" fill="#E0349E"/>
<mask id="mask2_1313_6592" style="mask-type:luminance" maskUnits="userSpaceOnUse" x="134" y="229" width="72" height="85">
<path d="M136.696 271.154C134.708 265.01 134.309 258.431 135.773 252.14C137.131 246.3 140.179 239.946 146.778 236.127C161.439 227.642 177.811 229.119 185.154 232.942C191.843 236.426 200.293 241.769 202.995 255.964C205.14 267.226 206.194 278.273 205.738 283.71C205.282 289.147 203.052 300.98 194.376 307.554C185.7 314.128 174.989 313.735 173.383 313.735C171.778 313.735 157.647 312.913 150.25 302.709C144.958 295.407 139.418 279.567 136.696 271.154Z" fill="white"/>
</mask>
<g mask="url(#mask2_1313_6592)">
<path d="M172.712 258.238C162.126 258.238 153.545 249.669 153.545 239.098C153.545 228.527 162.126 219.958 172.712 219.958C183.298 219.958 191.879 228.527 191.879 239.098C191.879 249.669 183.298 258.238 172.712 258.238Z" fill="#300375"/>
<path d="M131.682 278.891C120.299 278.891 111.072 270.322 111.072 259.751C111.072 249.181 120.299 240.611 131.682 240.611C143.064 240.611 152.292 249.181 152.292 259.751C152.292 270.322 143.064 278.891 131.682 278.891Z" fill="#300375"/>
</g>
<path d="M166.869 278.645C165.405 275.313 162.001 273.297 158.618 272.322C156.892 271.846 155.098 271.731 153.314 271.715C152.223 271.71 151.347 272.726 151.379 273.784C151.515 275.937 153.666 275.717 155.234 275.842C156.441 275.9 157.631 276.078 158.785 276.434C160.569 276.953 162.2 277.849 163.837 278.702C164.597 279.095 165.384 279.431 166.197 279.708C166.911 279.918 167.215 279.221 166.869 278.655V278.645Z" fill="#E0349E"/>
<path d="M199.339 271.05C197.219 268.132 192.997 273.365 191.696 275.12C190.558 276.979 189.692 279.253 190.133 281.453C190.82 282.752 191.78 280.814 192.262 280.274C193.338 278.792 194.397 277.288 195.798 276.094C196.732 275.115 197.901 274.444 198.992 273.669C199.748 273.051 199.884 271.851 199.339 271.05Z" fill="#E0349E"/>
<path d="M144.963 274.061C144.963 274.061 141.318 266.257 132.626 268.315C124.747 270.18 126.384 280.415 128.403 284.716C130.423 289.016 135.301 291.263 140.756 289.462C143.573 288.529 144.775 287.083 144.775 287.083" fill="white"/>
<path d="M144.963 274.061C144.963 274.061 141.318 266.257 132.626 268.315C124.747 270.18 126.384 280.415 128.403 284.716C130.423 289.016 135.301 291.263 140.756 289.462C143.573 288.529 144.775 287.083 144.775 287.083" stroke="#300375" stroke-width="3.05463" stroke-miterlimit="10" stroke-linecap="round"/>
<path d="M299.136 518.613C298.464 515.53 295.41 499.184 301.372 480.433C306.622 463.908 320.083 442.2 354.344 432.639C389.131 422.931 415.142 425.416 433.853 440.247C446.595 450.347 455.153 465.822 458.586 485.005L419.274 492.035C417.957 484.692 415.488 481.928 413.492 480.34C409.692 477.33 397.482 468.566 366.022 477.343C355.815 480.194 342.846 488.785 339.087 500.613C337.643 505.151 338.015 509.37 338.022 509.403L299.142 518.619L299.136 518.613Z" fill="white" stroke="#300375" stroke-width="3.9761" stroke-miterlimit="10" stroke-linecap="round"/>
<path d="M269.286 393.754C269.439 394.007 283.792 417.622 310.235 422.253C314.899 423.07 320.016 423.542 325.446 423.675C335.912 423.927 344.543 431.967 345.601 442.366C346.858 454.765 336.997 465.562 324.521 465.27C316.955 465.09 309.722 464.413 303.042 463.243C257.116 455.203 233.381 414.897 232.396 413.183L268.501 392.406L269.286 393.754Z" fill="white" stroke="#300375" stroke-width="3.18699" stroke-miterlimit="10" stroke-linecap="round"/>
<path d="M345.601 442.366C346.858 454.765 336.997 465.562 324.521 465.27C316.955 465.09 309.722 464.413 303.042 463.243C257.116 455.203 233.381 414.897 232.396 413.183" stroke="#E0349E" stroke-width="3.18699" stroke-miterlimit="10" stroke-linecap="square"/>
<path d="M257.022 332.373L290.438 379.171L214.095 433.528L180.68 386.73L257.022 332.373Z" fill="#FFF742" stroke="#300375" stroke-width="2.36224" stroke-miterlimit="10" stroke-linecap="round"/>
<path d="M391.201 350.06L433.361 329.515C434.439 331.721 439.802 343.648 439.502 361.794C439.243 377.701 434.405 402.326 412.873 429.297C410.81 431.881 408.621 434.446 406.319 436.998C396.844 447.469 380.255 447.091 371.119 436.327C363.507 427.356 363.773 414.174 371.651 405.443C373.255 403.662 374.772 401.881 376.196 400.094C386.723 386.911 392.392 373.402 392.598 361.03C392.705 354.519 391.214 350.1 391.201 350.073V350.06Z" fill="white" stroke="#300375" stroke-width="3.58918" stroke-miterlimit="10" stroke-linecap="round"/>
<path d="M433.361 329.515C434.439 331.721 439.802 343.648 439.502 361.794C439.243 377.701 434.405 402.326 412.873 429.297C410.81 431.881 408.621 434.446 406.319 436.998C396.844 447.469 380.255 447.091 371.119 436.327" stroke="#E0349E" stroke-width="3.58918" stroke-miterlimit="10" stroke-linecap="square"/>
<path d="M383.123 392.034C383.123 392.034 417.937 407.788 423.765 414.393C423.765 414.393 415.421 436.679 381.878 454.905C348.622 472.978 326.757 468.931 309.077 464.592L308.518 424.619C308.518 424.619 333.63 426.32 353.825 416.645C374.02 406.971 383.116 392.027 383.116 392.027L383.123 392.034Z" fill="#E0349E" stroke="#300375" stroke-width="3.05463" stroke-miterlimit="10" stroke-linecap="round"/>
<path d="M389.591 378.332C389.591 378.332 396.251 369.84 404.861 374.837C412.667 379.368 407.304 391.402 403.624 396.079C400.084 400.578 393.909 402.106 388.686 398.345C385.991 396.405 385.212 394.292 385.212 394.292" fill="white"/>
<path d="M389.591 378.332C389.591 378.332 396.251 369.84 404.861 374.837C412.667 379.368 407.304 391.402 403.624 396.079C400.084 400.578 393.909 402.106 388.686 398.345C385.991 396.405 385.212 394.292 385.212 394.292" stroke="#300375" stroke-width="2.86117" stroke-miterlimit="10" stroke-linecap="round"/>
<path d="M395.599 383.129C397.802 375.222 399.658 361.408 398.108 353.342C396.671 345.853 393.018 337.601 384.501 332.338C365.57 320.637 343.758 321.441 333.777 325.813C324.681 329.793 313.143 336.013 308.671 353.827C305.125 367.96 303.035 381.887 303.308 388.804C303.574 395.721 305.178 411.694 316.902 419.754C337.63 433.993 371.831 424.439 382.285 411.987C389.764 403.076 392.578 394.013 395.606 383.129H395.599Z" fill="white" stroke="#300375" stroke-width="3.1259" stroke-miterlimit="10" stroke-linecap="round"/>
<mask id="mask3_1313_6592" style="mask-type:luminance" maskUnits="userSpaceOnUse" x="303" y="322" width="96" height="107">
<path d="M395.699 377.375C398.72 369.721 399.658 361.408 398.108 353.342C396.671 345.853 393.018 337.601 384.5 332.338C365.57 320.637 343.758 321.441 333.777 325.813C324.681 329.793 313.143 336.013 308.671 353.827C305.125 367.96 303.035 381.887 303.308 388.804C303.574 395.721 305.797 410.864 316.902 419.754C328.008 428.645 342.247 428.844 344.377 428.95C346.506 429.057 365.31 428.93 375.764 416.485C383.243 407.575 391.58 387.873 395.712 377.382L395.699 377.375Z" fill="white"/>
</mask>
<g mask="url(#mask3_1313_6592)">
<path d="M386.603 341.554C380.628 355.348 364.033 361.867 349.54 356.106C335.048 350.345 328.141 334.491 334.116 320.69C340.092 306.896 356.687 300.378 371.179 306.139C385.672 311.899 392.578 327.753 386.603 341.554Z" fill="#300375"/>
<path d="M413.175 384.561C398.071 383.821 386.36 372.363 387.019 358.97C387.677 345.577 400.455 335.32 415.559 336.061C430.663 336.801 442.374 348.258 441.715 361.651C441.057 375.044 428.279 385.301 413.175 384.561Z" fill="#300375"/>
<path d="M306.504 362.299C296.043 361.786 287.932 353.85 288.388 344.574C288.844 335.297 297.694 328.192 308.155 328.705C318.616 329.217 326.726 337.153 326.27 346.43C325.814 355.707 316.965 362.812 306.504 362.299Z" fill="#300375"/>
</g>
</svg>
