<svg width="1920" height="478" viewBox="0 0 1920 478" fill="none" xmlns="http://www.w3.org/2000/svg">
<g clip-path="url(#clip0_1669_15976)">
<path d="M2261.06 93.8503C2261.06 93.8503 2346.08 217.593 2183.55 257.266C2183.55 257.266 2177.37 342.866 2133.63 379.104C2055.29 444.008 1977.11 367.364 1820.65 386.979C1820.65 386.979 2019.84 298.131 2057.83 264.392C2116.72 212.087 2147.53 128.373 2205.72 121.1C2205.72 121.1 2211.29 72.468 2261.06 93.8503Z" fill="#07000F"/>
<path d="M-227.79 234.721C-233.836 273.171 -216.575 287.922 -179.743 295.72C-97.1355 305.533 -29.9773 293.675 44.9292 266.545C200.143 210.33 265.239 164.334 484.337 217.104C600.982 245.199 682.533 250.587 791.282 203.883C942.608 138.893 1000.75 170.707 1066.18 206.511C1102.77 226.528 1141.63 247.793 1200.33 254.086C1237.94 258.118 1284.27 246.781 1332.3 235.027C1380.78 223.163 1431 210.875 1475.72 213.541C1555.96 218.323 1567.32 220.135 1621.9 254.086C1635.26 262.398 1656.33 257.138 1673.12 266.919C1753.08 305.195 1900.43 230.278 1918 174.667C1926.73 147.039 1954.41 204.232 2013.5 214.771C2143.18 237.897 2210.74 143.372 2197.7 12.2291C2194.42 -20.7311 2211.32 -62.6833 2203.31 -85.6202C2193.95 -112.432 2210.67 -136.358 2235.93 -160.732C2192.15 -246.591 2201.63 -310.926 2237.5 -389.855C2309.57 -548.458 2337.98 -683.909 2227.4 -809.948C2167.6 -886.704 2155.97 -998.771 2203.31 -1085.32C2246.31 -1163.94 2303.56 -1192.52 2228 -1318.65C2220.91 -1330.48 2216.48 -1341.18 2214.14 -1351.18C2154.48 -1348.53 2097.97 -1352.36 2075.82 -1380.04C2027.31 -1440.66 2051.04 -1500.27 2147.09 -1516.75C2186.94 -1523.59 2227.02 -1530.46 2252.61 -1546.18C2252.61 -1546.18 2262.96 -1525.87 2265.38 -1518.03C2265.03 -1493.2 2252.78 -1469.65 2240.35 -1445.73L2240.34 -1445.72C2238.92 -1443 2237.52 -1440.33 2236.15 -1437.72C2219.72 -1406.43 2206.93 -1382.08 2214.14 -1351.18C2317.37 -1355.77 2430.03 -1379.75 2390.48 -1333.18C2348.79 -1284.09 2375.87 -1157.29 2366.99 -1111.33C2283.11 -997.325 2384.21 -931.719 2449.23 -874.85C2606.97 -736.888 2381.46 -449.644 2351.33 -297.027C2340.26 -240.941 2276.88 -200.247 2235.93 -160.732C2243.89 -145.118 2253.61 -128.793 2265.26 -111.539C2346.44 8.74932 2314.4 71.001 2288.3 121.72L2287.88 122.531C2295.21 174.529 2271.44 234.513 2187.99 243.786C2187.44 244.162 2186.88 244.532 2186.33 244.895C2164.53 497.22 2018.34 403.694 1897.78 464.556C1858.35 482.739 1793.13 481.638 1735 455.676C1693.2 437.009 1667.4 426.074 1621.9 398.101C1566.78 364.215 1499.22 376.961 1418.47 398.101C1321.35 423.522 1229.94 467.012 1130.16 420.362C1039 377.739 970.383 332.076 883.924 377.393C822.582 409.544 780.238 431.099 716.838 440C626.033 452.748 552.121 444.498 482.739 421.886C465.603 416.302 448.898 410.155 432.269 404.037L432.236 404.025C352.528 374.697 274.612 422.048 159.777 459.038C37.148 494.972 0.430395 473.797 -216.7 381.338C-332.521 425.781 -478.836 415.489 -463.7 275.825C-544.041 254.944 -595.141 143.965 -528.252 -47.6282C-497.339 -136.186 -524.333 -226.625 -578.96 -301.769C-650.295 -397.146 -620.331 -473.658 -596.432 -499.991C-605.062 -420.535 -509.069 -385.003 -472.707 -344.167L-472.706 -344.166C-429.363 -295.489 -388.046 -249.087 -429.786 -144.976C-476.095 -29.4675 -450.679 174.569 -356.474 140.751C-290.314 117 -215.135 154.265 -227.79 234.721Z" fill="#1A003E"/>
<path d="M1656.09 425.765C1700.45 454.037 1709.89 461.082 1759.11 471.65C1724.75 458 1708.39 451.187 1682.41 426.136C1654.28 399.003 1635.89 387.959 1599.2 375.593C1562.51 363.227 1507.71 367.171 1493.9 374.107C1553.84 375.593 1600.63 390.424 1656.09 425.765Z" fill="#07000F"/>
</g>
<defs>
<clipPath id="clip0_1669_15976">
<rect width="1920" height="477.333" fill="white"/>
</clipPath>
</defs>
</svg>
