<svg width="1920" height="478" viewBox="0 0 1920 478" fill="none" xmlns="http://www.w3.org/2000/svg">
<g clip-path="url(#clip0_1669_15976)">
<path d="M-200.838 232.843C-200.838 232.843 -216.805 300.35 -135.362 332.395C-135.362 332.395 -152.379 382.603 -110.283 411.259C-66.1507 441.301 -2.37603 438.841 81.3546 405.562C81.3546 405.562 29.0266 414.622 2.81923 389.989C-37.8095 351.802 -58.038 299.08 -99.0646 292.771C-99.0646 292.771 -165.195 218.707 -200.838 232.843Z" fill="#8A2262"/>
<path d="M2147.92 207.758C2147.92 207.758 2208.11 295.352 2093.06 323.436C2093.06 323.436 2088.68 384.03 2057.72 409.682C2002.27 455.626 1946.92 401.372 1836.17 415.257C1836.17 415.257 1977.17 352.363 2004.06 328.48C2045.75 291.454 2067.56 232.196 2108.75 227.047C2108.75 227.047 2112.69 192.622 2147.92 207.758Z" fill="#8A2262"/>
<path fill-rule="evenodd" clip-rule="evenodd" d="M112.151 324.773C81.6003 318.304 67.2836 306.07 72.2989 274.178C82.795 207.445 20.4394 176.536 -34.4358 196.236C-112.573 224.286 -133.654 55.0516 -95.2435 -40.7548C-60.6228 -127.109 -94.8935 -165.596 -130.844 -205.97C-161.003 -239.841 -240.622 -269.312 -233.465 -335.216C-228.248 -383.247 -325.682 -454.365 -316.961 -493.753C-301.68 -562.764 -324.51 -587.04 -336.444 -664.77C-340.061 -688.329 -274.923 -738.319 -280.159 -755.691C-297.689 -813.858 -292.779 -888.772 -191.548 -986.642C-161.646 -1026.99 -77.8685 -997.787 -98.3757 -1023.39C-101.365 -1027.12 -104.344 -1030.84 -107.152 -1034.59C-127.453 -1061.68 -138.402 -1092.05 -91.2064 -1100.53L-115.192 -1141.82C-213.237 -1103.06 -258.053 -1077.67 -215.559 -993.808C-188.824 -953.848 -190.268 -928.851 -208.603 -906.355C-213.952 -899.792 -219.255 -893.554 -224.376 -887.533C-244.526 -863.839 -261.831 -843.489 -267.799 -819.834C-281.987 -763.597 -257.287 -718.952 -233.464 -675.896C-227.513 -665.139 -221.617 -654.482 -216.395 -643.767C-186.833 -583.111 -201.867 -510.338 -227.193 -458.92C-292.106 -327.132 -254.712 -219.966 -218.973 -170.804C-173.663 -108.477 -151.274 -33.4639 -176.914 39.9886C-232.394 198.902 -190.01 290.951 -123.373 308.27C-135.927 424.112 -14.5685 432.649 81.4967 395.787C261.592 472.475 292.046 351.036 393.759 321.232C489.006 290.551 553.633 314.33 619.745 338.655L619.773 338.665C633.565 343.74 647.421 348.838 661.634 353.47C719.182 372.225 780.487 379.068 855.803 368.494C908.389 361.112 943.51 343.234 994.389 316.566C1066.1 278.979 1123.02 316.853 1198.63 352.206C1281.38 390.899 1357.2 354.827 1437.76 333.742C1504.74 316.208 1560.77 320.929 1606.49 349.034C1644.23 372.236 1665.63 381.307 1700.3 396.79C1748.51 418.323 1802.61 419.236 1835.31 404.155C1935.31 353.674 2056.56 491.902 2074.64 282.617C2075.1 282.315 2075.56 282.009 2076.02 281.696C2145.24 274.005 2203.66 185.174 2197.59 142.046C2219.3 99.8548 2159.87 75.5386 2092.17 -24.765C2029.4 -117.773 2081.93 -166.494 2117.09 -243.865C2176.86 -375.416 2200.42 -487.762 2108.71 -592.304C2059.11 -655.967 2049.46 -748.919 2088.73 -820.706C2124.4 -885.911 2171.88 -909.618 2109.21 -1014.24C2085.17 -1054.36 2097.93 -1078.65 2115.97 -1112.99C2117.11 -1115.16 2118.27 -1117.38 2119.44 -1119.64C2129.76 -1139.47 2139.92 -1159.01 2140.21 -1179.61C2138.21 -1186.11 2129.62 -1202.96 2129.62 -1202.96C2108.39 -1189.92 2075.15 -1184.22 2042.1 -1178.55C1962.43 -1164.88 1942.75 -1115.44 1982.98 -1065.16C2033.14 -1002.48 2295.74 -1087.24 2243.98 -1026.29C2209.4 -985.571 2231.86 -880.397 2224.49 -842.283C2154.91 -747.719 2238.77 -693.304 2292.7 -646.135C2423.54 -531.705 2236.5 -293.456 2211.51 -166.871C2196.66 -91.6561 2138.52 -66.1451 2158.87 -7.85334C2165.51 11.1712 2156.15 5.55032 2158.87 32.8885C2169.69 141.662 2038.86 276.812 1931.3 257.63C1882.28 248.89 1853.24 275.638 1846 298.554C1831.43 344.679 1728.88 355.164 1662.56 323.417C1648.63 315.304 1636.53 307.778 1625.45 300.884C1580.18 272.724 1551.8 260.577 1485.25 256.61C1448.15 254.399 1406.5 264.591 1366.29 274.432C1326.45 284.18 1288.02 293.584 1256.83 290.24C1208.14 285.02 1175.9 267.383 1145.56 250.779C1091.29 221.082 1043.06 194.695 917.549 248.6C827.349 287.338 759.708 282.868 662.959 259.566C481.232 215.797 427.239 253.947 298.5 300.574C236.371 323.076 180.668 332.911 112.151 324.773Z" fill="#8A2262"/>
<path d="M73.7076 309.588C87.3489 362.547 9.74427 378.28 -16.8289 350.798C-43.4047 323.327 -18.9935 298.368 -18.9935 298.368C-36.7722 320.217 0.726816 361.42 40.5522 332.404C80.375 303.399 57.2263 244.281 8.32612 235.749C-49.4882 224.016 -96.4492 269.568 -98.1157 270.611C-35.0767 194.096 37.0001 227.425 37.0001 227.425C132.83 264.842 73.7076 309.588 73.7076 309.588Z" fill="#8A2262"/>
<path d="M1634.85 366.281C1671.64 389.731 1679.47 395.574 1720.3 404.34C1691.8 393.018 1678.23 387.367 1656.68 366.589C1633.34 344.084 1618.09 334.924 1587.66 324.667C1557.23 314.411 1511.78 317.682 1500.32 323.435C1550.04 324.667 1588.85 336.969 1634.85 366.281Z" fill="#8A2262"/>
</g>
<defs>
<clipPath id="clip0_1669_15976">
<rect width="1920" height="477.333" fill="white"/>
</clipPath>
</defs>
</svg>
