<svg width="1920" height="478" viewBox="0 0 1920 478" fill="none" xmlns="http://www.w3.org/2000/svg">
<g clip-path="url(#clip0_1669_15976)">
<path d="M-253.618 232.476C-253.618 232.476 -273.55 316.749 -171.879 356.752C-171.879 356.752 -193.123 419.429 -140.572 455.202C-85.4793 492.705 -5.86564 489.634 98.6601 448.09C98.6601 448.09 33.3361 459.4 0.619904 428.65C-50.0993 380.979 -75.3517 315.162 -126.568 307.287C-126.568 307.287 -209.122 214.829 -253.618 232.476Z" fill="#6027AE"/>
<path d="M178.821 293.781C172.774 332.231 190.034 346.982 226.868 354.78C309.474 364.592 376.632 352.735 451.539 325.605C606.752 269.39 671.849 223.394 890.947 276.164C1007.59 304.259 1089.14 309.647 1197.89 262.943C1349.22 197.953 1407.36 229.766 1472.79 265.571C1509.38 285.588 1548.24 306.853 1606.94 313.146C1644.55 317.178 1690.88 305.84 1738.91 294.087C1787.39 282.223 1837.61 269.935 1882.33 272.6C1962.57 277.383 1973.93 279.195 2028.51 313.146C2041.87 321.458 2062.94 316.198 2079.73 325.979C2159.69 364.255 2273.56 311.492 2291.13 255.881C2299.86 228.253 2361.02 263.292 2420.11 273.831C2549.79 296.957 2617.35 202.432 2604.31 71.2889C2601.03 38.3288 2617.93 -3.62349 2609.92 -26.5603C2600.56 -53.3725 2617.28 -77.2977 2642.54 -101.672C2598.76 -187.531 2608.24 -251.867 2644.11 -330.795C2716.18 -489.398 2744.59 -624.849 2634.01 -750.888C2574.21 -827.644 2562.58 -939.711 2609.92 -1026.26C2652.92 -1104.88 2710.17 -1133.46 2634.61 -1259.59C2627.52 -1271.42 2623.09 -1282.12 2620.75 -1292.12C2561.09 -1289.47 2504.58 -1293.3 2482.43 -1320.98C2433.92 -1381.6 2457.65 -1441.21 2553.7 -1457.69C2593.55 -1464.53 2633.63 -1471.4 2659.22 -1487.12C2659.22 -1487.12 2669.57 -1466.81 2671.99 -1458.97C2671.64 -1434.14 2659.39 -1410.59 2646.96 -1386.67L2646.95 -1386.66C2645.53 -1383.94 2644.13 -1381.27 2642.76 -1378.66C2626.33 -1347.37 2613.54 -1323.02 2620.75 -1292.12C2723.98 -1296.71 2836.64 -1320.69 2797.09 -1274.12C2755.4 -1225.03 2782.48 -1098.23 2773.61 -1052.27C2689.72 -938.265 2790.82 -872.659 2855.84 -815.79C3013.58 -677.828 2788.07 -390.584 2757.95 -237.967C2746.87 -181.881 2683.49 -141.187 2642.54 -101.672C2650.5 -86.0585 2660.22 -69.7334 2671.87 -52.4794C2753.05 67.8092 2721.01 130.061 2694.91 180.78L2694.49 181.591C2701.82 233.589 2678.05 293.573 2594.6 302.846C2594.05 303.222 2593.49 303.592 2592.94 303.955C2571.14 556.279 2424.95 389.625 2304.39 450.487C2264.96 468.67 2199.74 467.569 2141.61 441.607C2099.81 422.94 2074.01 412.005 2028.51 384.031C1973.39 350.146 1905.83 344.454 1825.08 365.594C1727.96 391.015 1636.55 434.505 1536.77 387.855C1445.61 345.233 1376.99 299.569 1290.53 344.886C1229.19 377.038 1186.85 398.592 1123.45 407.493C1032.64 420.241 958.732 411.991 889.35 389.379C872.215 383.795 855.511 377.649 838.884 371.532L838.88 371.53L838.846 371.518C759.139 342.19 681.222 313.521 566.387 350.511C443.758 386.445 407.04 532.857 189.91 440.398C74.0891 484.84 -72.2259 474.549 -57.0903 334.885C-137.431 314.003 -188.531 203.025 -121.642 11.4317C-90.7293 -77.1259 -117.723 -167.565 -172.35 -242.709C-243.685 -338.086 -213.721 -414.598 -189.822 -440.932C-198.452 -361.475 -102.459 -325.943 -66.0974 -285.107L-66.0959 -285.106C-22.7532 -236.429 18.5635 -190.028 -23.1762 -85.9162C-69.4853 29.5924 -44.0693 233.629 50.136 199.811C116.296 176.06 191.475 213.325 178.821 293.781Z" fill="#6027AE"/>
<path d="M89.1138 328.28C106.143 394.392 9.26475 414.031 -23.9081 379.725C-57.0843 345.43 -26.6103 314.273 -26.6103 314.273C-48.8045 341.549 -1.99227 392.985 47.7241 356.762C97.4372 320.553 68.5392 246.753 7.49438 236.102C-64.6786 221.455 -123.303 278.32 -125.383 279.622C-46.6879 184.104 43.2897 225.71 43.2897 225.71C162.92 272.421 89.1138 328.28 89.1138 328.28Z" fill="#6027AE"/>
<path d="M2062.7 404.825C2107.06 433.097 2116.5 440.142 2165.72 450.71C2131.36 437.06 2115 430.247 2089.02 405.196C2060.89 378.063 2042.49 367.019 2005.81 354.653C1969.12 342.287 1914.32 346.231 1900.51 353.167C1960.45 354.653 2007.24 369.484 2062.7 404.825Z" fill="#6027AE"/>
</g>
<defs>
<clipPath id="clip0_1669_15976">
<rect width="1920" height="477.333" fill="white"/>
</clipPath>
</defs>
</svg>
