<svg width="1920" height="478" viewBox="0 0 1920 478" fill="none" xmlns="http://www.w3.org/2000/svg">
<g clip-path="url(#clip0_1669_15976)">
<path d="M2261.51 113.184C2261.51 113.184 2346.54 236.926 2184.01 276.599C2184.01 276.599 2177.82 362.2 2134.08 398.437C2055.75 463.341 1977.56 386.698 1821.1 406.313C1821.1 406.313 2020.29 317.465 2058.28 283.726C2117.17 231.42 2147.98 147.707 2206.17 140.433C2206.17 140.433 2211.74 91.8016 2261.51 113.184Z" fill="#07000F"/>
<path d="M-227.336 254.055C-233.383 292.505 -216.122 307.256 -179.289 315.054C-96.6823 324.866 -29.5242 313.009 45.3824 285.879C200.596 229.663 265.692 183.668 484.79 236.438C601.436 264.532 682.986 269.921 791.735 223.216C943.061 158.227 1001.2 190.04 1066.64 225.844C1103.22 245.862 1142.08 267.127 1200.79 273.42C1238.39 277.451 1284.72 266.114 1332.75 254.361C1381.24 242.497 1431.45 230.209 1476.18 232.874C1556.42 237.657 1567.77 239.468 1622.35 273.42C1635.71 281.731 1656.79 276.471 1673.58 286.253C1753.53 324.529 1900.88 249.612 1918.45 194.001C1927.18 166.373 1954.86 223.566 2013.95 234.104C2143.63 257.231 2211.2 162.705 2198.15 31.5627C2194.87 -1.39742 2211.77 -43.3497 2203.76 -66.2866C2194.4 -93.0987 2211.12 -117.024 2236.38 -141.398C2192.6 -227.257 2202.08 -291.593 2237.95 -370.522C2310.02 -529.125 2338.43 -664.575 2227.86 -790.614C2168.05 -867.37 2156.42 -979.437 2203.76 -1065.99C2246.76 -1144.6 2304.02 -1173.18 2228.46 -1299.32C2221.37 -1311.15 2216.93 -1321.84 2214.6 -1331.85C2154.93 -1329.2 2098.42 -1333.03 2076.27 -1360.71C2027.76 -1421.33 2051.5 -1480.94 2147.54 -1497.42C2187.4 -1504.25 2227.47 -1511.13 2253.07 -1526.85C2253.07 -1526.85 2263.41 -1506.54 2265.83 -1498.69C2265.48 -1473.86 2253.24 -1450.31 2240.8 -1426.4L2240.79 -1426.39C2239.38 -1423.67 2237.98 -1421 2236.6 -1418.38C2220.17 -1387.1 2207.38 -1362.74 2214.6 -1331.85C2317.82 -1336.43 2430.49 -1360.42 2390.94 -1313.85C2349.24 -1264.76 2376.32 -1137.95 2367.45 -1092C2283.56 -977.991 2384.66 -912.385 2449.68 -855.516C2607.42 -717.554 2381.92 -430.311 2351.79 -277.693C2340.72 -221.607 2277.33 -180.913 2236.38 -141.398C2244.34 -125.785 2254.07 -109.46 2265.71 -92.2056C2346.9 28.083 2314.85 90.3346 2288.75 141.054L2288.33 141.865C2295.66 193.862 2271.9 253.846 2188.44 263.119C2187.89 263.496 2203.76 213.5 2186.78 264.229C2164.98 516.553 2064.94 340.606 1944.38 401.468C1904.95 419.651 1810.01 450.606 1751.88 424.645C1710.08 405.978 1667.85 445.407 1622.35 417.434C1567.23 383.549 1499.67 396.295 1418.92 417.434C1321.8 442.855 1230.39 486.345 1130.62 439.695C1039.46 397.073 970.836 351.41 884.377 396.727C823.035 428.878 780.691 450.433 717.291 459.334C626.487 472.082 552.574 463.831 483.193 441.22C466.057 435.635 449.351 429.489 432.722 423.371L432.689 423.359C352.982 394.031 215.835 386.381 101 423.371C-21.6295 459.304 -54.4999 441.22 -216.247 400.672C-332.068 445.114 -478.383 434.822 -463.247 295.158C-543.588 274.277 -594.687 163.299 -527.798 -28.2946C-496.886 -116.852 -523.879 -207.291 -578.507 -282.435C-649.842 -377.813 -619.878 -454.324 -595.979 -480.658C-604.608 -401.202 -508.616 -365.67 -472.254 -324.834L-472.253 -324.832C-428.91 -276.155 -387.593 -229.754 -429.333 -125.642C-475.642 -10.1338 -450.226 193.903 -356.021 160.084C-289.861 136.334 -214.682 173.598 -227.336 254.055Z" fill="#1A003E"/>
</g>
<defs>
<clipPath id="clip0_1669_15976">
<rect width="1920" height="477.333" fill="white"/>
</clipPath>
</defs>
</svg>
