<svg width="1920" height="478" viewBox="0 0 1920 478" fill="none" xmlns="http://www.w3.org/2000/svg">
<g clip-path="url(#clip0_1669_15976)">
<path d="M2379.73 120.517C2379.73 120.517 2464.75 244.259 2302.22 283.932C2302.22 283.932 2296.03 369.533 2252.3 405.77C2173.96 470.674 2095.78 394.031 1939.32 413.646C1939.32 413.646 2138.5 324.798 2176.49 291.059C2235.39 238.753 2266.2 155.04 2324.38 147.766C2324.38 147.766 2329.96 99.1346 2379.73 120.517Z" fill="#27005C"/>
<path d="M-109.122 261.388C-115.169 299.838 -97.9082 314.589 -61.0754 322.387C21.5317 332.199 88.6898 320.342 163.596 293.212C318.81 236.996 383.906 191.001 603.004 243.771C719.649 271.865 801.2 277.254 909.949 230.549C1061.28 165.56 1119.42 197.373 1184.85 233.177C1221.44 253.195 1260.3 274.46 1319 280.753C1356.61 284.784 1402.94 273.447 1450.97 261.694C1499.45 249.83 1549.67 237.542 1594.39 240.207C1674.63 244.99 1681.65 274.545 1740.57 280.753C1778.02 284.699 1799.6 285.155 1837 280.753C1905.17 272.73 1985.61 279.098 2003.19 223.488C2011.92 195.86 2073.07 230.899 2132.17 241.437C2261.85 264.564 2329.41 170.038 2316.36 38.8958C2313.08 5.93566 2329.99 -36.0168 2321.98 -58.9537C2312.62 -85.7658 2329.34 -109.691 2354.6 -134.065C2310.82 -219.924 2320.3 -284.26 2356.16 -363.189C2428.24 -521.792 2456.64 -657.242 2346.07 -783.282C2286.26 -860.038 2274.64 -972.104 2321.98 -1058.65C2364.98 -1137.27 2422.23 -1165.85 2346.67 -1291.98C2339.58 -1303.82 2335.15 -1314.51 2332.81 -1324.51C2273.15 -1321.87 2216.64 -1325.7 2194.49 -1353.37C2145.97 -1414 2169.71 -1473.61 2265.76 -1490.09L2265.76 -1490.09C2305.61 -1496.92 2345.69 -1503.8 2371.28 -1519.52C2371.28 -1519.52 2381.63 -1499.2 2384.05 -1491.36C2383.7 -1466.53 2371.45 -1442.98 2359.01 -1419.07L2359.01 -1419.06C2357.59 -1416.33 2356.19 -1413.67 2354.82 -1411.05C2338.39 -1379.77 2325.59 -1355.41 2332.81 -1324.51C2436.04 -1329.1 2548.7 -1353.08 2509.15 -1306.51C2467.46 -1257.42 2494.54 -1130.62 2485.66 -1084.67C2401.77 -970.658 2502.88 -905.052 2567.9 -848.184C2725.63 -710.222 2500.13 -422.978 2470 -270.36C2458.93 -214.274 2395.54 -173.58 2354.6 -134.065C2362.56 -118.452 2372.28 -102.127 2383.92 -84.8727C2465.11 35.4159 2433.07 97.6678 2406.96 148.387L2406.54 149.198C2413.87 201.195 2390.11 261.179 2306.66 270.452C2306.1 270.829 2305.55 271.198 2305 271.562C2283.19 523.886 2137.01 357.232 2016.45 418.094C1977.01 436.277 2003.19 452.498 1906 447.15C1860.29 444.635 1831.5 470.612 1729 447.15C1665.93 432.714 1626.95 407.573 1546.19 428.712C1449.07 454.134 1357.66 497.624 1257.89 450.974C1166.73 408.351 1098.11 362.688 1011.65 408.005C950.306 440.156 907.962 461.711 844.562 470.612C753.757 483.36 679.845 475.11 610.463 452.498C593.328 446.914 576.624 440.768 559.996 434.65L559.993 434.649L559.96 434.637C480.252 405.309 402.335 376.64 287.5 413.63C164.871 449.564 119.097 500.464 -98.0334 408.005C-213.854 452.447 -360.169 442.155 -345.033 302.491C-425.374 281.61 -476.474 170.632 -409.585 -20.9614C-378.672 -109.519 -405.666 -199.958 -460.293 -275.103C-531.629 -370.48 -501.664 -446.991 -477.765 -473.325C-486.394 -393.869 -390.402 -358.337 -354.04 -317.501L-354.039 -317.499C-310.696 -268.823 -269.379 -222.421 -311.119 -118.309C-357.428 -2.80091 -332.012 201.236 -237.807 167.418C-171.647 143.667 -96.4676 180.931 -109.122 261.388Z" fill="#27005C"/>
<path d="M1774.75 372.431C1819.12 400.704 1828.56 407.749 1877.78 418.317C1843.41 404.667 1827.05 397.854 1801.08 372.803C1772.94 345.67 1754.55 334.626 1717.86 322.26C1681.18 309.894 1626.38 313.838 1612.57 320.774C1672.51 322.26 1719.3 337.091 1774.75 372.431Z" fill="#27005C"/>
</g>
<defs>
<clipPath id="clip0_1669_15976">
<rect width="1920" height="477.333" fill="white"/>
</clipPath>
</defs>
</svg>
