<svg width="1920" height="478" viewBox="0 0 1920 478" fill="none" xmlns="http://www.w3.org/2000/svg">
<g clip-path="url(#clip0_1669_15976)">
<path d="M-155.506 263.503C-155.506 263.503 -171.308 330.314 -90.7049 362.028C-90.7049 362.028 -107.546 411.718 -65.8849 440.078C-22.2081 469.81 40.9087 467.376 123.775 434.44C123.775 434.44 71.9873 443.406 46.0503 419.028C5.84078 381.235 -14.179 329.057 -54.7824 322.813C-54.7824 322.813 -120.23 249.513 -155.506 263.503Z" fill="#FFF742"/>
<path d="M2169.02 238.676C2169.02 238.676 2228.59 325.366 2114.72 353.161C2114.72 353.161 2110.39 413.13 2079.75 438.517C2024.87 483.987 1962.11 421.774 1852.49 435.515C1852.49 435.515 2000.03 381.79 2026.64 358.153C2067.9 321.509 2089.49 262.862 2130.25 257.766C2130.25 257.766 2134.16 223.696 2169.02 238.676Z" fill="#FFF742"/>
<path fill-rule="evenodd" clip-rule="evenodd" d="M154.255 354.484C124.02 348.083 109.851 335.974 114.815 304.412C125.203 238.367 63.4903 207.778 9.1813 227.274C-68.1494 255.035 -89.0129 87.5462 -50.9989 -7.27178C-16.7355 -92.7351 -50.6525 -130.825 -86.2318 -170.783C-116.08 -204.304 -194.878 -233.471 -187.794 -298.695C-182.632 -346.23 -279.06 -416.614 -270.429 -455.596C-255.306 -523.896 -277.9 -547.92 -289.711 -624.849C-293.29 -648.165 -228.825 -697.639 -234.007 -714.832C-251.356 -772.398 -246.497 -846.54 -146.309 -943.4C-116.716 -983.328 -33.8033 -954.43 -54.0989 -979.771C-57.0572 -983.465 -60.0052 -987.145 -62.7851 -990.854C-82.8767 -1017.66 -93.7118 -1047.72 -47.0036 -1056.12L-70.7422 -1096.98C-167.775 -1058.61 -212.129 -1033.49 -170.073 -950.492C-143.614 -910.944 -145.043 -886.206 -163.189 -863.941C-168.482 -857.446 -173.731 -851.273 -178.799 -845.313C-198.741 -821.864 -215.867 -801.724 -221.774 -778.313C-235.816 -722.656 -211.371 -678.472 -187.794 -635.86C-181.904 -625.214 -176.069 -614.667 -170.901 -604.063C-141.644 -544.033 -156.522 -472.01 -181.587 -421.123C-245.83 -290.694 -208.822 -184.634 -173.452 -135.979C-128.61 -74.2949 -106.451 -0.0560845 -131.827 72.6385C-186.734 229.912 -144.788 321.012 -78.838 338.153C-91.2624 452.799 28.8436 461.247 123.918 424.766C302.155 500.663 332.295 380.477 432.958 350.98C527.223 320.616 591.183 344.15 656.613 368.224L656.64 368.234C670.29 373.256 684.003 378.302 698.07 382.886C755.023 401.447 815.696 408.22 890.235 397.755C942.279 390.449 977.038 372.755 1027.39 346.363C1098.36 309.163 1154.69 346.647 1229.52 381.634C1311.43 419.928 1386.46 384.228 1466.18 363.361C1532.47 346.008 1587.93 350.68 1633.18 378.496C1670.53 401.458 1691.7 410.435 1726.02 425.758C1773.73 447.069 1827.27 447.974 1859.64 433.048C1958.6 383.088 2078.6 519.89 2096.5 312.763C2096.96 312.465 2097.41 312.162 2097.86 311.853C2166.37 304.241 2185.88 255.001 2179.86 212.318C2201.35 170.562 2228.29 119.444 2161.29 20.1756C2099.17 -71.873 2103.71 -131.714 2138.5 -208.287C2197.67 -338.48 2220.98 -449.667 2130.22 -553.13C2081.12 -616.137 2071.58 -708.129 2110.44 -779.176C2145.74 -843.708 2192.74 -867.171 2130.71 -970.71C2106.92 -1010.42 2119.54 -1034.45 2137.4 -1068.45C2138.53 -1070.6 2139.68 -1072.79 2140.84 -1075.02C2151.05 -1094.65 2161.11 -1113.99 2161.39 -1134.37C2159.41 -1140.81 2150.91 -1157.49 2150.91 -1157.49C2129.9 -1144.58 2097.01 -1138.94 2064.29 -1133.33C1985.45 -1119.8 1965.96 -1070.87 2005.79 -1021.1C2055.43 -959.073 2315.32 -1042.96 2264.09 -982.638C2229.86 -942.341 2252.09 -838.251 2244.81 -800.53C2175.94 -706.942 2258.94 -653.088 2312.31 -606.406C2441.79 -493.157 2256.68 -257.366 2231.95 -132.086C2217.26 -57.6479 2090.3 -16.2385 2110.44 41.4518C2117.02 60.2801 2103.14 94.7177 2105.83 121.774C2116.54 229.425 2061.08 307.019 1954.63 288.035C1906.12 279.384 1877.38 305.857 1870.22 328.536C1855.79 374.185 1754.3 384.562 1688.67 353.143C1674.89 345.113 1662.91 337.665 1651.94 330.843C1607.14 302.972 1579.05 290.951 1513.19 287.025C1476.47 284.837 1435.25 294.924 1395.45 304.663C1356.02 314.311 1317.99 323.617 1287.12 320.308C1238.94 315.142 1207.03 297.686 1177 281.255C1123.29 251.864 1075.56 225.749 951.344 279.097C862.075 317.436 795.132 313.012 699.381 289.951C519.529 246.633 466.093 284.389 338.683 330.535C277.194 352.805 222.065 362.539 154.255 354.484Z" fill="#E0349E"/>
<path d="M116.208 339.456C129.708 391.868 52.9043 407.438 26.6052 380.241C0.303596 353.053 24.463 328.351 24.463 328.351C6.8677 349.975 43.9798 390.753 83.3944 362.036C122.806 333.33 99.8964 274.822 51.5007 266.379C-5.71707 254.767 -52.1936 299.848 -53.8429 300.881C8.54571 225.155 79.8789 258.14 79.8789 258.14C174.72 295.172 116.208 339.456 116.208 339.456Z" fill="#FFF742"/>
<path d="M1661.24 395.564C1697.65 418.772 1705.41 424.555 1745.81 433.23C1717.6 422.025 1704.17 416.432 1682.85 395.869C1659.75 373.596 1644.65 364.53 1614.54 354.379C1584.42 344.228 1539.44 347.466 1528.1 353.16C1577.31 354.379 1615.72 366.554 1661.24 395.564Z" fill="#FFF742"/>
</g>
<defs>
<clipPath id="clip0_1669_15976">
<rect width="1920" height="477.333" fill="white"/>
</clipPath>
</defs>
</svg>
