<svg width="61" height="26" fill="none" xmlns="http://www.w3.org/2000/svg"><path d="M59.854 5.695s-.354-2.465-1.43-3.548A5.136 5.136 0 0054.83.635c-5.019-.36-12.55-.36-12.55-.36h-.013s-7.531 0-12.557.36a5.166 5.166 0 00-3.595 1.512c-1.076 1.083-1.423 3.548-1.423 3.548a54.66 54.66 0 00-.36 5.78v2.71a52.68 52.68 0 00.36 5.782s.347 2.465 1.423 3.548c1.362 1.423 3.16 1.375 3.956 1.525 2.874.272 12.203.36 12.203.36s7.537-.013 12.563-.374a5.166 5.166 0 003.595-1.511c1.076-1.083 1.43-3.548 1.43-3.548.225-1.92.34-3.847.36-5.781v-2.71a56.539 56.539 0 00-.367-5.781zM22.472 20.607h-2.281v-1.321c-.865.994-1.6 1.491-2.397 1.491a1.43 1.43 0 01-1.43-.933 4.837 4.837 0 01-.252-1.763V8.466h2.281v9.853c.055.34.198.463.484.463.436 0 .83-.381 1.314-1.062V8.466h2.281v12.141zm-8.05-8.171a4.846 4.846 0 00-.722-2.887 3.036 3.036 0 00-2.526-1.172A2.89 2.89 0 008.647 9.55a4.867 4.867 0 00-.721 2.894v4.317a4.53 4.53 0 00.687 2.791 3.173 3.173 0 002.554 1.267 3.212 3.212 0 002.574-1.267c.517-.83.755-1.81.674-2.791l.007-4.324zm-2.282 4.569c.123 1.198-.251 1.797-.96 1.797-.708 0-1.082-.599-.96-1.797v-4.807c-.122-1.199.252-1.764.96-1.764.709 0 1.083.565.96 1.764v4.807zm-6.733-3.01v6.612H3.003v-6.612S.51 5.892 0 4.38h2.526l1.689 6.333L5.89 4.38h2.526l-3.01 9.615z" fill="#000" fill-opacity=".4"/><path d="M57.206 14.962v-2.458a4.716 4.716 0 00-.709-2.833 3.073 3.073 0 00-2.567-1.26 3.12 3.12 0 00-2.608 1.26 4.872 4.872 0 00-.735 2.88v4.209c-.061.98.204 1.954.756 2.771a3.13 3.13 0 002.635 1.233 3.002 3.002 0 002.628-1.3c.266-.39.443-.838.511-1.301.048-.47.075-.94.075-1.417v-.34h-2.281c0 .871.007 1.389-.014 1.511a.936.936 0 01-.974.872c-.748 0-1.062-.558-1.055-1.668v-2.159h4.338zm-4.331-3.132c0-1.124.306-1.43 1.035-1.43.729 0 1.008.334 1.008 1.444v1.314h-2.043V11.83zm-5.754-3.432a3.122 3.122 0 00-2.301 1.355v-5.25h-2.166v16.104h2.166v-1.212a3.084 3.084 0 002.294 1.362 1.785 1.785 0 001.791-1.355c.184-.79.266-1.594.239-2.404v-4.807a8.386 8.386 0 00-.293-2.397 1.752 1.752 0 00-1.73-1.396zm-.252 8.723c0 1.198-.286 1.661-.912 1.661a1.687 1.687 0 01-1.137-.545v-7.286c.292-.32.701-.517 1.13-.544.627 0 .912.354.912 1.552l.007 5.162zm-6.006 3.486h-2.281v-1.321c-.865.994-1.6 1.491-2.397 1.491a1.43 1.43 0 01-1.43-.933 4.839 4.839 0 01-.252-1.763V8.589h2.281v9.737c.055.34.197.463.483.463.436 0 .831-.382 1.315-1.062V8.589h2.28v12.018z" fill="#fff"/><path d="M32.21 20.607h-2.405V6.784H27.28V4.503h7.572v2.281H32.21v13.823z" fill="#fff"/></svg>