<svg width="94" height="24" viewBox="0 0 94 24" fill="none" xmlns="http://www.w3.org/2000/svg">
<path d="M0 3.5H3.50772V16.2674H10V19.5H0V3.5Z" fill="#231F20"/>
<path d="M12.2807 8.81642H15.7281V19.5H12.2807V8.81642ZM14 3.5C15.1053 3.5 16 4.36212 16 5.4271C16 6.49207 15.1053 7.3542 14 7.3542C12.8947 7.3542 12 6.49207 12 5.4271C12.0088 4.36212 12.9035 3.5 14 3.5Z" fill="#231F20"/>
<path d="M30.0091 3.5H33.5818V13.0657L37.6273 8.64745H42L37.3182 13.6662L41.9 19.5H37.4091L33.6182 14.1381H33.5727V19.5H30L30.0091 3.5Z" fill="#231F20"/>
<path d="M18.009 8.76599H21.3915V10.2351H21.4364C22.1272 9.11418 23.4103 8.45179 24.7741 8.50274C28.345 8.50274 29 10.7277 29 13.615V19.5H25.4739V14.2774C25.4739 13.029 25.447 11.4325 23.6436 11.4325C21.8132 11.4325 21.5261 12.7912 21.5261 14.1839V19.4915H18V8.76599" fill="#231F20"/>
<path d="M49.3834 13.2066C49.411 12.0389 48.4632 11.0688 47.2669 11.0419C47.2301 11.0419 47.2025 11.0419 47.1656 11.0419C45.8497 10.9611 44.7178 11.9221 44.6166 13.2066H49.3834ZM52.4479 18.2365C51.2331 19.6736 49.4202 20.5089 47.5061 20.4999C43.8896 20.4999 41 18.1467 41 14.5C41 10.8533 43.8896 8.5 47.5061 8.5C50.8834 8.5 53 10.8533 53 14.5V15.6048H44.6166C44.8374 16.8982 45.9969 17.8413 47.3405 17.8143C48.3804 17.8053 49.3558 17.2844 49.9172 16.4221L52.4479 18.2365Z" fill="#231F20"/>
<path d="M60.1302 11.154C58.5847 11.1203 57.2996 12.3101 57.2648 13.8038C57.2301 15.3059 58.4544 16.5548 59.9913 16.5886C61.5369 16.6224 62.822 15.4325 62.8567 13.9388C62.8567 13.9135 62.8567 13.8966 62.8567 13.8713C62.9783 12.4873 61.919 11.2722 60.4949 11.1624C60.3821 11.1456 60.2518 11.1456 60.1302 11.154ZM66 19.2384H62.8654V17.8207H62.822C62.0232 18.8586 60.7728 19.4831 59.4356 19.5C56.1621 19.5 54 17.2046 54 13.9557C54 10.9684 55.9103 8.23418 59.0449 8.23418C60.3821 8.12447 61.6845 8.64768 62.5528 9.6519H62.5962V3.5H66V19.2384Z" fill="#231F20"/>
<path d="M92.2249 0.500076H71.7751C70.806 0.491397 70.0181 1.22913 70 2.1578V21.8422C70.0091 22.7709 70.806 23.5086 71.7751 23.4999H92.2249C93.194 23.5086 93.9909 22.7709 94 21.8422V2.16648C93.9909 1.22913 93.194 0.491397 92.2249 0.500076ZM73.5683 9.1185H77.1275V20.089H73.5683V9.1185ZM75.3434 7.6257C74.2023 7.6257 73.2785 6.74041 73.2785 5.64683C73.2785 4.55325 74.2023 3.66797 75.3434 3.66797C76.4845 3.66797 77.4083 4.55325 77.4083 5.64683C77.4083 6.73173 76.4845 7.61702 75.3434 7.6257C75.3434 7.61702 75.3434 7.61702 75.3434 7.6257ZM90.4589 20.0977H86.8996V14.76C86.8996 13.4841 86.8725 11.8525 85.0521 11.8525C83.1955 11.8525 82.9147 13.2411 82.9147 14.6732V20.0977H79.3555V9.12719H82.7698V10.6287H82.8151C83.5125 9.49171 84.8075 8.80606 86.1842 8.85814C89.7887 8.85814 90.4498 11.1321 90.4498 14.083L90.4589 20.0977Z" fill="#231F20"/>
</svg>
