<svg width="82" height="32" viewBox="0 0 82 32" fill="none" xmlns="http://www.w3.org/2000/svg">
<path d="M81.498 6.90299C81.498 6.90299 81.0146 3.76369 79.5458 2.38482C78.2444 1.16206 76.4781 0.476964 74.6374 0.45962C67.7862 -1.03379e-06 57.5046 0 57.5046 0H57.4861C57.4861 0 47.2045 -1.03379e-06 40.344 0.45962C38.5033 0.476964 36.7371 1.17073 35.4356 2.38482C33.9668 3.76369 33.4927 6.90299 33.4927 6.90299C33.1859 9.34852 33.0279 11.8027 33 14.2656V17.7171C33.0186 20.1799 33.1859 22.6341 33.4927 25.0797C33.4927 25.0797 33.9668 28.219 35.4356 29.5978C37.2948 31.4103 39.749 31.3496 40.8367 31.5404C44.7596 31.8873 57.4954 32 57.4954 32C57.4954 32 67.7862 31.9827 74.6467 31.523C76.4874 31.5057 78.2536 30.8119 79.5551 29.5978C81.0239 28.219 81.5073 25.0797 81.5073 25.0797C81.8141 22.6341 81.9721 20.1799 82 17.7171V14.2656C81.9628 11.8027 81.8048 9.34852 81.498 6.90299Z" fill="black"/>
<path d="M31 25.7749H27.7744V24.0585C26.5516 25.3503 25.5117 25.9961 24.3851 25.9961C23.4993 26.0492 22.6712 25.5538 22.3631 24.784C22.0935 24.0497 21.9683 23.2711 22.0068 22.4925V10H25.2324V22.8022C25.3095 23.2446 25.5117 23.4038 25.9161 23.4038C26.5323 23.4038 27.0908 22.9084 27.7744 22.0236V10H31V25.7749Z" fill="black"/>
<path d="M19.9849 15.2254C20.0789 13.9213 19.7313 12.6259 18.989 11.5143C18.1621 10.5165 16.8561 9.9563 15.5031 10.0088C14.1407 9.92129 12.8253 10.4902 12.0172 11.5143C11.275 12.6259 10.9273 13.93 11.0213 15.2341V20.7833C10.9085 22.0437 11.2468 23.3041 11.9703 24.3719C12.8065 25.4047 14.1125 26.0087 15.4937 25.9999C16.8843 26.0087 18.1997 25.4047 19.0454 24.3719C19.7594 23.3041 20.0883 22.0437 19.9756 20.7833L19.9849 15.2254ZM16.8373 21.0984C17.0065 22.6389 16.4897 23.4091 15.5125 23.4091C14.5353 23.4091 14.0186 22.6389 14.1877 21.0984V14.919C14.0186 13.3786 14.5353 12.6521 15.5125 12.6521C16.4897 12.6521 17.0065 13.3786 16.8373 14.919V21.0984Z" fill="black"/>
<path d="M7.06634 17.4431V26H3.92476V17.4431C3.92476 17.4431 0.667476 6.95636 0 5H3.30178L5.5089 13.1956L7.69822 5H11L7.06634 17.4431Z" fill="black"/>
<path d="M77.9849 18.4834V15.3008C78.0772 14.0136 77.7449 12.7264 77.0248 11.6332C76.2217 10.5753 74.9108 9.96698 73.5446 10.0022C72.1599 9.95816 70.8398 10.5665 70.009 11.6332C69.2797 12.7441 68.9289 14.0489 69.012 15.3625V20.8109C68.9289 22.0804 69.2889 23.3411 70.0367 24.399C70.8767 25.457 72.2153 26.0565 73.6092 25.9947C75.0216 26.0653 76.3786 25.4217 77.1725 24.3109C77.5326 23.8083 77.7726 23.2265 77.8649 22.627C77.9295 22.0187 77.9664 21.4104 77.9664 20.7932V20.3524H74.8739C74.8739 21.4809 74.8832 22.1509 74.8555 22.3096C74.8093 22.962 74.2277 23.4645 73.5354 23.4381C72.5199 23.4381 72.0953 22.7151 72.1045 21.2781V18.4834H77.9849ZM72.1137 14.428C72.1137 12.9733 72.5291 12.5766 73.5169 12.5766C74.5047 12.5766 74.8832 13.0086 74.8832 14.4456V16.1471H72.1137V14.428Z" fill="white"/>
<path d="M64.1903 10.032C62.8975 10.1375 61.7274 10.7885 61.0008 11.7826V5H58V25.8052H61.0008V24.2394C61.7179 25.2422 62.8881 25.8932 64.1809 25.9988C65.351 26.034 66.3795 25.3038 66.6626 24.2481C66.9174 23.2277 67.0306 22.1896 66.9929 21.1428V14.932C67.0212 13.8851 66.8797 12.847 66.5871 11.8354C66.3512 10.7797 65.351 10.0232 64.1903 10.032ZM63.8411 21.3011C63.8411 22.8494 63.4448 23.4476 62.5767 23.4476C61.9727 23.4124 61.4065 23.1573 61.0008 22.7438V13.3309C61.4065 12.9174 61.9727 12.6623 62.5672 12.6271C63.4354 12.6271 63.8317 13.0846 63.8317 14.6329L63.8411 21.3011Z" fill="white"/>
<path d="M56 26.7727H52.7744V25.039C51.5516 26.3437 50.5117 26.9961 49.3851 26.9961C48.4993 27.0497 47.6712 26.5493 47.3631 25.7718C47.0935 25.0301 46.9683 24.2437 47.0068 23.4573V11H50.2324V23.779C50.3095 24.2258 50.5117 24.3867 50.9161 24.3867C51.5323 24.3867 52.0908 23.8862 52.7744 22.9926V11H56V26.7727Z" fill="white"/>
<path d="M43.5108 26H40.3363V7.97462H37V5H47V7.97462H43.5108V26Z" fill="white"/>
</svg>
