<svg width="123" height="31" fill="none" xmlns="http://www.w3.org/2000/svg"><path d="M47.084 13.643c-.317 2.379-2.22 2.379-3.965 2.379h-.952l.793-4.6c0-.317.317-.476.635-.476h.476c1.268 0 2.379 0 3.013.635v2.062zm-.793-6.344h-6.82c-.476 0-.793.317-.952.793l-2.696 17.446c0 .317.159.635.634.635h3.172c.476 0 .794-.318.952-.793l.793-4.759c0-.475.476-.793.952-.793h2.22c4.441 0 6.979-2.22 7.772-6.502.317-1.904 0-3.331-.793-4.441-1.269-.952-3.014-1.586-5.234-1.586zm15.702 12.689c-.318 1.903-1.745 3.172-3.648 3.172-.952 0-1.745-.317-2.22-.952-.477-.634-.635-1.427-.477-2.22.318-1.904 1.745-3.172 3.648-3.172.952 0 1.745.317 2.22.951.318.476.635 1.269.477 2.22zm4.44-6.345h-3.171c-.318 0-.476.159-.635.476l-.159.952-.158-.317c-.635-.952-2.22-1.428-3.807-1.428-3.648 0-6.661 2.697-7.295 6.503-.318 1.903.158 3.648 1.268 4.917.952 1.11 2.38 1.586 4.124 1.586 2.855 0 4.441-1.904 4.441-1.904l-.158.952c0 .317.158.635.634.635h2.855c.476 0 .793-.318.951-.793l1.745-11.103c0-.158-.159-.476-.634-.476zm17.289-.001h-3.33a.872.872 0 00-.794.476l-4.44 6.662-1.904-6.345c-.159-.476-.476-.634-.952-.634H69.13c-.317 0-.634.317-.475.793l3.647 10.468-3.33 4.758c-.317.317 0 .952.476.952h3.33a.872.872 0 00.793-.476l10.785-15.702c.159-.476-.158-.952-.634-.952z" fill="#263577"/><path d="M95.3 13.643c-.318 2.379-2.22 2.379-3.966 2.379h-.951l.793-4.6c0-.317.317-.476.634-.476h.476c1.269 0 2.38 0 3.014.635.158.634.158 1.269 0 2.062zm-.793-6.344h-6.82c-.476 0-.793.317-.952.793l-2.696 17.446c0 .317.158.635.634.635h3.49c.317 0 .634-.159.634-.635l.793-4.917c0-.475.476-.793.951-.793h2.22c4.442 0 6.98-2.22 7.773-6.502.317-1.904 0-3.331-.794-4.441-1.11-.952-2.854-1.586-5.233-1.586zm15.861 12.689c-.317 1.903-1.745 3.172-3.648 3.172-.952 0-1.745-.317-2.22-.952-.476-.634-.635-1.427-.476-2.22.317-1.904 1.744-3.172 3.648-3.172.951 0 1.744.317 2.22.951.317.476.635 1.269.476 2.22zm4.441-6.345h-3.172c-.317 0-.476.159-.635.476l-.158.952-.159-.317c-.634-.952-2.22-1.428-3.806-1.428-3.648 0-6.662 2.697-7.296 6.503-.317 1.903.158 3.648 1.269 4.917.951 1.11 2.379 1.586 4.123 1.586 2.855 0 4.441-1.904 4.441-1.904l-.158.952c0 .317.158.635.634.635h2.855c.476 0 .793-.318.952-.793l1.744-11.103c0-.158-.317-.476-.634-.476zm3.806-5.869l-2.855 17.764c0 .317.159.635.634.635h2.855c.476 0 .793-.318.952-.793l2.696-17.447c0-.317-.158-.634-.634-.634h-3.172c-.159 0-.317.317-.476.475z" fill="#2199D6"/><path d="M7.59 29.503l.476-3.331H1.405L5.212 1.905s0-.158.158-.158h9.517c3.013 0 5.233.634 6.344 1.903.475.634.793 1.269.951 1.903.159.793.159 1.586 0 2.696v.635l.476.317c.476.159.793.476 1.11.793.476.476.793 1.11.793 1.903.159.793.159 1.745-.158 2.855-.317 1.27-.635 2.22-1.11 3.172-.476.793-1.11 1.428-1.745 2.062-.634.476-1.586.793-2.38 1.11-.95.159-1.902.318-3.013.318h-.793c-.476 0-.951.158-1.427.476a3.454 3.454 0 00-.793 1.268v.317l-.952 5.869v.317H7.591v-.159z" fill="#263577"/><path d="M23.293 8.25c0 .158 0 .317-.158.475-1.269 6.345-5.393 8.406-10.785 8.406H9.653c-.634 0-1.268.476-1.268 1.11l-1.428 8.883-.317 2.537c0 .476.317.793.634.793h4.917c.634 0 1.11-.476 1.11-.951v-.318l.952-5.71v-.317c.159-.634.634-.951 1.11-.951h.793c4.758 0 8.406-1.904 9.358-7.455.476-2.379.159-4.282-.952-5.55-.317-.318-.793-.635-1.269-.952z" fill="#2199D6"/><path d="M22.024 7.774c-.159 0-.317-.158-.635-.158-.158 0-.475-.159-.634-.159-.793-.158-1.586-.158-2.38-.158H11.08c-.159 0-.317 0-.476.158-.317.159-.634.476-.634.793l-1.586 9.834v.317c.158-.634.634-1.11 1.269-1.11h2.696c5.392 0 9.516-2.22 10.785-8.406 0-.159 0-.318.159-.476l-.952-.476c-.159-.159-.317-.159-.317-.159z" fill="#252C5E"/><path d="M9.97 8.25c0-.318.318-.635.635-.794.158 0 .317-.158.476-.158h7.296c.793 0 1.744 0 2.379.158.158 0 .475 0 .634.159.159 0 .317.159.634.159.159 0 .159 0 .318.158l.951.476c.317-2.38 0-3.965-1.269-5.393C20.597 1.43 18.06.795 14.887.795H5.53c-.634 0-1.268.476-1.268 1.11L.454 26.33c0 .476.317.952.793.952h5.71l1.427-9.2L9.97 8.25z" fill="#263577"/></svg>