<svg width="175" height="47" viewBox="0 0 175 47" fill="none" xmlns="http://www.w3.org/2000/svg">
<path d="M15.933 40.6193C10.1131 40.3303 5.64496 35.2794 5.64496 29.4161V20.2326C5.64496 19.2853 6.40597 18.5195 7.34679 18.5195C8.28762 18.5195 9.05023 19.2869 9.05023 20.2326V29.5124C9.05023 33.4025 11.9145 36.8078 15.7628 37.1706C20.1796 37.5881 23.906 34.0913 23.906 29.7323V9.75826C23.906 8.81101 24.6686 8.04358 25.6078 8.04358C26.5502 8.04358 27.3128 8.81101 27.3128 9.75826V29.7323C27.3128 35.9248 22.1544 40.9259 15.933 40.6177" fill="#0046BB"/>
<mask id="mask0_4_3" style="mask-type:alpha" maskUnits="userSpaceOnUse" x="0" y="0" width="33" height="47">
<path d="M32.9578 46.2658H0V0H32.9578V46.2658Z" fill="white"/>
</mask>
<g mask="url(#mask0_4_3)">
<path d="M29.5509 1.70826V29.3663C29.5509 36.4867 24.0569 42.5603 16.983 42.83C9.54633 43.1126 3.40528 37.108 3.40528 29.689L3.41651 19.7108C3.41651 17.6911 5.05413 16.1096 7.14289 16.1096C8.13405 16.1135 9.08322 16.5103 9.78212 17.2131C10.481 17.916 10.8726 18.8673 10.8709 19.8585L10.8789 28.9087C10.8789 32.1422 13.6018 34.7495 16.8626 34.5296C19.8344 34.3289 22.0789 31.7087 22.0789 28.7112V15.7805C22.0789 14.8333 21.3163 14.0674 20.3755 14.0674C19.4346 14.0674 18.6736 14.8349 18.6736 15.7805V28.8236C18.6736 29.8897 17.9576 30.8706 16.9172 31.0729C15.5156 31.3459 14.2842 30.2702 14.2842 28.9087V19.7557H14.2761C14.2216 15.8463 11.0427 12.6835 7.14289 12.6835C3.14518 12.6835 0.0112385 15.7693 0.0112385 19.7092L0 29.689C0 38.7344 7.24083 46.1117 16.1963 46.2642C25.4135 46.42 32.9578 38.5851 32.9578 29.3117L32.945 1.70665C32.9462 1.25557 32.7684 0.822439 32.4505 0.502426C32.1326 0.182412 31.7006 0.00170037 31.2495 0C31.0258 0.000420593 30.8043 0.0449632 30.5978 0.131079C30.3913 0.217194 30.2037 0.343192 30.046 0.50186C29.8882 0.660529 29.7633 0.848754 29.6783 1.05576C29.5934 1.26277 29.5501 1.4845 29.5509 1.70826" fill="#0046BB"/>
</g>
<path d="M59.1147 26.9596C59.1058 27.728 59.2493 28.4905 59.537 29.203C59.8247 29.9155 60.2508 30.5639 60.7907 31.1107C61.3306 31.6574 61.9735 32.0917 62.6824 32.3884C63.3912 32.685 64.1518 32.8382 64.9202 32.839C68.5534 32.839 71.9619 29.8239 71.9619 25.7154V16.9734C71.9619 16.145 72.4484 15.6537 73.3105 15.6537C74.1727 15.6537 74.7346 16.145 74.7346 16.9734V33.8553C74.7346 35.5892 72.0374 35.6278 72.0374 33.8183V31.4422C70.6888 34.1956 67.8037 35.4014 64.8833 35.4014C60.5388 35.4014 56.3789 32.3862 56.3789 26.9596V16.9734C56.3789 16.145 56.867 15.6537 57.7275 15.6537C58.5528 15.6537 59.1131 16.145 59.1131 16.9734V26.9596H59.1147Z" fill="#0046BB"/>
<path d="M83.2294 24.0585V27.0351C83.2294 30.3521 85.7773 32.6881 89.1874 32.839C91.8461 32.839 94.5064 31.4069 95.5917 28.806C95.923 27.9113 96.1126 26.9704 96.1537 26.0172C96.1906 23.5672 95.4055 21.3083 93.381 19.6112C92.294 18.7443 90.947 18.2915 89.5229 18.1807C86.116 18.1807 83.2294 20.3658 83.2294 24.0569V24.0585ZM89.2982 35.4399C86.7904 35.4399 84.3548 34.422 83.2294 32.4248V40.5261C83.2294 42.2601 80.4952 42.2601 80.4952 40.5261V17.1259C80.4952 16.2943 81.0202 15.8062 81.8807 15.8062C82.7429 15.8062 83.1555 16.2943 83.1555 17.1259V18.8952C84.4287 16.5592 87.0521 15.5798 89.2982 15.5798C90.4605 15.5798 91.7337 15.8046 92.8961 16.2943L92.8576 16.2589C96.9404 17.9544 99.0018 21.6856 98.8878 26.0557C98.7385 31.4069 94.9174 35.4383 89.2982 35.4383" fill="#0046BB"/>
<path d="M104.875 30.2766C105.249 31.972 108.172 32.839 110.905 32.839C112.742 32.839 116.675 32.0106 116.675 29.4096C116.675 26.9982 113.829 26.8842 110.794 26.6594C106.748 26.2821 102.402 25.9417 102.402 21.3083C102.402 17.2752 106.975 15.5429 110.568 15.5429C113.453 15.5429 117.46 16.0326 118.772 19.4234C119.297 21.1188 116.712 21.8349 116.226 20.4028C115.402 18.2193 112.254 18.0667 110.568 18.0667C108.396 18.0667 105.138 19.0076 105.138 21.3436C105.138 23.7567 107.909 23.7197 110.905 23.9445C115.026 24.3234 119.409 24.6991 119.409 29.4096C119.409 34.1587 114.015 35.3259 110.905 35.3259C107.797 35.3259 103.003 34.5344 102.251 30.7663C101.802 29.1849 104.539 28.3901 104.875 30.2766" fill="#0046BB"/>
<path d="M131.99 15.8415C133.676 15.8415 133.676 18.2177 131.99 18.2177H127.906V28.3917C127.906 30.5399 128.243 32.8005 130.791 32.8005C131.353 32.8005 132.176 32.6126 132.552 32.3862C134.125 31.4807 135.362 33.706 133.676 34.6484C132.738 35.175 131.804 35.289 130.791 35.289C126.295 35.289 125.21 31.972 125.21 28.3917V18.2177H122.738C120.976 18.2177 121.089 15.8415 122.738 15.8415H125.21V11.4713C125.21 9.66353 127.907 9.70046 127.907 11.4713V15.8415H131.99V15.8415Z" fill="#0046BB"/>
<path d="M145.958 18.1037C145.245 18.1037 144.536 18.2161 143.972 18.3686C140.825 19.1954 138.992 22.1367 138.992 25.5291C138.992 27.2245 139.515 28.997 140.641 30.3135C141.296 31.0953 142.116 31.7234 143.041 32.1534C143.966 32.5835 144.975 32.8049 145.995 32.8021C148.018 32.8021 150.078 31.8227 151.389 30.3135C152.438 29.0323 153.04 27.2245 153.04 25.603C153.04 22.1752 151.203 19.197 148.019 18.367C147.345 18.1984 146.653 18.11 145.958 18.1037V18.1037ZM138.504 31.972C136.818 29.9748 136.107 27.5617 136.219 24.7376C136.593 20.5537 139.029 17.0489 143.148 15.88C144.047 15.6184 145.059 15.5429 145.995 15.5429C146.894 15.5429 147.793 15.6167 148.768 15.88C152.85 17.0489 155.398 20.5167 155.736 24.7376C155.886 27.5633 155.137 29.9748 153.488 31.972C151.651 34.1956 148.954 35.3628 145.995 35.3628C142.999 35.3628 140.339 34.1956 138.504 31.972Z" fill="#0046BB"/>
<path d="M169.116 24.1179L174.303 17.8243C174.424 17.6783 174.515 17.5098 174.571 17.3285C174.626 17.1472 174.646 16.9567 174.627 16.7679C174.596 16.4106 174.431 16.078 174.167 15.8354C173.903 15.5928 173.557 15.4576 173.199 15.4562C172.987 15.4554 172.777 15.5018 172.585 15.5921C172.393 15.6823 172.224 15.8141 172.089 15.978L167.189 21.92L169.116 24.1179V24.1179Z" fill="#0046BB"/>
<path d="M163.344 24.195L165.203 21.9392L160.006 16.0101C159.749 15.7321 159.395 15.5638 159.017 15.5399C158.639 15.5159 158.267 15.6383 157.977 15.8817C157.834 16.0072 157.717 16.1596 157.634 16.3303C157.55 16.5009 157.501 16.6864 157.489 16.8761C157.477 17.0658 157.502 17.256 157.564 17.4358C157.626 17.6156 157.722 17.7814 157.848 17.9239L163.344 24.1933V24.195Z" fill="#0046BB"/>
<mask id="mask1_4_3" style="mask-type:alpha" maskUnits="userSpaceOnUse" x="157" y="23" width="18" height="13">
<path d="M174.921 35.0161V23.1337H157.943V35.0161H174.921Z" fill="white"/>
</mask>
<g mask="url(#mask1_4_3)">
<path d="M174.583 32.6833L166.21 23.1353L158.258 32.7828C158.144 32.9207 158.058 33.0797 158.005 33.2508C157.953 33.4218 157.934 33.6016 157.951 33.7798C157.982 34.1168 158.137 34.4304 158.386 34.659C158.636 34.8877 158.961 35.015 159.3 35.0161C159.706 35.0161 160.086 34.8362 160.343 34.5232L166.276 27.3289L172.553 34.4894C172.795 34.7508 173.129 34.909 173.484 34.9314C173.84 34.9538 174.191 34.8387 174.464 34.6099C174.734 34.3695 174.898 34.0322 174.92 33.6713C174.943 33.3105 174.822 32.9554 174.584 32.6833" fill="#0046BB"/>
</g>
</svg>
