<svg width="232" height="195" viewBox="0 0 232 195" fill="none" xmlns="http://www.w3.org/2000/svg">
<g clip-path="url(#clip0_2752_96034)">
<path d="M0 21.2114C0 11.2123 0 6.21269 3.10634 3.10634C6.21269 0 11.2123 0 21.2114 0H210.789C220.788 0 225.787 0 228.894 3.10634C232 6.21269 232 11.2123 232 21.2114V141.189H0V21.2114Z" fill="#FBA83B"/>
<rect x="240.617" y="148.48" width="249.897" height="151.794" transform="rotate(-180 240.617 148.48)" fill="#FCB962"/>
<path d="M118.854 116.475L119.017 70.6523L168.084 101.306L167.921 147.129L118.854 116.475Z" fill="#F48D50"/>
<path d="M70.1222 147.129L69.959 101.306L119.026 70.6523L118.851 116.475L70.1222 147.129Z" fill="#FFEBC5"/>
<path d="M167.943 147.128L119.19 177.782L70.123 147.128L118.875 116.475L167.943 147.128Z" fill="#FAE091"/>
<path opacity="0.3" d="M259.425 36.1237L259.925 -8.63281L223.381 -8.43175L32.1299 -8.43175L-5.30424 -5.61656L-5.46871 33.782L75.5724 102.217L75.8357 102.217L129.083 132.574L181.356 102.217L181.406 102.217L259.425 36.1237Z" fill="#FAE091"/>
<path opacity="0.4" d="M231.267 -16.7031L25.7109 -16.7031L75.5723 102.216L75.8355 102.216L129.083 132.574L181.356 102.216L181.405 102.216L231.267 -16.7031Z" fill="#FAE091"/>
<path d="M119.189 131.96L119.026 177.783L69.959 147.13L70.1222 101.307L119.189 131.96Z" fill="#F48D50"/>
<path d="M167.92 101.307L168.083 147.13L119.016 177.783L119.19 131.96L167.92 101.307Z" fill="#FFEBC5"/>
<path d="M97.7343 118.733L97.7343 164.48L91.3008 160.458L91.4406 114.799L97.7343 118.733Z" fill="#BF3D49"/>
<path d="M140.635 118.733L140.635 164.48L147.08 160.458L146.928 114.799L140.635 118.733Z" fill="#BF3D49"/>
<path d="M138.025 66.7169C137.974 66.5551 137.902 66.5381 137.81 66.6062C137.615 66.7499 137.289 67.2053 137.088 67.5274C137.071 67.5536 137.102 67.5756 137.123 67.5521C137.294 67.3515 137.551 67.0582 137.632 67.003C137.707 66.9515 137.784 66.9099 137.784 66.9099C137.743 67.1001 137.786 67.3754 138.032 67.1285C138.307 66.8525 138.552 66.6716 138.847 66.4616C139.081 66.2956 138.911 66.1011 138.708 66.209C138.502 66.3189 138.234 66.5533 138.025 66.7169Z" fill="white"/>
<path d="M137.174 71.0515C137.163 70.9299 137.115 70.9069 137.04 70.9409C136.894 71.0068 136.63 71.2408 136.44 71.4307C136.418 71.4525 136.443 71.4796 136.468 71.461C136.614 71.3506 136.796 71.2171 136.854 71.1936C136.915 71.1687 136.975 71.1511 136.975 71.1511C136.918 71.2789 136.906 71.4796 137.117 71.3428C137.353 71.19 137.553 71.0995 137.793 70.9964C137.982 70.9148 137.892 70.7519 137.733 70.7972C137.571 70.8434 137.347 70.968 137.174 71.0515Z" fill="#BF3D49"/>
<path d="M131.429 65.8013C131.235 65.8013 131.192 65.8538 131.235 65.9428C131.326 66.1305 131.714 66.4975 131.998 66.7341C132.022 66.7539 132.048 66.7256 132.028 66.7024C131.867 66.519 131.641 66.2544 131.609 66.1792C131.578 66.1076 131.559 66.0371 131.559 66.0371C131.753 66.1157 132.069 66.1487 131.882 65.8956C131.674 65.6126 131.559 65.3768 131.429 65.0938C131.327 64.8701 131.056 64.9558 131.106 65.141C131.156 65.3297 131.321 65.5969 131.429 65.8013Z" fill="white"/>
<path d="M128.058 70.2356C127.999 70.3423 128.026 70.3885 128.107 70.4028C128.265 70.4305 128.615 70.3856 128.879 70.3357C128.909 70.3299 128.904 70.2936 128.873 70.2951C128.69 70.304 128.464 70.3115 128.403 70.2986C128.339 70.2849 128.279 70.2653 128.279 70.2653C128.398 70.1923 128.521 70.0327 128.269 70.027C127.989 70.0207 127.773 69.983 127.516 69.9331C127.313 69.8937 127.296 70.079 127.453 70.1311C127.613 70.1842 127.869 70.2075 128.058 70.2356Z" fill="white"/>
<circle cx="138.325" cy="69.2953" r="0.160548" fill="#F6CC47"/>
<circle cx="127.793" cy="66.2777" r="0.160548" fill="#F6CC47"/>
<circle cx="136.079" cy="66.598" r="0.160548" fill="#F6CC47"/>
<circle cx="136.687" cy="68.8142" r="0.0642075" fill="#F6CC47"/>
<circle cx="137.508" cy="69.9568" r="0.0642075" fill="#F6CC47"/>
<circle cx="129.047" cy="68.8767" r="0.0642075" fill="#F6CC47"/>
<circle cx="132.803" cy="73.598" r="0.160548" fill="#F6CC47"/>
<circle cx="126.766" cy="69.2953" r="0.160548" fill="#BF3D49"/>
<circle cx="134.278" cy="65.5062" r="0.160548" fill="#BF3D49"/>
<circle cx="135.371" cy="72.6996" r="0.160548" fill="#BF3D49"/>
<circle cx="130.235" cy="72.6996" r="0.160548" fill="#BF3D49"/>
<circle cx="129.945" cy="71.7048" r="0.0642075" fill="#BF3D49"/>
<circle cx="129.945" cy="67.4021" r="0.0642075" fill="#BF3D49"/>
<circle cx="136.922" cy="70.2009" r="0.0642075" fill="#BF3D49"/>
<circle cx="136.816" cy="71.9607" r="0.0642075" fill="#BF3D49"/>
<path d="M57.6071 61.0772C57.4304 61.0772 57.2801 61.0153 57.1564 60.8916C57.0326 60.7679 56.9708 60.6176 56.9708 60.4409V58.5849C55.6627 58.4611 54.558 58.1518 53.6565 57.6569C52.755 57.1443 52.0745 56.5344 51.6149 55.8274C51.1553 55.1027 50.9078 54.3514 50.8725 53.5737C50.8725 53.4146 50.9255 53.282 51.0316 53.1759C51.1553 53.0699 51.2967 53.0169 51.4558 53.0169H53.8156C54.0277 53.0169 54.1956 53.0699 54.3193 53.1759C54.4431 53.2643 54.5403 53.3792 54.611 53.5206C54.7347 53.8565 54.938 54.1923 55.2208 54.5282C55.5213 54.8464 55.9367 55.1115 56.467 55.3236C56.9973 55.5357 57.6601 55.6418 58.4556 55.6418C59.7283 55.6418 60.6739 55.4297 61.2926 55.0054C61.9113 54.5812 62.2206 54.0067 62.2206 53.282C62.2206 52.7694 62.0527 52.3628 61.7168 52.0623C61.3987 51.7442 60.8861 51.4614 60.179 51.2139C59.472 50.9487 58.544 50.6748 57.395 50.3919C56.087 50.0738 54.9822 49.6937 54.0807 49.2518C53.1792 48.7923 52.4987 48.2178 52.0391 47.5284C51.5972 46.839 51.3763 45.9641 51.3763 44.9035C51.3763 43.5424 51.8712 42.3846 52.8611 41.4301C53.8509 40.4756 55.2208 39.8923 56.9708 39.6802V37.8507C56.9708 37.6739 57.0326 37.5237 57.1564 37.3999C57.2801 37.2762 57.4304 37.2143 57.6071 37.2143H59.2245C59.4012 37.2143 59.5515 37.2762 59.6752 37.3999C59.799 37.5237 59.8608 37.6739 59.8608 37.8507V39.7332C61.0628 39.91 62.0704 40.2635 62.8835 40.7938C63.6966 41.3241 64.3152 41.9339 64.7395 42.6233C65.1637 43.295 65.3846 43.949 65.4023 44.5853C65.4023 44.7267 65.3493 44.8593 65.2432 44.983C65.1549 45.0891 65.0223 45.1421 64.8455 45.1421H62.3797C62.2206 45.1421 62.0704 45.1068 61.9289 45.0361C61.7875 44.9654 61.6726 44.8328 61.5843 44.6383C61.4959 44.0904 61.16 43.622 60.5767 43.2331C59.9934 42.8442 59.2333 42.6498 58.2965 42.6498C57.342 42.6498 56.5731 42.8265 55.9897 43.1801C55.4241 43.5336 55.1413 44.0815 55.1413 44.8239C55.1413 45.3189 55.2827 45.7343 55.5655 46.0701C55.8483 46.3883 56.3079 46.6711 56.9443 46.9186C57.5983 47.166 58.4644 47.4312 59.5427 47.714C61.0451 48.0499 62.2648 48.4387 63.2016 48.8806C64.1561 49.3225 64.8544 49.8882 65.2963 50.5775C65.7558 51.2492 65.9856 52.1065 65.9856 53.1494C65.9856 54.1747 65.7293 55.0761 65.2167 55.8539C64.7218 56.614 64.0147 57.2326 63.0956 57.7099C62.1764 58.1695 61.0982 58.47 59.8608 58.6114V60.4409C59.8608 60.6176 59.799 60.7679 59.6752 60.8916C59.5515 61.0153 59.4012 61.0772 59.2245 61.0772H57.6071Z" fill="#44140A"/>
<path d="M93.5837 93.1258C89.5959 93.1258 86.2657 92.5106 83.5931 91.2804C80.9205 90.0077 78.8842 88.3744 77.4842 86.3805C76.1267 84.3442 75.4055 82.1594 75.3206 79.8262C75.3206 79.4444 75.4479 79.1262 75.7024 78.8717C75.957 78.6171 76.2752 78.4899 76.657 78.4899H85.184C85.7355 78.4899 86.1597 78.6171 86.4566 78.8717C86.796 79.0838 87.0506 79.3595 87.2203 79.6989C87.6021 80.6746 88.0899 81.4807 88.6838 82.117C89.3202 82.7534 90.0414 83.22 90.8474 83.517C91.6959 83.8139 92.6292 83.9624 93.6473 83.9624C94.8352 83.9624 95.9382 83.7079 96.9563 83.1988C97.9745 82.6897 98.7805 81.9473 99.3744 80.9716C100.011 79.9535 100.329 78.7444 100.329 77.3444C100.329 76.0718 100.032 74.9688 99.438 74.0355C98.8865 73.1022 98.1017 72.3598 97.0836 71.8083C96.0654 71.2568 94.92 70.981 93.6473 70.981C92.6292 70.981 91.8019 71.1083 91.1656 71.3628C90.5292 71.5749 89.999 71.8507 89.5747 72.1901C89.1505 72.5295 88.7687 72.8264 88.4293 73.0809C88.0899 73.2931 87.7081 73.3991 87.2839 73.3991H78.9478C78.566 73.3991 78.2266 73.2718 77.9296 73.0173C77.6751 72.7204 77.5478 72.381 77.5478 71.9992L79.8387 49.7908C79.9235 49.1544 80.1568 48.6878 80.5386 48.3908C80.9205 48.0514 81.3871 47.8818 81.9386 47.8818H107.456C107.923 47.8818 108.304 48.0302 108.601 48.3272C108.898 48.6242 109.047 49.006 109.047 49.4726V55.4542C109.047 55.9209 108.898 56.3027 108.601 56.5997C108.304 56.8966 107.923 57.0451 107.456 57.0451H89.002L88.1748 65.3176C89.1081 64.6812 90.1899 64.1721 91.4201 63.7903C92.6928 63.3661 94.4109 63.154 96.5745 63.154C98.6108 63.154 100.541 63.4934 102.365 64.1721C104.232 64.8509 105.886 65.8266 107.329 67.0993C108.814 68.372 109.959 69.8992 110.765 71.681C111.613 73.4203 112.038 75.393 112.038 77.599C112.038 80.611 111.295 83.2837 109.81 85.6169C108.368 87.9502 106.268 89.7956 103.511 91.1531C100.753 92.4682 97.4442 93.1258 93.5837 93.1258ZM135.931 93.0621C132.877 93.0621 130.225 92.6379 127.977 91.7894C125.729 90.8986 123.862 89.6895 122.377 88.1623C120.935 86.6351 119.832 84.8533 119.068 82.817C118.305 80.7807 117.859 78.5959 117.732 76.2627C117.689 75.1172 117.647 73.8233 117.605 72.381C117.605 70.8962 117.605 69.4114 117.605 67.9266C117.647 66.3993 117.689 65.0418 117.732 63.854C117.859 61.5207 118.305 59.3571 119.068 57.3633C119.874 55.327 121.02 53.5664 122.504 52.0816C124.032 50.5544 125.898 49.3666 128.104 48.5181C130.353 47.6696 132.962 47.2454 135.931 47.2454C138.943 47.2454 141.552 47.6696 143.758 48.5181C145.964 49.3666 147.81 50.5544 149.295 52.0816C150.822 53.5664 151.988 55.327 152.794 57.3633C153.6 59.3571 154.046 61.5207 154.131 63.854C154.216 65.0418 154.258 66.3993 154.258 67.9266C154.3 69.4114 154.3 70.8962 154.258 72.381C154.258 73.8233 154.216 75.1172 154.131 76.2627C154.046 78.5959 153.6 80.7807 152.794 82.817C152.031 84.8533 150.907 86.6351 149.422 88.1623C147.979 89.6895 146.134 90.8986 143.886 91.7894C141.68 92.6379 139.028 93.0621 135.931 93.0621ZM135.931 83.8351C138.137 83.8351 139.728 83.1352 140.704 81.7352C141.722 80.2928 142.252 78.3626 142.295 75.9445C142.38 74.7142 142.422 73.4203 142.422 72.0628C142.464 70.7053 142.464 69.3477 142.422 67.9902C142.422 66.6327 142.38 65.3812 142.295 64.2358C142.252 61.9025 141.722 60.0147 140.704 58.5723C139.728 57.1299 138.137 56.3875 135.931 56.3451C133.725 56.3875 132.134 57.1299 131.159 58.5723C130.183 60.0147 129.653 61.9025 129.568 64.2358C129.525 65.3812 129.483 66.6327 129.441 67.9902C129.441 69.3477 129.441 70.7053 129.441 72.0628C129.483 73.4203 129.525 74.7142 129.568 75.9445C129.653 78.3626 130.204 80.2928 131.222 81.7352C132.241 83.1352 133.81 83.8351 135.931 83.8351Z" fill="#44140A"/>
<path d="M245.379 75.6404L190.871 60.0191L176.21 0.806275L230.717 16.4276L245.379 75.6404Z" fill="#FAE091"/>
<path d="M190.87 60.0193L184.038 67.1612L169.377 7.94839L176.209 0.806468L190.87 60.0193Z" fill="#F48D50"/>
<path d="M245.362 75.6236L238.76 83.0151L184.03 67.1531L190.87 60.0201L245.362 75.6236Z" fill="#FFEBC5"/>
<path d="M239.346 50.0169L215.339 43.1425L221.809 69.2225L214.812 67.2164L208.343 41.1363L184.344 34.253L182.465 26.6563L206.464 33.5397L200.011 7.45961L207.008 9.46576L213.46 35.5458L237.459 42.4113L239.346 50.0169Z" fill="#BF3D49"/>
<path d="M184.343 34.2505L177.676 41.4638L175.756 33.6977L182.464 26.6539L184.343 34.2505Z" fill="#BF3D49"/>
<path d="M214.681 67.0729L208.014 74.2861L215.2 76.3725L221.702 69.1058L214.681 67.0729Z" fill="#BF3D49"/>
<path d="M225.53 40.6191L230.539 35.611C226.484 29.3841 218.328 15.1972 218.138 8.26535C217.947 1.33353 224.1 -3.73814 227.2 -5.40749C225.504 -5.30153 221.111 -5.01012 217.104 -4.69215C212.096 -4.29468 206.256 3.4063 208.042 10.7297C209.632 17.2479 220.867 32.8817 225.53 40.6191Z" fill="#5C261A"/>
<path d="M230.438 35.7244L225.522 40.64C233.089 10.1186 222.805 -2.34367 216.717 -4.75963L227.813 -5.41238C240.085 -2.5403 234.676 23.2088 230.438 35.7244Z" fill="#BF3D49"/>
<path d="M225.752 40.8387L230.76 35.8306C236.987 39.8847 251.174 48.0407 258.106 48.2314C265.038 48.4222 270.109 42.2695 271.779 39.1692C271.673 40.8651 271.381 45.2586 271.063 49.265C270.666 54.2731 262.965 60.1132 255.641 58.3271C249.123 56.7374 233.489 45.5022 225.752 40.8387Z" fill="#5C261A"/>
<path d="M230.649 35.9331L225.733 40.8487C256.254 33.2819 268.717 43.5664 271.133 49.6544L271.785 38.5578C268.913 26.2862 243.164 31.6948 230.649 35.9331Z" fill="#BF3D49"/>
</g>
<path d="M0.125 141.188H231.874V182.286C231.874 186.679 228.312 190.24 223.919 190.24H8.07929C3.68626 190.24 0.125 186.679 0.125 182.286V141.188Z" fill="white"/>
<path d="M9.99905 162.714C9.89962 162.714 9.82008 162.688 9.76042 162.635C9.70739 162.575 9.67094 162.502 9.65105 162.416L8.46785 156.043C8.46785 156.023 8.46454 156.006 8.45791 155.993C8.45791 155.98 8.45791 155.97 8.45791 155.963C8.45791 155.903 8.47779 155.854 8.51756 155.814C8.56396 155.774 8.61368 155.754 8.66671 155.754H9.54168C9.70739 155.754 9.80019 155.821 9.82008 155.953L10.6453 160.457L11.5402 157.544C11.5601 157.491 11.5932 157.438 11.6396 157.385C11.6927 157.325 11.7689 157.295 11.8683 157.295H12.4052C12.5113 157.295 12.5875 157.325 12.6339 157.385C12.6803 157.438 12.7101 157.491 12.7234 157.544L13.6282 160.447L14.4535 155.953C14.4733 155.821 14.5661 155.754 14.7319 155.754H15.6068C15.6599 155.754 15.7063 155.774 15.746 155.814C15.7858 155.854 15.8057 155.903 15.8057 155.963C15.8057 155.97 15.8057 155.98 15.8057 155.993C15.8057 156.006 15.8024 156.023 15.7957 156.043L14.6125 162.416C14.5993 162.502 14.5628 162.575 14.5032 162.635C14.4435 162.688 14.364 162.714 14.2645 162.714H13.5984C13.4989 162.714 13.4194 162.688 13.3597 162.635C13.3067 162.582 13.2703 162.525 13.2504 162.466L12.1368 159.145L11.0232 162.466C10.9967 162.525 10.9569 162.582 10.9039 162.635C10.8508 162.688 10.7713 162.714 10.6652 162.714H9.99905ZM18.9367 162.814C18.4064 162.814 17.959 162.721 17.5944 162.535C17.2364 162.35 16.9614 162.088 16.7691 161.75C16.5835 161.412 16.4775 161.017 16.451 160.567C16.4443 160.447 16.441 160.302 16.441 160.129C16.441 159.957 16.4443 159.811 16.451 159.692C16.4775 159.234 16.5868 158.84 16.7791 158.509C16.9779 158.17 17.2563 157.909 17.6143 157.723C17.9788 157.537 18.4196 157.445 18.9367 157.445C19.4537 157.445 19.8912 157.537 20.2491 157.723C20.6137 157.909 20.8921 158.17 21.0843 158.509C21.2832 158.84 21.3959 159.234 21.4224 159.692C21.429 159.811 21.4323 159.957 21.4323 160.129C21.4323 160.302 21.429 160.447 21.4224 160.567C21.3959 161.017 21.2865 161.412 21.0943 161.75C20.9087 162.088 20.6336 162.35 20.269 162.535C19.9111 162.721 19.467 162.814 18.9367 162.814ZM18.9367 161.829C19.288 161.829 19.5598 161.72 19.752 161.501C19.9442 161.276 20.0503 160.948 20.0702 160.517C20.0768 160.418 20.0801 160.288 20.0801 160.129C20.0801 159.97 20.0768 159.841 20.0702 159.741C20.0503 159.317 19.9442 158.992 19.752 158.767C19.5598 158.542 19.288 158.429 18.9367 158.429C18.5854 158.429 18.3136 158.542 18.1214 158.767C17.9291 158.992 17.8231 159.317 17.8032 159.741C17.7966 159.841 17.7932 159.97 17.7932 160.129C17.7932 160.288 17.7966 160.418 17.8032 160.517C17.8231 160.948 17.9291 161.276 18.1214 161.501C18.3136 161.72 18.5854 161.829 18.9367 161.829ZM22.7726 162.714C22.7063 162.714 22.65 162.691 22.6036 162.645C22.5572 162.598 22.534 162.542 22.534 162.476V157.793C22.534 157.72 22.5572 157.66 22.6036 157.614C22.65 157.567 22.7063 157.544 22.7726 157.544H23.578C23.6443 157.544 23.7006 157.567 23.747 157.614C23.8 157.66 23.8265 157.72 23.8265 157.793V158.2C23.979 157.988 24.1745 157.826 24.4132 157.713C24.6584 157.6 24.9401 157.544 25.2583 157.544H25.666C25.7389 157.544 25.7952 157.567 25.835 157.614C25.8814 157.66 25.9046 157.716 25.9046 157.783V158.499C25.9046 158.565 25.8814 158.621 25.835 158.668C25.7952 158.714 25.7389 158.737 25.666 158.737H24.8904C24.5723 158.737 24.3237 158.827 24.1447 159.006C23.9724 159.185 23.8862 159.43 23.8862 159.741V162.476C23.8862 162.542 23.863 162.598 23.8166 162.645C23.7702 162.691 23.7105 162.714 23.6376 162.714H22.7726ZM29.0166 162.714C28.6189 162.714 28.2842 162.645 28.0124 162.506C27.7406 162.366 27.5385 162.161 27.4059 161.889C27.2733 161.611 27.207 161.266 27.207 160.855V158.598H26.4216C26.3553 158.598 26.2989 158.575 26.2525 158.528C26.2061 158.482 26.1829 158.426 26.1829 158.359V157.783C26.1829 157.716 26.2061 157.66 26.2525 157.614C26.2989 157.567 26.3553 157.544 26.4216 157.544H27.207V155.894C27.207 155.827 27.2269 155.771 27.2667 155.725C27.3131 155.678 27.3728 155.655 27.4457 155.655H28.251C28.3173 155.655 28.3737 155.678 28.4201 155.725C28.4665 155.771 28.4897 155.827 28.4897 155.894V157.544H29.7325C29.7988 157.544 29.8552 157.567 29.9016 157.614C29.948 157.66 29.9712 157.716 29.9712 157.783V158.359C29.9712 158.426 29.948 158.482 29.9016 158.528C29.8552 158.575 29.7988 158.598 29.7325 158.598H28.4897V160.756C28.4897 161.027 28.5361 161.239 28.6289 161.392C28.7283 161.544 28.8973 161.621 29.136 161.621H29.822C29.8883 161.621 29.9446 161.644 29.991 161.69C30.0374 161.737 30.0606 161.793 30.0606 161.859V162.476C30.0606 162.542 30.0374 162.598 29.991 162.645C29.9446 162.691 29.8883 162.714 29.822 162.714H29.0166ZM31.1912 162.714C31.125 162.714 31.0686 162.691 31.0222 162.645C30.9758 162.598 30.9526 162.542 30.9526 162.476V155.894C30.9526 155.827 30.9758 155.771 31.0222 155.725C31.0686 155.678 31.125 155.655 31.1912 155.655H32.0762C32.1491 155.655 32.2054 155.678 32.2452 155.725C32.2916 155.771 32.3148 155.827 32.3148 155.894V158.161C32.4938 157.948 32.7125 157.776 32.971 157.643C33.2295 157.511 33.5477 157.445 33.9255 157.445C34.3299 157.445 34.6812 157.537 34.9795 157.723C35.2844 157.902 35.5197 158.157 35.6854 158.489C35.8511 158.82 35.934 159.218 35.934 159.682V162.476C35.934 162.542 35.9108 162.598 35.8644 162.645C35.818 162.691 35.7617 162.714 35.6954 162.714H34.8005C34.7342 162.714 34.6779 162.691 34.6315 162.645C34.5851 162.598 34.5619 162.542 34.5619 162.476V159.741C34.5619 159.357 34.4658 159.055 34.2735 158.837C34.0879 158.618 33.8162 158.509 33.4582 158.509C33.1135 158.509 32.8351 158.618 32.623 158.837C32.4175 159.055 32.3148 159.357 32.3148 159.741V162.476C32.3148 162.542 32.2916 162.598 32.2452 162.645C32.2054 162.691 32.1491 162.714 32.0762 162.714H31.1912ZM41.6951 163.709C41.6288 163.709 41.5725 163.685 41.5261 163.639C41.4797 163.593 41.4565 163.536 41.4565 163.47V162.774C40.966 162.728 40.5517 162.612 40.2136 162.426C39.8756 162.234 39.6204 162.005 39.448 161.74C39.2757 161.468 39.1829 161.186 39.1696 160.895C39.1696 160.835 39.1895 160.785 39.2293 160.746C39.2757 160.706 39.3287 160.686 39.3884 160.686H40.2733C40.3528 160.686 40.4158 160.706 40.4622 160.746C40.5086 160.779 40.545 160.822 40.5716 160.875C40.618 161.001 40.6942 161.127 40.8002 161.253C40.9129 161.372 41.0687 161.471 41.2676 161.551C41.4664 161.631 41.715 161.67 42.0133 161.67C42.4905 161.67 42.8452 161.591 43.0772 161.432C43.3092 161.273 43.4252 161.057 43.4252 160.785C43.4252 160.593 43.3622 160.441 43.2362 160.328C43.1169 160.209 42.9247 160.103 42.6596 160.01C42.3944 159.91 42.0464 159.808 41.6156 159.702C41.125 159.582 40.7108 159.44 40.3727 159.274C40.0346 159.102 39.7794 158.886 39.6071 158.628C39.4414 158.369 39.3585 158.041 39.3585 157.643C39.3585 157.133 39.5441 156.699 39.9153 156.341C40.2865 155.983 40.8002 155.764 41.4565 155.685V154.999C41.4565 154.932 41.4797 154.876 41.5261 154.83C41.5725 154.783 41.6288 154.76 41.6951 154.76H42.3016C42.3679 154.76 42.4242 154.783 42.4706 154.83C42.517 154.876 42.5402 154.932 42.5402 154.999V155.705C42.991 155.771 43.3688 155.903 43.6737 156.102C43.9786 156.301 44.2107 156.53 44.3697 156.788C44.5288 157.04 44.6117 157.286 44.6183 157.524C44.6183 157.577 44.5984 157.627 44.5587 157.673C44.5255 157.713 44.4758 157.733 44.4095 157.733H43.4848C43.4252 157.733 43.3688 157.72 43.3158 157.693C43.2628 157.667 43.2197 157.617 43.1865 157.544C43.1534 157.339 43.0274 157.163 42.8087 157.017C42.59 156.871 42.3049 156.798 41.9536 156.798C41.5957 156.798 41.3073 156.865 41.0886 156.997C40.8765 157.13 40.7704 157.335 40.7704 157.614C40.7704 157.799 40.8234 157.955 40.9295 158.081C41.0356 158.2 41.2079 158.306 41.4465 158.399C41.6918 158.492 42.0166 158.591 42.4209 158.697C42.9844 158.823 43.4417 158.969 43.7931 159.135C44.151 159.301 44.4128 159.513 44.5785 159.771C44.7509 160.023 44.8371 160.345 44.8371 160.736C44.8371 161.12 44.7409 161.458 44.5487 161.75C44.3631 162.035 44.098 162.267 43.7533 162.446C43.4086 162.618 43.0042 162.731 42.5402 162.784V163.47C42.5402 163.536 42.517 163.593 42.4706 163.639C42.4242 163.685 42.3679 163.709 42.3016 163.709H41.6951ZM48.2433 162.824C47.6732 162.824 47.1926 162.731 46.8015 162.545C46.4105 162.353 46.1122 162.105 45.9067 161.8C45.7078 161.495 45.6018 161.17 45.5885 160.825C45.5819 160.766 45.5985 160.719 45.6382 160.686C45.6846 160.646 45.7377 160.626 45.7973 160.626H46.722C46.7949 160.626 46.8546 160.643 46.901 160.676C46.954 160.703 46.9938 160.752 47.0203 160.825C47.0866 161.024 47.1794 161.186 47.2987 161.312C47.4246 161.438 47.5671 161.531 47.7262 161.591C47.8919 161.65 48.0643 161.68 48.2433 161.68C48.4819 161.68 48.6973 161.634 48.8895 161.541C49.0884 161.442 49.2475 161.296 49.3668 161.104C49.4861 160.911 49.5458 160.676 49.5458 160.398C49.5458 160.152 49.4894 159.94 49.3767 159.761C49.2641 159.582 49.1083 159.443 48.9094 159.344C48.7172 159.238 48.4951 159.185 48.2433 159.185C48.0577 159.185 47.9052 159.208 47.7859 159.254C47.6666 159.301 47.5638 159.354 47.4777 159.413C47.3981 159.473 47.3252 159.526 47.2589 159.572C47.1993 159.619 47.1297 159.642 47.0501 159.642H46.1354C46.0757 159.642 46.0227 159.622 45.9763 159.582C45.9365 159.536 45.9166 159.483 45.9166 159.423L46.2646 156.023C46.2713 155.937 46.3011 155.87 46.3541 155.824C46.4071 155.778 46.4701 155.754 46.543 155.754H50.2815C50.3478 155.754 50.4042 155.778 50.4506 155.824C50.497 155.87 50.5202 155.927 50.5202 155.993V156.659C50.5202 156.725 50.497 156.782 50.4506 156.828C50.4042 156.875 50.3478 156.898 50.2815 156.898H47.4081L47.249 158.518C47.3683 158.439 47.5274 158.363 47.7262 158.29C47.9251 158.217 48.2002 158.18 48.5515 158.18C48.8697 158.18 49.1713 158.233 49.4563 158.339C49.7479 158.439 50.0065 158.588 50.2318 158.787C50.4572 158.979 50.6329 159.214 50.7588 159.493C50.8914 159.765 50.9577 160.076 50.9577 160.427C50.9577 160.911 50.845 161.332 50.6196 161.69C50.3942 162.048 50.0794 162.327 49.675 162.525C49.2707 162.724 48.7934 162.824 48.2433 162.824ZM54.6277 162.814C54.1571 162.814 53.7561 162.744 53.4247 162.605C53.0932 162.466 52.8215 162.274 52.6093 162.028C52.3972 161.783 52.2381 161.501 52.1321 161.183C52.026 160.858 51.9631 160.514 51.9432 160.149C51.9365 159.97 51.9299 159.775 51.9233 159.562C51.9233 159.344 51.9233 159.125 51.9233 158.906C51.9299 158.687 51.9365 158.485 51.9432 158.3C51.9564 157.935 52.0194 157.594 52.1321 157.276C52.2448 156.951 52.4072 156.669 52.6193 156.43C52.838 156.192 53.1131 156.003 53.4445 155.864C53.776 155.725 54.1704 155.655 54.6277 155.655C55.0917 155.655 55.4895 155.725 55.8209 155.864C56.1523 156.003 56.4241 156.192 56.6362 156.43C56.8549 156.669 57.0173 156.951 57.1234 157.276C57.2361 157.594 57.2991 157.935 57.3123 158.3C57.3256 158.485 57.3322 158.687 57.3322 158.906C57.3322 159.125 57.3322 159.344 57.3322 159.562C57.3322 159.775 57.3256 159.97 57.3123 160.149C57.2991 160.514 57.2394 160.858 57.1333 161.183C57.0273 161.501 56.8682 161.783 56.6561 162.028C56.444 162.274 56.1689 162.466 55.8308 162.605C55.4994 162.744 55.0984 162.814 54.6277 162.814ZM54.6277 161.67C55.0586 161.67 55.3735 161.531 55.5723 161.253C55.7778 160.968 55.8839 160.583 55.8905 160.099C55.9037 159.907 55.9104 159.715 55.9104 159.523C55.9104 159.324 55.9104 159.125 55.9104 158.926C55.9104 158.727 55.9037 158.538 55.8905 158.359C55.8839 157.889 55.7778 157.511 55.5723 157.226C55.3735 156.934 55.0586 156.788 54.6277 156.788C54.2035 156.788 53.8887 156.934 53.6832 157.226C53.4843 157.511 53.3783 157.889 53.365 158.359C53.365 158.538 53.3617 158.727 53.3551 158.926C53.3551 159.125 53.3551 159.324 53.3551 159.523C53.3617 159.715 53.365 159.907 53.365 160.099C53.3783 160.583 53.4876 160.968 53.6931 161.253C53.8986 161.531 54.2101 161.67 54.6277 161.67ZM60.7846 163.709C60.7183 163.709 60.662 163.685 60.6156 163.639C60.5692 163.593 60.546 163.536 60.546 163.47V162.774C60.0555 162.728 59.6412 162.612 59.3031 162.426C58.9651 162.234 58.7099 162.005 58.5375 161.74C58.3652 161.468 58.2724 161.186 58.2591 160.895C58.2591 160.835 58.279 160.785 58.3188 160.746C58.3652 160.706 58.4182 160.686 58.4779 160.686H59.3628C59.4423 160.686 59.5053 160.706 59.5517 160.746C59.5981 160.779 59.6346 160.822 59.6611 160.875C59.7075 161.001 59.7837 161.127 59.8898 161.253C60.0025 161.372 60.1582 161.471 60.3571 161.551C60.5559 161.631 60.8045 161.67 61.1028 161.67C61.5801 161.67 61.9347 161.591 62.1667 161.432C62.3987 161.273 62.5147 161.057 62.5147 160.785C62.5147 160.593 62.4517 160.441 62.3258 160.328C62.2065 160.209 62.0142 160.103 61.7491 160.01C61.4839 159.91 61.1359 159.808 60.7051 159.702C60.2146 159.582 59.8003 159.44 59.4622 159.274C59.1242 159.102 58.869 158.886 58.6966 158.628C58.5309 158.369 58.4481 158.041 58.4481 157.643C58.4481 157.133 58.6337 156.699 59.0049 156.341C59.3761 155.983 59.8898 155.764 60.546 155.685V154.999C60.546 154.932 60.5692 154.876 60.6156 154.83C60.662 154.783 60.7183 154.76 60.7846 154.76H61.3911C61.4574 154.76 61.5138 154.783 61.5602 154.83C61.6066 154.876 61.6298 154.932 61.6298 154.999V155.705C62.0805 155.771 62.4583 155.903 62.7633 156.102C63.0682 156.301 63.3002 156.53 63.4593 156.788C63.6183 157.04 63.7012 157.286 63.7078 157.524C63.7078 157.577 63.6879 157.627 63.6482 157.673C63.615 157.713 63.5653 157.733 63.499 157.733H62.5743C62.5147 157.733 62.4583 157.72 62.4053 157.693C62.3523 157.667 62.3092 157.617 62.2761 157.544C62.2429 157.339 62.117 157.163 61.8982 157.017C61.6795 156.871 61.3945 156.798 61.0431 156.798C60.6852 156.798 60.3969 156.865 60.1781 156.997C59.966 157.13 59.8599 157.335 59.8599 157.614C59.8599 157.799 59.913 157.955 60.019 158.081C60.1251 158.2 60.2974 158.306 60.5361 158.399C60.7813 158.492 61.1061 158.591 61.5105 158.697C62.0739 158.823 62.5313 158.969 62.8826 159.135C63.2405 159.301 63.5023 159.513 63.6681 159.771C63.8404 160.023 63.9266 160.345 63.9266 160.736C63.9266 161.12 63.8305 161.458 63.6382 161.75C63.4526 162.035 63.1875 162.267 62.8428 162.446C62.4981 162.618 62.0938 162.731 61.6298 162.784V163.47C61.6298 163.536 61.6066 163.593 61.5602 163.639C61.5138 163.685 61.4574 163.709 61.3911 163.709H60.7846ZM69.3265 162.386C69.2602 162.386 69.2038 162.363 69.1574 162.317C69.111 162.27 69.0878 162.214 69.0878 162.148V160.209H67.1788C67.1125 160.209 67.0562 160.186 67.0098 160.139C66.9634 160.093 66.9402 160.036 66.9402 159.97V159.443C66.9402 159.37 66.9634 159.314 67.0098 159.274C67.0562 159.228 67.1125 159.205 67.1788 159.205H69.0878V157.315C69.0878 157.249 69.111 157.193 69.1574 157.146C69.2038 157.1 69.2602 157.077 69.3265 157.077H69.9032C69.9761 157.077 70.0324 157.1 70.0722 157.146C70.1186 157.193 70.1418 157.249 70.1418 157.315V159.205H72.0508C72.1171 159.205 72.1734 159.228 72.2198 159.274C72.2662 159.314 72.2894 159.37 72.2894 159.443V159.97C72.2894 160.036 72.2662 160.093 72.2198 160.139C72.1734 160.186 72.1171 160.209 72.0508 160.209H70.1418V162.148C70.1418 162.214 70.1186 162.27 70.0722 162.317C70.0324 162.363 69.9761 162.386 69.9032 162.386H69.3265ZM9.09425 174.714C9.02796 174.714 8.97162 174.691 8.92522 174.645C8.87882 174.598 8.85562 174.542 8.85562 174.476V168.003C8.85562 167.93 8.87882 167.87 8.92522 167.824C8.97162 167.778 9.02796 167.754 9.09425 167.754H13.4691C13.542 167.754 13.6017 167.778 13.6481 167.824C13.6945 167.87 13.7177 167.93 13.7177 168.003V168.659C13.7177 168.725 13.6945 168.782 13.6481 168.828C13.6017 168.875 13.542 168.898 13.4691 168.898H10.1979V170.658H13.2504C13.3233 170.658 13.3829 170.681 13.4293 170.727C13.4757 170.767 13.4989 170.823 13.4989 170.896V171.513C13.4989 171.586 13.4757 171.645 13.4293 171.692C13.3829 171.731 13.3233 171.751 13.2504 171.751H10.1979V173.571H13.5487C13.6216 173.571 13.6812 173.594 13.7276 173.641C13.774 173.687 13.7972 173.747 13.7972 173.819V174.476C13.7972 174.542 13.774 174.598 13.7276 174.645C13.6812 174.691 13.6216 174.714 13.5487 174.714H9.09425ZM14.7027 174.714C14.6431 174.714 14.59 174.694 14.5436 174.655C14.5039 174.608 14.484 174.555 14.484 174.496C14.484 174.476 14.4873 174.453 14.4939 174.426C14.5072 174.399 14.5271 174.366 14.5536 174.327L16.2439 172.06L14.6729 169.932C14.653 169.899 14.6364 169.869 14.6232 169.842C14.6166 169.816 14.6132 169.789 14.6132 169.763C14.6132 169.703 14.6331 169.653 14.6729 169.614C14.7193 169.567 14.7723 169.544 14.832 169.544H15.697C15.7766 169.544 15.8362 169.564 15.876 169.604C15.9158 169.643 15.9456 169.68 15.9655 169.713L17.089 171.205L18.2126 169.713C18.2391 169.68 18.2689 169.643 18.302 169.604C18.3418 169.564 18.4015 169.544 18.481 169.544H19.3063C19.3659 169.544 19.4156 169.567 19.4554 169.614C19.5018 169.653 19.525 169.7 19.525 169.753C19.525 169.786 19.5184 169.816 19.5051 169.842C19.4985 169.869 19.4852 169.899 19.4654 169.932L17.8745 172.079L19.5747 174.327C19.6012 174.366 19.6178 174.399 19.6244 174.426C19.6377 174.453 19.6443 174.476 19.6443 174.496C19.6443 174.555 19.6211 174.608 19.5747 174.655C19.535 174.694 19.4852 174.714 19.4256 174.714H18.5208C18.4479 174.714 18.3915 174.698 18.3518 174.665C18.312 174.625 18.2788 174.588 18.2523 174.555L17.0592 172.974L15.8462 174.555C15.8196 174.588 15.7865 174.625 15.7467 174.665C15.7136 174.698 15.6572 174.714 15.5777 174.714H14.7027ZM22.8703 174.714C22.4726 174.714 22.1379 174.645 21.8661 174.506C21.5943 174.366 21.3921 174.161 21.2596 173.889C21.127 173.611 21.0607 173.266 21.0607 172.855V170.598H20.2752C20.2089 170.598 20.1526 170.575 20.1062 170.528C20.0598 170.482 20.0366 170.426 20.0366 170.359V169.783C20.0366 169.716 20.0598 169.66 20.1062 169.614C20.1526 169.567 20.2089 169.544 20.2752 169.544H21.0607V167.894C21.0607 167.827 21.0806 167.771 21.1204 167.725C21.1668 167.678 21.2264 167.655 21.2993 167.655H22.1047C22.171 167.655 22.2273 167.678 22.2737 167.725C22.3201 167.771 22.3433 167.827 22.3433 167.894V169.544H23.5862C23.6525 169.544 23.7088 169.567 23.7552 169.614C23.8016 169.66 23.8248 169.716 23.8248 169.783V170.359C23.8248 170.426 23.8016 170.482 23.7552 170.528C23.7088 170.575 23.6525 170.598 23.5862 170.598H22.3433V172.756C22.3433 173.027 22.3897 173.239 22.4825 173.392C22.582 173.544 22.751 173.621 22.9896 173.621H23.6757C23.742 173.621 23.7983 173.644 23.8447 173.69C23.8911 173.737 23.9143 173.793 23.9143 173.859V174.476C23.9143 174.542 23.8911 174.598 23.8447 174.645C23.7983 174.691 23.742 174.714 23.6757 174.714H22.8703ZM25.035 174.714C24.9687 174.714 24.9124 174.691 24.866 174.645C24.8196 174.598 24.7964 174.542 24.7964 174.476V169.793C24.7964 169.72 24.8196 169.66 24.866 169.614C24.9124 169.567 24.9687 169.544 25.035 169.544H25.8404C25.9066 169.544 25.963 169.567 26.0094 169.614C26.0624 169.66 26.0889 169.72 26.0889 169.793V170.2C26.2414 169.988 26.4369 169.826 26.6756 169.713C26.9208 169.6 27.2025 169.544 27.5207 169.544H27.9284C28.0013 169.544 28.0576 169.567 28.0974 169.614C28.1438 169.66 28.167 169.716 28.167 169.783V170.499C28.167 170.565 28.1438 170.621 28.0974 170.668C28.0576 170.714 28.0013 170.737 27.9284 170.737H27.1528C26.8346 170.737 26.5861 170.827 26.4071 171.006C26.2348 171.185 26.1486 171.43 26.1486 171.741V174.476C26.1486 174.542 26.1254 174.598 26.079 174.645C26.0326 174.691 25.9729 174.714 25.9 174.714H25.035ZM30.3661 174.814C30.0215 174.814 29.7099 174.747 29.4315 174.615C29.1531 174.476 28.9311 174.293 28.7653 174.068C28.6063 173.836 28.5267 173.578 28.5267 173.293C28.5267 172.829 28.7123 172.461 29.0835 172.189C29.4613 171.91 29.9585 171.725 30.5749 171.632L31.9371 171.433V171.224C31.9371 170.946 31.8675 170.731 31.7283 170.578C31.5891 170.426 31.3505 170.349 31.0124 170.349C30.7738 170.349 30.5783 170.399 30.4258 170.499C30.28 170.591 30.1706 170.717 30.0977 170.876C30.0447 170.963 29.9684 171.006 29.869 171.006H29.0835C29.0106 171.006 28.9543 170.986 28.9145 170.946C28.8813 170.906 28.8648 170.853 28.8648 170.787C28.8714 170.681 28.9145 170.552 28.994 170.399C29.0736 170.247 29.1995 170.101 29.3719 169.962C29.5442 169.816 29.7663 169.693 30.038 169.594C30.3098 169.494 30.6379 169.445 31.0224 169.445C31.44 169.445 31.7913 169.498 32.0763 169.604C32.368 169.703 32.6 169.839 32.7723 170.011C32.9447 170.184 33.0706 170.386 33.1501 170.618C33.2297 170.85 33.2695 171.095 33.2695 171.354V174.476C33.2695 174.542 33.2463 174.598 33.1999 174.645C33.1535 174.691 33.0971 174.714 33.0308 174.714H32.2255C32.1525 174.714 32.0929 174.691 32.0465 174.645C32.0067 174.598 31.9868 174.542 31.9868 174.476V174.088C31.9007 174.214 31.7847 174.333 31.6388 174.446C31.493 174.552 31.314 174.641 31.1019 174.714C30.8964 174.781 30.6512 174.814 30.3661 174.814ZM30.7042 173.869C30.9362 173.869 31.145 173.819 31.3306 173.72C31.5228 173.621 31.672 173.468 31.778 173.263C31.8907 173.051 31.9471 172.785 31.9471 172.467V172.258L30.9528 172.418C30.5617 172.477 30.27 172.573 30.0778 172.706C29.8856 172.838 29.7895 173.001 29.7895 173.193C29.7895 173.339 29.8325 173.465 29.9187 173.571C30.0115 173.67 30.1275 173.747 30.2667 173.8C30.4059 173.846 30.5517 173.869 30.7042 173.869ZM39.0443 175.709C38.978 175.709 38.9217 175.685 38.8753 175.639C38.8289 175.593 38.8057 175.536 38.8057 175.47V174.774C38.3152 174.728 37.9009 174.612 37.5628 174.426C37.2248 174.234 36.9696 174.005 36.7972 173.74C36.6249 173.468 36.5321 173.186 36.5188 172.895C36.5188 172.835 36.5387 172.785 36.5785 172.746C36.6249 172.706 36.6779 172.686 36.7376 172.686H37.6225C37.702 172.686 37.765 172.706 37.8114 172.746C37.8578 172.779 37.8943 172.822 37.9208 172.875C37.9672 173.001 38.0434 173.127 38.1495 173.253C38.2622 173.372 38.4179 173.471 38.6168 173.551C38.8156 173.631 39.0642 173.67 39.3625 173.67C39.8398 173.67 40.1944 173.591 40.4264 173.432C40.6584 173.273 40.7744 173.057 40.7744 172.785C40.7744 172.593 40.7114 172.441 40.5855 172.328C40.4662 172.209 40.2739 172.103 40.0088 172.01C39.7436 171.91 39.3956 171.808 38.9648 171.702C38.4743 171.582 38.06 171.44 37.7219 171.274C37.3839 171.102 37.1287 170.886 36.9563 170.628C36.7906 170.369 36.7078 170.041 36.7078 169.643C36.7078 169.133 36.8934 168.699 37.2646 168.341C37.6358 167.983 38.1495 167.764 38.8057 167.685V166.999C38.8057 166.932 38.8289 166.876 38.8753 166.83C38.9217 166.783 38.978 166.76 39.0443 166.76H39.6508C39.7171 166.76 39.7735 166.783 39.8199 166.83C39.8663 166.876 39.8895 166.932 39.8895 166.999V167.705C40.3402 167.771 40.718 167.903 41.023 168.102C41.3279 168.301 41.5599 168.53 41.719 168.788C41.878 169.04 41.9609 169.286 41.9675 169.524C41.9675 169.577 41.9476 169.627 41.9079 169.673C41.8747 169.713 41.825 169.733 41.7587 169.733H40.834C40.7744 169.733 40.718 169.72 40.665 169.693C40.612 169.667 40.5689 169.617 40.5358 169.544C40.5026 169.339 40.3767 169.163 40.1579 169.017C39.9392 168.871 39.6542 168.798 39.3028 168.798C38.9449 168.798 38.6566 168.865 38.4378 168.997C38.2257 169.13 38.1196 169.335 38.1196 169.614C38.1196 169.799 38.1727 169.955 38.2787 170.081C38.3848 170.2 38.5571 170.306 38.7958 170.399C39.041 170.492 39.3658 170.591 39.7702 170.697C40.3336 170.823 40.791 170.969 41.1423 171.135C41.5002 171.301 41.762 171.513 41.9278 171.771C42.1001 172.023 42.1863 172.345 42.1863 172.736C42.1863 173.12 42.0902 173.458 41.8979 173.75C41.7123 174.035 41.4472 174.267 41.1025 174.446C40.7578 174.618 40.3535 174.731 39.8895 174.784V175.47C39.8895 175.536 39.8663 175.593 39.8199 175.639C39.7735 175.685 39.7171 175.709 39.6508 175.709H39.0443ZM43.9917 174.714C43.932 174.714 43.8823 174.694 43.8425 174.655C43.8028 174.608 43.7829 174.555 43.7829 174.496C43.7829 174.469 43.7895 174.439 43.8028 174.406L46.199 168.938H43.0769C43.004 168.938 42.9444 168.914 42.898 168.868C42.8582 168.822 42.8383 168.765 42.8383 168.699V168.003C42.8383 167.93 42.8582 167.87 42.898 167.824C42.9444 167.778 43.004 167.754 43.0769 167.754H47.4418C47.5148 167.754 47.5711 167.778 47.6109 167.824C47.6573 167.87 47.6805 167.93 47.6805 168.003V168.619C47.6805 168.712 47.6705 168.792 47.6506 168.858C47.6374 168.918 47.6175 168.981 47.591 169.047L45.2146 174.476C45.1948 174.522 45.1583 174.575 45.1053 174.635C45.0589 174.688 44.9893 174.714 44.8965 174.714H43.9917ZM53.6808 174.814C53.0644 174.814 52.5407 174.708 52.1099 174.496C51.6856 174.277 51.3608 173.969 51.1355 173.571C50.9101 173.167 50.7842 172.683 50.7576 172.119C50.751 171.847 50.7477 171.556 50.7477 171.244C50.7477 170.933 50.751 170.634 50.7576 170.349C50.7842 169.793 50.9101 169.312 51.1355 168.908C51.3675 168.503 51.6956 168.195 52.1198 167.983C52.5507 167.764 53.071 167.655 53.6808 167.655C54.1316 167.655 54.5359 167.715 54.8939 167.834C55.2518 167.953 55.5567 168.119 55.8086 168.331C56.0605 168.537 56.256 168.778 56.3952 169.057C56.5344 169.335 56.6074 169.637 56.614 169.962C56.6206 170.021 56.6007 170.071 56.5543 170.111C56.5146 170.151 56.4648 170.17 56.4052 170.17H55.4606C55.3877 170.17 55.328 170.154 55.2816 170.121C55.2352 170.081 55.2021 170.018 55.1822 169.932C55.0762 169.494 54.8939 169.196 54.6354 169.037C54.3768 168.878 54.0554 168.798 53.6709 168.798C53.2268 168.798 52.8722 168.924 52.607 169.176C52.3419 169.421 52.1994 169.829 52.1795 170.399C52.1596 170.943 52.1596 171.499 52.1795 172.07C52.1994 172.64 52.3419 173.051 52.607 173.302C52.8722 173.548 53.2268 173.67 53.6709 173.67C54.0554 173.67 54.3768 173.591 54.6354 173.432C54.8939 173.266 55.0762 172.968 55.1822 172.537C55.2021 172.444 55.2352 172.381 55.2816 172.348C55.328 172.315 55.3877 172.298 55.4606 172.298H56.4052C56.4648 172.298 56.5146 172.318 56.5543 172.358C56.6007 172.398 56.6206 172.447 56.614 172.507C56.6074 172.832 56.5344 173.133 56.3952 173.412C56.256 173.69 56.0605 173.935 55.8086 174.148C55.5567 174.353 55.2518 174.515 54.8939 174.635C54.5359 174.754 54.1316 174.814 53.6808 174.814ZM57.9125 174.714C57.8462 174.714 57.7898 174.691 57.7434 174.645C57.697 174.598 57.6738 174.542 57.6738 174.476V169.793C57.6738 169.72 57.697 169.66 57.7434 169.614C57.7898 169.567 57.8462 169.544 57.9125 169.544H58.7178C58.7841 169.544 58.8405 169.567 58.8869 169.614C58.9399 169.66 58.9664 169.72 58.9664 169.793V170.2C59.1189 169.988 59.3144 169.826 59.553 169.713C59.7983 169.6 60.08 169.544 60.3982 169.544H60.8058C60.8787 169.544 60.9351 169.567 60.9749 169.614C61.0213 169.66 61.0445 169.716 61.0445 169.783V170.499C61.0445 170.565 61.0213 170.621 60.9749 170.668C60.9351 170.714 60.8787 170.737 60.8058 170.737H60.0303C59.7121 170.737 59.4635 170.827 59.2846 171.006C59.1122 171.185 59.0261 171.43 59.0261 171.741V174.476C59.0261 174.542 59.0029 174.598 58.9565 174.645C58.9101 174.691 58.8504 174.714 58.7775 174.714H57.9125ZM63.9792 174.814C63.2434 174.814 62.6601 174.602 62.2292 174.177C61.7984 173.753 61.5664 173.15 61.5332 172.368C61.5266 172.302 61.5233 172.219 61.5233 172.119C61.5233 172.013 61.5266 171.93 61.5332 171.871C61.5597 171.374 61.6724 170.943 61.8713 170.578C62.0768 170.214 62.3585 169.935 62.7164 169.743C63.0744 169.544 63.4953 169.445 63.9792 169.445C64.5161 169.445 64.9668 169.557 65.3314 169.783C65.696 170.001 65.971 170.31 66.1566 170.707C66.3422 171.098 66.435 171.553 66.435 172.07V172.278C66.435 172.345 66.4118 172.401 66.3654 172.447C66.319 172.494 66.2594 172.517 66.1865 172.517H62.8854C62.8854 172.517 62.8854 172.527 62.8854 172.547C62.8854 172.567 62.8854 172.583 62.8854 172.597C62.8921 172.829 62.9352 173.044 63.0147 173.243C63.1009 173.435 63.2235 173.591 63.3826 173.71C63.5483 173.829 63.7438 173.889 63.9692 173.889C64.1548 173.889 64.3106 173.863 64.4365 173.81C64.5625 173.75 64.6652 173.684 64.7448 173.611C64.8243 173.538 64.8806 173.478 64.9138 173.432C64.9734 173.352 65.0198 173.306 65.053 173.293C65.0928 173.273 65.1491 173.263 65.222 173.263H66.0771C66.1434 173.263 66.1964 173.283 66.2362 173.322C66.2826 173.362 66.3025 173.412 66.2958 173.471C66.2892 173.578 66.2329 173.707 66.1268 173.859C66.0274 174.012 65.8816 174.161 65.6893 174.307C65.4971 174.453 65.2552 174.575 64.9635 174.675C64.6785 174.767 64.3504 174.814 63.9792 174.814ZM62.8854 171.682H65.0828V171.652C65.0828 171.393 65.0397 171.168 64.9536 170.976C64.8674 170.784 64.7414 170.631 64.5757 170.518C64.41 170.406 64.2112 170.349 63.9792 170.349C63.7472 170.349 63.5483 170.406 63.3826 170.518C63.2169 170.631 63.0909 170.784 63.0048 170.976C62.9252 171.168 62.8854 171.393 62.8854 171.652V171.682ZM69.4094 174.814C69.0647 174.814 68.7598 174.757 68.4947 174.645C68.2362 174.525 68.0207 174.36 67.8484 174.148C67.6761 173.935 67.5435 173.687 67.4507 173.402C67.3579 173.11 67.3049 172.792 67.2916 172.447C67.285 172.328 67.2817 172.222 67.2817 172.129C67.2817 172.03 67.285 171.92 67.2916 171.801C67.3049 171.47 67.3546 171.161 67.4407 170.876C67.5335 170.591 67.6661 170.343 67.8385 170.131C68.0174 169.912 68.2362 169.743 68.4947 169.624C68.7598 169.504 69.0647 169.445 69.4094 169.445C69.7674 169.445 70.069 169.508 70.3142 169.634C70.5661 169.753 70.7749 169.909 70.9406 170.101V167.894C70.9406 167.827 70.9605 167.771 71.0003 167.725C71.0467 167.678 71.1063 167.655 71.1793 167.655H72.0244C72.0907 167.655 72.147 167.678 72.1934 167.725C72.2398 167.771 72.263 167.827 72.263 167.894V174.476C72.263 174.542 72.2398 174.598 72.1934 174.645C72.147 174.691 72.0907 174.714 72.0244 174.714H71.2389C71.166 174.714 71.1063 174.691 71.0599 174.645C71.0202 174.598 71.0003 174.542 71.0003 174.476V174.108C70.8346 174.313 70.6225 174.482 70.3639 174.615C70.1121 174.747 69.7939 174.814 69.4094 174.814ZM69.7773 173.75C70.0557 173.75 70.2778 173.687 70.4435 173.561C70.6092 173.435 70.7318 173.276 70.8114 173.084C70.8909 172.885 70.934 172.683 70.9406 172.477C70.9473 172.358 70.9506 172.232 70.9506 172.099C70.9506 171.96 70.9473 171.831 70.9406 171.712C70.934 171.513 70.8876 171.324 70.8014 171.145C70.7153 170.959 70.5893 170.807 70.4236 170.687C70.2579 170.568 70.0425 170.509 69.7773 170.509C69.4989 170.509 69.2769 170.571 69.1111 170.697C68.9521 170.817 68.8361 170.976 68.7631 171.175C68.6902 171.374 68.6471 171.592 68.6339 171.831C68.6273 172.03 68.6273 172.229 68.6339 172.427C68.6471 172.666 68.6902 172.885 68.7631 173.084C68.8361 173.283 68.9521 173.445 69.1111 173.571C69.2769 173.69 69.4989 173.75 69.7773 173.75ZM73.8269 174.714C73.7606 174.714 73.7042 174.691 73.6578 174.645C73.6114 174.598 73.5882 174.542 73.5882 174.476V169.783C73.5882 169.716 73.6114 169.66 73.6578 169.614C73.7042 169.567 73.7606 169.544 73.8269 169.544H74.6521C74.725 169.544 74.7814 169.567 74.8212 169.614C74.8676 169.66 74.8908 169.716 74.8908 169.783V174.476C74.8908 174.542 74.8676 174.598 74.8212 174.645C74.7814 174.691 74.725 174.714 74.6521 174.714H73.8269ZM73.7871 168.689C73.7142 168.689 73.6545 168.669 73.6081 168.629C73.5684 168.583 73.5485 168.523 73.5485 168.45V167.734C73.5485 167.668 73.5684 167.612 73.6081 167.565C73.6545 167.519 73.7142 167.496 73.7871 167.496H74.6919C74.7648 167.496 74.8245 167.519 74.8709 167.565C74.9173 167.612 74.9405 167.668 74.9405 167.734V168.45C74.9405 168.523 74.9173 168.583 74.8709 168.629C74.8245 168.669 74.7648 168.689 74.6919 168.689H73.7871ZM78.5465 174.714C78.1487 174.714 77.814 174.645 77.5422 174.506C77.2705 174.366 77.0683 174.161 76.9357 173.889C76.8031 173.611 76.7369 173.266 76.7369 172.855V170.598H75.9514C75.8851 170.598 75.8287 170.575 75.7823 170.528C75.7359 170.482 75.7127 170.426 75.7127 170.359V169.783C75.7127 169.716 75.7359 169.66 75.7823 169.614C75.8287 169.567 75.8851 169.544 75.9514 169.544H76.7369V167.894C76.7369 167.827 76.7567 167.771 76.7965 167.725C76.8429 167.678 76.9026 167.655 76.9755 167.655H77.7809C77.8471 167.655 77.9035 167.678 77.9499 167.725C77.9963 167.771 78.0195 167.827 78.0195 167.894V169.544H79.2623C79.3286 169.544 79.385 169.567 79.4314 169.614C79.4778 169.66 79.501 169.716 79.501 169.783V170.359C79.501 170.426 79.4778 170.482 79.4314 170.528C79.385 170.575 79.3286 170.598 79.2623 170.598H78.0195V172.756C78.0195 173.027 78.0659 173.239 78.1587 173.392C78.2581 173.544 78.4271 173.621 78.6658 173.621H79.3518C79.4181 173.621 79.4745 173.644 79.5209 173.69C79.5673 173.737 79.5905 173.793 79.5905 173.859V174.476C79.5905 174.542 79.5673 174.598 79.5209 174.645C79.4745 174.691 79.4181 174.714 79.3518 174.714H78.5465Z" fill="#1F0702"/>
<g filter="url(#filter0_d_2752_96034)">
<g clip-path="url(#clip1_2752_96034)">
<rect x="146.365" y="148.734" width="77.8172" height="34.8629" rx="17.4314" fill="#FCB962"/>
<circle cx="147.36" cy="181.209" r="0.994286" fill="#FDCB89"/>
<path d="M163.218 169.666C163.145 169.666 163.085 169.642 163.039 169.596C162.993 169.55 162.969 169.49 162.969 169.417V162.954C162.969 162.881 162.993 162.822 163.039 162.775C163.085 162.729 163.145 162.706 163.218 162.706H166.251C166.821 162.706 167.288 162.785 167.653 162.944C168.017 163.103 168.286 163.332 168.458 163.63C168.637 163.922 168.726 164.27 168.726 164.674C168.726 164.913 168.68 165.125 168.587 165.311C168.501 165.49 168.392 165.639 168.259 165.758C168.133 165.877 168.014 165.963 167.901 166.016C168.153 166.136 168.375 166.331 168.567 166.603C168.766 166.875 168.866 167.193 168.866 167.558C168.866 167.995 168.766 168.373 168.567 168.691C168.375 169.003 168.09 169.245 167.712 169.417C167.341 169.583 166.884 169.666 166.34 169.666H163.218ZM164.749 168.373H166.141C166.426 168.373 166.642 168.29 166.787 168.124C166.933 167.959 167.006 167.77 167.006 167.558C167.006 167.326 166.93 167.13 166.778 166.971C166.632 166.812 166.42 166.732 166.141 166.732H164.749V168.373ZM164.749 165.47H166.052C166.323 165.47 166.526 165.4 166.658 165.261C166.797 165.122 166.867 164.943 166.867 164.724C166.867 164.512 166.797 164.339 166.658 164.207C166.526 164.068 166.323 163.998 166.052 163.998H164.749V165.47ZM172.883 169.765C172.287 169.765 171.763 169.669 171.313 169.477C170.868 169.278 170.524 168.976 170.278 168.572C170.033 168.161 169.911 167.64 169.911 167.011V162.954C169.911 162.881 169.934 162.822 169.98 162.775C170.027 162.729 170.086 162.706 170.159 162.706H171.442C171.515 162.706 171.574 162.729 171.621 162.775C171.667 162.822 171.69 162.881 171.69 162.954V167.001C171.69 167.432 171.793 167.756 171.999 167.975C172.211 168.187 172.506 168.293 172.883 168.293C173.255 168.293 173.543 168.187 173.749 167.975C173.961 167.756 174.067 167.432 174.067 167.001V162.954C174.067 162.881 174.09 162.822 174.136 162.775C174.189 162.729 174.249 162.706 174.315 162.706H175.608C175.674 162.706 175.73 162.729 175.777 162.775C175.83 162.822 175.856 162.881 175.856 162.954V167.011C175.856 167.64 175.734 168.161 175.489 168.572C175.243 168.976 174.899 169.278 174.454 169.477C174.01 169.669 173.487 169.765 172.883 169.765ZM179.213 169.666C179.147 169.666 179.087 169.642 179.034 169.596C178.988 169.55 178.965 169.49 178.965 169.417V167.279L176.658 163.024C176.651 163.004 176.645 162.987 176.638 162.974C176.631 162.954 176.628 162.934 176.628 162.914C176.628 162.861 176.648 162.815 176.688 162.775C176.734 162.729 176.787 162.706 176.847 162.706H178.09C178.189 162.706 178.265 162.732 178.318 162.785C178.378 162.831 178.414 162.875 178.428 162.914L179.859 165.48L181.291 162.914C181.311 162.875 181.348 162.831 181.401 162.785C181.46 162.732 181.54 162.706 181.639 162.706H182.882C182.942 162.706 182.991 162.729 183.031 162.775C183.071 162.815 183.091 162.861 183.091 162.914C183.091 162.934 183.088 162.954 183.081 162.974C183.081 162.987 183.078 163.004 183.071 163.024L180.754 167.279V169.417C180.754 169.49 180.731 169.55 180.685 169.596C180.638 169.642 180.579 169.666 180.506 169.666H179.213ZM186.026 169.666C185.953 169.666 185.894 169.642 185.847 169.596C185.801 169.55 185.778 169.49 185.778 169.417V162.954C185.778 162.881 185.801 162.822 185.847 162.775C185.894 162.729 185.953 162.706 186.026 162.706H187.08C187.193 162.706 187.273 162.732 187.319 162.785C187.372 162.831 187.405 162.868 187.418 162.894L189.844 166.722V162.954C189.844 162.881 189.868 162.822 189.914 162.775C189.96 162.729 190.02 162.706 190.093 162.706H191.286C191.359 162.706 191.419 162.729 191.465 162.775C191.512 162.822 191.535 162.881 191.535 162.954V169.417C191.535 169.483 191.512 169.543 191.465 169.596C191.419 169.642 191.359 169.666 191.286 169.666H190.222C190.116 169.666 190.037 169.639 189.984 169.586C189.937 169.533 189.907 169.496 189.894 169.477L187.468 165.798V169.417C187.468 169.49 187.445 169.55 187.399 169.596C187.352 169.642 187.292 169.666 187.22 169.666H186.026ZM195.768 169.765C195.158 169.765 194.628 169.666 194.177 169.467C193.726 169.268 193.375 168.97 193.123 168.572C192.871 168.167 192.732 167.664 192.706 167.06C192.699 166.775 192.696 166.49 192.696 166.205C192.696 165.92 192.699 165.632 192.706 165.34C192.732 164.744 192.871 164.243 193.123 163.839C193.382 163.428 193.736 163.12 194.187 162.914C194.638 162.709 195.165 162.606 195.768 162.606C196.364 162.606 196.888 162.709 197.339 162.914C197.796 163.12 198.154 163.428 198.413 163.839C198.671 164.243 198.81 164.744 198.83 165.34C198.844 165.632 198.85 165.92 198.85 166.205C198.85 166.49 198.844 166.775 198.83 167.06C198.804 167.664 198.665 168.167 198.413 168.572C198.161 168.97 197.81 169.268 197.359 169.467C196.908 169.666 196.378 169.765 195.768 169.765ZM195.768 168.333C196.119 168.333 196.404 168.227 196.623 168.015C196.848 167.803 196.968 167.465 196.981 167.001C196.994 166.709 197.001 166.434 197.001 166.176C197.001 165.917 196.994 165.649 196.981 165.37C196.968 165.059 196.908 164.807 196.802 164.615C196.703 164.416 196.563 164.27 196.384 164.177C196.205 164.084 196 164.038 195.768 164.038C195.543 164.038 195.34 164.084 195.161 164.177C194.982 164.27 194.84 164.416 194.734 164.615C194.628 164.807 194.568 165.059 194.555 165.37C194.548 165.649 194.545 165.917 194.545 166.176C194.545 166.434 194.548 166.709 194.555 167.001C194.575 167.465 194.694 167.803 194.913 168.015C195.132 168.227 195.417 168.333 195.768 168.333ZM201.039 169.666C200.926 169.666 200.836 169.632 200.77 169.566C200.704 169.5 200.664 169.424 200.651 169.337L199.567 162.984C199.56 162.971 199.557 162.957 199.557 162.944C199.557 162.931 199.557 162.921 199.557 162.914C199.557 162.861 199.577 162.815 199.617 162.775C199.663 162.729 199.713 162.706 199.766 162.706H200.999C201.184 162.706 201.287 162.778 201.307 162.924L201.953 166.812L202.669 164.515C202.689 164.462 202.722 164.406 202.769 164.346C202.815 164.28 202.891 164.247 202.997 164.247H203.713C203.826 164.247 203.905 164.28 203.952 164.346C203.998 164.406 204.028 164.462 204.041 164.515L204.757 166.802L205.404 162.924C205.423 162.778 205.526 162.706 205.712 162.706H206.945C207.004 162.706 207.054 162.729 207.094 162.775C207.134 162.815 207.154 162.861 207.154 162.914C207.154 162.921 207.154 162.931 207.154 162.944C207.154 162.957 207.154 162.971 207.154 162.984L206.07 169.337C206.056 169.424 206.017 169.5 205.95 169.566C205.884 169.632 205.795 169.666 205.682 169.666H204.737C204.625 169.666 204.539 169.636 204.479 169.576C204.419 169.516 204.379 169.46 204.36 169.407L203.355 166.563L202.351 169.407C202.331 169.46 202.291 169.516 202.232 169.576C202.179 169.636 202.096 169.666 201.983 169.666H201.039Z" fill="#44140A"/>
</g>
</g>
<defs>
<filter id="filter0_d_2752_96034" x="139.737" y="146.083" width="91.0736" height="48.1199" filterUnits="userSpaceOnUse" color-interpolation-filters="sRGB">
<feFlood flood-opacity="0" result="BackgroundImageFix"/>
<feColorMatrix in="SourceAlpha" type="matrix" values="0 0 0 0 0 0 0 0 0 0 0 0 0 0 0 0 0 0 127 0" result="hardAlpha"/>
<feOffset dy="3.97714"/>
<feGaussianBlur stdDeviation="3.31429"/>
<feComposite in2="hardAlpha" operator="out"/>
<feColorMatrix type="matrix" values="0 0 0 0 0.984314 0 0 0 0 0.658824 0 0 0 0 0.231373 0 0 0 0.24 0"/>
<feBlend mode="normal" in2="BackgroundImageFix" result="effect1_dropShadow_2752_96034"/>
<feBlend mode="normal" in="SourceGraphic" in2="effect1_dropShadow_2752_96034" result="shape"/>
</filter>
<clipPath id="clip0_2752_96034">
<path d="M0 21.2114C0 11.2123 0 6.21269 3.10634 3.10634C6.21269 0 11.2123 0 21.2114 0H210.789C220.788 0 225.787 0 228.894 3.10634C232 6.21269 232 11.2123 232 21.2114V141.189H0V21.2114Z" fill="white"/>
</clipPath>
<clipPath id="clip1_2752_96034">
<rect x="146.365" y="148.734" width="77.8172" height="34.8629" rx="17.4314" fill="white"/>
</clipPath>
</defs>
</svg>
