<svg width="177" height="327" viewBox="0 0 177 327" fill="none" xmlns="http://www.w3.org/2000/svg">
<g clip-path="url(#clip0_2769_94507)">
<rect width="176.146" height="327" rx="12" fill="#44140A"/>
<rect width="176.146" height="52.3923" fill="#1F0702"/>
<rect width="176.146" height="19.8729" fill="white" fill-opacity="0.9"/>
<path d="M16.8078 7.43163C17.8267 7.43163 18.7133 8.15609 18.7133 9.87627V9.88289C18.7133 11.4906 17.9888 12.4433 16.788 12.4433C15.9114 12.4433 15.2564 11.9239 15.1042 11.1929L15.0976 11.1565H15.9378L15.9478 11.1896C16.0735 11.5237 16.3679 11.742 16.788 11.742C17.5455 11.742 17.8664 11.001 17.9028 10.088C17.9028 10.0516 17.9061 10.0152 17.9061 9.97882H17.84C17.6646 10.3559 17.2478 10.69 16.5928 10.69C15.6765 10.69 15.0347 10.0218 15.0347 9.11542V9.10881C15.0347 8.13955 15.7724 7.43163 16.8078 7.43163ZM16.8045 10.0351C17.3437 10.0351 17.7572 9.64471 17.7572 9.1055V9.09888C17.7572 8.55306 17.3437 8.12632 16.8145 8.12632C16.2885 8.12632 15.8684 8.54644 15.8684 9.07903V9.08565C15.8684 9.63809 16.262 10.0351 16.8045 10.0351ZM20.0796 9.2312C19.7786 9.2312 19.5536 8.99964 19.5536 8.70853C19.5536 8.41412 19.7786 8.18586 20.0796 8.18586C20.384 8.18586 20.6056 8.41412 20.6056 8.70853C20.6056 8.99964 20.384 9.2312 20.0796 9.2312ZM20.0796 11.6858C19.7786 11.6858 19.5536 11.4575 19.5536 11.1631C19.5536 10.8687 19.7786 10.6404 20.0796 10.6404C20.384 10.6404 20.6056 10.8687 20.6056 11.1631C20.6056 11.4575 20.384 11.6858 20.0796 11.6858ZM23.7616 12.3242V11.4079H21.4261V10.7099C22.0447 9.63478 22.7229 8.53652 23.3713 7.55072H24.5787V10.7033H25.2204V11.4079H24.5787V12.3242H23.7616ZM22.2201 10.7231H23.7748V8.23218H23.7252C23.2356 8.97979 22.6832 9.86304 22.2201 10.6735V10.7231ZM27.0632 12.3242V8.39096H27.0069L25.8193 9.2312V8.42735L27.0665 7.55072H27.9166V12.3242H27.0632Z" fill="#1F0702"/>
<rect opacity="0.35" x="158.909" y="8.05395" width="9.48481" height="4.66713" rx="0.978591" fill="#1F0702" stroke="white" stroke-width="0.451657"/>
<path opacity="0.4" d="M169.07 9.48438V11.291C169.434 11.138 169.67 10.782 169.67 10.3877C169.67 9.99333 169.434 9.63739 169.07 9.48438" fill="#1F0702"/>
<rect x="159.588" y="8.73242" width="8.12983" height="3.31215" rx="0.60221" fill="#1F0702"/>
<path fill-rule="evenodd" clip-rule="evenodd" d="M152.961 8.85602C153.966 8.85606 154.932 9.24183 155.66 9.93358C155.715 9.98699 155.803 9.98632 155.857 9.93207L156.381 9.40349C156.408 9.37597 156.424 9.33871 156.423 9.29993C156.423 9.26116 156.408 9.22407 156.38 9.19688C154.468 7.36666 151.453 7.36666 149.542 9.19688C149.514 9.22405 149.498 9.26113 149.498 9.2999C149.498 9.33868 149.513 9.37595 149.54 9.40349L150.065 9.93207C150.119 9.9864 150.206 9.98707 150.261 9.93358C150.99 9.24178 151.956 8.85602 152.961 8.85602ZM152.96 10.5755C153.512 10.5755 154.045 10.7805 154.454 11.1508C154.509 11.2033 154.597 11.2022 154.65 11.1482L155.174 10.6196C155.202 10.5919 155.217 10.5543 155.217 10.5152C155.216 10.4761 155.2 10.4388 155.172 10.4116C153.926 9.25341 151.996 9.25341 150.75 10.4116C150.722 10.4388 150.705 10.4761 150.705 10.5152C150.705 10.5543 150.72 10.5919 150.748 10.6196L151.271 11.1482C151.325 11.2022 151.412 11.2033 151.468 11.1508C151.877 10.7807 152.409 10.5757 152.96 10.5755ZM154.01 11.7329C154.011 11.7721 153.995 11.8099 153.967 11.8373L153.062 12.7506C153.035 12.7774 152.999 12.7925 152.961 12.7925C152.923 12.7925 152.887 12.7774 152.861 12.7506L151.955 11.8373C151.927 11.8099 151.911 11.7721 151.912 11.7329C151.913 11.6937 151.93 11.6566 151.959 11.6303C152.537 11.1415 153.385 11.1415 153.963 11.6303C153.992 11.6566 154.009 11.6937 154.01 11.7329Z" fill="#1F0702"/>
<path fill-rule="evenodd" clip-rule="evenodd" d="M146.79 7.97852H146.338C146.089 7.97852 145.887 8.18073 145.887 8.43017V12.3445C145.887 12.594 146.089 12.7962 146.338 12.7962H146.79C147.039 12.7962 147.242 12.594 147.242 12.3445V8.43017C147.242 8.18073 147.039 7.97852 146.79 7.97852ZM144.229 9.03125H144.681C144.93 9.03125 145.132 9.23346 145.132 9.48291V12.3434C145.132 12.5928 144.93 12.7951 144.681 12.7951H144.229C143.98 12.7951 143.777 12.5928 143.777 12.3434V9.48291C143.777 9.23346 143.98 9.03125 144.229 9.03125ZM142.573 10.0861H142.122C141.872 10.0861 141.67 10.2883 141.67 10.5378V12.3444C141.67 12.5939 141.872 12.7961 142.122 12.7961H142.573C142.823 12.7961 143.025 12.5939 143.025 12.3444V10.5378C143.025 10.2883 142.823 10.0861 142.573 10.0861ZM140.466 10.9883H140.014C139.765 10.9883 139.562 11.1905 139.562 11.4399V12.3433C139.562 12.5927 139.765 12.7949 140.014 12.7949H140.466C140.715 12.7949 140.917 12.5927 140.917 12.3433V11.4399C140.917 11.1905 140.715 10.9883 140.466 10.9883Z" fill="#1F0702"/>
<rect width="176.146" height="32.5193" transform="translate(0 19.873)" fill="white"/>
<g clip-path="url(#clip1_2769_94507)">
<path d="M15.2099 39.324C14.4435 39.4334 13.8173 39.3327 13.3268 39.0305C12.8408 38.7284 12.5473 38.2423 12.4554 37.581C12.3678 36.9548 12.5036 36.438 12.8714 36.0308C13.2393 35.6235 13.7648 35.3651 14.4567 35.2688C15.0785 35.1812 15.5646 35.2294 15.9412 35.4177C16.3135 35.606 16.5281 35.9301 16.5937 36.3986C16.62 36.5913 16.5718 36.784 16.4492 36.9723C16.3266 37.1562 16.1558 37.3095 15.9325 37.4365C15.7091 37.5591 15.4727 37.6423 15.2099 37.6817C14.8815 37.7299 14.5574 37.6686 14.2333 37.511C14.172 37.4759 14.1326 37.4672 14.102 37.4978C14.0669 37.5285 14.0888 37.5723 14.1326 37.6292C14.2202 37.7781 14.3735 37.8788 14.5924 37.9445C14.8114 38.0058 15.026 38.0189 15.2493 37.9883C15.5427 37.9489 15.7792 37.8788 15.9631 37.7825C16.1471 37.6861 16.3266 37.5372 16.5062 37.3358C16.5587 37.2613 16.6156 37.2351 16.6857 37.2526C16.7558 37.2745 16.8039 37.3358 16.8346 37.4409C16.9353 37.8175 17.0229 38.1635 17.0798 38.4744C17.1105 38.5926 17.0798 38.6846 16.9966 38.759C16.6638 39.0087 16.0639 39.2013 15.2099 39.324ZM14.6406 37.1606C14.7238 37.1475 14.7895 37.1168 14.8377 37.0511C14.8858 36.9898 14.899 36.9198 14.8858 36.8322C14.8552 36.6132 14.7282 36.5213 14.5049 36.5519C14.3998 36.565 14.3209 36.6088 14.2596 36.6877C14.1939 36.7665 14.1677 36.8409 14.1808 36.9329C14.1939 37.0249 14.2465 37.0862 14.3428 37.1212C14.4392 37.1562 14.5443 37.1738 14.6406 37.1606Z" fill="#73382A"/>
<path d="M18.5409 38.8304C18.2475 38.8698 17.9147 38.9049 17.5468 38.9399C17.4899 38.9399 17.4374 38.9224 17.3892 38.8874C17.341 38.8523 17.3147 38.8042 17.306 38.7516C17.1308 37.5035 17.0257 36.3124 16.9863 35.165C16.9775 35.1168 16.9994 35.0687 17.0345 35.0293C17.0739 34.9855 17.1133 34.9636 17.1659 34.9417C17.3191 34.9023 17.595 34.8497 17.9804 34.7972C18.392 34.7402 18.6986 34.7008 18.8956 34.6921C18.9701 34.6877 19.027 34.7096 19.0796 34.7577C19.1277 34.8059 19.1453 34.8672 19.1409 34.9373C19.1277 35.3358 19.1453 35.7168 19.1978 36.0803C19.2066 36.1284 19.2241 36.1635 19.2416 36.181C19.2635 36.1985 19.2898 36.1985 19.3073 36.1722C19.3248 36.146 19.3379 36.1197 19.3379 36.0759C19.3555 35.5767 19.4255 35.1957 19.5613 34.9242C19.697 34.6526 19.9029 34.4994 20.1788 34.46C20.4765 34.4162 20.7349 34.4862 20.9495 34.6614C21.0283 34.7315 21.0721 34.8191 21.0809 34.9198C21.1028 35.2526 21.1334 35.7912 21.1641 36.5401C21.1641 36.6277 21.1334 36.689 21.0721 36.7196C21.0064 36.7547 20.9451 36.7372 20.8794 36.6846C20.7349 36.5883 20.6035 36.5138 20.4765 36.47C20.3539 36.4262 20.2007 36.4175 20.0342 36.4394C19.8503 36.4656 19.6927 36.562 19.5613 36.724C19.4299 36.8861 19.373 37.0744 19.4036 37.2802C19.4474 37.6042 19.5394 37.9677 19.6751 38.375C19.697 38.4407 19.6927 38.4976 19.6576 38.5502C19.6226 38.6027 19.57 38.6421 19.5131 38.664C19.3861 38.6947 19.0664 38.7516 18.5497 38.826L18.5409 38.8304Z" fill="#73382A"/>
<path d="M23.7959 38.115C23.4719 38.1588 23.1303 38.1851 22.7537 38.1938C22.3771 38.2026 22.0442 38.1895 21.7465 38.1544C21.6589 38.1413 21.6063 38.0931 21.5888 38.0012C21.5275 37.6464 21.4706 37.2392 21.4136 36.7881C21.4005 36.7093 21.4311 36.648 21.5012 36.6217C21.5713 36.591 21.6326 36.5954 21.707 36.6348C22.1493 36.8188 22.5741 36.8845 22.9902 36.8275C23.3186 36.7794 23.4631 36.6786 23.4412 36.521C23.4325 36.4728 23.393 36.4334 23.3186 36.4159C23.2485 36.394 23.1522 36.3765 23.0383 36.3721C22.9245 36.3677 22.8018 36.3633 22.6705 36.3546C22.5391 36.3502 22.399 36.3283 22.2676 36.2976C22.1318 36.267 22.0048 36.2232 21.8822 36.1663C21.764 36.1093 21.6589 36.0174 21.5713 35.8948C21.4837 35.7721 21.4268 35.6189 21.4005 35.4349C21.3479 35.0539 21.4706 34.743 21.7684 34.5197C22.0661 34.2963 22.5391 34.1387 23.196 34.0467C23.8529 33.9548 24.4528 33.9197 24.9608 33.9548C25.0484 33.9679 25.1053 34.0161 25.1228 34.0949C25.2323 34.5635 25.3111 34.905 25.3593 35.1284C25.3681 35.2028 25.3549 35.2598 25.3024 35.2992C25.2498 35.3386 25.1841 35.3386 25.1097 35.2992C24.7813 35.1985 24.4484 35.1634 24.1112 35.2028C23.6996 35.2554 23.5025 35.3561 23.5244 35.5094C23.5332 35.5663 23.5726 35.6013 23.6602 35.6189C23.7434 35.6364 23.8441 35.6539 23.9755 35.6627C24.1069 35.667 24.2426 35.667 24.3959 35.6714C24.5492 35.6758 24.7024 35.6889 24.8601 35.7196C25.0177 35.7459 25.1622 35.794 25.298 35.851C25.4381 35.9079 25.5476 36.0042 25.6483 36.1312C25.7491 36.2582 25.806 36.4115 25.8323 36.5998C25.8848 36.9896 25.7403 37.3136 25.39 37.5808C25.0352 37.8479 24.5097 38.0274 23.8134 38.1238L23.7959 38.115Z" fill="#73382A"/>
<path d="M28.5478 37.4509C27.7815 37.5604 27.1552 37.4597 26.6648 37.1575C26.1787 36.8553 25.8853 36.3692 25.7933 35.708C25.7057 35.0817 25.8415 34.565 26.205 34.1577C26.5684 33.7461 27.0983 33.4921 27.7902 33.3957C28.4121 33.3082 28.8982 33.3563 29.2748 33.5446C29.647 33.7329 29.8616 34.057 29.9273 34.5256C29.9536 34.7183 29.9054 34.911 29.7828 35.0993C29.6602 35.2832 29.4894 35.4365 29.266 35.5635C29.0427 35.6861 28.8062 35.7693 28.5435 35.8087C28.215 35.8569 27.891 35.7956 27.5669 35.6379C27.5056 35.6029 27.4662 35.5941 27.4355 35.6248C27.4005 35.6554 27.4224 35.6992 27.4662 35.7562C27.5538 35.905 27.707 36.0058 27.926 36.0715C28.1449 36.1328 28.3595 36.1459 28.5829 36.1152C28.8763 36.0758 29.1128 36.0058 29.2967 35.9094C29.4806 35.8131 29.6602 35.6642 29.8397 35.4627C29.8923 35.3883 29.9492 35.362 30.0193 35.3795C30.0893 35.4014 30.1375 35.4627 30.1681 35.5678C30.2689 35.9445 30.3565 36.2904 30.4134 36.6013C30.444 36.7196 30.4134 36.8115 30.3302 36.886C30.0017 37.1356 29.4018 37.3283 28.5478 37.4509ZM27.9785 35.2876C28.0617 35.2744 28.1274 35.2438 28.1756 35.1781C28.2238 35.1168 28.2369 35.0467 28.2238 34.9591C28.1931 34.7402 28.0661 34.6482 27.8428 34.6789C27.7377 34.692 27.6589 34.7358 27.5975 34.8146C27.5319 34.8934 27.5056 34.9679 27.5187 35.0599C27.5319 35.1518 27.5844 35.2131 27.6807 35.2482C27.7771 35.2832 27.8778 35.3007 27.9785 35.2876Z" fill="#73382A"/>
<path d="M33.0901 38.5136C32.4376 38.6231 31.7588 38.6319 31.0975 38.6363C31.0231 38.6363 30.9442 38.6363 30.8829 38.5925C30.7953 38.5312 30.7734 38.4085 30.7647 38.3034C30.7297 37.9181 30.6902 37.5327 30.6552 37.143C30.6508 37.0816 30.6465 37.0072 30.6859 36.9634C30.7472 36.8933 30.8567 36.9152 30.9486 36.9371C31.4478 37.0773 31.9865 37.1298 32.4901 36.9984C32.9937 36.8671 33.3616 36.5211 33.5367 36.2934C33.7119 36.0613 33.8345 35.781 33.852 35.5358C33.8564 35.4701 33.8608 35.3956 33.8214 35.3387C33.782 35.2818 33.69 35.2643 33.6506 35.3212C33.6331 35.3431 33.6331 35.3737 33.6287 35.4044C33.6156 35.5839 33.5849 35.6628 33.5367 35.8073C33.4667 36.0087 33.3747 36.1489 33.2302 36.3065C33.0594 36.4992 32.8142 36.6174 32.5689 36.6963C32.293 36.7882 31.9996 36.8408 31.7062 36.8145C31.4172 36.7882 31.1282 36.6831 30.9136 36.4861C30.6859 36.2759 30.5589 35.9825 30.4932 35.6803C30.4275 35.3781 30.4231 35.0716 30.4056 34.7607C30.3881 34.4191 30.3574 34.0775 30.3574 33.7315C30.3574 33.5607 30.3662 33.39 30.3881 33.2192C30.4056 33.0703 30.5764 33.0352 30.7034 33.009C31.2158 32.917 31.7325 32.8469 32.2492 32.7988C32.3149 32.7944 32.3894 32.79 32.4463 32.8207C32.5733 32.8907 32.5646 33.0659 32.5514 33.2104C32.512 33.5607 32.5076 33.9155 32.5427 34.2614C32.5645 34.4585 32.5952 34.6556 32.6872 34.8263C32.7485 34.9446 32.8711 35.0584 32.9981 35.0234C33.1207 34.9884 33.1645 34.8395 33.1733 34.7125C33.2258 34.1213 33.0156 33.5389 32.9193 32.952C32.9105 32.9039 32.9061 32.8513 32.9236 32.8075C32.9587 32.7243 33.055 32.6937 33.1426 32.6761C33.6506 32.5667 34.1717 32.4922 34.6885 32.4572C34.7848 32.4484 34.8943 32.4484 34.9644 32.5141C35.0213 32.5667 35.0388 32.6499 35.0563 32.7287C35.2227 33.5783 35.3848 34.4278 35.5468 35.2774C35.6519 35.8248 35.757 36.4072 35.5643 36.9327C35.3935 37.4013 34.9994 37.7648 34.5659 38.0144C34.106 38.2772 33.6068 38.4261 33.0901 38.5136Z" fill="#73382A"/>
<path d="M10.0249 35.519C9.74902 35.519 9.50378 35.3176 9.45999 35.0373C9.41182 34.7264 9.62202 34.433 9.93733 34.3804L20.5438 32.69C18.1659 32.7732 15.8668 32.8564 14.4873 32.944C14.1458 32.9659 13.8523 32.7163 13.8173 32.3791C13.7779 32.0419 14.0144 31.7354 14.3516 31.6828C14.356 31.6828 14.356 31.6828 14.3603 31.6828L33.988 28.8845C34.3033 28.8407 34.5923 29.0597 34.6361 29.3706C34.6799 29.6859 34.461 29.9749 34.15 30.0187L24.3625 31.4113C26.2324 31.3456 27.9447 31.2755 29.0439 31.2099C29.3811 31.188 29.6788 31.4376 29.7139 31.7748C29.7533 32.112 29.5168 32.4185 29.1796 32.4711L10.1125 35.5102C10.0818 35.5146 10.0556 35.519 10.0249 35.519Z" fill="#F6CC47"/>
<path d="M31.0794 25.9237C27.6856 25.7441 21.4933 26.7557 21.2656 26.7951C21.2656 26.7951 21.2656 26.7951 21.2612 26.7951H21.2569C21.0291 26.8346 14.8544 27.9513 11.7145 29.2563C9.19211 30.3073 9.10452 32.002 9.18335 32.6721C9.20087 32.821 9.34976 32.9173 9.49427 32.8691C15.3318 30.8415 21.559 29.9 21.7867 29.865C21.7867 29.865 21.7867 29.865 21.7911 29.865H21.7955C22.0232 29.8212 28.2023 28.63 34.3814 28.5862C34.5303 28.5862 34.6441 28.4461 34.6091 28.2972C34.4514 27.6403 33.8033 26.0726 31.0794 25.9237Z" fill="#FBB03B"/>
<path d="M18.8394 43.0072C18.6205 43.0729 18.3709 43.1342 18.095 43.1736C17.8191 43.213 17.5651 43.2305 17.333 43.2218C17.1053 43.213 16.8819 43.1824 16.6761 43.1167C16.4703 43.051 16.2907 42.9634 16.1418 42.8452C15.993 42.7269 15.8616 42.5649 15.7609 42.3634C15.6601 42.162 15.5857 41.9343 15.5507 41.6628C15.4631 41.0278 15.6032 40.4891 15.9711 40.0425C16.3389 39.5958 16.8644 39.3243 17.5388 39.2279C17.9811 39.1666 18.384 39.1973 18.7562 39.3199C19.1285 39.4425 19.4263 39.6527 19.6671 39.9461C19.908 40.2395 20.0525 40.5986 20.1138 41.019C20.1532 41.2905 20.1488 41.5358 20.105 41.7504C20.0569 41.9649 19.9824 42.1576 19.8729 42.3153C19.7635 42.4729 19.6189 42.6087 19.4394 42.7225C19.2555 42.8408 19.0584 42.9327 18.8394 43.0072ZM17.8935 41.7328C18.0118 41.7153 18.1037 41.654 18.165 41.5445C18.2264 41.435 18.2439 41.3037 18.222 41.1548C18.2001 41.0015 18.1475 40.8701 18.0556 40.7694C17.9636 40.6687 17.8629 40.6293 17.7446 40.6468C17.6264 40.6643 17.5301 40.73 17.4731 40.8526C17.4206 40.9752 17.3943 41.111 17.4162 41.2686C17.4381 41.4263 17.4906 41.5445 17.5826 41.6277C17.6702 41.7109 17.7797 41.7504 17.8979 41.7328H17.8935Z" fill="#73382A"/>
<path d="M22.8708 42.4941C22.1307 42.5992 21.522 42.5028 21.049 42.2094C20.5761 41.916 20.2958 41.4474 20.2039 40.8081C20.1206 40.2037 20.252 39.7045 20.6024 39.3104C20.9527 38.9119 21.4651 38.6666 22.1351 38.5747C22.735 38.4915 23.208 38.5396 23.5715 38.7192C23.9306 38.9031 24.1364 39.214 24.2021 39.6651C24.2284 39.8534 24.1846 40.0373 24.0619 40.2169C23.9437 40.3964 23.7773 40.5453 23.5627 40.6636C23.3438 40.7818 23.116 40.865 22.8664 40.9C22.5511 40.9438 22.2358 40.8869 21.9205 40.7336C21.8636 40.6986 21.8242 40.6942 21.7935 40.7205C21.7629 40.7512 21.7804 40.7949 21.8242 40.8475C21.9117 40.992 22.0563 41.0884 22.2665 41.1497C22.4767 41.211 22.6825 41.2241 22.9015 41.1935C23.1817 41.154 23.4138 41.084 23.5934 40.9964C23.7729 40.9044 23.9437 40.7599 24.1189 40.5628C24.167 40.4884 24.224 40.4621 24.294 40.484C24.3641 40.5059 24.4079 40.5628 24.4386 40.6679C24.5393 41.0314 24.6225 41.3686 24.675 41.6664C24.7013 41.7846 24.675 41.8722 24.5918 41.9423C24.2765 42.1875 23.6985 42.3758 22.8708 42.4941ZM22.319 40.4008C22.4022 40.3877 22.4635 40.357 22.5073 40.2957C22.5511 40.2344 22.5686 40.1687 22.5555 40.0855C22.5248 39.8753 22.4066 39.7833 22.1876 39.814C22.0869 39.8271 22.0081 39.8709 21.9468 39.9454C21.8855 40.0198 21.8592 40.0943 21.8723 40.1819C21.8855 40.2694 21.9336 40.3307 22.03 40.3614C22.1263 40.4008 22.2227 40.414 22.319 40.4008Z" fill="#73382A"/>
<path d="M25.4325 40.4861L25.2135 40.289C25.1566 40.2365 25.1347 40.1927 25.1347 40.1489C25.1347 40.1051 25.1653 40.0613 25.2179 40.0044C25.3011 39.9256 25.3668 39.838 25.3974 39.7416C25.415 39.711 25.4193 39.6847 25.4018 39.6584C25.3843 39.6321 25.3536 39.6234 25.3142 39.6365C25.1259 39.6759 24.9551 39.6278 24.7887 39.4964C24.6267 39.365 24.526 39.1723 24.4909 38.9271C24.4559 38.6819 24.5085 38.4585 24.653 38.2877C24.7975 38.1169 24.9946 38.0206 25.2529 37.9812C25.5113 37.9461 25.7346 37.9987 25.9186 38.1432C26.1025 38.2921 26.2076 38.5111 26.2514 38.8045C26.2996 39.1461 26.2645 39.4657 26.1638 39.7635C26.0631 40.0613 25.9098 40.3065 25.7171 40.4905C25.6208 40.5737 25.5244 40.5693 25.4281 40.4817L25.4325 40.4861Z" fill="#73382A"/>
<path d="M28.9823 41.6341C28.6714 41.6779 28.3386 41.6998 27.9751 41.7085C27.6116 41.7173 27.2919 41.7041 26.9985 41.6735C26.9109 41.6603 26.8628 41.6122 26.8452 41.529C26.7839 41.183 26.7314 40.7889 26.6745 40.3553C26.6657 40.2809 26.692 40.2196 26.7577 40.1933C26.8233 40.167 26.8847 40.167 26.9591 40.2064C27.3839 40.386 27.7955 40.4473 28.2028 40.3904C28.5181 40.3466 28.6626 40.2459 28.6407 40.097C28.6363 40.0488 28.5926 40.0138 28.5225 39.9919C28.4524 39.97 28.3605 39.9525 28.2553 39.9525C28.1459 39.9481 28.0276 39.9437 27.9006 39.9349C27.7736 39.9306 27.6379 39.913 27.5109 39.8824C27.3795 39.8517 27.2569 39.8123 27.1386 39.7554C27.0248 39.6985 26.9197 39.6109 26.8365 39.4926C26.7533 39.3744 26.6963 39.2255 26.6701 39.0503C26.6175 38.6781 26.7401 38.3803 27.0248 38.1657C27.3094 37.9511 27.7693 37.7979 28.4042 37.7103C29.0392 37.6227 29.6217 37.5877 30.1121 37.6183C30.1997 37.6315 30.2523 37.6753 30.2698 37.7541C30.3749 38.2051 30.4537 38.538 30.4975 38.7525C30.5063 38.8226 30.4931 38.8795 30.4406 38.9146C30.3924 38.9496 30.3267 38.954 30.2567 38.9146C29.937 38.8139 29.6173 38.7832 29.2932 38.8226C28.8947 38.8708 28.702 38.9715 28.7239 39.1204C28.7327 39.1729 28.7721 39.208 28.8509 39.2299C28.9298 39.2474 29.0305 39.2649 29.1575 39.2693C29.2845 39.2737 29.4158 39.2737 29.5647 39.2781C29.7136 39.2824 29.8625 39.2956 30.0158 39.3218C30.1691 39.3481 30.3092 39.3963 30.4406 39.4488C30.572 39.5014 30.6814 39.5934 30.7778 39.7204C30.8741 39.843 30.9311 39.9919 30.9573 40.1758C31.0099 40.5524 30.8697 40.8633 30.5282 41.1217C30.1866 41.3801 29.6786 41.5509 29.0042 41.6472L28.9823 41.6341Z" fill="#73382A"/>
<path d="M10.292 41.5793C9.9679 41.588 9.64822 41.5267 9.35043 41.3953C9.25847 41.3559 8.98258 41.1939 8.96068 41.045C8.90813 40.6684 9.14461 40.2261 9.2103 40.086C9.28036 39.8758 9.38546 39.6918 9.44677 39.4816C9.46867 39.4116 9.50808 39.3327 9.57377 39.3108C9.62194 39.2933 9.67449 39.3065 9.72266 39.324C9.92849 39.4028 10.2219 39.5605 10.4102 39.6787C11.0189 40.0772 11.3561 40.5107 11.5795 40.283C11.7721 40.0422 10.3007 39.3065 10.2219 38.7547C10.0248 37.3139 9.95038 36.9636 9.77522 36.1578C9.76646 36.1096 9.77959 36.0571 9.81463 36.0089C9.84966 35.9607 9.89345 35.9301 9.946 35.9082C10.1474 35.86 10.4584 35.8031 10.8744 35.7462C11.1153 35.7111 11.3605 35.6892 11.6101 35.6761C11.6627 35.6673 11.7152 35.6848 11.7546 35.7155C11.794 35.7462 11.8247 35.7856 11.8378 35.8337C11.9473 36.2804 12.0743 36.8541 12.2101 37.5591C12.3458 38.2686 12.3458 38.1679 12.4334 38.8116C12.4816 39.1576 12.4816 39.5298 12.4334 39.867C12.3852 40.2042 12.3064 40.6071 12.1093 40.8655C11.8729 41.1851 11.5707 41.334 11.2028 41.4786C10.9664 41.5705 10.5591 41.5749 10.292 41.5793Z" fill="#73382A"/>
<path d="M13.417 45.57C13.0929 45.5744 12.7732 45.5174 12.4754 45.3861C12.3835 45.3466 12.1076 45.1846 12.0857 45.0357C12.0331 44.6591 12.2696 44.2168 12.3353 44.0767C12.4054 43.8665 12.5105 43.6825 12.5718 43.4723C12.5937 43.4023 12.6331 43.3234 12.6988 43.3015C12.7469 43.284 12.7995 43.2972 12.8477 43.3147C13.0535 43.3935 13.3469 43.5512 13.5352 43.6694C14.1439 44.0679 14.4811 44.5015 14.7045 44.2737C14.8971 44.0329 13.4257 43.2972 13.3469 42.7454C13.1498 41.3046 13.0754 40.9543 12.9002 40.1441C12.8915 40.096 12.9046 40.0434 12.9396 39.9952C12.9747 39.9471 13.0185 39.9164 13.071 39.8945C13.2724 39.8463 13.5834 39.7894 13.9994 39.7325C14.2403 39.6974 14.4855 39.6755 14.7351 39.6624C14.7877 39.6537 14.8402 39.6712 14.8796 39.7018C14.919 39.7325 14.9497 39.7719 14.9628 39.8201C15.0723 40.2667 15.1993 40.8404 15.3351 41.5455C15.4708 42.2549 15.4708 42.1542 15.5584 42.7979C15.6066 43.1439 15.6066 43.5161 15.5584 43.8533C15.5102 44.1905 15.4314 44.5934 15.2343 44.8518C14.9979 45.1715 14.6957 45.3204 14.3278 45.4649C14.0914 45.5612 13.6841 45.5656 13.417 45.57Z" fill="#73382A"/>
<path d="M36.0002 40.1531C30.1057 42.0668 23.8522 42.8113 23.6245 42.8376C23.6245 42.8376 23.6245 42.8376 23.6201 42.8376H23.6157C23.4449 42.8638 20.0598 43.4156 15.8251 43.6215C15.8251 43.6302 15.8251 43.6346 15.8295 43.6433C15.9302 44.8126 15.2952 45.6447 13.8019 45.8768C13.399 45.9205 12.983 45.8943 12.5889 45.7804C12.2911 45.6928 11.7305 45.3644 11.6867 44.9177C11.6824 44.8827 11.6824 44.8476 11.6867 44.817C11.6955 44.7163 11.7393 44.6243 11.7787 44.5323C11.8488 44.3834 11.9145 44.2345 11.9845 44.0813C12.0152 44.0112 12.0502 43.9368 12.0809 43.8623C12.1159 43.7835 12.0633 43.6959 11.9801 43.6959C11.6298 43.6915 11.2795 43.6828 10.9335 43.6696C10.8153 43.6652 10.7189 43.7703 10.7364 43.8886C10.8415 44.5367 11.3846 46.3585 14.2179 46.6387C17.6118 46.9716 23.8303 46.157 24.058 46.1264C24.058 46.1264 24.058 46.1264 24.0624 46.1264H24.0668C24.2945 46.0913 30.4999 45.1629 33.6748 43.9061C36.2585 42.8857 36.3593 41.0508 36.2936 40.3546C36.2848 40.2013 36.1403 40.1049 36.0002 40.1531Z" fill="#FBB03B"/>
</g>
<mask id="mask0_2769_94507" style="mask-type:alpha" maskUnits="userSpaceOnUse" x="148" y="25" width="22" height="22">
<rect x="148.37" y="25.5188" width="21.2279" height="21.2279" stroke="black" stroke-opacity="0.1" stroke-width="0.451657"/>
</mask>
<g mask="url(#mask0_2769_94507)">
</g>
<path d="M155.371 32.9712L160.791 32.9712" stroke="#44140A" stroke-width="0.677486" stroke-linecap="round" stroke-linejoin="round"/>
<path d="M155.371 36.1328L162.598 36.1328" stroke="#44140A" stroke-width="0.677486" stroke-linecap="round" stroke-linejoin="round"/>
<path d="M155.371 39.2944L158.984 39.2944" stroke="#44140A" stroke-width="0.677486" stroke-linecap="round" stroke-linejoin="round"/>
</g>
<rect x="2" y="2" width="172.146" height="323" rx="10" stroke="black" stroke-width="4"/>
<defs>
<clipPath id="clip0_2769_94507">
<rect width="176.146" height="327" rx="12" fill="white"/>
</clipPath>
<clipPath id="clip1_2769_94507">
<rect width="34.7776" height="27.1749" fill="white" transform="translate(5.41992 22.543)"/>
</clipPath>
</defs>
</svg>
