<svg width="177" height="39" viewBox="0 0 177 39" fill="none" xmlns="http://www.w3.org/2000/svg">
<g clip-path="url(#clip0_2611_97101)">
<rect y="23.5679" width="176.146" height="16.2597" fill="#5C261A"/>
<g clip-path="url(#clip1_2611_97101)">
<rect width="180.663" height="19.4213" transform="translate(-2.54297 12.7261) rotate(-2)" fill="#F6CC47"/>
<path d="M-1.42312 25.1144C-1.47608 25.1162 -1.52 25.1009 -1.55488 25.0683C-1.58976 25.0358 -1.60813 24.9931 -1.60998 24.9401L-1.77391 20.2457C-1.77576 20.1928 -1.76042 20.1488 -1.72789 20.114C-1.69537 20.0791 -1.65262 20.0607 -1.59966 20.0589L1.77307 19.9411C1.82603 19.9392 1.86995 19.9546 1.90483 19.9871C1.93971 20.0196 1.95808 20.0624 1.95993 20.1153L1.98363 20.7942C1.98548 20.8472 1.97015 20.8911 1.93762 20.926C1.90509 20.9609 1.86235 20.9792 1.80939 20.9811L-0.494469 21.0615L-0.460422 22.0365L1.68455 21.9616C1.73751 21.9598 1.78151 21.9775 1.81656 22.0149C1.85144 22.0474 1.86981 22.0901 1.87166 22.1431L1.8936 22.7714C1.89528 22.8196 1.87994 22.8635 1.84758 22.9032C1.81506 22.9381 1.77231 22.9564 1.71935 22.9583L-0.425618 23.0332L-0.390562 24.037L1.97107 23.9546C2.02403 23.9527 2.06795 23.9681 2.10283 24.0006C2.13771 24.0331 2.15608 24.0759 2.15793 24.1288L2.18164 24.8077C2.18348 24.8607 2.16815 24.9046 2.13562 24.9395C2.10309 24.9743 2.06035 24.9927 2.00739 24.9946L-1.42312 25.1144ZM2.63334 24.9727C2.59001 24.9742 2.55099 24.9611 2.51627 24.9334C2.48621 24.9007 2.47042 24.8627 2.46891 24.8194C2.4684 24.8049 2.47022 24.788 2.47436 24.7686C2.47834 24.7443 2.48721 24.7223 2.50098 24.7025L3.64932 23.0066L2.49734 21.4921C2.48222 21.4734 2.46951 21.4546 2.45921 21.4356C2.45372 21.4165 2.45064 21.3974 2.44997 21.3781C2.44845 21.3348 2.46405 21.2981 2.49674 21.268C2.52927 21.2331 2.5672 21.2149 2.61053 21.2134L3.49163 21.1826C3.55422 21.1805 3.60046 21.1933 3.63036 21.2212C3.66507 21.2489 3.69007 21.2745 3.70536 21.2981L4.40955 22.2063L5.0417 21.2587C5.06012 21.2339 5.08327 21.2066 5.11115 21.1767C5.14367 21.1418 5.19123 21.1233 5.25382 21.1211L6.09881 21.0916C6.14214 21.0901 6.17884 21.1057 6.20891 21.1384C6.24362 21.1661 6.26173 21.2016 6.26325 21.2449C6.26392 21.2642 6.26218 21.2835 6.25804 21.303C6.2539 21.3224 6.24494 21.342 6.23117 21.3618L5.15874 22.9539L6.43704 24.5651C6.45697 24.5837 6.46968 24.6025 6.47516 24.6216C6.48065 24.6407 6.48373 24.6599 6.4844 24.6791C6.48592 24.7225 6.47041 24.7616 6.43788 24.7965C6.41 24.8264 6.37199 24.8421 6.32384 24.8438L5.40663 24.8759C5.34886 24.8779 5.3051 24.8673 5.27538 24.8443C5.24548 24.8164 5.22048 24.7908 5.20038 24.7674L4.43639 23.8034L3.73429 24.8186C3.7157 24.8385 3.69247 24.8634 3.66459 24.8933C3.63671 24.9232 3.59148 24.9392 3.52888 24.9414L2.63334 24.9727ZM8.47393 24.8411C8.11764 24.8535 7.8 24.7995 7.52102 24.6791C7.24204 24.5587 7.01641 24.3786 6.84414 24.1387C6.67651 23.8939 6.57942 23.5984 6.55287 23.2523C6.54536 23.1754 6.53959 23.0792 6.53556 22.9636C6.53136 22.8433 6.53032 22.7445 6.53244 22.6673C6.53461 22.3153 6.61085 22.0137 6.76116 21.7626C6.91131 21.5067 7.12133 21.309 7.39123 21.1694C7.66595 21.0296 7.98145 20.9536 8.33774 20.9411C8.66996 20.9295 8.95571 20.9677 9.19499 21.0558C9.43411 21.139 9.63074 21.2479 9.78487 21.3823C9.939 21.5167 10.0548 21.6573 10.1322 21.804C10.2143 21.9458 10.2597 22.0719 10.2684 22.1825C10.2749 22.2305 10.2595 22.2744 10.2223 22.3143C10.185 22.3493 10.1423 22.3677 10.0941 22.3693L9.1769 22.4014C9.12394 22.4032 9.0826 22.3926 9.05287 22.3696C9.02314 22.3465 8.9954 22.3113 8.96964 22.264C8.90665 22.1168 8.82832 22.0134 8.73466 21.954C8.64581 21.8945 8.53157 21.8671 8.39194 21.872C8.19935 21.8787 8.05228 21.9465 7.95073 22.0754C7.85399 22.2041 7.80534 22.3987 7.80479 22.659C7.8067 22.8517 7.81267 23.0227 7.8227 23.1718C7.84158 23.4362 7.90367 23.6269 8.00899 23.7437C8.11911 23.8604 8.27047 23.9154 8.46306 23.9086C8.61232 23.9034 8.72919 23.868 8.81367 23.8024C8.89815 23.7368 8.96426 23.6284 9.01201 23.4773C9.0344 23.4283 9.05962 23.3913 9.08767 23.3662C9.11572 23.3411 9.15622 23.3277 9.20919 23.3258L10.1264 23.2938C10.1745 23.2921 10.2185 23.3098 10.2584 23.347C10.2981 23.3794 10.3164 23.4197 10.3133 23.468C10.3113 23.55 10.2906 23.6472 10.2511 23.7594C10.2115 23.8669 10.148 23.9824 10.0608 24.1059C9.97348 24.2295 9.85706 24.3468 9.7115 24.458C9.57059 24.5641 9.39771 24.6521 9.19286 24.7219C8.98801 24.7918 8.74837 24.8315 8.47393 24.8411ZM11.0414 24.6791C10.9884 24.6809 10.9445 24.6656 10.9096 24.6331C10.8747 24.6005 10.8563 24.5578 10.8545 24.5048L10.736 21.1104C10.7341 21.0575 10.7494 21.0136 10.782 20.9787C10.8145 20.9438 10.8572 20.9254 10.9102 20.9236L11.7624 20.8938C11.8106 20.8921 11.8521 20.9076 11.887 20.9401C11.9267 20.9725 11.9474 21.0151 11.9493 21.0681L12.0678 24.4625C12.0697 24.5154 12.0519 24.5594 12.0146 24.5945C11.982 24.6294 11.9417 24.6476 11.8936 24.6493L11.0414 24.6791ZM10.8841 20.3822C10.8311 20.384 10.7872 20.3687 10.7523 20.3362C10.7174 20.3036 10.6991 20.2609 10.6972 20.2079L10.6748 19.5652C10.6729 19.5122 10.6883 19.4683 10.7208 19.4334C10.7531 19.3937 10.7958 19.3729 10.8488 19.3711L11.7082 19.3411C11.7612 19.3392 11.8052 19.357 11.8402 19.3943C11.8799 19.4267 11.9007 19.4693 11.9025 19.5223L11.925 20.1651C11.9268 20.218 11.9091 20.262 11.8717 20.2971C11.8392 20.332 11.7965 20.3503 11.7435 20.3522L10.8841 20.3822ZM14.6969 24.5514C14.3887 24.5622 14.1198 24.5234 13.8902 24.435C13.6652 24.3416 13.4889 24.1935 13.3613 23.9907C13.2335 23.783 13.1638 23.5131 13.1522 23.1809L13.1038 21.7942L12.5405 21.8139C12.4875 21.8158 12.4412 21.8005 12.4015 21.7681C12.3666 21.7356 12.3482 21.6929 12.3464 21.6399L12.326 21.0549C12.3241 21.002 12.3394 20.958 12.372 20.9232C12.4093 20.8881 12.4545 20.8697 12.5074 20.8678L13.0707 20.8481L13.0291 19.6565C13.0273 19.6035 13.0426 19.5596 13.0752 19.5247C13.1125 19.4897 13.1552 19.4713 13.2034 19.4696L14.0411 19.4404C14.0941 19.4385 14.138 19.4539 14.1729 19.4864C14.2078 19.5189 14.2262 19.5617 14.228 19.6146L14.2696 20.8063L15.1724 20.7747C15.2253 20.7729 15.2693 20.7882 15.3041 20.8208C15.339 20.8533 15.3574 20.896 15.3592 20.949L15.3797 21.534C15.3815 21.5869 15.3662 21.6309 15.3337 21.6657C15.3011 21.7006 15.2584 21.719 15.2054 21.7208L14.3027 21.7524L14.3476 23.0379C14.3533 23.2016 14.3891 23.3305 14.4551 23.4246C14.521 23.5187 14.6286 23.5632 14.7779 23.558L15.334 23.5385C15.3869 23.5367 15.4309 23.552 15.4657 23.5846C15.5006 23.6171 15.519 23.6598 15.5208 23.7128L15.5428 24.3411C15.5446 24.3941 15.5293 24.438 15.4968 24.4729C15.4642 24.5078 15.4215 24.5261 15.3685 24.528L14.6969 24.5514ZM16.1832 24.4995C16.1302 24.5014 16.0863 24.486 16.0514 24.4535C16.0165 24.421 15.9982 24.3782 15.9963 24.3253L15.8778 20.9309C15.8759 20.8779 15.8913 20.834 15.9238 20.7991C15.9563 20.7642 15.9991 20.7459 16.052 20.744L16.9042 20.7143C16.9524 20.7126 16.9939 20.728 17.0288 20.7605C17.0685 20.7929 17.0892 20.8356 17.0911 20.8885L17.2096 24.2829C17.2115 24.3359 17.1937 24.3799 17.1564 24.4149C17.1239 24.4498 17.0835 24.4681 17.0354 24.4698L16.1832 24.4995ZM16.0259 20.2026C15.9729 20.2045 15.929 20.1891 15.8941 20.1566C15.8592 20.1241 15.8409 20.0813 15.839 20.0284L15.8166 19.3856C15.8147 19.3326 15.8301 19.2887 15.8626 19.2538C15.8949 19.2141 15.9376 19.1934 15.9906 19.1915L16.85 19.1615C16.903 19.1597 16.947 19.1774 16.982 19.2148C17.0217 19.2471 17.0425 19.2898 17.0443 19.3427L17.0668 19.9855C17.0686 20.0385 17.0509 20.0825 17.0135 20.1175C16.981 20.1524 16.9383 20.1708 16.8853 20.1726L16.0259 20.2026ZM18.3238 24.4248C18.2709 24.4266 18.227 24.4113 18.1921 24.3788C18.1572 24.3462 18.1388 24.3035 18.137 24.2505L18.0184 20.8561C18.0166 20.8032 18.0319 20.7592 18.0645 20.7244C18.097 20.6895 18.1397 20.6711 18.1927 20.6693L19.0232 20.6403C19.0762 20.6384 19.1201 20.6538 19.155 20.6863C19.1899 20.7188 19.2082 20.7616 19.2101 20.8145L19.2197 21.089C19.3397 20.9353 19.499 20.8044 19.6977 20.6963C19.8964 20.5881 20.1329 20.5292 20.4074 20.5196C20.6866 20.5099 20.9344 20.5639 21.1506 20.6817C21.3716 20.7993 21.5466 20.9788 21.6755 21.2201C21.8091 21.4565 21.8821 21.7504 21.8943 22.1019L21.9647 24.1169C21.9666 24.1698 21.9488 24.2138 21.9115 24.2489C21.8789 24.2838 21.8386 24.302 21.7905 24.3037L20.8805 24.3355C20.8323 24.3372 20.7884 24.3218 20.7487 24.2895C20.7138 24.257 20.6955 24.2142 20.6936 24.1612L20.6248 22.1896C20.6169 21.9633 20.5554 21.7919 20.4405 21.6754C20.3302 21.5539 20.1691 21.4969 19.9573 21.5043C19.7599 21.5112 19.6032 21.5793 19.4872 21.7087C19.3758 21.8331 19.3241 22.0085 19.332 22.2348L19.4009 24.2064C19.4027 24.2594 19.385 24.3034 19.3476 24.3384C19.3151 24.3733 19.2748 24.3916 19.2266 24.3933L18.3238 24.4248ZM24.5297 25.7989C24.159 25.8118 23.8491 25.7744 23.6002 25.6867C23.3561 25.5988 23.1595 25.49 23.0103 25.3602C22.866 25.2303 22.7602 25.099 22.6929 24.9664C22.6258 24.8386 22.5884 24.7362 22.5809 24.6594C22.5743 24.6066 22.5896 24.5626 22.627 24.5276C22.6643 24.4925 22.7094 24.4741 22.7624 24.4722L23.6796 24.4402C23.7229 24.4387 23.7594 24.4471 23.789 24.4653C23.8235 24.4882 23.8513 24.5258 23.8724 24.5781C23.8984 24.6302 23.9316 24.6845 23.9721 24.7409C24.0175 24.7972 24.0768 24.8409 24.1502 24.8721C24.2286 24.9079 24.3328 24.9236 24.4628 24.919C24.6073 24.914 24.7268 24.8857 24.8214 24.8342C24.9162 24.7875 24.9858 24.7104 25.0302 24.6027C25.0749 24.5 25.0941 24.3619 25.0881 24.1886L25.0712 23.7047C24.9647 23.8289 24.8261 23.9326 24.6554 24.0157C24.4846 24.0939 24.2764 24.1374 24.0309 24.1459C23.7853 24.1545 23.5674 24.126 23.3771 24.0603C23.1868 23.9946 23.0266 23.8918 22.8963 23.7517C22.7661 23.6116 22.6613 23.4393 22.5818 23.2348C22.5072 23.0302 22.4579 22.7933 22.4341 22.5241C22.4249 22.3991 22.4205 22.2739 22.4209 22.1486C22.4263 21.8881 22.4591 21.6531 22.5193 21.4437C22.5794 21.2344 22.6695 21.0529 22.7895 20.8992C22.9143 20.7454 23.0692 20.6267 23.2543 20.5431C23.4392 20.4547 23.6544 20.4062 23.9 20.3977C24.16 20.3886 24.3832 20.4314 24.5697 20.5261C24.7609 20.6159 24.9192 20.7333 25.0448 20.8783L25.0355 20.6111C25.0338 20.5629 25.0492 20.5214 25.0817 20.4866C25.1141 20.4469 25.1568 20.4261 25.2097 20.4242L26.0403 20.3952C26.0932 20.3934 26.1372 20.4111 26.1723 20.4485C26.212 20.4808 26.2327 20.5211 26.2343 20.5692L26.3556 24.0431C26.3684 24.409 26.3046 24.7197 26.164 24.9753C26.0235 25.2309 25.8159 25.4286 25.5412 25.5683C25.2665 25.7081 24.9293 25.7849 24.5297 25.7989ZM24.3881 23.1934C24.5422 23.1881 24.6662 23.15 24.7601 23.0792C24.8541 23.0085 24.9208 22.9194 24.9605 22.8119C25.0049 22.7043 25.0275 22.5902 25.0281 22.4697C25.031 22.4166 25.0308 22.3419 25.0275 22.2456C25.0241 22.1493 25.0192 22.0771 25.0127 22.0292C25.0035 21.9041 24.973 21.7895 24.9211 21.6853C24.8741 21.5809 24.8013 21.499 24.7029 21.4398C24.6042 21.3758 24.4779 21.3464 24.3238 21.3518C24.1649 21.3574 24.0385 21.3955 23.9445 21.4663C23.8554 21.5369 23.7912 21.6307 23.7519 21.7478C23.7174 21.8647 23.6978 21.9931 23.693 22.1331C23.6919 22.2392 23.6957 22.3475 23.7044 22.4581C23.7189 22.5974 23.7474 22.7241 23.79 22.8383C23.8374 22.9524 23.908 23.0415 24.0018 23.1057C24.1004 23.1697 24.2292 23.199 24.3881 23.1934ZM28.7185 24.0618C28.6655 24.0636 28.6216 24.0483 28.5867 24.0158C28.5519 23.9832 28.5335 23.9405 28.5316 23.8875L28.3677 19.1932C28.3659 19.1402 28.3812 19.0963 28.4137 19.0614C28.4463 19.0265 28.489 19.0082 28.542 19.0063L30.5064 18.9377C31.1275 18.916 31.6212 19.0434 31.9876 19.3198C32.3586 19.5913 32.5533 19.9894 32.5716 20.5142C32.5836 20.8561 32.5094 21.1479 32.3491 21.3897C32.1937 21.6314 31.9832 21.8171 31.7178 21.9469L32.7765 23.6887C32.7919 23.7171 32.8001 23.7433 32.8009 23.7674C32.8023 23.8059 32.7867 23.8426 32.7541 23.8775C32.7263 23.9074 32.6907 23.9231 32.6473 23.9246L31.694 23.9579C31.6025 23.9611 31.5344 23.9418 31.4895 23.8999C31.4445 23.8533 31.4117 23.8111 31.3911 23.7732L30.5123 22.2131L29.7684 22.2391L29.8244 23.8424C29.8262 23.8954 29.8109 23.9393 29.7784 23.9742C29.7459 24.009 29.7031 24.0274 29.6502 24.0293L28.7185 24.0618ZM29.7328 21.2208L30.5706 21.1915C30.7969 21.1836 30.9635 21.1224 31.0704 21.0077C31.182 20.893 31.2345 20.7393 31.2278 20.5467C31.2212 20.3589 31.1606 20.2092 31.0458 20.0975C30.9358 19.9857 30.7629 19.9338 30.527 19.9421L29.6892 19.9713L29.7328 21.2208ZM34.9939 23.915C34.4258 23.9348 33.9678 23.7965 33.62 23.5002C33.2722 23.2038 33.0805 22.7525 33.0449 22.1464C33.0437 22.1127 33.0422 22.0693 33.0404 22.0164C33.0385 21.9634 33.0371 21.9225 33.0361 21.8936C33.0372 21.5127 33.1101 21.1848 33.2548 20.9098C33.4041 20.6298 33.6135 20.4152 33.8831 20.266C34.1573 20.1118 34.4798 20.0282 34.8505 20.0153C35.2742 20.0005 35.6262 20.0725 35.9066 20.2315C36.1917 20.3902 36.4091 20.6116 36.5588 20.8956C36.7086 21.1796 36.7899 21.507 36.8028 21.8777L36.8089 22.0511C36.8107 22.104 36.793 22.148 36.7556 22.1831C36.7231 22.218 36.6828 22.2362 36.6346 22.2379L34.3236 22.3186C34.3237 22.3235 34.324 22.3307 34.3243 22.3403C34.3247 22.3499 34.325 22.3596 34.3253 22.3692C34.335 22.5086 34.3635 22.6354 34.4109 22.7494C34.4583 22.8635 34.5289 22.9526 34.6227 23.0168C34.7166 23.081 34.8285 23.1109 34.9585 23.1063C35.0548 23.103 35.1337 23.0857 35.1953 23.0547C35.2615 23.0186 35.3156 22.9806 35.3576 22.9405C35.3994 22.8957 35.4319 22.8584 35.4549 22.8287C35.4966 22.779 35.5293 22.749 35.553 22.7385C35.5814 22.723 35.6245 22.7143 35.6823 22.7123L36.5778 22.681C36.6259 22.6793 36.665 22.6924 36.6949 22.7203C36.7294 22.7432 36.7451 22.7788 36.742 22.8271C36.74 22.9091 36.7026 23.0093 36.6295 23.1275C36.5565 23.2458 36.4474 23.3653 36.3022 23.486C36.1616 23.6018 35.9819 23.6997 35.7629 23.7796C35.544 23.8596 35.2876 23.9047 34.9939 23.915ZM34.2986 21.6036L35.5191 21.561L35.5186 21.5466C35.5132 21.3925 35.4845 21.2585 35.4323 21.1447C35.3849 21.0306 35.312 20.944 35.2135 20.8848C35.1198 20.8254 35.008 20.7979 34.878 20.8025C34.748 20.807 34.6384 20.8422 34.5491 20.908C34.4646 20.9736 34.4003 21.065 34.3562 21.1822C34.3121 21.2995 34.2927 21.4351 34.2981 21.5892L34.2986 21.6036ZM38.3362 23.7259C38.2639 23.7285 38.2104 23.7135 38.1755 23.6809C38.1406 23.6484 38.1126 23.606 38.0915 23.5537L36.9348 20.2462C36.9243 20.2224 36.9186 20.1985 36.9178 20.1745C36.9163 20.1311 36.9319 20.0944 36.9646 20.0644C36.9971 20.0295 37.035 20.0113 37.0784 20.0098L37.8222 19.9838C37.8848 19.9816 37.9336 19.9968 37.9684 20.0293C38.0081 20.0617 38.0334 20.0945 38.0442 20.1279L38.723 22.1722L39.3011 20.0912C39.3096 20.0572 39.33 20.0227 39.3626 19.9879C39.3997 19.948 39.452 19.9269 39.5194 19.9245L39.9961 19.9079C40.0635 19.9055 40.1147 19.923 40.1498 19.9604C40.1895 19.9927 40.2147 20.0256 40.2255 20.059L40.9474 22.0946L41.4819 20.0078C41.4904 19.9738 41.5109 19.9393 41.5434 19.9045C41.5807 19.8694 41.6307 19.8508 41.6933 19.8486L42.4372 19.8226C42.4805 19.8211 42.5172 19.8367 42.5473 19.8694C42.582 19.8971 42.6001 19.9326 42.6016 19.976C42.6024 20.0001 42.6009 20.0242 42.5969 20.0485L41.6737 23.4286C41.6611 23.4821 41.6361 23.5263 41.5988 23.5614C41.5663 23.5963 41.5139 23.615 41.4417 23.6175L40.7917 23.6402C40.7243 23.6425 40.6707 23.6275 40.631 23.5952C40.5913 23.5628 40.5633 23.5204 40.547 23.468L39.8135 21.5123L39.2182 23.5144C39.2056 23.5678 39.1806 23.6121 39.1433 23.6471C39.1059 23.6822 39.0536 23.7009 38.9861 23.7032L38.3362 23.7259ZM44.1981 23.5935C43.9381 23.6026 43.7029 23.5626 43.4925 23.4736C43.2867 23.3795 43.1207 23.2503 42.9945 23.086C42.8682 22.9217 42.8014 22.7336 42.794 22.5218C42.7821 22.1799 42.9123 21.9054 43.1846 21.6983C43.4568 21.4863 43.8228 21.3361 44.2825 21.2478L45.1804 21.079L45.1769 20.9779C45.1709 20.8046 45.1301 20.6734 45.0547 20.5845C44.9793 20.4955 44.8453 20.4544 44.6527 20.4611C44.5179 20.4658 44.4081 20.4962 44.3233 20.5522C44.2433 20.608 44.1808 20.6825 44.1358 20.7757C44.0947 20.8398 44.0356 20.8732 43.9586 20.8758L43.1497 20.9041C43.0967 20.9059 43.0553 20.8929 43.0254 20.865C42.9953 20.8323 42.9819 20.7943 42.9852 20.7508C42.9822 20.6641 43.0101 20.5643 43.0688 20.4514C43.1322 20.3335 43.2293 20.2168 43.3603 20.1013C43.4912 19.9859 43.6613 19.8884 43.8707 19.8087C44.08 19.7291 44.3339 19.6841 44.6324 19.6737C44.9454 19.6627 45.2139 19.6895 45.4379 19.754C45.6619 19.8185 45.8435 19.9134 45.9829 20.0387C46.1271 20.1638 46.236 20.3143 46.3096 20.49C46.383 20.661 46.4235 20.8524 46.4309 21.0643L46.5075 23.2598C46.5094 23.3128 46.4916 23.3568 46.4543 23.3918C46.4218 23.4267 46.3814 23.445 46.3333 23.4467L45.4955 23.4759C45.4426 23.4778 45.3986 23.4624 45.3638 23.4299C45.3289 23.3974 45.3105 23.3546 45.3087 23.3017L45.2998 23.0489C45.2405 23.1426 45.1591 23.2298 45.0559 23.3105C44.9527 23.3912 44.8296 23.4558 44.6867 23.5042C44.5487 23.5572 44.3858 23.587 44.1981 23.5935ZM44.5088 22.7584C44.6484 22.7535 44.7726 22.7202 44.8813 22.6586C44.9947 22.592 45.0804 22.495 45.1387 22.3676C45.2015 22.2352 45.2296 22.0728 45.2229 21.8802L45.2193 21.7791L44.6093 21.9088C44.3843 21.9553 44.2203 22.0212 44.1172 22.1068C44.0188 22.1874 43.9715 22.2806 43.9752 22.3865C43.978 22.4684 44.0045 22.5374 44.0547 22.5934C44.1049 22.6495 44.169 22.6931 44.2473 22.7241C44.3253 22.7503 44.4125 22.7617 44.5088 22.7584ZM47.3649 23.4106C47.312 23.4125 47.268 23.3971 47.2332 23.3646C47.1983 23.3321 47.1799 23.2894 47.1781 23.2364L47.0595 19.842C47.0579 19.7938 47.0733 19.7523 47.1058 19.7175C47.1382 19.6778 47.1808 19.657 47.2338 19.6551L48.0643 19.6261C48.1173 19.6243 48.1613 19.642 48.1963 19.6794C48.2312 19.7119 48.2495 19.7522 48.2512 19.8004L48.2613 20.0893C48.3861 19.9355 48.5361 19.8145 48.7114 19.7265C48.8915 19.6382 49.0947 19.5902 49.321 19.5823L49.6388 19.5712C49.6869 19.5695 49.7284 19.5849 49.7633 19.6174C49.803 19.6498 49.8238 19.6924 49.8256 19.7454L49.8516 20.4893C49.8533 20.5374 49.8355 20.5814 49.7983 20.6213C49.7658 20.6562 49.7255 20.6745 49.6773 20.6761L48.9768 20.7006C48.7794 20.7075 48.6272 20.7682 48.5204 20.8829C48.4182 20.9925 48.3705 21.146 48.3774 21.3434L48.4419 23.1923C48.4438 23.2452 48.426 23.2892 48.3887 23.3243C48.3562 23.3592 48.3134 23.3775 48.2605 23.3794L47.3649 23.4106ZM51.6879 23.332C51.4567 23.3401 51.246 23.3113 51.0558 23.2456C50.8701 23.175 50.7073 23.0698 50.5675 22.93C50.4323 22.7853 50.3249 22.6107 50.2455 22.4062C50.1659 22.1969 50.1165 21.9575 50.0975 21.6883C50.0893 21.5921 50.084 21.508 50.0815 21.4357C50.0788 21.3587 50.0782 21.2744 50.0798 21.1827C50.0804 20.9224 50.1132 20.6874 50.1782 20.4779C50.2432 20.2683 50.338 20.0866 50.4628 19.9328C50.5876 19.7791 50.7425 19.6604 50.9276 19.5768C51.1125 19.4884 51.3206 19.4401 51.5517 19.432C51.7924 19.4236 52.0009 19.4573 52.1771 19.5331C52.3531 19.6041 52.5035 19.7001 52.6282 19.8211L52.5742 18.2755C52.5724 18.2226 52.5877 18.1787 52.6202 18.1438C52.6528 18.1089 52.6955 18.0905 52.7485 18.0887L53.6296 18.0579C53.6777 18.0562 53.7192 18.0717 53.7541 18.1042C53.7938 18.1365 53.8146 18.1792 53.8164 18.2322L53.9829 22.9988C53.9847 23.0517 53.967 23.0957 53.9296 23.1308C53.8971 23.1657 53.8568 23.1839 53.8086 23.1856L52.9925 23.2141C52.9396 23.216 52.8957 23.2006 52.8608 23.1681C52.8259 23.1356 52.8075 23.0928 52.8057 23.0399L52.7976 22.8088C52.6869 22.9524 52.5417 23.0732 52.3619 23.1711C52.1822 23.2689 51.9575 23.3226 51.6879 23.332ZM52.0441 22.3506C52.2078 22.3449 52.3342 22.3067 52.4233 22.2361C52.5171 22.1605 52.5837 22.0666 52.6232 21.9544C52.6674 21.842 52.6897 21.7207 52.69 21.5905C52.6914 21.494 52.6907 21.4025 52.6876 21.3158C52.6846 21.2291 52.6791 21.1401 52.6711 21.0488C52.6621 20.9286 52.6317 20.8188 52.58 20.7194C52.5282 20.6151 52.453 20.5334 52.3545 20.4742C52.2559 20.4101 52.1295 20.3808 51.9755 20.3862C51.8166 20.3917 51.6902 20.4299 51.5962 20.5007C51.5071 20.5713 51.4453 20.665 51.4108 20.7819C51.3763 20.8988 51.3567 21.0272 51.3519 21.1672C51.3427 21.317 51.3479 21.4662 51.3676 21.615C51.3821 21.7543 51.4106 21.881 51.4532 21.9952C51.4957 22.1094 51.5639 22.1987 51.6578 22.2629C51.7564 22.3269 51.8852 22.3562 52.0441 22.3506ZM56.244 23.1729C55.931 23.1838 55.6626 23.1594 55.4388 23.0998C55.2196 23.0351 55.0385 22.9547 54.8953 22.8584C54.757 22.762 54.6522 22.662 54.5811 22.5585C54.5098 22.4501 54.4705 22.3575 54.463 22.2806C54.4563 22.2278 54.4716 22.1839 54.509 22.1488C54.5461 22.109 54.5864 22.0883 54.6297 22.0868L55.453 22.058C55.4675 22.0575 55.4796 22.0595 55.4894 22.064C55.4992 22.0685 55.514 22.0776 55.5338 22.0914C55.5975 22.1229 55.6616 22.164 55.7261 22.2148C55.7903 22.2608 55.8641 22.3016 55.9473 22.3372C56.0305 22.3729 56.1298 22.3887 56.2454 22.3847C56.3802 22.38 56.4924 22.3495 56.5821 22.2934C56.6717 22.2372 56.7147 22.1562 56.711 22.0502C56.7083 21.9732 56.6844 21.9114 56.6394 21.8647C56.5942 21.8133 56.5034 21.7658 56.3669 21.7224C56.2352 21.6788 56.0361 21.6375 55.7696 21.5986C55.5172 21.5496 55.2956 21.4826 55.1046 21.3977C54.9135 21.308 54.7647 21.1902 54.6584 21.0445C54.5519 20.894 54.4949 20.7104 54.4873 20.4937C54.4806 20.3011 54.5367 20.1136 54.6557 19.931C54.7746 19.7485 54.9526 19.5977 55.1894 19.4786C55.4261 19.3546 55.7202 19.2865 56.0717 19.2742C56.351 19.2645 56.5929 19.2897 56.7974 19.3501C57.0067 19.4055 57.1828 19.4813 57.326 19.5775C57.474 19.6736 57.5859 19.7733 57.6618 19.8767C57.7378 19.9801 57.7796 20.075 57.7875 20.1615C57.794 20.2095 57.7811 20.2534 57.7487 20.293C57.7162 20.3279 57.6782 20.3461 57.6349 20.3476L56.8838 20.3739C56.8645 20.3745 56.8452 20.3728 56.8258 20.3687C56.8062 20.3597 56.789 20.3507 56.7742 20.3415C56.7154 20.3147 56.6563 20.2782 56.5968 20.232C56.5374 20.1859 56.4685 20.1449 56.3901 20.1091C56.3117 20.0733 56.2147 20.0574 56.0992 20.0614C55.9692 20.066 55.8691 20.0984 55.7989 20.1587C55.7287 20.219 55.6952 20.2949 55.6984 20.3863C55.7006 20.4489 55.7218 20.506 55.7622 20.5577C55.8074 20.6091 55.8933 20.6543 56.02 20.6933C56.1515 20.7321 56.353 20.7732 56.6245 20.8168C56.9586 20.8581 57.2264 20.9356 57.428 21.049C57.6295 21.1577 57.7739 21.29 57.8613 21.4461C57.9485 21.5973 57.9951 21.7595 58.0012 21.9329C58.0093 22.164 57.9466 22.3711 57.8132 22.5541C57.6846 22.7369 57.4873 22.8836 57.2212 22.9941C56.9549 23.0999 56.6292 23.1594 56.244 23.1729Z" fill="#3E170E"/>
<path d="M60.1965 22.9626C60.1435 22.9644 60.0996 22.9491 60.0647 22.9165C60.0298 22.884 60.0115 22.8413 60.0096 22.7883L59.8457 18.0939C59.8438 18.041 59.8592 17.997 59.8917 17.9622C59.9242 17.9273 59.967 17.9089 60.0199 17.9071L62.0421 17.8365C62.4418 17.8225 62.7906 17.873 63.0887 17.9879C63.3914 18.0979 63.6289 18.2727 63.8012 18.5126C63.9783 18.7522 64.0734 19.0599 64.0865 19.4354C64.0994 19.8061 64.0258 20.1148 63.8657 20.3614C63.7104 20.6079 63.4856 20.7941 63.1911 20.9201C62.9014 21.0459 62.5568 21.1158 62.1571 21.1297L61.2977 21.1597L61.3529 22.7414C61.3548 22.7944 61.337 22.8384 61.2997 22.8734C61.2672 22.9083 61.2244 22.9267 61.1715 22.9285L60.1965 22.9626ZM61.2412 20.1639L62.0862 20.1343C62.2933 20.1271 62.4551 20.0684 62.5718 19.9583C62.6933 19.848 62.7502 19.6845 62.7427 19.4679C62.7363 19.2849 62.6779 19.1327 62.5676 19.0112C62.4573 18.8897 62.2818 18.8332 62.0411 18.8416L61.1961 18.8711L61.2412 20.1639ZM64.8532 22.7999C64.8002 22.8018 64.7563 22.7864 64.7214 22.7539C64.6865 22.7214 64.6682 22.6787 64.6663 22.6257L64.5478 19.2313C64.5461 19.1831 64.5615 19.1416 64.594 19.1068C64.6264 19.0671 64.6691 19.0463 64.722 19.0444L65.5526 19.0154C65.6055 19.0136 65.6495 19.0313 65.6846 19.0687C65.7195 19.1012 65.7377 19.1415 65.7394 19.1897L65.7495 19.4786C65.8743 19.3248 66.0243 19.2038 66.1996 19.1158C66.3797 19.0275 66.5829 18.9795 66.8092 18.9715L67.127 18.9605C67.1751 18.9588 67.2167 18.9742 67.2515 19.0067C67.2912 19.0391 67.312 19.0817 67.3138 19.1347L67.3398 19.8786C67.3415 19.9267 67.3238 19.9707 67.2866 20.0106C67.2541 20.0455 67.2137 20.0638 67.1656 20.0654L66.465 20.0899C66.2676 20.0968 66.1155 20.1575 66.0086 20.2721C65.9064 20.3818 65.8587 20.5353 65.8656 20.7327L65.9302 22.5816C65.932 22.6345 65.9143 22.6785 65.8769 22.7136C65.8444 22.7484 65.8017 22.7668 65.7487 22.7687L64.8532 22.7999ZM69.5587 22.7079C69.1543 22.722 68.8102 22.669 68.5264 22.5487C68.2474 22.4283 68.0291 22.2504 67.8714 22.0148C67.7184 21.7743 67.6264 21.4859 67.5953 21.1495C67.5871 21.0534 67.581 20.9452 67.5768 20.8248C67.5724 20.6996 67.571 20.5912 67.5726 20.4995C67.5799 20.157 67.6564 19.8627 67.8021 19.6166C67.9478 19.3705 68.1556 19.1776 68.4255 19.038C68.7002 18.8983 69.0325 18.8216 69.4225 18.808C69.8173 18.7942 70.1542 18.8475 70.4332 18.9679C70.717 19.0882 70.9401 19.266 71.1026 19.5013C71.2651 19.7367 71.3619 20.0249 71.3931 20.3661C71.4011 20.4574 71.4073 20.5657 71.4117 20.6909C71.4159 20.8112 71.4173 20.9197 71.4158 21.0161C71.4083 21.3538 71.3342 21.6481 71.1936 21.8988C71.0575 22.1446 70.8522 22.3374 70.5774 22.4771C70.3075 22.6167 69.968 22.6936 69.5587 22.7079ZM69.5279 21.8268C69.7446 21.8193 69.8988 21.7488 69.9906 21.6154C70.0871 21.4819 70.1381 21.2849 70.1435 21.0244C70.1458 20.952 70.1448 20.8556 70.1406 20.7353C70.1364 20.6149 70.1306 20.5187 70.1233 20.4466C70.0999 20.1919 70.0354 20.0014 69.9298 19.8749C69.8288 19.7435 69.6699 19.6815 69.4533 19.6891C69.2414 19.6965 69.0873 19.7693 68.9909 19.9077C68.8943 20.0412 68.8457 20.2357 68.845 20.4913C68.8427 20.5637 68.8436 20.66 68.8478 20.7804C68.852 20.9008 68.8578 20.997 68.8652 21.069C68.8839 21.3287 68.946 21.5218 69.0517 21.6482C69.1573 21.7747 69.3161 21.8342 69.5279 21.8268ZM73.9403 24.0734C73.5695 24.0864 73.2597 24.049 73.0108 23.9613C72.7667 23.8734 72.5701 23.7645 72.4209 23.6348C72.2766 23.5048 72.1707 23.3735 72.1034 23.2409C72.0363 23.1131 71.999 23.0108 71.9915 22.9339C71.9848 22.8811 72.0002 22.8372 72.0375 22.8021C72.0749 22.7671 72.12 22.7486 72.173 22.7468L73.0902 22.7148C73.1335 22.7132 73.17 22.7216 73.1995 22.7399C73.2341 22.7628 73.2619 22.8004 73.283 22.8526C73.3089 22.9048 73.3421 22.959 73.3827 23.0155C73.428 23.0717 73.4874 23.1155 73.5608 23.1466C73.6392 23.1825 73.7434 23.1981 73.8734 23.1936C74.0178 23.1885 74.1373 23.1603 74.232 23.1087C74.3267 23.062 74.3964 22.9849 74.4408 22.8773C74.4854 22.7745 74.5047 22.6364 74.4986 22.4631L74.4817 21.9792C74.3752 22.1035 74.2366 22.2071 74.066 22.2902C73.8952 22.3685 73.687 22.4119 73.4414 22.4205C73.1959 22.4291 72.978 22.4005 72.7877 22.3349C72.5974 22.2692 72.4371 22.1663 72.3069 22.0263C72.1767 21.8862 72.0718 21.7139 71.9924 21.5094C71.9177 21.3047 71.8685 21.0678 71.8446 20.7987C71.8354 20.6737 71.8311 20.5485 71.8315 20.4231C71.8369 20.1626 71.8696 19.9277 71.9298 19.7183C71.99 19.5089 72.0801 19.3274 72.2 19.1738C72.3248 19.02 72.4798 18.9013 72.6648 18.8177C72.8498 18.7293 73.065 18.6808 73.3106 18.6722C73.5705 18.6631 73.7938 18.7059 73.9803 18.8007C74.1714 18.8904 74.3298 19.0078 74.4554 19.1529L74.446 18.8856C74.4443 18.8375 74.4598 18.796 74.4923 18.7611C74.5247 18.7214 74.5673 18.7006 74.6203 18.6988L75.4508 18.6698C75.5038 18.6679 75.5478 18.6857 75.5828 18.723C75.6225 18.7554 75.6432 18.7956 75.6449 18.8438L75.7662 22.3176C75.779 22.6835 75.7151 22.9943 75.5746 23.2499C75.4341 23.5054 75.2265 23.7031 74.9518 23.8429C74.677 23.9826 74.3399 24.0595 73.9403 24.0734ZM73.7987 21.468C73.9527 21.4626 74.0767 21.4245 74.1707 21.3538C74.2646 21.283 74.3314 21.1939 74.371 21.0865C74.4155 20.9789 74.438 20.8648 74.4386 20.7442C74.4416 20.6911 74.4414 20.6164 74.438 20.5201C74.4347 20.4238 74.4297 20.3517 74.4232 20.3037C74.4141 20.1787 74.3835 20.0641 74.3317 19.9598C74.2847 19.8554 74.2119 19.7736 74.1134 19.7143C74.0148 19.6503 73.8884 19.621 73.7343 19.6264C73.5755 19.6319 73.449 19.6701 73.3551 19.7408C73.266 19.8114 73.2018 19.9053 73.1625 20.0223C73.128 20.1392 73.1084 20.2677 73.1036 20.4076C73.1025 20.5137 73.1063 20.622 73.115 20.7326C73.1295 20.8719 73.158 20.9987 73.2005 21.1129C73.2479 21.2269 73.3185 21.316 73.4123 21.3802C73.511 21.4443 73.6398 21.4735 73.7987 21.468ZM76.6565 22.3878C76.6036 22.3896 76.5597 22.3743 76.5248 22.3417C76.4899 22.3092 76.4715 22.2665 76.4697 22.2135L76.3511 18.8191C76.3495 18.771 76.3649 18.7294 76.3974 18.6946C76.4298 18.6549 76.4724 18.6341 76.5254 18.6323L77.3559 18.6032C77.4089 18.6014 77.4529 18.6191 77.488 18.6565C77.5228 18.689 77.5411 18.7293 77.5428 18.7775L77.5529 19.0664C77.6777 18.9126 77.8277 18.7917 78.003 18.7036C78.1831 18.6153 78.3863 18.5673 78.6126 18.5594L78.9304 18.5483C78.9785 18.5466 79.02 18.562 79.0549 18.5945C79.0946 18.6269 79.1154 18.6696 79.1172 18.7225L79.1432 19.4664C79.1449 19.5145 79.1271 19.5585 79.09 19.5984C79.0574 19.6333 79.0171 19.6516 78.9689 19.6533L78.2684 19.6777C78.071 19.6846 77.9189 19.7454 77.812 19.86C77.7098 19.9696 77.6621 20.1231 77.669 20.3205L77.7336 22.1694C77.7354 22.2223 77.7177 22.2663 77.6803 22.3014C77.6478 22.3363 77.605 22.3546 77.5521 22.3565L76.6565 22.3878ZM80.6768 22.3197C80.4168 22.3288 80.1816 22.2888 79.9712 22.1997C79.7655 22.1056 79.5995 21.9765 79.4732 21.8122C79.347 21.6478 79.2801 21.4598 79.2727 21.2479C79.2608 20.9061 79.391 20.6316 79.6634 20.4244C79.9356 20.2124 80.3015 20.0623 80.7612 19.9739L81.6592 19.8052L81.6556 19.7041C81.6496 19.5307 81.6089 19.3996 81.5334 19.3106C81.458 19.2217 81.324 19.1805 81.1314 19.1873C80.9966 19.192 80.8868 19.2223 80.802 19.2783C80.722 19.3341 80.6595 19.4086 80.6146 19.5018C80.5734 19.5659 80.5143 19.5993 80.4373 19.602L79.6284 19.6302C79.5754 19.6321 79.534 19.6191 79.5041 19.5912C79.4741 19.5585 79.4607 19.5204 79.464 19.4769C79.461 19.3902 79.4888 19.2904 79.5475 19.1775C79.6109 19.0596 79.7081 18.9429 79.839 18.8275C79.9699 18.712 80.1401 18.6145 80.3494 18.5349C80.5587 18.4553 80.8127 18.4102 81.1112 18.3998C81.4241 18.3889 81.6926 18.4157 81.9166 18.4801C82.1406 18.5446 82.3223 18.6395 82.4616 18.7648C82.6058 18.8899 82.7147 19.0404 82.7883 19.2162C82.8618 19.3872 82.9022 19.5786 82.9096 19.7904L82.9863 21.9859C82.9881 22.0389 82.9704 22.0829 82.933 22.118C82.9005 22.1528 82.8602 22.1711 82.812 22.1728L81.9743 22.2021C81.9213 22.2039 81.8774 22.1886 81.8425 22.156C81.8076 22.1235 81.7893 22.0808 81.7874 22.0278L81.7786 21.775C81.7192 21.8687 81.6379 21.9559 81.5346 22.0366C81.4314 22.1174 81.3083 22.1819 81.1654 22.2303C81.0274 22.2833 80.8646 22.3131 80.6768 22.3197ZM80.9875 21.4845C81.1271 21.4796 81.2513 21.4464 81.36 21.3847C81.4734 21.3181 81.5592 21.2211 81.6174 21.0937C81.6803 20.9614 81.7083 20.7989 81.7016 20.6063L81.6981 20.5052L81.088 20.635C80.863 20.6814 80.699 20.7474 80.596 20.8329C80.4975 20.9135 80.4502 21.0067 80.4539 21.1127C80.4567 21.1945 80.4833 21.2635 80.5334 21.3196C80.5836 21.3757 80.6478 21.4192 80.726 21.4502C80.804 21.4764 80.8912 21.4879 80.9875 21.4845ZM83.8437 22.1368C83.7907 22.1386 83.7468 22.1233 83.7119 22.0908C83.677 22.0582 83.6587 22.0155 83.6568 21.9625L83.5383 18.5681C83.5364 18.5152 83.5518 18.4712 83.5843 18.4364C83.6168 18.4015 83.6596 18.3831 83.7125 18.3813L84.4997 18.3538C84.5527 18.3519 84.5966 18.3673 84.6315 18.3998C84.6664 18.4323 84.6847 18.4751 84.6866 18.528L84.6952 18.7736C84.7869 18.6402 84.9178 18.5224 85.0878 18.42C85.2576 18.3129 85.4603 18.2527 85.6961 18.2397C86.2494 18.2107 86.6371 18.4069 86.8591 18.8282C86.9635 18.6413 87.1171 18.4865 87.3201 18.3638C87.523 18.2362 87.7472 18.1681 87.9927 18.1595C88.2431 18.1508 88.469 18.2007 88.6704 18.3094C88.8765 18.413 89.0439 18.5807 89.1725 18.8125C89.3009 19.0394 89.3716 19.3382 89.3845 19.7089L89.4562 21.76C89.458 21.813 89.4403 21.857 89.4029 21.892C89.3704 21.9269 89.3301 21.9452 89.2819 21.9469L88.4442 21.9761C88.3912 21.978 88.3449 21.9627 88.3052 21.9304C88.2703 21.8978 88.2519 21.8551 88.2501 21.8021L88.1802 19.8016C88.1743 19.6331 88.1456 19.5015 88.0941 19.4069C88.0424 19.3075 87.9749 19.2375 87.8916 19.197C87.8082 19.1566 87.7136 19.1382 87.6076 19.1419C87.521 19.1449 87.4351 19.1696 87.3499 19.216C87.2696 19.2622 87.2047 19.3367 87.1553 19.4397C87.1105 19.5377 87.091 19.6709 87.0969 19.8394L87.1668 21.84C87.1686 21.8929 87.1533 21.9368 87.1207 21.9717C87.0882 22.0066 87.0455 22.025 86.9925 22.0268L86.1547 22.0561C86.1018 22.0579 86.0579 22.0426 86.023 22.0101C85.9881 21.9775 85.9697 21.9348 85.9679 21.8818L85.898 19.8813C85.8921 19.7128 85.861 19.5813 85.8047 19.4869C85.7482 19.3876 85.6783 19.3177 85.5949 19.2773C85.5116 19.2368 85.4193 19.2183 85.3182 19.2218C85.2316 19.2249 85.1456 19.2496 85.0605 19.2959C84.9802 19.3421 84.9153 19.4167 84.8658 19.5196C84.8211 19.6176 84.8015 19.7485 84.8072 19.9122L84.8774 21.9199C84.8792 21.9729 84.8615 22.0169 84.8241 22.0519C84.7916 22.0868 84.7488 22.1052 84.6959 22.107L83.8437 22.1368ZM91.6753 21.9356C91.3623 21.9465 91.0939 21.9222 90.8701 21.8625C90.6509 21.7978 90.4697 21.7174 90.3265 21.6211C90.1882 21.5247 90.0835 21.4248 90.0124 21.3212C89.9411 21.2128 89.9017 21.1202 89.8942 21.0433C89.8875 20.9905 89.9029 20.9466 89.9402 20.9115C89.9774 20.8717 90.0176 20.851 90.061 20.8495L90.8843 20.8207C90.8987 20.8202 90.9109 20.8222 90.9207 20.8267C90.9305 20.8312 90.9452 20.8403 90.965 20.8541C91.0288 20.8856 91.0929 20.9267 91.1573 20.9775C91.2216 21.0235 91.2953 21.0643 91.3785 21.0999C91.4617 21.1356 91.5611 21.1514 91.6766 21.1474C91.8115 21.1427 91.9237 21.1122 92.0133 21.0561C92.1029 20.9999 92.1459 20.9189 92.1422 20.813C92.1395 20.7359 92.1157 20.6741 92.0707 20.6275C92.0255 20.576 91.9346 20.5286 91.7981 20.4851C91.6665 20.4415 91.4674 20.4003 91.2009 20.3614C90.9485 20.3123 90.7268 20.2453 90.5359 20.1604C90.3447 20.0707 90.196 19.953 90.0897 19.8072C89.9832 19.6567 89.9261 19.4731 89.9186 19.2564C89.9119 19.0638 89.968 18.8763 90.0869 18.6938C90.2059 18.5112 90.3838 18.3604 90.6207 18.2413C90.8574 18.1173 91.1515 18.0492 91.503 18.0369C91.7822 18.0272 92.0241 18.0525 92.2287 18.1128C92.4379 18.1682 92.6141 18.244 92.7573 18.3402C92.9052 18.4363 93.0172 18.536 93.0931 18.6394C93.169 18.7428 93.2109 18.8378 93.2187 18.9242C93.2252 18.9722 93.2123 19.0161 93.18 19.0558C93.1474 19.0906 93.1095 19.1088 93.0662 19.1104L92.3151 19.1366C92.2958 19.1373 92.2765 19.1355 92.257 19.1314C92.2374 19.1224 92.2202 19.1134 92.2055 19.1043C92.1467 19.0774 92.0876 19.0409 92.0281 18.9948C91.9686 18.9486 91.8997 18.9076 91.8213 18.8718C91.743 18.836 91.646 18.8201 91.5304 18.8241C91.4004 18.8287 91.3003 18.8611 91.2301 18.9214C91.1599 18.9817 91.1264 19.0576 91.1296 19.1491C91.1318 19.2116 91.1531 19.2687 91.1935 19.3204C91.2386 19.3718 91.3246 19.417 91.4513 19.456C91.5828 19.4948 91.7843 19.5359 92.0558 19.5795C92.3898 19.6209 92.6577 19.6983 92.8593 19.8117C93.0607 19.9204 93.2051 20.0527 93.2925 20.2088C93.3798 20.36 93.4264 20.5223 93.4324 20.6956C93.4405 20.9267 93.3779 21.1338 93.2444 21.3168C93.1159 21.4996 92.9185 21.6463 92.6524 21.7569C92.3862 21.8626 92.0604 21.9221 91.6753 21.9356Z" fill="#3E170E"/>
<path fill-rule="evenodd" clip-rule="evenodd" d="M110.404 14.798C110.585 15.2464 110.336 15.7471 109.846 15.9164L109.344 16.09L111.833 16.3778C112.274 16.4289 112.615 16.7558 112.651 17.1628C112.688 17.5698 112.41 17.9466 111.984 18.0677L109.167 18.8682L110.593 19.4444C110.943 19.5857 111.164 19.9073 111.153 20.2587C111.142 20.6102 110.901 20.9221 110.543 21.0486L106.648 22.424C106.16 22.5965 105.614 22.3738 105.429 21.9266C105.244 21.4794 105.49 20.9771 105.978 20.8047L107.727 20.1871L106.083 19.5228C105.722 19.3772 105.5 19.0409 105.524 18.6793C105.549 18.3176 105.816 18.0067 106.193 17.8994L107.251 17.5987L105.318 17.3751C104.887 17.3252 104.55 17.0122 104.502 16.6161C104.453 16.2201 104.705 15.8431 105.113 15.7022L109.189 14.2928C109.678 14.1234 110.222 14.3496 110.404 14.798Z" fill="#BA3D48"/>
<path d="M124.309 20.7237C124.256 20.7256 124.212 20.7102 124.178 20.6777C124.143 20.6452 124.124 20.6024 124.122 20.5495L123.959 15.8551C123.957 15.8021 123.972 15.7582 124.005 15.7233C124.037 15.6885 124.08 15.6701 124.133 15.6682L127.448 15.5525C127.501 15.5506 127.545 15.566 127.579 15.5985C127.619 15.6309 127.64 15.6735 127.642 15.7265L127.667 16.4559C127.669 16.5089 127.651 16.5529 127.614 16.5879C127.582 16.6228 127.539 16.6412 127.486 16.643L125.261 16.7207L125.298 17.7824L127.378 17.7097C127.431 17.7079 127.475 17.7256 127.51 17.763C127.55 17.7953 127.571 17.838 127.573 17.8909L127.598 18.6132C127.6 18.6613 127.582 18.7053 127.545 18.7452C127.512 18.78 127.469 18.7984 127.417 18.8003L125.337 18.8729L125.394 20.5051C125.395 20.5581 125.38 20.602 125.348 20.6369C125.315 20.6717 125.272 20.6901 125.219 20.692L124.309 20.7237ZM128.479 20.5781C128.426 20.58 128.382 20.5646 128.348 20.5321C128.313 20.4996 128.294 20.4568 128.292 20.4039L128.174 17.0095C128.172 16.9613 128.188 16.9198 128.22 16.8849C128.253 16.8452 128.295 16.8245 128.348 16.8226L129.179 16.7936C129.232 16.7918 129.276 16.8095 129.311 16.8468C129.346 16.8794 129.364 16.9197 129.366 16.9679L129.376 17.2567C129.5 17.1029 129.651 16.982 129.826 16.8939C130.006 16.8057 130.209 16.7576 130.435 16.7497L130.753 16.7386C130.801 16.7369 130.843 16.7524 130.878 16.7849C130.917 16.8173 130.938 16.8599 130.94 16.9129L130.966 17.6568C130.968 17.7049 130.95 17.7489 130.913 17.7888C130.88 17.8236 130.84 17.8419 130.792 17.8436L130.091 17.8681C129.894 17.875 129.742 17.9357 129.635 18.0503C129.533 18.1599 129.485 18.3135 129.492 18.5109L129.556 20.3597C129.558 20.4127 129.54 20.4567 129.503 20.4917C129.471 20.5266 129.428 20.545 129.375 20.5468L128.479 20.5781ZM133.142 20.4876C132.573 20.5075 132.115 20.3692 131.768 20.0728C131.42 19.7764 131.228 19.3252 131.193 18.719C131.191 18.6853 131.19 18.642 131.188 18.589C131.186 18.5361 131.185 18.4951 131.184 18.4662C131.185 18.0854 131.258 17.7574 131.402 17.4824C131.552 17.2024 131.761 16.9878 132.031 16.8386C132.305 16.6844 132.627 16.6009 132.998 16.5879C133.422 16.5731 133.774 16.6452 134.054 16.8041C134.339 16.9629 134.557 17.1843 134.706 17.4683C134.856 17.7523 134.937 18.0797 134.95 18.4504L134.956 18.6237C134.958 18.6767 134.941 18.7207 134.903 18.7557C134.871 18.7906 134.83 18.8089 134.782 18.8106L132.471 18.8913C132.471 18.8961 132.472 18.9033 132.472 18.913C132.472 18.9226 132.473 18.9322 132.473 18.9418C132.483 19.0813 132.511 19.2081 132.559 19.3221C132.606 19.4361 132.676 19.5253 132.77 19.5895C132.864 19.6537 132.976 19.6835 133.106 19.679C133.202 19.6756 133.281 19.6584 133.343 19.6273C133.409 19.5913 133.463 19.5532 133.505 19.5132C133.547 19.4684 133.579 19.4311 133.603 19.4013C133.644 19.3517 133.677 19.3216 133.701 19.3111C133.729 19.2957 133.772 19.287 133.83 19.2849L134.725 19.2537C134.774 19.252 134.813 19.2651 134.842 19.293C134.877 19.3159 134.893 19.3515 134.89 19.3998C134.888 19.4818 134.85 19.5819 134.777 19.7002C134.704 19.8184 134.595 19.9379 134.45 20.0587C134.309 20.1745 134.129 20.2723 133.911 20.3523C133.692 20.4322 133.435 20.4774 133.142 20.4876ZM132.446 18.1763L133.667 18.1337L133.666 18.1192C133.661 17.9652 133.632 17.8312 133.58 17.7173C133.533 17.6033 133.46 17.5166 133.361 17.4574C133.267 17.398 133.156 17.3706 133.026 17.3751C132.896 17.3797 132.786 17.4148 132.697 17.4806C132.612 17.5462 132.548 17.6377 132.504 17.7549C132.46 17.8721 132.44 18.0078 132.446 18.1619L132.446 18.1763ZM137.285 20.3429C136.717 20.3627 136.259 20.2245 135.911 19.9281C135.564 19.6317 135.372 19.1805 135.336 18.5743C135.335 18.5406 135.334 18.4973 135.332 18.4443C135.33 18.3914 135.328 18.3504 135.327 18.3215C135.329 17.9407 135.401 17.6127 135.546 17.3377C135.695 17.0577 135.905 16.8431 136.174 16.6939C136.449 16.5397 136.771 16.4562 137.142 16.4432C137.566 16.4284 137.918 16.5005 138.198 16.6594C138.483 16.8182 138.7 17.0396 138.85 17.3236C139 17.6076 139.081 17.935 139.094 18.3057L139.1 18.479C139.102 18.532 139.084 18.576 139.047 18.611C139.014 18.6459 138.974 18.6642 138.926 18.6659L136.615 18.7466C136.615 18.7514 136.615 18.7586 136.616 18.7683C136.616 18.7779 136.616 18.7875 136.617 18.7971C136.626 18.9366 136.655 19.0634 136.702 19.1774C136.75 19.2914 136.82 19.3806 136.914 19.4448C137.008 19.509 137.12 19.5388 137.25 19.5343C137.346 19.5309 137.425 19.5137 137.487 19.4826C137.553 19.4466 137.607 19.4085 137.649 19.3685C137.691 19.3237 137.723 19.2864 137.746 19.2566C137.788 19.207 137.821 19.1769 137.844 19.1664C137.873 19.151 137.916 19.1422 137.974 19.1402L138.869 19.109C138.917 19.1073 138.956 19.1204 138.986 19.1483C139.021 19.1712 139.036 19.2068 139.033 19.2551C139.031 19.3371 138.994 19.4372 138.921 19.5555C138.848 19.6737 138.739 19.7932 138.594 19.914C138.453 20.0298 138.273 20.1276 138.054 20.2076C137.835 20.2875 137.579 20.3327 137.285 20.3429ZM136.59 18.0316L137.81 17.989L137.81 17.9745C137.805 17.8205 137.776 17.6865 137.724 17.5726C137.676 17.4586 137.603 17.3719 137.505 17.3127C137.411 17.2533 137.299 17.2259 137.169 17.2304C137.039 17.235 136.93 17.2701 136.84 17.3359C136.756 17.4015 136.692 17.493 136.647 17.6102C136.603 17.7274 136.584 17.8631 136.589 18.0172L136.59 18.0316ZM141.346 20.1288C141.293 20.1306 141.249 20.1153 141.214 20.0828C141.18 20.0502 141.161 20.0075 141.159 19.9545L140.995 15.2602C140.994 15.2072 141.009 15.1633 141.041 15.1284C141.074 15.0935 141.117 15.0752 141.17 15.0733L143.047 15.0077C143.519 14.9913 143.924 15.0543 144.262 15.1967C144.599 15.3344 144.862 15.5469 145.05 15.8344C145.239 16.1171 145.347 16.4724 145.377 16.9004C145.389 17.1121 145.398 17.2974 145.403 17.4563C145.409 17.6152 145.413 17.7982 145.415 18.0054C145.412 18.4539 145.328 18.828 145.165 19.1277C145.007 19.4273 144.767 19.655 144.444 19.8109C144.127 19.9618 143.732 20.0455 143.26 20.062L141.346 20.1288ZM142.422 19.05L143.188 19.0232C143.395 19.016 143.564 18.9787 143.697 18.9114C143.834 18.8392 143.934 18.732 143.997 18.59C144.064 18.4479 144.096 18.2636 144.093 18.0371C144.098 17.8972 144.098 17.7718 144.095 17.6611C144.095 17.5502 144.092 17.4394 144.083 17.3289C144.079 17.2181 144.07 17.0955 144.056 16.961C144.035 16.634 143.94 16.3987 143.771 16.2551C143.606 16.1066 143.365 16.0379 143.048 16.049L142.318 16.0745L142.422 19.05ZM147.847 19.9741C147.279 19.9939 146.821 19.8556 146.473 19.5593C146.126 19.2629 145.934 18.8116 145.898 18.2055C145.897 18.1718 145.896 18.1284 145.894 18.0755C145.892 18.0225 145.89 17.9816 145.889 17.9527C145.891 17.5718 145.964 17.2439 146.108 16.9689C146.257 16.6889 146.467 16.4743 146.736 16.3251C147.011 16.1709 147.333 16.0873 147.704 16.0744C148.128 16.0596 148.48 16.1317 148.76 16.2906C149.045 16.4494 149.262 16.6707 149.412 16.9547C149.562 17.2388 149.643 17.5661 149.656 17.9369L149.662 18.1102C149.664 18.1632 149.646 18.2072 149.609 18.2422C149.576 18.2771 149.536 18.2954 149.488 18.2971L147.177 18.3778C147.177 18.3826 147.177 18.3898 147.178 18.3994C147.178 18.4091 147.178 18.4187 147.179 18.4283C147.188 18.5678 147.217 18.6945 147.264 18.8086C147.312 18.9226 147.382 19.0117 147.476 19.0759C147.57 19.1402 147.682 19.17 147.812 19.1654C147.908 19.1621 147.987 19.1449 148.049 19.1138C148.115 19.0777 148.169 19.0397 148.211 18.9997C148.253 18.9548 148.285 18.9175 148.308 18.8878C148.35 18.8381 148.383 18.8081 148.406 18.7976C148.435 18.7821 148.478 18.7734 148.536 18.7714L149.431 18.7401C149.479 18.7384 149.518 18.7515 149.548 18.7794C149.583 18.8023 149.598 18.8379 149.595 18.8862C149.593 18.9683 149.556 19.0684 149.483 19.1866C149.41 19.3049 149.301 19.4244 149.156 19.5451C149.015 19.6609 148.835 19.7588 148.616 19.8388C148.397 19.9187 148.141 19.9638 147.847 19.9741ZM147.152 17.6628L148.372 17.6201L148.372 17.6057C148.367 17.4516 148.338 17.3177 148.286 17.2038C148.238 17.0897 148.165 17.0031 148.067 16.9439C147.973 16.8845 147.861 16.8571 147.731 16.8616C147.601 16.8661 147.492 16.9013 147.402 16.9671C147.318 17.0327 147.254 17.1241 147.21 17.2414C147.165 17.3586 147.146 17.4943 147.151 17.6483L147.152 17.6628ZM150.436 19.8114C150.383 19.8132 150.339 19.7979 150.304 19.7654C150.269 19.7328 150.251 19.6901 150.249 19.6371L150.082 14.8705C150.081 14.8176 150.096 14.7736 150.128 14.7388C150.161 14.7039 150.204 14.6855 150.257 14.6837L151.109 14.6539C151.162 14.6521 151.206 14.6674 151.241 14.6999C151.275 14.7325 151.294 14.7752 151.296 14.8282L151.462 19.5948C151.464 19.6477 151.449 19.6916 151.416 19.7265C151.384 19.7614 151.341 19.7798 151.288 19.7816L150.436 19.8114ZM152.605 19.7356C152.552 19.7375 152.508 19.7221 152.473 19.6896C152.438 19.6571 152.42 19.6144 152.418 19.5614L152.299 16.167C152.297 16.114 152.313 16.0701 152.345 16.0352C152.378 16.0003 152.42 15.982 152.473 15.9801L153.326 15.9504C153.374 15.9487 153.415 15.9641 153.45 15.9966C153.49 16.029 153.511 16.0717 153.513 16.1246L153.631 19.519C153.633 19.572 153.615 19.616 153.578 19.651C153.545 19.6859 153.505 19.7042 153.457 19.7059L152.605 19.7356ZM152.447 15.4387C152.394 15.4406 152.35 15.4252 152.316 15.3927C152.281 15.3602 152.262 15.3174 152.26 15.2645L152.238 14.6217C152.236 14.5688 152.251 14.5248 152.284 14.4899C152.316 14.4503 152.359 14.4295 152.412 14.4276L153.271 14.3976C153.324 14.3958 153.368 14.4135 153.403 14.4509C153.443 14.4832 153.464 14.5259 153.466 14.5788L153.488 15.2216C153.49 15.2746 153.472 15.3186 153.435 15.3536C153.402 15.3885 153.36 15.4069 153.307 15.4087L152.447 15.4387ZM155.675 19.6284C155.603 19.6309 155.549 19.6159 155.514 19.5834C155.479 19.5461 155.449 19.5037 155.423 19.4564L153.941 16.153C153.931 16.1341 153.925 16.1126 153.925 16.0885C153.923 16.0452 153.936 16.0086 153.964 15.9787C153.997 15.9438 154.037 15.9255 154.085 15.9239L154.901 15.8954C154.964 15.8932 155.013 15.9083 155.047 15.9409C155.082 15.9734 155.105 16.0063 155.116 16.0397L156.009 18.2284L156.755 15.9825C156.764 15.9484 156.784 15.914 156.817 15.8791C156.849 15.8442 156.897 15.8257 156.96 15.8235L157.776 15.795C157.819 15.7935 157.858 15.809 157.893 15.8415C157.928 15.8692 157.946 15.9047 157.947 15.9481C157.948 15.9721 157.944 15.994 157.935 16.0136L156.687 19.4123C156.67 19.4611 156.642 19.5055 156.605 19.5453C156.572 19.5802 156.518 19.599 156.441 19.6017L155.675 19.6284ZM160.085 19.5467C159.516 19.5666 159.058 19.4283 158.711 19.1319C158.363 18.8356 158.171 18.3843 158.136 17.7781C158.134 17.7444 158.133 17.7011 158.131 17.6481C158.129 17.5952 158.128 17.5543 158.127 17.5254C158.128 17.1445 158.201 16.8166 158.345 16.5416C158.495 16.2616 158.704 16.047 158.974 15.8978C159.248 15.7436 159.57 15.66 159.941 15.647C160.365 15.6323 160.717 15.7043 160.997 15.8633C161.282 16.022 161.5 16.2434 161.649 16.5274C161.799 16.8114 161.881 17.1388 161.893 17.5095L161.899 17.6829C161.901 17.7358 161.884 17.7798 161.846 17.8149C161.814 17.8498 161.773 17.868 161.725 17.8697L159.414 17.9504C159.414 17.9552 159.415 17.9625 159.415 17.9721C159.415 17.9817 159.416 17.9913 159.416 18.001C159.426 18.1404 159.454 18.2672 159.502 18.3812C159.549 18.4953 159.619 18.5844 159.713 18.6486C159.807 18.7128 159.919 18.7427 160.049 18.7381C160.145 18.7348 160.224 18.7175 160.286 18.6865C160.352 18.6504 160.406 18.6124 160.448 18.5723C160.49 18.5275 160.522 18.4902 160.546 18.4605C160.587 18.4108 160.62 18.3807 160.644 18.3703C160.672 18.3548 160.715 18.3461 160.773 18.3441L161.668 18.3128C161.717 18.3111 161.756 18.3242 161.785 18.3521C161.82 18.375 161.836 18.4106 161.833 18.4589C161.831 18.5409 161.793 18.6411 161.72 18.7593C161.647 18.8775 161.538 18.997 161.393 19.1178C161.252 19.2336 161.072 19.3315 160.854 19.4114C160.635 19.4914 160.378 19.5365 160.085 19.5467ZM159.389 17.2354L160.61 17.1928L160.609 17.1784C160.604 17.0243 160.575 16.8903 160.523 16.7765C160.476 16.6624 160.403 16.5758 160.304 16.5165C160.21 16.4571 160.099 16.4297 159.969 16.4343C159.839 16.4388 159.729 16.474 159.64 16.5397C159.555 16.6054 159.491 16.6968 159.447 16.814C159.403 16.9313 159.383 17.0669 159.389 17.221L159.389 17.2354ZM162.673 19.384C162.62 19.3859 162.576 19.3706 162.541 19.338C162.506 19.3055 162.488 19.2628 162.486 19.2098L162.368 15.8154C162.366 15.7673 162.381 15.7257 162.414 15.6909C162.446 15.6512 162.489 15.6304 162.542 15.6285L163.372 15.5995C163.425 15.5977 163.469 15.6154 163.504 15.6528C163.539 15.6853 163.558 15.7256 163.559 15.7738L163.569 16.0627C163.694 15.9089 163.844 15.7879 164.019 15.6999C164.2 15.6116 164.403 15.5636 164.629 15.5557L164.947 15.5446C164.995 15.5429 165.036 15.5583 165.071 15.5908C165.111 15.6232 165.132 15.6658 165.134 15.7188L165.16 16.4627C165.161 16.5108 165.144 16.5548 165.106 16.5947C165.074 16.6296 165.034 16.6479 164.985 16.6495L164.285 16.674C164.087 16.6809 163.935 16.7416 163.828 16.8563C163.726 16.9659 163.679 17.1194 163.685 17.3168L163.75 19.1657C163.752 19.2186 163.734 19.2626 163.697 19.2977C163.664 19.3326 163.621 19.3509 163.569 19.3528L162.673 19.384ZM166.376 20.6286C166.333 20.6301 166.296 20.6169 166.266 20.5891C166.236 20.5612 166.221 20.5256 166.219 20.4822C166.219 20.4726 166.218 20.4582 166.218 20.4389C166.222 20.4243 166.228 20.4072 166.237 20.3876L166.753 19.0102L165.252 15.7797C165.237 15.7465 165.228 15.7179 165.228 15.6938C165.236 15.6502 165.254 15.6134 165.281 15.5835C165.309 15.5488 165.345 15.5307 165.388 15.5291L166.211 15.5004C166.274 15.4982 166.32 15.5135 166.35 15.5462C166.385 15.5739 166.408 15.6068 166.419 15.645L167.323 17.7176L168.094 15.5865C168.112 15.5473 168.135 15.5128 168.163 15.4829C168.196 15.448 168.243 15.4294 168.306 15.4273L169.115 15.399C169.158 15.3975 169.195 15.4131 169.225 15.4458C169.259 15.4735 169.278 15.5066 169.279 15.5451C169.28 15.5692 169.274 15.6007 169.26 15.6398L167.382 20.4416C167.369 20.4807 167.346 20.5152 167.313 20.5453C167.281 20.5801 167.233 20.5987 167.17 20.6009L166.376 20.6286ZM172.781 19.1034C172.377 19.1175 172.033 19.0644 171.749 18.9442C171.47 18.8238 171.252 18.6458 171.094 18.4103C170.941 18.1698 170.849 17.8813 170.818 17.545C170.81 17.4488 170.804 17.3406 170.799 17.2202C170.795 17.095 170.794 16.9866 170.795 16.895C170.802 16.5525 170.879 16.2581 171.025 16.012C171.17 15.7659 171.378 15.5731 171.648 15.4335C171.923 15.2937 172.255 15.217 172.645 15.2034C173.04 15.1896 173.377 15.2429 173.656 15.3634C173.94 15.4836 174.163 15.6614 174.325 15.8968C174.488 16.1321 174.584 16.4204 174.616 16.7616C174.624 16.8529 174.63 16.9611 174.634 17.0863C174.638 17.2067 174.64 17.3151 174.638 17.4116C174.631 17.7493 174.557 18.0435 174.416 18.2943C174.28 18.54 174.075 18.7328 173.8 18.8726C173.53 19.0121 173.191 19.0891 172.781 19.1034ZM172.75 18.2223C172.967 18.2147 173.121 18.1442 173.213 18.0109C173.31 17.8773 173.361 17.6803 173.366 17.4198C173.368 17.3474 173.367 17.2511 173.363 17.1307C173.359 17.0103 173.353 16.9141 173.346 16.8421C173.322 16.5874 173.258 16.3968 173.152 16.2703C173.051 16.1389 172.892 16.077 172.676 16.0845C172.464 16.0919 172.31 16.1648 172.213 16.3031C172.117 16.4367 172.068 16.6312 172.068 16.8867C172.065 16.9591 172.066 17.0555 172.07 17.1758C172.075 17.2962 172.08 17.3924 172.088 17.4645C172.106 17.7241 172.169 17.9172 172.274 18.0437C172.38 18.1701 172.539 18.2297 172.75 18.2223ZM175.446 18.938C175.393 18.9398 175.349 18.9245 175.314 18.892C175.28 18.8594 175.261 18.8167 175.259 18.7637L175.141 15.3693C175.139 15.3164 175.154 15.2725 175.187 15.2376C175.219 15.2027 175.262 15.1843 175.315 15.1825L176.146 15.1535C176.199 15.1516 176.243 15.167 176.277 15.1995C176.312 15.232 176.331 15.2748 176.332 15.3277L176.342 15.6022C176.462 15.4485 176.621 15.3176 176.82 15.2095C177.019 15.1013 177.255 15.0424 177.53 15.0328C177.809 15.0231 178.057 15.0771 178.273 15.1949C178.494 15.3125 178.669 15.492 178.798 15.7333C178.932 15.9697 179.004 16.2636 179.017 16.6151L179.087 18.6301C179.089 18.683 179.071 18.727 179.034 18.7621C179.001 18.797 178.961 18.8153 178.913 18.8169L178.003 18.8487C177.955 18.8504 177.911 18.8351 177.871 18.8027C177.836 18.7702 177.818 18.7274 177.816 18.6745L177.747 16.7028C177.739 16.4765 177.678 16.3051 177.563 16.1886C177.453 16.0671 177.292 16.0101 177.08 16.0175C176.882 16.0244 176.726 16.0925 176.61 16.2219C176.498 16.3463 176.446 16.5217 176.454 16.748L176.523 18.7196C176.525 18.7726 176.507 18.8166 176.47 18.8516C176.437 18.8865 176.397 18.9048 176.349 18.9065L175.446 18.938ZM183.296 18.7362C182.853 18.7517 182.465 18.6929 182.132 18.5599C181.8 18.4269 181.537 18.2191 181.344 17.9366C181.151 17.6493 181.037 17.2869 181.003 16.8495C180.99 16.6426 180.981 16.4356 180.974 16.2286C180.966 16.0216 180.961 15.812 180.959 15.6C180.963 15.166 181.051 14.799 181.224 14.4989C181.401 14.1938 181.651 13.9609 181.973 13.8003C182.296 13.6396 182.676 13.5516 183.114 13.5363C183.547 13.5211 183.93 13.5825 184.263 13.7203C184.6 13.858 184.868 14.0728 185.066 14.3647C185.264 14.6519 185.378 15.0119 185.408 15.4447C185.425 15.6562 185.437 15.8655 185.444 16.0725C185.451 16.2795 185.454 16.4867 185.451 16.6941C185.447 17.1329 185.359 17.5024 185.186 17.8025C185.013 18.0977 184.766 18.3233 184.444 18.4792C184.121 18.6351 183.738 18.7207 183.296 18.7362ZM183.259 17.6962C183.514 17.6873 183.719 17.603 183.872 17.4434C184.031 17.2836 184.109 17.035 184.107 16.6977C184.109 16.4855 184.107 16.2855 184.1 16.0977C184.093 15.91 184.082 15.7151 184.065 15.5133C184.048 15.2873 183.998 15.1058 183.916 14.9689C183.839 14.827 183.734 14.7246 183.602 14.6617C183.469 14.5989 183.319 14.5704 183.15 14.5763C182.987 14.582 182.841 14.6208 182.713 14.6927C182.586 14.7647 182.486 14.8742 182.414 15.0214C182.342 15.1637 182.305 15.3482 182.303 15.5748C182.305 15.7772 182.31 15.9723 182.316 16.16C182.323 16.3478 182.332 16.5475 182.344 16.7592C182.371 17.0957 182.466 17.3383 182.63 17.4868C182.794 17.6353 183.004 17.7051 183.259 17.6962ZM186.326 18.5581C186.273 18.5599 186.229 18.5446 186.194 18.5121C186.159 18.4795 186.141 18.4368 186.139 18.3838L186.02 14.9894C186.018 14.9365 186.034 14.8925 186.066 14.8577C186.099 14.8228 186.142 14.8044 186.195 14.8026L187.025 14.7736C187.078 14.7717 187.122 14.7871 187.157 14.8196C187.192 14.8521 187.21 14.8949 187.212 14.9478L187.222 15.2223C187.341 15.0686 187.501 14.9377 187.7 14.8296C187.898 14.7214 188.135 14.6625 188.409 14.6529C188.688 14.6432 188.936 14.6972 189.152 14.815C189.373 14.9326 189.548 15.1121 189.677 15.3534C189.811 15.5898 189.884 15.8837 189.896 16.2352L189.967 18.2502C189.968 18.3031 189.951 18.3471 189.913 18.3822C189.881 18.4171 189.84 18.4353 189.792 18.437L188.882 18.4688C188.834 18.4705 188.79 18.4551 188.751 18.4228C188.716 18.3902 188.697 18.3475 188.695 18.2945L188.627 16.3229C188.619 16.0966 188.557 15.9252 188.442 15.8087C188.332 15.6872 188.171 15.6302 187.959 15.6376C187.762 15.6445 187.605 15.7126 187.489 15.842C187.378 15.9664 187.326 16.1418 187.334 16.368L187.403 18.3397C187.405 18.3926 187.387 18.4367 187.349 18.4717C187.317 18.5066 187.277 18.5249 187.228 18.5265L186.326 18.5581ZM190.815 18.4013C190.762 18.4032 190.718 18.3878 190.683 18.3553C190.648 18.3228 190.63 18.28 190.628 18.2271L190.462 13.4605C190.46 13.4075 190.475 13.3636 190.508 13.3287C190.54 13.2938 190.583 13.2754 190.636 13.2736L191.488 13.2438C191.541 13.242 191.585 13.2573 191.62 13.2899C191.655 13.3224 191.673 13.3651 191.675 13.4181L191.841 18.1847C191.843 18.2376 191.828 18.2816 191.795 18.3164C191.763 18.3513 191.72 18.3697 191.667 18.3715L190.815 18.4013ZM192.984 18.3256C192.931 18.3274 192.887 18.3121 192.852 18.2795C192.817 18.247 192.799 18.2043 192.797 18.1513L192.678 14.7569C192.677 14.704 192.692 14.66 192.724 14.6252C192.757 14.5903 192.8 14.5719 192.853 14.5701L193.705 14.5403C193.753 14.5386 193.795 14.554 193.829 14.5866C193.869 14.6189 193.89 14.6616 193.892 14.7145L194.01 18.1089C194.012 18.1619 193.994 18.2059 193.957 18.241C193.925 18.2758 193.884 18.2941 193.836 18.2958L192.984 18.3256ZM192.827 14.0287C192.774 14.0305 192.73 14.0152 192.695 13.9826C192.66 13.9501 192.642 13.9074 192.64 13.8544L192.617 13.2116C192.615 13.1587 192.631 13.1148 192.663 13.0799C192.696 13.0402 192.738 13.0194 192.791 13.0176L193.651 12.9875C193.704 12.9857 193.748 13.0034 193.783 13.0408C193.822 13.0731 193.843 13.1158 193.845 13.1688L193.867 13.8115C193.869 13.8645 193.852 13.9085 193.814 13.9435C193.782 13.9784 193.739 13.9968 193.686 13.9986L192.827 14.0287ZM195.125 18.2508C195.072 18.2527 195.028 18.2373 194.993 18.2048C194.958 18.1723 194.94 18.1295 194.938 18.0766L194.819 14.6822C194.817 14.6292 194.833 14.5853 194.865 14.5504C194.898 14.5155 194.94 14.4972 194.993 14.4953L195.824 14.4663C195.877 14.4645 195.921 14.4798 195.956 14.5123C195.991 14.5448 196.009 14.5876 196.011 14.6406L196.02 14.915C196.14 14.7614 196.3 14.6305 196.498 14.5223C196.697 14.4141 196.934 14.3552 197.208 14.3457C197.487 14.3359 197.735 14.3899 197.951 14.5077C198.172 14.6253 198.347 14.8048 198.476 15.0462C198.61 15.2825 198.683 15.5764 198.695 15.9279L198.765 17.9429C198.767 17.9959 198.749 18.0399 198.712 18.0749C198.68 18.1098 198.639 18.1281 198.591 18.1298L197.681 18.1615C197.633 18.1632 197.589 18.1479 197.549 18.1155C197.515 18.083 197.496 18.0402 197.494 17.9873L197.425 16.0156C197.418 15.7893 197.356 15.618 197.241 15.5015C197.131 15.38 196.97 15.3229 196.758 15.3303C196.561 15.3372 196.404 15.4054 196.288 15.5347C196.177 15.6591 196.125 15.8345 196.133 16.0608L196.202 18.0324C196.203 18.0854 196.186 18.1294 196.148 18.1644C196.116 18.1993 196.075 18.2176 196.027 18.2193L195.125 18.2508ZM201.169 18.112C200.601 18.1319 200.143 17.9936 199.795 17.6972C199.447 17.4009 199.256 16.9496 199.22 16.3434C199.219 16.3097 199.217 16.2664 199.216 16.2134C199.214 16.1605 199.212 16.1196 199.211 16.0907C199.212 15.7098 199.285 15.3819 199.43 15.1069C199.579 14.8269 199.789 14.6123 200.058 14.4631C200.332 14.3089 200.655 14.2253 201.026 14.2123C201.449 14.1975 201.801 14.2696 202.082 14.4286C202.367 14.5873 202.584 14.8087 202.734 15.0927C202.884 15.3767 202.965 15.7041 202.978 16.0748L202.984 16.2482C202.986 16.3011 202.968 16.3451 202.931 16.3802C202.898 16.4151 202.858 16.4333 202.81 16.435L200.499 16.5157C200.499 16.5205 200.499 16.5278 200.499 16.5374C200.5 16.547 200.5 16.5566 200.5 16.5663C200.51 16.7057 200.539 16.8325 200.586 16.9465C200.633 17.0606 200.704 17.1497 200.798 17.2139C200.892 17.2781 201.004 17.308 201.134 17.3034C201.23 17.3 201.309 17.2828 201.37 17.2518C201.437 17.2157 201.491 17.1777 201.533 17.1376C201.575 17.0928 201.607 17.0555 201.63 17.0258C201.672 16.9761 201.704 16.946 201.728 16.9356C201.757 16.9201 201.8 16.9114 201.857 16.9094L202.753 16.8781C202.801 16.8764 202.84 16.8895 202.87 16.9174C202.905 16.9403 202.92 16.9759 202.917 17.0242C202.915 17.1062 202.878 17.2064 202.805 17.3246C202.732 17.4428 202.623 17.5623 202.477 17.6831C202.337 17.7989 202.157 17.8968 201.938 17.9767C201.719 18.0567 201.463 18.1018 201.169 18.112ZM200.474 15.8007L201.694 15.7581L201.694 15.7437C201.688 15.5896 201.66 15.4556 201.607 15.3417C201.56 15.2277 201.487 15.1411 201.389 15.0818C201.295 15.0224 201.183 14.995 201.053 14.9996C200.923 15.0041 200.814 15.0393 200.724 15.105C200.64 15.1707 200.575 15.2621 200.531 15.3793C200.487 15.4966 200.468 15.6322 200.473 15.7863L200.474 15.8007ZM207.118 17.9043C206.675 17.9198 206.287 17.861 205.954 17.728C205.622 17.595 205.359 17.3872 205.166 17.1047C204.973 16.8174 204.859 16.455 204.824 16.0176C204.812 15.8107 204.803 15.6038 204.796 15.3967C204.788 15.1897 204.783 14.9802 204.781 14.7681C204.785 14.3341 204.873 13.9671 205.046 13.667C205.223 13.3619 205.473 13.1291 205.795 12.9684C206.118 12.8077 206.498 12.7197 206.936 12.7044C207.369 12.6893 207.752 12.7506 208.085 12.8884C208.422 13.0261 208.69 13.2409 208.888 13.5328C209.086 13.82 209.2 14.18 209.23 14.6128C209.247 14.8243 209.259 15.0336 209.266 15.2406C209.273 15.4476 209.276 15.6548 209.273 15.8622C209.269 16.301 209.181 16.6705 209.008 16.9706C208.835 17.2658 208.588 17.4914 208.265 17.6473C207.943 17.8032 207.56 17.8888 207.118 17.9043ZM207.081 16.8643C207.336 16.8554 207.541 16.7712 207.694 16.6115C207.853 16.4517 207.931 16.2032 207.928 15.8658C207.931 15.6536 207.929 15.4536 207.922 15.2659C207.915 15.0781 207.904 14.8833 207.887 14.6814C207.87 14.4554 207.82 14.274 207.738 14.137C207.661 13.9951 207.556 13.8927 207.424 13.8298C207.291 13.767 207.141 13.7385 206.972 13.7444C206.809 13.7501 206.663 13.7889 206.535 13.8609C206.408 13.9328 206.308 14.0424 206.236 14.1895C206.164 14.3318 206.127 14.5163 206.125 14.7429C206.127 14.9453 206.132 15.1404 206.138 15.3281C206.145 15.5159 206.154 15.7157 206.166 15.9273C206.193 16.2639 206.288 16.5064 206.452 16.6549C206.616 16.8034 206.826 16.8732 207.081 16.8643ZM210.148 17.7262C210.095 17.728 210.051 17.7127 210.016 17.6802C209.981 17.6476 209.963 17.6049 209.961 17.5519L209.842 14.1575C209.841 14.1094 209.856 14.0679 209.889 14.033C209.921 13.9933 209.964 13.9725 210.017 13.9707L210.847 13.9417C210.9 13.9398 210.944 13.9576 210.979 13.9949C211.014 14.0274 211.032 14.0678 211.034 14.1159L211.044 14.4048C211.169 14.251 211.319 14.1301 211.494 14.042C211.674 13.9538 211.877 13.9057 212.104 13.8978L212.421 13.8867C212.47 13.885 212.511 13.9004 212.546 13.933C212.586 13.9653 212.606 14.008 212.608 14.061L212.634 14.8048C212.636 14.853 212.618 14.897 212.581 14.9368C212.549 14.9717 212.508 14.99 212.46 14.9917L211.76 15.0162C211.562 15.023 211.41 15.0838 211.303 15.1984C211.201 15.308 211.153 15.4615 211.16 15.6589L211.225 17.5078C211.227 17.5608 211.209 17.6048 211.171 17.6398C211.139 17.6747 211.096 17.6931 211.043 17.6949L210.148 17.7262ZM214.471 17.6475C214.239 17.6556 214.029 17.6268 213.838 17.5611C213.653 17.4905 213.49 17.3853 213.35 17.2456C213.215 17.1009 213.108 16.9262 213.028 16.7217C212.949 16.5124 212.899 16.2731 212.88 16.0038C212.872 15.9077 212.867 15.8235 212.864 15.7513C212.861 15.6742 212.861 15.5899 212.863 15.4983C212.863 15.2379 212.896 15.003 212.961 14.7934C213.026 14.5839 213.121 14.4022 213.246 14.2484C213.37 14.0946 213.525 13.9759 213.71 13.8923C213.895 13.8039 214.103 13.7557 214.334 13.7476C214.575 13.7392 214.784 13.7729 214.96 13.8487C215.136 13.9197 215.286 14.0156 215.411 14.1366L215.357 12.5911C215.355 12.5381 215.37 12.4942 215.403 12.4593C215.435 12.4244 215.478 12.4061 215.531 12.4042L216.412 12.3735C216.46 12.3718 216.502 12.3872 216.537 12.4197C216.577 12.4521 216.597 12.4948 216.599 12.5477L216.766 17.3143C216.767 17.3673 216.75 17.4113 216.712 17.4463C216.68 17.4812 216.64 17.4995 216.591 17.5012L215.775 17.5297C215.722 17.5315 215.678 17.5162 215.644 17.4837C215.609 17.4511 215.59 17.4084 215.588 17.3554L215.58 17.1243C215.47 17.268 215.324 17.3887 215.145 17.4866C214.965 17.5845 214.74 17.6381 214.471 17.6475ZM214.827 16.6662C214.99 16.6604 215.117 16.6223 215.206 16.5517C215.3 16.4761 215.366 16.3822 215.406 16.2699C215.45 16.1575 215.472 16.0362 215.473 15.906C215.474 15.8096 215.473 15.718 215.47 15.6314C215.467 15.5447 215.462 15.4557 215.454 15.3644C215.445 15.2442 215.414 15.1344 215.363 15.0349C215.311 14.9307 215.236 14.849 215.137 14.7897C215.039 14.7257 214.912 14.6964 214.758 14.7017C214.599 14.7073 214.473 14.7454 214.379 14.8162C214.29 14.8868 214.228 14.9806 214.194 15.0975C214.159 15.2144 214.139 15.3428 214.135 15.4828C214.125 15.6325 214.131 15.7818 214.15 15.9305C214.165 16.0698 214.193 16.1966 214.236 16.3108C214.278 16.425 214.347 16.5142 214.44 16.5784C214.539 16.6425 214.668 16.6717 214.827 16.6662ZM219.215 17.4819C218.646 17.5017 218.188 17.3634 217.841 17.0671C217.493 16.7707 217.301 16.3194 217.265 15.7133C217.264 15.6796 217.263 15.6362 217.261 15.5833C217.259 15.5303 217.258 15.4894 217.257 15.4605C217.258 15.0796 217.331 14.7517 217.475 14.4767C217.625 14.1967 217.834 13.9821 218.104 13.8329C218.378 13.6787 218.7 13.5951 219.071 13.5822C219.495 13.5674 219.847 13.6395 220.127 13.7984C220.412 13.9572 220.63 14.1785 220.779 14.4626C220.929 14.7466 221.01 15.0739 221.023 15.4447L221.029 15.618C221.031 15.671 221.014 15.715 220.976 15.75C220.944 15.7849 220.903 15.8032 220.855 15.8049L218.544 15.8856C218.544 15.8904 218.545 15.8976 218.545 15.9072C218.545 15.9169 218.546 15.9265 218.546 15.9361C218.556 16.0756 218.584 16.2023 218.631 16.3164C218.679 16.4304 218.749 16.5195 218.843 16.5837C218.937 16.648 219.049 16.6778 219.179 16.6733C219.275 16.6699 219.354 16.6527 219.416 16.6216C219.482 16.5855 219.536 16.5475 219.578 16.5075C219.62 16.4626 219.652 16.4253 219.676 16.3956C219.717 16.3459 219.75 16.3159 219.774 16.3054C219.802 16.29 219.845 16.2812 219.903 16.2792L220.798 16.2479C220.847 16.2462 220.886 16.2593 220.915 16.2872C220.95 16.3101 220.966 16.3457 220.963 16.394C220.961 16.4761 220.923 16.5762 220.85 16.6944C220.777 16.8127 220.668 16.9322 220.523 17.053C220.382 17.1687 220.202 17.2666 219.983 17.3466C219.765 17.4265 219.508 17.4716 219.215 17.4819ZM218.519 15.1706L219.74 15.1279L219.739 15.1135C219.734 14.9594 219.705 14.8255 219.653 14.7116C219.605 14.5975 219.533 14.5109 219.434 14.4517C219.34 14.3923 219.229 14.3649 219.099 14.3694C218.969 14.3739 218.859 14.4091 218.77 14.4749C218.685 14.5405 218.621 14.6319 218.577 14.7492C218.533 14.8664 218.513 15.0021 218.519 15.1561L218.519 15.1706ZM221.803 17.3192C221.75 17.321 221.706 17.3057 221.671 17.2732C221.636 17.2406 221.618 17.1979 221.616 17.1449L221.498 13.7505C221.496 13.7024 221.511 13.6609 221.544 13.626C221.576 13.5863 221.619 13.5655 221.672 13.5637L222.502 13.5347C222.555 13.5328 222.599 13.5506 222.634 13.5879C222.669 13.6204 222.687 13.6608 222.689 13.7089L222.699 13.9978C222.824 13.844 222.974 13.7231 223.149 13.635C223.329 13.5468 223.533 13.4987 223.759 13.4908L224.077 13.4797C224.125 13.478 224.166 13.4934 224.201 13.526C224.241 13.5583 224.262 13.601 224.264 13.6539L224.29 14.3978C224.291 14.446 224.273 14.49 224.236 14.5298C224.204 14.5647 224.163 14.583 224.115 14.5847L223.415 14.6091C223.217 14.616 223.065 14.6768 222.958 14.7914C222.856 14.901 222.808 15.0545 222.815 15.2519L222.88 17.1008C222.882 17.1538 222.864 17.1978 222.827 17.2328C222.794 17.2677 222.751 17.2861 222.698 17.2879L221.803 17.3192ZM226.306 17.2343C225.993 17.2452 225.724 17.2208 225.5 17.1611C225.281 17.0965 225.1 17.016 224.957 16.9198C224.819 16.8234 224.714 16.7234 224.643 16.6198C224.571 16.5115 224.532 16.4188 224.525 16.342C224.518 16.2892 224.533 16.2453 224.571 16.2102C224.608 16.1703 224.648 16.1497 224.691 16.1481L225.515 16.1194C225.529 16.1189 225.541 16.1209 225.551 16.1253C225.561 16.1298 225.576 16.139 225.595 16.1527C225.659 16.1842 225.723 16.2254 225.788 16.2762C225.852 16.3221 225.926 16.3629 226.009 16.3986C226.092 16.4343 226.191 16.4501 226.307 16.446C226.442 16.4413 226.554 16.4109 226.644 16.3547C226.733 16.2986 226.776 16.2175 226.773 16.1116C226.77 16.0346 226.746 15.9727 226.701 15.9261C226.656 15.8747 226.565 15.8272 226.428 15.7838C226.297 15.7402 226.098 15.6989 225.831 15.66C225.579 15.611 225.357 15.544 225.166 15.4591C224.975 15.3693 224.826 15.2516 224.72 15.1059C224.613 14.9553 224.556 14.7717 224.549 14.5551C224.542 14.3625 224.598 14.1749 224.717 13.9924C224.836 13.8099 225.014 13.6591 225.251 13.5399C225.488 13.416 225.782 13.3478 226.133 13.3356C226.413 13.3258 226.654 13.3511 226.859 13.4115C227.068 13.4668 227.244 13.5426 227.388 13.6389C227.536 13.7349 227.647 13.8347 227.723 13.9381C227.799 14.0415 227.841 14.1364 227.849 14.2229C227.856 14.2709 227.843 14.3147 227.81 14.3544C227.778 14.3893 227.74 14.4075 227.696 14.409L226.945 14.4352C226.926 14.4359 226.907 14.4342 226.887 14.43C226.868 14.4211 226.851 14.412 226.836 14.4029C226.777 14.376 226.718 14.3395 226.658 14.2934C226.599 14.2473 226.53 14.2063 226.452 14.1705C226.373 14.1346 226.276 14.1187 226.161 14.1228C226.031 14.1273 225.931 14.1597 225.86 14.22C225.79 14.2803 225.757 14.3562 225.76 14.4477C225.762 14.5103 225.783 14.5674 225.824 14.619C225.869 14.6705 225.955 14.7157 226.082 14.7546C226.213 14.7934 226.415 14.8346 226.686 14.8781C227.02 14.9195 227.288 14.9969 227.49 15.1104C227.691 15.2191 227.835 15.3514 227.923 15.5074C228.01 15.6586 228.057 15.8209 228.063 15.9942C228.071 16.2254 228.008 16.4324 227.875 16.6154C227.746 16.7983 227.549 16.945 227.283 17.0555C227.016 17.1612 226.691 17.2208 226.306 17.2343Z" fill="#3E170E"/>
</g>
</g>
<defs>
<clipPath id="clip0_2611_97101">
<rect width="176.146" height="37.4876" fill="white" transform="translate(0 0.534668)"/>
</clipPath>
<clipPath id="clip1_2611_97101">
<rect width="180.663" height="19.4213" fill="white" transform="translate(-2.54297 12.7261) rotate(-2)"/>
</clipPath>
</defs>
</svg>
