<svg width="855" height="58" viewBox="0 0 855 58" fill="none" xmlns="http://www.w3.org/2000/svg">
<g clip-path="url(#clip0_2449_96574)">
<path d="M71.7422 0.341797H784.242V43.0918C784.242 50.9619 777.862 57.3418 769.992 57.3418H85.9922C78.1221 57.3418 71.7422 50.9619 71.7422 43.0918V0.341797Z" fill="white"/>
<g clip-path="url(#clip1_2449_96574)">
<path d="M98.9338 34.59C97.3622 34.8092 96.078 34.6075 95.0722 34.0025C94.0754 33.3975 93.4737 32.4243 93.2851 31.1003C93.1055 29.8465 93.3839 28.8119 94.1383 27.9964C94.8926 27.181 95.9703 26.6637 97.3892 26.4708C98.6644 26.2954 99.6612 26.3919 100.434 26.7689C101.197 27.1459 101.637 27.7948 101.772 28.7329C101.826 29.1187 101.727 29.5045 101.475 29.8815C101.224 30.2498 100.874 30.5567 100.416 30.811C99.9576 31.0565 99.4726 31.2231 98.9338 31.302C98.2603 31.3984 97.5957 31.2757 96.9312 30.96C96.8054 30.8899 96.7246 30.8723 96.6618 30.9337C96.5899 30.9951 96.6348 31.0828 96.7246 31.1968C96.9042 31.4949 97.2185 31.6965 97.6676 31.828C98.1166 31.9508 98.5566 31.9771 99.0146 31.9157C99.6163 31.8368 100.101 31.6965 100.478 31.5036C100.856 31.3107 101.224 31.0126 101.592 30.6093C101.7 30.4602 101.817 30.4076 101.96 30.4427C102.104 30.4865 102.203 30.6093 102.266 30.8197C102.472 31.5738 102.652 32.2664 102.768 32.889C102.831 33.1257 102.768 33.3098 102.598 33.4589C101.915 33.9587 100.685 34.3445 98.9338 34.59ZM97.7664 30.2586C97.937 30.2323 98.0717 30.1709 98.1705 30.0394C98.2693 29.9166 98.2962 29.7763 98.2693 29.601C98.2064 29.1626 97.946 28.9784 97.488 29.0398C97.2724 29.0661 97.1108 29.1538 96.9851 29.3116C96.8503 29.4695 96.7965 29.6185 96.8234 29.8026C96.8503 29.9868 96.9581 30.1095 97.1557 30.1797C97.3533 30.2498 97.5688 30.2849 97.7664 30.2586Z" fill="#73382A"/>
<path d="M105.768 33.5996C105.166 33.6785 104.484 33.7487 103.73 33.8188C103.613 33.8188 103.505 33.7838 103.406 33.7136C103.308 33.6435 103.254 33.547 103.236 33.4418C102.876 30.9429 102.661 28.558 102.58 26.2608C102.562 26.1644 102.607 26.0679 102.679 25.989C102.76 25.9013 102.841 25.8575 102.948 25.8136C103.263 25.7347 103.828 25.6295 104.619 25.5243C105.463 25.4103 106.091 25.3314 106.496 25.3139C106.648 25.3051 106.765 25.3489 106.873 25.4454C106.972 25.5418 107.007 25.6646 106.999 25.8049C106.972 26.6028 107.007 27.3656 107.115 28.0933C107.133 28.1898 107.169 28.2599 107.205 28.295C107.25 28.3301 107.304 28.3301 107.34 28.2774C107.376 28.2248 107.403 28.1722 107.403 28.0845C107.439 27.085 107.582 26.3222 107.861 25.7786C108.139 25.2349 108.561 24.9281 109.127 24.8491C109.738 24.7615 110.267 24.9018 110.707 25.2525C110.869 25.3928 110.959 25.5681 110.977 25.7698C111.022 26.4362 111.085 27.5146 111.147 29.014C111.147 29.1893 111.085 29.3121 110.959 29.3734C110.824 29.4436 110.698 29.4085 110.564 29.3033C110.267 29.1104 109.998 28.9613 109.738 28.8737C109.486 28.786 109.172 28.7685 108.831 28.8123C108.453 28.8649 108.13 29.0578 107.861 29.3822C107.591 29.7066 107.474 30.0837 107.537 30.4958C107.627 31.1446 107.816 31.8723 108.094 32.6878C108.139 32.8193 108.13 32.9333 108.058 33.0385C107.986 33.1437 107.879 33.2226 107.762 33.2664C107.501 33.3278 106.846 33.4418 105.786 33.5909L105.768 33.5996Z" fill="#73382A"/>
<path d="M116.544 32.1703C115.879 32.258 115.179 32.3106 114.407 32.3281C113.634 32.3457 112.952 32.3194 112.341 32.2492C112.162 32.2229 112.054 32.1265 112.018 31.9423C111.892 31.2321 111.775 30.4167 111.659 29.5136C111.632 29.3558 111.695 29.233 111.838 29.1804C111.982 29.119 112.108 29.1278 112.26 29.2067C113.167 29.575 114.038 29.7065 114.892 29.5925C115.565 29.4961 115.861 29.2944 115.817 28.9787C115.799 28.8823 115.718 28.8034 115.565 28.7683C115.421 28.7245 115.224 28.6894 114.99 28.6806C114.757 28.6719 114.505 28.6631 114.236 28.6456C113.967 28.6368 113.679 28.593 113.41 28.5316C113.131 28.4702 112.871 28.3825 112.62 28.2685C112.377 28.1546 112.162 27.9704 111.982 27.7249C111.802 27.4794 111.686 27.1725 111.632 26.8043C111.524 26.0415 111.775 25.4189 112.386 24.9718C112.997 24.5246 113.967 24.209 115.314 24.0248C116.661 23.8407 117.891 23.7706 118.933 23.8407C119.112 23.867 119.229 23.9634 119.265 24.1213C119.49 25.0594 119.651 25.7434 119.75 26.1905C119.768 26.3396 119.741 26.4536 119.633 26.5325C119.525 26.6114 119.391 26.6114 119.238 26.5325C118.565 26.3308 117.882 26.2607 117.191 26.3396C116.346 26.4448 115.942 26.6465 115.987 26.9533C116.005 27.0673 116.086 27.1375 116.266 27.1725C116.436 27.2076 116.643 27.2427 116.912 27.2602C117.182 27.269 117.46 27.269 117.774 27.2778C118.089 27.2865 118.403 27.3128 118.726 27.3742C119.05 27.4268 119.346 27.5233 119.624 27.6372C119.912 27.7512 120.136 27.9441 120.343 28.1984C120.549 28.4527 120.666 28.7596 120.72 29.1366C120.828 29.9169 120.531 30.5658 119.813 31.1006C119.085 31.6355 118.008 31.9949 116.58 32.1878L116.544 32.1703Z" fill="#73382A"/>
<path d="M126.289 30.837C124.718 31.0562 123.434 30.8546 122.428 30.2496C121.431 29.6446 120.829 28.6713 120.641 27.3474C120.461 26.0935 120.739 25.0589 121.485 24.2435C122.23 23.4193 123.317 22.9108 124.736 22.7179C126.011 22.5425 127.008 22.6389 127.78 23.016C128.543 23.393 128.983 24.0418 129.118 24.98C129.172 25.3658 129.073 25.7516 128.822 26.1286C128.57 26.4969 128.22 26.8038 127.762 27.058C127.304 27.3035 126.819 27.4701 126.28 27.549C125.607 27.6455 124.942 27.5227 124.278 27.2071C124.152 27.1369 124.071 27.1194 124.008 27.1808C123.936 27.2422 123.981 27.3298 124.071 27.4438C124.251 27.7419 124.565 27.9436 125.014 28.0751C125.463 28.1979 125.903 28.2242 126.361 28.1628C126.963 28.0839 127.448 27.9436 127.825 27.7507C128.202 27.5578 128.57 27.2597 128.939 26.8564C129.046 26.7073 129.163 26.6547 129.307 26.6898C129.45 26.7336 129.549 26.8564 129.612 27.0668C129.819 27.8208 129.998 28.5135 130.115 29.136C130.178 29.3728 130.115 29.5569 129.944 29.706C129.271 30.2057 128.041 30.5915 126.289 30.837ZM125.122 26.5056C125.293 26.4793 125.427 26.418 125.526 26.2864C125.625 26.1637 125.652 26.0234 125.625 25.848C125.562 25.4096 125.301 25.2255 124.843 25.2869C124.628 25.3132 124.466 25.4009 124.341 25.5587C124.206 25.7165 124.152 25.8656 124.179 26.0497C124.206 26.2338 124.314 26.3566 124.511 26.4267C124.709 26.4969 124.915 26.5319 125.122 26.5056Z" fill="#73382A"/>
<path d="M135.602 32.9678C134.264 33.187 132.872 33.2045 131.516 33.2133C131.363 33.2133 131.201 33.2133 131.076 33.1256C130.896 33.0029 130.851 32.7574 130.833 32.5469C130.761 31.7753 130.681 31.0038 130.609 30.2234C130.6 30.1006 130.591 29.9516 130.672 29.8639C130.797 29.7236 131.022 29.7675 131.21 29.8113C132.234 30.0919 133.339 30.1971 134.372 29.9341C135.404 29.671 136.159 28.9783 136.518 28.5224C136.877 28.0577 137.129 27.4965 137.164 27.0055C137.173 26.874 137.182 26.725 137.102 26.611C137.021 26.497 136.832 26.4619 136.751 26.5759C136.715 26.6197 136.715 26.6811 136.706 26.7425C136.679 27.102 136.617 27.2598 136.518 27.5492C136.374 27.9525 136.186 28.2331 135.889 28.5487C135.539 28.9345 135.036 29.1712 134.533 29.3291C133.967 29.5132 133.366 29.6184 132.764 29.5658C132.171 29.5132 131.579 29.3028 131.139 28.9082C130.672 28.4873 130.411 27.8999 130.276 27.2949C130.142 26.6899 130.133 26.0761 130.097 25.4536C130.061 24.7697 129.998 24.0858 129.998 23.3931C129.998 23.0512 130.016 22.7092 130.061 22.3673C130.097 22.0691 130.447 21.999 130.708 21.9464C131.758 21.7623 132.818 21.622 133.878 21.5255C134.012 21.5168 134.165 21.508 134.282 21.5694C134.542 21.7097 134.524 22.0604 134.497 22.3497C134.416 23.0512 134.407 23.7614 134.479 24.454C134.524 24.8486 134.587 25.2432 134.776 25.5851C134.901 25.8219 135.153 26.0498 135.413 25.9797C135.665 25.9095 135.755 25.6114 135.772 25.3572C135.88 24.1735 135.449 23.0073 135.252 21.8324C135.234 21.736 135.225 21.6307 135.261 21.5431C135.332 21.3765 135.53 21.3151 135.71 21.28C136.751 21.0608 137.82 20.9118 138.88 20.8416C139.077 20.8241 139.302 20.8241 139.445 20.9556C139.562 21.0608 139.598 21.2274 139.634 21.3852C139.975 23.0862 140.308 24.7872 140.64 26.4882C140.855 27.5842 141.071 28.7504 140.676 29.8025C140.326 30.7407 139.517 31.4685 138.628 31.9682C137.685 32.4943 136.662 32.7924 135.602 32.9678Z" fill="#73382A"/>
<path d="M88.3015 26.971C87.7357 26.971 87.2328 26.5676 87.143 26.0065C87.0442 25.384 87.4753 24.7965 88.1219 24.6913L109.872 21.3068C104.996 21.4734 100.281 21.64 97.4525 21.8154C96.7521 21.8592 96.1504 21.3594 96.0785 20.6843C95.9977 20.0092 96.4826 19.3954 97.1741 19.2902C97.1831 19.2902 97.1831 19.2902 97.1921 19.2902L137.442 13.6874C138.089 13.5998 138.682 14.0382 138.772 14.6607C138.861 15.292 138.412 15.8707 137.775 15.9584L117.703 18.7466C121.538 18.6151 125.049 18.4748 127.303 18.3433C127.995 18.2994 128.606 18.7992 128.678 19.4743C128.758 20.1495 128.273 20.7632 127.582 20.8684L88.4811 26.9534C88.4182 26.9622 88.3643 26.971 88.3015 26.971Z" fill="#F2C847"/>
<path d="M131.481 7.76049C124.521 7.401 111.823 9.42641 111.356 9.50533C111.356 9.50533 111.356 9.50533 111.347 9.50533H111.338C110.871 9.58424 98.2082 11.8201 91.7692 14.4329C86.5965 16.5373 86.4169 19.9305 86.5785 21.272C86.6144 21.5701 86.9198 21.763 87.2161 21.6666C99.187 17.607 111.957 15.7218 112.424 15.6517C112.424 15.6517 112.424 15.6517 112.433 15.6517H112.442C112.909 15.564 125.581 13.1791 138.252 13.0914C138.557 13.0914 138.791 12.8109 138.719 12.5128C138.396 11.1976 137.067 8.0586 131.481 7.76049Z" fill="#F7A43B"/>
<path d="M106.378 41.9641C105.929 42.0956 105.417 42.2184 104.851 42.2973C104.286 42.3762 103.765 42.4113 103.289 42.3937C102.822 42.3762 102.364 42.3148 101.942 42.1833C101.52 42.0518 101.152 41.8764 100.846 41.6397C100.541 41.403 100.271 41.0785 100.065 40.6752C99.8584 40.2719 99.7057 39.8159 99.6338 39.2723C99.4542 38.001 99.7416 36.9225 100.496 36.0282C101.25 35.1338 102.328 34.5902 103.711 34.3973C104.618 34.2746 105.444 34.3359 106.208 34.5814C106.971 34.8269 107.582 35.2478 108.075 35.8353C108.569 36.4227 108.866 37.1417 108.991 37.9834C109.072 38.527 109.063 39.0181 108.973 39.4477C108.875 39.8773 108.722 40.2631 108.498 40.5788C108.273 40.8944 107.977 41.1662 107.608 41.3942C107.231 41.6309 106.827 41.8151 106.378 41.9641ZM104.438 39.4126C104.681 39.3775 104.869 39.2548 104.995 39.0356C105.121 38.8164 105.157 38.5534 105.112 38.2552C105.067 37.9484 104.959 37.6853 104.771 37.4837C104.582 37.282 104.376 37.2031 104.133 37.2382C103.891 37.2732 103.693 37.4047 103.576 37.6502C103.468 37.8958 103.415 38.1676 103.46 38.4832C103.504 38.7989 103.612 39.0356 103.801 39.2022C103.98 39.3688 104.205 39.4477 104.447 39.4126H104.438Z" fill="#73382A"/>
<path d="M114.651 40.9382C113.134 41.1487 111.885 40.9558 110.916 40.3683C109.946 39.7808 109.371 38.8427 109.182 37.5625C109.012 36.3526 109.281 35.353 110 34.5639C110.718 33.766 111.769 33.275 113.143 33.0909C114.373 32.9243 115.343 33.0207 116.088 33.3802C116.825 33.7485 117.247 34.371 117.382 35.2741C117.435 35.6511 117.346 36.0194 117.094 36.3789C116.852 36.7383 116.51 37.0365 116.07 37.2732C115.621 37.5099 115.154 37.6765 114.642 37.7467C113.996 37.8343 113.349 37.7204 112.703 37.4135C112.586 37.3433 112.505 37.3346 112.442 37.3872C112.379 37.4486 112.415 37.5362 112.505 37.6414C112.685 37.9308 112.981 38.1237 113.412 38.2464C113.843 38.3692 114.265 38.3955 114.714 38.3341C115.289 38.2552 115.765 38.1149 116.133 37.9396C116.501 37.7554 116.852 37.4661 117.211 37.0715C117.31 36.9225 117.426 36.8699 117.57 36.9137C117.714 36.9575 117.804 37.0715 117.866 37.282C118.073 38.0097 118.244 38.6848 118.351 39.2811C118.405 39.5178 118.351 39.6932 118.181 39.8335C117.534 40.3245 116.349 40.7015 114.651 40.9382ZM113.52 36.7471C113.691 36.7208 113.816 36.6594 113.906 36.5367C113.996 36.4139 114.032 36.2824 114.005 36.1158C113.942 35.695 113.7 35.5108 113.251 35.5722C113.044 35.5985 112.882 35.6862 112.757 35.8352C112.631 35.9843 112.577 36.1333 112.604 36.3087C112.631 36.4841 112.73 36.6068 112.927 36.6682C113.125 36.7471 113.322 36.7734 113.52 36.7471Z" fill="#73382A"/>
<path d="M119.903 36.9137L119.454 36.5192C119.338 36.4139 119.293 36.3263 119.293 36.2386C119.293 36.1509 119.356 36.0632 119.463 35.9492C119.634 35.7914 119.769 35.6161 119.832 35.4232C119.868 35.3618 119.877 35.3092 119.841 35.2566C119.805 35.204 119.742 35.1864 119.661 35.2127C119.275 35.2916 118.925 35.1952 118.583 34.9321C118.251 34.6691 118.044 34.2833 117.973 33.7923C117.901 33.3013 118.009 32.8541 118.305 32.5122C118.601 32.1702 119.005 31.9773 119.535 31.8984C120.065 31.8283 120.523 31.9335 120.9 32.2228C121.277 32.5209 121.493 32.9593 121.583 33.5468C121.682 34.2307 121.61 34.8708 121.403 35.467C121.197 36.0632 120.882 36.5542 120.487 36.9225C120.29 37.0891 120.092 37.0803 119.894 36.905L119.903 36.9137Z" fill="#73382A"/>
<path d="M127.178 39.211C126.541 39.2987 125.858 39.3425 125.113 39.3601C124.367 39.3776 123.712 39.3513 123.11 39.2899C122.93 39.2636 122.832 39.1672 122.796 39.0006C122.67 38.3079 122.562 37.5188 122.445 36.6508C122.427 36.5017 122.481 36.379 122.616 36.3263C122.751 36.2737 122.876 36.2737 123.029 36.3527C123.9 36.7121 124.744 36.8349 125.58 36.7209C126.226 36.6332 126.523 36.4316 126.478 36.1335C126.469 36.037 126.379 35.9669 126.235 35.923C126.091 35.8792 125.903 35.8441 125.687 35.8441C125.463 35.8353 125.22 35.8266 124.96 35.809C124.7 35.8003 124.421 35.7652 124.161 35.7038C123.891 35.6424 123.64 35.5635 123.397 35.4495C123.164 35.3356 122.948 35.1602 122.778 34.9235C122.607 34.6867 122.49 34.3886 122.436 34.0379C122.329 33.2926 122.58 32.6964 123.164 32.2668C123.748 31.8371 124.691 31.5302 125.993 31.3549C127.295 31.1795 128.489 31.1094 129.495 31.1708C129.675 31.1971 129.782 31.2847 129.818 31.4426C130.034 32.3457 130.196 33.012 130.285 33.4417C130.303 33.582 130.276 33.6959 130.169 33.7661C130.07 33.8362 129.935 33.845 129.791 33.7661C129.136 33.5644 128.48 33.503 127.816 33.582C126.999 33.6784 126.603 33.8801 126.648 34.1782C126.666 34.2834 126.747 34.3535 126.909 34.3974C127.07 34.4325 127.277 34.4675 127.537 34.4763C127.798 34.4851 128.067 34.4851 128.373 34.4938C128.678 34.5026 128.983 34.5289 129.298 34.5815C129.612 34.6341 129.899 34.7306 130.169 34.8358C130.438 34.941 130.663 35.1251 130.86 35.3794C131.058 35.6249 131.174 35.923 131.228 36.2913C131.336 37.0453 131.049 37.6679 130.348 38.1852C129.648 38.7025 128.606 39.0444 127.223 39.2373L127.178 39.211Z" fill="#73382A"/>
<path d="M88.851 39.106C88.1865 39.1236 87.5309 39.0008 86.9202 38.7378C86.7316 38.6589 86.1659 38.3344 86.121 38.0363C86.0132 37.2823 86.4981 36.3967 86.6328 36.1161C86.7765 35.6953 86.9921 35.327 87.1178 34.9061C87.1627 34.7659 87.2435 34.608 87.3782 34.5642C87.477 34.5291 87.5848 34.5554 87.6836 34.5905C88.1056 34.7483 88.7073 35.064 89.0935 35.3007C90.3418 36.0986 91.0333 36.9666 91.4913 36.5107C91.8864 36.0284 88.869 34.5554 88.7073 33.4507C88.3032 30.566 88.1505 29.8645 87.7913 28.2512C87.7734 28.1548 87.8003 28.0496 87.8721 27.9531C87.944 27.8567 88.0338 27.7953 88.1416 27.7514C88.5547 27.655 89.1923 27.541 90.0454 27.427C90.5393 27.3569 91.0422 27.313 91.5541 27.2867C91.6619 27.2692 91.7697 27.3043 91.8505 27.3657C91.9313 27.427 91.9942 27.5059 92.0211 27.6024C92.2456 28.4967 92.5061 29.6453 92.7844 31.057C93.0628 32.4774 93.0628 32.2757 93.2424 33.5646C93.3412 34.2573 93.3412 35.0026 93.2424 35.6777C93.1437 36.3529 92.982 37.1595 92.5779 37.6768C92.093 38.3169 91.4733 38.615 90.7189 38.9044C90.234 39.0885 89.3988 39.0973 88.851 39.106Z" fill="#73382A"/>
<path d="M95.2612 47.0933C94.5966 47.1021 93.941 46.9881 93.3304 46.7251C93.1418 46.6461 92.576 46.3217 92.5311 46.0236C92.4234 45.2696 92.9083 44.384 93.043 44.1034C93.1867 43.6825 93.4022 43.3143 93.5279 42.8934C93.5728 42.7531 93.6537 42.5953 93.7884 42.5515C93.8872 42.5164 93.9949 42.5427 94.0937 42.5778C94.5158 42.7356 95.1175 43.0513 95.5036 43.288C96.7519 44.0859 97.4434 44.9539 97.9014 44.498C98.2966 44.0157 95.2791 42.5427 95.1175 41.4379C94.7134 38.5533 94.5607 37.8518 94.2015 36.2297C94.1835 36.1333 94.2105 36.0281 94.2823 35.9316C94.3541 35.8352 94.444 35.7738 94.5517 35.73C94.9648 35.6335 95.6024 35.5195 96.4556 35.4055C96.9495 35.3354 97.4524 35.2916 97.9643 35.2653C98.072 35.2477 98.1798 35.2828 98.2606 35.3442C98.3415 35.4055 98.4043 35.4845 98.4313 35.5809C98.6558 36.4752 98.9162 37.6239 99.1946 39.0355C99.473 40.4559 99.473 40.2543 99.6526 41.5432C99.7514 42.2358 99.7514 42.9811 99.6526 43.6562C99.5538 44.3314 99.3922 45.138 98.9881 45.6554C98.5031 46.2954 97.8835 46.5935 97.1291 46.8829C96.6442 47.0758 95.809 47.0845 95.2612 47.0933Z" fill="#73382A"/>
<path d="M141.574 36.2476C129.486 40.0793 116.662 41.5698 116.195 41.6224C116.195 41.6224 116.195 41.6224 116.186 41.6224H116.177C115.827 41.675 108.885 42.7798 100.201 43.1919C100.201 43.2095 100.201 43.2182 100.21 43.2358C100.417 45.5768 99.1146 47.2427 96.0523 47.7074C95.2261 47.7951 94.3729 47.7425 93.5647 47.5145C92.954 47.3392 91.8045 46.6816 91.7147 45.7872C91.7057 45.7171 91.7057 45.647 91.7147 45.5856C91.7327 45.3839 91.8225 45.1998 91.9033 45.0157C92.047 44.7176 92.1817 44.4194 92.3254 44.1126C92.3882 43.9723 92.4601 43.8232 92.5229 43.6742C92.5948 43.5163 92.487 43.341 92.3164 43.341C91.598 43.3322 90.8795 43.3147 90.1701 43.2884C89.9276 43.2796 89.73 43.49 89.766 43.7268C89.9815 45.0244 91.0951 48.6719 96.9054 49.2331C103.865 49.8994 116.617 48.2686 117.084 48.2072C117.084 48.2072 117.084 48.2072 117.093 48.2072H117.102C117.569 48.1371 130.295 46.2783 136.805 43.7618C142.104 41.7189 142.31 38.0451 142.176 36.651C142.158 36.3441 141.861 36.1512 141.574 36.2476Z" fill="#F7A43B"/>
</g>
<path d="M386.91 31.1543C386.844 31.1543 386.791 31.1335 386.749 31.092C386.708 31.0504 386.687 30.9999 386.687 30.9405V25.1426C386.687 25.0773 386.708 25.0238 386.749 24.9823C386.791 24.9407 386.844 24.9199 386.91 24.9199H387.613C387.696 24.9199 387.759 24.9437 387.8 24.9912C387.842 25.0327 387.868 25.0654 387.88 25.0891L389.599 28.2954L391.336 25.0891C391.348 25.0654 391.375 25.0327 391.416 24.9912C391.458 24.9437 391.52 24.9199 391.603 24.9199H392.298C392.363 24.9199 392.417 24.9407 392.458 24.9823C392.5 25.0238 392.52 25.0773 392.52 25.1426V30.9405C392.52 30.9999 392.5 31.0504 392.458 31.092C392.417 31.1335 392.363 31.1543 392.298 31.1543H391.55C391.484 31.1543 391.431 31.1335 391.389 31.092C391.354 31.0504 391.336 30.9999 391.336 30.9405V27.0841L390.089 29.4621C390.059 29.5155 390.021 29.563 389.973 29.6046C389.926 29.6402 389.863 29.658 389.786 29.658H389.421C389.338 29.658 389.273 29.6402 389.225 29.6046C389.184 29.563 389.148 29.5155 389.118 29.4621L387.871 27.0841V30.9405C387.871 30.9999 387.851 31.0504 387.809 31.092C387.768 31.1335 387.717 31.1543 387.658 31.1543H386.91ZM395.794 31.2434C395.135 31.2434 394.612 31.0534 394.226 30.6734C393.84 30.2934 393.633 29.753 393.603 29.0524C393.597 28.993 393.594 28.9188 393.594 28.8298C393.594 28.7348 393.597 28.6605 393.603 28.6071C393.627 28.1618 393.728 27.7759 393.906 27.4493C394.09 27.1227 394.342 26.8734 394.663 26.7012C394.983 26.523 395.36 26.434 395.794 26.434C396.275 26.434 396.679 26.5349 397.005 26.7368C397.332 26.9327 397.578 27.2088 397.744 27.5651C397.911 27.9154 397.994 28.3221 397.994 28.7852V28.9723C397.994 29.0316 397.973 29.0821 397.931 29.1237C397.89 29.1652 397.836 29.186 397.771 29.186H394.814C394.814 29.186 394.814 29.1949 394.814 29.2127C394.814 29.2305 394.814 29.2454 394.814 29.2573C394.82 29.4651 394.859 29.658 394.93 29.8362C395.007 30.0084 395.117 30.1479 395.26 30.2548C395.408 30.3616 395.583 30.4151 395.785 30.4151C395.951 30.4151 396.091 30.3913 396.204 30.3438C396.316 30.2904 396.408 30.231 396.48 30.1657C396.551 30.1004 396.601 30.047 396.631 30.0054C396.685 29.9341 396.726 29.8926 396.756 29.8807C396.791 29.8629 396.842 29.854 396.907 29.854H397.673C397.733 29.854 397.78 29.8718 397.816 29.9074C397.857 29.943 397.875 29.9876 397.869 30.041C397.863 30.136 397.813 30.2518 397.718 30.3884C397.629 30.5249 397.498 30.6585 397.326 30.7891C397.154 30.9198 396.937 31.0296 396.676 31.1187C396.42 31.2018 396.126 31.2434 395.794 31.2434ZM394.814 28.4379H396.783V28.4112C396.783 28.1796 396.744 27.9777 396.667 27.8055C396.59 27.6334 396.477 27.4968 396.328 27.3959C396.18 27.2949 396.002 27.2445 395.794 27.2445C395.586 27.2445 395.408 27.2949 395.26 27.3959C395.111 27.4968 394.998 27.6334 394.921 27.8055C394.85 27.9777 394.814 28.1796 394.814 28.4112V28.4379ZM399.153 31.1543C399.094 31.1543 399.043 31.1335 399.002 31.092C398.96 31.0504 398.939 30.9999 398.939 30.9405V26.7368C398.939 26.6774 398.96 26.627 399.002 26.5854C399.043 26.5438 399.094 26.523 399.153 26.523H399.883C399.943 26.523 399.993 26.5438 400.035 26.5854C400.076 26.627 400.097 26.6774 400.097 26.7368V27.102C400.251 26.912 400.447 26.7546 400.685 26.6299C400.928 26.4993 401.228 26.434 401.584 26.434C401.947 26.434 402.261 26.5171 402.528 26.6834C402.796 26.8437 403 27.0723 403.143 27.3691C403.291 27.666 403.366 28.0223 403.366 28.4379V30.9405C403.366 30.9999 403.345 31.0504 403.303 31.092C403.262 31.1335 403.211 31.1543 403.152 31.1543H402.368C402.309 31.1543 402.258 31.1335 402.217 31.092C402.175 31.0504 402.154 30.9999 402.154 30.9405V28.4913C402.154 28.147 402.068 27.8768 401.896 27.6809C401.73 27.4849 401.486 27.387 401.166 27.387C400.857 27.387 400.611 27.4849 400.427 27.6809C400.242 27.8768 400.15 28.147 400.15 28.4913V30.9405C400.15 30.9999 400.13 31.0504 400.088 31.092C400.047 31.1335 399.996 31.1543 399.937 31.1543H399.153ZM406.216 31.2434C405.854 31.2434 405.539 31.1632 405.272 31.0029C405.01 30.8366 404.809 30.6051 404.666 30.3082C404.524 30.0054 404.452 29.6491 404.452 29.2395V26.7368C404.452 26.6774 404.473 26.627 404.515 26.5854C404.556 26.5438 404.607 26.523 404.666 26.523H405.45C405.515 26.523 405.566 26.5438 405.601 26.5854C405.643 26.627 405.664 26.6774 405.664 26.7368V29.186C405.664 29.9223 405.987 30.2904 406.634 30.2904C406.943 30.2904 407.187 30.1924 407.365 29.9965C407.549 29.8005 407.641 29.5304 407.641 29.186V26.7368C407.641 26.6774 407.662 26.627 407.703 26.5854C407.745 26.5438 407.795 26.523 407.855 26.523H408.638C408.698 26.523 408.748 26.5438 408.79 26.5854C408.831 26.627 408.852 26.6774 408.852 26.7368V30.9405C408.852 30.9999 408.831 31.0504 408.79 31.092C408.748 31.1335 408.698 31.1543 408.638 31.1543H407.917C407.852 31.1543 407.798 31.1335 407.757 31.092C407.721 31.0504 407.703 30.9999 407.703 30.9405V30.5754C407.543 30.7832 407.344 30.9465 407.106 31.0652C406.869 31.184 406.572 31.2434 406.216 31.2434Z" fill="#5C261A"/>
<path d="M432.083 31.2434C431.554 31.2434 431.1 31.1573 430.72 30.9851C430.34 30.807 430.043 30.5368 429.829 30.1746C429.616 29.8065 429.5 29.3493 429.482 28.803C429.476 28.5477 429.473 28.2954 429.473 28.046C429.473 27.7966 429.476 27.5413 429.482 27.2801C429.5 26.7398 429.619 26.2885 429.838 25.9263C430.058 25.5641 430.358 25.291 430.738 25.107C431.124 24.9229 431.572 24.8309 432.083 24.8309C432.593 24.8309 433.042 24.9229 433.428 25.107C433.813 25.291 434.116 25.5641 434.336 25.9263C434.556 26.2885 434.674 26.7398 434.692 27.2801C434.704 27.5413 434.71 27.7966 434.71 28.046C434.71 28.2954 434.704 28.5477 434.692 28.803C434.674 29.3493 434.559 29.8065 434.345 30.1746C434.131 30.5368 433.831 30.807 433.445 30.9851C433.065 31.1573 432.611 31.2434 432.083 31.2434ZM432.083 30.2191C432.469 30.2191 432.783 30.1063 433.027 29.8807C433.27 29.6491 433.401 29.2751 433.419 28.7585C433.43 28.4973 433.436 28.2568 433.436 28.0371C433.436 27.8115 433.43 27.571 433.419 27.3157C433.407 26.9713 433.341 26.6923 433.223 26.4785C433.11 26.2588 432.955 26.1015 432.76 26.0065C432.564 25.9055 432.338 25.8551 432.083 25.8551C431.833 25.8551 431.611 25.9055 431.415 26.0065C431.219 26.1015 431.061 26.2588 430.943 26.4785C430.83 26.6923 430.768 26.9713 430.756 27.3157C430.75 27.571 430.747 27.8115 430.747 28.0371C430.747 28.2568 430.75 28.4973 430.756 28.7585C430.773 29.2751 430.904 29.6491 431.148 29.8807C431.391 30.1063 431.703 30.2191 432.083 30.2191ZM435.986 31.1543C435.927 31.1543 435.877 31.1335 435.835 31.092C435.793 31.0504 435.773 30.9999 435.773 30.9405V26.7457C435.773 26.6804 435.793 26.627 435.835 26.5854C435.877 26.5438 435.927 26.523 435.986 26.523H436.708C436.767 26.523 436.818 26.5438 436.859 26.5854C436.907 26.627 436.93 26.6804 436.93 26.7457V27.1109C437.067 26.9209 437.242 26.7754 437.456 26.6745C437.676 26.5735 437.928 26.523 438.213 26.523H438.578C438.643 26.523 438.694 26.5438 438.73 26.5854C438.771 26.627 438.792 26.6774 438.792 26.7368V27.378C438.792 27.4374 438.771 27.4879 438.73 27.5295C438.694 27.571 438.643 27.5918 438.578 27.5918H437.883C437.598 27.5918 437.376 27.672 437.215 27.8323C437.061 27.9926 436.984 28.2123 436.984 28.4913V30.9405C436.984 30.9999 436.963 31.0504 436.922 31.092C436.88 31.1335 436.827 31.1543 436.761 31.1543H435.986ZM441.136 31.2434C440.827 31.2434 440.554 31.1929 440.316 31.092C440.085 30.9851 439.892 30.8366 439.738 30.6466C439.583 30.4566 439.464 30.234 439.381 29.9787C439.298 29.7174 439.251 29.4324 439.239 29.1237C439.233 29.0168 439.23 28.9218 439.23 28.8387C439.23 28.7496 439.233 28.6516 439.239 28.5448C439.251 28.2479 439.295 27.9718 439.372 27.7165C439.455 27.4612 439.574 27.2385 439.729 27.0485C439.889 26.8526 440.085 26.7012 440.316 26.5943C440.554 26.4874 440.827 26.434 441.136 26.434C441.456 26.434 441.727 26.4904 441.946 26.6032C442.172 26.7101 442.359 26.8496 442.507 27.0218V25.0446C442.507 24.9852 442.525 24.9348 442.561 24.8932C442.602 24.8516 442.656 24.8309 442.721 24.8309H443.478C443.538 24.8309 443.588 24.8516 443.63 24.8932C443.671 24.9348 443.692 24.9852 443.692 25.0446V30.9405C443.692 30.9999 443.671 31.0504 443.63 31.092C443.588 31.1335 443.538 31.1543 443.478 31.1543H442.775C442.709 31.1543 442.656 31.1335 442.614 31.092C442.579 31.0504 442.561 30.9999 442.561 30.9405V30.611C442.412 30.7951 442.222 30.9465 441.991 31.0652C441.765 31.184 441.48 31.2434 441.136 31.2434ZM441.465 30.2904C441.715 30.2904 441.914 30.234 442.062 30.1212C442.21 30.0084 442.32 29.8659 442.392 29.6937C442.463 29.5155 442.501 29.3345 442.507 29.1504C442.513 29.0435 442.516 28.9307 442.516 28.812C442.516 28.6873 442.513 28.5715 442.507 28.4646C442.501 28.2865 442.46 28.1173 442.383 27.957C442.305 27.7907 442.193 27.6541 442.044 27.5473C441.896 27.4404 441.703 27.387 441.465 27.387C441.216 27.387 441.017 27.4434 440.869 27.5562C440.726 27.663 440.622 27.8055 440.557 27.9837C440.492 28.1618 440.453 28.3577 440.441 28.5715C440.435 28.7496 440.435 28.9277 440.441 29.1059C440.453 29.3196 440.492 29.5155 440.557 29.6937C440.622 29.8718 440.726 30.0173 440.869 30.1301C441.017 30.237 441.216 30.2904 441.465 30.2904ZM446.874 31.2434C446.215 31.2434 445.692 31.0534 445.306 30.6734C444.92 30.2934 444.713 29.753 444.683 29.0524C444.677 28.993 444.674 28.9188 444.674 28.8298C444.674 28.7348 444.677 28.6605 444.683 28.6071C444.707 28.1618 444.808 27.7759 444.986 27.4493C445.17 27.1227 445.422 26.8734 445.743 26.7012C446.063 26.523 446.44 26.434 446.874 26.434C447.355 26.434 447.759 26.5349 448.085 26.7368C448.412 26.9327 448.658 27.2088 448.824 27.5651C448.991 27.9154 449.074 28.3221 449.074 28.7852V28.9723C449.074 29.0316 449.053 29.0821 449.011 29.1237C448.97 29.1652 448.916 29.186 448.851 29.186H445.894C445.894 29.186 445.894 29.1949 445.894 29.2127C445.894 29.2305 445.894 29.2454 445.894 29.2573C445.9 29.4651 445.939 29.658 446.01 29.8362C446.087 30.0084 446.197 30.1479 446.34 30.2548C446.488 30.3616 446.663 30.4151 446.865 30.4151C447.031 30.4151 447.171 30.3913 447.284 30.3438C447.396 30.2904 447.488 30.231 447.56 30.1657C447.631 30.1004 447.681 30.047 447.711 30.0054C447.765 29.9341 447.806 29.8926 447.836 29.8807C447.871 29.8629 447.922 29.854 447.987 29.854H448.753C448.813 29.854 448.86 29.8718 448.896 29.9074C448.937 29.943 448.955 29.9876 448.949 30.041C448.943 30.136 448.893 30.2518 448.798 30.3884C448.709 30.5249 448.578 30.6585 448.406 30.7891C448.234 30.9198 448.017 31.0296 447.756 31.1187C447.5 31.2018 447.206 31.2434 446.874 31.2434ZM445.894 28.4379H447.863V28.4112C447.863 28.1796 447.824 27.9777 447.747 27.8055C447.67 27.6334 447.557 27.4968 447.408 27.3959C447.26 27.2949 447.082 27.2445 446.874 27.2445C446.666 27.2445 446.488 27.2949 446.34 27.3959C446.191 27.4968 446.078 27.6334 446.001 27.8055C445.93 27.9777 445.894 28.1796 445.894 28.4112V28.4379ZM450.233 31.1543C450.174 31.1543 450.123 31.1335 450.081 31.092C450.04 31.0504 450.019 30.9999 450.019 30.9405V26.7457C450.019 26.6804 450.04 26.627 450.081 26.5854C450.123 26.5438 450.174 26.523 450.233 26.523H450.954C451.014 26.523 451.064 26.5438 451.106 26.5854C451.153 26.627 451.177 26.6804 451.177 26.7457V27.1109C451.314 26.9209 451.489 26.7754 451.702 26.6745C451.922 26.5735 452.174 26.523 452.459 26.523H452.825C452.89 26.523 452.94 26.5438 452.976 26.5854C453.018 26.627 453.038 26.6774 453.038 26.7368V27.378C453.038 27.4374 453.018 27.4879 452.976 27.5295C452.94 27.571 452.89 27.5918 452.825 27.5918H452.13C451.845 27.5918 451.622 27.672 451.462 27.8323C451.308 27.9926 451.23 28.2123 451.23 28.4913V30.9405C451.23 30.9999 451.21 31.0504 451.168 31.092C451.126 31.1335 451.073 31.1543 451.008 31.1543H450.233ZM458.08 31.2434C457.551 31.2434 457.097 31.1573 456.717 30.9851C456.337 30.807 456.04 30.5368 455.826 30.1746C455.612 29.8065 455.497 29.3493 455.479 28.803C455.473 28.5477 455.47 28.2954 455.47 28.046C455.47 27.7966 455.473 27.5413 455.479 27.2801C455.497 26.7398 455.615 26.2885 455.835 25.9263C456.055 25.5641 456.355 25.291 456.735 25.107C457.121 24.9229 457.569 24.8309 458.08 24.8309C458.59 24.8309 459.038 24.9229 459.424 25.107C459.81 25.291 460.113 25.5641 460.333 25.9263C460.552 26.2885 460.671 26.7398 460.689 27.2801C460.701 27.5413 460.707 27.7966 460.707 28.046C460.707 28.2954 460.701 28.5477 460.689 28.803C460.671 29.3493 460.555 29.8065 460.342 30.1746C460.128 30.5368 459.828 30.807 459.442 30.9851C459.062 31.1573 458.608 31.2434 458.08 31.2434ZM458.08 30.2191C458.465 30.2191 458.78 30.1063 459.024 29.8807C459.267 29.6491 459.398 29.2751 459.415 28.7585C459.427 28.4973 459.433 28.2568 459.433 28.0371C459.433 27.8115 459.427 27.571 459.415 27.3157C459.404 26.9713 459.338 26.6923 459.22 26.4785C459.107 26.2588 458.952 26.1015 458.756 26.0065C458.56 25.9055 458.335 25.8551 458.08 25.8551C457.83 25.8551 457.607 25.9055 457.412 26.0065C457.216 26.1015 457.058 26.2588 456.94 26.4785C456.827 26.6923 456.764 26.9713 456.752 27.3157C456.747 27.571 456.744 27.8115 456.744 28.0371C456.744 28.2568 456.747 28.4973 456.752 28.7585C456.77 29.2751 456.901 29.6491 457.144 29.8807C457.388 30.1063 457.7 30.2191 458.08 30.2191ZM461.983 31.1543C461.924 31.1543 461.873 31.1335 461.832 31.092C461.79 31.0504 461.769 30.9999 461.769 30.9405V26.7368C461.769 26.6774 461.79 26.627 461.832 26.5854C461.873 26.5438 461.924 26.523 461.983 26.523H462.714C462.773 26.523 462.823 26.5438 462.865 26.5854C462.907 26.627 462.927 26.6774 462.927 26.7368V27.102C463.082 26.912 463.278 26.7546 463.515 26.6299C463.759 26.4993 464.058 26.434 464.415 26.434C464.777 26.434 465.092 26.5171 465.359 26.6834C465.626 26.8437 465.831 27.0723 465.973 27.3691C466.122 27.666 466.196 28.0223 466.196 28.4379V30.9405C466.196 30.9999 466.175 31.0504 466.134 31.092C466.092 31.1335 466.042 31.1543 465.982 31.1543H465.198C465.139 31.1543 465.089 31.1335 465.047 31.092C465.005 31.0504 464.985 30.9999 464.985 30.9405V28.4913C464.985 28.147 464.899 27.8768 464.726 27.6809C464.56 27.4849 464.317 27.387 463.996 27.387C463.687 27.387 463.441 27.4849 463.257 27.6809C463.073 27.8768 462.981 28.147 462.981 28.4913V30.9405C462.981 30.9999 462.96 31.0504 462.918 31.092C462.877 31.1335 462.826 31.1543 462.767 31.1543H461.983ZM467.55 31.1543C467.49 31.1543 467.44 31.1335 467.398 31.092C467.357 31.0504 467.336 30.9999 467.336 30.9405V25.0446C467.336 24.9852 467.357 24.9348 467.398 24.8932C467.44 24.8516 467.49 24.8309 467.55 24.8309H468.289C468.348 24.8309 468.399 24.8516 468.44 24.8932C468.482 24.9348 468.503 24.9852 468.503 25.0446V30.9405C468.503 30.9999 468.482 31.0504 468.44 31.092C468.399 31.1335 468.348 31.1543 468.289 31.1543H467.55ZM470.089 31.1543C470.03 31.1543 469.979 31.1335 469.938 31.092C469.896 31.0504 469.876 30.9999 469.876 30.9405V26.7368C469.876 26.6774 469.896 26.627 469.938 26.5854C469.979 26.5438 470.03 26.523 470.089 26.523H470.829C470.894 26.523 470.944 26.5438 470.98 26.5854C471.022 26.627 471.042 26.6774 471.042 26.7368V30.9405C471.042 30.9999 471.022 31.0504 470.98 31.092C470.944 31.1335 470.894 31.1543 470.829 31.1543H470.089ZM470.054 25.7571C469.988 25.7571 469.935 25.7393 469.893 25.7037C469.858 25.6621 469.84 25.6087 469.84 25.5434V24.9021C469.84 24.8427 469.858 24.7923 469.893 24.7507C469.935 24.7091 469.988 24.6884 470.054 24.6884H470.864C470.929 24.6884 470.983 24.7091 471.024 24.7507C471.066 24.7923 471.087 24.8427 471.087 24.9021V25.5434C471.087 25.6087 471.066 25.6621 471.024 25.7037C470.983 25.7393 470.929 25.7571 470.864 25.7571H470.054ZM472.62 31.1543C472.561 31.1543 472.51 31.1335 472.469 31.092C472.427 31.0504 472.407 30.9999 472.407 30.9405V26.7368C472.407 26.6774 472.427 26.627 472.469 26.5854C472.51 26.5438 472.561 26.523 472.62 26.523H473.351C473.41 26.523 473.46 26.5438 473.502 26.5854C473.544 26.627 473.564 26.6774 473.564 26.7368V27.102C473.719 26.912 473.915 26.7546 474.152 26.6299C474.396 26.4993 474.695 26.434 475.052 26.434C475.414 26.434 475.729 26.5171 475.996 26.6834C476.263 26.8437 476.468 27.0723 476.61 27.3691C476.759 27.666 476.833 28.0223 476.833 28.4379V30.9405C476.833 30.9999 476.812 31.0504 476.771 31.092C476.729 31.1335 476.679 31.1543 476.619 31.1543H475.835C475.776 31.1543 475.726 31.1335 475.684 31.092C475.642 31.0504 475.622 30.9999 475.622 30.9405V28.4913C475.622 28.147 475.536 27.8768 475.363 27.6809C475.197 27.4849 474.954 27.387 474.633 27.387C474.324 27.387 474.078 27.4849 473.894 27.6809C473.71 27.8768 473.618 28.147 473.618 28.4913V30.9405C473.618 30.9999 473.597 31.0504 473.555 31.092C473.514 31.1335 473.463 31.1543 473.404 31.1543H472.62ZM479.959 31.2434C479.3 31.2434 478.778 31.0534 478.392 30.6734C478.006 30.2934 477.798 29.753 477.768 29.0524C477.762 28.993 477.759 28.9188 477.759 28.8298C477.759 28.7348 477.762 28.6605 477.768 28.6071C477.792 28.1618 477.893 27.7759 478.071 27.4493C478.255 27.1227 478.508 26.8734 478.828 26.7012C479.149 26.523 479.526 26.434 479.959 26.434C480.44 26.434 480.844 26.5349 481.17 26.7368C481.497 26.9327 481.743 27.2088 481.91 27.5651C482.076 27.9154 482.159 28.3221 482.159 28.7852V28.9723C482.159 29.0316 482.138 29.0821 482.097 29.1237C482.055 29.1652 482.002 29.186 481.936 29.186H478.98C478.98 29.186 478.98 29.1949 478.98 29.2127C478.98 29.2305 478.98 29.2454 478.98 29.2573C478.985 29.4651 479.024 29.658 479.095 29.8362C479.173 30.0084 479.282 30.1479 479.425 30.2548C479.573 30.3616 479.748 30.4151 479.95 30.4151C480.117 30.4151 480.256 30.3913 480.369 30.3438C480.482 30.2904 480.574 30.231 480.645 30.1657C480.716 30.1004 480.767 30.047 480.796 30.0054C480.85 29.9341 480.891 29.8926 480.921 29.8807C480.957 29.8629 481.007 29.854 481.073 29.854H481.838C481.898 29.854 481.945 29.8718 481.981 29.9074C482.023 29.943 482.04 29.9876 482.034 30.041C482.028 30.136 481.978 30.2518 481.883 30.3884C481.794 30.5249 481.663 30.6585 481.491 30.7891C481.319 30.9198 481.102 31.0296 480.841 31.1187C480.586 31.2018 480.292 31.2434 479.959 31.2434ZM478.98 28.4379H480.948V28.4112C480.948 28.1796 480.909 27.9777 480.832 27.8055C480.755 27.6334 480.642 27.4968 480.494 27.3959C480.345 27.2949 480.167 27.2445 479.959 27.2445C479.751 27.2445 479.573 27.2949 479.425 27.3959C479.276 27.4968 479.164 27.6334 479.086 27.8055C479.015 27.9777 478.98 28.1796 478.98 28.4112V28.4379Z" fill="#5C261A"/>
<path d="M502.901 31.1543C502.841 31.1543 502.791 31.1335 502.749 31.092C502.708 31.0504 502.687 30.9999 502.687 30.9405V25.1426C502.687 25.0773 502.708 25.0238 502.749 24.9823C502.791 24.9407 502.841 24.9199 502.901 24.9199H505.207C505.926 24.9199 506.493 25.0862 506.908 25.4187C507.324 25.7512 507.532 26.2351 507.532 26.8704C507.532 27.3098 507.422 27.6749 507.202 27.9659C506.989 28.2568 506.701 28.4676 506.338 28.5982L507.639 30.8693C507.657 30.9049 507.665 30.9376 507.665 30.9673C507.665 31.0207 507.645 31.0652 507.603 31.1009C507.568 31.1365 507.526 31.1543 507.478 31.1543H506.668C506.567 31.1543 506.49 31.1276 506.436 31.0741C506.383 31.0207 506.341 30.9673 506.312 30.9138L505.163 28.803H503.925V30.9405C503.925 30.9999 503.904 31.0504 503.863 31.092C503.827 31.1335 503.776 31.1543 503.711 31.1543H502.901ZM503.925 27.7966H505.181C505.543 27.7966 505.813 27.7165 505.991 27.5562C506.169 27.3899 506.258 27.1584 506.258 26.8615C506.258 26.5646 506.169 26.333 505.991 26.1668C505.819 25.9946 505.549 25.9085 505.181 25.9085H503.925V27.7966ZM510.515 31.2434C509.856 31.2434 509.334 31.0534 508.948 30.6734C508.562 30.2934 508.354 29.753 508.324 29.0524C508.319 28.993 508.316 28.9188 508.316 28.8298C508.316 28.7348 508.319 28.6605 508.324 28.6071C508.348 28.1618 508.449 27.7759 508.627 27.4493C508.811 27.1227 509.064 26.8734 509.384 26.7012C509.705 26.523 510.082 26.434 510.515 26.434C510.996 26.434 511.4 26.5349 511.727 26.7368C512.053 26.9327 512.3 27.2088 512.466 27.5651C512.632 27.9154 512.715 28.3221 512.715 28.7852V28.9723C512.715 29.0316 512.694 29.0821 512.653 29.1237C512.611 29.1652 512.558 29.186 512.493 29.186H509.536C509.536 29.186 509.536 29.1949 509.536 29.2127C509.536 29.2305 509.536 29.2454 509.536 29.2573C509.542 29.4651 509.58 29.658 509.651 29.8362C509.729 30.0084 509.839 30.1479 509.981 30.2548C510.129 30.3616 510.305 30.4151 510.506 30.4151C510.673 30.4151 510.812 30.3913 510.925 30.3438C511.038 30.2904 511.13 30.231 511.201 30.1657C511.272 30.1004 511.323 30.047 511.353 30.0054C511.406 29.9341 511.448 29.8926 511.477 29.8807C511.513 29.8629 511.563 29.854 511.629 29.854H512.395C512.454 29.854 512.501 29.8718 512.537 29.9074C512.579 29.943 512.596 29.9876 512.591 30.041C512.585 30.136 512.534 30.2518 512.439 30.3884C512.35 30.5249 512.219 30.6585 512.047 30.7891C511.875 30.9198 511.658 31.0296 511.397 31.1187C511.142 31.2018 510.848 31.2434 510.515 31.2434ZM509.536 28.4379H511.504V28.4112C511.504 28.1796 511.465 27.9777 511.388 27.8055C511.311 27.6334 511.198 27.4968 511.05 27.3959C510.901 27.2949 510.723 27.2445 510.515 27.2445C510.308 27.2445 510.129 27.2949 509.981 27.3959C509.833 27.4968 509.72 27.6334 509.643 27.8055C509.571 27.9777 509.536 28.1796 509.536 28.4112V28.4379ZM514.795 31.1543C514.712 31.1543 514.649 31.1335 514.608 31.092C514.566 31.0504 514.531 30.997 514.501 30.9316L513.227 26.7991C513.221 26.7695 513.218 26.7427 513.218 26.719C513.218 26.6655 513.236 26.621 513.272 26.5854C513.313 26.5438 513.358 26.523 513.405 26.523H514.065C514.136 26.523 514.192 26.5438 514.234 26.5854C514.275 26.621 514.299 26.6566 514.305 26.6923L515.178 29.6402L516.104 26.719C516.116 26.6774 516.143 26.6359 516.184 26.5943C516.226 26.5468 516.288 26.523 516.371 26.523H516.817C516.9 26.523 516.962 26.5468 517.004 26.5943C517.045 26.6359 517.072 26.6774 517.084 26.719L518.01 29.6402L518.883 26.6923C518.889 26.6566 518.91 26.621 518.945 26.5854C518.987 26.5438 519.043 26.523 519.114 26.523H519.773C519.827 26.523 519.871 26.5438 519.907 26.5854C519.949 26.621 519.969 26.6655 519.969 26.719C519.969 26.7427 519.963 26.7695 519.952 26.7991L518.678 30.9316C518.66 30.997 518.628 31.0504 518.58 31.092C518.538 31.1335 518.476 31.1543 518.393 31.1543H517.814C517.731 31.1543 517.666 31.1335 517.618 31.092C517.571 31.0504 517.538 30.997 517.52 30.9316L516.594 28.1173L515.668 30.9316C515.644 30.997 515.608 31.0504 515.561 31.092C515.519 31.1335 515.454 31.1543 515.365 31.1543H514.795ZM522.042 31.2434C521.733 31.2434 521.454 31.184 521.205 31.0652C520.955 30.9405 520.756 30.7773 520.608 30.5754C520.465 30.3676 520.394 30.136 520.394 29.8807C520.394 29.4651 520.56 29.1355 520.893 28.8921C521.231 28.6427 521.677 28.4765 522.229 28.3934L523.449 28.2152V28.0282C523.449 27.7788 523.387 27.5859 523.262 27.4493C523.137 27.3127 522.923 27.2445 522.621 27.2445C522.407 27.2445 522.232 27.289 522.095 27.378C521.965 27.4612 521.867 27.574 521.801 27.7165C521.754 27.7937 521.686 27.8323 521.596 27.8323H520.893C520.828 27.8323 520.777 27.8145 520.741 27.7788C520.712 27.7432 520.697 27.6957 520.697 27.6363C520.703 27.5413 520.741 27.4255 520.813 27.289C520.884 27.1524 520.997 27.0218 521.151 26.8971C521.306 26.7665 521.504 26.6566 521.748 26.5676C521.991 26.4785 522.285 26.434 522.63 26.434C523.004 26.434 523.318 26.4815 523.574 26.5765C523.835 26.6655 524.043 26.7873 524.197 26.9416C524.351 27.096 524.464 27.2771 524.536 27.4849C524.607 27.6927 524.642 27.9124 524.642 28.144V30.9405C524.642 30.9999 524.622 31.0504 524.58 31.092C524.538 31.1335 524.488 31.1543 524.429 31.1543H523.707C523.642 31.1543 523.588 31.1335 523.547 31.092C523.511 31.0504 523.493 30.9999 523.493 30.9405V30.5932C523.416 30.706 523.312 30.8129 523.182 30.9138C523.051 31.0088 522.891 31.089 522.701 31.1543C522.517 31.2137 522.297 31.2434 522.042 31.2434ZM522.345 30.3973C522.552 30.3973 522.739 30.3527 522.906 30.2637C523.078 30.1746 523.211 30.038 523.306 29.854C523.407 29.664 523.458 29.4265 523.458 29.1415V28.9545L522.567 29.097C522.217 29.1504 521.956 29.2365 521.783 29.3552C521.611 29.474 521.525 29.6195 521.525 29.7916C521.525 29.9223 521.564 30.0351 521.641 30.1301C521.724 30.2191 521.828 30.2874 521.953 30.3349C522.077 30.3765 522.208 30.3973 522.345 30.3973ZM525.999 31.1543C525.939 31.1543 525.889 31.1335 525.847 31.092C525.806 31.0504 525.785 30.9999 525.785 30.9405V26.7457C525.785 26.6804 525.806 26.627 525.847 26.5854C525.889 26.5438 525.939 26.523 525.999 26.523H526.72C526.779 26.523 526.83 26.5438 526.872 26.5854C526.919 26.627 526.943 26.6804 526.943 26.7457V27.1109C527.079 26.9209 527.254 26.7754 527.468 26.6745C527.688 26.5735 527.94 26.523 528.225 26.523H528.59C528.656 26.523 528.706 26.5438 528.742 26.5854C528.783 26.627 528.804 26.6774 528.804 26.7368V27.378C528.804 27.4374 528.783 27.4879 528.742 27.5295C528.706 27.571 528.656 27.5918 528.59 27.5918H527.896C527.611 27.5918 527.388 27.672 527.228 27.8323C527.073 27.9926 526.996 28.2123 526.996 28.4913V30.9405C526.996 30.9999 526.975 31.0504 526.934 31.092C526.892 31.1335 526.839 31.1543 526.774 31.1543H525.999ZM531.148 31.2434C530.839 31.2434 530.566 31.1929 530.329 31.092C530.097 30.9851 529.904 30.8366 529.75 30.6466C529.595 30.4566 529.477 30.234 529.394 29.9787C529.31 29.7174 529.263 29.4324 529.251 29.1237C529.245 29.0168 529.242 28.9218 529.242 28.8387C529.242 28.7496 529.245 28.6516 529.251 28.5448C529.263 28.2479 529.307 27.9718 529.385 27.7165C529.468 27.4612 529.587 27.2385 529.741 27.0485C529.901 26.8526 530.097 26.7012 530.329 26.5943C530.566 26.4874 530.839 26.434 531.148 26.434C531.469 26.434 531.739 26.4904 531.959 26.6032C532.184 26.7101 532.371 26.8496 532.52 27.0218V25.0446C532.52 24.9852 532.537 24.9348 532.573 24.8932C532.615 24.8516 532.668 24.8309 532.733 24.8309H533.49C533.55 24.8309 533.6 24.8516 533.642 24.8932C533.683 24.9348 533.704 24.9852 533.704 25.0446V30.9405C533.704 30.9999 533.683 31.0504 533.642 31.092C533.6 31.1335 533.55 31.1543 533.49 31.1543H532.787C532.722 31.1543 532.668 31.1335 532.627 31.092C532.591 31.0504 532.573 30.9999 532.573 30.9405V30.611C532.425 30.7951 532.235 30.9465 532.003 31.0652C531.777 31.184 531.492 31.2434 531.148 31.2434ZM531.478 30.2904C531.727 30.2904 531.926 30.234 532.074 30.1212C532.223 30.0084 532.333 29.8659 532.404 29.6937C532.475 29.5155 532.514 29.3345 532.52 29.1504C532.526 29.0435 532.529 28.9307 532.529 28.812C532.529 28.6873 532.526 28.5715 532.52 28.4646C532.514 28.2865 532.472 28.1173 532.395 27.957C532.318 27.7907 532.205 27.6541 532.057 27.5473C531.908 27.4404 531.715 27.387 531.478 27.387C531.228 27.387 531.029 27.4434 530.881 27.5562C530.738 27.663 530.635 27.8055 530.569 27.9837C530.504 28.1618 530.465 28.3577 530.453 28.5715C530.447 28.7496 530.447 28.9277 530.453 29.1059C530.465 29.3196 530.504 29.5155 530.569 29.6937C530.635 29.8718 530.738 30.0173 530.881 30.1301C531.029 30.237 531.228 30.2904 531.478 30.2904ZM536.646 31.2434C536.29 31.2434 535.984 31.2018 535.728 31.1187C535.479 31.0355 535.274 30.9316 535.114 30.807C534.954 30.6823 534.835 30.5576 534.758 30.4329C534.68 30.3082 534.639 30.2043 534.633 30.1212C534.627 30.0559 534.645 30.0054 534.686 29.9698C534.734 29.9282 534.784 29.9074 534.838 29.9074H535.541C535.565 29.9074 535.586 29.9104 535.604 29.9163C535.622 29.9223 535.645 29.9401 535.675 29.9698C535.752 30.0351 535.832 30.1034 535.915 30.1746C536.005 30.2459 536.108 30.3082 536.227 30.3616C536.346 30.4091 536.494 30.4329 536.672 30.4329C536.904 30.4329 537.097 30.3884 537.251 30.2993C537.412 30.2043 537.492 30.0707 537.492 29.8985C537.492 29.7738 537.456 29.6729 537.385 29.5957C537.32 29.5185 537.195 29.4502 537.011 29.3909C536.827 29.3255 536.566 29.2573 536.227 29.186C535.895 29.1088 535.619 29.0109 535.399 28.8921C535.179 28.7734 535.016 28.6249 534.909 28.4468C534.802 28.2687 534.749 28.0609 534.749 27.8234C534.749 27.5918 534.817 27.3721 534.954 27.1643C535.096 26.9505 535.304 26.7754 535.577 26.6388C535.856 26.5023 536.2 26.434 536.61 26.434C536.931 26.434 537.21 26.4755 537.447 26.5587C537.685 26.6359 537.881 26.7338 538.035 26.8526C538.195 26.9713 538.317 27.093 538.4 27.2177C538.483 27.3365 538.528 27.4404 538.534 27.5295C538.54 27.5948 538.522 27.6482 538.48 27.6898C538.439 27.7254 538.391 27.7432 538.338 27.7432H537.679C537.649 27.7432 537.622 27.7373 537.599 27.7254C537.575 27.7135 537.551 27.6987 537.527 27.6809C537.462 27.6215 537.391 27.5591 537.314 27.4938C537.237 27.4285 537.142 27.3721 537.029 27.3246C536.922 27.2712 536.779 27.2445 536.601 27.2445C536.376 27.2445 536.203 27.2949 536.085 27.3959C535.966 27.4909 535.907 27.6126 535.907 27.761C535.907 27.862 535.933 27.951 535.987 28.0282C536.046 28.0995 536.162 28.1677 536.334 28.233C536.506 28.2984 536.767 28.3666 537.118 28.4379C537.516 28.5091 537.83 28.616 538.062 28.7585C538.299 28.8951 538.466 29.0554 538.561 29.2395C538.662 29.4176 538.712 29.6165 538.712 29.8362C538.712 30.1034 538.632 30.3438 538.472 30.5576C538.317 30.7713 538.086 30.9405 537.777 31.0652C537.474 31.184 537.097 31.2434 536.646 31.2434Z" fill="#5C261A"/>
<path d="M562.092 31.2434C561.539 31.2434 561.07 31.1484 560.684 30.9584C560.304 30.7624 560.013 30.4863 559.812 30.1301C559.61 29.7679 559.497 29.3345 559.473 28.8298C559.467 28.5863 559.464 28.3251 559.464 28.046C559.464 27.767 559.467 27.4998 559.473 27.2445C559.497 26.7457 559.61 26.3152 559.812 25.953C560.019 25.5909 560.313 25.3148 560.693 25.1248C561.079 24.9288 561.545 24.8309 562.092 24.8309C562.495 24.8309 562.858 24.8843 563.178 24.9912C563.499 25.098 563.772 25.2465 563.998 25.4365C564.223 25.6205 564.398 25.8373 564.523 26.0866C564.648 26.336 564.713 26.6062 564.719 26.8971C564.725 26.9505 564.707 26.9951 564.665 27.0307C564.63 27.0663 564.585 27.0841 564.532 27.0841H563.686C563.62 27.0841 563.567 27.0693 563.525 27.0396C563.484 27.004 563.454 26.9476 563.436 26.8704C563.341 26.4785 563.178 26.2113 562.947 26.0688C562.715 25.9263 562.427 25.8551 562.083 25.8551C561.685 25.8551 561.367 25.9679 561.13 26.1935C560.892 26.4132 560.765 26.7784 560.747 27.289C560.729 27.7759 560.729 28.2746 560.747 28.7852C560.765 29.2959 560.892 29.664 561.13 29.8896C561.367 30.1093 561.685 30.2191 562.083 30.2191C562.427 30.2191 562.715 30.1479 562.947 30.0054C563.178 29.857 563.341 29.5898 563.436 29.2038C563.454 29.1207 563.484 29.0643 563.525 29.0346C563.567 29.0049 563.62 28.9901 563.686 28.9901H564.532C564.585 28.9901 564.63 29.0079 564.665 29.0435C564.707 29.0791 564.725 29.1237 564.719 29.1771C564.713 29.468 564.648 29.7382 564.523 29.9876C564.398 30.237 564.223 30.4566 563.998 30.6466C563.772 30.8307 563.499 30.9762 563.178 31.083C562.858 31.1899 562.495 31.2434 562.092 31.2434ZM567.013 31.2434C566.704 31.2434 566.425 31.184 566.176 31.0652C565.927 30.9405 565.728 30.7773 565.579 30.5754C565.437 30.3676 565.365 30.136 565.365 29.8807C565.365 29.4651 565.532 29.1355 565.864 28.8921C566.203 28.6427 566.648 28.4765 567.2 28.3934L568.42 28.2152V28.0282C568.42 27.7788 568.358 27.5859 568.233 27.4493C568.109 27.3127 567.895 27.2445 567.592 27.2445C567.378 27.2445 567.203 27.289 567.067 27.378C566.936 27.4612 566.838 27.574 566.773 27.7165C566.725 27.7937 566.657 27.8323 566.568 27.8323H565.864C565.799 27.8323 565.748 27.8145 565.713 27.7788C565.683 27.7432 565.668 27.6957 565.668 27.6363C565.674 27.5413 565.713 27.4255 565.784 27.289C565.855 27.1524 565.968 27.0218 566.122 26.8971C566.277 26.7665 566.476 26.6566 566.719 26.5676C566.963 26.4785 567.257 26.434 567.601 26.434C567.975 26.434 568.29 26.4815 568.545 26.5765C568.806 26.6655 569.014 26.7873 569.168 26.9416C569.323 27.096 569.436 27.2771 569.507 27.4849C569.578 27.6927 569.614 27.9124 569.614 28.144V30.9405C569.614 30.9999 569.593 31.0504 569.551 31.092C569.51 31.1335 569.459 31.1543 569.4 31.1543H568.679C568.613 31.1543 568.56 31.1335 568.518 31.092C568.483 31.0504 568.465 30.9999 568.465 30.9405V30.5932C568.388 30.706 568.284 30.8129 568.153 30.9138C568.022 31.0088 567.862 31.089 567.672 31.1543C567.488 31.2137 567.268 31.2434 567.013 31.2434ZM567.316 30.3973C567.524 30.3973 567.711 30.3527 567.877 30.2637C568.049 30.1746 568.183 30.038 568.278 29.854C568.379 29.664 568.429 29.4265 568.429 29.1415V28.9545L567.539 29.097C567.188 29.1504 566.927 29.2365 566.755 29.3552C566.583 29.474 566.497 29.6195 566.497 29.7916C566.497 29.9223 566.535 30.0351 566.612 30.1301C566.695 30.2191 566.799 30.2874 566.924 30.3349C567.049 30.3765 567.179 30.3973 567.316 30.3973ZM572.806 31.1543C572.45 31.1543 572.15 31.092 571.906 30.9673C571.663 30.8426 571.482 30.6585 571.363 30.4151C571.244 30.1657 571.185 29.857 571.185 29.4888V27.4671H570.481C570.422 27.4671 570.371 27.4463 570.33 27.4048C570.288 27.3632 570.268 27.3127 570.268 27.2534V26.7368C570.268 26.6774 570.288 26.627 570.33 26.5854C570.371 26.5438 570.422 26.523 570.481 26.523H571.185V25.0446C571.185 24.9852 571.203 24.9348 571.238 24.8932C571.28 24.8516 571.333 24.8309 571.399 24.8309H572.12C572.179 24.8309 572.23 24.8516 572.271 24.8932C572.313 24.9348 572.334 24.9852 572.334 25.0446V26.523H573.447C573.506 26.523 573.557 26.5438 573.598 26.5854C573.64 26.627 573.661 26.6774 573.661 26.7368V27.2534C573.661 27.3127 573.64 27.3632 573.598 27.4048C573.557 27.4463 573.506 27.4671 573.447 27.4671H572.334V29.3998C572.334 29.6432 572.375 29.8332 572.458 29.9698C572.548 30.1063 572.699 30.1746 572.913 30.1746H573.527C573.587 30.1746 573.637 30.1954 573.679 30.237C573.72 30.2785 573.741 30.329 573.741 30.3884V30.9405C573.741 30.9999 573.72 31.0504 573.679 31.092C573.637 31.1335 573.587 31.1543 573.527 31.1543H572.806ZM576.526 31.2434C575.867 31.2434 575.344 31.0534 574.959 30.6734C574.573 30.2934 574.365 29.753 574.335 29.0524C574.329 28.993 574.326 28.9188 574.326 28.8298C574.326 28.7348 574.329 28.6605 574.335 28.6071C574.359 28.1618 574.46 27.7759 574.638 27.4493C574.822 27.1227 575.074 26.8734 575.395 26.7012C575.716 26.523 576.093 26.434 576.526 26.434C577.007 26.434 577.411 26.5349 577.737 26.7368C578.064 26.9327 578.31 27.2088 578.476 27.5651C578.643 27.9154 578.726 28.3221 578.726 28.7852V28.9723C578.726 29.0316 578.705 29.0821 578.664 29.1237C578.622 29.1652 578.569 29.186 578.503 29.186H575.546C575.546 29.186 575.546 29.1949 575.546 29.2127C575.546 29.2305 575.546 29.2454 575.546 29.2573C575.552 29.4651 575.591 29.658 575.662 29.8362C575.739 30.0084 575.849 30.1479 575.992 30.2548C576.14 30.3616 576.315 30.4151 576.517 30.4151C576.683 30.4151 576.823 30.3913 576.936 30.3438C577.049 30.2904 577.141 30.231 577.212 30.1657C577.283 30.1004 577.334 30.047 577.363 30.0054C577.417 29.9341 577.458 29.8926 577.488 29.8807C577.524 29.8629 577.574 29.854 577.639 29.854H578.405C578.465 29.854 578.512 29.8718 578.548 29.9074C578.589 29.943 578.607 29.9876 578.601 30.041C578.595 30.136 578.545 30.2518 578.45 30.3884C578.361 30.5249 578.23 30.6585 578.058 30.7891C577.886 30.9198 577.669 31.0296 577.408 31.1187C577.152 31.2018 576.859 31.2434 576.526 31.2434ZM575.546 28.4379H577.515V28.4112C577.515 28.1796 577.476 27.9777 577.399 27.8055C577.322 27.6334 577.209 27.4968 577.06 27.3959C576.912 27.2949 576.734 27.2445 576.526 27.2445C576.318 27.2445 576.14 27.2949 575.992 27.3959C575.843 27.4968 575.73 27.6334 575.653 27.8055C575.582 27.9777 575.546 28.1796 575.546 28.4112V28.4379ZM579.885 31.1543C579.826 31.1543 579.775 31.1335 579.734 31.092C579.692 31.0504 579.671 30.9999 579.671 30.9405V26.7457C579.671 26.6804 579.692 26.627 579.734 26.5854C579.775 26.5438 579.826 26.523 579.885 26.523H580.606C580.666 26.523 580.716 26.5438 580.758 26.5854C580.805 26.627 580.829 26.6804 580.829 26.7457V27.1109C580.966 26.9209 581.141 26.7754 581.355 26.6745C581.574 26.5735 581.827 26.523 582.112 26.523H582.477C582.542 26.523 582.592 26.5438 582.628 26.5854C582.67 26.627 582.69 26.6774 582.69 26.7368V27.378C582.69 27.4374 582.67 27.4879 582.628 27.5295C582.592 27.571 582.542 27.5918 582.477 27.5918H581.782C581.497 27.5918 581.274 27.672 581.114 27.8323C580.96 27.9926 580.882 28.2123 580.882 28.4913V30.9405C580.882 30.9999 580.862 31.0504 580.82 31.092C580.779 31.1335 580.725 31.1543 580.66 31.1543H579.885ZM583.599 31.1543C583.539 31.1543 583.489 31.1335 583.447 31.092C583.406 31.0504 583.385 30.9999 583.385 30.9405V26.7368C583.385 26.6774 583.406 26.627 583.447 26.5854C583.489 26.5438 583.539 26.523 583.599 26.523H584.338C584.403 26.523 584.454 26.5438 584.489 26.5854C584.531 26.627 584.552 26.6774 584.552 26.7368V30.9405C584.552 30.9999 584.531 31.0504 584.489 31.092C584.454 31.1335 584.403 31.1543 584.338 31.1543H583.599ZM583.563 25.7571C583.498 25.7571 583.444 25.7393 583.403 25.7037C583.367 25.6621 583.349 25.6087 583.349 25.5434V24.9021C583.349 24.8427 583.367 24.7923 583.403 24.7507C583.444 24.7091 583.498 24.6884 583.563 24.6884H584.374C584.439 24.6884 584.492 24.7091 584.534 24.7507C584.576 24.7923 584.596 24.8427 584.596 24.9021V25.5434C584.596 25.6087 584.576 25.6621 584.534 25.7037C584.492 25.7393 584.439 25.7571 584.374 25.7571H583.563ZM586.13 31.1543C586.07 31.1543 586.02 31.1335 585.978 31.092C585.937 31.0504 585.916 30.9999 585.916 30.9405V26.7368C585.916 26.6774 585.937 26.627 585.978 26.5854C586.02 26.5438 586.07 26.523 586.13 26.523H586.86C586.919 26.523 586.97 26.5438 587.012 26.5854C587.053 26.627 587.074 26.6774 587.074 26.7368V27.102C587.228 26.912 587.424 26.7546 587.662 26.6299C587.905 26.4993 588.205 26.434 588.561 26.434C588.923 26.434 589.238 26.5171 589.505 26.6834C589.772 26.8437 589.977 27.0723 590.12 27.3691C590.268 27.666 590.342 28.0223 590.342 28.4379V30.9405C590.342 30.9999 590.322 31.0504 590.28 31.092C590.239 31.1335 590.188 31.1543 590.129 31.1543H589.345C589.286 31.1543 589.235 31.1335 589.194 31.092C589.152 31.0504 589.131 30.9999 589.131 30.9405V28.4913C589.131 28.147 589.045 27.8768 588.873 27.6809C588.707 27.4849 588.463 27.387 588.143 27.387C587.834 27.387 587.587 27.4849 587.403 27.6809C587.219 27.8768 587.127 28.147 587.127 28.4913V30.9405C587.127 30.9999 587.107 31.0504 587.065 31.092C587.023 31.1335 586.973 31.1543 586.914 31.1543H586.13ZM593.567 33.1137C593.133 33.1137 592.777 33.0573 592.498 32.9445C592.219 32.8316 591.999 32.6951 591.839 32.5348C591.679 32.3745 591.563 32.2141 591.492 32.0538C591.426 31.8995 591.391 31.7777 591.385 31.6887C591.379 31.6293 591.397 31.5759 591.438 31.5284C591.486 31.4868 591.539 31.466 591.598 31.466H592.373C592.433 31.466 592.48 31.4779 592.516 31.5016C592.551 31.5313 592.581 31.5818 592.605 31.653C592.64 31.7302 592.688 31.8134 592.747 31.9024C592.807 31.9915 592.896 32.0657 593.015 32.1251C593.139 32.1904 593.308 32.223 593.522 32.223C593.748 32.223 593.938 32.1904 594.092 32.1251C594.247 32.0598 594.362 31.9499 594.44 31.7955C594.523 31.6412 594.564 31.4274 594.564 31.1543V30.5487C594.422 30.7209 594.238 30.8604 594.012 30.9673C593.792 31.0741 593.519 31.1276 593.193 31.1276C592.872 31.1276 592.596 31.0771 592.364 30.9762C592.133 30.8693 591.94 30.7238 591.785 30.5398C591.631 30.3498 591.512 30.1271 591.429 29.8718C591.352 29.6165 591.308 29.3345 591.296 29.0257C591.29 28.8654 591.29 28.7051 591.296 28.5448C591.308 28.2479 591.352 27.9718 591.429 27.7165C591.506 27.4612 591.622 27.2385 591.777 27.0485C591.937 26.8526 592.133 26.7012 592.364 26.5943C592.596 26.4874 592.872 26.434 593.193 26.434C593.531 26.434 593.816 26.4993 594.048 26.6299C594.279 26.7546 594.469 26.912 594.618 27.102V26.7457C594.618 26.6804 594.638 26.627 594.68 26.5854C594.722 26.5438 594.772 26.523 594.831 26.523H595.553C595.612 26.523 595.663 26.5438 595.704 26.5854C595.746 26.627 595.767 26.6804 595.767 26.7457L595.775 31.0385C595.775 31.466 595.695 31.8341 595.535 32.1429C595.375 32.4516 595.131 32.6891 594.805 32.8554C594.484 33.0276 594.071 33.1137 593.567 33.1137ZM593.522 30.1835C593.766 30.1835 593.962 30.1301 594.11 30.0232C594.258 29.9163 594.368 29.7768 594.44 29.6046C594.511 29.4324 594.552 29.2573 594.564 29.0791C594.57 29.002 594.573 28.904 594.573 28.7852C594.573 28.6665 594.57 28.5715 594.564 28.5002C594.552 28.3162 594.511 28.141 594.44 27.9748C594.368 27.8026 594.258 27.663 594.11 27.5562C593.962 27.4434 593.766 27.387 593.522 27.387C593.279 27.387 593.083 27.4434 592.934 27.5562C592.786 27.663 592.679 27.8055 592.614 27.9837C592.554 28.1618 592.519 28.3577 592.507 28.5715C592.495 28.714 592.495 28.8595 592.507 29.0079C592.519 29.2157 592.554 29.4116 592.614 29.5957C592.679 29.7738 592.786 29.9163 592.934 30.0232C593.083 30.1301 593.279 30.1835 593.522 30.1835Z" fill="#5C261A"/>
<path d="M616.304 31.1543C616.256 31.1543 616.212 31.1365 616.17 31.1009C616.135 31.0652 616.117 31.0207 616.117 30.9673C616.117 30.9435 616.123 30.9168 616.135 30.8871L618.281 25.1426C618.299 25.0832 618.332 25.0327 618.379 24.9912C618.433 24.9437 618.504 24.9199 618.593 24.9199H619.564C619.653 24.9199 619.721 24.9437 619.768 24.9912C619.816 25.0327 619.852 25.0832 619.875 25.1426L622.022 30.8871C622.028 30.9168 622.031 30.9435 622.031 30.9673C622.031 31.0207 622.013 31.0652 621.977 31.1009C621.942 31.1365 621.9 31.1543 621.853 31.1543H621.078C620.995 31.1543 620.932 31.1365 620.891 31.1009C620.855 31.0593 620.831 31.0207 620.819 30.9851L620.401 29.8985H617.756L617.337 30.9851C617.325 31.0207 617.298 31.0593 617.257 31.1009C617.221 31.1365 617.162 31.1543 617.079 31.1543H616.304ZM618.067 28.8743H620.089L619.074 26.1223L618.067 28.8743ZM625.32 31.2434C624.976 31.2434 624.688 31.184 624.456 31.0652C624.231 30.9465 624.044 30.7951 623.895 30.611V30.9405C623.895 30.9999 623.874 31.0504 623.833 31.092C623.797 31.1335 623.747 31.1543 623.681 31.1543H622.978C622.919 31.1543 622.868 31.1335 622.826 31.092C622.785 31.0504 622.764 30.9999 622.764 30.9405V25.0446C622.764 24.9852 622.785 24.9348 622.826 24.8932C622.868 24.8516 622.919 24.8309 622.978 24.8309H623.735C623.8 24.8309 623.851 24.8516 623.886 24.8932C623.928 24.9348 623.949 24.9852 623.949 25.0446V27.0218C624.097 26.8496 624.281 26.7101 624.501 26.6032C624.726 26.4904 625 26.434 625.32 26.434C625.635 26.434 625.908 26.4874 626.14 26.5943C626.371 26.7012 626.564 26.8526 626.719 27.0485C626.879 27.2385 627.001 27.4612 627.084 27.7165C627.167 27.9718 627.211 28.2479 627.217 28.5448C627.223 28.6516 627.226 28.7496 627.226 28.8387C627.226 28.9218 627.223 29.0168 627.217 29.1237C627.205 29.4324 627.158 29.7174 627.075 29.9787C626.992 30.234 626.873 30.4566 626.719 30.6466C626.564 30.8366 626.371 30.9851 626.14 31.092C625.908 31.1929 625.635 31.2434 625.32 31.2434ZM624.991 30.2904C625.246 30.2904 625.445 30.237 625.587 30.1301C625.73 30.0173 625.831 29.8718 625.89 29.6937C625.956 29.5155 625.994 29.3196 626.006 29.1059C626.018 28.9277 626.018 28.7496 626.006 28.5715C625.994 28.3577 625.956 28.1618 625.89 27.9837C625.831 27.8055 625.73 27.663 625.587 27.5562C625.445 27.4434 625.246 27.387 624.991 27.387C624.753 27.387 624.56 27.4404 624.412 27.5473C624.263 27.6541 624.151 27.7907 624.073 27.957C623.996 28.1173 623.955 28.2865 623.949 28.4646C623.943 28.5715 623.94 28.6873 623.94 28.812C623.94 28.9307 623.943 29.0435 623.949 29.1504C623.961 29.3345 623.999 29.5155 624.064 29.6937C624.136 29.8659 624.246 30.0084 624.394 30.1212C624.548 30.234 624.747 30.2904 624.991 30.2904ZM630.266 31.2434C629.791 31.2434 629.39 31.1602 629.063 30.994C628.743 30.8277 628.496 30.5932 628.324 30.2904C628.158 29.9876 628.063 29.6343 628.039 29.2305C628.033 29.1237 628.03 28.993 628.03 28.8387C628.03 28.6843 628.033 28.5537 628.039 28.4468C628.063 28.0371 628.161 27.6838 628.333 27.387C628.511 27.0841 628.761 26.8496 629.081 26.6834C629.408 26.5171 629.803 26.434 630.266 26.434C630.729 26.434 631.121 26.5171 631.441 26.6834C631.768 26.8496 632.017 27.0841 632.189 27.387C632.368 27.6838 632.469 28.0371 632.492 28.4468C632.498 28.5537 632.501 28.6843 632.501 28.8387C632.501 28.993 632.498 29.1237 632.492 29.2305C632.469 29.6343 632.371 29.9876 632.198 30.2904C632.032 30.5932 631.786 30.8277 631.459 30.994C631.139 31.1602 630.741 31.2434 630.266 31.2434ZM630.266 30.3616C630.58 30.3616 630.824 30.2637 630.996 30.0677C631.168 29.8659 631.263 29.572 631.281 29.186C631.287 29.097 631.29 28.9812 631.29 28.8387C631.29 28.6962 631.287 28.5804 631.281 28.4913C631.263 28.1113 631.168 27.8204 630.996 27.6185C630.824 27.4166 630.58 27.3157 630.266 27.3157C629.951 27.3157 629.708 27.4166 629.535 27.6185C629.363 27.8204 629.268 28.1113 629.25 28.4913C629.244 28.5804 629.241 28.6962 629.241 28.8387C629.241 28.9812 629.244 29.097 629.25 29.186C629.268 29.572 629.363 29.8659 629.535 30.0677C629.708 30.2637 629.951 30.3616 630.266 30.3616ZM635.207 31.2434C634.845 31.2434 634.53 31.1632 634.263 31.0029C634.002 30.8366 633.8 30.6051 633.657 30.3082C633.515 30.0054 633.443 29.6491 633.443 29.2395V26.7368C633.443 26.6774 633.464 26.627 633.506 26.5854C633.547 26.5438 633.598 26.523 633.657 26.523H634.441C634.506 26.523 634.557 26.5438 634.592 26.5854C634.634 26.627 634.655 26.6774 634.655 26.7368V29.186C634.655 29.9223 634.978 30.2904 635.625 30.2904C635.934 30.2904 636.178 30.1924 636.356 29.9965C636.54 29.8005 636.632 29.5304 636.632 29.186V26.7368C636.632 26.6774 636.653 26.627 636.694 26.5854C636.736 26.5438 636.786 26.523 636.846 26.523H637.629C637.689 26.523 637.739 26.5438 637.781 26.5854C637.822 26.627 637.843 26.6774 637.843 26.7368V30.9405C637.843 30.9999 637.822 31.0504 637.781 31.092C637.739 31.1335 637.689 31.1543 637.629 31.1543H636.908C636.843 31.1543 636.789 31.1335 636.748 31.092C636.712 31.0504 636.694 30.9999 636.694 30.9405V30.5754C636.534 30.7832 636.335 30.9465 636.097 31.0652C635.86 31.184 635.563 31.2434 635.207 31.2434ZM641.113 31.1543C640.756 31.1543 640.456 31.092 640.213 30.9673C639.97 30.8426 639.788 30.6585 639.67 30.4151C639.551 30.1657 639.492 29.857 639.492 29.4888V27.4671H638.788C638.729 27.4671 638.678 27.4463 638.637 27.4048C638.595 27.3632 638.574 27.3127 638.574 27.2534V26.7368C638.574 26.6774 638.595 26.627 638.637 26.5854C638.678 26.5438 638.729 26.523 638.788 26.523H639.492V25.0446C639.492 24.9852 639.509 24.9348 639.545 24.8932C639.587 24.8516 639.64 24.8309 639.705 24.8309H640.427C640.486 24.8309 640.537 24.8516 640.578 24.8932C640.62 24.9348 640.641 24.9852 640.641 25.0446V26.523H641.754C641.813 26.523 641.864 26.5438 641.905 26.5854C641.947 26.627 641.968 26.6774 641.968 26.7368V27.2534C641.968 27.3127 641.947 27.3632 641.905 27.4048C641.864 27.4463 641.813 27.4671 641.754 27.4671H640.641V29.3998C640.641 29.6432 640.682 29.8332 640.765 29.9698C640.854 30.1063 641.006 30.1746 641.219 30.1746H641.834C641.893 30.1746 641.944 30.1954 641.985 30.237C642.027 30.2785 642.048 30.329 642.048 30.3884V30.9405C642.048 30.9999 642.027 31.0504 641.985 31.092C641.944 31.1335 641.893 31.1543 641.834 31.1543H641.113ZM647.465 31.2434C646.948 31.2434 646.5 31.1573 646.12 30.9851C645.74 30.807 645.446 30.5368 645.238 30.1746C645.03 29.8065 644.926 29.3374 644.926 28.7674V25.1426C644.926 25.0773 644.947 25.0238 644.989 24.9823C645.03 24.9407 645.081 24.9199 645.14 24.9199H645.951C646.016 24.9199 646.066 24.9407 646.102 24.9823C646.144 25.0238 646.164 25.0773 646.164 25.1426V28.7674C646.164 29.2543 646.28 29.6165 646.512 29.854C646.743 30.0855 647.061 30.2013 647.465 30.2013C647.868 30.2013 648.183 30.0855 648.409 29.854C648.64 29.6165 648.756 29.2543 648.756 28.7674V25.1426C648.756 25.0773 648.777 25.0238 648.818 24.9823C648.86 24.9407 648.913 24.9199 648.979 24.9199H649.78C649.846 24.9199 649.896 24.9407 649.932 24.9823C649.973 25.0238 649.994 25.0773 649.994 25.1426V28.7674C649.994 29.3374 649.89 29.8065 649.682 30.1746C649.48 30.5368 649.19 30.807 648.81 30.9851C648.435 31.1573 647.987 31.2434 647.465 31.2434ZM652.951 31.2434C652.594 31.2434 652.289 31.2018 652.033 31.1187C651.784 31.0355 651.579 30.9316 651.419 30.807C651.258 30.6823 651.14 30.5576 651.062 30.4329C650.985 30.3082 650.944 30.2043 650.938 30.1212C650.932 30.0559 650.95 30.0054 650.991 29.9698C651.039 29.9282 651.089 29.9074 651.143 29.9074H651.846C651.87 29.9074 651.891 29.9104 651.909 29.9163C651.926 29.9223 651.95 29.9401 651.98 29.9698C652.057 30.0351 652.137 30.1034 652.22 30.1746C652.309 30.2459 652.413 30.3082 652.532 30.3616C652.651 30.4091 652.799 30.4329 652.977 30.4329C653.209 30.4329 653.402 30.3884 653.556 30.2993C653.717 30.2043 653.797 30.0707 653.797 29.8985C653.797 29.7738 653.761 29.6729 653.69 29.5957C653.625 29.5185 653.5 29.4502 653.316 29.3909C653.132 29.3255 652.87 29.2573 652.532 29.186C652.2 29.1088 651.923 29.0109 651.704 28.8921C651.484 28.7734 651.321 28.6249 651.214 28.4468C651.107 28.2687 651.054 28.0609 651.054 27.8234C651.054 27.5918 651.122 27.3721 651.258 27.1643C651.401 26.9505 651.609 26.7754 651.882 26.6388C652.161 26.5023 652.505 26.434 652.915 26.434C653.236 26.434 653.515 26.4755 653.752 26.5587C653.99 26.6359 654.186 26.7338 654.34 26.8526C654.5 26.9713 654.622 27.093 654.705 27.2177C654.788 27.3365 654.833 27.4404 654.839 27.5295C654.845 27.5948 654.827 27.6482 654.785 27.6898C654.744 27.7254 654.696 27.7432 654.643 27.7432H653.984C653.954 27.7432 653.927 27.7373 653.904 27.7254C653.88 27.7135 653.856 27.6987 653.832 27.6809C653.767 27.6215 653.696 27.5591 653.619 27.4938C653.541 27.4285 653.446 27.3721 653.334 27.3246C653.227 27.2712 653.084 27.2445 652.906 27.2445C652.68 27.2445 652.508 27.2949 652.39 27.3959C652.271 27.4909 652.211 27.6126 652.211 27.761C652.211 27.862 652.238 27.951 652.292 28.0282C652.351 28.0995 652.467 28.1677 652.639 28.233C652.811 28.2984 653.072 28.3666 653.423 28.4379C653.82 28.5091 654.135 28.616 654.367 28.7585C654.604 28.8951 654.77 29.0554 654.865 29.2395C654.966 29.4176 655.017 29.6165 655.017 29.8362C655.017 30.1034 654.937 30.3438 654.776 30.5576C654.622 30.7713 654.39 30.9405 654.082 31.0652C653.779 31.184 653.402 31.2434 652.951 31.2434Z" fill="#5C261A"/>
<g filter="url(#filter0_d_2449_96574)" class='btn-jersey'>
<g clip-path="url(#clip2_2449_96574)" class='bg-color'>
<rect x="674.992" y="13.1543" width="94.5" height="31.375" rx="15.6875" fill="#FCB962"/>
<circle cx="675.883" cy="43.1387" r="0.890625" fill="#FDCB89"/>
<path d="M690.088 31.8418C690.023 31.8418 689.97 31.821 689.928 31.7795C689.886 31.7379 689.866 31.6845 689.866 31.6191V25.8301C689.866 25.7648 689.886 25.7113 689.928 25.6698C689.97 25.6282 690.023 25.6074 690.088 25.6074H691.264C691.323 25.6074 691.374 25.6282 691.415 25.6698C691.463 25.7113 691.487 25.7648 691.487 25.8301V30.497H694.176C694.242 30.497 694.295 30.5207 694.337 30.5682C694.384 30.6098 694.408 30.6632 694.408 30.7285V31.6191C694.408 31.6845 694.384 31.7379 694.337 31.7795C694.295 31.821 694.242 31.8418 694.176 31.8418H690.088ZM697.657 31.9309C697.111 31.9309 696.636 31.8418 696.232 31.6637C695.829 31.4855 695.514 31.2184 695.288 30.8621C695.063 30.4999 694.938 30.0487 694.914 29.5084C694.908 29.253 694.905 28.9977 694.905 28.7424C694.905 28.4871 694.908 28.2288 694.914 27.9676C694.938 27.4332 695.063 26.9849 695.288 26.6227C695.52 26.2546 695.838 25.9785 696.241 25.7945C696.645 25.6104 697.117 25.5184 697.657 25.5184C698.192 25.5184 698.661 25.6104 699.065 25.7945C699.474 25.9785 699.795 26.2546 700.026 26.6227C700.258 26.9849 700.383 27.4332 700.401 27.9676C700.412 28.2288 700.418 28.4871 700.418 28.7424C700.418 28.9977 700.412 29.253 700.401 29.5084C700.377 30.0487 700.252 30.4999 700.026 30.8621C699.801 31.2184 699.486 31.4855 699.082 31.6637C698.679 31.8418 698.204 31.9309 697.657 31.9309ZM697.657 30.6484C697.972 30.6484 698.227 30.5534 698.423 30.3634C698.625 30.1734 698.732 29.8705 698.744 29.4549C698.756 29.1937 698.762 28.9473 698.762 28.7157C698.762 28.4841 698.756 28.2437 698.744 27.9943C698.732 27.7152 698.679 27.4896 698.584 27.3174C698.495 27.1393 698.37 27.0087 698.21 26.9255C698.049 26.8424 697.865 26.8009 697.657 26.8009C697.456 26.8009 697.274 26.8424 697.114 26.9255C696.954 27.0087 696.826 27.1393 696.731 27.3174C696.636 27.4896 696.583 27.7152 696.571 27.9943C696.565 28.2437 696.562 28.4841 696.562 28.7157C696.562 28.9473 696.565 29.1937 696.571 29.4549C696.589 29.8705 696.696 30.1734 696.891 30.3634C697.087 30.5534 697.343 30.6484 697.657 30.6484ZM704.025 31.9309C703.461 31.9309 702.974 31.8388 702.564 31.6548C702.16 31.4648 701.846 31.1916 701.62 30.8354C701.4 30.4732 701.279 30.0338 701.255 29.5173C701.249 29.262 701.246 28.9918 701.246 28.7068C701.246 28.4159 701.249 28.1398 701.255 27.8785C701.279 27.3738 701.403 26.9463 701.629 26.596C701.854 26.2457 702.172 25.9785 702.582 25.7945C702.991 25.6104 703.472 25.5184 704.025 25.5184C704.47 25.5184 704.865 25.5748 705.209 25.6876C705.554 25.7945 705.841 25.9399 706.073 26.124C706.311 26.308 706.489 26.5099 706.607 26.7296C706.732 26.9493 706.797 27.166 706.803 27.3798C706.809 27.4332 706.791 27.4777 706.75 27.5134C706.714 27.549 706.67 27.5668 706.616 27.5668H705.316C705.251 27.5668 705.2 27.5579 705.165 27.5401C705.135 27.5163 705.108 27.4837 705.084 27.4421C705.043 27.353 704.981 27.261 704.897 27.166C704.82 27.0651 704.71 26.979 704.568 26.9077C704.431 26.8365 704.25 26.8009 704.025 26.8009C703.686 26.8009 703.419 26.8899 703.223 27.068C703.033 27.2462 702.929 27.5312 702.911 27.923C702.894 28.4337 702.894 28.9502 702.911 29.4727C702.929 29.8884 703.039 30.1882 703.241 30.3723C703.443 30.5563 703.71 30.6484 704.042 30.6484C704.268 30.6484 704.467 30.6098 704.639 30.5326C704.817 30.4554 704.957 30.3366 705.058 30.1763C705.159 30.0101 705.209 29.7993 705.209 29.544V29.3748H704.372C704.307 29.3748 704.25 29.354 704.203 29.3124C704.161 29.2649 704.14 29.2085 704.14 29.1432V28.4841C704.14 28.4188 704.161 28.3654 704.203 28.3238C704.25 28.2763 704.307 28.2526 704.372 28.2526H706.616C706.682 28.2526 706.735 28.2763 706.777 28.3238C706.818 28.3654 706.839 28.4188 706.839 28.4841V29.4995C706.839 30.0101 706.723 30.4465 706.492 30.8087C706.26 31.1709 705.931 31.4499 705.503 31.6459C705.081 31.8359 704.589 31.9309 704.025 31.9309ZM708.083 31.8418C708.018 31.8418 707.965 31.821 707.923 31.7795C707.882 31.7379 707.861 31.6845 707.861 31.6191V25.8301C707.861 25.7648 707.882 25.7113 707.923 25.6698C707.965 25.6282 708.018 25.6074 708.083 25.6074H709.277C709.342 25.6074 709.396 25.6282 709.437 25.6698C709.479 25.7113 709.5 25.7648 709.5 25.8301V31.6191C709.5 31.6845 709.479 31.7379 709.437 31.7795C709.396 31.821 709.342 31.8418 709.277 31.8418H708.083ZM710.971 31.8418C710.906 31.8418 710.852 31.821 710.811 31.7795C710.769 31.7379 710.748 31.6845 710.748 31.6191V25.8301C710.748 25.7648 710.769 25.7113 710.811 25.6698C710.852 25.6282 710.906 25.6074 710.971 25.6074H711.915C712.016 25.6074 712.087 25.6312 712.129 25.6787C712.176 25.7202 712.206 25.7529 712.218 25.7766L714.391 29.2055V25.8301C714.391 25.7648 714.412 25.7113 714.453 25.6698C714.495 25.6282 714.548 25.6074 714.614 25.6074H715.682C715.748 25.6074 715.801 25.6282 715.843 25.6698C715.884 25.7113 715.905 25.7648 715.905 25.8301V31.6191C715.905 31.6785 715.884 31.732 715.843 31.7795C715.801 31.821 715.748 31.8418 715.682 31.8418H714.729C714.634 31.8418 714.563 31.818 714.516 31.7705C714.474 31.723 714.447 31.6904 714.436 31.6726L712.262 28.3773V31.6191C712.262 31.6845 712.242 31.7379 712.2 31.7795C712.159 31.821 712.105 31.8418 712.04 31.8418H710.971ZM716.927 32.5899C716.874 32.5899 716.826 32.5691 716.785 32.5276C716.749 32.492 716.731 32.4504 716.731 32.4029C716.731 32.3732 716.74 32.3435 716.758 32.3138L719.768 25.0552C719.792 25.0077 719.828 24.9602 719.875 24.9127C719.923 24.8652 719.994 24.8415 720.089 24.8415H720.89C720.938 24.8415 720.979 24.8623 721.015 24.9038C721.057 24.9395 721.077 24.981 721.077 25.0285C721.077 25.0523 721.071 25.082 721.06 25.1176L718.023 32.3762C718.011 32.4177 717.978 32.4623 717.925 32.5098C717.877 32.5632 717.806 32.5899 717.711 32.5899H716.927ZM724.058 31.9309C723.464 31.9309 722.971 31.8477 722.579 31.6815C722.188 31.5093 721.891 31.2866 721.689 31.0135C721.487 30.7404 721.38 30.4495 721.368 30.1407C721.368 30.0932 721.386 30.0516 721.422 30.016C721.463 29.9745 721.511 29.9537 721.564 29.9537H722.686C722.769 29.9537 722.832 29.9685 722.873 29.9982C722.921 30.0279 722.962 30.0665 722.998 30.114C723.045 30.203 723.111 30.2891 723.194 30.3723C723.283 30.4554 723.396 30.5237 723.532 30.5771C723.675 30.6246 723.85 30.6484 724.058 30.6484C724.402 30.6484 724.66 30.5949 724.833 30.488C725.011 30.3812 725.1 30.2357 725.1 30.0516C725.1 29.921 725.052 29.8141 724.957 29.731C724.862 29.642 724.708 29.5648 724.494 29.4995C724.286 29.4282 724.007 29.357 723.657 29.2857C723.206 29.1907 722.82 29.069 722.499 28.9205C722.185 28.7662 721.944 28.5673 721.778 28.3238C721.612 28.0745 721.528 27.7657 721.528 27.3976C721.528 27.0354 721.629 26.7118 721.831 26.4268C722.039 26.1418 722.327 25.9191 722.695 25.7588C723.063 25.5985 723.5 25.5184 724.004 25.5184C724.414 25.5184 724.773 25.5718 725.082 25.6787C725.397 25.7855 725.661 25.928 725.875 26.1062C726.088 26.2843 726.249 26.4743 726.356 26.6762C726.468 26.8721 726.528 27.0651 726.534 27.2551C726.534 27.3026 726.516 27.3471 726.48 27.3887C726.445 27.4243 726.4 27.4421 726.347 27.4421H725.171C725.106 27.4421 725.049 27.4302 725.002 27.4065C724.954 27.3827 724.913 27.3441 724.877 27.2907C724.842 27.1601 724.747 27.0473 724.592 26.9523C724.444 26.8513 724.248 26.8009 724.004 26.8009C723.743 26.8009 723.538 26.8484 723.39 26.9434C723.247 27.0324 723.176 27.172 723.176 27.362C723.176 27.4807 723.215 27.5846 723.292 27.6737C723.375 27.7627 723.509 27.8399 723.693 27.9052C723.883 27.9705 724.141 28.0388 724.468 28.1101C725.008 28.211 725.444 28.3387 725.777 28.493C726.109 28.6415 726.353 28.8374 726.507 29.0809C726.661 29.3184 726.739 29.6182 726.739 29.9804C726.739 30.3841 726.623 30.7345 726.391 31.0313C726.166 31.3223 725.851 31.5449 725.447 31.6993C725.043 31.8537 724.58 31.9309 724.058 31.9309ZM727.853 31.8418C727.788 31.8418 727.734 31.821 727.693 31.7795C727.651 31.7379 727.63 31.6845 727.63 31.6191V25.8301C727.63 25.7648 727.651 25.7113 727.693 25.6698C727.734 25.6282 727.788 25.6074 727.853 25.6074H729.046C729.112 25.6074 729.165 25.6282 729.207 25.6698C729.248 25.7113 729.269 25.7648 729.269 25.8301V31.6191C729.269 31.6845 729.248 31.7379 729.207 31.7795C729.165 31.821 729.112 31.8418 729.046 31.8418H727.853ZM733.092 31.9309C732.528 31.9309 732.041 31.8388 731.631 31.6548C731.227 31.4648 730.913 31.1916 730.687 30.8354C730.467 30.4732 730.346 30.0338 730.322 29.5173C730.316 29.262 730.313 28.9918 730.313 28.7068C730.313 28.4159 730.316 28.1398 730.322 27.8785C730.346 27.3738 730.47 26.9463 730.696 26.596C730.922 26.2457 731.239 25.9785 731.649 25.7945C732.059 25.6104 732.54 25.5184 733.092 25.5184C733.537 25.5184 733.932 25.5748 734.276 25.6876C734.621 25.7945 734.909 25.9399 735.14 26.124C735.378 26.308 735.556 26.5099 735.675 26.7296C735.799 26.9493 735.865 27.166 735.87 27.3798C735.876 27.4332 735.859 27.4777 735.817 27.5134C735.781 27.549 735.737 27.5668 735.683 27.5668H734.383C734.318 27.5668 734.267 27.5579 734.232 27.5401C734.202 27.5163 734.175 27.4837 734.152 27.4421C734.11 27.353 734.048 27.261 733.965 27.166C733.887 27.0651 733.777 26.979 733.635 26.9077C733.498 26.8365 733.317 26.8009 733.092 26.8009C732.753 26.8009 732.486 26.8899 732.29 27.068C732.1 27.2462 731.996 27.5312 731.978 27.923C731.961 28.4337 731.961 28.9502 731.978 29.4727C731.996 29.8884 732.106 30.1882 732.308 30.3723C732.51 30.5563 732.777 30.6484 733.11 30.6484C733.335 30.6484 733.534 30.6098 733.706 30.5326C733.884 30.4554 734.024 30.3366 734.125 30.1763C734.226 30.0101 734.276 29.7993 734.276 29.544V29.3748H733.439C733.374 29.3748 733.317 29.354 733.27 29.3124C733.228 29.2649 733.207 29.2085 733.207 29.1432V28.4841C733.207 28.4188 733.228 28.3654 733.27 28.3238C733.317 28.2763 733.374 28.2526 733.439 28.2526H735.683C735.749 28.2526 735.802 28.2763 735.844 28.3238C735.885 28.3654 735.906 28.4188 735.906 28.4841V29.4995C735.906 30.0101 735.79 30.4465 735.559 30.8087C735.327 31.1709 734.998 31.4499 734.57 31.6459C734.149 31.8359 733.656 31.9309 733.092 31.9309ZM737.151 31.8418C737.085 31.8418 737.032 31.821 736.99 31.7795C736.949 31.7379 736.928 31.6845 736.928 31.6191V25.8301C736.928 25.7648 736.949 25.7113 736.99 25.6698C737.032 25.6282 737.085 25.6074 737.151 25.6074H738.095C738.196 25.6074 738.267 25.6312 738.308 25.6787C738.356 25.7202 738.386 25.7529 738.397 25.7766L740.571 29.2055V25.8301C740.571 25.7648 740.591 25.7113 740.633 25.6698C740.674 25.6282 740.728 25.6074 740.793 25.6074H741.862C741.927 25.6074 741.981 25.6282 742.022 25.6698C742.064 25.7113 742.085 25.7648 742.085 25.8301V31.6191C742.085 31.6785 742.064 31.732 742.022 31.7795C741.981 31.821 741.927 31.8418 741.862 31.8418H740.909C740.814 31.8418 740.743 31.818 740.695 31.7705C740.654 31.723 740.627 31.6904 740.615 31.6726L738.442 28.3773V31.6191C738.442 31.6845 738.421 31.7379 738.38 31.7795C738.338 31.821 738.285 31.8418 738.219 31.8418H737.151ZM745.939 31.9309C745.404 31.9309 744.935 31.8448 744.532 31.6726C744.134 31.4945 743.825 31.2243 743.605 30.8621C743.386 30.494 743.276 30.0279 743.276 29.4638V25.8301C743.276 25.7648 743.297 25.7113 743.338 25.6698C743.38 25.6282 743.433 25.6074 743.498 25.6074H744.647C744.713 25.6074 744.766 25.6282 744.808 25.6698C744.849 25.7113 744.87 25.7648 744.87 25.8301V29.4549C744.87 29.8409 744.962 30.1318 745.146 30.3277C745.336 30.5177 745.6 30.6127 745.939 30.6127C746.271 30.6127 746.53 30.5177 746.714 30.3277C746.904 30.1318 746.999 29.8409 746.999 29.4549V25.8301C746.999 25.7648 747.019 25.7113 747.061 25.6698C747.108 25.6282 747.162 25.6074 747.221 25.6074H748.379C748.438 25.6074 748.489 25.6282 748.53 25.6698C748.578 25.7113 748.602 25.7648 748.602 25.8301V29.4638C748.602 30.0279 748.492 30.494 748.272 30.8621C748.052 31.2243 747.744 31.4945 747.346 31.6726C746.948 31.8448 746.479 31.9309 745.939 31.9309ZM750.005 31.8418C749.94 31.8418 749.887 31.821 749.845 31.7795C749.804 31.7379 749.783 31.6845 749.783 31.6191V25.8301C749.783 25.7648 749.804 25.7113 749.845 25.6698C749.887 25.6282 749.94 25.6074 750.005 25.6074H752.499C752.992 25.6074 753.419 25.6846 753.782 25.839C754.15 25.9874 754.435 26.213 754.637 26.5159C754.844 26.8187 754.948 27.2016 754.948 27.6648C754.948 28.122 754.844 28.499 754.637 28.7959C754.435 29.0927 754.15 29.3124 753.782 29.4549C753.419 29.5974 752.992 29.6687 752.499 29.6687H751.439V31.6191C751.439 31.6845 751.416 31.7379 751.368 31.7795C751.327 31.821 751.273 31.8418 751.208 31.8418H750.005ZM751.413 28.4396H752.455C752.71 28.4396 752.912 28.3743 753.06 28.2437C753.215 28.113 753.292 27.9141 753.292 27.647C753.292 27.4213 753.227 27.2313 753.096 27.077C752.965 26.9226 752.752 26.8454 752.455 26.8454H751.413V28.4396Z" fill="#44140A"/>
</g>
</g>
</g>
<defs>
<filter id="filter0_d_2449_96574" x="669.055" y="10.7793" width="106.375" height="43.25" filterUnits="userSpaceOnUse" color-interpolation-filters="sRGB">
<feFlood flood-opacity="0" result="BackgroundImageFix"/>
<feColorMatrix in="SourceAlpha" type="matrix" values="0 0 0 0 0 0 0 0 0 0 0 0 0 0 0 0 0 0 127 0" result="hardAlpha"/>
<feOffset dy="3.5625"/>
<feGaussianBlur stdDeviation="2.96875"/>
<feComposite in2="hardAlpha" operator="out"/>
<feColorMatrix type="matrix" values="0 0 0 0 0.984314 0 0 0 0 0.658824 0 0 0 0 0.231373 0 0 0 0.24 0"/>
<feBlend mode="normal" in2="BackgroundImageFix" result="effect1_dropShadow_2449_96574"/>
<feBlend mode="normal" in="SourceGraphic" in2="effect1_dropShadow_2449_96574" result="shape"/>
</filter>
<clipPath id="clip0_2449_96574">
<rect width="855" height="57" fill="white" transform="translate(-0.0078125 0.341797)"/>
</clipPath>
<clipPath id="clip1_2449_96574">
<rect width="56.4062" height="42.75" fill="white" transform="translate(85.9922 7.4668)"/>
</clipPath>
<clipPath id="clip2_2449_96574">
<rect x="674.992" y="13.1543" width="94.5" height="31.375" rx="15.6875" fill="white"/>
</clipPath>
</defs>
</svg>
