<svg width="969" height="112" viewBox="0 0 969 112" fill="none" xmlns="http://www.w3.org/2000/svg">
<g filter="url(#filter0_d_2449_93923)">
<rect x="24" y="12.4102" width="921" height="63" rx="31.5" fill="white" shape-rendering="crispEdges"/>
<rect x="32" y="20.4102" width="181" height="47" rx="23.5" fill="#FBA83B"/>
<path d="M112.939 49.4102C112.853 49.4102 112.773 49.3782 112.699 49.3142C112.635 49.2502 112.603 49.1702 112.603 49.0742C112.603 49.0315 112.613 48.9835 112.635 48.9302L116.491 38.6102C116.523 38.5035 116.581 38.4128 116.667 38.3382C116.763 38.2528 116.891 38.2102 117.051 38.2102H118.795C118.955 38.2102 119.077 38.2528 119.163 38.3382C119.248 38.4128 119.312 38.5035 119.355 38.6102L123.211 48.9302C123.221 48.9835 123.227 49.0315 123.227 49.0742C123.227 49.1702 123.195 49.2502 123.131 49.3142C123.067 49.3782 122.992 49.4102 122.907 49.4102H121.515C121.365 49.4102 121.253 49.3782 121.179 49.3142C121.115 49.2395 121.072 49.1702 121.051 49.1062L120.299 47.1542H115.547L114.795 49.1062C114.773 49.1702 114.725 49.2395 114.651 49.3142C114.587 49.3782 114.48 49.4102 114.331 49.4102H112.939ZM116.107 45.3142H119.739L117.915 40.3702L116.107 45.3142ZM124.769 49.4102C124.662 49.4102 124.571 49.3728 124.497 49.2982C124.422 49.2235 124.385 49.1328 124.385 49.0262V38.4342C124.385 38.3275 124.422 38.2368 124.497 38.1622C124.571 38.0875 124.662 38.0502 124.769 38.0502H126.097C126.203 38.0502 126.294 38.0875 126.369 38.1622C126.443 38.2368 126.481 38.3275 126.481 38.4342V49.0262C126.481 49.1328 126.443 49.2235 126.369 49.2982C126.294 49.3728 126.203 49.4102 126.097 49.4102H124.769ZM128.843 49.4102C128.736 49.4102 128.646 49.3728 128.571 49.2982C128.496 49.2235 128.459 49.1328 128.459 49.0262V38.4342C128.459 38.3275 128.496 38.2368 128.571 38.1622C128.646 38.0875 128.736 38.0502 128.843 38.0502H130.171C130.278 38.0502 130.368 38.0875 130.443 38.1622C130.518 38.2368 130.555 38.3275 130.555 38.4342V49.0262C130.555 49.1328 130.518 49.2235 130.443 49.2982C130.368 49.3728 130.278 49.4102 130.171 49.4102H128.843Z" fill="#1F0702"/>
<path opacity="0.72" d="M269.086 49.5702C268.158 49.5702 267.353 49.4155 266.67 49.1062C265.988 48.7862 265.46 48.3008 265.086 47.6502C264.713 46.9888 264.526 46.1462 264.526 45.1222V38.6102C264.526 38.4928 264.564 38.3968 264.638 38.3222C264.713 38.2475 264.804 38.2102 264.91 38.2102H266.366C266.484 38.2102 266.574 38.2475 266.638 38.3222C266.713 38.3968 266.75 38.4928 266.75 38.6102V45.1222C266.75 45.9968 266.958 46.6475 267.374 47.0742C267.79 47.4902 268.361 47.6982 269.086 47.6982C269.812 47.6982 270.377 47.4902 270.782 47.0742C271.198 46.6475 271.406 45.9968 271.406 45.1222V38.6102C271.406 38.4928 271.444 38.3968 271.518 38.3222C271.593 38.2475 271.689 38.2102 271.806 38.2102H273.246C273.364 38.2102 273.454 38.2475 273.518 38.3222C273.593 38.3968 273.63 38.4928 273.63 38.6102V45.1222C273.63 46.1462 273.444 46.9888 273.07 47.6502C272.708 48.3008 272.185 48.7862 271.502 49.1062C270.83 49.4155 270.025 49.5702 269.086 49.5702ZM276.061 49.4102C275.954 49.4102 275.863 49.3728 275.789 49.2982C275.714 49.2235 275.677 49.1328 275.677 49.0262V41.4742C275.677 41.3675 275.714 41.2768 275.789 41.2022C275.863 41.1275 275.954 41.0902 276.061 41.0902H277.373C277.479 41.0902 277.57 41.1275 277.645 41.2022C277.719 41.2768 277.757 41.3675 277.757 41.4742V42.1302C278.034 41.7888 278.386 41.5062 278.813 41.2822C279.25 41.0475 279.789 40.9302 280.429 40.9302C281.079 40.9302 281.645 41.0795 282.125 41.3782C282.605 41.6662 282.973 42.0768 283.229 42.6102C283.495 43.1435 283.629 43.7835 283.629 44.5302V49.0262C283.629 49.1328 283.591 49.2235 283.517 49.2982C283.442 49.3728 283.351 49.4102 283.245 49.4102H281.837C281.73 49.4102 281.639 49.3728 281.565 49.2982C281.49 49.2235 281.453 49.1328 281.453 49.0262V44.6262C281.453 44.0075 281.298 43.5222 280.989 43.1702C280.69 42.8182 280.253 42.6422 279.677 42.6422C279.122 42.6422 278.679 42.8182 278.349 43.1702C278.018 43.5222 277.853 44.0075 277.853 44.6262V49.0262C277.853 49.1328 277.815 49.2235 277.741 49.2982C277.666 49.3728 277.575 49.4102 277.469 49.4102H276.061ZM288.589 49.5702C288.034 49.5702 287.544 49.4795 287.117 49.2982C286.701 49.1062 286.354 48.8395 286.077 48.4982C285.8 48.1568 285.586 47.7568 285.437 47.2982C285.288 46.8288 285.202 46.3168 285.181 45.7622C285.17 45.5702 285.165 45.3995 285.165 45.2502C285.165 45.0902 285.17 44.9142 285.181 44.7222C285.202 44.1888 285.282 43.6928 285.421 43.2342C285.57 42.7755 285.784 42.3755 286.061 42.0342C286.349 41.6822 286.701 41.4102 287.117 41.2182C287.544 41.0262 288.034 40.9302 288.589 40.9302C289.165 40.9302 289.65 41.0315 290.045 41.2342C290.45 41.4262 290.786 41.6768 291.053 41.9862V38.4342C291.053 38.3275 291.085 38.2368 291.149 38.1622C291.224 38.0875 291.32 38.0502 291.437 38.0502H292.797C292.904 38.0502 292.994 38.0875 293.069 38.1622C293.144 38.2368 293.181 38.3275 293.181 38.4342V49.0262C293.181 49.1328 293.144 49.2235 293.069 49.2982C292.994 49.3728 292.904 49.4102 292.797 49.4102H291.533C291.416 49.4102 291.32 49.3728 291.245 49.2982C291.181 49.2235 291.149 49.1328 291.149 49.0262V48.4342C290.882 48.7648 290.541 49.0368 290.125 49.2502C289.72 49.4635 289.208 49.5702 288.589 49.5702ZM289.181 47.8582C289.629 47.8582 289.986 47.7568 290.253 47.5542C290.52 47.3515 290.717 47.0955 290.845 46.7862C290.973 46.4662 291.042 46.1408 291.053 45.8102C291.064 45.6182 291.069 45.4155 291.069 45.2022C291.069 44.9782 291.064 44.7702 291.053 44.5782C291.042 44.2582 290.968 43.9542 290.829 43.6662C290.69 43.3675 290.488 43.1222 290.221 42.9302C289.954 42.7382 289.608 42.6422 289.181 42.6422C288.733 42.6422 288.376 42.7435 288.109 42.9462C287.853 43.1382 287.666 43.3942 287.549 43.7142C287.432 44.0342 287.362 44.3862 287.341 44.7702C287.33 45.0902 287.33 45.4102 287.341 45.7302C287.362 46.1142 287.432 46.4662 287.549 46.7862C287.666 47.1062 287.853 47.3675 288.109 47.5702C288.376 47.7622 288.733 47.8582 289.181 47.8582ZM298.738 49.5702C297.554 49.5702 296.615 49.2288 295.921 48.5462C295.228 47.8635 294.855 46.8928 294.801 45.6342C294.791 45.5275 294.785 45.3942 294.785 45.2342C294.785 45.0635 294.791 44.9302 294.801 44.8342C294.844 44.0342 295.025 43.3408 295.345 42.7542C295.676 42.1675 296.129 41.7195 296.705 41.4102C297.281 41.0902 297.959 40.9302 298.738 40.9302C299.602 40.9302 300.327 41.1115 300.914 41.4742C301.5 41.8262 301.943 42.3222 302.241 42.9622C302.54 43.5915 302.689 44.3222 302.689 45.1542V45.4902C302.689 45.5968 302.652 45.6875 302.578 45.7622C302.503 45.8368 302.407 45.8742 302.29 45.8742H296.977C296.977 45.8742 296.977 45.8902 296.977 45.9222C296.977 45.9542 296.977 45.9808 296.977 46.0022C296.988 46.3755 297.057 46.7222 297.185 47.0422C297.324 47.3515 297.522 47.6022 297.777 47.7942C298.044 47.9862 298.359 48.0822 298.721 48.0822C299.02 48.0822 299.271 48.0395 299.474 47.9542C299.676 47.8582 299.842 47.7515 299.97 47.6342C300.098 47.5168 300.188 47.4208 300.241 47.3462C300.337 47.2182 300.412 47.1435 300.466 47.1222C300.53 47.0902 300.62 47.0742 300.738 47.0742H302.114C302.22 47.0742 302.306 47.1062 302.37 47.1702C302.444 47.2342 302.476 47.3142 302.465 47.4102C302.455 47.5808 302.364 47.7888 302.194 48.0342C302.034 48.2795 301.799 48.5195 301.49 48.7542C301.18 48.9888 300.791 49.1862 300.322 49.3462C299.863 49.4955 299.335 49.5702 298.738 49.5702ZM296.977 44.5302H300.514V44.4822C300.514 44.0662 300.444 43.7035 300.306 43.3942C300.167 43.0848 299.964 42.8395 299.698 42.6582C299.431 42.4768 299.111 42.3862 298.738 42.3862C298.364 42.3862 298.044 42.4768 297.777 42.6582C297.511 42.8395 297.308 43.0848 297.169 43.3942C297.041 43.7035 296.977 44.0662 296.977 44.4822V44.5302ZM304.612 49.4102C304.505 49.4102 304.415 49.3728 304.34 49.2982C304.265 49.2235 304.228 49.1328 304.228 49.0262V41.4902C304.228 41.3728 304.265 41.2768 304.34 41.2022C304.415 41.1275 304.505 41.0902 304.612 41.0902H305.908C306.015 41.0902 306.105 41.1275 306.18 41.2022C306.265 41.2768 306.308 41.3728 306.308 41.4902V42.1462C306.553 41.8048 306.868 41.5435 307.252 41.3622C307.647 41.1808 308.1 41.0902 308.612 41.0902H309.268C309.385 41.0902 309.476 41.1275 309.54 41.2022C309.615 41.2768 309.652 41.3675 309.652 41.4742V42.6262C309.652 42.7328 309.615 42.8235 309.54 42.8982C309.476 42.9728 309.385 43.0102 309.268 43.0102H308.02C307.508 43.0102 307.108 43.1542 306.82 43.4422C306.543 43.7302 306.404 44.1248 306.404 44.6262V49.0262C306.404 49.1328 306.367 49.2235 306.292 49.2982C306.217 49.3728 306.121 49.4102 306.004 49.4102H304.612ZM313.94 49.4102C313.834 49.4102 313.743 49.3728 313.668 49.2982C313.594 49.2235 313.556 49.1328 313.556 49.0262V48.2102C313.556 48.1142 313.578 48.0022 313.62 47.8742C313.674 47.7355 313.786 47.5968 313.956 47.4582L316.484 44.9462C317.188 44.3915 317.754 43.9222 318.18 43.5382C318.618 43.1435 318.932 42.7862 319.124 42.4662C319.327 42.1355 319.428 41.8102 319.428 41.4902C319.428 41.0102 319.295 40.6208 319.028 40.3222C318.772 40.0235 318.362 39.8742 317.796 39.8742C317.423 39.8742 317.108 39.9542 316.852 40.1142C316.596 40.2635 316.394 40.4662 316.244 40.7222C316.106 40.9782 316.01 41.2608 315.956 41.5702C315.935 41.7088 315.876 41.8048 315.78 41.8582C315.684 41.9115 315.588 41.9382 315.492 41.9382H314.068C313.972 41.9382 313.892 41.9062 313.828 41.8422C313.764 41.7782 313.732 41.7035 313.732 41.6182C313.743 41.1595 313.839 40.7168 314.02 40.2902C314.202 39.8528 314.463 39.4688 314.804 39.1382C315.156 38.7968 315.583 38.5248 316.084 38.3222C316.586 38.1195 317.151 38.0182 317.78 38.0182C318.666 38.0182 319.396 38.1675 319.972 38.4662C320.559 38.7648 320.996 39.1702 321.284 39.6822C321.583 40.1942 321.732 40.7702 321.732 41.4102C321.732 41.9115 321.636 42.3755 321.444 42.8022C321.252 43.2182 320.975 43.6235 320.612 44.0182C320.25 44.4022 319.812 44.7968 319.3 45.2022L317.028 47.5062H321.588C321.706 47.5062 321.796 47.5435 321.86 47.6182C321.935 47.6822 321.972 47.7728 321.972 47.8902V49.0262C321.972 49.1328 321.935 49.2235 321.86 49.2982C321.796 49.3728 321.706 49.4102 321.588 49.4102H313.94ZM327.479 49.5862C326.561 49.5862 325.788 49.4368 325.159 49.1382C324.529 48.8288 324.049 48.4288 323.719 47.9382C323.399 47.4475 323.228 46.9248 323.207 46.3702C323.196 46.2742 323.223 46.1995 323.287 46.1462C323.361 46.0822 323.447 46.0502 323.543 46.0502H325.031C325.148 46.0502 325.244 46.0768 325.319 46.1302C325.404 46.1728 325.468 46.2528 325.511 46.3702C325.617 46.6902 325.767 46.9515 325.959 47.1542C326.161 47.3568 326.391 47.5062 326.647 47.6022C326.913 47.6982 327.191 47.7462 327.479 47.7462C327.863 47.7462 328.209 47.6715 328.519 47.5222C328.839 47.3622 329.095 47.1275 329.287 46.8182C329.479 46.5088 329.575 46.1302 329.575 45.6822C329.575 45.2875 329.484 44.9462 329.303 44.6582C329.121 44.3702 328.871 44.1462 328.551 43.9862C328.241 43.8155 327.884 43.7302 327.479 43.7302C327.18 43.7302 326.935 43.7675 326.743 43.8422C326.551 43.9168 326.385 44.0022 326.247 44.0982C326.119 44.1942 326.001 44.2795 325.895 44.3542C325.799 44.4288 325.687 44.4662 325.559 44.4662H324.087C323.991 44.4662 323.905 44.4342 323.831 44.3702C323.767 44.2955 323.735 44.2102 323.735 44.1142L324.295 38.6422C324.305 38.5035 324.353 38.3968 324.439 38.3222C324.524 38.2475 324.625 38.2102 324.743 38.2102H330.759C330.865 38.2102 330.956 38.2475 331.031 38.3222C331.105 38.3968 331.143 38.4875 331.143 38.5942V39.6662C331.143 39.7728 331.105 39.8635 331.031 39.9382C330.956 40.0128 330.865 40.0502 330.759 40.0502H326.135L325.879 42.6582C326.071 42.5302 326.327 42.4075 326.647 42.2902C326.967 42.1728 327.409 42.1142 327.975 42.1142C328.487 42.1142 328.972 42.1995 329.431 42.3702C329.9 42.5302 330.316 42.7702 330.679 43.0902C331.041 43.3995 331.324 43.7782 331.527 44.2262C331.74 44.6635 331.847 45.1648 331.847 45.7302C331.847 46.5088 331.665 47.1862 331.303 47.7622C330.94 48.3382 330.433 48.7862 329.783 49.1062C329.132 49.4262 328.364 49.5862 327.479 49.5862ZM336.984 51.0102C336.878 51.0102 336.787 50.9728 336.712 50.8982C336.638 50.8235 336.6 50.7328 336.6 50.6262V49.5062C335.811 49.4315 335.144 49.2448 334.6 48.9462C334.056 48.6368 333.646 48.2688 333.368 47.8422C333.091 47.4048 332.942 46.9515 332.92 46.4822C332.92 46.3862 332.952 46.3062 333.016 46.2422C333.091 46.1782 333.176 46.1462 333.272 46.1462H334.696C334.824 46.1462 334.926 46.1782 335 46.2422C335.075 46.2955 335.134 46.3648 335.176 46.4502C335.251 46.6528 335.374 46.8555 335.544 47.0582C335.726 47.2502 335.976 47.4102 336.296 47.5382C336.616 47.6662 337.016 47.7302 337.496 47.7302C338.264 47.7302 338.835 47.6022 339.208 47.3462C339.582 47.0902 339.768 46.7435 339.768 46.3062C339.768 45.9968 339.667 45.7515 339.464 45.5702C339.272 45.3782 338.963 45.2075 338.536 45.0582C338.11 44.8982 337.55 44.7328 336.856 44.5622C336.067 44.3702 335.4 44.1408 334.856 43.8742C334.312 43.5968 333.902 43.2502 333.624 42.8342C333.358 42.4182 333.224 41.8902 333.224 41.2502C333.224 40.4288 333.523 39.7302 334.12 39.1542C334.718 38.5782 335.544 38.2262 336.6 38.0982V36.9942C336.6 36.8875 336.638 36.7968 336.712 36.7222C336.787 36.6475 336.878 36.6102 336.984 36.6102H337.96C338.067 36.6102 338.158 36.6475 338.232 36.7222C338.307 36.7968 338.344 36.8875 338.344 36.9942V38.1302C339.07 38.2368 339.678 38.4502 340.168 38.7702C340.659 39.0902 341.032 39.4582 341.288 39.8742C341.544 40.2795 341.678 40.6742 341.688 41.0582C341.688 41.1435 341.656 41.2235 341.592 41.2982C341.539 41.3622 341.459 41.3942 341.352 41.3942H339.864C339.768 41.3942 339.678 41.3728 339.592 41.3302C339.507 41.2875 339.438 41.2075 339.384 41.0902C339.331 40.7595 339.128 40.4768 338.776 40.2422C338.424 40.0075 337.966 39.8902 337.4 39.8902C336.824 39.8902 336.36 39.9968 336.008 40.2102C335.667 40.4235 335.496 40.7542 335.496 41.2022C335.496 41.5008 335.582 41.7515 335.752 41.9542C335.923 42.1462 336.2 42.3168 336.584 42.4662C336.979 42.6155 337.502 42.7755 338.152 42.9462C339.059 43.1488 339.795 43.3835 340.36 43.6502C340.936 43.9168 341.358 44.2582 341.624 44.6742C341.902 45.0795 342.04 45.5968 342.04 46.2262C342.04 46.8448 341.886 47.3888 341.576 47.8582C341.278 48.3168 340.851 48.6902 340.296 48.9782C339.742 49.2555 339.091 49.4368 338.344 49.5222V50.6262C338.344 50.7328 338.307 50.8235 338.232 50.8982C338.158 50.9728 338.067 51.0102 337.96 51.0102H336.984Z" fill="#50281F"/>
<path opacity="0.72" d="M439.991 49.4102C439.906 49.4102 439.826 49.3782 439.751 49.3142C439.687 49.2502 439.655 49.1702 439.655 49.0742C439.655 49.0315 439.666 48.9835 439.687 48.9302L443.543 38.6102C443.575 38.5035 443.634 38.4128 443.719 38.3382C443.815 38.2528 443.943 38.2102 444.103 38.2102H445.847C446.007 38.2102 446.13 38.2528 446.215 38.3382C446.3 38.4128 446.364 38.5035 446.407 38.6102L450.263 48.9302C450.274 48.9835 450.279 49.0315 450.279 49.0742C450.279 49.1702 450.247 49.2502 450.183 49.3142C450.119 49.3782 450.044 49.4102 449.959 49.4102H448.567C448.418 49.4102 448.306 49.3782 448.231 49.3142C448.167 49.2395 448.124 49.1702 448.103 49.1062L447.351 47.1542H442.599L441.847 49.1062C441.826 49.1702 441.778 49.2395 441.703 49.3142C441.639 49.3782 441.532 49.4102 441.383 49.4102H439.991ZM443.159 45.3142H446.791L444.967 40.3702L443.159 45.3142ZM456.029 49.5702C455.41 49.5702 454.893 49.4635 454.477 49.2502C454.071 49.0368 453.735 48.7648 453.469 48.4342V49.0262C453.469 49.1328 453.431 49.2235 453.357 49.2982C453.293 49.3728 453.202 49.4102 453.085 49.4102H451.821C451.714 49.4102 451.623 49.3728 451.549 49.2982C451.474 49.2235 451.437 49.1328 451.437 49.0262V38.4342C451.437 38.3275 451.474 38.2368 451.549 38.1622C451.623 38.0875 451.714 38.0502 451.821 38.0502H453.181C453.298 38.0502 453.389 38.0875 453.453 38.1622C453.527 38.2368 453.565 38.3275 453.565 38.4342V41.9862C453.831 41.6768 454.162 41.4262 454.557 41.2342C454.962 41.0315 455.453 40.9302 456.029 40.9302C456.594 40.9302 457.085 41.0262 457.501 41.2182C457.917 41.4102 458.263 41.6822 458.541 42.0342C458.829 42.3755 459.047 42.7755 459.197 43.2342C459.346 43.6928 459.426 44.1888 459.437 44.7222C459.447 44.9142 459.453 45.0902 459.453 45.2502C459.453 45.3995 459.447 45.5702 459.437 45.7622C459.415 46.3168 459.33 46.8288 459.181 47.2982C459.031 47.7568 458.818 48.1568 458.541 48.4982C458.263 48.8395 457.917 49.1062 457.501 49.2982C457.085 49.4795 456.594 49.5702 456.029 49.5702ZM455.437 47.8582C455.895 47.8582 456.253 47.7622 456.509 47.5702C456.765 47.3675 456.946 47.1062 457.053 46.7862C457.17 46.4662 457.239 46.1142 457.261 45.7302C457.282 45.4102 457.282 45.0902 457.261 44.7702C457.239 44.3862 457.17 44.0342 457.053 43.7142C456.946 43.3942 456.765 43.1382 456.509 42.9462C456.253 42.7435 455.895 42.6422 455.437 42.6422C455.01 42.6422 454.663 42.7382 454.397 42.9302C454.13 43.1222 453.927 43.3675 453.789 43.6662C453.65 43.9542 453.575 44.2582 453.565 44.5782C453.554 44.7702 453.549 44.9782 453.549 45.2022C453.549 45.4155 453.554 45.6182 453.565 45.8102C453.586 46.1408 453.655 46.4662 453.773 46.7862C453.901 47.0955 454.098 47.3515 454.365 47.5542C454.642 47.7568 454.999 47.8582 455.437 47.8582ZM464.753 49.5702C463.9 49.5702 463.18 49.4208 462.593 49.1222C462.017 48.8235 461.575 48.4022 461.265 47.8582C460.967 47.3142 460.796 46.6795 460.753 45.9542C460.743 45.7622 460.737 45.5275 460.737 45.2502C460.737 44.9728 460.743 44.7382 460.753 44.5462C460.796 43.8102 460.972 43.1755 461.281 42.6422C461.601 42.0982 462.049 41.6768 462.625 41.3782C463.212 41.0795 463.921 40.9302 464.753 40.9302C465.585 40.9302 466.289 41.0795 466.865 41.3782C467.452 41.6768 467.9 42.0982 468.209 42.6422C468.529 43.1755 468.711 43.8102 468.753 44.5462C468.764 44.7382 468.769 44.9728 468.769 45.2502C468.769 45.5275 468.764 45.7622 468.753 45.9542C468.711 46.6795 468.535 47.3142 468.225 47.8582C467.927 48.4022 467.484 48.8235 466.897 49.1222C466.321 49.4208 465.607 49.5702 464.753 49.5702ZM464.753 47.9862C465.319 47.9862 465.756 47.8102 466.065 47.4582C466.375 47.0955 466.545 46.5675 466.577 45.8742C466.588 45.7142 466.593 45.5062 466.593 45.2502C466.593 44.9942 466.588 44.7862 466.577 44.6262C466.545 43.9435 466.375 43.4208 466.065 43.0582C465.756 42.6955 465.319 42.5142 464.753 42.5142C464.188 42.5142 463.751 42.6955 463.441 43.0582C463.132 43.4208 462.961 43.9435 462.929 44.6262C462.919 44.7862 462.913 44.9942 462.913 45.2502C462.913 45.5062 462.919 45.7142 462.929 45.8742C462.961 46.5675 463.132 47.0955 463.441 47.4582C463.751 47.8102 464.188 47.9862 464.753 47.9862ZM473.029 49.4102C472.858 49.4102 472.73 49.3728 472.645 49.2982C472.57 49.2128 472.506 49.1168 472.453 49.0102L469.461 41.5862C469.44 41.5328 469.429 41.4848 469.429 41.4422C469.429 41.3462 469.461 41.2662 469.525 41.2022C469.6 41.1275 469.685 41.0902 469.781 41.0902H471.077C471.205 41.0902 471.301 41.1275 471.365 41.2022C471.429 41.2662 471.472 41.3302 471.493 41.3942L473.621 47.0102L475.749 41.3942C475.77 41.3302 475.813 41.2662 475.877 41.2022C475.941 41.1275 476.037 41.0902 476.165 41.0902H477.477C477.562 41.0902 477.637 41.1275 477.701 41.2022C477.776 41.2662 477.813 41.3462 477.813 41.4422C477.813 41.4848 477.808 41.5328 477.797 41.5862L474.789 49.0102C474.746 49.1168 474.682 49.2128 474.597 49.2982C474.512 49.3728 474.384 49.4102 474.213 49.4102H473.029ZM482.4 49.5702C481.216 49.5702 480.277 49.2288 479.584 48.5462C478.89 47.8635 478.517 46.8928 478.464 45.6342C478.453 45.5275 478.448 45.3942 478.448 45.2342C478.448 45.0635 478.453 44.9302 478.464 44.8342C478.506 44.0342 478.688 43.3408 479.008 42.7542C479.338 42.1675 479.792 41.7195 480.368 41.4102C480.944 41.0902 481.621 40.9302 482.4 40.9302C483.264 40.9302 483.989 41.1115 484.576 41.4742C485.162 41.8262 485.605 42.3222 485.904 42.9622C486.202 43.5915 486.352 44.3222 486.352 45.1542V45.4902C486.352 45.5968 486.314 45.6875 486.24 45.7622C486.165 45.8368 486.069 45.8742 485.952 45.8742H480.64C480.64 45.8742 480.64 45.8902 480.64 45.9222C480.64 45.9542 480.64 45.9808 480.64 46.0022C480.65 46.3755 480.72 46.7222 480.848 47.0422C480.986 47.3515 481.184 47.6022 481.44 47.7942C481.706 47.9862 482.021 48.0822 482.384 48.0822C482.682 48.0822 482.933 48.0395 483.136 47.9542C483.338 47.8582 483.504 47.7515 483.632 47.6342C483.76 47.5168 483.85 47.4208 483.904 47.3462C484 47.2182 484.074 47.1435 484.128 47.1222C484.192 47.0902 484.282 47.0742 484.4 47.0742H485.776C485.882 47.0742 485.968 47.1062 486.032 47.1702C486.106 47.2342 486.138 47.3142 486.128 47.4102C486.117 47.5808 486.026 47.7888 485.856 48.0342C485.696 48.2795 485.461 48.5195 485.152 48.7542C484.842 48.9888 484.453 49.1862 483.984 49.3462C483.525 49.4955 482.997 49.5702 482.4 49.5702ZM480.64 44.5302H484.176V44.4822C484.176 44.0662 484.106 43.7035 483.968 43.3942C483.829 43.0848 483.626 42.8395 483.36 42.6582C483.093 42.4768 482.773 42.3862 482.4 42.3862C482.026 42.3862 481.706 42.4768 481.44 42.6582C481.173 42.8395 480.97 43.0848 480.832 43.3942C480.704 43.7035 480.64 44.0662 480.64 44.4822V44.5302ZM494.762 49.4102C494.645 49.4102 494.549 49.3728 494.474 49.2982C494.41 49.2235 494.378 49.1328 494.378 49.0262V40.7382L491.946 42.6102C491.85 42.6742 491.754 42.7008 491.658 42.6902C491.562 42.6688 491.477 42.6102 491.402 42.5142L490.73 41.6502C490.666 41.5542 490.64 41.4528 490.65 41.3462C490.672 41.2395 490.73 41.1542 490.826 41.0902L494.41 38.3222C494.474 38.2688 494.538 38.2368 494.602 38.2262C494.666 38.2155 494.736 38.2102 494.81 38.2102H496.218C496.325 38.2102 496.416 38.2475 496.49 38.3222C496.565 38.3968 496.602 38.4875 496.602 38.5942V49.0262C496.602 49.1328 496.565 49.2235 496.49 49.2982C496.416 49.3728 496.325 49.4102 496.218 49.4102H494.762ZM502.825 49.5702C502.067 49.5702 501.422 49.4582 500.889 49.2342C500.355 49.0102 499.918 48.7008 499.577 48.3062C499.235 47.9115 498.979 47.4582 498.809 46.9462C498.638 46.4235 498.537 45.8688 498.505 45.2822C498.494 44.9942 498.483 44.6795 498.473 44.3382C498.473 43.9862 498.473 43.6342 498.473 43.2822C498.483 42.9302 498.494 42.6048 498.505 42.3062C498.526 41.7195 498.627 41.1702 498.809 40.6582C498.99 40.1355 499.251 39.6822 499.593 39.2982C499.945 38.9142 500.387 38.6102 500.921 38.3862C501.454 38.1622 502.089 38.0502 502.825 38.0502C503.571 38.0502 504.211 38.1622 504.745 38.3862C505.278 38.6102 505.715 38.9142 506.057 39.2982C506.409 39.6822 506.67 40.1355 506.841 40.6582C507.022 41.1702 507.123 41.7195 507.145 42.3062C507.166 42.6048 507.177 42.9302 507.177 43.2822C507.177 43.6342 507.177 43.9862 507.177 44.3382C507.177 44.6795 507.166 44.9942 507.145 45.2822C507.123 45.8688 507.027 46.4235 506.857 46.9462C506.686 47.4582 506.43 47.9115 506.089 48.3062C505.747 48.7008 505.305 49.0102 504.761 49.2342C504.227 49.4582 503.582 49.5702 502.825 49.5702ZM502.825 47.7302C503.518 47.7302 504.025 47.5062 504.345 47.0582C504.675 46.5995 504.846 45.9808 504.857 45.2022C504.878 44.8928 504.889 44.5835 504.889 44.2742C504.889 43.9542 504.889 43.6342 504.889 43.3142C504.889 42.9942 504.878 42.6902 504.857 42.4022C504.846 41.6448 504.675 41.0368 504.345 40.5782C504.025 40.1088 503.518 39.8742 502.825 39.8742C502.142 39.8742 501.635 40.1088 501.305 40.5782C500.985 41.0368 500.814 41.6448 500.793 42.4022C500.793 42.6902 500.787 42.9942 500.777 43.3142C500.777 43.6342 500.777 43.9542 500.777 44.2742C500.787 44.5835 500.793 44.8928 500.793 45.2022C500.814 45.9808 500.99 46.5995 501.321 47.0582C501.651 47.5062 502.153 47.7302 502.825 47.7302ZM513.18 49.5702C512.423 49.5702 511.778 49.4582 511.244 49.2342C510.711 49.0102 510.274 48.7008 509.932 48.3062C509.591 47.9115 509.335 47.4582 509.164 46.9462C508.994 46.4235 508.892 45.8688 508.86 45.2822C508.85 44.9942 508.839 44.6795 508.828 44.3382C508.828 43.9862 508.828 43.6342 508.828 43.2822C508.839 42.9302 508.85 42.6048 508.86 42.3062C508.882 41.7195 508.983 41.1702 509.164 40.6582C509.346 40.1355 509.607 39.6822 509.948 39.2982C510.3 38.9142 510.743 38.6102 511.276 38.3862C511.81 38.1622 512.444 38.0502 513.18 38.0502C513.927 38.0502 514.567 38.1622 515.1 38.3862C515.634 38.6102 516.071 38.9142 516.412 39.2982C516.764 39.6822 517.026 40.1355 517.196 40.6582C517.378 41.1702 517.479 41.7195 517.5 42.3062C517.522 42.6048 517.532 42.9302 517.532 43.2822C517.532 43.6342 517.532 43.9862 517.532 44.3382C517.532 44.6795 517.522 44.9942 517.5 45.2822C517.479 45.8688 517.383 46.4235 517.212 46.9462C517.042 47.4582 516.786 47.9115 516.444 48.3062C516.103 48.7008 515.66 49.0102 515.116 49.2342C514.583 49.4582 513.938 49.5702 513.18 49.5702ZM513.18 47.7302C513.874 47.7302 514.38 47.5062 514.7 47.0582C515.031 46.5995 515.202 45.9808 515.212 45.2022C515.234 44.8928 515.244 44.5835 515.244 44.2742C515.244 43.9542 515.244 43.6342 515.244 43.3142C515.244 42.9942 515.234 42.6902 515.212 42.4022C515.202 41.6448 515.031 41.0368 514.7 40.5782C514.38 40.1088 513.874 39.8742 513.18 39.8742C512.498 39.8742 511.991 40.1088 511.66 40.5782C511.34 41.0368 511.17 41.6448 511.148 42.4022C511.148 42.6902 511.143 42.9942 511.132 43.3142C511.132 43.6342 511.132 43.9542 511.132 44.2742C511.143 44.5835 511.148 44.8928 511.148 45.2022C511.17 45.9808 511.346 46.5995 511.676 47.0582C512.007 47.5062 512.508 47.7302 513.18 47.7302ZM522.928 51.0102C522.821 51.0102 522.73 50.9728 522.656 50.8982C522.581 50.8235 522.544 50.7328 522.544 50.6262V49.5062C521.754 49.4315 521.088 49.2448 520.544 48.9462C520 48.6368 519.589 48.2688 519.312 47.8422C519.034 47.4048 518.885 46.9515 518.864 46.4822C518.864 46.3862 518.896 46.3062 518.96 46.2422C519.034 46.1782 519.12 46.1462 519.216 46.1462H520.64C520.768 46.1462 520.869 46.1782 520.944 46.2422C521.018 46.2955 521.077 46.3648 521.12 46.4502C521.194 46.6528 521.317 46.8555 521.488 47.0582C521.669 47.2502 521.92 47.4102 522.24 47.5382C522.56 47.6662 522.96 47.7302 523.44 47.7302C524.208 47.7302 524.778 47.6022 525.152 47.3462C525.525 47.0902 525.712 46.7435 525.712 46.3062C525.712 45.9968 525.61 45.7515 525.408 45.5702C525.216 45.3782 524.906 45.2075 524.48 45.0582C524.053 44.8982 523.493 44.7328 522.8 44.5622C522.01 44.3702 521.344 44.1408 520.8 43.8742C520.256 43.5968 519.845 43.2502 519.568 42.8342C519.301 42.4182 519.168 41.8902 519.168 41.2502C519.168 40.4288 519.466 39.7302 520.064 39.1542C520.661 38.5782 521.488 38.2262 522.544 38.0982V36.9942C522.544 36.8875 522.581 36.7968 522.656 36.7222C522.73 36.6475 522.821 36.6102 522.928 36.6102H523.904C524.01 36.6102 524.101 36.6475 524.176 36.7222C524.25 36.7968 524.288 36.8875 524.288 36.9942V38.1302C525.013 38.2368 525.621 38.4502 526.112 38.7702C526.602 39.0902 526.976 39.4582 527.232 39.8742C527.488 40.2795 527.621 40.6742 527.632 41.0582C527.632 41.1435 527.6 41.2235 527.536 41.2982C527.482 41.3622 527.402 41.3942 527.296 41.3942H525.808C525.712 41.3942 525.621 41.3728 525.536 41.3302C525.45 41.2875 525.381 41.2075 525.328 41.0902C525.274 40.7595 525.072 40.4768 524.72 40.2422C524.368 40.0075 523.909 39.8902 523.344 39.8902C522.768 39.8902 522.304 39.9968 521.952 40.2102C521.61 40.4235 521.44 40.7542 521.44 41.2022C521.44 41.5008 521.525 41.7515 521.696 41.9542C521.866 42.1462 522.144 42.3168 522.528 42.4662C522.922 42.6155 523.445 42.7755 524.096 42.9462C525.002 43.1488 525.738 43.3835 526.304 43.6502C526.88 43.9168 527.301 44.2582 527.568 44.6742C527.845 45.0795 527.984 45.5968 527.984 46.2262C527.984 46.8448 527.829 47.3888 527.52 47.8582C527.221 48.3168 526.794 48.6902 526.24 48.9782C525.685 49.2555 525.034 49.4368 524.288 49.5222V50.6262C524.288 50.7328 524.25 50.8235 524.176 50.8982C524.101 50.9728 524.01 51.0102 523.904 51.0102H522.928Z" fill="#50281F"/>
<path opacity="0.72" d="M647.77 49.4102C647.664 49.4102 647.573 49.3728 647.498 49.2982C647.424 49.2235 647.386 49.1328 647.386 49.0262V38.6102C647.386 38.4928 647.424 38.3968 647.498 38.3222C647.573 38.2475 647.664 38.2102 647.77 38.2102H654.714C654.832 38.2102 654.928 38.2475 655.002 38.3222C655.077 38.3968 655.114 38.4928 655.114 38.6102V39.7302C655.114 39.8475 655.077 39.9435 655.002 40.0182C654.928 40.0822 654.832 40.1142 654.714 40.1142H649.578V43.1542H654.394C654.512 43.1542 654.608 43.1915 654.682 43.2662C654.757 43.3408 654.794 43.4368 654.794 43.5542V44.6742C654.794 44.7808 654.757 44.8715 654.682 44.9462C654.608 45.0208 654.512 45.0582 654.394 45.0582H649.578V49.0262C649.578 49.1328 649.541 49.2235 649.466 49.2982C649.392 49.3728 649.296 49.4102 649.178 49.4102H647.77ZM660.168 49.5702C659.314 49.5702 658.594 49.4208 658.008 49.1222C657.432 48.8235 656.989 48.4022 656.68 47.8582C656.381 47.3142 656.21 46.6795 656.168 45.9542C656.157 45.7622 656.152 45.5275 656.152 45.2502C656.152 44.9728 656.157 44.7382 656.168 44.5462C656.21 43.8102 656.386 43.1755 656.696 42.6422C657.016 42.0982 657.464 41.6768 658.04 41.3782C658.626 41.0795 659.336 40.9302 660.168 40.9302C661 40.9302 661.704 41.0795 662.28 41.3782C662.866 41.6768 663.314 42.0982 663.624 42.6422C663.944 43.1755 664.125 43.8102 664.168 44.5462C664.178 44.7382 664.184 44.9728 664.184 45.2502C664.184 45.5275 664.178 45.7622 664.168 45.9542C664.125 46.6795 663.949 47.3142 663.64 47.8582C663.341 48.4022 662.898 48.8235 662.312 49.1222C661.736 49.4208 661.021 49.5702 660.168 49.5702ZM660.168 47.9862C660.733 47.9862 661.17 47.8102 661.48 47.4582C661.789 47.0955 661.96 46.5675 661.992 45.8742C662.002 45.7142 662.008 45.5062 662.008 45.2502C662.008 44.9942 662.002 44.7862 661.992 44.6262C661.96 43.9435 661.789 43.4208 661.48 43.0582C661.17 42.6955 660.733 42.5142 660.168 42.5142C659.602 42.5142 659.165 42.6955 658.856 43.0582C658.546 43.4208 658.376 43.9435 658.344 44.6262C658.333 44.7862 658.328 44.9942 658.328 45.2502C658.328 45.5062 658.333 45.7142 658.344 45.8742C658.376 46.5675 658.546 47.0955 658.856 47.4582C659.165 47.8102 659.602 47.9862 660.168 47.9862ZM669.476 49.5702C668.623 49.5702 667.903 49.4208 667.316 49.1222C666.74 48.8235 666.298 48.4022 665.988 47.8582C665.69 47.3142 665.519 46.6795 665.476 45.9542C665.466 45.7622 665.46 45.5275 665.46 45.2502C665.46 44.9728 665.466 44.7382 665.476 44.5462C665.519 43.8102 665.695 43.1755 666.004 42.6422C666.324 42.0982 666.772 41.6768 667.348 41.3782C667.935 41.0795 668.644 40.9302 669.476 40.9302C670.308 40.9302 671.012 41.0795 671.588 41.3782C672.175 41.6768 672.623 42.0982 672.932 42.6422C673.252 43.1755 673.434 43.8102 673.476 44.5462C673.487 44.7382 673.492 44.9728 673.492 45.2502C673.492 45.5275 673.487 45.7622 673.476 45.9542C673.434 46.6795 673.258 47.3142 672.948 47.8582C672.65 48.4022 672.207 48.8235 671.62 49.1222C671.044 49.4208 670.33 49.5702 669.476 49.5702ZM669.476 47.9862C670.042 47.9862 670.479 47.8102 670.788 47.4582C671.098 47.0955 671.268 46.5675 671.3 45.8742C671.311 45.7142 671.316 45.5062 671.316 45.2502C671.316 44.9942 671.311 44.7862 671.3 44.6262C671.268 43.9435 671.098 43.4208 670.788 43.0582C670.479 42.6955 670.042 42.5142 669.476 42.5142C668.911 42.5142 668.474 42.6955 668.164 43.0582C667.855 43.4208 667.684 43.9435 667.652 44.6262C667.642 44.7862 667.636 44.9942 667.636 45.2502C667.636 45.5062 667.642 45.7142 667.652 45.8742C667.684 46.5675 667.855 47.0955 668.164 47.4582C668.474 47.8102 668.911 47.9862 669.476 47.9862ZM678.193 49.5702C677.638 49.5702 677.148 49.4795 676.721 49.2982C676.305 49.1062 675.958 48.8395 675.681 48.4982C675.404 48.1568 675.19 47.7568 675.041 47.2982C674.892 46.8288 674.806 46.3168 674.785 45.7622C674.774 45.5702 674.769 45.3995 674.769 45.2502C674.769 45.0902 674.774 44.9142 674.785 44.7222C674.806 44.1888 674.886 43.6928 675.025 43.2342C675.174 42.7755 675.388 42.3755 675.665 42.0342C675.953 41.6822 676.305 41.4102 676.721 41.2182C677.148 41.0262 677.638 40.9302 678.193 40.9302C678.769 40.9302 679.254 41.0315 679.649 41.2342C680.054 41.4262 680.39 41.6768 680.657 41.9862V38.4342C680.657 38.3275 680.689 38.2368 680.753 38.1622C680.828 38.0875 680.924 38.0502 681.041 38.0502H682.401C682.508 38.0502 682.598 38.0875 682.673 38.1622C682.748 38.2368 682.785 38.3275 682.785 38.4342V49.0262C682.785 49.1328 682.748 49.2235 682.673 49.2982C682.598 49.3728 682.508 49.4102 682.401 49.4102H681.137C681.02 49.4102 680.924 49.3728 680.849 49.2982C680.785 49.2235 680.753 49.1328 680.753 49.0262V48.4342C680.486 48.7648 680.145 49.0368 679.729 49.2502C679.324 49.4635 678.812 49.5702 678.193 49.5702ZM678.785 47.8582C679.233 47.8582 679.59 47.7568 679.857 47.5542C680.124 47.3515 680.321 47.0955 680.449 46.7862C680.577 46.4662 680.646 46.1408 680.657 45.8102C680.668 45.6182 680.673 45.4155 680.673 45.2022C680.673 44.9782 680.668 44.7702 680.657 44.5782C680.646 44.2582 680.572 43.9542 680.433 43.6662C680.294 43.3675 680.092 43.1222 679.825 42.9302C679.558 42.7382 679.212 42.6422 678.785 42.6422C678.337 42.6422 677.98 42.7435 677.713 42.9462C677.457 43.1382 677.27 43.3942 677.153 43.7142C677.036 44.0342 676.966 44.3862 676.945 44.7702C676.934 45.0902 676.934 45.4102 676.945 45.7302C676.966 46.1142 677.036 46.4662 677.153 46.7862C677.27 47.1062 677.457 47.3675 677.713 47.5702C677.98 47.7622 678.337 47.8582 678.785 47.8582Z" fill="#50281F"/>
<path opacity="0.72" d="M823.727 49.4102C823.621 49.4102 823.53 49.3728 823.455 49.2982C823.381 49.2235 823.343 49.1328 823.343 49.0262V38.6102C823.343 38.4928 823.381 38.3968 823.455 38.3222C823.53 38.2475 823.621 38.2102 823.727 38.2102H827.631C828.709 38.2102 829.594 38.3755 830.287 38.7062C830.991 39.0368 831.519 39.5275 831.871 40.1782C832.234 40.8288 832.421 41.6235 832.431 42.5622C832.453 43.0315 832.463 43.4475 832.463 43.8102C832.463 44.1728 832.453 44.5835 832.431 45.0422C832.41 46.0342 832.229 46.8555 831.887 47.5062C831.546 48.1462 831.029 48.6262 830.335 48.9462C829.653 49.2555 828.778 49.4102 827.711 49.4102H823.727ZM825.567 47.5702H827.631C828.229 47.5702 828.714 47.4848 829.087 47.3142C829.461 47.1435 829.733 46.8715 829.903 46.4982C830.085 46.1142 830.181 45.6128 830.191 44.9942C830.202 44.6742 830.207 44.3968 830.207 44.1622C830.218 43.9168 830.218 43.6768 830.207 43.4422C830.207 43.1968 830.202 42.9195 830.191 42.6102C830.17 41.7355 829.951 41.0902 829.535 40.6742C829.119 40.2582 828.458 40.0502 827.551 40.0502H825.567V47.5702ZM834.625 49.4102C834.519 49.4102 834.428 49.3728 834.353 49.2982C834.279 49.2235 834.241 49.1328 834.241 49.0262V41.4902C834.241 41.3728 834.279 41.2768 834.353 41.2022C834.428 41.1275 834.519 41.0902 834.625 41.0902H835.921C836.028 41.0902 836.119 41.1275 836.193 41.2022C836.279 41.2768 836.321 41.3728 836.321 41.4902V42.1462C836.567 41.8048 836.881 41.5435 837.265 41.3622C837.66 41.1808 838.113 41.0902 838.625 41.0902H839.281C839.399 41.0902 839.489 41.1275 839.553 41.2022C839.628 41.2768 839.665 41.3675 839.665 41.4742V42.6262C839.665 42.7328 839.628 42.8235 839.553 42.8982C839.489 42.9728 839.399 43.0102 839.281 43.0102H838.033C837.521 43.0102 837.121 43.1542 836.833 43.4422C836.556 43.7302 836.417 44.1248 836.417 44.6262V49.0262C836.417 49.1328 836.38 49.2235 836.305 49.2982C836.231 49.3728 836.135 49.4102 836.017 49.4102H834.625ZM841.137 49.4102C841.031 49.4102 840.94 49.3728 840.865 49.2982C840.791 49.2235 840.753 49.1328 840.753 49.0262V41.4742C840.753 41.3675 840.791 41.2768 840.865 41.2022C840.94 41.1275 841.031 41.0902 841.137 41.0902H842.465C842.583 41.0902 842.673 41.1275 842.737 41.2022C842.812 41.2768 842.849 41.3675 842.849 41.4742V49.0262C842.849 49.1328 842.812 49.2235 842.737 49.2982C842.673 49.3728 842.583 49.4102 842.465 49.4102H841.137ZM841.073 39.7142C840.956 39.7142 840.86 39.6822 840.785 39.6182C840.721 39.5435 840.689 39.4475 840.689 39.3302V38.1782C840.689 38.0715 840.721 37.9808 840.785 37.9062C840.86 37.8315 840.956 37.7942 841.073 37.7942H842.529C842.647 37.7942 842.743 37.8315 842.817 37.9062C842.892 37.9808 842.929 38.0715 842.929 38.1782V39.3302C842.929 39.4475 842.892 39.5435 842.817 39.6182C842.743 39.6822 842.647 39.7142 842.529 39.7142H841.073ZM845.524 49.4102C845.417 49.4102 845.327 49.3728 845.252 49.2982C845.177 49.2235 845.14 49.1328 845.14 49.0262V41.4742C845.14 41.3675 845.177 41.2768 845.252 41.2022C845.327 41.1275 845.417 41.0902 845.524 41.0902H846.836C846.943 41.0902 847.033 41.1275 847.108 41.2022C847.183 41.2768 847.22 41.3675 847.22 41.4742V42.1302C847.497 41.7888 847.849 41.5062 848.276 41.2822C848.713 41.0475 849.252 40.9302 849.892 40.9302C850.543 40.9302 851.108 41.0795 851.588 41.3782C852.068 41.6662 852.436 42.0768 852.692 42.6102C852.959 43.1435 853.092 43.7835 853.092 44.5302V49.0262C853.092 49.1328 853.055 49.2235 852.98 49.2982C852.905 49.3728 852.815 49.4102 852.708 49.4102H851.3C851.193 49.4102 851.103 49.3728 851.028 49.2982C850.953 49.2235 850.916 49.1328 850.916 49.0262V44.6262C850.916 44.0075 850.761 43.5222 850.452 43.1702C850.153 42.8182 849.716 42.6422 849.14 42.6422C848.585 42.6422 848.143 42.8182 847.812 43.1702C847.481 43.5222 847.316 44.0075 847.316 44.6262V49.0262C847.316 49.1328 847.279 49.2235 847.204 49.2982C847.129 49.3728 847.039 49.4102 846.932 49.4102H845.524ZM855.364 49.4102C855.258 49.4102 855.167 49.3728 855.092 49.2982C855.018 49.2235 854.98 49.1328 854.98 49.0262V38.4342C854.98 38.3275 855.018 38.2368 855.092 38.1622C855.167 38.0875 855.258 38.0502 855.364 38.0502H856.66C856.778 38.0502 856.868 38.0875 856.932 38.1622C857.007 38.2368 857.044 38.3275 857.044 38.4342V43.9062L859.732 41.3622C859.828 41.2768 859.914 41.2128 859.988 41.1702C860.063 41.1168 860.175 41.0902 860.324 41.0902H861.812C861.919 41.0902 862.004 41.1222 862.068 41.1862C862.132 41.2502 862.164 41.3355 862.164 41.4422C862.164 41.4848 862.154 41.5328 862.132 41.5862C862.111 41.6395 862.068 41.6875 862.004 41.7302L858.708 44.8182L862.404 48.7862C862.511 48.8928 862.564 48.9835 862.564 49.0582C862.564 49.1648 862.527 49.2502 862.452 49.3142C862.388 49.3782 862.308 49.4102 862.212 49.4102H860.692C860.532 49.4102 860.415 49.3888 860.34 49.3462C860.276 49.2928 860.196 49.2235 860.1 49.1382L857.044 45.9222V49.0262C857.044 49.1328 857.007 49.2235 856.932 49.2982C856.868 49.3728 856.778 49.4102 856.66 49.4102H855.364ZM866.597 49.5702C865.957 49.5702 865.408 49.4955 864.949 49.3462C864.501 49.1968 864.133 49.0102 863.845 48.7862C863.557 48.5622 863.344 48.3382 863.205 48.1142C863.066 47.8902 862.992 47.7035 862.981 47.5542C862.97 47.4368 863.002 47.3462 863.077 47.2822C863.162 47.2075 863.253 47.1702 863.349 47.1702H864.613C864.656 47.1702 864.693 47.1755 864.725 47.1862C864.757 47.1968 864.8 47.2288 864.853 47.2822C864.992 47.3995 865.136 47.5222 865.285 47.6502C865.445 47.7782 865.632 47.8902 865.845 47.9862C866.058 48.0715 866.325 48.1142 866.645 48.1142C867.061 48.1142 867.408 48.0342 867.685 47.8742C867.973 47.7035 868.117 47.4635 868.117 47.1542C868.117 46.9302 868.053 46.7488 867.925 46.6102C867.808 46.4715 867.584 46.3488 867.253 46.2422C866.922 46.1248 866.453 46.0022 865.845 45.8742C865.248 45.7355 864.752 45.5595 864.357 45.3462C863.962 45.1328 863.669 44.8662 863.477 44.5462C863.285 44.2262 863.189 43.8528 863.189 43.4262C863.189 43.0102 863.312 42.6155 863.557 42.2422C863.813 41.8582 864.186 41.5435 864.677 41.2982C865.178 41.0528 865.797 40.9302 866.533 40.9302C867.109 40.9302 867.61 41.0048 868.037 41.1542C868.464 41.2928 868.816 41.4688 869.093 41.6822C869.381 41.8955 869.6 42.1142 869.749 42.3382C869.898 42.5515 869.978 42.7382 869.989 42.8982C870 43.0155 869.968 43.1115 869.893 43.1862C869.818 43.2502 869.733 43.2822 869.637 43.2822H868.453C868.4 43.2822 868.352 43.2715 868.309 43.2502C868.266 43.2288 868.224 43.2022 868.181 43.1702C868.064 43.0635 867.936 42.9515 867.797 42.8342C867.658 42.7168 867.488 42.6155 867.285 42.5302C867.093 42.4342 866.837 42.3862 866.517 42.3862C866.112 42.3862 865.802 42.4768 865.589 42.6582C865.376 42.8288 865.269 43.0475 865.269 43.3142C865.269 43.4955 865.317 43.6555 865.413 43.7942C865.52 43.9222 865.728 44.0448 866.037 44.1622C866.346 44.2795 866.816 44.4022 867.445 44.5302C868.16 44.6582 868.725 44.8502 869.141 45.1062C869.568 45.3515 869.866 45.6395 870.037 45.9702C870.218 46.2902 870.309 46.6475 870.309 47.0422C870.309 47.5222 870.165 47.9542 869.877 48.3382C869.6 48.7222 869.184 49.0262 868.629 49.2502C868.085 49.4635 867.408 49.5702 866.597 49.5702Z" fill="#50281F"/>
</g>
<defs>
<filter id="filter0_d_2449_93923" x="0" y="0.410156" width="969" height="111" filterUnits="userSpaceOnUse" color-interpolation-filters="sRGB">
<feFlood flood-opacity="0" result="BackgroundImageFix"/>
<feColorMatrix in="SourceAlpha" type="matrix" values="0 0 0 0 0 0 0 0 0 0 0 0 0 0 0 0 0 0 127 0" result="hardAlpha"/>
<feOffset dy="12"/>
<feGaussianBlur stdDeviation="12"/>
<feComposite in2="hardAlpha" operator="out"/>
<feColorMatrix type="matrix" values="0 0 0 0 0.984314 0 0 0 0 0.658824 0 0 0 0 0.231373 0 0 0 0.12 0"/>
<feBlend mode="normal" in2="BackgroundImageFix" result="effect1_dropShadow_2449_93923"/>
<feBlend mode="normal" in="SourceGraphic" in2="effect1_dropShadow_2449_93923" result="shape"/>
</filter>
</defs>
</svg>
