<svg width="232" height="78" viewBox="0 0 232 78" fill="none" xmlns="http://www.w3.org/2000/svg">
<path d="M9.83008 14.6054L9.90085 14.4523L19.9512 10.9084C20.7769 10.614 21.6026 10.3079 22.4402 10.0371C23.8085 9.58969 25.0706 9.80161 26.1796 10.7318C28.7865 12.9335 31.3935 15.1352 33.9887 17.3487L34.944 18.1611C36.3597 19.362 38.1644 19.362 39.5799 18.1611C42.2342 15.9123 44.8883 13.6517 47.5424 11.4029C48.8635 10.2844 50.3618 10.0135 51.9777 10.5669C54.6792 11.4971 57.3567 12.4508 60.0464 13.4044C61.9691 14.0873 62.4055 16.4774 60.8484 17.7961C56.1535 21.7875 51.4468 25.7435 46.7875 29.7585C44.499 31.7363 42.2931 33.797 40.0637 35.8337C38.5183 37.2348 36.5719 37.2702 34.9794 35.9044C31.5822 33.0079 28.185 30.1234 24.7758 27.2389C24.6933 27.1682 24.5988 27.1092 24.5045 27.0385C23.9619 26.815 23.5962 26.3558 23.1597 25.9909C21.1426 24.3071 19.149 22.5881 17.1437 20.8926C15.3861 19.3974 13.6284 17.9021 11.8708 16.4068C11.2928 15.9123 10.7266 15.4178 10.1486 14.9351C10.0188 14.8526 9.91265 14.7349 9.83008 14.6054Z" fill="white"/>
<path d="M9.83008 14.6052C10.3845 14.9349 10.821 15.4058 11.3164 15.818C12.3898 16.701 13.4397 17.6076 14.5014 18.5024C15.3271 19.2088 16.1528 19.9153 16.9785 20.6217C18.0284 21.5165 19.0783 22.3996 20.1399 23.2944C20.9656 24.0008 21.7914 24.7072 22.6171 25.4136C23.2541 25.9552 23.8793 26.5087 24.5162 27.0503V45.3353C24.4337 45.4883 24.2804 45.5234 24.1388 45.5707C21.4375 46.5126 18.748 47.4544 16.0584 48.4082C14.1711 49.0676 12.2837 49.7503 10.3963 50.3979C10.2194 50.4567 10.0424 50.5864 9.84187 50.4567C9.84187 50.2566 9.84187 50.0681 9.84187 49.868C9.84187 38.2943 9.84187 26.7205 9.84187 15.1586C9.83008 14.9702 9.83008 14.7818 9.83008 14.6052Z" fill="white"/>
<path d="M9.83008 50.445L15.6692 48.4083L21.119 46.5009L24.5162 45.3234C26.6277 47.113 28.7394 48.9028 30.8508 50.6924C34.8852 54.1186 38.9076 57.533 42.9419 60.9592C43.6851 61.5832 44.0389 62.3369 43.8621 63.2904C43.6851 64.2442 43.0716 64.7739 42.1751 65.08C39.4385 66.0219 36.7136 66.9874 33.9887 67.9529C33.6583 68.0825 33.3161 68.1649 32.9742 68.1883H31.771C30.8625 68.0825 30.0015 67.7057 29.3174 67.1051C24.245 62.7959 19.1726 58.4866 14.1003 54.1773C12.673 52.9647 11.2456 51.752 9.83008 50.5274C9.83008 50.504 9.83008 50.4804 9.83008 50.445Z" fill="white"/>
<path d="M54.4194 45.1352V45.0879C54.4194 40.4021 57.9583 36.5637 63.0308 36.5637C66.145 36.5637 68.0088 37.5999 69.5422 39.1068L67.2302 41.7678C65.9562 40.6139 64.6587 39.9075 63.0071 39.9075C60.2233 39.9075 58.2179 42.2151 58.2179 45.0409V45.0879C58.2179 47.9137 60.176 50.2686 63.0071 50.2686C64.8946 50.2686 66.0504 49.5149 67.3482 48.3376L69.6601 50.6688C67.9614 52.4821 66.0741 53.6123 62.8891 53.6123C58.0291 53.6006 54.4194 49.8564 54.4194 45.1352Z" fill="white"/>
<path d="M72.5503 36.8462H80.0998C82.1995 36.8462 83.8275 37.4348 84.9127 38.5181C85.8329 39.4365 86.3282 40.7316 86.3282 42.2857V42.3328C86.3282 44.9938 84.889 46.6657 82.7896 47.4427L86.8237 53.3295H82.5771L79.0382 48.055H76.1837V53.3295H72.5503V36.8462ZM79.8639 44.8524C81.6335 44.8524 82.6479 43.9106 82.6479 42.5212V42.4741C82.6479 40.92 81.5626 40.1193 79.7931 40.1193H76.1837V44.8524H79.8639Z" fill="white"/>
<path d="M89.6074 36.8462H102.064V40.0722H93.2171V43.416H101.003V46.642H93.2171V50.1035H102.182V53.3295H89.6074V36.8462Z" fill="white"/>
<path d="M105.415 36.8462H111.855C117.046 36.8462 120.632 40.402 120.632 45.0408V45.0879C120.632 49.7269 117.046 53.3295 111.855 53.3295H105.415V36.8462ZM111.855 50.0448C114.828 50.0448 116.833 48.0431 116.833 45.1232V45.0762C116.833 42.1563 114.828 40.1076 111.855 40.1076H109.048V50.0448H111.855Z" fill="white"/>
<path d="M124.029 36.8462H127.662V53.3295H124.029V36.8462Z" fill="white"/>
<path d="M135.624 40.19H130.599V36.8462H144.283V40.19H139.269V53.3295H135.636L135.624 40.19Z" fill="white"/>
<path d="M145.651 36.8462H149.662L153.979 48.4553L158.296 36.8462H162.213L155.536 53.4475H152.328L145.651 36.8462Z" fill="white"/>
<path d="M164.926 36.8462H168.56V53.3295H164.926V36.8462Z" fill="white"/>
<path d="M172.688 36.8462H179.129C184.319 36.8462 187.905 40.402 187.905 45.0408V45.0879C187.905 49.7269 184.319 53.3295 179.129 53.3295H172.688V36.8462ZM179.129 50.0448C182.101 50.0448 184.107 48.0431 184.107 45.1232V45.0762C184.107 42.1563 182.101 40.1076 179.129 40.1076H176.321V50.0448H179.129Z" fill="white"/>
<path d="M194.239 46.8304L187.893 36.8462H192.14L196.079 43.463L200.09 36.8462H204.219L197.872 46.7597V53.3295H194.239V46.8304Z" fill="white"/>
<path d="M209.551 36.7285H212.901L219.979 53.3298H216.18L214.67 49.6326H207.687L206.177 53.3298H202.473L209.551 36.7285ZM213.373 46.4303L211.179 41.0848L208.985 46.4303H213.373Z" fill="white"/>
</svg>
