<svg width="102" height="551" viewBox="0 0 102 551" fill="none" xmlns="http://www.w3.org/2000/svg">
<path d="M-195.127 0.887329L-308.467 125.687L101.281 130.447L-50.5266 2.36283L-195.127 0.887329Z" fill="#FF3500"/>
<path d="M-44.5132 228.736L-197.01 296.372L-46.533 425.503L88.244 358.391L-44.5132 228.736Z" fill="#BC1F00"/>
<path d="M-46.7625 128.64L-198.02 295.182L-5.63181 295.848L100.73 178.712L100.868 130.258L-46.7625 128.64Z" fill="#FF3500"/>
<path d="M-294.373 426.121L-406.749 549.207L-82.017 550.111L29.9453 423.122L-294.373 426.121Z" fill="#FF3500"/>
<mask id="mask0_499_48678" style="mask-type:luminance" maskUnits="userSpaceOnUse" x="-198" y="128" width="300" height="168">
<path d="M-46.3035 128.21L-197.561 294.753L-5.17252 295.419L101.189 178.283L101.281 129.781L-46.3035 128.21Z" fill="white"/>
</mask>
<g mask="url(#mask0_499_48678)">
<path d="M99.0313 295.085C98.0214 295.085 97.1953 295.942 97.1953 296.989C97.1953 298.036 98.0214 298.893 99.0313 298.893C100.041 298.893 100.868 298.036 100.868 296.989C100.868 295.942 100.041 295.085 99.0313 295.085Z" fill="#A01700"/>
<path d="M90.8597 295.085C89.8498 295.085 89.0234 295.942 89.0234 296.989C89.0234 298.036 89.8498 298.893 90.8597 298.893C91.8697 298.893 92.6961 298.036 92.6961 296.989C92.6961 295.942 91.8697 295.085 90.8597 295.085Z" fill="#A01700"/>
<path d="M82.6886 295.085C81.6787 295.085 80.8525 295.942 80.8525 296.989C80.8525 298.036 81.6787 298.893 82.6886 298.893C83.6985 298.893 84.5249 298.036 84.5249 296.989C84.5249 295.942 83.6985 295.085 82.6886 295.085Z" fill="#A01700"/>
<path d="M74.518 295.085C73.508 295.085 72.6816 295.942 72.6816 296.989C72.6816 298.036 73.508 298.893 74.518 298.893C75.5279 298.893 76.354 298.036 76.354 296.989C76.354 295.942 75.5279 295.085 74.518 295.085Z" fill="#A01700"/>
<path d="M66.3468 295.085C65.3369 295.085 64.5107 295.942 64.5107 296.989C64.5107 298.036 65.3369 298.893 66.3468 298.893C67.3567 298.893 68.1831 298.036 68.1831 296.989C68.1831 295.942 67.3567 295.085 66.3468 295.085Z" fill="#A01700"/>
<path d="M58.1303 295.085C57.1203 295.085 56.2939 295.942 56.2939 296.989C56.2939 298.036 57.1203 298.893 58.1303 298.893C59.1402 298.893 59.9666 298.036 59.9666 296.989C59.9666 295.942 59.1402 295.085 58.1303 295.085Z" fill="#A01700"/>
<path d="M49.9591 295.085C48.9492 295.085 48.123 295.942 48.123 296.989C48.123 298.036 48.9492 298.893 49.9591 298.893C50.969 298.893 51.7954 298.036 51.7954 296.989C51.7954 295.942 50.969 295.085 49.9591 295.085Z" fill="#A01700"/>
<path d="M41.7885 295.085C40.7786 295.085 39.9521 295.942 39.9521 296.989C39.9521 298.036 40.7786 298.893 41.7885 298.893C42.7984 298.893 43.6248 298.036 43.6248 296.989C43.6248 295.942 42.7984 295.085 41.7885 295.085Z" fill="#A01700"/>
<path d="M33.6163 295.085C32.6064 295.085 31.7803 295.942 31.7803 296.989C31.7803 298.036 32.6064 298.893 33.6163 298.893C34.6262 298.893 35.4526 298.036 35.4526 296.989C35.4526 295.942 34.6262 295.085 33.6163 295.085Z" fill="#A01700"/>
<path d="M25.4457 295.085C24.4358 295.085 23.6094 295.942 23.6094 296.989C23.6094 298.036 24.4358 298.893 25.4457 298.893C26.4556 298.893 27.282 298.036 27.282 296.989C27.282 295.942 26.4556 295.085 25.4457 295.085Z" fill="#A01700"/>
<path d="M17.2735 295.085C16.2636 295.085 15.4375 295.942 15.4375 296.989C15.4375 298.036 16.2636 298.893 17.2735 298.893C18.2834 298.893 19.1098 298.036 19.1098 296.989C19.1098 295.942 18.2834 295.085 17.2735 295.085Z" fill="#A01700"/>
<path d="M9.10389 295.085C8.09398 295.085 7.26758 295.942 7.26758 296.989C7.26758 298.036 8.09398 298.893 9.10389 298.893C10.1138 298.893 10.9399 298.036 10.9399 296.989C10.9399 295.942 10.1138 295.085 9.10389 295.085Z" fill="#A01700"/>
<path d="M0.932712 295.085C-0.0771983 295.085 -0.90332 295.942 -0.90332 296.989C-0.90332 298.036 -0.0771983 298.893 0.932712 298.893C1.94262 298.893 2.76902 298.036 2.76902 296.989C2.76902 295.942 1.94262 295.085 0.932712 295.085Z" fill="#A01700"/>
<path d="M99.0305 286.47C97.9747 286.47 97.1025 287.374 97.1025 288.469C97.1025 289.564 97.9747 290.468 99.0305 290.468C100.086 290.468 100.959 289.564 100.959 288.469C100.959 287.374 100.086 286.47 99.0305 286.47Z" fill="#A01700"/>
<path d="M90.8605 286.47C89.8047 286.47 88.9326 287.374 88.9326 288.469C88.9326 289.564 89.8047 290.468 90.8605 290.468C91.9164 290.468 92.7885 289.564 92.7885 288.469C92.7885 287.374 91.9164 286.47 90.8605 286.47Z" fill="#A01700"/>
<path d="M82.6887 286.47C81.6329 286.47 80.7607 287.374 80.7607 288.469C80.7607 289.564 81.6329 290.468 82.6887 290.468C83.7445 290.468 84.6169 289.564 84.6169 288.469C84.6169 287.374 83.7445 286.47 82.6887 286.47Z" fill="#A01700"/>
<path d="M74.5178 286.47C73.462 286.47 72.5898 287.374 72.5898 288.469C72.5898 289.564 73.462 290.468 74.5178 290.468C75.5736 290.468 76.4457 289.564 76.4457 288.469C76.4457 287.374 75.5736 286.47 74.5178 286.47Z" fill="#A01700"/>
<path d="M66.3469 286.47C65.2911 286.47 64.4189 287.374 64.4189 288.469C64.4189 289.564 65.2911 290.468 66.3469 290.468C67.4027 290.468 68.2751 289.564 68.2751 288.469C68.2751 287.374 67.4027 286.47 66.3469 286.47Z" fill="#A01700"/>
<path d="M58.1301 286.47C57.0743 286.47 56.2021 287.374 56.2021 288.469C56.2021 289.564 57.0743 290.468 58.1301 290.468C59.1859 290.468 60.058 289.564 60.058 288.469C60.058 287.374 59.1859 286.47 58.1301 286.47Z" fill="#A01700"/>
<path d="M49.9592 286.47C48.9034 286.47 48.0312 287.374 48.0312 288.469C48.0312 289.564 48.9034 290.468 49.9592 290.468C51.015 290.468 51.8874 289.564 51.8874 288.469C51.8874 287.374 51.015 286.47 49.9592 286.47Z" fill="#A01700"/>
<path d="M41.7873 286.47C40.7315 286.47 39.8594 287.374 39.8594 288.469C39.8594 289.564 40.7315 290.468 41.7873 290.468C42.8431 290.468 43.7152 289.564 43.7152 288.469C43.7152 287.374 42.8431 286.47 41.7873 286.47Z" fill="#A01700"/>
<path d="M33.6174 286.47C32.5616 286.47 31.6895 287.374 31.6895 288.469C31.6895 289.564 32.5616 290.468 33.6174 290.468C34.6732 290.468 35.5456 289.564 35.5456 288.469C35.5456 287.374 34.6732 286.47 33.6174 286.47Z" fill="#A01700"/>
<path d="M25.4455 286.47C24.3897 286.47 23.5176 287.374 23.5176 288.469C23.5176 289.564 24.3897 290.468 25.4455 290.468C26.5013 290.468 27.3734 289.564 27.3734 288.469C27.3734 287.374 26.5013 286.47 25.4455 286.47Z" fill="#A01700"/>
<path d="M17.2746 286.47C16.2188 286.47 15.3467 287.374 15.3467 288.469C15.3467 289.564 16.2188 290.468 17.2746 290.468C18.3304 290.468 19.2028 289.564 19.2028 288.469C19.2028 287.374 18.3304 286.47 17.2746 286.47Z" fill="#A01700"/>
<path d="M9.10274 286.47C8.04692 286.47 7.1748 287.374 7.1748 288.469C7.1748 289.564 8.04692 290.468 9.10274 290.468C10.1586 290.468 11.0307 289.564 11.0307 288.469C11.0307 287.374 10.1586 286.47 9.10274 286.47Z" fill="#A01700"/>
<path d="M0.931838 286.47C-0.123977 286.47 -0.996094 287.374 -0.996094 288.469C-0.996094 289.564 -0.123977 290.468 0.931838 290.468C1.98765 290.468 2.86005 289.564 2.86005 288.469C2.86005 287.374 1.98765 286.47 0.931838 286.47Z" fill="#A01700"/>
<path d="M99.0316 277.903C97.8839 277.903 97.0117 278.854 97.0117 279.997C97.0117 281.139 97.9298 282.091 99.0316 282.091C100.133 282.091 101.051 281.139 101.051 279.997C101.051 278.854 100.133 277.903 99.0316 277.903Z" fill="#A01700"/>
<path d="M90.8597 277.903C89.7121 277.903 88.8398 278.854 88.8398 279.997C88.8398 281.139 89.758 282.091 90.8597 282.091C91.9614 282.091 92.8795 281.139 92.8795 279.997C92.8795 278.854 91.9614 277.903 90.8597 277.903Z" fill="#A01700"/>
<path d="M82.6888 277.903C81.5412 277.903 80.6689 278.854 80.6689 279.997C80.6689 281.139 81.5871 282.091 82.6888 282.091C83.7905 282.091 84.7086 281.139 84.7086 279.997C84.7086 278.854 83.7905 277.903 82.6888 277.903Z" fill="#A01700"/>
<path d="M74.5179 277.903C73.3703 277.903 72.498 278.854 72.498 279.997C72.498 281.139 73.4162 282.091 74.5179 282.091C75.6196 282.091 76.5377 281.139 76.5377 279.997C76.5377 278.854 75.6196 277.903 74.5179 277.903Z" fill="#A01700"/>
<path d="M66.347 277.903C65.1994 277.903 64.3271 278.854 64.3271 279.997C64.3271 281.139 65.2453 282.091 66.347 282.091C67.4487 282.091 68.3668 281.139 68.3668 279.997C68.3668 278.854 67.4487 277.903 66.347 277.903Z" fill="#A01700"/>
<path d="M58.1302 277.903C56.9826 277.903 56.1104 278.854 56.1104 279.997C56.1104 281.139 57.0285 282.091 58.1302 282.091C59.2319 282.091 60.15 281.139 60.15 279.997C60.15 278.854 59.2319 277.903 58.1302 277.903Z" fill="#A01700"/>
<path d="M49.959 277.903C48.8114 277.903 47.9395 278.854 47.9395 279.997C47.9395 281.139 48.8573 282.091 49.959 282.091C51.0607 282.091 51.9788 281.139 51.9788 279.997C51.9788 278.854 51.0607 277.903 49.959 277.903Z" fill="#A01700"/>
<path d="M41.7874 277.903C40.6398 277.903 39.7676 278.854 39.7676 279.997C39.7676 281.139 40.6857 282.091 41.7874 282.091C42.8891 282.091 43.8072 281.139 43.8072 279.997C43.8072 278.854 42.8891 277.903 41.7874 277.903Z" fill="#A01700"/>
<path d="M33.6165 277.903C32.4689 277.903 31.5967 278.854 31.5967 279.997C31.5967 281.139 32.5148 282.091 33.6165 282.091C34.7182 282.091 35.6363 281.139 35.6363 279.997C35.6363 278.854 34.7182 277.903 33.6165 277.903Z" fill="#A01700"/>
<path d="M25.4456 277.903C24.298 277.903 23.4258 278.854 23.4258 279.997C23.4258 281.139 24.3439 282.091 25.4456 282.091C26.5473 282.091 27.4654 281.139 27.4654 279.997C27.4654 278.854 26.5473 277.903 25.4456 277.903Z" fill="#A01700"/>
<path d="M17.2747 277.903C16.1271 277.903 15.2549 278.854 15.2549 279.997C15.2549 281.139 16.173 282.091 17.2747 282.091C18.3764 282.091 19.2945 281.139 19.2945 279.997C19.2945 278.854 18.3764 277.903 17.2747 277.903Z" fill="#A01700"/>
<path d="M9.10382 277.903C7.95619 277.903 7.08398 278.854 7.08398 279.997C7.08398 281.139 8.0021 282.091 9.10382 282.091C10.2055 282.091 11.1236 281.139 11.1236 279.997C11.1236 278.854 10.2055 277.903 9.10382 277.903Z" fill="#A01700"/>
<path d="M0.931941 277.903C-0.215684 277.903 -1.08789 278.854 -1.08789 279.997C-1.08789 281.139 -0.169779 282.091 0.931941 282.091C2.03366 282.091 2.95177 281.139 2.95177 279.997C2.95177 278.854 2.03366 277.903 0.931941 277.903Z" fill="#A01700"/>
<path d="M99.0314 269.288C97.8379 269.288 96.874 270.287 96.874 271.525C96.874 272.762 97.8379 273.762 99.0314 273.762C100.225 273.762 101.189 272.762 101.189 271.525C101.189 270.287 100.225 269.288 99.0314 269.288Z" fill="#A01700"/>
<path d="M90.8598 269.288C89.6663 269.288 88.7021 270.287 88.7021 271.525C88.7021 272.762 89.6663 273.762 90.8598 273.762C92.0534 273.762 93.0172 272.762 93.0172 271.525C93.0172 270.287 92.0534 269.288 90.8598 269.288Z" fill="#A01700"/>
<path d="M82.6896 269.288C81.4961 269.288 80.5322 270.287 80.5322 271.525C80.5322 272.762 81.4961 273.762 82.6896 273.762C83.8832 273.762 84.8473 272.762 84.8473 271.525C84.8473 270.287 83.8832 269.288 82.6896 269.288Z" fill="#A01700"/>
<path d="M74.518 269.288C73.3245 269.288 72.3604 270.287 72.3604 271.525C72.3604 272.762 73.3245 273.762 74.518 273.762C75.7116 273.762 76.6754 272.762 76.6754 271.525C76.6754 270.287 75.7116 269.288 74.518 269.288Z" fill="#A01700"/>
<path d="M66.3469 269.288C65.1533 269.288 64.1895 270.287 64.1895 271.525C64.1895 272.762 65.1533 273.762 66.3469 273.762C67.5404 273.762 68.5045 272.762 68.5045 271.525C68.5045 270.287 67.5404 269.288 66.3469 269.288Z" fill="#A01700"/>
<path d="M58.1301 269.288C56.9365 269.288 55.9727 270.287 55.9727 271.525C55.9727 272.762 56.9365 273.762 58.1301 273.762C59.3236 273.762 60.2875 272.762 60.2875 271.525C60.2875 270.287 59.3236 269.288 58.1301 269.288Z" fill="#A01700"/>
<path d="M49.9592 269.288C48.7656 269.288 47.8018 270.287 47.8018 271.525C47.8018 272.762 48.7656 273.762 49.9592 273.762C51.1527 273.762 52.1168 272.762 52.1168 271.525C52.1168 270.287 51.1527 269.288 49.9592 269.288Z" fill="#A01700"/>
<path d="M41.7876 269.288C40.594 269.288 39.6299 270.287 39.6299 271.525C39.6299 272.762 40.594 273.762 41.7876 273.762C42.9811 273.762 43.945 272.762 43.945 271.525C43.945 270.287 42.9811 269.288 41.7876 269.288Z" fill="#A01700"/>
<path d="M33.6164 269.288C32.4229 269.288 31.459 270.287 31.459 271.525C31.459 272.762 32.4229 273.762 33.6164 273.762C34.8099 273.762 35.7741 272.762 35.7741 271.525C35.7741 270.287 34.8099 269.288 33.6164 269.288Z" fill="#A01700"/>
<path d="M25.4458 269.288C24.2522 269.288 23.2881 270.287 23.2881 271.525C23.2881 272.762 24.2522 273.762 25.4458 273.762C26.6393 273.762 27.6032 272.762 27.6032 271.525C27.6032 270.287 26.6393 269.288 25.4458 269.288Z" fill="#A01700"/>
<path d="M17.2746 269.288C16.0811 269.288 15.1172 270.287 15.1172 271.525C15.1172 272.762 16.0811 273.762 17.2746 273.762C18.4681 273.762 19.4323 272.762 19.4323 271.525C19.4323 270.287 18.4681 269.288 17.2746 269.288Z" fill="#A01700"/>
<path d="M9.10397 269.288C7.91044 269.288 6.94629 270.287 6.94629 271.525C6.94629 272.762 7.91044 273.762 9.10397 273.762C10.2975 273.762 11.2614 272.762 11.2614 271.525C11.2614 270.287 10.2975 269.288 9.10397 269.288Z" fill="#A01700"/>
<path d="M0.931815 269.288C-0.261715 269.288 -1.22559 270.287 -1.22559 271.525C-1.22559 272.762 -0.261715 273.762 0.931815 273.762C2.12534 273.762 3.0895 272.762 3.0895 271.525C3.0895 270.287 2.12534 269.288 0.931815 269.288Z" fill="#A01700"/>
<path d="M99.0316 260.671C97.7462 260.671 96.7363 261.718 96.7363 263.051C96.7363 264.384 97.7462 265.431 99.0316 265.431C100.317 265.431 101.327 264.384 101.327 263.051C101.327 261.718 100.317 260.671 99.0316 260.671Z" fill="#A01700"/>
<path d="M90.8597 260.671C89.5744 260.671 88.5645 261.718 88.5645 263.051C88.5645 264.384 89.5744 265.431 90.8597 265.431C92.145 265.431 93.155 264.384 93.155 263.051C93.155 261.718 92.145 260.671 90.8597 260.671Z" fill="#A01700"/>
<path d="M82.6888 260.671C81.4035 260.671 80.3936 261.718 80.3936 263.051C80.3936 264.384 81.4035 265.431 82.6888 265.431C83.9741 265.431 84.9841 264.384 84.9841 263.051C84.9841 261.718 83.9741 260.671 82.6888 260.671Z" fill="#A01700"/>
<path d="M74.5179 260.671C73.2326 260.671 72.2227 261.718 72.2227 263.051C72.2227 264.384 73.2326 265.431 74.5179 265.431C75.8032 265.431 76.8132 264.384 76.8132 263.051C76.8132 261.718 75.8032 260.671 74.5179 260.671Z" fill="#A01700"/>
<path d="M66.347 260.671C65.0617 260.671 64.0518 261.718 64.0518 263.051C64.0518 264.384 65.0617 265.431 66.347 265.431C67.6323 265.431 68.6423 264.384 68.6423 263.051C68.6423 261.718 67.6323 260.671 66.347 260.671Z" fill="#A01700"/>
<path d="M58.1302 260.671C56.8449 260.671 55.835 261.718 55.835 263.051C55.835 264.384 56.8449 265.431 58.1302 265.431C59.4156 265.431 60.4255 264.384 60.4255 263.051C60.4255 261.718 59.4156 260.671 58.1302 260.671Z" fill="#A01700"/>
<path d="M49.9593 260.671C48.674 260.671 47.6641 261.718 47.6641 263.051C47.6641 264.384 48.674 265.431 49.9593 265.431C51.2447 265.431 52.2546 264.384 52.2546 263.051C52.2546 261.718 51.2447 260.671 49.9593 260.671Z" fill="#A01700"/>
<path d="M41.7874 260.671C40.5021 260.671 39.4922 261.718 39.4922 263.051C39.4922 264.384 40.5021 265.431 41.7874 265.431C43.0728 265.431 44.0827 264.384 44.0827 263.051C44.0827 261.718 43.0728 260.671 41.7874 260.671Z" fill="#A01700"/>
<path d="M33.6165 260.671C32.3312 260.671 31.3213 261.718 31.3213 263.051C31.3213 264.384 32.3312 265.431 33.6165 265.431C34.9019 265.431 35.9118 264.384 35.9118 263.051C35.9118 261.718 34.9019 260.671 33.6165 260.671Z" fill="#A01700"/>
<path d="M25.4456 260.671C24.1603 260.671 23.1504 261.718 23.1504 263.051C23.1504 264.384 24.1603 265.431 25.4456 265.431C26.731 265.431 27.7409 264.384 27.7409 263.051C27.7409 261.718 26.731 260.671 25.4456 260.671Z" fill="#A01700"/>
<path d="M17.2747 260.671C15.9894 260.671 14.9795 261.718 14.9795 263.051C14.9795 264.384 15.9894 265.431 17.2747 265.431C18.5601 265.431 19.57 264.384 19.57 263.051C19.57 261.718 18.5601 260.671 17.2747 260.671Z" fill="#A01700"/>
<path d="M9.10384 260.671C7.8185 260.671 6.80859 261.718 6.80859 263.051C6.80859 264.384 7.8185 265.431 9.10384 265.431C10.3892 265.431 11.3991 264.384 11.3991 263.051C11.3991 261.718 10.3892 260.671 9.10384 260.671Z" fill="#A01700"/>
<path d="M0.931969 260.671C-0.353371 260.671 -1.36328 261.718 -1.36328 263.051C-1.36328 264.384 -0.353371 265.431 0.931969 265.431C2.21731 265.431 3.22722 264.384 3.22722 263.051C3.22722 261.718 2.21731 260.671 0.931969 260.671Z" fill="#A01700"/>
<path d="M99.0315 252.058C97.7002 252.058 96.5986 253.2 96.5986 254.58C96.5986 255.961 97.7002 257.103 99.0315 257.103C100.363 257.103 101.465 255.961 101.465 254.58C101.465 253.2 100.363 252.058 99.0315 252.058Z" fill="#A01700"/>
<path d="M90.8599 252.058C89.5286 252.058 88.4268 253.2 88.4268 254.58C88.4268 255.961 89.5286 257.103 90.8599 257.103C92.1911 257.103 93.2927 255.961 93.2927 254.58C93.2927 253.2 92.1911 252.058 90.8599 252.058Z" fill="#A01700"/>
<path d="M82.6887 252.058C81.3574 252.058 80.2559 253.2 80.2559 254.58C80.2559 255.961 81.3574 257.103 82.6887 257.103C84.0199 257.103 85.1218 255.961 85.1218 254.58C85.1218 253.2 84.0199 252.058 82.6887 252.058Z" fill="#A01700"/>
<path d="M74.5181 252.058C73.1868 252.058 72.085 253.2 72.085 254.58C72.085 255.961 73.1868 257.103 74.5181 257.103C75.8493 257.103 76.9509 255.961 76.9509 254.58C76.9509 253.2 75.8493 252.058 74.5181 252.058Z" fill="#A01700"/>
<path d="M66.3469 252.058C65.0156 252.058 63.9141 253.2 63.9141 254.58C63.9141 255.961 65.0156 257.103 66.3469 257.103C67.6781 257.103 68.78 255.961 68.78 254.58C68.78 253.2 67.6781 252.058 66.3469 252.058Z" fill="#A01700"/>
<path d="M58.1294 252.058C56.7981 252.058 55.6963 253.2 55.6963 254.58C55.6963 255.961 56.7981 257.103 58.1294 257.103C59.4606 257.103 60.5625 255.961 60.5625 254.58C60.5625 253.2 59.4606 252.058 58.1294 252.058Z" fill="#A01700"/>
<path d="M49.9592 252.058C48.6279 252.058 47.5264 253.2 47.5264 254.58C47.5264 255.961 48.6279 257.103 49.9592 257.103C51.2904 257.103 52.3923 255.961 52.3923 254.58C52.3923 253.2 51.2904 252.058 49.9592 252.058Z" fill="#A01700"/>
<path d="M41.7876 252.058C40.4563 252.058 39.3545 253.2 39.3545 254.58C39.3545 255.961 40.4563 257.103 41.7876 257.103C43.1188 257.103 44.2204 255.961 44.2204 254.58C44.2204 253.2 43.1188 252.058 41.7876 252.058Z" fill="#A01700"/>
<path d="M33.6164 252.058C32.2852 252.058 31.1836 253.2 31.1836 254.58C31.1836 255.961 32.2852 257.103 33.6164 257.103C34.9477 257.103 36.0495 255.961 36.0495 254.58C36.0495 253.2 34.9477 252.058 33.6164 252.058Z" fill="#A01700"/>
<path d="M25.4458 252.058C24.1145 252.058 23.0127 253.2 23.0127 254.58C23.0127 255.961 24.1145 257.103 25.4458 257.103C26.777 257.103 27.8786 255.961 27.8786 254.58C27.8786 253.2 26.777 252.058 25.4458 252.058Z" fill="#A01700"/>
<path d="M17.2746 252.058C15.9434 252.058 14.8418 253.2 14.8418 254.58C14.8418 255.961 15.9434 257.103 17.2746 257.103C18.6059 257.103 19.7077 255.961 19.7077 254.58C19.7077 253.2 18.6059 252.058 17.2746 252.058Z" fill="#A01700"/>
<path d="M9.104 252.058C7.77275 252.058 6.6709 253.2 6.6709 254.58C6.6709 255.961 7.77275 257.103 9.104 257.103C10.4352 257.103 11.5368 255.961 11.5368 254.58C11.5368 253.2 10.4352 252.058 9.104 252.058Z" fill="#A01700"/>
<path d="M0.931843 252.058C-0.399402 252.058 -1.50098 253.2 -1.50098 254.58C-1.50098 255.961 -0.399402 257.103 0.931843 257.103C2.26309 257.103 3.36494 255.961 3.36494 254.58C3.36494 253.2 2.26309 252.058 0.931843 252.058Z" fill="#A01700"/>
<path d="M99.0316 243.443C97.6085 243.443 96.5068 244.633 96.5068 246.061C96.5068 247.488 97.6544 248.678 99.0316 248.678C100.409 248.678 101.557 247.488 101.557 246.061C101.557 244.633 100.409 243.443 99.0316 243.443Z" fill="#A01700"/>
<path d="M90.8607 243.443C89.4376 243.443 88.3359 244.633 88.3359 246.061C88.3359 247.488 89.4835 248.678 90.8607 248.678C92.2378 248.678 93.3854 247.488 93.3854 246.061C93.3854 244.633 92.2378 243.443 90.8607 243.443Z" fill="#A01700"/>
<path d="M82.6888 243.443C81.2657 243.443 80.1641 244.633 80.1641 246.061C80.1641 247.488 81.3116 248.678 82.6888 248.678C84.0659 248.678 85.2138 247.488 85.2138 246.061C85.2138 244.633 84.0659 243.443 82.6888 243.443Z" fill="#A01700"/>
<path d="M74.5179 243.443C73.0948 243.443 71.9932 244.633 71.9932 246.061C71.9932 247.488 73.1407 248.678 74.5179 248.678C75.895 248.678 77.0426 247.488 77.0426 246.061C77.0426 244.633 75.895 243.443 74.5179 243.443Z" fill="#A01700"/>
<path d="M66.347 243.443C64.9239 243.443 63.8223 244.633 63.8223 246.061C63.8223 247.488 64.9698 248.678 66.347 248.678C67.7241 248.678 68.872 247.488 68.872 246.061C68.872 244.633 67.7241 243.443 66.347 243.443Z" fill="#A01700"/>
<path d="M58.1302 243.443C56.7071 243.443 55.6055 244.633 55.6055 246.061C55.6055 247.488 56.753 248.678 58.1302 248.678C59.5073 248.678 60.6549 247.488 60.6549 246.061C60.6549 244.633 59.5073 243.443 58.1302 243.443Z" fill="#A01700"/>
<path d="M49.9583 243.443C48.5353 243.443 47.4336 244.633 47.4336 246.061C47.4336 247.488 48.5812 248.678 49.9583 248.678C51.3355 248.678 52.4833 247.488 52.4833 246.061C52.4833 244.633 51.3355 243.443 49.9583 243.443Z" fill="#A01700"/>
<path d="M41.7884 243.443C40.3653 243.443 39.2637 244.633 39.2637 246.061C39.2637 247.488 40.4112 248.678 41.7884 248.678C43.1655 248.678 44.3131 247.488 44.3131 246.061C44.3131 244.633 43.1655 243.443 41.7884 243.443Z" fill="#A01700"/>
<path d="M33.6165 243.443C32.1935 243.443 31.0918 244.633 31.0918 246.061C31.0918 247.488 32.2394 248.678 33.6165 248.678C34.9937 248.678 36.1415 247.488 36.1415 246.061C36.1415 244.633 34.9937 243.443 33.6165 243.443Z" fill="#A01700"/>
<path d="M25.4456 243.443C24.0226 243.443 22.9209 244.633 22.9209 246.061C22.9209 247.488 24.0685 248.678 25.4456 248.678C26.8228 248.678 27.9703 247.488 27.9703 246.061C27.9703 244.633 26.8228 243.443 25.4456 243.443Z" fill="#A01700"/>
<path d="M17.2747 243.443C15.8517 243.443 14.75 244.633 14.75 246.061C14.75 247.488 15.8976 248.678 17.2747 248.678C18.6519 248.678 19.7997 247.488 19.7997 246.061C19.7997 244.633 18.6519 243.443 17.2747 243.443Z" fill="#A01700"/>
<path d="M9.10382 243.443C7.68077 243.443 6.5791 244.633 6.5791 246.061C6.5791 247.488 7.72667 248.678 9.10382 248.678C10.481 248.678 11.6285 247.488 11.6285 246.061C11.6285 244.633 10.481 243.443 9.10382 243.443Z" fill="#A01700"/>
<path d="M0.932922 243.443C-0.490133 243.443 -1.5918 244.633 -1.5918 246.061C-1.5918 247.488 -0.444228 248.678 0.932922 248.678C2.31007 248.678 3.45792 247.488 3.45792 246.061C3.45792 244.633 2.31007 243.443 0.932922 243.443Z" fill="#A01700"/>
<path d="M99.0314 240.395C100.502 240.395 101.694 239.159 101.694 237.634C101.694 236.11 100.502 234.874 99.0314 234.874C97.561 234.874 96.3691 236.11 96.3691 237.634C96.3691 239.159 97.561 240.395 99.0314 240.395Z" fill="#A01700"/>
<path d="M90.8608 240.395C92.3313 240.395 93.5234 239.159 93.5234 237.634C93.5234 236.11 92.3313 234.874 90.8608 234.874C89.3904 234.874 88.1982 236.11 88.1982 237.634C88.1982 239.159 89.3904 240.395 90.8608 240.395Z" fill="#A01700"/>
<path d="M82.6887 240.395C84.1591 240.395 85.3512 239.159 85.3512 237.634C85.3512 236.11 84.1591 234.874 82.6887 234.874C81.2182 234.874 80.0264 236.11 80.0264 237.634C80.0264 239.159 81.2182 240.395 82.6887 240.395Z" fill="#A01700"/>
<path d="M74.518 234.826C73.0491 234.826 71.8555 236.064 71.8555 237.587C71.8555 239.11 73.0491 240.347 74.518 240.347C75.987 240.347 77.1806 239.11 77.1806 237.587C77.1806 236.064 75.987 234.826 74.518 234.826Z" fill="#A01700"/>
<path d="M66.3469 234.826C64.8779 234.826 63.6846 236.064 63.6846 237.587C63.6846 239.11 64.8779 240.347 66.3469 240.347C67.8158 240.347 69.0094 239.11 69.0094 237.587C69.0094 236.064 67.8158 234.826 66.3469 234.826Z" fill="#A01700"/>
<path d="M58.1294 234.826C56.6604 234.826 55.4668 236.064 55.4668 237.587C55.4668 239.11 56.6604 240.347 58.1294 240.347C59.5983 240.347 60.7919 239.11 60.7919 237.587C60.7919 236.064 59.5983 234.826 58.1294 234.826Z" fill="#A01700"/>
<path d="M49.9582 234.826C48.4892 234.826 47.2959 236.064 47.2959 237.587C47.2959 239.11 48.4892 240.347 49.9582 240.347C51.4271 240.347 52.6208 239.11 52.6208 237.587C52.6208 236.064 51.4271 234.826 49.9582 234.826Z" fill="#A01700"/>
<path d="M41.7876 234.826C40.3186 234.826 39.125 236.064 39.125 237.587C39.125 239.11 40.3186 240.347 41.7876 240.347C43.2565 240.347 44.4501 239.11 44.4501 237.587C44.4501 236.064 43.2565 234.826 41.7876 234.826Z" fill="#A01700"/>
<path d="M33.6164 234.826C32.1474 234.826 30.9541 236.064 30.9541 237.587C30.9541 239.11 32.1474 240.347 33.6164 240.347C35.0854 240.347 36.279 239.11 36.279 237.587C36.279 236.064 35.0854 234.826 33.6164 234.826Z" fill="#A01700"/>
<path d="M25.4458 234.826C23.9768 234.826 22.7832 236.064 22.7832 237.587C22.7832 239.11 23.9768 240.347 25.4458 240.347C26.9147 240.347 28.1083 239.11 28.1083 237.587C28.1083 236.064 26.9147 234.826 25.4458 234.826Z" fill="#A01700"/>
<path d="M17.2746 234.826C15.8056 234.826 14.6123 236.064 14.6123 237.587C14.6123 239.11 15.8056 240.347 17.2746 240.347C18.7436 240.347 19.9372 239.11 19.9372 237.587C19.9372 236.064 18.7436 234.826 17.2746 234.826Z" fill="#A01700"/>
<path d="M9.103 234.826C7.63404 234.826 6.44043 236.064 6.44043 237.587C6.44043 239.11 7.63404 240.347 9.103 240.347C10.572 240.347 11.7656 239.11 11.7656 237.587C11.7656 236.064 10.572 234.826 9.103 234.826Z" fill="#A01700"/>
<path d="M0.932796 234.826C-0.536164 234.826 -1.72949 236.064 -1.72949 237.587C-1.72949 239.11 -0.536164 240.347 0.932796 240.347C2.40176 240.347 3.59537 239.11 3.59537 237.587C3.59537 236.064 2.40176 234.826 0.932796 234.826Z" fill="#A01700"/>
<path d="M99.0316 232.066C100.603 232.066 101.878 230.744 101.878 229.114C101.878 227.485 100.603 226.163 99.0316 226.163C97.4598 226.163 96.1855 227.485 96.1855 229.114C96.1855 230.744 97.4598 232.066 99.0316 232.066Z" fill="#A01700"/>
<path d="M90.8598 232.066C92.4316 232.066 93.7058 230.744 93.7058 229.114C93.7058 227.485 92.4316 226.163 90.8598 226.163C89.2879 226.163 88.0137 227.485 88.0137 229.114C88.0137 230.744 89.2879 232.066 90.8598 232.066Z" fill="#A01700"/>
<path d="M82.6889 232.066C84.2607 232.066 85.5349 230.744 85.5349 229.114C85.5349 227.485 84.2607 226.163 82.6889 226.163C81.117 226.163 79.8428 227.485 79.8428 229.114C79.8428 230.744 81.117 232.066 82.6889 232.066Z" fill="#A01700"/>
<path d="M74.518 232.066C76.0898 232.066 77.3641 230.744 77.3641 229.114C77.3641 227.485 76.0898 226.163 74.518 226.163C72.9461 226.163 71.6719 227.485 71.6719 229.114C71.6719 230.744 72.9461 232.066 74.518 232.066Z" fill="#A01700"/>
<path d="M66.3471 232.066C67.9189 232.066 69.1932 230.744 69.1932 229.114C69.1932 227.485 67.9189 226.163 66.3471 226.163C64.7752 226.163 63.501 227.485 63.501 229.114C63.501 230.744 64.7752 232.066 66.3471 232.066Z" fill="#A01700"/>
<path d="M58.1293 232.066C59.7012 232.066 60.9754 230.744 60.9754 229.114C60.9754 227.485 59.7012 226.163 58.1293 226.163C56.5574 226.163 55.2832 227.485 55.2832 229.114C55.2832 230.744 56.5574 232.066 58.1293 232.066Z" fill="#A01700"/>
<path d="M49.9584 232.066C51.5303 232.066 52.8048 230.744 52.8048 229.114C52.8048 227.485 51.5303 226.163 49.9584 226.163C48.3865 226.163 47.1123 227.485 47.1123 229.114C47.1123 230.744 48.3865 232.066 49.9584 232.066Z" fill="#A01700"/>
<path d="M41.7875 232.066C43.3594 232.066 44.6336 230.744 44.6336 229.114C44.6336 227.485 43.3594 226.163 41.7875 226.163C40.2156 226.163 38.9414 227.485 38.9414 229.114C38.9414 230.744 40.2156 232.066 41.7875 232.066Z" fill="#A01700"/>
<path d="M33.6166 232.066C35.1885 232.066 36.463 230.744 36.463 229.114C36.463 227.485 35.1885 226.163 33.6166 226.163C32.0447 226.163 30.7705 227.485 30.7705 229.114C30.7705 230.744 32.0447 232.066 33.6166 232.066Z" fill="#A01700"/>
<path d="M25.4457 226.211C23.8849 226.211 22.5996 227.544 22.5996 229.162C22.5996 230.781 23.8849 232.113 25.4457 232.113C27.0065 232.113 28.2918 230.781 28.2918 229.162C28.2918 227.544 27.0065 226.211 25.4457 226.211Z" fill="#A01700"/>
<path d="M17.2738 226.211C15.7131 226.211 14.4277 227.544 14.4277 229.162C14.4277 230.781 15.7131 232.113 17.2738 232.113C18.8346 232.113 20.1199 230.781 20.1199 229.162C20.1199 227.544 18.8346 226.211 17.2738 226.211Z" fill="#A01700"/>
<path d="M9.1039 226.211C7.54313 226.211 6.25781 227.544 6.25781 229.162C6.25781 230.781 7.54313 232.113 9.1039 232.113C10.6647 232.113 11.95 230.781 11.95 229.162C11.95 227.544 10.6647 226.211 9.1039 226.211Z" fill="#A01700"/>
<path d="M0.932025 226.211C-0.628745 226.211 -1.91406 227.544 -1.91406 229.162C-1.91406 230.781 -0.628745 232.113 0.932025 232.113C2.4928 232.113 3.77811 230.781 3.77811 229.162C3.77811 227.544 2.4928 226.211 0.932025 226.211Z" fill="#A01700"/>
<path d="M99.0315 217.598C97.3789 217.598 96.0479 218.978 96.0479 220.692C96.0479 222.405 97.3789 223.786 99.0315 223.786C100.684 223.786 102.015 222.405 102.015 220.692C102.015 218.978 100.684 217.598 99.0315 217.598Z" fill="#A01700"/>
<path d="M90.8599 217.598C89.2073 217.598 87.876 218.978 87.876 220.692C87.876 222.405 89.2073 223.786 90.8599 223.786C92.5125 223.786 93.8439 222.405 93.8439 220.692C93.8439 218.978 92.5125 217.598 90.8599 217.598Z" fill="#A01700"/>
<path d="M82.6887 217.598C81.0362 217.598 79.7051 218.978 79.7051 220.692C79.7051 222.405 81.0362 223.786 82.6887 223.786C84.3413 223.786 85.6727 222.405 85.6727 220.692C85.6727 218.978 84.3413 217.598 82.6887 217.598Z" fill="#A01700"/>
<path d="M74.5191 217.598C72.8665 217.598 71.5352 218.978 71.5352 220.692C71.5352 222.405 72.8665 223.786 74.5191 223.786C76.1717 223.786 77.5028 222.405 77.5028 220.692C77.5028 218.978 76.1717 217.598 74.5191 217.598Z" fill="#A01700"/>
<path d="M66.3469 217.598C64.6944 217.598 63.3633 218.978 63.3633 220.692C63.3633 222.405 64.6944 223.786 66.3469 223.786C67.9995 223.786 69.3309 222.405 69.3309 220.692C69.3309 218.978 67.9995 217.598 66.3469 217.598Z" fill="#A01700"/>
<path d="M58.1304 217.598C56.4778 217.598 55.1465 218.978 55.1465 220.692C55.1465 222.405 56.4778 223.786 58.1304 223.786C59.783 223.786 61.1144 222.405 61.1144 220.692C61.1144 218.978 59.783 217.598 58.1304 217.598Z" fill="#A01700"/>
<path d="M49.9592 217.598C48.3067 217.598 46.9756 218.978 46.9756 220.692C46.9756 222.405 48.3067 223.786 49.9592 223.786C51.6118 223.786 52.9432 222.405 52.9432 220.692C52.9432 218.978 51.6118 217.598 49.9592 217.598Z" fill="#A01700"/>
<path d="M41.7876 217.598C40.1351 217.598 38.8037 218.978 38.8037 220.692C38.8037 222.405 40.1351 223.786 41.7876 223.786C43.4402 223.786 44.7716 222.405 44.7716 220.692C44.7716 218.978 43.4402 217.598 41.7876 217.598Z" fill="#A01700"/>
<path d="M33.6165 217.598C31.9639 217.598 30.6328 218.978 30.6328 220.692C30.6328 222.405 31.9639 223.786 33.6165 223.786C35.269 223.786 36.6004 222.405 36.6004 220.692C36.6004 218.978 35.269 217.598 33.6165 217.598Z" fill="#A01700"/>
<path d="M25.4459 217.598C23.7933 217.598 22.4619 218.978 22.4619 220.692C22.4619 222.405 23.7933 223.786 25.4459 223.786C27.0984 223.786 28.4298 222.405 28.4298 220.692C28.4298 218.978 27.0984 217.598 25.4459 217.598Z" fill="#A01700"/>
<path d="M17.2747 217.598C15.6221 217.598 14.291 218.978 14.291 220.692C14.291 222.405 15.6221 223.786 17.2747 223.786C18.9273 223.786 20.2586 222.405 20.2586 220.692C20.2586 218.978 18.9273 217.598 17.2747 217.598Z" fill="#A01700"/>
<path d="M9.10308 217.598C7.4505 217.598 6.11914 218.978 6.11914 220.692C6.11914 222.405 7.4505 223.786 9.10308 223.786C10.7557 223.786 12.0867 222.405 12.0867 220.692C12.0867 218.978 10.7557 217.598 9.10308 217.598Z" fill="#A01700"/>
<path d="M0.931899 217.598C-0.720681 217.598 -2.05176 218.978 -2.05176 220.692C-2.05176 222.405 -0.720681 223.786 0.931899 223.786C2.58448 223.786 3.91584 222.405 3.91584 220.692C3.91584 218.978 2.58448 217.598 0.931899 217.598Z" fill="#A01700"/>
<path d="M99.0317 215.407C100.756 215.407 102.153 213.958 102.153 212.17C102.153 210.383 100.756 208.934 99.0317 208.934C97.3077 208.934 95.9102 210.383 95.9102 212.17C95.9102 213.958 97.3077 215.407 99.0317 215.407Z" fill="#A01700"/>
<path d="M90.8598 215.407C92.5838 215.407 93.9813 213.958 93.9813 212.17C93.9813 210.383 92.5838 208.934 90.8598 208.934C89.1358 208.934 87.7383 210.383 87.7383 212.17C87.7383 213.958 89.1358 215.407 90.8598 215.407Z" fill="#A01700"/>
<path d="M82.6889 215.407C84.4129 215.407 85.8107 213.958 85.8107 212.17C85.8107 210.383 84.4129 208.934 82.6889 208.934C80.9649 208.934 79.5674 210.383 79.5674 212.17C79.5674 213.958 80.9649 215.407 82.6889 215.407Z" fill="#A01700"/>
<path d="M74.519 215.407C76.2429 215.407 77.6405 213.958 77.6405 212.17C77.6405 210.383 76.2429 208.934 74.519 208.934C72.795 208.934 71.3975 210.383 71.3975 212.17C71.3975 213.958 72.795 215.407 74.519 215.407Z" fill="#A01700"/>
<path d="M66.3471 215.407C68.0711 215.407 69.4686 213.958 69.4686 212.17C69.4686 210.383 68.0711 208.934 66.3471 208.934C64.6231 208.934 63.2256 210.383 63.2256 212.17C63.2256 213.958 64.6231 215.407 66.3471 215.407Z" fill="#A01700"/>
<path d="M58.1293 215.407C59.8533 215.407 61.2508 213.958 61.2508 212.17C61.2508 210.383 59.8533 208.934 58.1293 208.934C56.4053 208.934 55.0078 210.383 55.0078 212.17C55.0078 213.958 56.4053 215.407 58.1293 215.407Z" fill="#A01700"/>
<path d="M49.9584 215.407C51.6824 215.407 53.0802 213.958 53.0802 212.17C53.0802 210.383 51.6824 208.934 49.9584 208.934C48.2344 208.934 46.8369 210.383 46.8369 212.17C46.8369 213.958 48.2344 215.407 49.9584 215.407Z" fill="#A01700"/>
<path d="M41.7875 215.407C43.5115 215.407 44.909 213.958 44.909 212.17C44.909 210.383 43.5115 208.934 41.7875 208.934C40.0635 208.934 38.666 210.383 38.666 212.17C38.666 213.958 40.0635 215.407 41.7875 215.407Z" fill="#A01700"/>
<path d="M33.6166 215.407C35.3406 215.407 36.7384 213.958 36.7384 212.17C36.7384 210.383 35.3406 208.934 33.6166 208.934C31.8926 208.934 30.4951 210.383 30.4951 212.17C30.4951 213.958 31.8926 215.407 33.6166 215.407Z" fill="#A01700"/>
<path d="M25.4457 215.407C27.1697 215.407 28.5672 213.958 28.5672 212.17C28.5672 210.383 27.1697 208.934 25.4457 208.934C23.7217 208.934 22.3242 210.383 22.3242 212.17C22.3242 213.958 23.7217 215.407 25.4457 215.407Z" fill="#A01700"/>
<path d="M17.2739 215.407C18.9978 215.407 20.3956 213.958 20.3956 212.17C20.3956 210.383 18.9978 208.934 17.2739 208.934C15.5499 208.934 14.1523 210.383 14.1523 212.17C14.1523 213.958 15.5499 215.407 17.2739 215.407Z" fill="#A01700"/>
<path d="M9.10393 215.407C10.8279 215.407 12.2254 213.958 12.2254 212.17C12.2254 210.383 10.8279 208.934 9.10393 208.934C7.37995 208.934 5.98242 210.383 5.98242 212.17C5.98242 213.958 7.37995 215.407 9.10393 215.407Z" fill="#A01700"/>
<path d="M0.932054 215.407C2.65603 215.407 4.05356 213.958 4.05356 212.17C4.05356 210.383 2.65603 208.934 0.932054 208.934C-0.791926 208.934 -2.18945 210.383 -2.18945 212.17C-2.18945 213.958 -0.791926 215.407 0.932054 215.407Z" fill="#A01700"/>
<path d="M99.0315 200.319C97.2412 200.319 95.7725 201.842 95.7725 203.698C95.7725 205.554 97.2412 207.077 99.0315 207.077C100.822 207.077 102.291 205.554 102.291 203.698C102.291 201.842 100.822 200.319 99.0315 200.319Z" fill="#A01700"/>
<path d="M90.8599 200.319C89.0696 200.319 87.6006 201.842 87.6006 203.698C87.6006 205.554 89.0696 207.077 90.8599 207.077C92.6502 207.077 94.1193 205.554 94.1193 203.698C94.1193 201.842 92.6502 200.319 90.8599 200.319Z" fill="#A01700"/>
<path d="M82.6888 200.319C80.8985 200.319 79.4297 201.842 79.4297 203.698C79.4297 205.554 80.8985 207.077 82.6888 207.077C84.4791 207.077 85.9481 205.554 85.9481 203.698C85.9481 201.842 84.4791 200.319 82.6888 200.319Z" fill="#A01700"/>
<path d="M74.5181 200.319C72.7279 200.319 71.2588 201.842 71.2588 203.698C71.2588 205.554 72.7279 207.077 74.5181 207.077C76.3084 207.077 77.7775 205.554 77.7775 203.698C77.7775 201.842 76.3084 200.319 74.5181 200.319Z" fill="#A01700"/>
<path d="M66.347 200.319C64.5567 200.319 63.0879 201.842 63.0879 203.698C63.0879 205.554 64.5567 207.077 66.347 207.077C68.1373 207.077 69.6063 205.554 69.6063 203.698C69.6063 201.842 68.1373 200.319 66.347 200.319Z" fill="#A01700"/>
<path d="M58.1304 200.319C56.3402 200.319 54.8711 201.842 54.8711 203.698C54.8711 205.554 56.3402 207.077 58.1304 207.077C59.9207 207.077 61.3898 205.554 61.3898 203.698C61.3898 201.842 59.9207 200.319 58.1304 200.319Z" fill="#A01700"/>
<path d="M49.9593 200.319C48.169 200.319 46.7002 201.842 46.7002 203.698C46.7002 205.554 48.169 207.077 49.9593 207.077C51.7496 207.077 53.2186 205.554 53.2186 203.698C53.2186 201.842 51.7496 200.319 49.9593 200.319Z" fill="#A01700"/>
<path d="M41.7887 200.319C39.9984 200.319 38.5293 201.842 38.5293 203.698C38.5293 205.554 39.9984 207.077 41.7887 207.077C43.5789 207.077 45.048 205.554 45.048 203.698C45.048 201.842 43.5789 200.319 41.7887 200.319Z" fill="#A01700"/>
<path d="M33.6165 200.319C31.8262 200.319 30.3574 201.842 30.3574 203.698C30.3574 205.554 31.8262 207.077 33.6165 207.077C35.4068 207.077 36.8759 205.554 36.8759 203.698C36.8759 201.842 35.4068 200.319 33.6165 200.319Z" fill="#A01700"/>
<path d="M25.4459 200.319C23.6556 200.319 22.1865 201.842 22.1865 203.698C22.1865 205.554 23.6556 207.077 25.4459 207.077C27.2362 207.077 28.7052 205.554 28.7052 203.698C28.7052 201.842 27.2362 200.319 25.4459 200.319Z" fill="#A01700"/>
<path d="M17.2737 200.319C15.4834 200.319 14.0146 201.842 14.0146 203.698C14.0146 205.554 15.4834 207.077 17.2737 207.077C19.064 207.077 20.5331 205.554 20.5331 203.698C20.5331 201.842 19.064 200.319 17.2737 200.319Z" fill="#A01700"/>
<path d="M9.10408 200.319C7.31379 200.319 5.84473 201.842 5.84473 203.698C5.84473 205.554 7.31379 207.077 9.10408 207.077C10.8944 207.077 12.3634 205.554 12.3634 203.698C12.3634 201.842 10.8944 200.319 9.10408 200.319Z" fill="#A01700"/>
<path d="M0.931927 200.319C-0.858368 200.319 -2.32715 201.842 -2.32715 203.698C-2.32715 205.554 -0.858368 207.077 0.931927 207.077C2.72222 207.077 4.19128 205.554 4.19128 203.698C4.19128 201.842 2.72222 200.319 0.931927 200.319Z" fill="#A01700"/>
<path d="M99.0308 191.656C97.1487 191.656 95.5879 193.274 95.5879 195.226C95.5879 197.177 97.1487 198.796 99.0308 198.796C100.913 198.796 102.474 197.177 102.474 195.226C102.474 193.274 100.913 191.656 99.0308 191.656Z" fill="#A01700"/>
<path d="M90.8599 191.656C88.9778 191.656 87.417 193.274 87.417 195.226C87.417 197.177 88.9778 198.796 90.8599 198.796C92.742 198.796 94.3027 197.177 94.3027 195.226C94.3027 193.274 92.742 191.656 90.8599 191.656Z" fill="#A01700"/>
<path d="M82.689 191.656C80.8069 191.656 79.2461 193.274 79.2461 195.226C79.2461 197.177 80.8069 198.796 82.689 198.796C84.5711 198.796 86.1318 197.177 86.1318 195.226C86.1318 193.274 84.5711 191.656 82.689 191.656Z" fill="#A01700"/>
<path d="M74.5181 191.656C72.636 191.656 71.0752 193.274 71.0752 195.226C71.0752 197.177 72.636 198.796 74.5181 198.796C76.4002 198.796 77.9609 197.177 77.9609 195.226C77.9609 193.274 76.4002 191.656 74.5181 191.656Z" fill="#A01700"/>
<path d="M66.3472 191.656C64.4651 191.656 62.9043 193.274 62.9043 195.226C62.9043 197.177 64.4651 198.796 66.3472 198.796C68.2293 198.796 69.79 197.177 69.79 195.226C69.79 193.274 68.2293 191.656 66.3472 191.656Z" fill="#A01700"/>
<path d="M58.1294 191.656C56.2473 191.656 54.6865 193.274 54.6865 195.226C54.6865 197.177 56.2473 198.796 58.1294 198.796C60.0115 198.796 61.5723 197.177 61.5723 195.226C61.5723 193.274 60.0115 191.656 58.1294 191.656Z" fill="#A01700"/>
<path d="M49.9595 191.656C48.0774 191.656 46.5166 193.274 46.5166 195.226C46.5166 197.177 48.0774 198.796 49.9595 198.796C51.8416 198.796 53.4024 197.177 53.4024 195.226C53.4024 193.274 51.8416 191.656 49.9595 191.656Z" fill="#A01700"/>
<path d="M41.7876 191.656C39.9055 191.656 38.3447 193.274 38.3447 195.226C38.3447 197.177 39.9055 198.796 41.7876 198.796C43.6697 198.796 45.2305 197.177 45.2305 195.226C45.2305 193.274 43.6697 191.656 41.7876 191.656Z" fill="#A01700"/>
<path d="M33.6167 191.656C31.7346 191.656 30.1738 193.274 30.1738 195.226C30.1738 197.177 31.7346 198.796 33.6167 198.796C35.4988 198.796 37.0596 197.177 37.0596 195.226C37.0596 193.274 35.4988 191.656 33.6167 191.656Z" fill="#A01700"/>
<path d="M25.4458 191.656C23.5637 191.656 22.0029 193.274 22.0029 195.226C22.0029 197.177 23.5637 198.796 25.4458 198.796C27.3279 198.796 28.8887 197.177 28.8887 195.226C28.8887 193.274 27.3279 191.656 25.4458 191.656Z" fill="#A01700"/>
<path d="M17.2739 191.656C15.3918 191.656 13.8311 193.274 13.8311 195.226C13.8311 197.177 15.3918 198.796 17.2739 198.796C19.156 198.796 20.7168 197.177 20.7168 195.226C20.7168 193.274 19.156 191.656 17.2739 191.656Z" fill="#A01700"/>
<path d="M9.10303 191.656C7.22093 191.656 5.66016 193.274 5.66016 195.226C5.66016 197.177 7.22093 198.796 9.10303 198.796C10.9851 198.796 12.5459 197.177 12.5459 195.226C12.5459 193.274 10.9851 191.656 9.10303 191.656Z" fill="#A01700"/>
<path d="M0.932133 191.656C-0.949972 191.656 -2.51074 193.274 -2.51074 195.226C-2.51074 197.177 -0.949972 198.796 0.932133 198.796C2.81424 198.796 4.37501 197.177 4.37501 195.226C4.37501 193.274 2.81424 191.656 0.932133 191.656Z" fill="#A01700"/>
<path d="M99.0306 190.466C101.008 190.466 102.611 188.804 102.611 186.754C102.611 184.703 101.008 183.041 99.0306 183.041C97.0531 183.041 95.4502 184.703 95.4502 186.754C95.4502 188.804 97.0531 190.466 99.0306 190.466Z" fill="#A01700"/>
<path d="M90.86 190.466C92.8375 190.466 94.4405 188.804 94.4405 186.754C94.4405 184.703 92.8375 183.041 90.86 183.041C88.8825 183.041 87.2793 184.703 87.2793 186.754C87.2793 188.804 88.8825 190.466 90.86 190.466Z" fill="#A01700"/>
<path d="M82.6888 190.466C84.6663 190.466 86.2696 188.804 86.2696 186.754C86.2696 184.703 84.6663 183.041 82.6888 183.041C80.7113 183.041 79.1084 184.703 79.1084 186.754C79.1084 188.804 80.7113 190.466 82.6888 190.466Z" fill="#A01700"/>
<path d="M74.5182 190.466C76.4957 190.466 78.0987 188.804 78.0987 186.754C78.0987 184.703 76.4957 183.041 74.5182 183.041C72.5407 183.041 70.9375 184.703 70.9375 186.754C70.9375 188.804 72.5407 190.466 74.5182 190.466Z" fill="#A01700"/>
<path d="M66.347 190.466C68.3246 190.466 69.9278 188.804 69.9278 186.754C69.9278 184.703 68.3246 183.041 66.347 183.041C64.3695 183.041 62.7666 184.703 62.7666 186.754C62.7666 188.804 64.3695 190.466 66.347 190.466Z" fill="#A01700"/>
<path d="M58.1296 190.466C60.1071 190.466 61.7103 188.804 61.7103 186.754C61.7103 184.703 60.1071 183.041 58.1296 183.041C56.152 183.041 54.5488 184.703 54.5488 186.754C54.5488 188.804 56.152 190.466 58.1296 190.466Z" fill="#A01700"/>
<path d="M49.9594 190.466C51.9369 190.466 53.5401 188.804 53.5401 186.754C53.5401 184.703 51.9369 183.041 49.9594 183.041C47.9818 183.041 46.3789 184.703 46.3789 186.754C46.3789 188.804 47.9818 190.466 49.9594 190.466Z" fill="#A01700"/>
<path d="M41.7878 190.466C43.7653 190.466 45.3682 188.804 45.3682 186.754C45.3682 184.703 43.7653 183.041 41.7878 183.041C39.8103 183.041 38.207 184.703 38.207 186.754C38.207 188.804 39.8103 190.466 41.7878 190.466Z" fill="#A01700"/>
<path d="M33.6166 190.466C35.5941 190.466 37.1973 188.804 37.1973 186.754C37.1973 184.703 35.5941 183.041 33.6166 183.041C31.6391 183.041 30.0361 184.703 30.0361 186.754C30.0361 188.804 31.6391 190.466 33.6166 190.466Z" fill="#A01700"/>
<path d="M25.445 190.466C27.4225 190.466 29.0254 188.804 29.0254 186.754C29.0254 184.703 27.4225 183.041 25.445 183.041C23.4675 183.041 21.8643 184.703 21.8643 186.754C21.8643 188.804 23.4675 190.466 25.445 190.466Z" fill="#A01700"/>
<path d="M17.2748 190.466C19.2523 190.466 20.8555 188.804 20.8555 186.754C20.8555 184.703 19.2523 183.041 17.2748 183.041C15.2973 183.041 13.6943 184.703 13.6943 186.754C13.6943 188.804 15.2973 190.466 17.2748 190.466Z" fill="#A01700"/>
<path d="M9.10319 190.466C11.0807 190.466 12.6836 188.804 12.6836 186.754C12.6836 184.703 11.0807 183.041 9.10319 183.041C7.12568 183.041 5.52246 184.703 5.52246 186.754C5.52246 188.804 7.12568 190.466 9.10319 190.466Z" fill="#A01700"/>
<path d="M0.932007 190.466C2.90951 190.466 4.51273 188.804 4.51273 186.754C4.51273 184.703 2.90951 183.041 0.932007 183.041C-1.0455 183.041 -2.64844 184.703 -2.64844 186.754C-2.64844 188.804 -1.0455 190.466 0.932007 190.466Z" fill="#A01700"/>
<path d="M99.0315 182.184C101.11 182.184 102.796 180.437 102.796 178.281C102.796 176.126 101.11 174.378 99.0315 174.378C96.9526 174.378 95.2676 176.126 95.2676 178.281C95.2676 180.437 96.9526 182.184 99.0315 182.184Z" fill="#A01700"/>
<path d="M90.8599 182.184C92.9389 182.184 94.6242 180.437 94.6242 178.281C94.6242 176.126 92.9389 174.378 90.8599 174.378C88.781 174.378 87.0957 176.126 87.0957 178.281C87.0957 180.437 88.781 182.184 90.8599 182.184Z" fill="#A01700"/>
<path d="M82.6888 182.184C84.7677 182.184 86.453 180.437 86.453 178.281C86.453 176.126 84.7677 174.378 82.6888 174.378C80.6099 174.378 78.9248 176.126 78.9248 178.281C78.9248 180.437 80.6099 182.184 82.6888 182.184Z" fill="#A01700"/>
<path d="M74.5182 182.184C76.5971 182.184 78.2824 180.437 78.2824 178.281C78.2824 176.126 76.5971 174.378 74.5182 174.378C72.4392 174.378 70.7539 176.126 70.7539 178.281C70.7539 180.437 72.4392 182.184 74.5182 182.184Z" fill="#A01700"/>
<path d="M66.3473 182.184C68.4262 182.184 70.1115 180.437 70.1115 178.281C70.1115 176.126 68.4262 174.378 66.3473 174.378C64.2683 174.378 62.583 176.126 62.583 178.281C62.583 180.437 64.2683 182.184 66.3473 182.184Z" fill="#A01700"/>
<path d="M58.1305 182.184C60.2094 182.184 61.8947 180.437 61.8947 178.281C61.8947 176.126 60.2094 174.378 58.1305 174.378C56.0515 174.378 54.3662 176.126 54.3662 178.281C54.3662 180.437 56.0515 182.184 58.1305 182.184Z" fill="#A01700"/>
<path d="M49.9583 182.184C52.0372 182.184 53.7225 180.437 53.7225 178.281C53.7225 176.126 52.0372 174.378 49.9583 174.378C47.8794 174.378 46.1943 176.126 46.1943 178.281C46.1943 180.437 47.8794 182.184 49.9583 182.184Z" fill="#A01700"/>
<path d="M41.7877 182.184C43.8666 182.184 45.5519 180.437 45.5519 178.281C45.5519 176.126 43.8666 174.378 41.7877 174.378C39.7088 174.378 38.0234 176.126 38.0234 178.281C38.0234 180.437 39.7088 182.184 41.7877 182.184Z" fill="#A01700"/>
<path d="M33.6155 182.184C35.6944 182.184 37.3798 180.437 37.3798 178.281C37.3798 176.126 35.6944 174.378 33.6155 174.378C31.5366 174.378 29.8516 176.126 29.8516 178.281C29.8516 180.437 31.5366 182.184 33.6155 182.184Z" fill="#A01700"/>
<path d="M25.4459 182.184C27.5248 182.184 29.2101 180.437 29.2101 178.281C29.2101 176.126 27.5248 174.378 25.4459 174.378C23.367 174.378 21.6816 176.126 21.6816 178.281C21.6816 180.437 23.367 182.184 25.4459 182.184Z" fill="#A01700"/>
<path d="M17.2747 182.184C19.3536 182.184 21.0389 180.437 21.0389 178.281C21.0389 176.126 19.3536 174.378 17.2747 174.378C15.1958 174.378 13.5107 176.126 13.5107 178.281C13.5107 180.437 15.1958 182.184 17.2747 182.184Z" fill="#A01700"/>
<path d="M9.10311 182.184C11.182 182.184 12.8674 180.437 12.8674 178.281C12.8674 176.126 11.182 174.378 9.10311 174.378C7.0242 174.378 5.33887 176.126 5.33887 178.281C5.33887 180.437 7.0242 182.184 9.10311 182.184Z" fill="#A01700"/>
<path d="M0.932213 182.184C3.01113 182.184 4.69646 180.437 4.69646 178.281C4.69646 176.126 3.01113 174.378 0.932213 174.378C-1.1467 174.378 -2.83203 176.126 -2.83203 178.281C-2.83203 180.437 -1.1467 182.184 0.932213 182.184Z" fill="#A01700"/>
<path d="M99.0307 165.763C96.8732 165.763 95.1289 167.572 95.1289 169.809C95.1289 172.046 96.8732 173.855 99.0307 173.855C101.188 173.855 102.933 172.046 102.933 169.809C102.933 167.572 101.188 165.763 99.0307 165.763Z" fill="#A01700"/>
<path d="M90.8608 165.763C88.7033 165.763 86.959 167.572 86.959 169.809C86.959 172.046 88.7033 173.855 90.8608 173.855C93.0183 173.855 94.7626 172.046 94.7626 169.809C94.7626 167.572 93.0183 165.763 90.8608 165.763Z" fill="#A01700"/>
<path d="M82.6889 165.763C80.5314 165.763 78.7871 167.572 78.7871 169.809C78.7871 172.046 80.5314 173.855 82.6889 173.855C84.8465 173.855 86.591 172.046 86.591 169.809C86.591 167.572 84.8465 165.763 82.6889 165.763Z" fill="#A01700"/>
<path d="M74.5183 165.763C72.3608 165.763 70.6162 167.572 70.6162 169.809C70.6162 172.046 72.3608 173.855 74.5183 173.855C76.6758 173.855 78.4201 172.046 78.4201 169.809C78.4201 167.572 76.6758 165.763 74.5183 165.763Z" fill="#A01700"/>
<path d="M66.3471 165.763C64.1896 165.763 62.4453 167.572 62.4453 169.809C62.4453 172.046 64.1896 173.855 66.3471 173.855C68.5047 173.855 70.2492 172.046 70.2492 169.809C70.2492 167.572 68.5047 165.763 66.3471 165.763Z" fill="#A01700"/>
<path d="M58.1303 165.763C55.9728 165.763 54.2285 167.572 54.2285 169.809C54.2285 172.046 55.9728 173.855 58.1303 173.855C60.2879 173.855 62.0321 172.046 62.0321 169.809C62.0321 167.572 60.2879 165.763 58.1303 165.763Z" fill="#A01700"/>
<path d="M49.9585 165.763C47.8009 165.763 46.0566 167.572 46.0566 169.809C46.0566 172.046 47.8009 173.855 49.9585 173.855C52.116 173.855 53.8605 172.046 53.8605 169.809C53.8605 167.572 52.116 165.763 49.9585 165.763Z" fill="#A01700"/>
<path d="M41.7876 165.763C39.63 165.763 37.8857 167.572 37.8857 169.809C37.8857 172.046 39.63 173.855 41.7876 173.855C43.9451 173.855 45.6894 172.046 45.6894 169.809C45.6894 167.572 43.9451 165.763 41.7876 165.763Z" fill="#A01700"/>
<path d="M33.6157 165.763C31.4581 165.763 29.7139 167.572 29.7139 169.809C29.7139 172.046 31.4581 173.855 33.6157 173.855C35.7732 173.855 37.5178 172.046 37.5178 169.809C37.5178 167.572 35.7732 165.763 33.6157 165.763Z" fill="#A01700"/>
<path d="M25.4458 165.763C23.2882 165.763 21.5439 167.572 21.5439 169.809C21.5439 172.046 23.2882 173.855 25.4458 173.855C27.6033 173.855 29.3476 172.046 29.3476 169.809C29.3476 167.572 27.6033 165.763 25.4458 165.763Z" fill="#A01700"/>
<path d="M17.2739 165.763C15.1163 165.763 13.3721 167.572 13.3721 169.809C13.3721 172.046 15.1163 173.855 17.2739 173.855C19.4314 173.855 21.176 172.046 21.176 169.809C21.176 167.572 19.4314 165.763 17.2739 165.763Z" fill="#A01700"/>
<path d="M9.10327 165.763C6.94573 165.763 5.20117 167.572 5.20117 169.809C5.20117 172.046 6.94573 173.855 9.10327 173.855C11.2608 173.855 13.0051 172.046 13.0051 169.809C13.0051 167.572 11.2608 165.763 9.10327 165.763Z" fill="#A01700"/>
<path d="M0.932087 165.763C-1.22545 165.763 -2.96973 167.572 -2.96973 169.809C-2.96973 172.046 -1.22545 173.855 0.932087 173.855C3.08962 173.855 4.83418 172.046 4.83418 169.809C4.83418 167.572 3.08962 165.763 0.932087 165.763Z" fill="#A01700"/>
<path d="M99.0316 157.053C96.7823 157.053 94.9463 158.957 94.9463 161.289C94.9463 163.621 96.7823 165.525 99.0316 165.525C101.281 165.525 103.117 163.621 103.117 161.289C103.117 158.957 101.281 157.053 99.0316 157.053Z" fill="#A01700"/>
<path d="M90.86 157.053C88.6107 157.053 86.7744 158.957 86.7744 161.289C86.7744 163.621 88.6107 165.525 90.86 165.525C93.1094 165.525 94.9456 163.621 94.9456 161.289C94.9456 158.957 93.1094 157.053 90.86 157.053Z" fill="#A01700"/>
<path d="M82.6888 157.053C80.4395 157.053 78.6035 158.957 78.6035 161.289C78.6035 163.621 80.4395 165.525 82.6888 165.525C84.9382 165.525 86.7745 163.621 86.7745 161.289C86.7745 158.957 84.9382 157.053 82.6888 157.053Z" fill="#A01700"/>
<path d="M74.5182 157.053C72.2689 157.053 70.4326 158.957 70.4326 161.289C70.4326 163.621 72.2689 165.525 74.5182 165.525C76.7676 165.525 78.6038 163.621 78.6038 161.289C78.6038 158.957 76.7676 157.053 74.5182 157.053Z" fill="#A01700"/>
<path d="M66.3471 157.053C64.0977 157.053 62.2617 158.957 62.2617 161.289C62.2617 163.621 64.0977 165.525 66.3471 165.525C68.5964 165.525 70.4327 163.621 70.4327 161.289C70.4327 158.957 68.5964 157.053 66.3471 157.053Z" fill="#A01700"/>
<path d="M58.1296 157.053C55.8802 157.053 54.0439 158.957 54.0439 161.289C54.0439 163.621 55.8802 165.525 58.1296 165.525C60.3789 165.525 62.2152 163.621 62.2152 161.289C62.2152 158.957 60.3789 157.053 58.1296 157.053Z" fill="#A01700"/>
<path d="M49.9584 157.053C47.709 157.053 45.873 158.957 45.873 161.289C45.873 163.621 47.709 165.525 49.9584 165.525C52.2077 165.525 54.044 163.621 54.044 161.289C54.044 158.957 52.2077 157.053 49.9584 157.053Z" fill="#A01700"/>
<path d="M41.7878 157.053C39.5384 157.053 37.7021 158.957 37.7021 161.289C37.7021 163.621 39.5384 165.525 41.7878 165.525C44.0371 165.525 45.8734 163.621 45.8734 161.289C45.8734 158.957 44.0371 157.053 41.7878 157.053Z" fill="#A01700"/>
<path d="M33.6166 157.053C31.3672 157.053 29.5312 158.957 29.5312 161.289C29.5312 163.621 31.3672 165.525 33.6166 165.525C35.8659 165.525 37.7022 163.621 37.7022 161.289C37.7022 158.957 35.8659 157.053 33.6166 157.053Z" fill="#A01700"/>
<path d="M25.446 157.053C23.1966 157.053 21.3604 158.957 21.3604 161.289C21.3604 163.621 23.1966 165.525 25.446 165.525C27.6953 165.525 29.5316 163.621 29.5316 161.289C29.5316 158.957 27.6953 157.053 25.446 157.053Z" fill="#A01700"/>
<path d="M17.2738 157.053C15.0245 157.053 13.1885 158.957 13.1885 161.289C13.1885 163.621 15.0245 165.525 17.2738 165.525C19.5232 165.525 21.3594 163.621 21.3594 161.289C21.3594 158.957 19.5232 157.053 17.2738 157.053Z" fill="#A01700"/>
<path d="M9.10319 157.053C6.85385 157.053 5.01758 158.957 5.01758 161.289C5.01758 163.621 6.85385 165.525 9.10319 165.525C11.3525 165.525 13.1888 163.621 13.1888 161.289C13.1888 158.957 11.3525 157.053 9.10319 157.053Z" fill="#A01700"/>
<path d="M0.932989 157.053C-1.31636 157.053 -3.15234 158.957 -3.15234 161.289C-3.15234 163.621 -1.31636 165.525 0.932989 165.525C3.18233 165.525 5.0186 163.621 5.0186 161.289C5.0186 158.957 3.18233 157.053 0.932989 157.053Z" fill="#A01700"/>
<path d="M99.0308 157.196C101.363 157.196 103.254 155.235 103.254 152.817C103.254 150.399 101.363 148.438 99.0308 148.438C96.6984 148.438 94.8076 150.399 94.8076 152.817C94.8076 155.235 96.6984 157.196 99.0308 157.196Z" fill="#A01700"/>
<path d="M90.8599 157.196C93.1923 157.196 95.0831 155.235 95.0831 152.817C95.0831 150.399 93.1923 148.438 90.8599 148.438C88.5275 148.438 86.6367 150.399 86.6367 152.817C86.6367 155.235 88.5275 157.196 90.8599 157.196Z" fill="#A01700"/>
<path d="M82.689 157.196C85.0214 157.196 86.9125 155.235 86.9125 152.817C86.9125 150.399 85.0214 148.438 82.689 148.438C80.3566 148.438 78.4658 150.399 78.4658 152.817C78.4658 155.235 80.3566 157.196 82.689 157.196Z" fill="#A01700"/>
<path d="M74.5181 157.196C76.8505 157.196 78.7413 155.235 78.7413 152.817C78.7413 150.399 76.8505 148.438 74.5181 148.438C72.1857 148.438 70.2949 150.399 70.2949 152.817C70.2949 155.235 72.1857 157.196 74.5181 157.196Z" fill="#A01700"/>
<path d="M66.3462 157.196C68.6787 157.196 70.5697 155.235 70.5697 152.817C70.5697 150.399 68.6787 148.438 66.3462 148.438C64.0138 148.438 62.123 150.399 62.123 152.817C62.123 155.235 64.0138 157.196 66.3462 157.196Z" fill="#A01700"/>
<path d="M58.1304 157.196C60.4629 157.196 62.3536 155.235 62.3536 152.817C62.3536 150.399 60.4629 148.438 58.1304 148.438C55.798 148.438 53.9072 150.399 53.9072 152.817C53.9072 155.235 55.798 157.196 58.1304 157.196Z" fill="#A01700"/>
<path d="M49.9585 157.196C52.291 157.196 54.182 155.235 54.182 152.817C54.182 150.399 52.291 148.438 49.9585 148.438C47.6261 148.438 45.7354 150.399 45.7354 152.817C45.7354 155.235 47.6261 157.196 49.9585 157.196Z" fill="#A01700"/>
<path d="M41.7876 157.196C44.1201 157.196 46.0108 155.235 46.0108 152.817C46.0108 150.399 44.1201 148.438 41.7876 148.438C39.4552 148.438 37.5645 150.399 37.5645 152.817C37.5645 155.235 39.4552 157.196 41.7876 157.196Z" fill="#A01700"/>
<path d="M33.6167 157.196C35.9492 157.196 37.8402 155.235 37.8402 152.817C37.8402 150.399 35.9492 148.438 33.6167 148.438C31.2843 148.438 29.3936 150.399 29.3936 152.817C29.3936 155.235 31.2843 157.196 33.6167 157.196Z" fill="#A01700"/>
<path d="M25.4458 157.196C27.7783 157.196 29.669 155.235 29.669 152.817C29.669 150.399 27.7783 148.438 25.4458 148.438C23.1134 148.438 21.2227 150.399 21.2227 152.817C21.2227 155.235 23.1134 157.196 25.4458 157.196Z" fill="#A01700"/>
<path d="M17.274 157.196C19.6064 157.196 21.4974 155.235 21.4974 152.817C21.4974 150.399 19.6064 148.438 17.274 148.438C14.9415 148.438 13.0508 150.399 13.0508 152.817C13.0508 155.235 14.9415 157.196 17.274 157.196Z" fill="#A01700"/>
<path d="M9.10307 157.196C11.4355 157.196 13.3262 155.235 13.3262 152.817C13.3262 150.399 11.4355 148.438 9.10307 148.438C6.77062 148.438 4.87988 150.399 4.87988 152.817C4.87988 155.235 6.77062 157.196 9.10307 157.196Z" fill="#A01700"/>
<path d="M0.932166 157.196C3.26461 157.196 5.15563 155.235 5.15563 152.817C5.15563 150.399 3.26461 148.438 0.932166 148.438C-1.40028 148.438 -3.29102 150.399 -3.29102 152.817C-3.29102 155.235 -1.40028 157.196 0.932166 157.196Z" fill="#A01700"/>
<path d="M99.0317 148.914C101.466 148.914 103.439 146.868 103.439 144.345C103.439 141.821 101.466 139.776 99.0317 139.776C96.5978 139.776 94.625 141.821 94.625 144.345C94.625 146.868 96.5978 148.914 99.0317 148.914Z" fill="#A01700"/>
<path d="M90.8601 148.914C93.294 148.914 95.2671 146.868 95.2671 144.345C95.2671 141.821 93.294 139.776 90.8601 139.776C88.4263 139.776 86.4531 141.821 86.4531 144.345C86.4531 146.868 88.4263 148.914 90.8601 148.914Z" fill="#A01700"/>
<path d="M82.6889 148.914C85.1228 148.914 87.0959 146.868 87.0959 144.345C87.0959 141.821 85.1228 139.776 82.6889 139.776C80.2551 139.776 78.2822 141.821 78.2822 144.345C78.2822 146.868 80.2551 148.914 82.6889 148.914Z" fill="#A01700"/>
<path d="M74.5173 148.914C76.9512 148.914 78.9243 146.868 78.9243 144.345C78.9243 141.821 76.9512 139.776 74.5173 139.776C72.0835 139.776 70.1104 141.821 70.1104 144.345C70.1104 146.868 72.0835 148.914 74.5173 148.914Z" fill="#A01700"/>
<path d="M66.3471 148.914C68.781 148.914 70.7541 146.868 70.7541 144.345C70.7541 141.821 68.781 139.776 66.3471 139.776C63.9133 139.776 61.9404 141.821 61.9404 144.345C61.9404 146.868 63.9133 148.914 66.3471 148.914Z" fill="#A01700"/>
<path d="M58.1296 148.914C60.5635 148.914 62.5366 146.868 62.5366 144.345C62.5366 141.821 60.5635 139.776 58.1296 139.776C55.6958 139.776 53.7227 141.821 53.7227 144.345C53.7227 146.868 55.6958 148.914 58.1296 148.914Z" fill="#A01700"/>
<path d="M49.9594 148.914C52.3933 148.914 54.3664 146.868 54.3664 144.345C54.3664 141.821 52.3933 139.776 49.9594 139.776C47.5256 139.776 45.5527 141.821 45.5527 144.345C45.5527 146.868 47.5256 148.914 49.9594 148.914Z" fill="#A01700"/>
<path d="M41.7878 148.914C44.2217 148.914 46.1948 146.868 46.1948 144.345C46.1948 141.821 44.2217 139.776 41.7878 139.776C39.354 139.776 37.3809 141.821 37.3809 144.345C37.3809 146.868 39.354 148.914 41.7878 148.914Z" fill="#A01700"/>
<path d="M33.6167 148.914C36.0505 148.914 38.0236 146.868 38.0236 144.345C38.0236 141.821 36.0505 139.776 33.6167 139.776C31.1828 139.776 29.21 141.821 29.21 144.345C29.21 146.868 31.1828 148.914 33.6167 148.914Z" fill="#A01700"/>
<path d="M25.446 148.914C27.8799 148.914 29.853 146.868 29.853 144.345C29.853 141.821 27.8799 139.776 25.446 139.776C23.0122 139.776 21.0391 141.821 21.0391 144.345C21.0391 146.868 23.0122 148.914 25.446 148.914Z" fill="#A01700"/>
<path d="M17.2739 148.914C19.7077 148.914 21.6809 146.868 21.6809 144.345C21.6809 141.821 19.7077 139.776 17.2739 139.776C14.84 139.776 12.8672 141.821 12.8672 144.345C12.8672 146.868 14.84 148.914 17.2739 148.914Z" fill="#A01700"/>
<path d="M9.10425 148.914C11.5381 148.914 13.5112 146.868 13.5112 144.345C13.5112 141.821 11.5381 139.776 9.10425 139.776C6.67039 139.776 4.69727 141.821 4.69727 144.345C4.69727 146.868 6.67039 148.914 9.10425 148.914Z" fill="#A01700"/>
<path d="M0.932092 148.914C3.36594 148.914 5.33907 146.868 5.33907 144.345C5.33907 141.821 3.36594 139.776 0.932092 139.776C-1.50176 139.776 -3.47461 141.821 -3.47461 144.345C-3.47461 146.868 -1.50176 148.914 0.932092 148.914Z" fill="#A01700"/>
<path d="M99.0317 140.68C101.592 140.68 103.668 138.527 103.668 135.872C103.668 133.217 101.592 131.065 99.0317 131.065C96.4711 131.065 94.3955 133.217 94.3955 135.872C94.3955 138.527 96.4711 140.68 99.0317 140.68Z" fill="#A01700"/>
<path d="M90.8611 140.68C93.4217 140.68 95.4975 138.527 95.4975 135.872C95.4975 133.217 93.4217 131.065 90.8611 131.065C88.3004 131.065 86.2246 133.217 86.2246 135.872C86.2246 138.527 88.3004 140.68 90.8611 140.68Z" fill="#A01700"/>
<path d="M82.6889 140.68C85.2495 140.68 87.3254 138.527 87.3254 135.872C87.3254 133.217 85.2495 131.065 82.6889 131.065C80.1283 131.065 78.0527 133.217 78.0527 135.872C78.0527 138.527 80.1283 140.68 82.6889 140.68Z" fill="#A01700"/>
<path d="M74.5183 140.68C77.0789 140.68 79.1547 138.527 79.1547 135.872C79.1547 133.217 77.0789 131.065 74.5183 131.065C71.9577 131.065 69.8818 133.217 69.8818 135.872C69.8818 138.527 71.9577 140.68 74.5183 140.68Z" fill="#A01700"/>
<path d="M66.3461 140.68C68.9067 140.68 70.9826 138.527 70.9826 135.872C70.9826 133.217 68.9067 131.065 66.3461 131.065C63.7855 131.065 61.71 133.217 61.71 135.872C61.71 138.527 63.7855 140.68 66.3461 140.68Z" fill="#A01700"/>
<path d="M58.1306 140.68C60.6912 140.68 62.767 138.527 62.767 135.872C62.767 133.217 60.6912 131.065 58.1306 131.065C55.57 131.065 53.4941 133.217 53.4941 135.872C53.4941 138.527 55.57 140.68 58.1306 140.68Z" fill="#A01700"/>
<path d="M49.9584 140.68C52.5191 140.68 54.5949 138.527 54.5949 135.872C54.5949 133.217 52.5191 131.065 49.9584 131.065C47.3978 131.065 45.3223 133.217 45.3223 135.872C45.3223 138.527 47.3978 140.68 49.9584 140.68Z" fill="#A01700"/>
<path d="M41.7878 140.68C44.3484 140.68 46.4243 138.527 46.4243 135.872C46.4243 133.217 44.3484 131.065 41.7878 131.065C39.2272 131.065 37.1514 133.217 37.1514 135.872C37.1514 138.527 39.2272 140.68 41.7878 140.68Z" fill="#A01700"/>
<path d="M33.6166 140.68C36.1773 140.68 38.2531 138.527 38.2531 135.872C38.2531 133.217 36.1773 131.065 33.6166 131.065C31.056 131.065 28.9805 133.217 28.9805 135.872C28.9805 138.527 31.056 140.68 33.6166 140.68Z" fill="#A01700"/>
<path d="M25.446 140.68C28.0066 140.68 30.0825 138.527 30.0825 135.872C30.0825 133.217 28.0066 131.065 25.446 131.065C22.8854 131.065 20.8096 133.217 20.8096 135.872C20.8096 138.527 22.8854 140.68 25.446 140.68Z" fill="#A01700"/>
<path d="M17.2739 140.68C19.8345 140.68 21.9103 138.527 21.9103 135.872C21.9103 133.217 19.8345 131.065 17.2739 131.065C14.7132 131.065 12.6377 133.217 12.6377 135.872C12.6377 138.527 14.7132 140.68 17.2739 140.68Z" fill="#A01700"/>
<path d="M9.10325 140.68C11.6639 140.68 13.7397 138.527 13.7397 135.872C13.7397 133.217 11.6639 131.065 9.10325 131.065C6.54263 131.065 4.4668 133.217 4.4668 135.872C4.4668 138.527 6.54263 140.68 9.10325 140.68Z" fill="#A01700"/>
<path d="M0.933045 140.68C3.49366 140.68 5.5695 138.527 5.5695 135.872C5.5695 133.217 3.49366 131.065 0.933045 131.065C-1.62757 131.065 -3.70312 133.217 -3.70312 135.872C-3.70312 138.527 -1.62757 140.68 0.933045 140.68Z" fill="#A01700"/>
<path d="M99.0309 122.45C96.3684 122.45 94.2568 124.687 94.2568 127.4C94.2568 130.113 96.4143 132.35 99.0309 132.35C101.647 132.35 103.805 130.113 103.805 127.4C103.805 124.687 101.647 122.45 99.0309 122.45Z" fill="#A01700"/>
<path d="M90.86 122.45C88.1975 122.45 86.0859 124.687 86.0859 127.4C86.0859 130.113 88.2434 132.35 90.86 132.35C93.4765 132.35 95.634 130.113 95.634 127.4C95.634 124.687 93.4765 122.45 90.86 122.45Z" fill="#A01700"/>
<path d="M82.6891 122.45C80.0266 122.45 77.915 124.687 77.915 127.4C77.915 130.113 80.0725 132.35 82.6891 132.35C85.3056 132.35 87.4634 130.113 87.4634 127.4C87.4634 124.687 85.3056 122.45 82.6891 122.45Z" fill="#A01700"/>
<path d="M74.5182 122.45C71.8557 122.45 69.7441 124.687 69.7441 127.4C69.7441 130.113 71.9016 132.35 74.5182 132.35C77.1347 132.35 79.2922 130.113 79.2922 127.4C79.2922 124.687 77.1347 122.45 74.5182 122.45Z" fill="#A01700"/>
<path d="M66.3463 122.45C63.6838 122.45 61.5723 124.687 61.5723 127.4C61.5723 130.113 63.7297 132.35 66.3463 132.35C68.9629 132.35 71.1206 130.113 71.1206 127.4C71.1206 124.687 68.9629 122.45 66.3463 122.45Z" fill="#A01700"/>
<path d="M58.1295 122.45C55.467 122.45 53.3555 124.687 53.3555 127.4C53.3555 130.113 55.5129 132.35 58.1295 132.35C60.7461 132.35 62.9035 130.113 62.9035 127.4C62.9035 124.687 60.7461 122.45 58.1295 122.45Z" fill="#A01700"/>
<path d="M49.9586 122.45C47.2961 122.45 45.1846 124.687 45.1846 127.4C45.1846 130.113 47.342 132.35 49.9586 132.35C52.5752 132.35 54.7329 130.113 54.7329 127.4C54.7329 124.687 52.5752 122.45 49.9586 122.45Z" fill="#A01700"/>
<path d="M41.7877 122.45C39.1252 122.45 37.0137 124.687 37.0137 127.4C37.0137 130.113 39.1711 132.35 41.7877 132.35C44.4043 132.35 46.5617 130.113 46.5617 127.4C46.5617 124.687 44.4043 122.45 41.7877 122.45Z" fill="#A01700"/>
<path d="M33.6158 122.45C30.9533 122.45 28.8418 124.687 28.8418 127.4C28.8418 130.113 30.9992 132.35 33.6158 132.35C36.2324 132.35 38.3901 130.113 38.3901 127.4C38.3901 124.687 36.2324 122.45 33.6158 122.45Z" fill="#A01700"/>
<path d="M25.4459 122.45C22.7834 122.45 20.6719 124.687 20.6719 127.4C20.6719 130.113 22.8293 132.35 25.4459 132.35C28.0625 132.35 30.2199 130.113 30.2199 127.4C30.2199 124.687 28.0625 122.45 25.4459 122.45Z" fill="#A01700"/>
<path d="M17.274 122.45C14.6115 122.45 12.5 124.687 12.5 127.4C12.5 130.113 14.6574 132.35 17.274 132.35C19.8906 132.35 22.0483 130.113 22.0483 127.4C22.0483 124.687 19.8906 122.45 17.274 122.45Z" fill="#A01700"/>
<path d="M9.10312 122.45C6.44063 122.45 4.3291 124.687 4.3291 127.4C4.3291 130.113 6.48654 132.35 9.10312 132.35C11.7197 132.35 13.8771 130.113 13.8771 127.4C13.8771 124.687 11.7197 122.45 9.10312 122.45Z" fill="#A01700"/>
<path d="M0.932223 122.45C-1.73027 122.45 -3.8418 124.687 -3.8418 127.4C-3.8418 130.113 -1.68436 132.35 0.932223 132.35C3.54881 132.35 5.70652 130.113 5.70652 127.4C5.70652 124.687 3.54881 122.45 0.932223 122.45Z" fill="#A01700"/>
</g>
<path d="M8.41512 280.807L-94.6873 182.805L-198.02 295.182L-4.7596 462.2L88.244 358.391L8.41512 280.807Z" fill="#FF3500"/>
<mask id="mask1_499_48678" style="mask-type:luminance" maskUnits="userSpaceOnUse" x="-407" y="423" width="437" height="128">
<path d="M-294.511 426.121L-406.841 549.207L-82.1548 550.111L29.8076 423.122L-294.511 426.121Z" fill="white"/>
</mask>
<g mask="url(#mask1_499_48678)">
<path d="M3.87057 551.062C3.87057 548.111 1.57534 545.731 -1.27077 545.731C-4.11688 545.731 -6.41211 548.111 -6.41211 551.062C-6.41211 554.013 -4.11688 556.393 -1.27077 556.393C1.57534 556.393 3.87057 554.013 3.87057 551.062Z" fill="#A01700"/>
<path d="M3.87057 542.59C3.87057 539.639 1.57534 537.259 -1.27077 537.259C-4.11688 537.259 -6.41211 539.639 -6.41211 542.59C-6.41211 545.541 -4.11688 547.921 -1.27077 547.921C1.57534 547.921 3.87057 545.541 3.87057 542.59Z" fill="#A01700"/>
<path d="M3.87057 534.118C3.87057 531.167 1.57534 528.787 -1.27077 528.787C-4.11688 528.787 -6.41211 531.167 -6.41211 534.118C-6.41211 537.069 -4.11688 539.449 -1.27077 539.449C1.57534 539.449 3.87057 537.069 3.87057 534.118Z" fill="#A01700"/>
<path d="M3.87057 525.646C3.87057 522.695 1.57534 520.315 -1.27077 520.315C-4.11688 520.315 -6.41211 522.695 -6.41211 525.646C-6.41211 528.598 -4.11688 530.977 -1.27077 530.977C1.57534 530.977 3.87057 528.598 3.87057 525.646Z" fill="#A01700"/>
<path d="M3.87057 517.127C3.87057 514.176 1.57534 511.796 -1.27077 511.796C-4.11688 511.796 -6.41211 514.176 -6.41211 517.127C-6.41211 520.078 -4.11688 522.458 -1.27077 522.458C1.57534 522.458 3.87057 520.078 3.87057 517.127Z" fill="#A01700"/>
<path d="M3.87057 508.653C3.87057 505.702 1.57534 503.322 -1.27077 503.322C-4.11688 503.322 -6.41211 505.702 -6.41211 508.653C-6.41211 511.604 -4.11688 513.984 -1.27077 513.984C1.57534 513.984 3.87057 511.604 3.87057 508.653Z" fill="#A01700"/>
<path d="M3.87057 500.181C3.87057 497.23 1.57534 494.851 -1.27077 494.851C-4.11688 494.851 -6.41211 497.23 -6.41211 500.181C-6.41211 503.132 -4.11688 505.512 -1.27077 505.512C1.57534 505.512 3.87057 503.132 3.87057 500.181Z" fill="#A01700"/>
<path d="M3.87057 491.71C3.87057 488.758 1.57534 486.379 -1.27077 486.379C-4.11688 486.379 -6.41211 488.758 -6.41211 491.71C-6.41211 494.661 -4.11688 497.04 -1.27077 497.04C1.57534 497.04 3.87057 494.661 3.87057 491.71Z" fill="#A01700"/>
<path d="M3.87057 483.236C3.87057 480.285 1.57534 477.905 -1.27077 477.905C-4.11688 477.905 -6.41211 480.285 -6.41211 483.236C-6.41211 486.187 -4.11688 488.567 -1.27077 488.567C1.57534 488.567 3.87057 486.187 3.87057 483.236Z" fill="#A01700"/>
<path d="M3.87057 474.764C3.87057 471.813 1.57534 469.433 -1.27077 469.433C-4.11688 469.433 -6.41211 471.813 -6.41211 474.764C-6.41211 477.715 -4.11688 480.095 -1.27077 480.095C1.57534 480.095 3.87057 477.715 3.87057 474.764Z" fill="#A01700"/>
<path d="M6.89941 556.632C9.86567 556.632 12.2702 554.139 12.2702 551.063C12.2702 547.988 9.86567 545.494 6.89941 545.494C3.93315 545.494 1.52832 547.988 1.52832 551.063C1.52832 554.139 3.93315 556.632 6.89941 556.632Z" fill="#A01700"/>
<path d="M6.89941 548.16C9.86567 548.16 12.2702 545.667 12.2702 542.591C12.2702 539.516 9.86567 537.022 6.89941 537.022C3.93315 537.022 1.52832 539.516 1.52832 542.591C1.52832 545.667 3.93315 548.16 6.89941 548.16Z" fill="#A01700"/>
<path d="M6.89941 539.688C9.86567 539.688 12.2702 537.195 12.2702 534.119C12.2702 531.044 9.86567 528.551 6.89941 528.551C3.93315 528.551 1.52832 531.044 1.52832 534.119C1.52832 537.195 3.93315 539.688 6.89941 539.688Z" fill="#A01700"/>
<path d="M6.89941 531.215C9.86567 531.215 12.2702 528.722 12.2702 525.646C12.2702 522.57 9.86567 520.077 6.89941 520.077C3.93315 520.077 1.52832 522.57 1.52832 525.646C1.52832 528.722 3.93315 531.215 6.89941 531.215Z" fill="#A01700"/>
<path d="M6.89941 522.695C9.86567 522.695 12.2702 520.202 12.2702 517.126C12.2702 514.051 9.86567 511.557 6.89941 511.557C3.93315 511.557 1.52832 514.051 1.52832 517.126C1.52832 520.202 3.93315 522.695 6.89941 522.695Z" fill="#A01700"/>
<path d="M6.89941 514.223C9.86567 514.223 12.2702 511.73 12.2702 508.655C12.2702 505.579 9.86567 503.086 6.89941 503.086C3.93315 503.086 1.52832 505.579 1.52832 508.655C1.52832 511.73 3.93315 514.223 6.89941 514.223Z" fill="#A01700"/>
<path d="M6.89941 505.75C9.86567 505.75 12.2702 503.257 12.2702 500.181C12.2702 497.105 9.86567 494.612 6.89941 494.612C3.93315 494.612 1.52832 497.105 1.52832 500.181C1.52832 503.257 3.93315 505.75 6.89941 505.75Z" fill="#A01700"/>
<path d="M6.89941 497.28C9.86567 497.28 12.2702 494.786 12.2702 491.711C12.2702 488.635 9.86567 486.142 6.89941 486.142C3.93315 486.142 1.52832 488.635 1.52832 491.711C1.52832 494.786 3.93315 497.28 6.89941 497.28Z" fill="#A01700"/>
<path d="M6.89941 488.806C9.86567 488.806 12.2702 486.313 12.2702 483.237C12.2702 480.162 9.86567 477.668 6.89941 477.668C3.93315 477.668 1.52832 480.162 1.52832 483.237C1.52832 486.313 3.93315 488.806 6.89941 488.806Z" fill="#A01700"/>
<path d="M6.89941 480.334C9.86567 480.334 12.2702 477.841 12.2702 474.766C12.2702 471.69 9.86567 469.197 6.89941 469.197C3.93315 469.197 1.52832 471.69 1.52832 474.766C1.52832 477.841 3.93315 480.334 6.89941 480.334Z" fill="#A01700"/>
<path d="M15.0712 556.822C18.1389 556.822 20.6258 554.244 20.6258 551.063C20.6258 547.882 18.1389 545.303 15.0712 545.303C12.0035 545.303 9.5166 547.882 9.5166 551.063C9.5166 554.244 12.0035 556.822 15.0712 556.822Z" fill="#A01700"/>
<path d="M15.0712 548.35C18.1389 548.35 20.6258 545.772 20.6258 542.591C20.6258 539.41 18.1389 536.832 15.0712 536.832C12.0035 536.832 9.5166 539.41 9.5166 542.591C9.5166 545.772 12.0035 548.35 15.0712 548.35Z" fill="#A01700"/>
<path d="M15.0712 539.878C18.1389 539.878 20.6258 537.3 20.6258 534.119C20.6258 530.938 18.1389 528.36 15.0712 528.36C12.0035 528.36 9.5166 530.938 9.5166 534.119C9.5166 537.3 12.0035 539.878 15.0712 539.878Z" fill="#A01700"/>
<path d="M15.0712 531.405C18.1389 531.405 20.6258 528.826 20.6258 525.646C20.6258 522.465 18.1389 519.886 15.0712 519.886C12.0035 519.886 9.5166 522.465 9.5166 525.646C9.5166 528.826 12.0035 531.405 15.0712 531.405Z" fill="#A01700"/>
<path d="M15.0712 522.885C18.1389 522.885 20.6258 520.307 20.6258 517.126C20.6258 513.945 18.1389 511.367 15.0712 511.367C12.0035 511.367 9.5166 513.945 9.5166 517.126C9.5166 520.307 12.0035 522.885 15.0712 522.885Z" fill="#A01700"/>
<path d="M15.0712 514.413C18.1389 514.413 20.6258 511.835 20.6258 508.654C20.6258 505.473 18.1389 502.895 15.0712 502.895C12.0035 502.895 9.5166 505.473 9.5166 508.654C9.5166 511.835 12.0035 514.413 15.0712 514.413Z" fill="#A01700"/>
<path d="M15.0712 505.94C18.1389 505.94 20.6258 503.361 20.6258 500.181C20.6258 497 18.1389 494.421 15.0712 494.421C12.0035 494.421 9.5166 497 9.5166 500.181C9.5166 503.361 12.0035 505.94 15.0712 505.94Z" fill="#A01700"/>
<path d="M15.0712 497.47C18.1389 497.47 20.6258 494.891 20.6258 491.71C20.6258 488.53 18.1389 485.951 15.0712 485.951C12.0035 485.951 9.5166 488.53 9.5166 491.71C9.5166 494.891 12.0035 497.47 15.0712 497.47Z" fill="#A01700"/>
<path d="M15.0712 488.996C18.1389 488.996 20.6258 486.418 20.6258 483.237C20.6258 480.056 18.1389 477.478 15.0712 477.478C12.0035 477.478 9.5166 480.056 9.5166 483.237C9.5166 486.418 12.0035 488.996 15.0712 488.996Z" fill="#A01700"/>
<path d="M15.0712 480.524C18.1389 480.524 20.6258 477.946 20.6258 474.765C20.6258 471.584 18.1389 469.006 15.0712 469.006C12.0035 469.006 9.5166 471.584 9.5166 474.765C9.5166 477.946 12.0035 480.524 15.0712 480.524Z" fill="#A01700"/>
<path d="M23.2423 556.966C26.386 556.966 28.9344 554.324 28.9344 551.064C28.9344 547.805 26.386 545.162 23.2423 545.162C20.0985 545.162 17.5498 547.805 17.5498 551.064C17.5498 554.324 20.0985 556.966 23.2423 556.966Z" fill="#A01700"/>
<path d="M23.2423 548.493C26.386 548.493 28.9344 545.85 28.9344 542.591C28.9344 539.331 26.386 536.689 23.2423 536.689C20.0985 536.689 17.5498 539.331 17.5498 542.591C17.5498 545.85 20.0985 548.493 23.2423 548.493Z" fill="#A01700"/>
<path d="M23.2423 540.021C26.386 540.021 28.9344 537.378 28.9344 534.119C28.9344 530.859 26.386 528.217 23.2423 528.217C20.0985 528.217 17.5498 530.859 17.5498 534.119C17.5498 537.378 20.0985 540.021 23.2423 540.021Z" fill="#A01700"/>
<path d="M23.2423 531.549C26.386 531.549 28.9344 528.907 28.9344 525.647C28.9344 522.387 26.386 519.745 23.2423 519.745C20.0985 519.745 17.5498 522.387 17.5498 525.647C17.5498 528.907 20.0985 531.549 23.2423 531.549Z" fill="#A01700"/>
<path d="M23.2423 523.028C26.386 523.028 28.9344 520.385 28.9344 517.126C28.9344 513.866 26.386 511.224 23.2423 511.224C20.0985 511.224 17.5498 513.866 17.5498 517.126C17.5498 520.385 20.0985 523.028 23.2423 523.028Z" fill="#A01700"/>
<path d="M23.2423 514.556C26.386 514.556 28.9344 511.913 28.9344 508.654C28.9344 505.394 26.386 502.752 23.2423 502.752C20.0985 502.752 17.5498 505.394 17.5498 508.654C17.5498 511.913 20.0985 514.556 23.2423 514.556Z" fill="#A01700"/>
<path d="M23.2423 506.084C26.386 506.084 28.9344 503.442 28.9344 500.182C28.9344 496.922 26.386 494.28 23.2423 494.28C20.0985 494.28 17.5498 496.922 17.5498 500.182C17.5498 503.442 20.0985 506.084 23.2423 506.084Z" fill="#A01700"/>
<path d="M23.2423 497.612C26.386 497.612 28.9344 494.97 28.9344 491.71C28.9344 488.451 26.386 485.808 23.2423 485.808C20.0985 485.808 17.5498 488.451 17.5498 491.71C17.5498 494.97 20.0985 497.612 23.2423 497.612Z" fill="#A01700"/>
<path d="M23.2423 489.14C26.386 489.14 28.9344 486.498 28.9344 483.238C28.9344 479.979 26.386 477.336 23.2423 477.336C20.0985 477.336 17.5498 479.979 17.5498 483.238C17.5498 486.498 20.0985 489.14 23.2423 489.14Z" fill="#A01700"/>
<path d="M23.2423 480.667C26.386 480.667 28.9344 478.024 28.9344 474.765C28.9344 471.505 26.386 468.863 23.2423 468.863C20.0985 468.863 17.5498 471.505 17.5498 474.765C17.5498 478.024 20.0985 480.667 23.2423 480.667Z" fill="#A01700"/>
<path d="M3.87057 466.958C3.87057 464.007 1.57534 461.628 -1.27077 461.628C-4.11688 461.628 -6.41211 464.007 -6.41211 466.958C-6.41211 469.91 -4.11688 472.289 -1.27077 472.289C1.57534 472.289 3.87057 469.91 3.87057 466.958Z" fill="#A01700"/>
<path d="M3.87057 458.487C3.87057 455.536 1.57534 453.156 -1.27077 453.156C-4.11688 453.156 -6.41211 455.536 -6.41211 458.487C-6.41211 461.438 -4.11688 463.818 -1.27077 463.818C1.57534 463.818 3.87057 461.438 3.87057 458.487Z" fill="#A01700"/>
<path d="M3.87057 450.015C3.87057 447.064 1.57534 444.684 -1.27077 444.684C-4.11688 444.684 -6.41211 447.064 -6.41211 450.015C-6.41211 452.966 -4.11688 455.346 -1.27077 455.346C1.57534 455.346 3.87057 452.966 3.87057 450.015Z" fill="#A01700"/>
<path d="M3.87057 441.541C3.87057 438.59 1.57534 436.21 -1.27077 436.21C-4.11688 436.21 -6.41211 438.59 -6.41211 441.541C-6.41211 444.492 -4.11688 446.872 -1.27077 446.872C1.57534 446.872 3.87057 444.492 3.87057 441.541Z" fill="#A01700"/>
<path d="M3.87057 433.071C3.87057 430.12 1.57534 427.74 -1.27077 427.74C-4.11688 427.74 -6.41211 430.12 -6.41211 433.071C-6.41211 436.022 -4.11688 438.402 -1.27077 438.402C1.57534 438.402 3.87057 436.022 3.87057 433.071Z" fill="#A01700"/>
<path d="M3.87057 424.598C3.87057 421.646 1.57534 419.267 -1.27077 419.267C-4.11688 419.267 -6.41211 421.646 -6.41211 424.598C-6.41211 427.549 -4.11688 429.928 -1.27077 429.928C1.57534 429.928 3.87057 427.549 3.87057 424.598Z" fill="#A01700"/>
<path d="M6.89941 472.527C9.86567 472.527 12.2702 470.034 12.2702 466.958C12.2702 463.882 9.86567 461.389 6.89941 461.389C3.93315 461.389 1.52832 463.882 1.52832 466.958C1.52832 470.034 3.93315 472.527 6.89941 472.527Z" fill="#A01700"/>
<path d="M6.89941 464.055C9.86567 464.055 12.2702 461.562 12.2702 458.486C12.2702 455.411 9.86567 452.917 6.89941 452.917C3.93315 452.917 1.52832 455.411 1.52832 458.486C1.52832 461.562 3.93315 464.055 6.89941 464.055Z" fill="#A01700"/>
<path d="M6.89941 455.583C9.86567 455.583 12.2702 453.09 12.2702 450.014C12.2702 446.939 9.86567 444.445 6.89941 444.445C3.93315 444.445 1.52832 446.939 1.52832 450.014C1.52832 453.09 3.93315 455.583 6.89941 455.583Z" fill="#A01700"/>
<path d="M6.89941 447.111C9.86567 447.111 12.2702 444.618 12.2702 441.543C12.2702 438.467 9.86567 435.974 6.89941 435.974C3.93315 435.974 1.52832 438.467 1.52832 441.543C1.52832 444.618 3.93315 447.111 6.89941 447.111Z" fill="#A01700"/>
<path d="M6.89941 438.639C9.86567 438.639 12.2702 436.146 12.2702 433.071C12.2702 429.995 9.86567 427.502 6.89941 427.502C3.93315 427.502 1.52832 429.995 1.52832 433.071C1.52832 436.146 3.93315 438.639 6.89941 438.639Z" fill="#A01700"/>
<path d="M6.89941 430.166C9.86567 430.166 12.2702 427.673 12.2702 424.597C12.2702 421.522 9.86567 419.028 6.89941 419.028C3.93315 419.028 1.52832 421.522 1.52832 424.597C1.52832 427.673 3.93315 430.166 6.89941 430.166Z" fill="#A01700"/>
<path d="M15.0712 472.718C18.1389 472.718 20.6258 470.14 20.6258 466.959C20.6258 463.778 18.1389 461.2 15.0712 461.2C12.0035 461.2 9.5166 463.778 9.5166 466.959C9.5166 470.14 12.0035 472.718 15.0712 472.718Z" fill="#A01700"/>
<path d="M15.0712 464.247C18.1389 464.247 20.6258 461.668 20.6258 458.487C20.6258 455.307 18.1389 452.728 15.0712 452.728C12.0035 452.728 9.5166 455.307 9.5166 458.487C9.5166 461.668 12.0035 464.247 15.0712 464.247Z" fill="#A01700"/>
<path d="M15.0712 455.775C18.1389 455.775 20.6258 453.196 20.6258 450.016C20.6258 446.835 18.1389 444.256 15.0712 444.256C12.0035 444.256 9.5166 446.835 9.5166 450.016C9.5166 453.196 12.0035 455.775 15.0712 455.775Z" fill="#A01700"/>
<path d="M15.0712 447.301C18.1389 447.301 20.6258 444.723 20.6258 441.542C20.6258 438.361 18.1389 435.783 15.0712 435.783C12.0035 435.783 9.5166 438.361 9.5166 441.542C9.5166 444.723 12.0035 447.301 15.0712 447.301Z" fill="#A01700"/>
<path d="M15.0712 438.829C18.1389 438.829 20.6258 436.251 20.6258 433.07C20.6258 429.889 18.1389 427.311 15.0712 427.311C12.0035 427.311 9.5166 429.889 9.5166 433.07C9.5166 436.251 12.0035 438.829 15.0712 438.829Z" fill="#A01700"/>
<path d="M15.0712 430.358C18.1389 430.358 20.6258 427.779 20.6258 424.598C20.6258 421.418 18.1389 418.839 15.0712 418.839C12.0035 418.839 9.5166 421.418 9.5166 424.598C9.5166 427.779 12.0035 430.358 15.0712 430.358Z" fill="#A01700"/>
<path d="M23.2423 472.861C26.386 472.861 28.9344 470.219 28.9344 466.959C28.9344 463.699 26.386 461.057 23.2423 461.057C20.0985 461.057 17.5498 463.699 17.5498 466.959C17.5498 470.219 20.0985 472.861 23.2423 472.861Z" fill="#A01700"/>
<path d="M23.2423 464.389C26.386 464.389 28.9344 461.747 28.9344 458.487C28.9344 455.227 26.386 452.585 23.2423 452.585C20.0985 452.585 17.5498 455.227 17.5498 458.487C17.5498 461.747 20.0985 464.389 23.2423 464.389Z" fill="#A01700"/>
<path d="M23.2423 455.917C26.386 455.917 28.9344 453.275 28.9344 450.015C28.9344 446.756 26.386 444.113 23.2423 444.113C20.0985 444.113 17.5498 446.756 17.5498 450.015C17.5498 453.275 20.0985 455.917 23.2423 455.917Z" fill="#A01700"/>
<path d="M23.2423 447.444C26.386 447.444 28.9344 444.801 28.9344 441.542C28.9344 438.282 26.386 435.64 23.2423 435.64C20.0985 435.64 17.5498 438.282 17.5498 441.542C17.5498 444.801 20.0985 447.444 23.2423 447.444Z" fill="#A01700"/>
<path d="M23.2423 438.972C26.386 438.972 28.9344 436.329 28.9344 433.07C28.9344 429.81 26.386 427.168 23.2423 427.168C20.0985 427.168 17.5498 429.81 17.5498 433.07C17.5498 436.329 20.0985 438.972 23.2423 438.972Z" fill="#A01700"/>
<path d="M23.2423 430.5C26.386 430.5 28.9344 427.858 28.9344 424.598C28.9344 421.338 26.386 418.696 23.2423 418.696C20.0985 418.696 17.5498 421.338 17.5498 424.598C17.5498 427.858 20.0985 430.5 23.2423 430.5Z" fill="#A01700"/>
</g>
</svg>
