<svg width="320" height="492" viewBox="0 0 320 492" fill="none" xmlns="http://www.w3.org/2000/svg">
<g clip-path="url(#clip0_720_2257)">
<path d="M-118.971 0.472412H1.13172L119.989 131.96L-118.65 128.846L-118.971 0.472412Z" fill="#FF3500"/>
<path d="M14.9062 130.497L-227.025 432.064V512.881L-123.948 513.494L119.71 208.436L119.991 131.959L14.9062 130.497Z" fill="#FF3500"/>
<mask id="mask0_720_2257" style="mask-type:luminance" maskUnits="userSpaceOnUse" x="-120" y="0" width="240" height="132">
<path d="M-119.371 0H0.691193L119.589 131.535L-119.09 128.421L-119.371 0Z" fill="white"/>
</mask>
<g mask="url(#mask0_720_2257)">
<path d="M117.342 1.27337C117.342 1.60372 117.583 1.83966 117.823 1.83966C118.064 1.83966 118.305 1.55653 118.305 1.27337C118.305 0.990205 118.064 0.707031 117.823 0.707031C117.583 0.707031 117.342 0.990205 117.342 1.27337Z" fill="#A01700"/>
<path d="M117.342 9.6718C117.342 10.0022 117.583 10.2381 117.823 10.2381C118.064 10.2381 118.305 9.95496 118.305 9.6718C118.305 9.38864 118.064 9.10547 117.823 9.10547C117.583 9.10547 117.342 9.38864 117.342 9.6718Z" fill="#A01700"/>
<path d="M117.342 18.0693C117.342 18.3996 117.583 18.6356 117.823 18.6356C118.064 18.6356 118.305 18.3524 118.305 18.0693C118.305 17.7861 118.064 17.5029 117.823 17.5029C117.583 17.5029 117.342 17.7861 117.342 18.0693Z" fill="#A01700"/>
<path d="M117.342 26.4672C117.342 26.7976 117.583 27.0335 117.823 27.0335C118.064 27.0335 118.305 26.7504 118.305 26.4672C118.305 26.1841 118.064 25.9009 117.823 25.9009C117.583 25.9009 117.342 26.1841 117.342 26.4672Z" fill="#A01700"/>
<path d="M117.342 34.8654C117.342 35.1957 117.583 35.4317 117.823 35.4317C118.064 35.4317 118.305 35.1485 118.305 34.8654C118.305 34.5822 118.064 34.2991 117.823 34.2991C117.583 34.2991 117.342 34.5822 117.342 34.8654Z" fill="#A01700"/>
<path d="M117.342 43.2631C117.342 43.5934 117.583 43.8294 117.823 43.8294C118.064 43.8294 118.305 43.5462 118.305 43.2631C118.305 42.9799 118.064 42.6968 117.823 42.6968C117.583 42.6968 117.342 42.9799 117.342 43.2631Z" fill="#A01700"/>
<path d="M117.342 51.7086C117.342 52.039 117.583 52.275 117.823 52.275C118.064 52.275 118.305 51.9918 118.305 51.7086C118.305 51.4255 118.064 51.1423 117.823 51.1423C117.583 51.1423 117.342 51.4255 117.342 51.7086Z" fill="#A01700"/>
<path d="M117.342 60.1063C117.342 60.4367 117.583 60.6727 117.823 60.6727C118.064 60.6727 118.305 60.3895 118.305 60.1063C118.305 59.8232 118.064 59.54 117.823 59.54C117.583 59.54 117.342 59.8232 117.342 60.1063Z" fill="#A01700"/>
<path d="M117.342 68.5031C117.342 68.8335 117.583 69.0694 117.823 69.0694C118.064 69.0694 118.305 68.7863 118.305 68.5031C118.305 68.2199 118.064 67.9368 117.823 67.9368C117.583 67.9368 117.342 68.2199 117.342 68.5031Z" fill="#A01700"/>
<path d="M117.342 76.9011C117.342 77.2314 117.583 77.4673 117.823 77.4673C118.064 77.4673 118.305 77.1842 118.305 76.9011C118.305 76.6179 118.064 76.3347 117.823 76.3347C117.583 76.3347 117.342 76.6179 117.342 76.9011Z" fill="#A01700"/>
<path d="M117.342 85.2995C117.342 85.6298 117.583 85.8658 117.823 85.8658C118.064 85.8658 118.305 85.5826 118.305 85.2995C118.305 85.0163 118.064 84.7332 117.823 84.7332C117.583 84.7332 117.342 85.0163 117.342 85.2995Z" fill="#A01700"/>
<path d="M117.342 93.6974C117.342 94.0278 117.583 94.2638 117.823 94.2638C118.064 94.2638 118.305 93.9806 118.305 93.6974C118.305 93.4143 118.064 93.1311 117.823 93.1311C117.583 93.1311 117.342 93.4143 117.342 93.6974Z" fill="#A01700"/>
<path d="M117.342 102.095C117.342 102.425 117.583 102.661 117.823 102.661C118.064 102.661 118.305 102.378 118.305 102.095C118.305 101.812 118.064 101.529 117.823 101.529C117.583 101.529 117.342 101.812 117.342 102.095Z" fill="#A01700"/>
<path d="M117.342 110.493C117.342 110.823 117.583 111.059 117.823 111.059C118.064 111.059 118.305 110.776 118.305 110.493C118.305 110.21 118.064 109.927 117.823 109.927C117.583 109.927 117.342 110.21 117.342 110.493Z" fill="#A01700"/>
<path d="M117.342 118.938C117.342 119.269 117.583 119.505 117.823 119.505C118.064 119.505 118.305 119.222 118.305 118.938C118.305 118.655 118.064 118.372 117.823 118.372C117.583 118.372 117.342 118.655 117.342 118.938Z" fill="#A01700"/>
<path d="M117.342 127.337C117.342 127.667 117.583 127.903 117.823 127.903C118.064 127.903 118.305 127.62 118.305 127.337C118.305 127.053 118.064 126.77 117.823 126.77C117.583 126.77 117.342 127.053 117.342 127.337Z" fill="#A01700"/>
<path d="M110.716 1.93371C111.026 1.93371 111.278 1.63791 111.278 1.27301C111.278 0.908111 111.026 0.612305 110.716 0.612305C110.406 0.612305 110.154 0.908111 110.154 1.27301C110.154 1.63791 110.406 1.93371 110.716 1.93371Z" fill="#A01700"/>
<path d="M110.716 10.3322C111.026 10.3322 111.278 10.0363 111.278 9.67145C111.278 9.30655 111.026 9.01074 110.716 9.01074C110.406 9.01074 110.154 9.30655 110.154 9.67145C110.154 10.0363 110.406 10.3322 110.716 10.3322Z" fill="#A01700"/>
<path d="M110.716 18.7301C111.026 18.7301 111.278 18.4343 111.278 18.0694C111.278 17.7045 111.026 17.4087 110.716 17.4087C110.406 17.4087 110.154 17.7045 110.154 18.0694C110.154 18.4343 110.406 18.7301 110.716 18.7301Z" fill="#A01700"/>
<path d="M110.716 27.1281C111.026 27.1281 111.278 26.8322 111.278 26.4673C111.278 26.1024 111.026 25.8066 110.716 25.8066C110.406 25.8066 110.154 26.1024 110.154 26.4673C110.154 26.8322 110.406 27.1281 110.716 27.1281Z" fill="#A01700"/>
<path d="M110.716 35.526C111.026 35.526 111.278 35.2302 111.278 34.8653C111.278 34.5004 111.026 34.2046 110.716 34.2046C110.406 34.2046 110.154 34.5004 110.154 34.8653C110.154 35.2302 110.406 35.526 110.716 35.526Z" fill="#A01700"/>
<path d="M110.716 43.924C111.026 43.924 111.278 43.6281 111.278 43.2632C111.278 42.8983 111.026 42.6025 110.716 42.6025C110.406 42.6025 110.154 42.8983 110.154 43.2632C110.154 43.6281 110.406 43.924 110.716 43.924Z" fill="#A01700"/>
<path d="M110.716 52.3693C111.026 52.3693 111.278 52.0735 111.278 51.7086C111.278 51.3437 111.026 51.0479 110.716 51.0479C110.406 51.0479 110.154 51.3437 110.154 51.7086C110.154 52.0735 110.406 52.3693 110.716 52.3693Z" fill="#A01700"/>
<path d="M110.716 60.7668C111.026 60.7668 111.278 60.4709 111.278 60.106C111.278 59.7411 111.026 59.4453 110.716 59.4453C110.406 59.4453 110.154 59.7411 110.154 60.106C110.154 60.4709 110.406 60.7668 110.716 60.7668Z" fill="#A01700"/>
<path d="M110.716 69.1642C111.026 69.1642 111.278 68.8684 111.278 68.5035C111.278 68.1386 111.026 67.8428 110.716 67.8428C110.406 67.8428 110.154 68.1386 110.154 68.5035C110.154 68.8684 110.406 69.1642 110.716 69.1642Z" fill="#A01700"/>
<path d="M110.716 77.5616C111.026 77.5616 111.278 77.2658 111.278 76.9009C111.278 76.536 111.026 76.2402 110.716 76.2402C110.406 76.2402 110.154 76.536 110.154 76.9009C110.154 77.2658 110.406 77.5616 110.716 77.5616Z" fill="#A01700"/>
<path d="M110.716 85.9598C111.026 85.9598 111.278 85.664 111.278 85.2991C111.278 84.9342 111.026 84.6384 110.716 84.6384C110.406 84.6384 110.154 84.9342 110.154 85.2991C110.154 85.664 110.406 85.9598 110.716 85.9598Z" fill="#A01700"/>
<path d="M110.716 94.3578C111.026 94.3578 111.278 94.062 111.278 93.6971C111.278 93.3322 111.026 93.0364 110.716 93.0364C110.406 93.0364 110.154 93.3322 110.154 93.6971C110.154 94.062 110.406 94.3578 110.716 94.3578Z" fill="#A01700"/>
<path d="M110.716 102.755C111.026 102.755 111.278 102.46 111.278 102.095C111.278 101.73 111.026 101.434 110.716 101.434C110.406 101.434 110.154 101.73 110.154 102.095C110.154 102.46 110.406 102.755 110.716 102.755Z" fill="#A01700"/>
<path d="M110.716 111.154C111.026 111.154 111.278 110.858 111.278 110.493C111.278 110.128 111.026 109.833 110.716 109.833C110.406 109.833 110.154 110.128 110.154 110.493C110.154 110.858 110.406 111.154 110.716 111.154Z" fill="#A01700"/>
<path d="M110.716 119.599C111.026 119.599 111.278 119.303 111.278 118.938C111.278 118.573 111.026 118.277 110.716 118.277C110.406 118.277 110.154 118.573 110.154 118.938C110.154 119.303 110.406 119.599 110.716 119.599Z" fill="#A01700"/>
<path d="M110.716 127.997C111.026 127.997 111.278 127.701 111.278 127.336C111.278 126.972 111.026 126.676 110.716 126.676C110.406 126.676 110.154 126.972 110.154 127.336C110.154 127.701 110.406 127.997 110.716 127.997Z" fill="#A01700"/>
<path d="M102.927 1.27464C102.927 1.69938 103.208 2.02972 103.569 2.02972C103.93 2.02972 104.211 1.69938 104.211 1.27464C104.211 0.849902 103.93 0.519531 103.569 0.519531C103.208 0.519531 102.927 0.849902 102.927 1.27464Z" fill="#A01700"/>
<path d="M102.927 9.67113C102.927 10.0959 103.208 10.4262 103.569 10.4262C103.93 10.4262 104.211 10.0959 104.211 9.67113C104.211 9.24639 103.93 8.91602 103.569 8.91602C103.208 8.91602 102.927 9.24639 102.927 9.67113Z" fill="#A01700"/>
<path d="M102.927 18.0691C102.927 18.4938 103.208 18.8242 103.569 18.8242C103.93 18.8242 104.211 18.4938 104.211 18.0691C104.211 17.6443 103.93 17.314 103.569 17.314C103.208 17.314 102.927 17.6443 102.927 18.0691Z" fill="#A01700"/>
<path d="M102.927 26.467C102.927 26.8917 103.208 27.2221 103.569 27.2221C103.93 27.2221 104.211 26.8917 104.211 26.467C104.211 26.0422 103.93 25.7119 103.569 25.7119C103.208 25.7119 102.927 26.0422 102.927 26.467Z" fill="#A01700"/>
<path d="M102.927 34.8652C102.927 35.2899 103.208 35.6203 103.569 35.6203C103.93 35.6203 104.211 35.2899 104.211 34.8652C104.211 34.4404 103.93 34.1101 103.569 34.1101C103.208 34.1101 102.927 34.4404 102.927 34.8652Z" fill="#A01700"/>
<path d="M102.927 43.2629C102.927 43.6876 103.208 44.018 103.569 44.018C103.93 44.018 104.211 43.6876 104.211 43.2629C104.211 42.8381 103.93 42.5078 103.569 42.5078C103.208 42.5078 102.927 42.8381 102.927 43.2629Z" fill="#A01700"/>
<path d="M102.927 51.7082C102.927 52.1329 103.208 52.4633 103.569 52.4633C103.93 52.4633 104.211 52.1329 104.211 51.7082C104.211 51.2835 103.93 50.9531 103.569 50.9531C103.208 50.9531 102.927 51.2835 102.927 51.7082Z" fill="#A01700"/>
<path d="M102.927 60.1064C102.927 60.5311 103.208 60.8615 103.569 60.8615C103.93 60.8615 104.211 60.5311 104.211 60.1064C104.211 59.6817 103.93 59.3513 103.569 59.3513C103.208 59.3513 102.927 59.6817 102.927 60.1064Z" fill="#A01700"/>
<path d="M102.927 68.5041C102.927 68.9289 103.208 69.2592 103.569 69.2592C103.93 69.2592 104.211 68.9289 104.211 68.5041C104.211 68.0794 103.93 67.749 103.569 67.749C103.208 67.749 102.927 68.0794 102.927 68.5041Z" fill="#A01700"/>
<path d="M102.927 76.9011C102.927 77.3258 103.208 77.6562 103.569 77.6562C103.93 77.6562 104.211 77.3258 104.211 76.9011C104.211 76.4764 103.93 76.146 103.569 76.146C103.208 76.146 102.927 76.4764 102.927 76.9011Z" fill="#A01700"/>
<path d="M102.927 85.2991C102.927 85.7238 103.208 86.0541 103.569 86.0541C103.93 86.0541 104.211 85.7238 104.211 85.2991C104.211 84.8743 103.93 84.5439 103.569 84.5439C103.208 84.5439 102.927 84.8743 102.927 85.2991Z" fill="#A01700"/>
<path d="M102.927 93.6972C102.927 94.122 103.208 94.4523 103.569 94.4523C103.93 94.4523 104.211 94.122 104.211 93.6972C104.211 93.2725 103.93 92.9421 103.569 92.9421C103.208 92.9421 102.927 93.2725 102.927 93.6972Z" fill="#A01700"/>
<path d="M102.927 102.095C102.927 102.52 103.208 102.85 103.569 102.85C103.93 102.85 104.211 102.52 104.211 102.095C104.211 101.67 103.93 101.34 103.569 101.34C103.208 101.34 102.927 101.67 102.927 102.095Z" fill="#A01700"/>
<path d="M102.927 110.493C102.927 110.918 103.208 111.248 103.569 111.248C103.93 111.248 104.211 110.918 104.211 110.493C104.211 110.068 103.93 109.738 103.569 109.738C103.208 109.738 102.927 110.068 102.927 110.493Z" fill="#A01700"/>
<path d="M102.927 118.938C102.927 119.363 103.208 119.693 103.569 119.693C103.93 119.693 104.211 119.363 104.211 118.938C104.211 118.513 103.93 118.183 103.569 118.183C103.208 118.183 102.927 118.513 102.927 118.938Z" fill="#A01700"/>
<path d="M102.927 127.336C102.927 127.761 103.208 128.091 103.569 128.091C103.93 128.091 104.211 127.761 104.211 127.336C104.211 126.911 103.93 126.581 103.569 126.581C103.208 126.581 102.927 126.911 102.927 127.336Z" fill="#A01700"/>
<path d="M95.6982 1.27399C95.6982 1.74593 96.0194 2.07627 96.3808 2.07627C96.7422 2.07627 97.0635 1.69874 97.0635 1.27399C97.0635 0.849254 96.7422 0.47168 96.3808 0.47168C96.0194 0.47168 95.6982 0.849254 95.6982 1.27399Z" fill="#A01700"/>
<path d="M95.6982 9.67142C95.6982 10.1434 96.0194 10.4737 96.3808 10.4737C96.7422 10.4737 97.0635 10.0962 97.0635 9.67142C97.0635 9.24668 96.7422 8.86914 96.3808 8.86914C96.0194 8.86914 95.6982 9.24668 95.6982 9.67142Z" fill="#A01700"/>
<path d="M95.6982 18.0691C95.6982 18.5411 96.0194 18.8714 96.3808 18.8714C96.7422 18.8714 97.0635 18.4939 97.0635 18.0691C97.0635 17.6444 96.7422 17.2668 96.3808 17.2668C96.0194 17.2668 95.6982 17.6444 95.6982 18.0691Z" fill="#A01700"/>
<path d="M95.6982 26.4671C95.6982 26.939 96.0194 27.2694 96.3808 27.2694C96.7422 27.2694 97.0635 26.8918 97.0635 26.4671C97.0635 26.0423 96.7422 25.6648 96.3808 25.6648C96.0194 25.6648 95.6982 26.0423 95.6982 26.4671Z" fill="#A01700"/>
<path d="M95.6982 34.8653C95.6982 35.3372 96.0194 35.6676 96.3808 35.6676C96.7422 35.6676 97.0635 35.29 97.0635 34.8653C97.0635 34.4405 96.7422 34.063 96.3808 34.063C96.0194 34.063 95.6982 34.4405 95.6982 34.8653Z" fill="#A01700"/>
<path d="M95.6982 43.2627C95.6982 43.7347 96.0194 44.065 96.3808 44.065C96.7422 44.065 97.0635 43.6875 97.0635 43.2627C97.0635 42.838 96.7422 42.4604 96.3808 42.4604C96.0194 42.4604 95.6982 42.838 95.6982 43.2627Z" fill="#A01700"/>
<path d="M95.6982 51.7085C95.6982 52.1805 96.0194 52.5108 96.3808 52.5108C96.7422 52.5108 97.0635 52.1333 97.0635 51.7085C97.0635 51.2838 96.7422 50.9062 96.3808 50.9062C96.0194 50.9062 95.6982 51.2838 95.6982 51.7085Z" fill="#A01700"/>
<path d="M95.6982 60.1062C95.6982 60.5782 96.0194 60.9085 96.3808 60.9085C96.7422 60.9085 97.0635 60.531 97.0635 60.1062C97.0635 59.6815 96.7422 59.304 96.3808 59.304C96.0194 59.304 95.6982 59.6815 95.6982 60.1062Z" fill="#A01700"/>
<path d="M95.6982 68.5045C95.6982 68.9764 96.0194 69.3067 96.3808 69.3067C96.7422 69.3067 97.0635 68.9292 97.0635 68.5045C97.0635 68.0797 96.7422 67.7021 96.3808 67.7021C96.0194 67.7021 95.6982 68.0797 95.6982 68.5045Z" fill="#A01700"/>
<path d="M95.6982 76.9014C95.6982 77.3733 96.0194 77.7037 96.3808 77.7037C96.7422 77.7037 97.0635 77.3261 97.0635 76.9014C97.0635 76.4767 96.7422 76.0991 96.3808 76.0991C96.0194 76.0991 95.6982 76.4767 95.6982 76.9014Z" fill="#A01700"/>
<path d="M95.6982 85.2991C95.6982 85.771 96.0194 86.1014 96.3808 86.1014C96.7422 86.1014 97.0635 85.7238 97.0635 85.2991C97.0635 84.8744 96.7422 84.4968 96.3808 84.4968C96.0194 84.4968 95.6982 84.8744 95.6982 85.2991Z" fill="#A01700"/>
<path d="M95.6982 93.6968C95.6982 94.1687 96.0194 94.4991 96.3808 94.4991C96.7422 94.4991 97.0635 94.1216 97.0635 93.6968C97.0635 93.2721 96.7422 92.8945 96.3808 92.8945C96.0194 92.8945 95.6982 93.2721 95.6982 93.6968Z" fill="#A01700"/>
<path d="M95.6982 102.095C95.6982 102.567 96.0194 102.897 96.3808 102.897C96.7422 102.897 97.0635 102.52 97.0635 102.095C97.0635 101.67 96.7422 101.292 96.3808 101.292C96.0194 101.292 95.6982 101.67 95.6982 102.095Z" fill="#A01700"/>
<path d="M95.6982 110.493C95.6982 110.965 96.0194 111.296 96.3808 111.296C96.7422 111.296 97.0635 110.918 97.0635 110.493C97.0635 110.068 96.7422 109.691 96.3808 109.691C96.0194 109.691 95.6982 110.068 95.6982 110.493Z" fill="#A01700"/>
<path d="M95.6982 118.938C95.6982 119.41 96.0194 119.74 96.3808 119.74C96.7422 119.74 97.0635 119.363 97.0635 118.938C97.0635 118.513 96.7422 118.136 96.3808 118.136C96.0194 118.136 95.6982 118.513 95.6982 118.938Z" fill="#A01700"/>
<path d="M95.6982 127.336C95.6982 127.808 96.0194 128.138 96.3808 128.138C96.7422 128.138 97.0635 127.761 97.0635 127.336C97.0635 126.911 96.7422 126.534 96.3808 126.534C96.0194 126.534 95.6982 126.911 95.6982 127.336Z" fill="#A01700"/>
<path d="M88.4717 1.27437C88.4717 1.7935 88.8331 2.17102 89.2346 2.17102C89.6362 2.17102 89.9976 1.74631 89.9976 1.27437C89.9976 0.802438 89.6362 0.377686 89.2346 0.377686C88.8331 0.377686 88.4717 0.802438 88.4717 1.27437Z" fill="#A01700"/>
<path d="M88.4717 9.67232C88.4717 10.1914 88.8331 10.569 89.2346 10.569C89.6362 10.569 89.9976 10.1443 89.9976 9.67232C89.9976 9.20039 89.6362 8.77563 89.2346 8.77563C88.8331 8.77563 88.4717 9.20039 88.4717 9.67232Z" fill="#A01700"/>
<path d="M88.4717 18.069C88.4717 18.5882 88.8331 18.9657 89.2346 18.9657C89.6362 18.9657 89.9976 18.541 89.9976 18.069C89.9976 17.5971 89.6362 17.1724 89.2346 17.1724C88.8331 17.1724 88.4717 17.5971 88.4717 18.069Z" fill="#A01700"/>
<path d="M88.4717 26.467C88.4717 26.9861 88.8331 27.3637 89.2346 27.3637C89.6362 27.3637 89.9976 26.9389 89.9976 26.467C89.9976 25.9951 89.6362 25.5703 89.2346 25.5703C88.8331 25.5703 88.4717 25.9951 88.4717 26.467Z" fill="#A01700"/>
<path d="M88.4717 34.8652C88.4717 35.3843 88.8331 35.7618 89.2346 35.7618C89.6362 35.7618 89.9976 35.3371 89.9976 34.8652C89.9976 34.3932 89.6362 33.9685 89.2346 33.9685C88.8331 33.9685 88.4717 34.3932 88.4717 34.8652Z" fill="#A01700"/>
<path d="M88.4717 43.2633C88.4717 43.7825 88.8331 44.16 89.2346 44.16C89.6362 44.16 89.9976 43.7353 89.9976 43.2633C89.9976 42.7914 89.6362 42.3667 89.2346 42.3667C88.8331 42.3667 88.4717 42.7914 88.4717 43.2633Z" fill="#A01700"/>
<path d="M88.4717 51.7084C88.4717 52.2275 88.8331 52.6051 89.2346 52.6051C89.6362 52.6051 89.9976 52.1804 89.9976 51.7084C89.9976 51.2365 89.6362 50.8118 89.2346 50.8118C88.8331 50.8118 88.4717 51.2365 88.4717 51.7084Z" fill="#A01700"/>
<path d="M88.4717 60.1061C88.4717 60.6253 88.8331 61.0028 89.2346 61.0028C89.6362 61.0028 89.9976 60.5781 89.9976 60.1061C89.9976 59.6342 89.6362 59.2095 89.2346 59.2095C88.8331 59.2095 88.4717 59.6342 88.4717 60.1061Z" fill="#A01700"/>
<path d="M88.4717 68.5041C88.4717 69.0232 88.8331 69.4008 89.2346 69.4008C89.6362 69.4008 89.9976 68.976 89.9976 68.5041C89.9976 68.0322 89.6362 67.6074 89.2346 67.6074C88.8331 67.6074 88.4717 68.0322 88.4717 68.5041Z" fill="#A01700"/>
<path d="M88.4717 76.9025C88.4717 77.4217 88.8331 77.7992 89.2346 77.7992C89.6362 77.7992 89.9976 77.3745 89.9976 76.9025C89.9976 76.4306 89.6362 76.0059 89.2346 76.0059C88.8331 76.0059 88.4717 76.4306 88.4717 76.9025Z" fill="#A01700"/>
<path d="M88.4717 85.299C88.4717 85.8182 88.8331 86.1957 89.2346 86.1957C89.6362 86.1957 89.9976 85.771 89.9976 85.299C89.9976 84.8271 89.6362 84.4023 89.2346 84.4023C88.8331 84.4023 88.4717 84.8271 88.4717 85.299Z" fill="#A01700"/>
<path d="M88.4717 93.697C88.4717 94.2161 88.8331 94.5937 89.2346 94.5937C89.6362 94.5937 89.9976 94.1689 89.9976 93.697C89.9976 93.225 89.6362 92.8003 89.2346 92.8003C88.8331 92.8003 88.4717 93.225 88.4717 93.697Z" fill="#A01700"/>
<path d="M88.4717 102.095C88.4717 102.614 88.8331 102.991 89.2346 102.991C89.6362 102.991 89.9976 102.567 89.9976 102.095C89.9976 101.623 89.6362 101.198 89.2346 101.198C88.8331 101.198 88.4717 101.623 88.4717 102.095Z" fill="#A01700"/>
<path d="M88.4717 110.493C88.4717 111.012 88.8331 111.39 89.2346 111.39C89.6362 111.39 89.9976 110.965 89.9976 110.493C89.9976 110.021 89.6362 109.596 89.2346 109.596C88.8331 109.596 88.4717 110.021 88.4717 110.493Z" fill="#A01700"/>
<path d="M88.4717 118.938C88.4717 119.457 88.8331 119.835 89.2346 119.835C89.6362 119.835 89.9976 119.41 89.9976 118.938C89.9976 118.466 89.6362 118.042 89.2346 118.042C88.8331 118.042 88.4717 118.466 88.4717 118.938Z" fill="#A01700"/>
<path d="M88.4717 127.336C88.4717 127.855 88.8331 128.233 89.2346 128.233C89.6362 128.233 89.9976 127.808 89.9976 127.336C89.9976 126.864 89.6362 126.439 89.2346 126.439C88.8331 126.439 88.4717 126.864 88.4717 127.336Z" fill="#A01700"/>
<path d="M81.2422 1.27426C81.2422 1.79339 81.6035 2.26532 82.0854 2.26532C82.5673 2.26532 82.9286 1.84058 82.9286 1.27426C82.9286 0.707939 82.5673 0.283203 82.0854 0.283203C81.6035 0.283203 81.2422 0.707939 81.2422 1.27426Z" fill="#A01700"/>
<path d="M81.2422 9.67172C81.2422 10.1908 81.6035 10.6628 82.0854 10.6628C82.5673 10.6628 82.9286 10.238 82.9286 9.67172C82.9286 9.1054 82.5673 8.68066 82.0854 8.68066C81.6035 8.68066 81.2422 9.1054 81.2422 9.67172Z" fill="#A01700"/>
<path d="M81.2422 18.0702C81.2422 18.5893 81.6035 19.0612 82.0854 19.0612C82.5673 19.0612 82.9286 18.6365 82.9286 18.0702C82.9286 17.5038 82.5673 17.0791 82.0854 17.0791C81.6035 17.0791 81.2422 17.5038 81.2422 18.0702Z" fill="#A01700"/>
<path d="M81.2422 26.4666C81.2422 26.9858 81.6035 27.4577 82.0854 27.4577C82.5673 27.4577 82.9286 27.033 82.9286 26.4666C82.9286 25.9003 82.5673 25.4756 82.0854 25.4756C81.6035 25.4756 81.2422 25.9003 81.2422 26.4666Z" fill="#A01700"/>
<path d="M81.2422 34.8651C81.2422 35.3842 81.6035 35.8561 82.0854 35.8561C82.5673 35.8561 82.9286 35.4314 82.9286 34.8651C82.9286 34.2988 82.5673 33.874 82.0854 33.874C81.6035 33.874 81.2422 34.2988 81.2422 34.8651Z" fill="#A01700"/>
<path d="M81.2422 43.2635C81.2422 43.7826 81.6035 44.2546 82.0854 44.2546C82.5673 44.2546 82.9286 43.8298 82.9286 43.2635C82.9286 42.6972 82.5673 42.2725 82.0854 42.2725C81.6035 42.2725 81.2422 42.6972 81.2422 43.2635Z" fill="#A01700"/>
<path d="M81.2422 51.7083C81.2422 52.2275 81.6035 52.6994 82.0854 52.6994C82.5673 52.6994 82.9286 52.2747 82.9286 51.7083C82.9286 51.142 82.5673 50.7173 82.0854 50.7173C81.6035 50.7173 81.2422 51.142 81.2422 51.7083Z" fill="#A01700"/>
<path d="M81.2422 60.106C81.2422 60.6252 81.6035 61.0971 82.0854 61.0971C82.5673 61.0971 82.9286 60.6724 82.9286 60.106C82.9286 59.5397 82.5673 59.115 82.0854 59.115C81.6035 59.115 81.2422 59.5397 81.2422 60.106Z" fill="#A01700"/>
<path d="M81.2422 68.504C81.2422 69.0231 81.6035 69.4951 82.0854 69.4951C82.5673 69.4951 82.9286 69.0703 82.9286 68.504C82.9286 67.9377 82.5673 67.5129 82.0854 67.5129C81.6035 67.5129 81.2422 67.9377 81.2422 68.504Z" fill="#A01700"/>
<path d="M81.2422 76.9022C81.2422 77.4213 81.6035 77.8932 82.0854 77.8932C82.5673 77.8932 82.9286 77.4685 82.9286 76.9022C82.9286 76.3359 82.5673 75.9111 82.0854 75.9111C81.6035 75.9111 81.2422 76.3359 81.2422 76.9022Z" fill="#A01700"/>
<path d="M81.2422 85.3001C81.2422 85.8193 81.6035 86.2912 82.0854 86.2912C82.5673 86.2912 82.9286 85.8665 82.9286 85.3001C82.9286 84.7338 82.5673 84.3091 82.0854 84.3091C81.6035 84.3091 81.2422 84.7338 81.2422 85.3001Z" fill="#A01700"/>
<path d="M81.2422 93.6969C81.2422 94.216 81.6035 94.6879 82.0854 94.6879C82.5673 94.6879 82.9286 94.2632 82.9286 93.6969C82.9286 93.1305 82.5673 92.7058 82.0854 92.7058C81.6035 92.7058 81.2422 93.1305 81.2422 93.6969Z" fill="#A01700"/>
<path d="M81.2422 102.095C81.2422 102.614 81.6035 103.086 82.0854 103.086C82.5673 103.086 82.9286 102.661 82.9286 102.095C82.9286 101.528 82.5673 101.104 82.0854 101.104C81.6035 101.104 81.2422 101.528 81.2422 102.095Z" fill="#A01700"/>
<path d="M81.2422 110.493C81.2422 111.012 81.6035 111.484 82.0854 111.484C82.5673 111.484 82.9286 111.059 82.9286 110.493C82.9286 109.926 82.5673 109.501 82.0854 109.501C81.6035 109.501 81.2422 109.926 81.2422 110.493Z" fill="#A01700"/>
<path d="M81.2422 118.938C81.2422 119.457 81.6035 119.929 82.0854 119.929C82.5673 119.929 82.9286 119.504 82.9286 118.938C82.9286 118.371 82.5673 117.947 82.0854 117.947C81.6035 117.947 81.2422 118.371 81.2422 118.938Z" fill="#A01700"/>
<path d="M81.2422 127.336C81.2422 127.855 81.6035 128.327 82.0854 128.327C82.5673 128.327 82.9286 127.902 82.9286 127.336C82.9286 126.769 82.5673 126.345 82.0854 126.345C81.6035 126.345 81.2422 126.769 81.2422 127.336Z" fill="#A01700"/>
<path d="M74.0156 1.27443C74.0156 1.88794 74.4172 2.35986 74.9392 2.35986C75.4612 2.35986 75.8628 1.88794 75.8628 1.27443C75.8628 0.660915 75.4612 0.188965 74.9392 0.188965C74.4172 0.188965 74.0156 0.660915 74.0156 1.27443Z" fill="#A01700"/>
<path d="M74.0156 9.67238C74.0156 10.2859 74.4172 10.7578 74.9392 10.7578C75.4612 10.7578 75.8628 10.2859 75.8628 9.67238C75.8628 9.05886 75.4612 8.58691 74.9392 8.58691C74.4172 8.58691 74.0156 9.05886 74.0156 9.67238Z" fill="#A01700"/>
<path d="M74.0156 18.0698C74.0156 18.6834 74.4172 19.1553 74.9392 19.1553C75.4612 19.1553 75.8628 18.6834 75.8628 18.0698C75.8628 17.4563 75.4612 16.9844 74.9392 16.9844C74.4172 16.9844 74.0156 17.4563 74.0156 18.0698Z" fill="#A01700"/>
<path d="M74.0156 26.4668C74.0156 27.0803 74.4172 27.5522 74.9392 27.5522C75.4612 27.5522 75.8628 27.0803 75.8628 26.4668C75.8628 25.8533 75.4612 25.3813 74.9392 25.3813C74.4172 25.3813 74.0156 25.8533 74.0156 26.4668Z" fill="#A01700"/>
<path d="M74.0156 34.8647C74.0156 35.4782 74.4172 35.9502 74.9392 35.9502C75.4612 35.9502 75.8628 35.4782 75.8628 34.8647C75.8628 34.2512 75.4612 33.7793 74.9392 33.7793C74.4172 33.7793 74.0156 34.2512 74.0156 34.8647Z" fill="#A01700"/>
<path d="M74.0156 43.2632C74.0156 43.8767 74.4172 44.3486 74.9392 44.3486C75.4612 44.3486 75.8628 43.8767 75.8628 43.2632C75.8628 42.6496 75.4612 42.1777 74.9392 42.1777C74.4172 42.1777 74.0156 42.6496 74.0156 43.2632Z" fill="#A01700"/>
<path d="M74.0156 51.7082C74.0156 52.3217 74.4172 52.7937 74.9392 52.7937C75.4612 52.7937 75.8628 52.3217 75.8628 51.7082C75.8628 51.0947 75.4612 50.6228 74.9392 50.6228C74.4172 50.6228 74.0156 51.0947 74.0156 51.7082Z" fill="#A01700"/>
<path d="M74.0156 60.1064C74.0156 60.7199 74.4172 61.1919 74.9392 61.1919C75.4612 61.1919 75.8628 60.7199 75.8628 60.1064C75.8628 59.4929 75.4612 59.021 74.9392 59.021C74.4172 59.021 74.0156 59.4929 74.0156 60.1064Z" fill="#A01700"/>
<path d="M74.0156 68.5039C74.0156 69.1174 74.4172 69.5893 74.9392 69.5893C75.4612 69.5893 75.8628 69.1174 75.8628 68.5039C75.8628 67.8904 75.4612 67.4185 74.9392 67.4185C74.4172 67.4185 74.0156 67.8904 74.0156 68.5039Z" fill="#A01700"/>
<path d="M74.0156 76.9021C74.0156 77.5156 74.4172 77.9875 74.9392 77.9875C75.4612 77.9875 75.8628 77.5156 75.8628 76.9021C75.8628 76.2886 75.4612 75.8167 74.9392 75.8167C74.4172 75.8167 74.0156 76.2886 74.0156 76.9021Z" fill="#A01700"/>
<path d="M74.0156 85.3003C74.0156 85.9138 74.4172 86.3858 74.9392 86.3858C75.4612 86.3858 75.8628 85.9138 75.8628 85.3003C75.8628 84.6868 75.4612 84.2148 74.9392 84.2148C74.4172 84.2148 74.0156 84.6868 74.0156 85.3003Z" fill="#A01700"/>
<path d="M74.0156 93.6968C74.0156 94.3103 74.4172 94.7822 74.9392 94.7822C75.4612 94.7822 75.8628 94.3103 75.8628 93.6968C75.8628 93.0832 75.4612 92.6113 74.9392 92.6113C74.4172 92.6113 74.0156 93.0832 74.0156 93.6968Z" fill="#A01700"/>
<path d="M74.0156 102.095C74.0156 102.709 74.4172 103.181 74.9392 103.181C75.4612 103.181 75.8628 102.709 75.8628 102.095C75.8628 101.482 75.4612 101.01 74.9392 101.01C74.4172 101.01 74.0156 101.482 74.0156 102.095Z" fill="#A01700"/>
<path d="M74.0156 110.492C74.0156 111.106 74.4172 111.578 74.9392 111.578C75.4612 111.578 75.8628 111.106 75.8628 110.492C75.8628 109.879 75.4612 109.407 74.9392 109.407C74.4172 109.407 74.0156 109.879 74.0156 110.492Z" fill="#A01700"/>
<path d="M74.0156 118.938C74.0156 119.551 74.4172 120.023 74.9392 120.023C75.4612 120.023 75.8628 119.551 75.8628 118.938C75.8628 118.324 75.4612 117.852 74.9392 117.852C74.4172 117.852 74.0156 118.324 74.0156 118.938Z" fill="#A01700"/>
<path d="M74.0156 127.336C74.0156 127.949 74.4172 128.421 74.9392 128.421C75.4612 128.421 75.8628 127.949 75.8628 127.336C75.8628 126.722 75.4612 126.25 74.9392 126.25C74.4172 126.25 74.0156 126.722 74.0156 127.336Z" fill="#A01700"/>
<path d="M66.7891 1.27432C66.7891 1.93503 67.2308 2.45415 67.7929 2.45415C68.3551 2.45415 68.7968 1.93503 68.7968 1.27432C68.7968 0.61361 68.3551 0.0944824 67.7929 0.0944824C67.2308 0.0944824 66.7891 0.61361 66.7891 1.27432Z" fill="#A01700"/>
<path d="M66.7891 9.67251C66.7891 10.3332 67.2308 10.8523 67.7929 10.8523C68.3551 10.8523 68.7968 10.3332 68.7968 9.67251C68.7968 9.0118 68.3551 8.49268 67.7929 8.49268C67.2308 8.49268 66.7891 9.0118 66.7891 9.67251Z" fill="#A01700"/>
<path d="M66.7891 18.07C66.7891 18.7307 67.2308 19.2498 67.7929 19.2498C68.3551 19.2498 68.7968 18.7307 68.7968 18.07C68.7968 17.4093 68.3551 16.8901 67.7929 16.8901C67.2308 16.8901 66.7891 17.4093 66.7891 18.07Z" fill="#A01700"/>
<path d="M66.7891 26.4682C66.7891 27.1289 67.2308 27.648 67.7929 27.648C68.3551 27.648 68.7968 27.1289 68.7968 26.4682C68.7968 25.8075 68.3551 25.2883 67.7929 25.2883C67.2308 25.2883 66.7891 25.8075 66.7891 26.4682Z" fill="#A01700"/>
<path d="M66.7891 34.8644C66.7891 35.5251 67.2308 36.0442 67.7929 36.0442C68.3551 36.0442 68.7968 35.5251 68.7968 34.8644C68.7968 34.2037 68.3551 33.6846 67.7929 33.6846C67.2308 33.6846 66.7891 34.2037 66.7891 34.8644Z" fill="#A01700"/>
<path d="M66.7891 43.2628C66.7891 43.9236 67.2308 44.4427 67.7929 44.4427C68.3551 44.4427 68.7968 43.9236 68.7968 43.2628C68.7968 42.6021 68.3551 42.083 67.7929 42.083C67.2308 42.083 66.7891 42.6021 66.7891 43.2628Z" fill="#A01700"/>
<path d="M66.7891 51.7082C66.7891 52.3689 67.2308 52.888 67.7929 52.888C68.3551 52.888 68.7968 52.3689 68.7968 51.7082C68.7968 51.0474 68.3551 50.5283 67.7929 50.5283C67.2308 50.5283 66.7891 51.0474 66.7891 51.7082Z" fill="#A01700"/>
<path d="M66.7891 60.1061C66.7891 60.7668 67.2308 61.2859 67.7929 61.2859C68.3551 61.2859 68.7968 60.7668 68.7968 60.1061C68.7968 59.4454 68.3551 58.9263 67.7929 58.9263C67.2308 58.9263 66.7891 59.4454 66.7891 60.1061Z" fill="#A01700"/>
<path d="M66.7891 68.5038C66.7891 69.1645 67.2308 69.6836 67.7929 69.6836C68.3551 69.6836 68.7968 69.1645 68.7968 68.5038C68.7968 67.8431 68.3551 67.324 67.7929 67.324C67.2308 67.324 66.7891 67.8431 66.7891 68.5038Z" fill="#A01700"/>
<path d="M66.7891 76.9015C66.7891 77.5622 67.2308 78.0814 67.7929 78.0814C68.3551 78.0814 68.7968 77.5622 68.7968 76.9015C68.7968 76.2408 68.3551 75.7217 67.7929 75.7217C67.2308 75.7217 66.7891 76.2408 66.7891 76.9015Z" fill="#A01700"/>
<path d="M66.7891 85.3C66.7891 85.9607 67.2308 86.4798 67.7929 86.4798C68.3551 86.4798 68.7968 85.9607 68.7968 85.3C68.7968 84.6392 68.3551 84.1201 67.7929 84.1201C67.2308 84.1201 66.7891 84.6392 66.7891 85.3Z" fill="#A01700"/>
<path d="M66.7891 93.6981C66.7891 94.3589 67.2308 94.878 67.7929 94.878C68.3551 94.878 68.7968 94.3589 68.7968 93.6981C68.7968 93.0374 68.3551 92.5183 67.7929 92.5183C67.2308 92.5183 66.7891 93.0374 66.7891 93.6981Z" fill="#A01700"/>
<path d="M66.7891 102.095C66.7891 102.756 67.2308 103.275 67.7929 103.275C68.3551 103.275 68.7968 102.756 68.7968 102.095C68.7968 101.434 68.3551 100.915 67.7929 100.915C67.2308 100.915 66.7891 101.434 66.7891 102.095Z" fill="#A01700"/>
<path d="M66.7891 110.493C66.7891 111.154 67.2308 111.673 67.7929 111.673C68.3551 111.673 68.7968 111.154 68.7968 110.493C68.7968 109.832 68.3551 109.313 67.7929 109.313C67.2308 109.313 66.7891 109.832 66.7891 110.493Z" fill="#A01700"/>
<path d="M66.7891 118.938C66.7891 119.599 67.2308 120.118 67.7929 120.118C68.3551 120.118 68.7968 119.599 68.7968 118.938C68.7968 118.277 68.3551 117.758 67.7929 117.758C67.2308 117.758 66.7891 118.277 66.7891 118.938Z" fill="#A01700"/>
<path d="M66.7891 127.336C66.7891 127.997 67.2308 128.516 67.7929 128.516C68.3551 128.516 68.7968 127.997 68.7968 127.336C68.7968 126.675 68.3551 126.156 67.7929 126.156C67.2308 126.156 66.7891 126.675 66.7891 127.336Z" fill="#A01700"/>
<path d="M59.5586 1.27375C59.5586 1.98166 60.0405 2.54796 60.6428 2.54796C61.2451 2.54796 61.727 1.98166 61.727 1.27375C61.727 0.565853 61.2451 -0.000488281 60.6428 -0.000488281C60.0405 -0.000488281 59.5586 0.565853 59.5586 1.27375Z" fill="#A01700"/>
<path d="M59.5586 9.67219C59.5586 10.3801 60.0405 10.9464 60.6428 10.9464C61.2451 10.9464 61.727 10.3801 61.727 9.67219C61.727 8.96429 61.2451 8.39795 60.6428 8.39795C60.0405 8.39795 59.5586 8.96429 59.5586 9.67219Z" fill="#A01700"/>
<path d="M59.5586 18.0701C59.5586 18.778 60.0405 19.3443 60.6428 19.3443C61.2451 19.3443 61.727 18.778 61.727 18.0701C61.727 17.3622 61.2451 16.7959 60.6428 16.7959C60.0405 16.7959 59.5586 17.3622 59.5586 18.0701Z" fill="#A01700"/>
<path d="M59.5586 26.4678C59.5586 27.1757 60.0405 27.7421 60.6428 27.7421C61.2451 27.7421 61.727 27.1757 61.727 26.4678C61.727 25.7599 61.2451 25.1936 60.6428 25.1936C60.0405 25.1936 59.5586 25.7599 59.5586 26.4678Z" fill="#A01700"/>
<path d="M59.5586 34.866C59.5586 35.5739 60.0405 36.1402 60.6428 36.1402C61.2451 36.1402 61.727 35.5739 61.727 34.866C61.727 34.1581 61.2451 33.5918 60.6428 33.5918C60.0405 33.5918 59.5586 34.1581 59.5586 34.866Z" fill="#A01700"/>
<path d="M59.5586 43.263C59.5586 43.9709 60.0405 44.5372 60.6428 44.5372C61.2451 44.5372 61.727 43.9709 61.727 43.263C61.727 42.5551 61.2451 41.9888 60.6428 41.9888C60.0405 41.9888 59.5586 42.5551 59.5586 43.263Z" fill="#A01700"/>
<path d="M59.5586 51.708C59.5586 52.4159 60.0405 52.9823 60.6428 52.9823C61.2451 52.9823 61.727 52.4159 61.727 51.708C61.727 51.0001 61.2451 50.4338 60.6428 50.4338C60.0405 50.4338 59.5586 51.0001 59.5586 51.708Z" fill="#A01700"/>
<path d="M59.5586 60.106C59.5586 60.8139 60.0405 61.3802 60.6428 61.3802C61.2451 61.3802 61.727 60.8139 61.727 60.106C61.727 59.3981 61.2451 58.8318 60.6428 58.8318C60.0405 58.8318 59.5586 59.3981 59.5586 60.106Z" fill="#A01700"/>
<path d="M59.5586 68.5042C59.5586 69.2121 60.0405 69.7784 60.6428 69.7784C61.2451 69.7784 61.727 69.2121 61.727 68.5042C61.727 67.7963 61.2451 67.23 60.6428 67.23C60.0405 67.23 59.5586 67.7963 59.5586 68.5042Z" fill="#A01700"/>
<path d="M59.5586 76.9017C59.5586 77.6096 60.0405 78.1759 60.6428 78.1759C61.2451 78.1759 61.727 77.6096 61.727 76.9017C61.727 76.1938 61.2451 75.6274 60.6428 75.6274C60.0405 75.6274 59.5586 76.1938 59.5586 76.9017Z" fill="#A01700"/>
<path d="M59.5586 85.2998C59.5586 86.0077 60.0405 86.574 60.6428 86.574C61.2451 86.574 61.727 86.0077 61.727 85.2998C61.727 84.5919 61.2451 84.0256 60.6428 84.0256C60.0405 84.0256 59.5586 84.5919 59.5586 85.2998Z" fill="#A01700"/>
<path d="M59.5586 93.6978C59.5586 94.4057 60.0405 94.972 60.6428 94.972C61.2451 94.972 61.727 94.4057 61.727 93.6978C61.727 92.9899 61.2451 92.4236 60.6428 92.4236C60.0405 92.4236 59.5586 92.9899 59.5586 93.6978Z" fill="#A01700"/>
<path d="M59.5586 102.096C59.5586 102.804 60.0405 103.37 60.6428 103.37C61.2451 103.37 61.727 102.804 61.727 102.096C61.727 101.388 61.2451 100.822 60.6428 100.822C60.0405 100.822 59.5586 101.388 59.5586 102.096Z" fill="#A01700"/>
<path d="M59.5586 110.493C59.5586 111.201 60.0405 111.767 60.6428 111.767C61.2451 111.767 61.727 111.201 61.727 110.493C61.727 109.785 61.2451 109.219 60.6428 109.219C60.0405 109.219 59.5586 109.785 59.5586 110.493Z" fill="#A01700"/>
<path d="M59.5586 118.938C59.5586 119.646 60.0405 120.212 60.6428 120.212C61.2451 120.212 61.727 119.646 61.727 118.938C61.727 118.23 61.2451 117.664 60.6428 117.664C60.0405 117.664 59.5586 118.23 59.5586 118.938Z" fill="#A01700"/>
<path d="M59.5586 127.336C59.5586 128.044 60.0405 128.61 60.6428 128.61C61.2451 128.61 61.727 128.044 61.727 127.336C61.727 126.628 61.2451 126.062 60.6428 126.062C60.0405 126.062 59.5586 126.628 59.5586 127.336Z" fill="#A01700"/>
<path d="M53.4965 2.6425C54.1397 2.6425 54.661 2.02975 54.661 1.27389C54.661 0.518025 54.1397 -0.0947266 53.4965 -0.0947266C52.8534 -0.0947266 52.332 0.518025 52.332 1.27389C52.332 2.02975 52.8534 2.6425 53.4965 2.6425Z" fill="#A01700"/>
<path d="M53.4965 11.0404C54.1397 11.0404 54.661 10.4277 54.661 9.67184C54.661 8.91597 54.1397 8.30322 53.4965 8.30322C52.8534 8.30322 52.332 8.91597 52.332 9.67184C52.332 10.4277 52.8534 11.0404 53.4965 11.0404Z" fill="#A01700"/>
<path d="M53.4965 19.4384C54.1397 19.4384 54.661 18.8256 54.661 18.0698C54.661 17.3139 54.1397 16.7012 53.4965 16.7012C52.8534 16.7012 52.332 17.3139 52.332 18.0698C52.332 18.8256 52.8534 19.4384 53.4965 19.4384Z" fill="#A01700"/>
<path d="M53.4965 27.8363C54.1397 27.8363 54.661 27.2236 54.661 26.4677C54.661 25.7119 54.1397 25.0991 53.4965 25.0991C52.8534 25.0991 52.332 25.7119 52.332 26.4677C52.332 27.2236 52.8534 27.8363 53.4965 27.8363Z" fill="#A01700"/>
<path d="M53.4965 36.2345C54.1397 36.2345 54.661 35.6218 54.661 34.8659C54.661 34.1101 54.1397 33.4973 53.4965 33.4973C52.8534 33.4973 52.332 34.1101 52.332 34.8659C52.332 35.6218 52.8534 36.2345 53.4965 36.2345Z" fill="#A01700"/>
<path d="M53.4965 44.631C54.1397 44.631 54.661 44.0182 54.661 43.2624C54.661 42.5065 54.1397 41.8938 53.4965 41.8938C52.8534 41.8938 52.332 42.5065 52.332 43.2624C52.332 44.0182 52.8534 44.631 53.4965 44.631Z" fill="#A01700"/>
<path d="M53.4965 53.0766C54.1397 53.0766 54.661 52.4638 54.661 51.708C54.661 50.9521 54.1397 50.3394 53.4965 50.3394C52.8534 50.3394 52.332 50.9521 52.332 51.708C52.332 52.4638 52.8534 53.0766 53.4965 53.0766Z" fill="#A01700"/>
<path d="M53.4965 61.4745C54.1397 61.4745 54.661 60.8617 54.661 60.1059C54.661 59.35 54.1397 58.7373 53.4965 58.7373C52.8534 58.7373 52.332 59.35 52.332 60.1059C52.332 60.8617 52.8534 61.4745 53.4965 61.4745Z" fill="#A01700"/>
<path d="M53.4965 69.8725C54.1397 69.8725 54.661 69.2597 54.661 68.5039C54.661 67.748 54.1397 67.1353 53.4965 67.1353C52.8534 67.1353 52.332 67.748 52.332 68.5039C52.332 69.2597 52.8534 69.8725 53.4965 69.8725Z" fill="#A01700"/>
<path d="M53.4965 78.2702C54.1397 78.2702 54.661 77.6574 54.661 76.9016C54.661 76.1457 54.1397 75.533 53.4965 75.533C52.8534 75.533 52.332 76.1457 52.332 76.9016C52.332 77.6574 52.8534 78.2702 53.4965 78.2702Z" fill="#A01700"/>
<path d="M53.4965 86.6684C54.1397 86.6684 54.661 86.0556 54.661 85.2998C54.661 84.5439 54.1397 83.9312 53.4965 83.9312C52.8534 83.9312 52.332 84.5439 52.332 85.2998C52.332 86.0556 52.8534 86.6684 53.4965 86.6684Z" fill="#A01700"/>
<path d="M53.4965 95.0666C54.1397 95.0666 54.661 94.4538 54.661 93.698C54.661 92.9421 54.1397 92.3293 53.4965 92.3293C52.8534 92.3293 52.332 92.9421 52.332 93.698C52.332 94.4538 52.8534 95.0666 53.4965 95.0666Z" fill="#A01700"/>
<path d="M53.4965 103.465C54.1397 103.465 54.661 102.852 54.661 102.096C54.661 101.34 54.1397 100.727 53.4965 100.727C52.8534 100.727 52.332 101.34 52.332 102.096C52.332 102.852 52.8534 103.465 53.4965 103.465Z" fill="#A01700"/>
<path d="M53.4965 111.861C54.1397 111.861 54.661 111.248 54.661 110.493C54.661 109.737 54.1397 109.124 53.4965 109.124C52.8534 109.124 52.332 109.737 52.332 110.493C52.332 111.248 52.8534 111.861 53.4965 111.861Z" fill="#A01700"/>
<path d="M53.4965 120.306C54.1397 120.306 54.661 119.694 54.661 118.938C54.661 118.182 54.1397 117.569 53.4965 117.569C52.8534 117.569 52.332 118.182 52.332 118.938C52.332 119.694 52.8534 120.306 53.4965 120.306Z" fill="#A01700"/>
<path d="M53.4965 128.705C54.1397 128.705 54.661 128.092 54.661 127.336C54.661 126.58 54.1397 125.967 53.4965 125.967C52.8534 125.967 52.332 126.58 52.332 127.336C52.332 128.092 52.8534 128.705 53.4965 128.705Z" fill="#A01700"/>
<path d="M45.1025 1.27406C45.1025 2.07634 45.6647 2.73704 46.3473 2.73704C47.03 2.73704 47.5921 2.07634 47.5921 1.27406C47.5921 0.471767 47.03 -0.188965 46.3473 -0.188965C45.6647 -0.188965 45.1025 0.471767 45.1025 1.27406Z" fill="#A01700"/>
<path d="M45.1025 9.672C45.1025 10.4743 45.6647 11.135 46.3473 11.135C47.03 11.135 47.5921 10.4743 47.5921 9.672C47.5921 8.86972 47.03 8.20898 46.3473 8.20898C45.6647 8.20898 45.1025 8.86972 45.1025 9.672Z" fill="#A01700"/>
<path d="M45.1025 18.0699C45.1025 18.8722 45.6647 19.5329 46.3473 19.5329C47.03 19.5329 47.5921 18.8722 47.5921 18.0699C47.5921 17.2676 47.03 16.6069 46.3473 16.6069C45.6647 16.6069 45.1025 17.2676 45.1025 18.0699Z" fill="#A01700"/>
<path d="M45.1025 26.4679C45.1025 27.2702 45.6647 27.9309 46.3473 27.9309C47.03 27.9309 47.5921 27.2702 47.5921 26.4679C47.5921 25.6656 47.03 25.0049 46.3473 25.0049C45.6647 25.0049 45.1025 25.6656 45.1025 26.4679Z" fill="#A01700"/>
<path d="M45.1025 34.8658C45.1025 35.6681 45.6647 36.3288 46.3473 36.3288C47.03 36.3288 47.5921 35.6681 47.5921 34.8658C47.5921 34.0635 47.03 33.4028 46.3473 33.4028C45.6647 33.4028 45.1025 34.0635 45.1025 34.8658Z" fill="#A01700"/>
<path d="M45.1025 43.2638C45.1025 44.0661 45.6647 44.7268 46.3473 44.7268C47.03 44.7268 47.5921 44.0661 47.5921 43.2638C47.5921 42.4615 47.03 41.8008 46.3473 41.8008C45.6647 41.8008 45.1025 42.4615 45.1025 43.2638Z" fill="#A01700"/>
<path d="M45.1025 51.7081C45.1025 52.5104 45.6647 53.1711 46.3473 53.1711C47.03 53.1711 47.5921 52.5104 47.5921 51.7081C47.5921 50.9058 47.03 50.2451 46.3473 50.2451C45.6647 50.2451 45.1025 50.9058 45.1025 51.7081Z" fill="#A01700"/>
<path d="M45.1025 60.1058C45.1025 60.9081 45.6647 61.5688 46.3473 61.5688C47.03 61.5688 47.5921 60.9081 47.5921 60.1058C47.5921 59.3035 47.03 58.6428 46.3473 58.6428C45.6647 58.6428 45.1025 59.3035 45.1025 60.1058Z" fill="#A01700"/>
<path d="M45.1025 68.504C45.1025 69.3063 45.6647 69.967 46.3473 69.967C47.03 69.967 47.5921 69.3063 47.5921 68.504C47.5921 67.7017 47.03 67.041 46.3473 67.041C45.6647 67.041 45.1025 67.7017 45.1025 68.504Z" fill="#A01700"/>
<path d="M45.1025 76.902C45.1025 77.7043 45.6647 78.365 46.3473 78.365C47.03 78.365 47.5921 77.7043 47.5921 76.902C47.5921 76.0997 47.03 75.439 46.3473 75.439C45.6647 75.439 45.1025 76.0997 45.1025 76.902Z" fill="#A01700"/>
<path d="M45.1025 85.2997C45.1025 86.1019 45.6647 86.7626 46.3473 86.7626C47.03 86.7626 47.5921 86.1019 47.5921 85.2997C47.5921 84.4974 47.03 83.8367 46.3473 83.8367C45.6647 83.8367 45.1025 84.4974 45.1025 85.2997Z" fill="#A01700"/>
<path d="M45.1025 93.6978C45.1025 94.5001 45.6647 95.1608 46.3473 95.1608C47.03 95.1608 47.5921 94.5001 47.5921 93.6978C47.5921 92.8956 47.03 92.2349 46.3473 92.2349C45.6647 92.2349 45.1025 92.8956 45.1025 93.6978Z" fill="#A01700"/>
<path d="M45.1025 102.096C45.1025 102.898 45.6647 103.559 46.3473 103.559C47.03 103.559 47.5921 102.898 47.5921 102.096C47.5921 101.294 47.03 100.633 46.3473 100.633C45.6647 100.633 45.1025 101.294 45.1025 102.096Z" fill="#A01700"/>
<path d="M45.1025 110.494C45.1025 111.296 45.6647 111.957 46.3473 111.957C47.03 111.957 47.5921 111.296 47.5921 110.494C47.5921 109.691 47.03 109.031 46.3473 109.031C45.6647 109.031 45.1025 109.691 45.1025 110.494Z" fill="#A01700"/>
<path d="M45.1025 118.938C45.1025 119.74 45.6647 120.401 46.3473 120.401C47.03 120.401 47.5921 119.74 47.5921 118.938C47.5921 118.135 47.03 117.475 46.3473 117.475C45.6647 117.475 45.1025 118.135 45.1025 118.938Z" fill="#A01700"/>
<path d="M45.1025 127.336C45.1025 128.138 45.6647 128.799 46.3473 128.799C47.03 128.799 47.5921 128.138 47.5921 127.336C47.5921 126.533 47.03 125.873 46.3473 125.873C45.6647 125.873 45.1025 126.533 45.1025 127.336Z" fill="#A01700"/>
<path d="M37.835 1.27419C37.835 2.12367 38.4373 2.83154 39.1601 2.83154C39.8829 2.83154 40.4852 2.12367 40.4852 1.27419C40.4852 0.424707 39.8829 -0.283203 39.1601 -0.283203C38.4373 -0.283203 37.835 0.424707 37.835 1.27419Z" fill="#A01700"/>
<path d="M37.835 9.67165C37.835 10.5211 38.4373 11.229 39.1601 11.229C39.8829 11.229 40.4852 10.5211 40.4852 9.67165C40.4852 8.82217 39.8829 8.11426 39.1601 8.11426C38.4373 8.11426 37.835 8.82217 37.835 9.67165Z" fill="#A01700"/>
<path d="M37.835 18.0701C37.835 18.9196 38.4373 19.6275 39.1601 19.6275C39.8829 19.6275 40.4852 18.9196 40.4852 18.0701C40.4852 17.2206 39.8829 16.5127 39.1601 16.5127C38.4373 16.5127 37.835 17.2206 37.835 18.0701Z" fill="#A01700"/>
<path d="M37.835 26.468C37.835 27.3175 38.4373 28.0254 39.1601 28.0254C39.8829 28.0254 40.4852 27.3175 40.4852 26.468C40.4852 25.6186 39.8829 24.9106 39.1601 24.9106C38.4373 24.9106 37.835 25.6186 37.835 26.468Z" fill="#A01700"/>
<path d="M37.835 34.8657C37.835 35.7152 38.4373 36.4231 39.1601 36.4231C39.8829 36.4231 40.4852 35.7152 40.4852 34.8657C40.4852 34.0162 39.8829 33.3083 39.1601 33.3083C38.4373 33.3083 37.835 34.0162 37.835 34.8657Z" fill="#A01700"/>
<path d="M37.835 43.2639C37.835 44.1134 38.4373 44.8213 39.1601 44.8213C39.8829 44.8213 40.4852 44.1134 40.4852 43.2639C40.4852 42.4144 39.8829 41.7065 39.1601 41.7065C38.4373 41.7065 37.835 42.4144 37.835 43.2639Z" fill="#A01700"/>
<path d="M37.835 51.7077C37.835 52.5572 38.4373 53.2651 39.1601 53.2651C39.8829 53.2651 40.4852 52.5572 40.4852 51.7077C40.4852 50.8583 39.8829 50.1504 39.1601 50.1504C38.4373 50.1504 37.835 50.8583 37.835 51.7077Z" fill="#A01700"/>
<path d="M37.835 60.1057C37.835 60.9552 38.4373 61.6631 39.1601 61.6631C39.8829 61.6631 40.4852 60.9552 40.4852 60.1057C40.4852 59.2562 39.8829 58.5483 39.1601 58.5483C38.4373 58.5483 37.835 59.2562 37.835 60.1057Z" fill="#A01700"/>
<path d="M37.835 68.5037C37.835 69.3532 38.4373 70.061 39.1601 70.061C39.8829 70.061 40.4852 69.3532 40.4852 68.5037C40.4852 67.6542 39.8829 66.9463 39.1601 66.9463C38.4373 66.9463 37.835 67.6542 37.835 68.5037Z" fill="#A01700"/>
<path d="M37.835 76.9019C37.835 77.7514 38.4373 78.4593 39.1601 78.4593C39.8829 78.4593 40.4852 77.7514 40.4852 76.9019C40.4852 76.0524 39.8829 75.3445 39.1601 75.3445C38.4373 75.3445 37.835 76.0524 37.835 76.9019Z" fill="#A01700"/>
<path d="M37.835 85.2993C37.835 86.1488 38.4373 86.8567 39.1601 86.8567C39.8829 86.8567 40.4852 86.1488 40.4852 85.2993C40.4852 84.4499 39.8829 83.7419 39.1601 83.7419C38.4373 83.7419 37.835 84.4499 37.835 85.2993Z" fill="#A01700"/>
<path d="M37.835 93.6975C37.835 94.547 38.4373 95.2549 39.1601 95.2549C39.8829 95.2549 40.4852 94.547 40.4852 93.6975C40.4852 92.848 39.8829 92.1401 39.1601 92.1401C38.4373 92.1401 37.835 92.848 37.835 93.6975Z" fill="#A01700"/>
<path d="M37.835 102.096C37.835 102.945 38.4373 103.653 39.1601 103.653C39.8829 103.653 40.4852 102.945 40.4852 102.096C40.4852 101.246 39.8829 100.538 39.1601 100.538C38.4373 100.538 37.835 101.246 37.835 102.096Z" fill="#A01700"/>
<path d="M37.835 110.494C37.835 111.343 38.4373 112.051 39.1601 112.051C39.8829 112.051 40.4852 111.343 40.4852 110.494C40.4852 109.644 39.8829 108.937 39.1601 108.937C38.4373 108.937 37.835 109.644 37.835 110.494Z" fill="#A01700"/>
<path d="M37.835 118.937C37.835 119.787 38.4373 120.495 39.1601 120.495C39.8829 120.495 40.4852 119.787 40.4852 118.937C40.4852 118.088 39.8829 117.38 39.1601 117.38C38.4373 117.38 37.835 118.088 37.835 118.937Z" fill="#A01700"/>
<path d="M37.835 127.336C37.835 128.185 38.4373 128.893 39.1601 128.893C39.8829 128.893 40.4852 128.185 40.4852 127.336C40.4852 126.486 39.8829 125.778 39.1601 125.778C38.4373 125.778 37.835 126.486 37.835 127.336Z" fill="#A01700"/>
<path d="M30.6074 1.27336C30.6074 2.16976 31.2499 2.92461 32.0128 2.92461C32.7757 2.92461 33.4182 2.16976 33.4182 1.27336C33.4182 0.37696 32.7757 -0.37793 32.0128 -0.37793C31.2499 -0.37793 30.6074 0.37696 30.6074 1.27336Z" fill="#A01700"/>
<path d="M30.6074 9.67127C30.6074 10.5677 31.2499 11.3225 32.0128 11.3225C32.7757 11.3225 33.4182 10.5677 33.4182 9.67127C33.4182 8.77487 32.7757 8.02002 32.0128 8.02002C31.2499 8.02002 30.6074 8.77487 30.6074 9.67127Z" fill="#A01700"/>
<path d="M30.6074 18.0692C30.6074 18.9656 31.2499 19.7205 32.0128 19.7205C32.7757 19.7205 33.4182 18.9656 33.4182 18.0692C33.4182 17.1728 32.7757 16.418 32.0128 16.418C31.2499 16.418 30.6074 17.1728 30.6074 18.0692Z" fill="#A01700"/>
<path d="M30.6074 26.4672C30.6074 27.3636 31.2499 28.1184 32.0128 28.1184C32.7757 28.1184 33.4182 27.3636 33.4182 26.4672C33.4182 25.5708 32.7757 24.8159 32.0128 24.8159C31.2499 24.8159 30.6074 25.5708 30.6074 26.4672Z" fill="#A01700"/>
<path d="M30.6074 34.8651C30.6074 35.7615 31.2499 36.5164 32.0128 36.5164C32.7757 36.5164 33.4182 35.7615 33.4182 34.8651C33.4182 33.9687 32.7757 33.2139 32.0128 33.2139C31.2499 33.2139 30.6074 33.9687 30.6074 34.8651Z" fill="#A01700"/>
<path d="M30.6074 43.2631C30.6074 44.1595 31.2499 44.9144 32.0128 44.9144C32.7757 44.9144 33.4182 44.1595 33.4182 43.2631C33.4182 42.3667 32.7757 41.6118 32.0128 41.6118C31.2499 41.6118 30.6074 42.3667 30.6074 43.2631Z" fill="#A01700"/>
<path d="M30.6074 51.7081C30.6074 52.6045 31.2499 53.3594 32.0128 53.3594C32.7757 53.3594 33.4182 52.6045 33.4182 51.7081C33.4182 50.8117 32.7757 50.0569 32.0128 50.0569C31.2499 50.0569 30.6074 50.8117 30.6074 51.7081Z" fill="#A01700"/>
<path d="M30.6074 60.1054C30.6074 61.0018 31.2499 61.7566 32.0128 61.7566C32.7757 61.7566 33.4182 61.0018 33.4182 60.1054C33.4182 59.209 32.7757 58.4541 32.0128 58.4541C31.2499 58.4541 30.6074 59.209 30.6074 60.1054Z" fill="#A01700"/>
<path d="M30.6074 68.5031C30.6074 69.3995 31.2499 70.1543 32.0128 70.1543C32.7757 70.1543 33.4182 69.3995 33.4182 68.5031C33.4182 67.6067 32.7757 66.8518 32.0128 66.8518C31.2499 66.8518 30.6074 67.6067 30.6074 68.5031Z" fill="#A01700"/>
<path d="M30.6074 76.9013C30.6074 77.7976 31.2499 78.5525 32.0128 78.5525C32.7757 78.5525 33.4182 77.7976 33.4182 76.9013C33.4182 76.0049 32.7757 75.25 32.0128 75.25C31.2499 75.25 30.6074 76.0049 30.6074 76.9013Z" fill="#A01700"/>
<path d="M30.6074 85.2994C30.6074 86.1958 31.2499 86.9507 32.0128 86.9507C32.7757 86.9507 33.4182 86.1958 33.4182 85.2994C33.4182 84.403 32.7757 83.6482 32.0128 83.6482C31.2499 83.6482 30.6074 84.403 30.6074 85.2994Z" fill="#A01700"/>
<path d="M30.6074 93.6969C30.6074 94.5933 31.2499 95.3482 32.0128 95.3482C32.7757 95.3482 33.4182 94.5933 33.4182 93.6969C33.4182 92.8005 32.7757 92.0457 32.0128 92.0457C31.2499 92.0457 30.6074 92.8005 30.6074 93.6969Z" fill="#A01700"/>
<path d="M30.6074 102.095C30.6074 102.991 31.2499 103.746 32.0128 103.746C32.7757 103.746 33.4182 102.991 33.4182 102.095C33.4182 101.199 32.7757 100.444 32.0128 100.444C31.2499 100.444 30.6074 101.199 30.6074 102.095Z" fill="#A01700"/>
<path d="M30.6074 110.493C30.6074 111.389 31.2499 112.144 32.0128 112.144C32.7757 112.144 33.4182 111.389 33.4182 110.493C33.4182 109.597 32.7757 108.842 32.0128 108.842C31.2499 108.842 30.6074 109.597 30.6074 110.493Z" fill="#A01700"/>
<path d="M30.6074 118.938C30.6074 119.835 31.2499 120.59 32.0128 120.59C32.7757 120.59 33.4182 119.835 33.4182 118.938C33.4182 118.042 32.7757 117.287 32.0128 117.287C31.2499 117.287 30.6074 118.042 30.6074 118.938Z" fill="#A01700"/>
<path d="M30.6074 127.335C30.6074 128.231 31.2499 128.986 32.0128 128.986C32.7757 128.986 33.4182 128.231 33.4182 127.335C33.4182 126.438 32.7757 125.684 32.0128 125.684C31.2499 125.684 30.6074 126.438 30.6074 127.335Z" fill="#A01700"/>
<path d="M23.3398 1.27329C23.3398 2.26404 24.0225 3.06607 24.8657 3.06607C25.709 3.06607 26.3916 2.26404 26.3916 1.27329C26.3916 0.282532 25.709 -0.519531 24.8657 -0.519531C24.0225 -0.519531 23.3398 0.282532 23.3398 1.27329Z" fill="#A01700"/>
<path d="M23.3398 9.67124C23.3398 10.662 24.0225 11.464 24.8657 11.464C25.709 11.464 26.3916 10.662 26.3916 9.67124C26.3916 8.68048 25.709 7.87842 24.8657 7.87842C24.0225 7.87842 23.3398 8.68048 23.3398 9.67124Z" fill="#A01700"/>
<path d="M23.3398 18.0692C23.3398 19.0599 24.0225 19.8619 24.8657 19.8619C25.709 19.8619 26.3916 19.0599 26.3916 18.0692C26.3916 17.0784 25.709 16.2764 24.8657 16.2764C24.0225 16.2764 23.3398 17.0784 23.3398 18.0692Z" fill="#A01700"/>
<path d="M23.3398 26.4673C23.3398 27.4581 24.0225 28.2601 24.8657 28.2601C25.709 28.2601 26.3916 27.4581 26.3916 26.4673C26.3916 25.4766 25.709 24.6746 24.8657 24.6746C24.0225 24.6746 23.3398 25.4766 23.3398 26.4673Z" fill="#A01700"/>
<path d="M23.3398 34.8648C23.3398 35.8556 24.0225 36.6576 24.8657 36.6576C25.709 36.6576 26.3916 35.8556 26.3916 34.8648C26.3916 33.874 25.709 33.072 24.8657 33.072C24.0225 33.072 23.3398 33.874 23.3398 34.8648Z" fill="#A01700"/>
<path d="M23.3398 43.263C23.3398 44.2538 24.0225 45.0558 24.8657 45.0558C25.709 45.0558 26.3916 44.2538 26.3916 43.263C26.3916 42.2722 25.709 41.4702 24.8657 41.4702C24.0225 41.4702 23.3398 42.2722 23.3398 43.263Z" fill="#A01700"/>
<path d="M23.3398 51.7078C23.3398 52.6986 24.0225 53.5006 24.8657 53.5006C25.709 53.5006 26.3916 52.6986 26.3916 51.7078C26.3916 50.7171 25.709 49.915 24.8657 49.915C24.0225 49.915 23.3398 50.7171 23.3398 51.7078Z" fill="#A01700"/>
<path d="M23.3398 60.1063C23.3398 61.097 24.0225 61.8991 24.8657 61.8991C25.709 61.8991 26.3916 61.097 26.3916 60.1063C26.3916 59.1155 25.709 58.3135 24.8657 58.3135C24.0225 58.3135 23.3398 59.1155 23.3398 60.1063Z" fill="#A01700"/>
<path d="M23.3398 68.5033C23.3398 69.494 24.0225 70.2961 24.8657 70.2961C25.709 70.2961 26.3916 69.494 26.3916 68.5033C26.3916 67.5125 25.709 66.7104 24.8657 66.7104C24.0225 66.7104 23.3398 67.5125 23.3398 68.5033Z" fill="#A01700"/>
<path d="M23.3398 76.9012C23.3398 77.892 24.0225 78.694 24.8657 78.694C25.709 78.694 26.3916 77.892 26.3916 76.9012C26.3916 75.9105 25.709 75.1084 24.8657 75.1084C24.0225 75.1084 23.3398 75.9105 23.3398 76.9012Z" fill="#A01700"/>
<path d="M23.3398 85.2991C23.3398 86.2899 24.0225 87.0919 24.8657 87.0919C25.709 87.0919 26.3916 86.2899 26.3916 85.2991C26.3916 84.3084 25.709 83.5063 24.8657 83.5063C24.0225 83.5063 23.3398 84.3084 23.3398 85.2991Z" fill="#A01700"/>
<path d="M23.3398 93.6968C23.3398 94.6876 24.0225 95.4896 24.8657 95.4896C25.709 95.4896 26.3916 94.6876 26.3916 93.6968C26.3916 92.7061 25.709 91.9041 24.8657 91.9041C24.0225 91.9041 23.3398 92.7061 23.3398 93.6968Z" fill="#A01700"/>
<path d="M23.3398 102.095C23.3398 103.086 24.0225 103.888 24.8657 103.888C25.709 103.888 26.3916 103.086 26.3916 102.095C26.3916 101.104 25.709 100.302 24.8657 100.302C24.0225 100.302 23.3398 101.104 23.3398 102.095Z" fill="#A01700"/>
<path d="M23.3398 110.493C23.3398 111.484 24.0225 112.286 24.8657 112.286C25.709 112.286 26.3916 111.484 26.3916 110.493C26.3916 109.502 25.709 108.7 24.8657 108.7C24.0225 108.7 23.3398 109.502 23.3398 110.493Z" fill="#A01700"/>
<path d="M23.3398 118.938C23.3398 119.929 24.0225 120.731 24.8657 120.731C25.709 120.731 26.3916 119.929 26.3916 118.938C26.3916 117.948 25.709 117.146 24.8657 117.146C24.0225 117.146 23.3398 117.948 23.3398 118.938Z" fill="#A01700"/>
<path d="M23.3398 127.336C23.3398 128.327 24.0225 129.129 24.8657 129.129C25.709 129.129 26.3916 128.327 26.3916 127.336C26.3916 126.345 25.709 125.543 24.8657 125.543C24.0225 125.543 23.3398 126.345 23.3398 127.336Z" fill="#A01700"/>
<path d="M16.1123 1.27388C16.1123 2.31181 16.8351 3.161 17.7185 3.161C18.6019 3.161 19.3246 2.31181 19.3246 1.27388C19.3246 0.235945 18.6019 -0.613281 17.7185 -0.613281C16.8351 -0.613281 16.1123 0.235945 16.1123 1.27388Z" fill="#A01700"/>
<path d="M16.1123 9.67085C16.1123 10.7088 16.8351 11.558 17.7185 11.558C18.6019 11.558 19.3246 10.7088 19.3246 9.67085C19.3246 8.63292 18.6019 7.78369 17.7185 7.78369C16.8351 7.78369 16.1123 8.63292 16.1123 9.67085Z" fill="#A01700"/>
<path d="M16.1123 18.0688C16.1123 19.1067 16.8351 19.956 17.7185 19.956C18.6019 19.956 19.3246 19.1067 19.3246 18.0688C19.3246 17.0309 18.6019 16.1816 17.7185 16.1816C16.8351 16.1816 16.1123 17.0309 16.1123 18.0688Z" fill="#A01700"/>
<path d="M16.1123 26.4672C16.1123 27.5052 16.8351 28.3544 17.7185 28.3544C18.6019 28.3544 19.3246 27.5052 19.3246 26.4672C19.3246 25.4293 18.6019 24.5801 17.7185 24.5801C16.8351 24.5801 16.1123 25.4293 16.1123 26.4672Z" fill="#A01700"/>
<path d="M16.1123 34.8649C16.1123 35.9029 16.8351 36.7521 17.7185 36.7521C18.6019 36.7521 19.3246 35.9029 19.3246 34.8649C19.3246 33.827 18.6019 32.9778 17.7185 32.9778C16.8351 32.9778 16.1123 33.827 16.1123 34.8649Z" fill="#A01700"/>
<path d="M16.1123 43.2629C16.1123 44.3008 16.8351 45.15 17.7185 45.15C18.6019 45.15 19.3246 44.3008 19.3246 43.2629C19.3246 42.2249 18.6019 41.3757 17.7185 41.3757C16.8351 41.3757 16.1123 42.2249 16.1123 43.2629Z" fill="#A01700"/>
<path d="M16.1123 51.7082C16.1123 52.7461 16.8351 53.5953 17.7185 53.5953C18.6019 53.5953 19.3246 52.7461 19.3246 51.7082C19.3246 50.6702 18.6019 49.821 17.7185 49.821C16.8351 49.821 16.1123 50.6702 16.1123 51.7082Z" fill="#A01700"/>
<path d="M16.1123 60.1061C16.1123 61.1441 16.8351 61.9933 17.7185 61.9933C18.6019 61.9933 19.3246 61.1441 19.3246 60.1061C19.3246 59.0682 18.6019 58.219 17.7185 58.219C16.8351 58.219 16.1123 59.0682 16.1123 60.1061Z" fill="#A01700"/>
<path d="M16.1123 68.5043C16.1123 69.5423 16.8351 70.3915 17.7185 70.3915C18.6019 70.3915 19.3246 69.5423 19.3246 68.5043C19.3246 67.4664 18.6019 66.6172 17.7185 66.6172C16.8351 66.6172 16.1123 67.4664 16.1123 68.5043Z" fill="#A01700"/>
<path d="M16.1123 76.9008C16.1123 77.9388 16.8351 78.788 17.7185 78.788C18.6019 78.788 19.3246 77.9388 19.3246 76.9008C19.3246 75.8629 18.6019 75.0137 17.7185 75.0137C16.8351 75.0137 16.1123 75.8629 16.1123 76.9008Z" fill="#A01700"/>
<path d="M16.1123 85.2993C16.1123 86.3372 16.8351 87.1864 17.7185 87.1864C18.6019 87.1864 19.3246 86.3372 19.3246 85.2993C19.3246 84.2613 18.6019 83.4121 17.7185 83.4121C16.8351 83.4121 16.1123 84.2613 16.1123 85.2993Z" fill="#A01700"/>
<path d="M16.1123 93.697C16.1123 94.7349 16.8351 95.5841 17.7185 95.5841C18.6019 95.5841 19.3246 94.7349 19.3246 93.697C19.3246 92.659 18.6019 91.8098 17.7185 91.8098C16.8351 91.8098 16.1123 92.659 16.1123 93.697Z" fill="#A01700"/>
<path d="M16.1123 102.095C16.1123 103.133 16.8351 103.982 17.7185 103.982C18.6019 103.982 19.3246 103.133 19.3246 102.095C19.3246 101.057 18.6019 100.208 17.7185 100.208C16.8351 100.208 16.1123 101.057 16.1123 102.095Z" fill="#A01700"/>
<path d="M16.1123 110.493C16.1123 111.531 16.8351 112.38 17.7185 112.38C18.6019 112.38 19.3246 111.531 19.3246 110.493C19.3246 109.455 18.6019 108.606 17.7185 108.606C16.8351 108.606 16.1123 109.455 16.1123 110.493Z" fill="#A01700"/>
<path d="M16.1123 118.938C16.1123 119.976 16.8351 120.825 17.7185 120.825C18.6019 120.825 19.3246 119.976 19.3246 118.938C19.3246 117.9 18.6019 117.051 17.7185 117.051C16.8351 117.051 16.1123 117.9 16.1123 118.938Z" fill="#A01700"/>
<path d="M16.1123 127.336C16.1123 128.374 16.8351 129.223 17.7185 129.223C18.6019 129.223 19.3246 128.374 19.3246 127.336C19.3246 126.298 18.6019 125.449 17.7185 125.449C16.8351 125.449 16.1123 126.298 16.1123 127.336Z" fill="#A01700"/>
<path d="M8.88379 1.27402C8.88379 2.35913 9.64672 3.25552 10.5703 3.25552C11.4938 3.25552 12.2568 2.35913 12.2568 1.27402C12.2568 0.188906 11.4938 -0.70752 10.5703 -0.70752C9.64672 -0.70752 8.88379 0.188906 8.88379 1.27402Z" fill="#A01700"/>
<path d="M8.88379 9.6712C8.88379 10.7563 9.64672 11.6527 10.5703 11.6527C11.4938 11.6527 12.2568 10.7563 12.2568 9.6712C12.2568 8.58609 11.4938 7.6897 10.5703 7.6897C9.64672 7.6897 8.88379 8.58609 8.88379 9.6712Z" fill="#A01700"/>
<path d="M8.88379 18.0689C8.88379 19.154 9.64672 20.0504 10.5703 20.0504C11.4938 20.0504 12.2568 19.154 12.2568 18.0689C12.2568 16.9838 11.4938 16.0874 10.5703 16.0874C9.64672 16.0874 8.88379 16.9838 8.88379 18.0689Z" fill="#A01700"/>
<path d="M8.88379 26.4669C8.88379 27.552 9.64672 28.4484 10.5703 28.4484C11.4938 28.4484 12.2568 27.552 12.2568 26.4669C12.2568 25.3817 11.4938 24.4854 10.5703 24.4854C9.64672 24.4854 8.88379 25.3817 8.88379 26.4669Z" fill="#A01700"/>
<path d="M8.88379 34.8653C8.88379 35.9504 9.64672 36.8468 10.5703 36.8468C11.4938 36.8468 12.2568 35.9504 12.2568 34.8653C12.2568 33.7802 11.4938 32.8838 10.5703 32.8838C9.64672 32.8838 8.88379 33.7802 8.88379 34.8653Z" fill="#A01700"/>
<path d="M8.88379 43.2628C8.88379 44.3479 9.64672 45.2443 10.5703 45.2443C11.4938 45.2443 12.2568 44.3479 12.2568 43.2628C12.2568 42.1776 11.4938 41.2812 10.5703 41.2812C9.64672 41.2812 8.88379 42.1776 8.88379 43.2628Z" fill="#A01700"/>
<path d="M8.88379 51.7081C8.88379 52.7932 9.64672 53.6896 10.5703 53.6896C11.4938 53.6896 12.2568 52.7932 12.2568 51.7081C12.2568 50.623 11.4938 49.7266 10.5703 49.7266C9.64672 49.7266 8.88379 50.623 8.88379 51.7081Z" fill="#A01700"/>
<path d="M8.88379 60.106C8.88379 61.1911 9.64672 62.0876 10.5703 62.0876C11.4938 62.0876 12.2568 61.1911 12.2568 60.106C12.2568 59.0209 11.4938 58.1245 10.5703 58.1245C9.64672 58.1245 8.88379 59.0209 8.88379 60.106Z" fill="#A01700"/>
<path d="M8.88379 68.5042C8.88379 69.5894 9.64672 70.4857 10.5703 70.4857C11.4938 70.4857 12.2568 69.5894 12.2568 68.5042C12.2568 67.4191 11.4938 66.5227 10.5703 66.5227C9.64672 66.5227 8.88379 67.4191 8.88379 68.5042Z" fill="#A01700"/>
<path d="M8.88379 76.9009C8.88379 77.986 9.64672 78.8824 10.5703 78.8824C11.4938 78.8824 12.2568 77.986 12.2568 76.9009C12.2568 75.8158 11.4938 74.9194 10.5703 74.9194C9.64672 74.9194 8.88379 75.8158 8.88379 76.9009Z" fill="#A01700"/>
<path d="M8.88379 85.2989C8.88379 86.384 9.64672 87.2804 10.5703 87.2804C11.4938 87.2804 12.2568 86.384 12.2568 85.2989C12.2568 84.2138 11.4938 83.3174 10.5703 83.3174C9.64672 83.3174 8.88379 84.2138 8.88379 85.2989Z" fill="#A01700"/>
<path d="M8.88379 93.6966C8.88379 94.7817 9.64672 95.6781 10.5703 95.6781C11.4938 95.6781 12.2568 94.7817 12.2568 93.6966C12.2568 92.6115 11.4938 91.7151 10.5703 91.7151C9.64672 91.7151 8.88379 92.6115 8.88379 93.6966Z" fill="#A01700"/>
<path d="M8.88379 102.095C8.88379 103.18 9.64672 104.076 10.5703 104.076C11.4938 104.076 12.2568 103.18 12.2568 102.095C12.2568 101.009 11.4938 100.113 10.5703 100.113C9.64672 100.113 8.88379 101.009 8.88379 102.095Z" fill="#A01700"/>
<path d="M8.88379 110.493C8.88379 111.578 9.64672 112.475 10.5703 112.475C11.4938 112.475 12.2568 111.578 12.2568 110.493C12.2568 109.408 11.4938 108.511 10.5703 108.511C9.64672 108.511 8.88379 109.408 8.88379 110.493Z" fill="#A01700"/>
<path d="M8.88379 118.938C8.88379 120.023 9.64672 120.919 10.5703 120.919C11.4938 120.919 12.2568 120.023 12.2568 118.938C12.2568 117.853 11.4938 116.956 10.5703 116.956C9.64672 116.956 8.88379 117.853 8.88379 118.938Z" fill="#A01700"/>
<path d="M8.88379 127.336C8.88379 128.421 9.64672 129.317 10.5703 129.317C11.4938 129.317 12.2568 128.421 12.2568 127.336C12.2568 126.251 11.4938 125.354 10.5703 125.354C9.64672 125.354 8.88379 126.251 8.88379 127.336Z" fill="#A01700"/>
<path d="M1.61523 1.27412C1.61523 2.45359 2.41828 3.34997 3.38199 3.34997C4.3457 3.34997 5.1488 2.40641 5.1488 1.27412C5.1488 0.141831 4.3457 -0.801758 3.38199 -0.801758C2.41828 -0.801758 1.61523 0.141831 1.61523 1.27412Z" fill="#A01700"/>
<path d="M1.61523 9.67207C1.61523 10.8515 2.41828 11.7479 3.38199 11.7479C4.3457 11.7479 5.1488 10.8044 5.1488 9.67207C5.1488 8.53978 4.3457 7.59619 3.38199 7.59619C2.41828 7.59619 1.61523 8.53978 1.61523 9.67207Z" fill="#A01700"/>
<path d="M1.61523 18.0686C1.61523 19.248 2.41828 20.1444 3.38199 20.1444C4.3457 20.1444 5.1488 19.2008 5.1488 18.0686C5.1488 16.9363 4.3457 15.9927 3.38199 15.9927C2.41828 15.9927 1.61523 16.9363 1.61523 18.0686Z" fill="#A01700"/>
<path d="M1.61523 26.4665C1.61523 27.646 2.41828 28.5424 3.38199 28.5424C4.3457 28.5424 5.1488 27.5988 5.1488 26.4665C5.1488 25.3342 4.3457 24.3906 3.38199 24.3906C2.41828 24.3906 1.61523 25.3342 1.61523 26.4665Z" fill="#A01700"/>
<path d="M1.61523 34.8649C1.61523 36.0444 2.41828 36.9408 3.38199 36.9408C4.3457 36.9408 5.1488 35.9972 5.1488 34.8649C5.1488 33.7326 4.3457 32.7891 3.38199 32.7891C2.41828 32.7891 1.61523 33.7326 1.61523 34.8649Z" fill="#A01700"/>
<path d="M1.61523 43.2624C1.61523 44.4418 2.41828 45.3382 3.38199 45.3382C4.3457 45.3382 5.1488 44.3947 5.1488 43.2624C5.1488 42.1301 4.3457 41.1865 3.38199 41.1865C2.41828 41.1865 1.61523 42.1301 1.61523 43.2624Z" fill="#A01700"/>
<path d="M1.61523 51.7082C1.61523 52.8876 2.41828 53.784 3.38199 53.784C4.3457 53.784 5.1488 52.8405 5.1488 51.7082C5.1488 50.5759 4.3457 49.6323 3.38199 49.6323C2.41828 49.6323 1.61523 50.5759 1.61523 51.7082Z" fill="#A01700"/>
<path d="M1.61523 60.1056C1.61523 61.2851 2.41828 62.1815 3.38199 62.1815C4.3457 62.1815 5.1488 61.2379 5.1488 60.1056C5.1488 58.9733 4.3457 58.0298 3.38199 58.0298C2.41828 58.0298 1.61523 58.9733 1.61523 60.1056Z" fill="#A01700"/>
<path d="M1.61523 68.5039C1.61523 69.6833 2.41828 70.5797 3.38199 70.5797C4.3457 70.5797 5.1488 69.6362 5.1488 68.5039C5.1488 67.3716 4.3457 66.428 3.38199 66.428C2.41828 66.428 1.61523 67.3716 1.61523 68.5039Z" fill="#A01700"/>
<path d="M1.61523 76.9021C1.61523 78.0815 2.41828 78.9779 3.38199 78.9779C4.3457 78.9779 5.1488 78.0343 5.1488 76.9021C5.1488 75.7698 4.3457 74.8262 3.38199 74.8262C2.41828 74.8262 1.61523 75.7698 1.61523 76.9021Z" fill="#A01700"/>
<path d="M1.61523 85.2988C1.61523 86.4783 2.41828 87.3747 3.38199 87.3747C4.3457 87.3747 5.1488 86.4311 5.1488 85.2988C5.1488 84.1665 4.3457 83.2229 3.38199 83.2229C2.41828 83.2229 1.61523 84.1665 1.61523 85.2988Z" fill="#A01700"/>
<path d="M1.61523 93.697C1.61523 94.8764 2.41828 95.7729 3.38199 95.7729C4.3457 95.7729 5.1488 94.8293 5.1488 93.697C5.1488 92.5647 4.3457 91.6211 3.38199 91.6211C2.41828 91.6211 1.61523 92.5647 1.61523 93.697Z" fill="#A01700"/>
<path d="M1.61523 102.094C1.61523 103.274 2.41828 104.17 3.38199 104.17C4.3457 104.17 5.1488 103.227 5.1488 102.094C5.1488 100.962 4.3457 100.019 3.38199 100.019C2.41828 100.019 1.61523 100.962 1.61523 102.094Z" fill="#A01700"/>
<path d="M1.61523 110.493C1.61523 111.672 2.41828 112.568 3.38199 112.568C4.3457 112.568 5.1488 111.625 5.1488 110.493C5.1488 109.36 4.3457 108.417 3.38199 108.417C2.41828 108.417 1.61523 109.36 1.61523 110.493Z" fill="#A01700"/>
<path d="M1.61523 118.938C1.61523 120.117 2.41828 121.014 3.38199 121.014C4.3457 121.014 5.1488 120.07 5.1488 118.938C5.1488 117.805 4.3457 116.862 3.38199 116.862C2.41828 116.862 1.61523 117.805 1.61523 118.938Z" fill="#A01700"/>
<path d="M1.61523 127.336C1.61523 128.515 2.41828 129.412 3.38199 129.412C4.3457 129.412 5.1488 128.468 5.1488 127.336C5.1488 126.204 4.3457 125.26 3.38199 125.26C2.41828 125.26 1.61523 126.204 1.61523 127.336Z" fill="#A01700"/>
</g>
<path d="M60.964 351.671L-38.1777 475.374L320.242 480.092L187.451 353.134L60.964 351.671Z" fill="#FF3500"/>
<path d="M190.745 478.3L58.4355 643.378L226.724 644.039L319.762 527.932L319.882 479.904L190.745 478.3Z" fill="#FF3500"/>
<mask id="mask1_720_2257" style="mask-type:luminance" maskUnits="userSpaceOnUse" x="58" y="477" width="263" height="167">
<path d="M191.144 477.874L58.835 642.953L227.123 643.614L320.161 527.506L320.241 479.431L191.144 477.874Z" fill="white"/>
</mask>
<g mask="url(#mask1_720_2257)">
<path d="M318.272 498.397C320.401 498.397 322.127 496.369 322.127 493.868C322.127 491.366 320.401 489.339 318.272 489.339C316.143 489.339 314.417 491.366 314.417 493.868C314.417 496.369 316.143 498.397 318.272 498.397Z" fill="#A01700"/>
<path d="M311.125 498.397C313.254 498.397 314.98 496.369 314.98 493.868C314.98 491.366 313.254 489.339 311.125 489.339C308.996 489.339 307.271 491.366 307.271 493.868C307.271 496.369 308.996 498.397 311.125 498.397Z" fill="#A01700"/>
<path d="M303.979 498.397C306.108 498.397 307.834 496.369 307.834 493.868C307.834 491.366 306.108 489.339 303.979 489.339C301.85 489.339 300.124 491.366 300.124 493.868C300.124 496.369 301.85 498.397 303.979 498.397Z" fill="#A01700"/>
<path d="M296.831 498.397C298.959 498.397 300.685 496.369 300.685 493.868C300.685 491.366 298.959 489.339 296.831 489.339C294.702 489.339 292.976 491.366 292.976 493.868C292.976 496.369 294.702 498.397 296.831 498.397Z" fill="#A01700"/>
<path d="M289.683 498.397C291.812 498.397 293.538 496.369 293.538 493.868C293.538 491.366 291.812 489.339 289.683 489.339C287.554 489.339 285.828 491.366 285.828 493.868C285.828 496.369 287.554 498.397 289.683 498.397Z" fill="#A01700"/>
<path d="M282.494 498.397C284.623 498.397 286.349 496.369 286.349 493.868C286.349 491.366 284.623 489.339 282.494 489.339C280.365 489.339 278.64 491.366 278.64 493.868C278.64 496.369 280.365 498.397 282.494 498.397Z" fill="#A01700"/>
<path d="M275.347 498.397C277.476 498.397 279.202 496.369 279.202 493.868C279.202 491.366 277.476 489.339 275.347 489.339C273.218 489.339 271.492 491.366 271.492 493.868C271.492 496.369 273.218 498.397 275.347 498.397Z" fill="#A01700"/>
<path d="M268.2 498.397C270.329 498.397 272.054 496.369 272.054 493.868C272.054 491.366 270.329 489.339 268.2 489.339C266.071 489.339 264.345 491.366 264.345 493.868C264.345 496.369 266.071 498.397 268.2 498.397Z" fill="#A01700"/>
<path d="M261.052 498.397C263.181 498.397 264.907 496.369 264.907 493.868C264.907 491.366 263.181 489.339 261.052 489.339C258.923 489.339 257.197 491.366 257.197 493.868C257.197 496.369 258.923 498.397 261.052 498.397Z" fill="#A01700"/>
<path d="M253.905 498.397C256.034 498.397 257.76 496.369 257.76 493.868C257.76 491.366 256.034 489.339 253.905 489.339C251.776 489.339 250.05 491.366 250.05 493.868C250.05 496.369 251.776 498.397 253.905 498.397Z" fill="#A01700"/>
<path d="M246.758 498.397C248.887 498.397 250.613 496.369 250.613 493.868C250.613 491.366 248.887 489.339 246.758 489.339C244.629 489.339 242.903 491.366 242.903 493.868C242.903 496.369 244.629 498.397 246.758 498.397Z" fill="#A01700"/>
<path d="M239.61 498.397C241.739 498.397 243.465 496.369 243.465 493.868C243.465 491.366 241.739 489.339 239.61 489.339C237.481 489.339 235.755 491.366 235.755 493.868C235.755 496.369 237.481 498.397 239.61 498.397Z" fill="#A01700"/>
<path d="M232.463 498.397C234.592 498.397 236.318 496.369 236.318 493.868C236.318 491.366 234.592 489.339 232.463 489.339C230.334 489.339 228.608 491.366 228.608 493.868C228.608 496.369 230.334 498.397 232.463 498.397Z" fill="#A01700"/>
<path d="M225.275 498.397C227.404 498.397 229.13 496.369 229.13 493.868C229.13 491.366 227.404 489.339 225.275 489.339C223.146 489.339 221.42 491.366 221.42 493.868C221.42 496.369 223.146 498.397 225.275 498.397Z" fill="#A01700"/>
<path d="M218.126 498.397C220.255 498.397 221.981 496.369 221.981 493.868C221.981 491.366 220.255 489.339 218.126 489.339C215.997 489.339 214.271 491.366 214.271 493.868C214.271 496.369 215.997 498.397 218.126 498.397Z" fill="#A01700"/>
<path d="M210.98 498.397C213.109 498.397 214.835 496.369 214.835 493.868C214.835 491.366 213.109 489.339 210.98 489.339C208.851 489.339 207.125 491.366 207.125 493.868C207.125 496.369 208.851 498.397 210.98 498.397Z" fill="#A01700"/>
<path d="M203.831 498.397C205.96 498.397 207.686 496.369 207.686 493.868C207.686 491.366 205.96 489.339 203.831 489.339C201.702 489.339 199.977 491.366 199.977 493.868C199.977 496.369 201.702 498.397 203.831 498.397Z" fill="#A01700"/>
<path d="M318.272 490.234C320.512 490.234 322.328 488.101 322.328 485.469C322.328 482.838 320.512 480.704 318.272 480.704C316.033 480.704 314.217 482.838 314.217 485.469C314.217 488.101 316.033 490.234 318.272 490.234Z" fill="#A01700"/>
<path d="M311.127 490.234C313.367 490.234 315.182 488.101 315.182 485.469C315.182 482.838 313.367 480.704 311.127 480.704C308.887 480.704 307.071 482.838 307.071 485.469C307.071 488.101 308.887 490.234 311.127 490.234Z" fill="#A01700"/>
<path d="M303.979 490.234C306.218 490.234 308.034 488.101 308.034 485.469C308.034 482.838 306.218 480.704 303.979 480.704C301.739 480.704 299.923 482.838 299.923 485.469C299.923 488.101 301.739 490.234 303.979 490.234Z" fill="#A01700"/>
<path d="M296.832 490.234C299.072 490.234 300.888 488.101 300.888 485.469C300.888 482.838 299.072 480.704 296.832 480.704C294.592 480.704 292.776 482.838 292.776 485.469C292.776 488.101 294.592 490.234 296.832 490.234Z" fill="#A01700"/>
<path d="M289.683 490.234C291.922 490.234 293.738 488.101 293.738 485.469C293.738 482.838 291.922 480.704 289.683 480.704C287.443 480.704 285.627 482.838 285.627 485.469C285.627 488.101 287.443 490.234 289.683 490.234Z" fill="#A01700"/>
<path d="M282.494 490.234C284.734 490.234 286.55 488.101 286.55 485.469C286.55 482.838 284.734 480.704 282.494 480.704C280.254 480.704 278.438 482.838 278.438 485.469C278.438 488.101 280.254 490.234 282.494 490.234Z" fill="#A01700"/>
<path d="M275.348 490.234C277.588 490.234 279.403 488.101 279.403 485.469C279.403 482.838 277.588 480.704 275.348 480.704C273.108 480.704 271.292 482.838 271.292 485.469C271.292 488.101 273.108 490.234 275.348 490.234Z" fill="#A01700"/>
<path d="M268.201 490.234C270.441 490.234 272.257 488.101 272.257 485.469C272.257 482.838 270.441 480.704 268.201 480.704C265.961 480.704 264.146 482.838 264.146 485.469C264.146 488.101 265.961 490.234 268.201 490.234Z" fill="#A01700"/>
<path d="M261.052 490.234C263.292 490.234 265.107 488.101 265.107 485.469C265.107 482.838 263.292 480.704 261.052 480.704C258.812 480.704 256.996 482.838 256.996 485.469C256.996 488.101 258.812 490.234 261.052 490.234Z" fill="#A01700"/>
<path d="M253.906 490.234C256.146 490.234 257.962 488.101 257.962 485.469C257.962 482.838 256.146 480.704 253.906 480.704C251.666 480.704 249.851 482.838 249.851 485.469C249.851 488.101 251.666 490.234 253.906 490.234Z" fill="#A01700"/>
<path d="M246.758 490.234C248.998 490.234 250.813 488.101 250.813 485.469C250.813 482.838 248.998 480.704 246.758 480.704C244.518 480.704 242.702 482.838 242.702 485.469C242.702 488.101 244.518 490.234 246.758 490.234Z" fill="#A01700"/>
<path d="M239.61 490.234C241.85 490.234 243.666 488.101 243.666 485.469C243.666 482.838 241.85 480.704 239.61 480.704C237.37 480.704 235.555 482.838 235.555 485.469C235.555 488.101 237.37 490.234 239.61 490.234Z" fill="#A01700"/>
<path d="M232.461 490.234C234.701 490.234 236.516 488.101 236.516 485.469C236.516 482.838 234.701 480.704 232.461 480.704C230.221 480.704 228.405 482.838 228.405 485.469C228.405 488.101 230.221 490.234 232.461 490.234Z" fill="#A01700"/>
<path d="M225.274 490.234C227.514 490.234 229.33 488.101 229.33 485.469C229.33 482.838 227.514 480.704 225.274 480.704C223.035 480.704 221.219 482.838 221.219 485.469C221.219 488.101 223.035 490.234 225.274 490.234Z" fill="#A01700"/>
<path d="M218.128 490.234C220.368 490.234 222.184 488.101 222.184 485.469C222.184 482.838 220.368 480.704 218.128 480.704C215.888 480.704 214.072 482.838 214.072 485.469C214.072 488.101 215.888 490.234 218.128 490.234Z" fill="#A01700"/>
<path d="M210.981 490.234C213.221 490.234 215.037 488.101 215.037 485.469C215.037 482.838 213.221 480.704 210.981 480.704C208.742 480.704 206.926 482.838 206.926 485.469C206.926 488.101 208.742 490.234 210.981 490.234Z" fill="#A01700"/>
<path d="M203.832 490.234C206.072 490.234 207.888 488.101 207.888 485.469C207.888 482.838 206.072 480.704 203.832 480.704C201.592 480.704 199.776 482.838 199.776 485.469C199.776 488.101 201.592 490.234 203.832 490.234Z" fill="#A01700"/>
<path d="M318.274 472.166C315.945 472.166 314.098 474.384 314.098 477.073C314.098 479.762 315.985 481.979 318.274 481.979C320.563 481.979 322.45 479.762 322.45 477.073C322.45 474.384 320.563 472.166 318.274 472.166Z" fill="#A01700"/>
<path d="M311.125 472.166C308.796 472.166 306.949 474.384 306.949 477.073C306.949 479.762 308.837 481.979 311.125 481.979C313.414 481.979 315.301 479.762 315.301 477.073C315.301 474.384 313.414 472.166 311.125 472.166Z" fill="#A01700"/>
<path d="M303.978 472.166C301.649 472.166 299.802 474.384 299.802 477.073C299.802 479.762 301.689 481.979 303.978 481.979C306.267 481.979 308.154 479.762 308.154 477.073C308.154 474.384 306.267 472.166 303.978 472.166Z" fill="#A01700"/>
<path d="M296.829 472.166C294.5 472.166 292.653 474.383 292.653 477.073C292.653 479.762 294.541 481.979 296.829 481.979C299.118 481.979 301.005 479.762 301.005 477.073C301.005 474.383 299.118 472.166 296.829 472.166Z" fill="#A01700"/>
<path d="M289.684 472.166C287.355 472.166 285.508 474.383 285.508 477.073C285.508 479.762 287.395 481.979 289.684 481.979C291.973 481.979 293.86 479.762 293.86 477.073C293.86 474.383 291.973 472.166 289.684 472.166Z" fill="#A01700"/>
<path d="M282.495 472.166C280.166 472.166 278.319 474.384 278.319 477.073C278.319 479.762 280.207 481.979 282.495 481.979C284.784 481.979 286.672 479.762 286.672 477.073C286.672 474.384 284.784 472.166 282.495 472.166Z" fill="#A01700"/>
<path d="M275.348 472.166C273.019 472.166 271.172 474.383 271.172 477.073C271.172 479.762 273.059 481.979 275.348 481.979C277.637 481.979 279.524 479.762 279.524 477.073C279.524 474.383 277.637 472.166 275.348 472.166Z" fill="#A01700"/>
<path d="M268.201 472.166C265.872 472.166 264.024 474.383 264.024 477.073C264.024 479.762 265.912 481.979 268.201 481.979C270.489 481.979 272.377 479.762 272.377 477.073C272.377 474.383 270.489 472.166 268.201 472.166Z" fill="#A01700"/>
<path d="M261.053 472.166C258.724 472.166 256.877 474.383 256.877 477.073C256.877 479.762 258.764 481.979 261.053 481.979C263.342 481.979 265.229 479.762 265.229 477.073C265.229 474.383 263.342 472.166 261.053 472.166Z" fill="#A01700"/>
<path d="M253.905 472.166C251.576 472.166 249.729 474.384 249.729 477.073C249.729 479.762 251.616 481.979 253.905 481.979C256.193 481.979 258.081 479.762 258.081 477.073C258.081 474.384 256.193 472.166 253.905 472.166Z" fill="#A01700"/>
<path d="M246.758 472.166C244.429 472.166 242.582 474.384 242.582 477.073C242.582 479.762 244.469 481.979 246.758 481.979C249.047 481.979 250.934 479.762 250.934 477.073C250.934 474.384 249.047 472.166 246.758 472.166Z" fill="#A01700"/>
<path d="M239.611 472.166C237.282 472.166 235.435 474.384 235.435 477.073C235.435 479.762 237.322 481.979 239.611 481.979C241.899 481.979 243.787 479.762 243.787 477.073C243.787 474.384 241.899 472.166 239.611 472.166Z" fill="#A01700"/>
<path d="M232.462 472.166C230.133 472.166 228.286 474.384 228.286 477.073C228.286 479.762 230.173 481.979 232.462 481.979C234.751 481.979 236.638 479.762 236.638 477.073C236.638 474.384 234.751 472.166 232.462 472.166Z" fill="#A01700"/>
<path d="M225.275 472.166C222.946 472.166 221.099 474.384 221.099 477.073C221.099 479.762 222.986 481.979 225.275 481.979C227.564 481.979 229.451 479.762 229.451 477.073C229.451 474.384 227.564 472.166 225.275 472.166Z" fill="#A01700"/>
<path d="M218.128 472.166C215.799 472.166 213.952 474.384 213.952 477.073C213.952 479.762 215.839 481.979 218.128 481.979C220.417 481.979 222.304 479.762 222.304 477.073C222.304 474.384 220.417 472.166 218.128 472.166Z" fill="#A01700"/>
<path d="M210.98 472.166C208.651 472.166 206.804 474.384 206.804 477.073C206.804 479.762 208.691 481.979 210.98 481.979C213.269 481.979 215.156 479.762 215.156 477.073C215.156 474.384 213.269 472.166 210.98 472.166Z" fill="#A01700"/>
<path d="M203.833 472.166C201.504 472.166 199.657 474.383 199.657 477.073C199.657 479.762 201.545 481.979 203.833 481.979C206.122 481.979 208.009 479.762 208.009 477.073C208.009 474.383 206.122 472.166 203.833 472.166Z" fill="#A01700"/>
<path d="M197.246 498.397C199.375 498.397 201.101 496.369 201.101 493.868C201.101 491.366 199.375 489.339 197.246 489.339C195.117 489.339 193.392 491.366 193.392 493.868C193.392 496.369 195.117 498.397 197.246 498.397Z" fill="#A01700"/>
<path d="M190.101 498.397C192.23 498.397 193.956 496.369 193.956 493.868C193.956 491.366 192.23 489.339 190.101 489.339C187.972 489.339 186.246 491.366 186.246 493.868C186.246 496.369 187.972 498.397 190.101 498.397Z" fill="#A01700"/>
<path d="M182.951 498.397C185.08 498.397 186.806 496.369 186.806 493.868C186.806 491.366 185.08 489.339 182.951 489.339C180.823 489.339 179.097 491.366 179.097 493.868C179.097 496.369 180.823 498.397 182.951 498.397Z" fill="#A01700"/>
<path d="M175.804 498.397C177.933 498.397 179.659 496.369 179.659 493.868C179.659 491.366 177.933 489.339 175.804 489.339C173.675 489.339 171.949 491.366 171.949 493.868C171.949 496.369 173.675 498.397 175.804 498.397Z" fill="#A01700"/>
<path d="M168.657 498.397C170.786 498.397 172.511 496.369 172.511 493.868C172.511 491.366 170.786 489.339 168.657 489.339C166.528 489.339 164.802 491.366 164.802 493.868C164.802 496.369 166.528 498.397 168.657 498.397Z" fill="#A01700"/>
<path d="M161.509 498.397C163.638 498.397 165.364 496.369 165.364 493.868C165.364 491.366 163.638 489.339 161.509 489.339C159.38 489.339 157.654 491.366 157.654 493.868C157.654 496.369 159.38 498.397 161.509 498.397Z" fill="#A01700"/>
<path d="M154.364 498.397C156.493 498.397 158.218 496.369 158.218 493.868C158.218 491.366 156.493 489.339 154.364 489.339C152.235 489.339 150.509 491.366 150.509 493.868C150.509 496.369 152.235 498.397 154.364 498.397Z" fill="#A01700"/>
<path d="M147.215 498.397C149.344 498.397 151.07 496.369 151.07 493.868C151.07 491.366 149.344 489.339 147.215 489.339C145.086 489.339 143.36 491.366 143.36 493.868C143.36 496.369 145.086 498.397 147.215 498.397Z" fill="#A01700"/>
<path d="M140.027 498.397C142.156 498.397 143.882 496.369 143.882 493.868C143.882 491.366 142.156 489.339 140.027 489.339C137.898 489.339 136.172 491.366 136.172 493.868C136.172 496.369 137.898 498.397 140.027 498.397Z" fill="#A01700"/>
<path d="M132.88 498.397C135.009 498.397 136.735 496.369 136.735 493.868C136.735 491.366 135.009 489.339 132.88 489.339C130.751 489.339 129.025 491.366 129.025 493.868C129.025 496.369 130.751 498.397 132.88 498.397Z" fill="#A01700"/>
<path d="M125.731 498.397C127.86 498.397 129.586 496.369 129.586 493.868C129.586 491.366 127.86 489.339 125.731 489.339C123.602 489.339 121.876 491.366 121.876 493.868C121.876 496.369 123.602 498.397 125.731 498.397Z" fill="#A01700"/>
<path d="M118.584 498.397C120.713 498.397 122.439 496.369 122.439 493.868C122.439 491.366 120.713 489.339 118.584 489.339C116.455 489.339 114.729 491.366 114.729 493.868C114.729 496.369 116.455 498.397 118.584 498.397Z" fill="#A01700"/>
<path d="M111.436 498.397C113.565 498.397 115.291 496.369 115.291 493.868C115.291 491.366 113.565 489.339 111.436 489.339C109.307 489.339 107.581 491.366 107.581 493.868C107.581 496.369 109.307 498.397 111.436 498.397Z" fill="#A01700"/>
<path d="M104.289 498.397C106.418 498.397 108.144 496.369 108.144 493.868C108.144 491.366 106.418 489.339 104.289 489.339C102.16 489.339 100.435 491.366 100.435 493.868C100.435 496.369 102.16 498.397 104.289 498.397Z" fill="#A01700"/>
<path d="M97.1429 498.397C99.2719 498.397 100.998 496.369 100.998 493.868C100.998 491.366 99.2719 489.339 97.1429 489.339C95.0139 489.339 93.2881 491.366 93.2881 493.868C93.2881 496.369 95.0139 498.397 97.1429 498.397Z" fill="#A01700"/>
<path d="M89.9935 498.397C92.1225 498.397 93.8483 496.369 93.8483 493.868C93.8483 491.366 92.1225 489.339 89.9935 489.339C87.8645 489.339 86.1387 491.366 86.1387 493.868C86.1387 496.369 87.8645 498.397 89.9935 498.397Z" fill="#A01700"/>
<path d="M82.807 498.397C84.9359 498.397 86.6619 496.369 86.6619 493.868C86.6619 491.366 84.9359 489.339 82.807 489.339C80.678 489.339 78.9521 491.366 78.9521 493.868C78.9521 496.369 80.678 498.397 82.807 498.397Z" fill="#A01700"/>
<path d="M75.6585 498.397C77.7875 498.397 79.5135 496.369 79.5135 493.868C79.5135 491.366 77.7875 489.339 75.6585 489.339C73.5295 489.339 71.8037 491.366 71.8037 493.868C71.8037 496.369 73.5295 498.397 75.6585 498.397Z" fill="#A01700"/>
<path d="M68.5101 498.397C70.6391 498.397 72.3649 496.369 72.3649 493.868C72.3649 491.366 70.6391 489.339 68.5101 489.339C66.3811 489.339 64.6553 491.366 64.6553 493.868C64.6553 496.369 66.3811 498.397 68.5101 498.397Z" fill="#A01700"/>
<path d="M61.3636 498.397C63.4926 498.397 65.2185 496.369 65.2185 493.868C65.2185 491.366 63.4926 489.339 61.3636 489.339C59.2346 489.339 57.5088 491.366 57.5088 493.868C57.5088 496.369 59.2346 498.397 61.3636 498.397Z" fill="#A01700"/>
<path d="M197.247 490.234C199.487 490.234 201.303 488.101 201.303 485.469C201.303 482.838 199.487 480.704 197.247 480.704C195.007 480.704 193.191 482.838 193.191 485.469C193.191 488.101 195.007 490.234 197.247 490.234Z" fill="#A01700"/>
<path d="M190.099 490.234C192.338 490.234 194.154 488.101 194.154 485.469C194.154 482.838 192.338 480.704 190.099 480.704C187.859 480.704 186.043 482.838 186.043 485.469C186.043 488.101 187.859 490.234 190.099 490.234Z" fill="#A01700"/>
<path d="M182.953 490.234C185.193 490.234 187.009 488.101 187.009 485.469C187.009 482.838 185.193 480.704 182.953 480.704C180.713 480.704 178.897 482.838 178.897 485.469C178.897 488.101 180.713 490.234 182.953 490.234Z" fill="#A01700"/>
<path d="M175.804 490.234C178.044 490.234 179.859 488.101 179.859 485.469C179.859 482.838 178.044 480.704 175.804 480.704C173.564 480.704 171.748 482.838 171.748 485.469C171.748 488.101 173.564 490.234 175.804 490.234Z" fill="#A01700"/>
<path d="M168.657 490.234C170.897 490.234 172.713 488.101 172.713 485.469C172.713 482.838 170.897 480.704 168.657 480.704C166.417 480.704 164.602 482.838 164.602 485.469C164.602 488.101 166.417 490.234 168.657 490.234Z" fill="#A01700"/>
<path d="M161.51 490.234C163.75 490.234 165.565 488.101 165.565 485.469C165.565 482.838 163.75 480.704 161.51 480.704C159.27 480.704 157.454 482.838 157.454 485.469C157.454 488.101 159.27 490.234 161.51 490.234Z" fill="#A01700"/>
<path d="M154.362 490.234C156.602 490.234 158.418 488.101 158.418 485.469C158.418 482.838 156.602 480.704 154.362 480.704C152.122 480.704 150.307 482.838 150.307 485.469C150.307 488.101 152.122 490.234 154.362 490.234Z" fill="#A01700"/>
<path d="M147.216 490.234C149.456 490.234 151.271 488.101 151.271 485.469C151.271 482.838 149.456 480.704 147.216 480.704C144.976 480.704 143.16 482.838 143.16 485.469C143.16 488.101 144.976 490.234 147.216 490.234Z" fill="#A01700"/>
<path d="M140.027 490.234C142.267 490.234 144.083 488.101 144.083 485.469C144.083 482.838 142.267 480.704 140.027 480.704C137.787 480.704 135.972 482.838 135.972 485.469C135.972 488.101 137.787 490.234 140.027 490.234Z" fill="#A01700"/>
<path d="M132.879 490.234C135.119 490.234 136.934 488.101 136.934 485.469C136.934 482.838 135.119 480.704 132.879 480.704C130.639 480.704 128.823 482.838 128.823 485.469C128.823 488.101 130.639 490.234 132.879 490.234Z" fill="#A01700"/>
<path d="M125.732 490.234C127.972 490.234 129.788 488.101 129.788 485.469C129.788 482.838 127.972 480.704 125.732 480.704C123.492 480.704 121.677 482.838 121.677 485.469C121.677 488.101 123.492 490.234 125.732 490.234Z" fill="#A01700"/>
<path d="M118.584 490.234C120.824 490.234 122.64 488.101 122.64 485.469C122.64 482.838 120.824 480.704 118.584 480.704C116.344 480.704 114.528 482.838 114.528 485.469C114.528 488.101 116.344 490.234 118.584 490.234Z" fill="#A01700"/>
<path d="M111.437 490.234C113.676 490.234 115.492 488.101 115.492 485.469C115.492 482.838 113.676 480.704 111.437 480.704C109.197 480.704 107.381 482.838 107.381 485.469C107.381 488.101 109.197 490.234 111.437 490.234Z" fill="#A01700"/>
<path d="M104.291 490.234C106.531 490.234 108.347 488.101 108.347 485.469C108.347 482.838 106.531 480.704 104.291 480.704C102.051 480.704 100.235 482.838 100.235 485.469C100.235 488.101 102.051 490.234 104.291 490.234Z" fill="#A01700"/>
<path d="M97.1426 490.234C99.3824 490.234 101.198 488.101 101.198 485.469C101.198 482.838 99.3824 480.704 97.1426 480.704C94.9027 480.704 93.0869 482.838 93.0869 485.469C93.0869 488.101 94.9027 490.234 97.1426 490.234Z" fill="#A01700"/>
<path d="M89.9941 490.234C92.234 490.234 94.0498 488.101 94.0498 485.469C94.0498 482.838 92.234 480.704 89.9941 480.704C87.7543 480.704 85.9385 482.838 85.9385 485.469C85.9385 488.101 87.7543 490.234 89.9941 490.234Z" fill="#A01700"/>
<path d="M82.8075 490.234C85.0473 490.234 86.8631 488.101 86.8631 485.469C86.8631 482.838 85.0473 480.704 82.8075 480.704C80.5676 480.704 78.752 482.838 78.752 485.469C78.752 488.101 80.5676 490.234 82.8075 490.234Z" fill="#A01700"/>
<path d="M75.6581 490.234C77.8979 490.234 79.7137 488.101 79.7137 485.469C79.7137 482.838 77.8979 480.704 75.6581 480.704C73.4182 480.704 71.6025 482.838 71.6025 485.469C71.6025 488.101 73.4182 490.234 75.6581 490.234Z" fill="#A01700"/>
<path d="M68.5116 490.234C70.7515 490.234 72.5673 488.101 72.5673 485.469C72.5673 482.838 70.7515 480.704 68.5116 480.704C66.2718 480.704 64.4561 482.838 64.4561 485.469C64.4561 488.101 66.2718 490.234 68.5116 490.234Z" fill="#A01700"/>
<path d="M61.3632 490.234C63.6031 490.234 65.4189 488.101 65.4189 485.469C65.4189 482.838 63.6031 480.704 61.3632 480.704C59.1234 480.704 57.3076 482.838 57.3076 485.469C57.3076 488.101 59.1234 490.234 61.3632 490.234Z" fill="#A01700"/>
<path d="M197.247 472.166C194.918 472.166 193.071 474.384 193.071 477.073C193.071 479.762 194.958 481.979 197.247 481.979C199.536 481.979 201.423 479.762 201.423 477.073C201.423 474.384 199.536 472.166 197.247 472.166Z" fill="#A01700"/>
<path d="M190.1 472.166C187.771 472.166 185.924 474.384 185.924 477.073C185.924 479.762 187.811 481.979 190.1 481.979C192.389 481.979 194.276 479.762 194.276 477.073C194.276 474.384 192.389 472.166 190.1 472.166Z" fill="#A01700"/>
<path d="M182.951 472.166C180.622 472.166 178.774 474.383 178.774 477.073C178.774 479.762 180.662 481.979 182.951 481.979C185.239 481.979 187.127 479.762 187.127 477.073C187.127 474.383 185.239 472.166 182.951 472.166Z" fill="#A01700"/>
<path d="M175.804 472.166C173.475 472.166 171.628 474.384 171.628 477.073C171.628 479.762 173.515 481.979 175.804 481.979C178.093 481.979 179.98 479.762 179.98 477.073C179.98 474.384 178.093 472.166 175.804 472.166Z" fill="#A01700"/>
<path d="M168.659 472.166C166.33 472.166 164.482 474.384 164.482 477.073C164.482 479.762 166.37 481.979 168.659 481.979C170.947 481.979 172.835 479.762 172.835 477.073C172.835 474.384 170.947 472.166 168.659 472.166Z" fill="#A01700"/>
<path d="M161.51 472.166C159.181 472.166 157.334 474.383 157.334 477.073C157.334 479.762 159.221 481.979 161.51 481.979C163.799 481.979 165.686 479.762 165.686 477.073C165.686 474.383 163.799 472.166 161.51 472.166Z" fill="#A01700"/>
<path d="M154.363 472.166C152.034 472.166 150.187 474.384 150.187 477.073C150.187 479.762 152.074 481.979 154.363 481.979C156.651 481.979 158.539 479.762 158.539 477.073C158.539 474.384 156.651 472.166 154.363 472.166Z" fill="#A01700"/>
<path d="M147.214 472.166C144.885 472.166 143.038 474.383 143.038 477.073C143.038 479.762 144.925 481.979 147.214 481.979C149.503 481.979 151.39 479.762 151.39 477.073C151.39 474.383 149.503 472.166 147.214 472.166Z" fill="#A01700"/>
<path d="M140.027 472.166C137.698 472.166 135.851 474.383 135.851 477.073C135.851 479.762 137.738 481.979 140.027 481.979C142.315 481.979 144.203 479.762 144.203 477.073C144.203 474.383 142.315 472.166 140.027 472.166Z" fill="#A01700"/>
<path d="M132.878 472.166C130.549 472.166 128.702 474.383 128.702 477.073C128.702 479.762 130.589 481.979 132.878 481.979C135.167 481.979 137.054 479.762 137.054 477.073C137.054 474.383 135.167 472.166 132.878 472.166Z" fill="#A01700"/>
<path d="M125.731 472.166C123.402 472.166 121.555 474.383 121.555 477.073C121.555 479.762 123.442 481.979 125.731 481.979C128.02 481.979 129.907 479.762 129.907 477.073C129.907 474.383 128.02 472.166 125.731 472.166Z" fill="#A01700"/>
<path d="M118.585 472.166C116.256 472.166 114.409 474.384 114.409 477.073C114.409 479.762 116.296 481.979 118.585 481.979C120.874 481.979 122.761 479.762 122.761 477.073C122.761 474.384 120.874 472.166 118.585 472.166Z" fill="#A01700"/>
<path d="M111.438 472.166C109.109 472.166 107.262 474.383 107.262 477.073C107.262 479.762 109.149 481.979 111.438 481.979C113.727 481.979 115.614 479.762 115.614 477.073C115.614 474.383 113.727 472.166 111.438 472.166Z" fill="#A01700"/>
<path d="M104.289 472.166C101.96 472.166 100.113 474.384 100.113 477.073C100.113 479.762 102.001 481.979 104.289 481.979C106.578 481.979 108.466 479.762 108.466 477.073C108.466 474.384 106.578 472.166 104.289 472.166Z" fill="#A01700"/>
<path d="M97.1429 472.166C94.8139 472.166 92.9668 474.383 92.9668 477.073C92.9668 479.762 94.8541 481.979 97.1429 481.979C99.4317 481.979 101.319 479.762 101.319 477.073C101.319 474.383 99.4317 472.166 97.1429 472.166Z" fill="#A01700"/>
<path d="M89.9935 472.166C87.6645 472.166 85.8174 474.384 85.8174 477.073C85.8174 479.762 87.7047 481.979 89.9935 481.979C92.2823 481.979 94.1696 479.762 94.1696 477.073C94.1696 474.384 92.2823 472.166 89.9935 472.166Z" fill="#A01700"/>
<path d="M82.8049 472.166C80.4759 472.166 78.6289 474.384 78.6289 477.073C78.6289 479.762 80.5161 481.979 82.8049 481.979C85.0937 481.979 86.981 479.762 86.981 477.073C86.981 474.384 85.0937 472.166 82.8049 472.166Z" fill="#A01700"/>
<path d="M75.6584 472.166C73.3294 472.166 71.4824 474.384 71.4824 477.073C71.4824 479.762 73.3696 481.979 75.6584 481.979C77.9472 481.979 79.8345 479.762 79.8345 477.073C79.8345 474.384 77.9472 472.166 75.6584 472.166Z" fill="#A01700"/>
<path d="M68.51 472.166C66.1811 472.166 64.334 474.384 64.334 477.073C64.334 479.762 66.2212 481.979 68.51 481.979C70.7989 481.979 72.6862 479.762 72.6862 477.073C72.6862 474.384 70.7989 472.166 68.51 472.166Z" fill="#A01700"/>
<path d="M61.3636 472.166C59.0346 472.166 57.1875 474.383 57.1875 477.073C57.1875 479.762 59.0747 481.979 61.3636 481.979C63.6524 481.979 65.5397 479.762 65.5397 477.073C65.5397 474.383 63.6524 472.166 61.3636 472.166Z" fill="#A01700"/>
</g>
</g>
<defs>
<clipPath id="clip0_720_2257">
<rect width="320" height="492" fill="white"/>
</clipPath>
</defs>
</svg>
