<svg width="174" height="37" viewBox="0 0 174 37" fill="none" xmlns="http://www.w3.org/2000/svg">
<path d="M15.1195 0.0766728C11.6006 -0.312218 8.06021 0.78964 5.35666 3.12299C2.56729 5.56436 0.979492 9.08599 0.979492 12.8021C0.979492 18.9811 4.77733 23.9719 10.6779 25.549C10.8067 25.5923 13.6175 26.37 13.875 29.2003V34.6664C13.875 35.4442 14.4972 36.0707 15.2697 36.0707C16.0421 36.0707 16.6644 35.4442 16.6644 34.6664V29.1355V29.0275C16.2781 24.1447 11.5791 22.87 11.386 22.8268C5.76434 21.3361 3.76887 16.6694 3.76887 12.8021C3.76887 9.90698 5.01335 7.16314 7.20194 5.24028C9.3047 3.42546 12.0726 2.53965 14.8191 2.84212C17.2651 3.10138 19.3679 4.28966 20.7626 6.1693C23.273 9.5829 22.7151 14.2928 19.4323 17.1447C18.3165 18.0953 16.7073 18.549 14.9693 18.3546C13.2313 18.1601 11.6649 17.3823 10.6565 16.2157C9.06867 14.3792 9.19742 11.2465 10.8925 9.53969C12.3945 8.00573 14.862 8.22178 16.0636 9.43167C16.6214 9.9934 16.9004 10.6848 16.836 11.3977C16.7931 12.0027 16.4927 12.5212 16.0207 12.8669C15.6559 13.1261 15.1195 13.2342 14.7547 13.1477C14.6045 13.1045 14.4543 13.0397 14.347 12.7588C14.0466 12.0459 13.2313 11.7002 12.5232 12.0027C11.8151 12.3051 11.4718 13.1261 11.7722 13.8391C12.1799 14.8545 12.9738 15.5675 13.9823 15.8484C15.1624 16.1724 16.5785 15.9132 17.6299 15.157C18.7671 14.336 19.4966 13.0397 19.6039 11.6354C19.7327 10.123 19.1533 8.61067 18.0161 7.46561C15.613 5.04584 11.3645 5.11065 8.91848 7.57363C6.19347 10.3175 6.02182 15.1138 8.55371 18.0521C10.0128 19.7589 12.2443 20.8824 14.6903 21.1416C17.1793 21.4009 19.5825 20.7311 21.2775 19.262C25.6762 15.4379 26.4272 9.08599 23.037 4.50571C21.1273 1.99952 18.338 0.422354 15.1195 0.0766728Z" fill="#EF5667"/>
<path d="M35.0107 21.7461V11.9806C35.0107 11.9158 35.0322 11.8509 35.0966 11.7861C35.1395 11.7429 35.2038 11.6997 35.2897 11.6997H37.1135C37.1779 11.6997 37.2422 11.7213 37.3066 11.7861C37.3495 11.8293 37.3924 11.8942 37.3924 11.9806V19.8448H40.8255C40.8899 19.8448 40.9542 19.8664 41.0186 19.9312C41.0615 19.9744 41.1044 20.0393 41.1044 20.1257V21.7893C41.1044 21.8541 41.083 21.9189 41.0186 21.9837C40.9757 22.0269 40.9113 22.0701 40.8255 22.0701H35.2897C35.2253 22.0701 35.1609 22.0485 35.0966 21.9837C35.0322 21.8973 35.0107 21.8325 35.0107 21.7461Z" fill="#EF5667"/>
<path d="M42.8223 16.8418C42.8223 16.5177 42.8437 16.1937 42.8866 15.8696C42.9295 15.5455 43.0154 15.1998 43.1441 14.8542C43.2729 14.5085 43.4231 14.1628 43.5947 13.8603C43.7664 13.5362 44.0024 13.2338 44.2813 12.9529C44.5603 12.672 44.8607 12.4128 45.204 12.2183C45.5473 12.0023 45.9549 11.8511 46.4055 11.7214C46.8776 11.5918 47.3711 11.5486 47.9075 11.5486C48.6585 11.5486 49.3237 11.6566 49.9244 11.8943C50.5252 12.1319 50.9973 12.4344 51.3835 12.8017C51.7483 13.169 52.0701 13.6011 52.3061 14.0764C52.5636 14.5517 52.7353 15.027 52.8211 15.4807C52.9284 15.9344 52.9713 16.4097 52.9713 16.8634C52.9713 17.1875 52.9498 17.5332 52.9069 17.8573C52.864 18.1813 52.7782 18.527 52.6494 18.8943C52.5207 19.24 52.392 19.5857 52.1988 19.9097C52.0272 20.2338 51.7912 20.5363 51.5337 20.8172C51.2548 21.098 50.9544 21.3573 50.6111 21.5517C50.2677 21.7462 49.8601 21.919 49.4095 22.0486C48.9374 22.1783 48.4439 22.2215 47.9075 22.2215C47.3711 22.2215 46.8776 22.1567 46.4055 22.0486C45.9335 21.919 45.5473 21.7678 45.204 21.5517C44.8607 21.3357 44.5603 21.098 44.2813 20.8172C44.0024 20.5363 43.7878 20.2338 43.5947 19.9097C43.4231 19.5857 43.2729 19.2616 43.1441 18.8943C43.0154 18.5486 42.951 18.2029 42.8866 17.8573C42.8437 17.5116 42.8223 17.1875 42.8223 16.8418ZM45.204 16.8418C45.204 16.9931 45.2254 17.1659 45.2469 17.3387C45.2683 17.5116 45.3112 17.7276 45.3756 17.9869C45.44 18.2462 45.5258 18.4622 45.676 18.6999C45.8262 18.9375 45.9764 19.132 46.1481 19.3264C46.3412 19.5209 46.5772 19.6721 46.8776 19.8017C47.178 19.9313 47.5213 19.9746 47.9075 19.9746C48.2294 19.9746 48.5298 19.9314 48.7872 19.8449C49.0662 19.7585 49.2807 19.6505 49.4524 19.4992C49.624 19.348 49.7957 19.1968 49.9244 19.0023C50.0746 18.8079 50.1819 18.6134 50.2463 18.419C50.3321 18.2246 50.3965 18.0301 50.4394 17.8141C50.4823 17.598 50.5252 17.4252 50.5252 17.2739C50.5467 17.1227 50.5467 16.9931 50.5467 16.8634C50.5467 16.669 50.5252 16.4745 50.5038 16.2369C50.4823 15.9992 50.3965 15.7616 50.2892 15.4375C50.1819 15.135 50.0317 14.8542 49.8386 14.6165C49.6455 14.3788 49.388 14.1844 49.0447 14.0116C48.7014 13.8387 48.3152 13.7523 47.8646 13.7523C47.414 13.7523 47.0278 13.8387 46.6845 14.0116C46.3412 14.1844 46.0837 14.3788 45.8906 14.6165C45.6975 14.8542 45.5473 15.1134 45.44 15.4375C45.3327 15.74 45.2469 15.9992 45.2254 16.2369C45.2254 16.4529 45.204 16.6474 45.204 16.8418Z" fill="#EF5667"/>
<path d="M55.3291 21.7461V11.9806C55.3291 11.9158 55.3506 11.8509 55.4149 11.7861C55.4578 11.7429 55.5222 11.6997 55.608 11.6997H57.4319C57.4962 11.6997 57.5606 11.7213 57.625 11.7861C57.6679 11.8293 57.7108 11.8942 57.7108 11.9806V19.8448H61.1439C61.2083 19.8448 61.2726 19.8664 61.337 19.9312C61.3799 19.9744 61.4228 20.0393 61.4228 20.1257V21.7893C61.4228 21.8541 61.4014 21.9189 61.337 21.9837C61.2941 22.0269 61.2297 22.0701 61.1439 22.0701H55.608C55.5437 22.0701 55.4793 22.0485 55.4149 21.9837C55.3506 21.8973 55.3291 21.8325 55.3291 21.7461Z" fill="#EF5667"/>
<path d="M63.9551 21.7461V11.9806C63.9551 11.9158 63.9765 11.8509 64.0409 11.7861C64.0838 11.7429 64.1482 11.6997 64.234 11.6997H66.0578C66.1222 11.6997 66.1866 11.7213 66.2509 11.7861C66.2939 11.8293 66.3368 11.8942 66.3368 11.9806V19.8448H69.7698C69.8342 19.8448 69.8986 19.8664 69.963 19.9312C70.0059 19.9744 70.0488 20.0393 70.0488 20.1257V21.7893C70.0488 21.8541 70.0273 21.9189 69.963 21.9837C69.92 22.0269 69.8557 22.0701 69.7698 22.0701H64.234C64.1696 22.0701 64.1053 22.0485 64.0409 21.9837C63.998 21.8973 63.9551 21.8325 63.9551 21.7461Z" fill="#EF5667"/>
<path d="M70.7353 11.9375C70.7139 11.9159 70.7139 11.8943 70.7139 11.8727C70.7139 11.8511 70.7139 11.8295 70.7353 11.8079C70.7568 11.7646 70.7997 11.7214 70.8641 11.7214H72.9239C73.0956 11.7214 73.2243 11.7863 73.3101 11.9375L75.2412 15.1782L77.1723 11.9375C77.2582 11.7863 77.3869 11.7214 77.5586 11.7214H79.6399C79.7042 11.7214 79.7471 11.743 79.7686 11.8079C79.7901 11.8295 79.7901 11.8727 79.7901 11.8943C79.7901 11.9159 79.7901 11.9375 79.7686 11.9591L76.3999 17.4684V21.7894C76.3999 21.8542 76.3784 21.919 76.3141 21.9838C76.2712 22.0271 76.2068 22.0703 76.121 22.0703H74.3615C74.2971 22.0703 74.2328 22.0487 74.1684 21.9838C74.1255 21.9406 74.0826 21.8758 74.0826 21.7894V17.4684L70.7353 11.9375Z" fill="#EF5667"/>
<path d="M82.3018 21.7461V11.9806C82.3018 11.9158 82.3232 11.8509 82.3876 11.7861C82.4305 11.7429 82.4949 11.6997 82.5807 11.6997H86.2713C86.8077 11.6997 87.3012 11.7645 87.7518 11.9158C88.1809 12.067 88.5457 12.2614 88.8246 12.4991C89.1035 12.7368 89.3181 12.996 89.5112 13.2985C89.7043 13.601 89.8331 13.9034 89.8974 14.2059C89.9618 14.5084 90.0047 14.8108 90.0047 15.0917C90.0047 15.7399 89.8331 16.3448 89.4683 16.8849C89.125 17.425 88.6744 17.8355 88.138 18.1164C87.6016 18.3973 87.0437 18.5485 86.4644 18.5485H84.662V21.7461C84.662 21.8109 84.6405 21.8757 84.5762 21.9405C84.5333 21.9837 84.4689 22.0269 84.3831 22.0269H82.5592C82.4949 22.0269 82.4305 22.0053 82.3661 21.9405C82.3232 21.8973 82.3018 21.8325 82.3018 21.7461ZM84.662 16.3448H86.3785C86.5717 16.3448 86.7433 16.3016 86.8935 16.2368C87.0437 16.172 87.1724 16.0855 87.2583 15.9991C87.3441 15.9127 87.4085 15.8047 87.4728 15.6966C87.5372 15.5886 87.5587 15.4806 87.5801 15.3726C87.6016 15.2861 87.623 15.1781 87.623 15.0917C87.623 14.9621 87.6016 14.8324 87.5587 14.7244C87.5157 14.5948 87.4514 14.4652 87.3656 14.3355C87.2797 14.2059 87.151 14.0979 86.9579 14.0114C86.7862 13.925 86.5717 13.8818 86.3142 13.8818H84.662V16.3448Z" fill="#EF5667"/>
<path d="M91.6992 16.8418C91.6992 16.5177 91.7207 16.1937 91.7636 15.8696C91.8065 15.5455 91.8923 15.1998 92.0211 14.8542C92.1498 14.5085 92.3 14.1628 92.4717 13.8603C92.6433 13.5362 92.8793 13.2338 93.1583 12.9529C93.4372 12.672 93.7376 12.4128 94.0809 12.2183C94.4242 12.0023 94.8319 11.8511 95.2825 11.7214C95.7545 11.5918 96.248 11.5486 96.7845 11.5486C97.5354 11.5486 98.2006 11.6566 98.8014 11.8943C99.4022 12.1319 99.8742 12.4344 100.26 12.8017C100.625 13.169 100.947 13.6011 101.183 14.0764C101.441 14.5517 101.612 15.027 101.698 15.4807C101.805 15.9344 101.848 16.4097 101.848 16.8634C101.848 17.1875 101.827 17.5332 101.784 17.8573C101.741 18.1813 101.655 18.527 101.526 18.8943C101.398 19.24 101.269 19.5857 101.076 19.9097C100.904 20.2338 100.668 20.5363 100.411 20.8172C100.132 21.098 99.8313 21.3573 99.488 21.5517C99.1447 21.7678 98.737 21.919 98.2864 22.0486C97.8144 22.1783 97.3209 22.2215 96.7845 22.2215C96.248 22.2215 95.7545 22.1567 95.2825 22.0486C94.8104 21.919 94.4242 21.7678 94.0809 21.5517C93.7376 21.3357 93.4372 21.098 93.1583 20.8172C92.8793 20.5363 92.6648 20.2338 92.4717 19.9097C92.3 19.5857 92.1498 19.2616 92.0211 18.8943C91.8923 18.5486 91.828 18.2029 91.7636 17.8573C91.7421 17.5116 91.6992 17.1875 91.6992 16.8418ZM94.1024 16.8418C94.1024 16.9931 94.1238 17.1659 94.1453 17.3387C94.1667 17.5116 94.2097 17.7276 94.274 17.9869C94.3384 18.2462 94.4242 18.4622 94.5744 18.6999C94.7032 18.9159 94.8748 19.132 95.0465 19.3264C95.2396 19.5209 95.4756 19.6721 95.776 19.8017C96.0764 19.9097 96.4197 19.9746 96.8059 19.9746C97.1278 19.9746 97.4282 19.9314 97.6856 19.8449C97.9646 19.7585 98.1791 19.6505 98.3508 19.4992C98.5225 19.348 98.6941 19.1968 98.8229 19.0023C98.973 18.8079 99.0803 18.6134 99.1447 18.419C99.2305 18.2246 99.2949 18.0301 99.3378 17.8141C99.3807 17.598 99.4236 17.4252 99.4236 17.2739C99.4451 17.1227 99.4451 16.9931 99.4451 16.8634C99.4451 16.669 99.4236 16.4745 99.4022 16.2369C99.3593 16.0208 99.2949 15.7616 99.1876 15.4375C99.0803 15.135 98.9301 14.8542 98.737 14.6165C98.5439 14.3788 98.2864 14.1844 97.9431 14.0116C97.5998 13.8387 97.2136 13.7523 96.763 13.7523C96.3124 13.7523 95.9262 13.8387 95.5829 14.0116C95.2396 14.1844 94.9821 14.3788 94.789 14.6165C94.5959 14.8542 94.4457 15.1134 94.3384 15.4375C94.2311 15.74 94.1453 15.9992 94.1238 16.2369C94.1024 16.4529 94.1024 16.6474 94.1024 16.8418Z" fill="#EF5667"/>
<path d="M104.207 21.7461V11.9806C104.207 11.9158 104.228 11.8509 104.293 11.7861C104.336 11.7429 104.4 11.6997 104.486 11.6997H108.177C108.713 11.6997 109.206 11.7645 109.657 11.9158C110.086 12.067 110.451 12.2614 110.73 12.4991C111.009 12.7368 111.223 12.996 111.416 13.2985C111.61 13.601 111.738 13.9034 111.803 14.2059C111.867 14.5084 111.91 14.8108 111.91 15.0917C111.91 15.7399 111.738 16.3448 111.374 16.8849C111.03 17.425 110.58 17.8355 110.043 18.1164C109.507 18.3973 108.949 18.5485 108.37 18.5485H106.61V21.7461C106.61 21.8109 106.589 21.8757 106.524 21.9405C106.46 22.0053 106.417 22.0269 106.331 22.0269H104.507C104.443 22.0269 104.379 22.0053 104.314 21.9405C104.228 21.8973 104.207 21.8325 104.207 21.7461ZM106.567 16.3448H108.284C108.477 16.3448 108.649 16.3016 108.799 16.2368C108.949 16.172 109.078 16.0855 109.164 15.9991C109.249 15.9127 109.314 15.8047 109.378 15.6966C109.442 15.5886 109.464 15.4806 109.485 15.3726C109.507 15.2861 109.528 15.1781 109.528 15.0917C109.528 14.9621 109.507 14.8324 109.464 14.7244C109.421 14.5948 109.357 14.4652 109.271 14.3355C109.185 14.2059 109.056 14.0979 108.863 14.0114C108.691 13.925 108.477 13.8818 108.219 13.8818H106.546V16.3448H106.567Z" fill="#EF5667"/>
<path d="M111.977 20.8385C111.977 20.4929 112.105 20.1688 112.341 19.9311C112.599 19.6719 112.878 19.5422 113.221 19.5422C113.564 19.5422 113.843 19.6719 114.101 19.9095C114.337 20.1688 114.466 20.4713 114.466 20.8169C114.466 21.1626 114.337 21.4651 114.101 21.7243C113.865 21.9836 113.564 22.0916 113.221 22.0916C112.878 22.0916 112.599 21.962 112.341 21.7243C112.105 21.4867 111.977 21.1842 111.977 20.8385Z" fill="#EF5667"/>
<path d="M118.371 21.7461V11.9806C118.371 11.9158 118.393 11.8509 118.457 11.7861C118.5 11.7429 118.564 11.6997 118.65 11.6997H122.062C122.598 11.6997 123.092 11.7645 123.564 11.8725C124.036 11.9806 124.422 12.1534 124.765 12.3479C125.109 12.5423 125.409 12.78 125.688 13.0608C125.967 13.3417 126.181 13.6226 126.353 13.925C126.525 14.2275 126.675 14.5516 126.804 14.8973C126.932 15.2429 126.997 15.567 127.061 15.8911C127.104 16.2152 127.147 16.5392 127.147 16.8633C127.147 17.3386 127.104 17.7923 126.997 18.246C126.889 18.6997 126.718 19.1535 126.482 19.6288C126.224 20.1041 125.924 20.493 125.559 20.8387C125.194 21.1843 124.701 21.4652 124.1 21.6812C123.499 21.8973 122.834 22.0053 122.083 22.0053H118.671C118.607 22.0053 118.543 21.9837 118.478 21.9189C118.414 21.8973 118.371 21.8325 118.371 21.7461ZM120.71 19.8232H122.083C122.405 19.8232 122.705 19.78 122.984 19.6936C123.263 19.6072 123.478 19.4991 123.671 19.3695C123.864 19.2399 124.014 19.067 124.164 18.8942C124.315 18.6997 124.422 18.5269 124.486 18.3541C124.572 18.1812 124.636 17.9868 124.679 17.7923C124.722 17.5979 124.765 17.4251 124.787 17.2738C124.808 17.1226 124.808 16.9929 124.808 16.8633C124.808 16.7121 124.787 16.5392 124.765 16.3664C124.744 16.1936 124.701 15.9991 124.636 15.7615C124.572 15.5238 124.486 15.3078 124.336 15.0917C124.207 14.8757 124.036 14.6812 123.864 14.5084C123.692 14.3355 123.435 14.1843 123.134 14.0763C122.834 13.9682 122.491 13.925 122.105 13.925H120.71V19.8232Z" fill="#EF5667"/>
<path d="M129.483 21.7461V11.9806C129.483 11.9158 129.505 11.8509 129.569 11.7861C129.612 11.7429 129.677 11.6997 129.762 11.6997H136.307C136.371 11.6997 136.435 11.7213 136.5 11.7861C136.543 11.8293 136.586 11.8942 136.586 11.9806V13.6442C136.586 13.709 136.564 13.7738 136.5 13.8386C136.435 13.9034 136.392 13.925 136.307 13.925H131.822V15.8695H135.277C135.341 15.8695 135.405 15.8911 135.47 15.9559C135.513 15.9991 135.556 16.0639 135.556 16.1504V17.8139C135.556 17.8788 135.534 17.9436 135.47 18.0084C135.427 18.0516 135.363 18.0948 135.277 18.0948H131.822V19.888H136.307C136.371 19.888 136.435 19.9096 136.5 19.9744C136.543 20.0177 136.586 20.0825 136.586 20.1689V21.8325C136.586 21.8973 136.564 21.9621 136.5 22.0269C136.457 22.0701 136.392 22.1133 136.307 22.1133H129.762C129.698 22.1133 129.634 22.0917 129.569 22.0269C129.505 21.8973 129.483 21.8325 129.483 21.7461Z" fill="#EF5667"/>
<path d="M138.411 20.99C138.411 20.9468 138.39 20.9252 138.39 20.9036C138.39 20.8604 138.39 20.8388 138.411 20.7956L139.226 19.3048C139.248 19.24 139.312 19.1968 139.377 19.1752C139.441 19.1536 139.505 19.1536 139.57 19.1968C140.686 19.7153 141.587 19.953 142.273 19.953C142.66 19.953 142.981 19.8665 143.26 19.6937C143.539 19.5209 143.668 19.3048 143.668 19.0671C143.668 18.9375 143.625 18.8295 143.561 18.7215C143.496 18.6134 143.411 18.527 143.325 18.4406C143.239 18.3542 143.11 18.2894 142.938 18.2029C142.767 18.1165 142.617 18.0517 142.466 18.0085C142.316 17.9653 142.145 17.9005 141.909 17.8141C141.093 17.5332 140.492 17.3171 140.149 17.1227C139.248 16.6474 138.733 15.956 138.604 15.0918C138.583 14.9406 138.561 14.7893 138.561 14.6165C138.561 13.6659 138.883 12.9313 139.505 12.3696C140.128 11.8078 140.943 11.5486 141.951 11.5486C143.153 11.5486 144.376 11.8511 145.642 12.4344C145.792 12.5208 145.835 12.6288 145.771 12.8017L145.106 14.314C145.084 14.3788 145.02 14.4221 144.955 14.4437C144.891 14.4653 144.827 14.4653 144.741 14.4437C143.518 13.99 142.638 13.7739 142.059 13.7739C141.715 13.7739 141.436 13.8387 141.222 13.9467C141.007 14.0548 140.9 14.2492 140.9 14.5085C140.9 14.5733 140.922 14.6381 140.943 14.7245C140.964 14.7893 141.007 14.8542 141.072 14.8974C141.136 14.9622 141.179 15.0054 141.243 15.0486C141.308 15.0918 141.372 15.135 141.479 15.1998C141.587 15.243 141.673 15.2863 141.737 15.3295C141.801 15.3727 141.909 15.4159 142.059 15.4591C142.187 15.5023 142.295 15.5455 142.381 15.5887C142.466 15.6103 142.595 15.6752 142.745 15.7184C142.917 15.7832 143.024 15.8264 143.11 15.848C143.453 15.9776 143.732 16.0856 143.968 16.1937C144.204 16.3017 144.462 16.4313 144.762 16.6258C145.041 16.7986 145.277 16.9931 145.449 17.2091C145.621 17.4036 145.771 17.6628 145.899 17.9653C146.028 18.2678 146.071 18.5918 146.071 18.9591C146.071 19.8665 145.706 20.6227 144.998 21.2277C144.29 21.8326 143.368 22.1351 142.273 22.1351C141.587 22.1351 140.943 22.0486 140.342 21.8974C139.741 21.7246 139.119 21.4869 138.454 21.1412C138.475 21.1196 138.433 21.0548 138.411 20.99Z" fill="#EF5667"/>
<path d="M148.495 21.7461V11.9806C148.495 11.9158 148.517 11.8509 148.581 11.7861C148.624 11.7429 148.688 11.6997 148.774 11.6997H150.576C150.641 11.6997 150.705 11.7213 150.748 11.7861C150.791 11.8293 150.812 11.8942 150.812 11.9806V21.7677C150.812 21.8325 150.791 21.8973 150.748 21.9621C150.705 22.0053 150.641 22.0485 150.576 22.0485H148.774C148.71 22.0485 148.645 22.0269 148.581 21.9621C148.517 21.8973 148.495 21.8325 148.495 21.7461Z" fill="#EF5667"/>
<path d="M153.173 16.8628C153.173 16.5387 153.194 16.2147 153.237 15.8906C153.28 15.5665 153.366 15.2208 153.495 14.8752C153.623 14.5295 153.774 14.1838 153.945 13.8813C154.117 13.5572 154.353 13.2548 154.632 12.9739C154.911 12.693 155.211 12.4554 155.555 12.2393C155.898 12.0233 156.306 11.8721 156.756 11.7424C157.228 11.6128 157.722 11.5696 158.258 11.5696C159.653 11.5696 160.897 12.1097 161.97 13.1684C162.013 13.2116 162.034 13.2764 162.034 13.3628C162.034 13.4492 162.013 13.4924 161.97 13.5572L160.876 14.7671C160.833 14.8103 160.769 14.8319 160.704 14.8319C160.64 14.8319 160.575 14.8103 160.532 14.7671C160.211 14.4863 159.846 14.2486 159.438 14.0542C159.031 13.8597 158.644 13.7733 158.28 13.7733C157.958 13.7733 157.657 13.8165 157.378 13.9029C157.099 13.9893 156.885 14.0974 156.692 14.2486C156.499 14.3782 156.348 14.5511 156.198 14.7455C156.048 14.94 155.941 15.1128 155.876 15.3073C155.791 15.5017 155.726 15.6961 155.683 15.8906C155.64 16.085 155.597 16.2579 155.576 16.4091C155.555 16.5604 155.555 16.69 155.555 16.8196C155.555 16.9492 155.555 17.0789 155.576 17.2301C155.597 17.3813 155.619 17.5542 155.683 17.7702C155.726 17.9863 155.791 18.1807 155.876 18.3752C155.962 18.5696 156.07 18.7641 156.198 18.9585C156.348 19.153 156.499 19.3258 156.692 19.4554C156.885 19.6067 157.099 19.7147 157.378 19.8011C157.657 19.8875 157.958 19.9307 158.28 19.9307C158.537 19.9307 158.795 19.8875 159.073 19.8227C159.352 19.7363 159.567 19.6499 159.739 19.5202V18.5696H158.044C157.979 18.5696 157.915 18.548 157.85 18.4832C157.807 18.44 157.765 18.3752 157.765 18.2888V16.6252C157.765 16.5604 157.786 16.4955 157.85 16.4307C157.893 16.3875 157.958 16.3443 158.044 16.3443H161.82C161.884 16.3443 161.949 16.3659 162.013 16.4091C162.056 16.4523 162.099 16.5171 162.099 16.582V20.2548C162.099 20.4277 162.034 20.5789 161.906 20.7085C160.897 21.6375 159.696 22.1129 158.28 22.1129C157.743 22.1129 157.25 22.048 156.778 21.94C156.306 21.8104 155.919 21.6591 155.576 21.4647C155.233 21.2703 154.932 21.011 154.653 20.7301C154.374 20.4493 154.16 20.1468 153.967 19.8443C153.795 19.5202 153.645 19.1962 153.516 18.8505C153.387 18.5048 153.323 18.1591 153.259 17.835C153.194 17.511 153.173 17.1869 153.173 16.8628Z" fill="#EF5667"/>
<path d="M164.48 21.7453V11.7854C164.48 11.7206 164.502 11.6774 164.545 11.6342C164.588 11.5909 164.631 11.5693 164.695 11.5693C164.845 11.5693 164.974 11.6125 165.081 11.7206L170.639 16.949V11.9798C170.639 11.915 170.66 11.8502 170.724 11.7854C170.767 11.7422 170.832 11.699 170.917 11.699H172.741C172.806 11.699 172.87 11.7206 172.934 11.7854C172.977 11.8286 173.02 11.8934 173.02 11.9798V21.9182C173.02 21.9614 172.999 22.0046 172.956 22.0478C172.913 22.091 172.87 22.1126 172.827 22.1126C172.698 22.1126 172.591 22.0694 172.505 21.983L166.841 16.6033V21.7453C166.841 21.8101 166.819 21.875 166.755 21.9398C166.712 21.983 166.648 22.0262 166.562 22.0262H164.738C164.674 22.0262 164.609 22.0046 164.545 21.9398C164.502 21.8966 164.48 21.8317 164.48 21.7453Z" fill="#EF5667"/>
<path d="M39.4502 36.1138L38.8494 34.5366H36.3175L35.7167 36.1138H34.8799L37.1758 30.4316H38.0555L40.3513 36.1138H39.4502ZM37.5834 31.2094L36.575 33.8236H38.5704L37.5834 31.2094Z" fill="white"/>
<path d="M113.498 31.9007C113.155 31.3605 112.619 31.0581 111.932 31.0581C110.773 31.0581 110.001 31.9439 110.001 33.2618C110.001 34.6013 110.752 35.4871 111.911 35.4871C112.597 35.4871 113.155 35.163 113.498 34.6013L114.142 35.0334C113.67 35.768 112.898 36.2001 111.911 36.2001C110.258 36.2001 109.164 34.9686 109.164 33.2618C109.164 31.5766 110.258 30.3235 111.889 30.3235C112.855 30.3235 113.606 30.734 114.099 31.4686L113.498 31.9007Z" fill="white"/>
<path d="M118.198 36.2001C116.524 36.2001 115.451 34.9254 115.451 33.2618C115.451 31.5982 116.524 30.3235 118.198 30.3235C119.871 30.3235 120.966 31.5982 120.966 33.2618C120.944 34.9254 119.871 36.2001 118.198 36.2001ZM118.198 31.0797C116.996 31.0797 116.267 31.9871 116.267 33.2618C116.267 34.5581 116.996 35.4655 118.198 35.4655C119.399 35.4655 120.129 34.5581 120.129 33.2618C120.107 31.9871 119.378 31.0797 118.198 31.0797Z" fill="white"/>
<path d="M127.916 36.1138V31.2742L126.071 36.1138H125.384L123.539 31.2742V36.1138H122.788V30.4316H123.968L125.749 35.0983L127.53 30.4316H128.689V36.1138H127.916Z" fill="white"/>
<path d="M133.26 33.9533H131.693V36.1138H130.899V30.4316H133.26C134.547 30.4316 135.255 31.1446 135.255 32.2033C135.255 33.2403 134.547 33.9533 133.26 33.9533ZM133.26 33.2187C134.054 33.2187 134.418 32.8082 134.418 32.2033C134.418 31.5767 134.032 31.1662 133.26 31.1662H131.693V33.2187H133.26Z" fill="white"/>
<path d="M140.469 36.1138L139.868 34.5366H137.336L136.735 36.1138H135.898L138.194 30.4316H139.074L141.37 36.1138H140.469ZM138.623 31.2094L137.615 33.8236H139.61L138.623 31.2094Z" fill="white"/>
<path d="M146.583 36.1138L143.622 31.4471V36.1138H142.871V30.4316H143.88L146.755 34.9903V30.4316H147.506V36.1138H146.583Z" fill="white"/>
<path d="M151.947 33.7808V36.0925H151.153V33.7808L149.008 30.4104H149.93L151.561 33.0462L153.213 30.4104H154.114L151.947 33.7808Z" fill="white"/>
<path d="M47.5619 31.0363V35.9623H46.768V31.0363H44.8584V30.3018H49.4716V31.0363H47.5619Z" fill="white"/>
<path d="M51.2959 35.962V30.3015H55.2654V31.0361H52.0898V32.6349H54.1282V33.3262H52.0898V35.2275H55.3512V35.962H51.2959Z" fill="white"/>
<path d="M74.082 35.9623L73.4812 34.3851H70.9493L70.3486 35.9623H69.5332L71.8076 30.3018H72.6659L74.9617 35.9623H74.082ZM72.2367 31.0795L71.2283 33.6938H73.2238L72.2367 31.0795Z" fill="white"/>
<path d="M76.6572 35.9623V30.3018H77.4511V35.2277H80.5623V35.9623H76.6572Z" fill="white"/>
<path d="M84.5111 36.0487C82.8375 36.0487 81.7646 34.774 81.7646 33.1104C81.7646 31.4468 82.816 30.1721 84.5111 30.1721C86.1847 30.1721 87.2576 31.4468 87.2576 33.1104C87.2576 34.774 86.1847 36.0487 84.5111 36.0487ZM84.5111 30.9499C83.3095 30.9499 82.6015 31.8573 82.6015 33.132C82.6015 34.4067 83.3095 35.3141 84.5111 35.3141C85.6912 35.3141 86.4208 34.4067 86.4208 33.132C86.4208 31.8357 85.7127 30.9499 84.5111 30.9499Z" fill="white"/>
<path d="M89.7255 33.1319C89.7255 34.4498 90.455 35.3356 91.6352 35.3356C92.6436 35.3356 93.3732 34.7307 93.459 33.7584H91.6352V33.0455H94.21C94.2314 33.1535 94.2529 33.2831 94.2529 33.4776C94.2529 34.8387 93.3088 36.0486 91.6566 36.0486C89.983 36.0486 88.9102 34.8171 88.9102 33.1103C88.9102 31.4035 89.983 30.1936 91.6352 30.1936C92.6007 30.1936 93.3302 30.6041 93.8452 31.3387L93.223 31.7708C92.8796 31.2306 92.3647 30.9282 91.6566 30.9282C90.455 30.9282 89.7255 31.814 89.7255 33.1319Z" fill="white"/>
<path d="M96.1836 35.9623V30.3018H96.9775V35.9623H96.1836Z" fill="white"/>
<path d="M103.285 31.7708C102.942 31.2306 102.427 30.9282 101.719 30.9282C100.56 30.9282 99.8095 31.7924 99.8095 33.1103C99.8095 34.4498 100.56 35.3356 101.698 35.3356C102.384 35.3356 102.942 35.0115 103.285 34.4714L103.929 34.9035C103.457 35.6381 102.685 36.0702 101.698 36.0702C100.045 36.0702 98.9727 34.8387 98.9727 33.1319C98.9727 31.4467 100.067 30.1936 101.698 30.1936C102.663 30.1936 103.393 30.6041 103.908 31.3387L103.285 31.7708Z" fill="white"/>
<path d="M60.5437 33.5425C61.2089 33.3049 61.7024 32.7431 61.7024 31.9653C61.7024 30.9715 60.9729 30.3018 59.8142 30.3018H57.3467V35.9623H58.1406V34.0394V32.6135V31.0363H59.7927C60.4364 31.0363 60.887 31.4252 60.887 32.0302C60.887 32.6135 60.4794 33.0024 59.8357 33.0024H58.9774V33.6938H59.7713L60.9729 35.9623H61.874L60.5437 33.5425Z" fill="white"/>
<path d="M66.7439 33.5425C67.4091 33.3049 67.9026 32.7431 67.9026 31.9653C67.9026 30.9715 67.1731 30.3018 66.0144 30.3018H63.5469V35.9623H64.3408V34.0394V32.6135V31.0363H65.9929C66.6366 31.0363 67.0872 31.4252 67.0872 32.0302C67.0872 32.6135 66.6796 33.0024 66.0359 33.0024H65.1776V33.6938H65.9715L67.1731 35.9623H68.0742L66.7439 33.5425Z" fill="white"/>
</svg>
