<svg width="95" height="48" viewBox="0 0 95 48" fill="none" xmlns="http://www.w3.org/2000/svg">
<g opacity="0.6" clip-path="url(#clip0_581_165764)">
<path d="M94.7769 43.6199C94.7769 43.6199 94.8326 43.5082 94.8884 43.5082C94.9442 43.5082 95 43.5641 95 43.6199C95 43.6757 94.9442 43.7314 94.8884 43.7314C94.8326 43.7314 94.7769 43.6757 94.7769 43.6199Z" fill="#FF3500"/>
<path d="M94.7769 33.688C94.7769 33.688 94.8326 33.5763 94.8884 33.5763C94.9442 33.5763 95 33.6322 95 33.688C95 33.7438 94.9442 33.7995 94.8884 33.7995C94.8326 33.7995 94.7769 33.7438 94.7769 33.688Z" fill="#FF3500"/>
<path d="M94.7769 23.7564C94.7769 23.7564 94.8326 23.6447 94.8884 23.6447C94.9442 23.6447 95 23.7006 95 23.7564C95 23.8121 94.9442 23.8679 94.8884 23.8679C94.8326 23.8679 94.7769 23.8121 94.7769 23.7564Z" fill="#FF3500"/>
<path d="M94.7769 13.825C94.7769 13.825 94.8326 13.7133 94.8884 13.7133C94.9442 13.7133 95 13.7692 95 13.825C95 13.8808 94.9442 13.9365 94.8884 13.9365C94.8326 13.9365 94.7769 13.8808 94.7769 13.825Z" fill="#FF3500"/>
<path d="M94.7769 3.89295C94.7769 3.89295 94.8326 3.78125 94.8884 3.78125C94.9442 3.78125 95 3.83715 95 3.89295C95 3.94874 94.9442 4.00448 94.8884 4.00448C94.8326 4.00448 94.7769 3.94874 94.7769 3.89295Z" fill="#FF3500"/>
<path d="M84.7902 43.6194C84.7902 43.6194 84.9018 43.452 84.9576 43.452C85.0134 43.452 85.125 43.5636 85.125 43.6194C85.125 43.6752 85.0134 43.7868 84.9576 43.7868C84.9018 43.7868 84.7902 43.6752 84.7902 43.6194Z" fill="#FF3500"/>
<path d="M84.7902 33.688C84.7902 33.688 84.9018 33.5206 84.9576 33.5206C85.0134 33.5206 85.125 33.6322 85.125 33.688C85.125 33.7438 85.0134 33.8554 84.9576 33.8554C84.9018 33.8554 84.7902 33.7438 84.7902 33.688Z" fill="#FF3500"/>
<path d="M84.7902 23.7564C84.7902 23.7564 84.9018 23.589 84.9576 23.589C85.0134 23.589 85.125 23.7006 85.125 23.7564C85.125 23.8122 85.0134 23.9237 84.9576 23.9237C84.9018 23.9237 84.7902 23.8122 84.7902 23.7564Z" fill="#FF3500"/>
<path d="M84.7902 13.8244C84.7902 13.8244 84.9018 13.657 84.9576 13.657C85.0134 13.657 85.125 13.7686 85.125 13.8244C85.125 13.8802 85.0134 13.9917 84.9576 13.9917C84.9018 13.9917 84.7902 13.8802 84.7902 13.8244Z" fill="#FF3500"/>
<path d="M84.7902 3.89309C84.7902 3.89309 84.9018 3.72571 84.9576 3.72571C85.0134 3.72571 85.125 3.83729 85.125 3.89309C85.125 3.94888 85.0134 4.06046 84.9576 4.06046C84.9018 4.06046 84.7902 3.94888 84.7902 3.89309Z" fill="#FF3500"/>
<path d="M74.7487 43.6198C74.7487 43.6198 74.8603 43.3407 75.0276 43.3407C75.195 43.3407 75.3066 43.4524 75.3066 43.6198C75.3066 43.7872 75.195 43.8987 75.0276 43.8987C74.8603 43.8987 74.7487 43.7872 74.7487 43.6198Z" fill="#FF3500"/>
<path d="M74.7487 33.6879C74.7487 33.6879 74.8603 33.4088 75.0276 33.4088C75.195 33.4088 75.3066 33.5205 75.3066 33.6879C75.3066 33.8553 75.195 33.9668 75.0276 33.9668C74.8603 33.9668 74.7487 33.8553 74.7487 33.6879Z" fill="#FF3500"/>
<path d="M74.7487 23.7562C74.7487 23.7562 74.8603 23.4772 75.0276 23.4772C75.195 23.4772 75.3066 23.5889 75.3066 23.7562C75.3066 23.9236 75.195 24.0352 75.0276 24.0352C74.8603 24.0352 74.7487 23.9236 74.7487 23.7562Z" fill="#FF3500"/>
<path d="M74.7487 13.8242C74.7487 13.8242 74.8603 13.5452 75.0276 13.5452C75.195 13.5452 75.3066 13.6569 75.3066 13.8242C75.3066 13.9916 75.195 14.1031 75.0276 14.1031C74.8603 14.1031 74.7487 13.9916 74.7487 13.8242Z" fill="#FF3500"/>
<path d="M74.7487 3.89321C74.7487 3.89321 74.8603 3.61414 75.0276 3.61414C75.195 3.61414 75.3066 3.72583 75.3066 3.89321C75.3066 4.0606 75.195 4.17212 75.0276 4.17212C74.8603 4.17212 74.7487 4.0606 74.7487 3.89321Z" fill="#FF3500"/>
<path d="M64.7602 43.6193C64.7602 43.6193 64.9275 43.2845 65.0949 43.2845C65.2623 43.2845 65.4297 43.4519 65.4297 43.6193C65.4297 43.7867 65.2623 43.9541 65.0949 43.9541C64.9275 43.9541 64.7602 43.7867 64.7602 43.6193Z" fill="#FF3500"/>
<path d="M64.7602 33.6873C64.7602 33.6873 64.9275 33.3525 65.0949 33.3525C65.2623 33.3525 65.4297 33.5199 65.4297 33.6873C65.4297 33.8547 65.2623 34.022 65.0949 34.022C64.9275 34.022 64.7602 33.8547 64.7602 33.6873Z" fill="#FF3500"/>
<path d="M64.7602 23.7563C64.7602 23.7563 64.9275 23.4215 65.0949 23.4215C65.2623 23.4215 65.4297 23.5889 65.4297 23.7563C65.4297 23.9236 65.2623 24.091 65.0949 24.091C64.9275 24.091 64.7602 23.9236 64.7602 23.7563Z" fill="#FF3500"/>
<path d="M64.7602 13.8243C64.7602 13.8243 64.9275 13.4895 65.0949 13.4895C65.2623 13.4895 65.4297 13.6569 65.4297 13.8243C65.4297 13.9916 65.2623 14.159 65.0949 14.159C64.9275 14.159 64.7602 13.9916 64.7602 13.8243Z" fill="#FF3500"/>
<path d="M64.7602 3.89279C64.7602 3.89279 64.9275 3.55786 65.0949 3.55786C65.2623 3.55786 65.4297 3.7254 65.4297 3.89279C65.4297 4.06017 65.2623 4.22754 65.0949 4.22754C64.9275 4.22754 64.7602 4.06017 64.7602 3.89279Z" fill="#FF3500"/>
<path d="M54.7157 43.6192C54.7157 43.6192 54.9389 43.1727 55.162 43.1727C55.3852 43.1727 55.6084 43.396 55.6084 43.6192C55.6084 43.8424 55.3852 44.0655 55.162 44.0655C54.9389 44.0655 54.7157 43.8424 54.7157 43.6192Z" fill="#FF3500"/>
<path d="M54.7157 33.688C54.7157 33.688 54.9389 33.2416 55.162 33.2416C55.3852 33.2416 55.6084 33.4649 55.6084 33.688C55.6084 33.9112 55.3852 34.1343 55.162 34.1343C54.9389 34.1343 54.7157 33.9112 54.7157 33.688Z" fill="#FF3500"/>
<path d="M54.7157 23.7561C54.7157 23.7561 54.9389 23.3097 55.162 23.3097C55.3852 23.3097 55.6084 23.533 55.6084 23.7561C55.6084 23.9793 55.3852 24.2024 55.162 24.2024C54.9389 24.2024 54.7157 23.9793 54.7157 23.7561Z" fill="#FF3500"/>
<path d="M54.7157 13.8241C54.7157 13.8241 54.9389 13.3777 55.162 13.3777C55.3852 13.3777 55.6084 13.601 55.6084 13.8241C55.6084 14.0473 55.3852 14.2704 55.162 14.2704C54.9389 14.2704 54.7157 14.0473 54.7157 13.8241Z" fill="#FF3500"/>
<path d="M54.7157 3.89421C54.7157 3.89421 54.9389 3.44775 55.162 3.44775C55.3852 3.44775 55.6084 3.67103 55.6084 3.89421C55.6084 4.11739 55.3852 4.34049 55.162 4.34049C54.9389 4.34049 54.7157 4.11739 54.7157 3.89421Z" fill="#FF3500"/>
<path d="M44.7291 43.6192C44.7291 43.3402 44.9523 43.1171 45.2313 43.1171C45.5102 43.1171 45.7334 43.3402 45.7334 43.6192C45.7334 43.8982 45.5102 44.1213 45.2313 44.1213C44.9523 44.1213 44.7291 43.8982 44.7291 43.6192Z" fill="#FF3500"/>
<path d="M44.7291 33.6876C44.7291 33.4086 44.9523 33.1854 45.2313 33.1854C45.5102 33.1854 45.7334 33.4086 45.7334 33.6876C45.7334 33.9665 45.5102 34.1897 45.2313 34.1897C44.9523 34.1897 44.7291 33.9665 44.7291 33.6876Z" fill="#FF3500"/>
<path d="M44.7291 23.7556C44.7291 23.4766 44.9523 23.2534 45.2313 23.2534C45.5102 23.2534 45.7334 23.4766 45.7334 23.7556C45.7334 24.0345 45.5102 24.2577 45.2313 24.2577C44.9523 24.2577 44.7291 24.0345 44.7291 23.7556Z" fill="#FF3500"/>
<path d="M44.7291 13.8247C44.7291 13.5457 44.9523 13.3224 45.2313 13.3224C45.5102 13.3224 45.7334 13.5457 45.7334 13.8247C45.7334 14.1037 45.5102 14.3268 45.2313 14.3268C44.9523 14.3268 44.7291 14.1037 44.7291 13.8247Z" fill="#FF3500"/>
<path d="M44.7291 3.89268C44.7291 3.61371 44.9523 3.39038 45.2313 3.39038C45.5102 3.39038 45.7334 3.61371 45.7334 3.89268C45.7334 4.17166 45.5102 4.39482 45.2313 4.39482C44.9523 4.39482 44.7291 4.17166 44.7291 3.89268Z" fill="#FF3500"/>
<path d="M34.6875 43.6191C34.6875 43.2843 34.9665 43.0052 35.3013 43.0052C35.6361 43.0052 35.915 43.2843 35.915 43.6191C35.915 43.9538 35.6361 44.2327 35.3013 44.2327C34.9665 44.2327 34.6875 43.9538 34.6875 43.6191Z" fill="#FF3500"/>
<path d="M34.6875 33.6874C34.6875 33.3527 34.9665 33.0736 35.3013 33.0736C35.6361 33.0736 35.915 33.3527 35.915 33.6874C35.915 34.0222 35.6361 34.3011 35.3013 34.3011C34.9665 34.3011 34.6875 34.0222 34.6875 33.6874Z" fill="#FF3500"/>
<path d="M34.6875 23.756C34.6875 23.4213 34.9665 23.1422 35.3013 23.1422C35.6361 23.1422 35.915 23.4213 35.915 23.756C35.915 24.0908 35.6361 24.3697 35.3013 24.3697C34.9665 24.3697 34.6875 24.0908 34.6875 23.756Z" fill="#FF3500"/>
<path d="M34.6875 13.8255C34.6875 13.4907 34.9665 13.2117 35.3013 13.2117C35.6361 13.2117 35.915 13.4907 35.915 13.8255C35.915 14.1603 35.6361 14.4392 35.3013 14.4392C34.9665 14.4392 34.6875 14.1603 34.6875 13.8255Z" fill="#FF3500"/>
<path d="M34.6875 3.8941C34.6875 3.55934 34.9665 3.28027 35.3013 3.28027C35.6361 3.28027 35.915 3.55934 35.915 3.8941C35.915 4.22887 35.6361 4.50777 35.3013 4.50777C34.9665 4.50777 34.6875 4.22887 34.6875 3.8941Z" fill="#FF3500"/>
<path d="M24.6414 43.6193C24.6414 43.2288 24.9761 42.9498 25.3109 42.9498C25.6456 42.9498 25.9805 43.2846 25.9805 43.6193C25.9805 43.9541 25.6456 44.2888 25.3109 44.2888C24.9761 44.2888 24.6414 43.9541 24.6414 43.6193Z" fill="#FF3500"/>
<path d="M24.6414 33.6875C24.6414 33.2969 24.9761 33.0179 25.3109 33.0179C25.6456 33.0179 25.9805 33.3527 25.9805 33.6875C25.9805 34.0222 25.6456 34.357 25.3109 34.357C24.9761 34.357 24.6414 34.0222 24.6414 33.6875Z" fill="#FF3500"/>
<path d="M24.6414 23.7556C24.6414 23.3651 24.9761 23.0859 25.3109 23.0859C25.6456 23.0859 25.9805 23.4208 25.9805 23.7556C25.9805 24.0904 25.6456 24.4251 25.3109 24.4251C24.9761 24.4251 24.6414 24.0904 24.6414 23.7556Z" fill="#FF3500"/>
<path d="M24.6414 13.8246C24.6414 13.434 24.9761 13.1549 25.3109 13.1549C25.6456 13.1549 25.9805 13.4898 25.9805 13.8246C25.9805 14.1594 25.6456 14.4941 25.3109 14.4941C24.9761 14.4941 24.6414 14.1594 24.6414 13.8246Z" fill="#FF3500"/>
<path d="M24.6414 3.8938C24.6414 3.50324 24.9761 3.22412 25.3109 3.22412C25.6456 3.22412 25.9805 3.55903 25.9805 3.8938C25.9805 4.22857 25.6456 4.56331 25.3109 4.56331C24.9761 4.56331 24.6414 4.22857 24.6414 3.8938Z" fill="#FF3500"/>
<path d="M15.4357 44.4003C15.0043 44.4003 14.6545 44.0506 14.6545 43.6192C14.6545 43.1878 15.0043 42.838 15.4357 42.838C15.8671 42.838 16.2168 43.1878 16.2168 43.6192C16.2168 44.0506 15.8671 44.4003 15.4357 44.4003Z" fill="#FF3500"/>
<path d="M15.4357 34.4684C15.0043 34.4684 14.6545 34.1187 14.6545 33.6873C14.6545 33.2559 15.0043 32.9061 15.4357 32.9061C15.8671 32.9061 16.2168 33.2559 16.2168 33.6873C16.2168 34.1187 15.8671 34.4684 15.4357 34.4684Z" fill="#FF3500"/>
<path d="M15.4357 24.5381C15.0043 24.5381 14.6545 24.1884 14.6545 23.757C14.6545 23.3256 15.0043 22.9758 15.4357 22.9758C15.8671 22.9758 16.2168 23.3256 16.2168 23.757C16.2168 24.1884 15.8671 24.5381 15.4357 24.5381Z" fill="#FF3500"/>
<path d="M15.4357 14.6064C15.0043 14.6064 14.6545 14.2568 14.6545 13.8254C14.6545 13.394 15.0043 13.0442 15.4357 13.0442C15.8671 13.0442 16.2168 13.394 16.2168 13.8254C16.2168 14.2568 15.8671 14.6064 15.4357 14.6064Z" fill="#FF3500"/>
<path d="M15.4357 4.67504C15.0043 4.67504 14.6545 4.32541 14.6545 3.894C14.6545 3.4626 15.0043 3.11279 15.4357 3.11279C15.8671 3.11279 16.2168 3.4626 16.2168 3.894C16.2168 4.32541 15.8671 4.67504 15.4357 4.67504Z" fill="#FF3500"/>
<path d="M4.61305 43.6189C4.61305 43.1168 5.00363 42.7262 5.50579 42.7262C6.00794 42.7262 6.39844 43.1168 6.39844 43.6189C6.39844 44.1211 6.00794 44.5117 5.50579 44.5117C5.00363 44.5117 4.61305 44.1211 4.61305 43.6189Z" fill="#FF3500"/>
<path d="M4.61305 33.687C4.61305 33.1849 5.00363 32.7943 5.50579 32.7943C6.00794 32.7943 6.39844 33.1849 6.39844 33.687C6.39844 34.1892 6.00794 34.5798 5.50579 34.5798C5.00363 34.5798 4.61305 34.1892 4.61305 33.687Z" fill="#FF3500"/>
<path d="M4.61305 23.757C4.61305 23.2548 5.00363 22.8643 5.50579 22.8643C6.00794 22.8643 6.39844 23.2548 6.39844 23.757C6.39844 24.2591 6.00794 24.6497 5.50579 24.6497C5.00363 24.6497 4.61305 24.2591 4.61305 23.757Z" fill="#FF3500"/>
<path d="M4.61305 13.8251C4.61305 13.323 5.00363 12.9324 5.50579 12.9324C6.00794 12.9324 6.39844 13.323 6.39844 13.8251C6.39844 14.3273 6.00794 14.7177 5.50579 14.7177C5.00363 14.7177 4.61305 14.3273 4.61305 13.8251Z" fill="#FF3500"/>
<path d="M4.61305 3.89371C4.61305 3.39156 5.00363 3.00098 5.50579 3.00098C6.00794 3.00098 6.39844 3.39156 6.39844 3.89371C6.39844 4.39587 6.00794 4.78628 5.50579 4.78628C5.00363 4.78628 4.61305 4.39587 4.61305 3.89371Z" fill="#FF3500"/>
</g>
<defs>
<clipPath id="clip0_581_165764">
<rect width="95" height="48" fill="white" transform="matrix(-1 0 0 1 95 0)"/>
</clipPath>
</defs>
</svg>
