<svg width="141" height="104" viewBox="0 0 141 104" fill="none" xmlns="http://www.w3.org/2000/svg">
<g clip-path="url(#clip0_499_52911)">
<path d="M140.777 73.4818C140.777 73.4818 140.833 73.3701 140.888 73.3701C140.944 73.3701 141 73.426 141 73.4818C141 73.5376 140.944 73.5933 140.888 73.5933C140.833 73.5933 140.777 73.5376 140.777 73.4818Z" fill="#FF3500"/>
<path d="M140.777 83.4374C140.777 83.4374 140.833 83.3257 140.888 83.3257C140.944 83.3257 141 83.3816 141 83.4374C141 83.4932 140.944 83.5489 140.888 83.5489C140.833 83.5489 140.777 83.4932 140.777 83.4374Z" fill="#FF3500"/>
<path d="M140.777 92.3953C140.777 92.3953 140.833 92.2836 140.888 92.2836C140.944 92.2836 141 92.3395 141 92.3953C141 92.4511 140.944 92.5068 140.888 92.5068C140.833 92.5068 140.777 92.4511 140.777 92.3953Z" fill="#FF3500"/>
<path d="M140.777 63.5509C140.777 63.5509 140.833 63.4392 140.888 63.4392C140.944 63.4392 141 63.4951 141 63.5509C141 63.6067 140.944 63.6624 140.888 63.6624C140.833 63.6624 140.777 63.6067 140.777 63.5509Z" fill="#FF3500"/>
<path d="M140.777 73.5065C140.777 73.5065 140.833 73.3948 140.888 73.3948C140.944 73.3948 141 73.4507 141 73.5065C141 73.5623 140.944 73.618 140.888 73.618C140.833 73.618 140.777 73.5623 140.777 73.5065Z" fill="#FF3500"/>
<path d="M140.777 53.6199C140.777 53.6199 140.833 53.5082 140.888 53.5082C140.944 53.5082 141 53.5641 141 53.6199C141 53.6757 140.944 53.7314 140.888 53.7314C140.833 53.7314 140.777 53.6757 140.777 53.6199Z" fill="#FF3500"/>
<path d="M140.777 43.688C140.777 43.688 140.833 43.5763 140.888 43.5763C140.944 43.5763 141 43.6322 141 43.688C141 43.7438 140.944 43.7995 140.888 43.7995C140.833 43.7995 140.777 43.7438 140.777 43.688Z" fill="#FF3500"/>
<path d="M140.777 33.7564C140.777 33.7564 140.833 33.6447 140.888 33.6447C140.944 33.6447 141 33.7006 141 33.7564C141 33.8121 140.944 33.8679 140.888 33.8679C140.833 33.8679 140.777 33.8121 140.777 33.7564Z" fill="#FF3500"/>
<path d="M140.777 23.825C140.777 23.825 140.833 23.7133 140.888 23.7133C140.944 23.7133 141 23.7692 141 23.825C141 23.8808 140.944 23.9365 140.888 23.9365C140.833 23.9365 140.777 23.8808 140.777 23.825Z" fill="#FF3500"/>
<path d="M140.777 13.8929C140.777 13.8929 140.833 13.7812 140.888 13.7812C140.944 13.7812 141 13.8372 141 13.8929C141 13.9487 140.944 14.0045 140.888 14.0045C140.833 14.0045 140.777 13.9487 140.777 13.8929Z" fill="#FF3500"/>
<path d="M140.777 3.96131C140.777 3.96131 140.833 3.84961 140.888 3.84961C140.944 3.84961 141 3.90551 141 3.96131C141 4.0171 140.944 4.07284 140.888 4.07284C140.833 4.07284 140.777 4.0171 140.777 3.96131Z" fill="#FF3500"/>
<path d="M130.79 73.4829C130.79 73.4829 130.902 73.3156 130.958 73.3156C131.013 73.3156 131.125 73.4271 131.125 73.4829C131.125 73.5387 131.013 73.6503 130.958 73.6503C130.902 73.6503 130.79 73.5387 130.79 73.4829Z" fill="#FF3500"/>
<path d="M130.79 83.4385C130.79 83.4385 130.902 83.2711 130.958 83.2711C131.013 83.2711 131.125 83.3827 131.125 83.4385C131.125 83.4943 131.013 83.6059 130.958 83.6059C130.902 83.6059 130.79 83.4943 130.79 83.4385Z" fill="#FF3500"/>
<path d="M130.79 92.3964C130.79 92.3964 130.902 92.229 130.958 92.229C131.013 92.229 131.125 92.3406 131.125 92.3964C131.125 92.4522 131.013 92.5638 130.958 92.5638C130.902 92.5638 130.79 92.4522 130.79 92.3964Z" fill="#FF3500"/>
<path d="M130.79 92.5077C130.79 92.5077 130.902 92.3403 130.958 92.3403C131.013 92.3403 131.125 92.4519 131.125 92.5077C131.125 92.5635 131.013 92.6751 130.958 92.6751C130.902 92.6751 130.79 92.5635 130.79 92.5077Z" fill="#FF3500"/>
<path d="M130.79 101.466C130.79 101.466 130.902 101.298 130.958 101.298C131.013 101.298 131.125 101.41 131.125 101.466C131.125 101.521 131.013 101.633 130.958 101.633C130.902 101.633 130.79 101.521 130.79 101.466Z" fill="#FF3500"/>
<path d="M130.79 63.551C130.79 63.551 130.902 63.3837 130.958 63.3837C131.013 63.3837 131.125 63.4952 131.125 63.551C131.125 63.6068 131.013 63.7184 130.958 63.7184C130.902 63.7184 130.79 63.6068 130.79 63.551Z" fill="#FF3500"/>
<path d="M130.79 73.5066C130.79 73.5066 130.902 73.3392 130.958 73.3392C131.013 73.3392 131.125 73.4508 131.125 73.5066C131.125 73.5624 131.013 73.674 130.958 73.674C130.902 73.674 130.79 73.5624 130.79 73.5066Z" fill="#FF3500"/>
<path d="M130.79 53.6194C130.79 53.6194 130.902 53.452 130.958 53.452C131.013 53.452 131.125 53.5636 131.125 53.6194C131.125 53.6752 131.013 53.7868 130.958 53.7868C130.902 53.7868 130.79 53.6752 130.79 53.6194Z" fill="#FF3500"/>
<path d="M130.79 43.688C130.79 43.688 130.902 43.5206 130.958 43.5206C131.013 43.5206 131.125 43.6322 131.125 43.688C131.125 43.7438 131.013 43.8554 130.958 43.8554C130.902 43.8554 130.79 43.7438 130.79 43.688Z" fill="#FF3500"/>
<path d="M130.79 33.7564C130.79 33.7564 130.902 33.589 130.958 33.589C131.013 33.589 131.125 33.7006 131.125 33.7564C131.125 33.8122 131.013 33.9237 130.958 33.9237C130.902 33.9237 130.79 33.8122 130.79 33.7564Z" fill="#FF3500"/>
<path d="M130.79 23.8244C130.79 23.8244 130.902 23.657 130.958 23.657C131.013 23.657 131.125 23.7686 131.125 23.8244C131.125 23.8802 131.013 23.9917 130.958 23.9917C130.902 23.9917 130.79 23.8802 130.79 23.8244Z" fill="#FF3500"/>
<path d="M130.79 13.8931C130.79 13.8931 130.902 13.7257 130.958 13.7257C131.013 13.7257 131.125 13.8373 131.125 13.8931C131.125 13.9489 131.013 14.0605 130.958 14.0605C130.902 14.0605 130.79 13.9489 130.79 13.8931Z" fill="#FF3500"/>
<path d="M130.79 3.96149C130.79 3.96149 130.902 3.79395 130.958 3.79395C131.013 3.79395 131.125 3.9057 131.125 3.96149C131.125 4.01729 131.013 4.12887 130.958 4.12887C130.902 4.12887 130.79 4.01729 130.79 3.96149Z" fill="#FF3500"/>
<path d="M120.749 73.4828C120.749 73.4828 120.86 73.2037 121.028 73.2037C121.195 73.2037 121.307 73.3154 121.307 73.4828C121.307 73.6502 121.195 73.7617 121.028 73.7617C120.86 73.7617 120.749 73.6502 120.749 73.4828Z" fill="#FF3500"/>
<path d="M120.749 83.4384C120.749 83.4384 120.86 83.1593 121.028 83.1593C121.195 83.1593 121.307 83.271 121.307 83.4384C121.307 83.6058 121.195 83.7173 121.028 83.7173C120.86 83.7173 120.749 83.6058 120.749 83.4384Z" fill="#FF3500"/>
<path d="M120.749 92.3963C120.749 92.3963 120.86 92.1172 121.028 92.1172C121.195 92.1172 121.307 92.2289 121.307 92.3963C121.307 92.5636 121.195 92.6752 121.028 92.6752C120.86 92.6752 120.749 92.5636 120.749 92.3963Z" fill="#FF3500"/>
<path d="M120.749 92.5076C120.749 92.5076 120.86 92.2285 121.028 92.2285C121.195 92.2285 121.307 92.3402 121.307 92.5076C121.307 92.675 121.195 92.7865 121.028 92.7865C120.86 92.7865 120.749 92.675 120.749 92.5076Z" fill="#FF3500"/>
<path d="M120.749 101.465C120.749 101.465 120.86 101.186 121.028 101.186C121.195 101.186 121.307 101.298 121.307 101.465C121.307 101.633 121.195 101.744 121.028 101.744C120.86 101.744 120.749 101.633 120.749 101.465Z" fill="#FF3500"/>
<path d="M120.749 63.5512C120.749 63.5512 120.86 63.2721 121.028 63.2721C121.195 63.2721 121.307 63.3838 121.307 63.5512C121.307 63.7186 121.195 63.8301 121.028 63.8301C120.86 63.8301 120.749 63.7186 120.749 63.5512Z" fill="#FF3500"/>
<path d="M120.749 73.5067C120.749 73.5067 120.86 73.2277 121.028 73.2277C121.195 73.2277 121.307 73.3394 121.307 73.5067C121.307 73.6741 121.195 73.7856 121.028 73.7856C120.86 73.7856 120.749 73.6741 120.749 73.5067Z" fill="#FF3500"/>
<path d="M120.749 53.6198C120.749 53.6198 120.86 53.3407 121.028 53.3407C121.195 53.3407 121.307 53.4524 121.307 53.6198C121.307 53.7872 121.195 53.8987 121.028 53.8987C120.86 53.8987 120.749 53.7872 120.749 53.6198Z" fill="#FF3500"/>
<path d="M120.749 43.6879C120.749 43.6879 120.86 43.4088 121.028 43.4088C121.195 43.4088 121.307 43.5205 121.307 43.6879C121.307 43.8553 121.195 43.9668 121.028 43.9668C120.86 43.9668 120.749 43.8553 120.749 43.6879Z" fill="#FF3500"/>
<path d="M120.749 33.7562C120.749 33.7562 120.86 33.4772 121.028 33.4772C121.195 33.4772 121.307 33.5889 121.307 33.7562C121.307 33.9236 121.195 34.0352 121.028 34.0352C120.86 34.0352 120.749 33.9236 120.749 33.7562Z" fill="#FF3500"/>
<path d="M120.749 23.8242C120.749 23.8242 120.86 23.5452 121.028 23.5452C121.195 23.5452 121.307 23.6569 121.307 23.8242C121.307 23.9916 121.195 24.1031 121.028 24.1031C120.86 24.1031 120.749 23.9916 120.749 23.8242Z" fill="#FF3500"/>
<path d="M120.749 13.8932C120.749 13.8932 120.86 13.6141 121.028 13.6141C121.195 13.6141 121.307 13.7258 121.307 13.8932C121.307 14.0606 121.195 14.1721 121.028 14.1721C120.86 14.1721 120.749 14.0606 120.749 13.8932Z" fill="#FF3500"/>
<path d="M120.749 3.96291C120.749 3.96291 120.86 3.68384 121.028 3.68384C121.195 3.68384 121.307 3.79553 121.307 3.96291C121.307 4.1303 121.195 4.24182 121.028 4.24182C120.86 4.24182 120.749 4.1303 120.749 3.96291Z" fill="#FF3500"/>
<path d="M110.76 73.4823C110.76 73.4823 110.928 73.1476 111.095 73.1476C111.262 73.1476 111.43 73.315 111.43 73.4823C111.43 73.6497 111.262 73.8171 111.095 73.8171C110.928 73.8171 110.76 73.6497 110.76 73.4823Z" fill="#FF3500"/>
<path d="M110.76 83.4379C110.76 83.4379 110.928 83.1031 111.095 83.1031C111.262 83.1031 111.43 83.2705 111.43 83.4379C111.43 83.6053 111.262 83.7727 111.095 83.7727C110.928 83.7727 110.76 83.6053 110.76 83.4379Z" fill="#FF3500"/>
<path d="M110.76 92.3958C110.76 92.3958 110.928 92.061 111.095 92.061C111.262 92.061 111.43 92.2284 111.43 92.3958C111.43 92.5632 111.262 92.7305 111.095 92.7305C110.928 92.7305 110.76 92.5632 110.76 92.3958Z" fill="#FF3500"/>
<path d="M110.76 92.5071C110.76 92.5071 110.928 92.1724 111.095 92.1724C111.262 92.1724 111.43 92.3397 111.43 92.5071C111.43 92.6745 111.262 92.8419 111.095 92.8419C110.928 92.8419 110.76 92.6745 110.76 92.5071Z" fill="#FF3500"/>
<path d="M110.76 101.465C110.76 101.465 110.928 101.13 111.095 101.13C111.262 101.13 111.43 101.298 111.43 101.465C111.43 101.632 111.262 101.8 111.095 101.8C110.928 101.8 110.76 101.632 110.76 101.465Z" fill="#FF3500"/>
<path d="M110.76 63.5512C110.76 63.5512 110.928 63.2164 111.095 63.2164C111.262 63.2164 111.43 63.3838 111.43 63.5512C111.43 63.7186 111.262 63.8859 111.095 63.8859C110.928 63.8859 110.76 63.7186 110.76 63.5512Z" fill="#FF3500"/>
<path d="M110.76 73.5068C110.76 73.5068 110.928 73.172 111.095 73.172C111.262 73.172 111.43 73.3394 111.43 73.5068C111.43 73.6741 111.262 73.8415 111.095 73.8415C110.928 73.8415 110.76 73.6741 110.76 73.5068Z" fill="#FF3500"/>
<path d="M110.76 53.6193C110.76 53.6193 110.928 53.2845 111.095 53.2845C111.262 53.2845 111.43 53.4519 111.43 53.6193C111.43 53.7867 111.262 53.9541 111.095 53.9541C110.928 53.9541 110.76 53.7867 110.76 53.6193Z" fill="#FF3500"/>
<path d="M110.76 43.6873C110.76 43.6873 110.928 43.3525 111.095 43.3525C111.262 43.3525 111.43 43.5199 111.43 43.6873C111.43 43.8547 111.262 44.022 111.095 44.022C110.928 44.022 110.76 43.8547 110.76 43.6873Z" fill="#FF3500"/>
<path d="M110.76 33.7563C110.76 33.7563 110.928 33.4215 111.095 33.4215C111.262 33.4215 111.43 33.5889 111.43 33.7563C111.43 33.9236 111.262 34.091 111.095 34.091C110.928 34.091 110.76 33.9236 110.76 33.7563Z" fill="#FF3500"/>
<path d="M110.76 23.8243C110.76 23.8243 110.928 23.4895 111.095 23.4895C111.262 23.4895 111.43 23.6569 111.43 23.8243C111.43 23.9916 111.262 24.159 111.095 24.159C110.928 24.159 110.76 23.9916 110.76 23.8243Z" fill="#FF3500"/>
<path d="M110.76 13.8928C110.76 13.8928 110.928 13.5579 111.095 13.5579C111.262 13.5579 111.43 13.7254 111.43 13.8928C111.43 14.0602 111.262 14.2275 111.095 14.2275C110.928 14.2275 110.76 14.0602 110.76 13.8928Z" fill="#FF3500"/>
<path d="M110.76 3.96151C110.76 3.96151 110.928 3.62659 111.095 3.62659C111.262 3.62659 111.43 3.79413 111.43 3.96151C111.43 4.1289 111.262 4.29627 111.095 4.29627C110.928 4.29627 110.76 4.1289 110.76 3.96151Z" fill="#FF3500"/>
<path d="M100.716 73.4827C100.716 73.4827 100.939 73.0363 101.162 73.0363C101.385 73.0363 101.608 73.2595 101.608 73.4827C101.608 73.7059 101.385 73.929 101.162 73.929C100.939 73.929 100.716 73.7059 100.716 73.4827Z" fill="#FF3500"/>
<path d="M100.716 83.4383C100.716 83.4383 100.939 82.9918 101.162 82.9918C101.385 82.9918 101.608 83.2151 101.608 83.4383C101.608 83.6615 101.385 83.8846 101.162 83.8846C100.939 83.8846 100.716 83.6615 100.716 83.4383Z" fill="#FF3500"/>
<path d="M100.716 92.3962C100.716 92.3962 100.939 91.9497 101.162 91.9497C101.385 91.9497 101.608 92.173 101.608 92.3962C101.608 92.6193 101.385 92.8424 101.162 92.8424C100.939 92.8424 100.716 92.6193 100.716 92.3962Z" fill="#FF3500"/>
<path d="M100.716 92.5075C100.716 92.5075 100.939 92.061 101.162 92.061C101.385 92.061 101.608 92.2843 101.608 92.5075C101.608 92.7307 101.385 92.9538 101.162 92.9538C100.939 92.9538 100.716 92.7307 100.716 92.5075Z" fill="#FF3500"/>
<path d="M100.716 101.465C100.716 101.465 100.939 101.019 101.162 101.019C101.385 101.019 101.608 101.242 101.608 101.465C101.608 101.689 101.385 101.912 101.162 101.912C100.939 101.912 100.716 101.689 100.716 101.465Z" fill="#FF3500"/>
<path d="M100.716 63.5511C100.716 63.5511 100.939 63.1046 101.162 63.1046C101.385 63.1046 101.608 63.3279 101.608 63.5511C101.608 63.7742 101.385 63.9974 101.162 63.9974C100.939 63.9974 100.716 63.7742 100.716 63.5511Z" fill="#FF3500"/>
<path d="M100.716 73.5066C100.716 73.5066 100.939 73.0602 101.162 73.0602C101.385 73.0602 101.608 73.2835 101.608 73.5066C101.608 73.7298 101.385 73.9529 101.162 73.9529C100.939 73.9529 100.716 73.7298 100.716 73.5066Z" fill="#FF3500"/>
<path d="M100.716 53.6192C100.716 53.6192 100.939 53.1727 101.162 53.1727C101.385 53.1727 101.608 53.396 101.608 53.6192C101.608 53.8424 101.385 54.0655 101.162 54.0655C100.939 54.0655 100.716 53.8424 100.716 53.6192Z" fill="#FF3500"/>
<path d="M100.716 43.688C100.716 43.688 100.939 43.2416 101.162 43.2416C101.385 43.2416 101.608 43.4649 101.608 43.688C101.608 43.9112 101.385 44.1343 101.162 44.1343C100.939 44.1343 100.716 43.9112 100.716 43.688Z" fill="#FF3500"/>
<path d="M100.716 33.7561C100.716 33.7561 100.939 33.3097 101.162 33.3097C101.385 33.3097 101.608 33.533 101.608 33.7561C101.608 33.9793 101.385 34.2024 101.162 34.2024C100.939 34.2024 100.716 33.9793 100.716 33.7561Z" fill="#FF3500"/>
<path d="M100.716 23.8241C100.716 23.8241 100.939 23.3777 101.162 23.3777C101.385 23.3777 101.608 23.601 101.608 23.8241C101.608 24.0473 101.385 24.2704 101.162 24.2704C100.939 24.2704 100.716 24.0473 100.716 23.8241Z" fill="#FF3500"/>
<path d="M100.716 13.8942C100.716 13.8942 100.939 13.4478 101.162 13.4478C101.385 13.4478 101.608 13.671 101.608 13.8942C101.608 14.1174 101.385 14.3405 101.162 14.3405C100.939 14.3405 100.716 14.1174 100.716 13.8942Z" fill="#FF3500"/>
<path d="M100.716 3.96232C100.716 3.96232 100.939 3.51587 101.162 3.51587C101.385 3.51587 101.608 3.73914 101.608 3.96232C101.608 4.1855 101.385 4.40861 101.162 4.40861C100.939 4.40861 100.716 4.1855 100.716 3.96232Z" fill="#FF3500"/>
<path d="M90.7291 73.4822C90.7291 73.2033 90.9523 72.9801 91.2313 72.9801C91.5102 72.9801 91.7334 73.2033 91.7334 73.4822C91.7334 73.7612 91.5102 73.9844 91.2313 73.9844C90.9523 73.9844 90.7291 73.7612 90.7291 73.4822Z" fill="#FF3500"/>
<path d="M90.7291 83.4378C90.7291 83.1588 90.9523 82.9357 91.2313 82.9357C91.5102 82.9357 91.7334 83.1588 91.7334 83.4378C91.7334 83.7168 91.5102 83.9399 91.2313 83.9399C90.9523 83.9399 90.7291 83.7168 90.7291 83.4378Z" fill="#FF3500"/>
<path d="M90.7291 92.3957C90.7291 92.1167 90.9523 91.8936 91.2313 91.8936C91.5102 91.8936 91.7334 92.1167 91.7334 92.3957C91.7334 92.6747 91.5102 92.8978 91.2313 92.8978C90.9523 92.8978 90.7291 92.6747 90.7291 92.3957Z" fill="#FF3500"/>
<path d="M90.7291 92.507C90.7291 92.228 90.9523 92.0049 91.2313 92.0049C91.5102 92.0049 91.7334 92.228 91.7334 92.507C91.7334 92.786 91.5102 93.0091 91.2313 93.0091C90.9523 93.0091 90.7291 92.786 90.7291 92.507Z" fill="#FF3500"/>
<path d="M90.7291 101.465C90.7291 101.186 90.9523 100.963 91.2313 100.963C91.5102 100.963 91.7334 101.186 91.7334 101.465C91.7334 101.744 91.5102 101.967 91.2313 101.967C90.9523 101.967 90.7291 101.744 90.7291 101.465Z" fill="#FF3500"/>
<path d="M90.7291 63.5511C90.7291 63.2721 90.9523 63.049 91.2313 63.049C91.5102 63.049 91.7334 63.2721 91.7334 63.5511C91.7334 63.8301 91.5102 64.0532 91.2313 64.0532C90.9523 64.0532 90.7291 63.8301 90.7291 63.5511Z" fill="#FF3500"/>
<path d="M90.7291 73.5066C90.7291 73.2277 90.9523 73.0045 91.2313 73.0045C91.5102 73.0045 91.7334 73.2277 91.7334 73.5066C91.7334 73.7856 91.5102 74.0088 91.2313 74.0088C90.9523 74.0088 90.7291 73.7856 90.7291 73.5066Z" fill="#FF3500"/>
<path d="M90.7291 53.6192C90.7291 53.3402 90.9523 53.1171 91.2313 53.1171C91.5102 53.1171 91.7334 53.3402 91.7334 53.6192C91.7334 53.8982 91.5102 54.1213 91.2313 54.1213C90.9523 54.1213 90.7291 53.8982 90.7291 53.6192Z" fill="#FF3500"/>
<path d="M90.7291 43.6876C90.7291 43.4086 90.9523 43.1854 91.2313 43.1854C91.5102 43.1854 91.7334 43.4086 91.7334 43.6876C91.7334 43.9665 91.5102 44.1897 91.2313 44.1897C90.9523 44.1897 90.7291 43.9665 90.7291 43.6876Z" fill="#FF3500"/>
<path d="M90.7291 33.7556C90.7291 33.4766 90.9523 33.2534 91.2313 33.2534C91.5102 33.2534 91.7334 33.4766 91.7334 33.7556C91.7334 34.0345 91.5102 34.2577 91.2313 34.2577C90.9523 34.2577 90.7291 34.0345 90.7291 33.7556Z" fill="#FF3500"/>
<path d="M90.7291 23.8247C90.7291 23.5457 90.9523 23.3224 91.2313 23.3224C91.5102 23.3224 91.7334 23.5457 91.7334 23.8247C91.7334 24.1037 91.5102 24.3268 91.2313 24.3268C90.9523 24.3268 90.7291 24.1037 90.7291 23.8247Z" fill="#FF3500"/>
<path d="M90.7291 13.8927C90.7291 13.6137 90.9523 13.3904 91.2313 13.3904C91.5102 13.3904 91.7334 13.6137 91.7334 13.8927C91.7334 14.1717 91.5102 14.3948 91.2313 14.3948C90.9523 14.3948 90.7291 14.1717 90.7291 13.8927Z" fill="#FF3500"/>
<path d="M90.7291 3.96251C90.7291 3.68353 90.9523 3.46021 91.2313 3.46021C91.5102 3.46021 91.7334 3.68353 91.7334 3.96251C91.7334 4.24148 91.5102 4.46464 91.2313 4.46464C90.9523 4.46464 90.7291 4.24148 90.7291 3.96251Z" fill="#FF3500"/>
<path d="M80.6875 73.4824C80.6875 73.1476 80.9665 72.8685 81.3013 72.8685C81.6361 72.8685 81.915 73.1476 81.915 73.4824C81.915 73.8171 81.6361 74.096 81.3013 74.096C80.9665 74.096 80.6875 73.8171 80.6875 73.4824Z" fill="#FF3500"/>
<path d="M80.6875 83.4379C80.6875 83.1032 80.9665 82.8241 81.3013 82.8241C81.6361 82.8241 81.915 83.1032 81.915 83.4379C81.915 83.7727 81.6361 84.0516 81.3013 84.0516C80.9665 84.0516 80.6875 83.7727 80.6875 83.4379Z" fill="#FF3500"/>
<path d="M80.6875 92.3958C80.6875 92.061 80.9665 91.782 81.3013 91.782C81.6361 91.782 81.915 92.061 81.915 92.3958C81.915 92.7306 81.6361 93.0095 81.3013 93.0095C80.9665 93.0095 80.6875 92.7306 80.6875 92.3958Z" fill="#FF3500"/>
<path d="M80.6875 92.5071C80.6875 92.1724 80.9665 91.8933 81.3013 91.8933C81.6361 91.8933 81.915 92.1724 81.915 92.5071C81.915 92.8419 81.6361 93.1208 81.3013 93.1208C80.9665 93.1208 80.6875 92.8419 80.6875 92.5071Z" fill="#FF3500"/>
<path d="M80.6875 101.465C80.6875 101.13 80.9665 100.851 81.3013 100.851C81.6361 100.851 81.915 101.13 81.915 101.465C81.915 101.8 81.6361 102.079 81.3013 102.079C80.9665 102.079 80.6875 101.8 80.6875 101.465Z" fill="#FF3500"/>
<path d="M80.6875 63.551C80.6875 63.2162 80.9665 62.9371 81.3013 62.9371C81.6361 62.9371 81.915 63.2162 81.915 63.551C81.915 63.8857 81.6361 64.1646 81.3013 64.1646C80.9665 64.1646 80.6875 63.8857 80.6875 63.551Z" fill="#FF3500"/>
<path d="M80.6875 73.5065C80.6875 73.1718 80.9665 72.8927 81.3013 72.8927C81.6361 72.8927 81.915 73.1718 81.915 73.5065C81.915 73.8413 81.6361 74.1202 81.3013 74.1202C80.9665 74.1202 80.6875 73.8413 80.6875 73.5065Z" fill="#FF3500"/>
<path d="M80.6875 53.6191C80.6875 53.2843 80.9665 53.0052 81.3013 53.0052C81.6361 53.0052 81.915 53.2843 81.915 53.6191C81.915 53.9538 81.6361 54.2327 81.3013 54.2327C80.9665 54.2327 80.6875 53.9538 80.6875 53.6191Z" fill="#FF3500"/>
<path d="M80.6875 43.6874C80.6875 43.3527 80.9665 43.0736 81.3013 43.0736C81.6361 43.0736 81.915 43.3527 81.915 43.6874C81.915 44.0222 81.6361 44.3011 81.3013 44.3011C80.9665 44.3011 80.6875 44.0222 80.6875 43.6874Z" fill="#FF3500"/>
<path d="M80.6875 33.756C80.6875 33.4213 80.9665 33.1422 81.3013 33.1422C81.6361 33.1422 81.915 33.4213 81.915 33.756C81.915 34.0908 81.6361 34.3697 81.3013 34.3697C80.9665 34.3697 80.6875 34.0908 80.6875 33.756Z" fill="#FF3500"/>
<path d="M80.6875 23.8255C80.6875 23.4907 80.9665 23.2117 81.3013 23.2117C81.6361 23.2117 81.915 23.4907 81.915 23.8255C81.915 24.1603 81.6361 24.4392 81.3013 24.4392C80.9665 24.4392 80.6875 24.1603 80.6875 23.8255Z" fill="#FF3500"/>
<path d="M80.6875 13.8941C80.6875 13.5593 80.9665 13.2803 81.3013 13.2803C81.6361 13.2803 81.915 13.5593 81.915 13.8941C81.915 14.2289 81.6361 14.5078 81.3013 14.5078C80.9665 14.5078 80.6875 14.2289 80.6875 13.8941Z" fill="#FF3500"/>
<path d="M80.6875 3.96222C80.6875 3.62745 80.9665 3.34839 81.3013 3.34839C81.6361 3.34839 81.915 3.62745 81.915 3.96222C81.915 4.29699 81.6361 4.57588 81.3013 4.57588C80.9665 4.57588 80.6875 4.29699 80.6875 3.96222Z" fill="#FF3500"/>
<path d="M70.6414 73.4824C70.6414 73.0918 70.9761 72.8129 71.3109 72.8129C71.6456 72.8129 71.9805 73.1476 71.9805 73.4824C71.9805 73.8171 71.6456 74.1519 71.3109 74.1519C70.9761 74.1519 70.6414 73.8171 70.6414 73.4824Z" fill="#FF3500"/>
<path d="M70.6414 83.4379C70.6414 83.0474 70.9761 82.7684 71.3109 82.7684C71.6456 82.7684 71.9805 83.1032 71.9805 83.4379C71.9805 83.7727 71.6456 84.1075 71.3109 84.1075C70.9761 84.1075 70.6414 83.7727 70.6414 83.4379Z" fill="#FF3500"/>
<path d="M70.6414 92.3958C70.6414 92.0053 70.9761 91.7263 71.3109 91.7263C71.6456 91.7263 71.9805 92.0611 71.9805 92.3958C71.9805 92.7306 71.6456 93.0653 71.3109 93.0653C70.9761 93.0653 70.6414 92.7306 70.6414 92.3958Z" fill="#FF3500"/>
<path d="M70.6414 92.5072C70.6414 92.1166 70.9761 91.8376 71.3109 91.8376C71.6456 91.8376 71.9805 92.1724 71.9805 92.5072C71.9805 92.8419 71.6456 93.1767 71.3109 93.1767C70.9761 93.1767 70.6414 92.8419 70.6414 92.5072Z" fill="#FF3500"/>
<path d="M70.6414 101.465C70.6414 101.074 70.9761 100.796 71.3109 100.796C71.6456 100.796 71.9805 101.13 71.9805 101.465C71.9805 101.8 71.6456 102.135 71.3109 102.135C70.9761 102.135 70.6414 101.8 70.6414 101.465Z" fill="#FF3500"/>
<path d="M70.6414 63.5505C70.6414 63.1599 70.9761 62.881 71.3109 62.881C71.6456 62.881 71.9805 63.2157 71.9805 63.5505C71.9805 63.8853 71.6456 64.22 71.3109 64.22C70.9761 64.22 70.6414 63.8853 70.6414 63.5505Z" fill="#FF3500"/>
<path d="M70.6414 73.5061C70.6414 73.1155 70.9761 72.8365 71.3109 72.8365C71.6456 72.8365 71.9805 73.1713 71.9805 73.5061C71.9805 73.8408 71.6456 74.1756 71.3109 74.1756C70.9761 74.1756 70.6414 73.8408 70.6414 73.5061Z" fill="#FF3500"/>
<path d="M70.6414 53.6193C70.6414 53.2288 70.9761 52.9498 71.3109 52.9498C71.6456 52.9498 71.9805 53.2846 71.9805 53.6193C71.9805 53.9541 71.6456 54.2888 71.3109 54.2888C70.9761 54.2888 70.6414 53.9541 70.6414 53.6193Z" fill="#FF3500"/>
<path d="M70.6414 43.6875C70.6414 43.2969 70.9761 43.0179 71.3109 43.0179C71.6456 43.0179 71.9805 43.3527 71.9805 43.6875C71.9805 44.0222 71.6456 44.357 71.3109 44.357C70.9761 44.357 70.6414 44.0222 70.6414 43.6875Z" fill="#FF3500"/>
<path d="M70.6414 33.7556C70.6414 33.3651 70.9761 33.0859 71.3109 33.0859C71.6456 33.0859 71.9805 33.4208 71.9805 33.7556C71.9805 34.0904 71.6456 34.4251 71.3109 34.4251C70.9761 34.4251 70.6414 34.0904 70.6414 33.7556Z" fill="#FF3500"/>
<path d="M70.6414 23.8246C70.6414 23.434 70.9761 23.1549 71.3109 23.1549C71.6456 23.1549 71.9805 23.4898 71.9805 23.8246C71.9805 24.1594 71.6456 24.4941 71.3109 24.4941C70.9761 24.4941 70.6414 24.1594 70.6414 23.8246Z" fill="#FF3500"/>
<path d="M70.6414 13.8938C70.6414 13.5032 70.9761 13.2241 71.3109 13.2241C71.6456 13.2241 71.9805 13.559 71.9805 13.8938C71.9805 14.2286 71.6456 14.5633 71.3109 14.5633C70.9761 14.5633 70.6414 14.2286 70.6414 13.8938Z" fill="#FF3500"/>
<path d="M70.6414 3.96265C70.6414 3.57209 70.9761 3.29297 71.3109 3.29297C71.6456 3.29297 71.9805 3.62788 71.9805 3.96265C71.9805 4.29742 71.6456 4.63216 71.3109 4.63216C70.9761 4.63216 70.6414 4.29742 70.6414 3.96265Z" fill="#FF3500"/>
<path d="M61.4357 74.2633C61.0043 74.2633 60.6545 73.9137 60.6545 73.4823C60.6545 73.0509 61.0043 72.701 61.4357 72.701C61.8671 72.701 62.2168 73.0509 62.2168 73.4823C62.2168 73.9137 61.8671 74.2633 61.4357 74.2633Z" fill="#FF3500"/>
<path d="M61.4357 84.2189C61.0043 84.2189 60.6545 83.8692 60.6545 83.4378C60.6545 83.0064 61.0043 82.6566 61.4357 82.6566C61.8671 82.6566 62.2168 83.0064 62.2168 83.4378C62.2168 83.8692 61.8671 84.2189 61.4357 84.2189Z" fill="#FF3500"/>
<path d="M61.4357 93.1767C61.0043 93.1767 60.6545 92.8271 60.6545 92.3957C60.6545 91.9643 61.0043 91.6145 61.4357 91.6145C61.8671 91.6145 62.2168 91.9643 62.2168 92.3957C62.2168 92.8271 61.8671 93.1767 61.4357 93.1767Z" fill="#FF3500"/>
<path d="M61.4357 93.2881C61.0043 93.2881 60.6545 92.9384 60.6545 92.507C60.6545 92.0756 61.0043 91.7258 61.4357 91.7258C61.8671 91.7258 62.2168 92.0756 62.2168 92.507C62.2168 92.9384 61.8671 93.2881 61.4357 93.2881Z" fill="#FF3500"/>
<path d="M61.4357 102.246C61.0043 102.246 60.6545 101.896 60.6545 101.465C60.6545 101.034 61.0043 100.684 61.4357 100.684C61.8671 100.684 62.2168 101.034 62.2168 101.465C62.2168 101.896 61.8671 102.246 61.4357 102.246Z" fill="#FF3500"/>
<path d="M61.4357 64.3314C61.0043 64.3314 60.6545 63.9818 60.6545 63.5504C60.6545 63.119 61.0043 62.7692 61.4357 62.7692C61.8671 62.7692 62.2168 63.119 62.2168 63.5504C62.2168 63.9818 61.8671 64.3314 61.4357 64.3314Z" fill="#FF3500"/>
<path d="M61.4357 74.287C61.0043 74.287 60.6545 73.9373 60.6545 73.5059C60.6545 73.0745 61.0043 72.7247 61.4357 72.7247C61.8671 72.7247 62.2168 73.0745 62.2168 73.5059C62.2168 73.9373 61.8671 74.287 61.4357 74.287Z" fill="#FF3500"/>
<path d="M61.4357 54.4003C61.0043 54.4003 60.6545 54.0506 60.6545 53.6192C60.6545 53.1878 61.0043 52.838 61.4357 52.838C61.8671 52.838 62.2168 53.1878 62.2168 53.6192C62.2168 54.0506 61.8671 54.4003 61.4357 54.4003Z" fill="#FF3500"/>
<path d="M61.4357 44.4684C61.0043 44.4684 60.6545 44.1187 60.6545 43.6873C60.6545 43.2559 61.0043 42.9061 61.4357 42.9061C61.8671 42.9061 62.2168 43.2559 62.2168 43.6873C62.2168 44.1187 61.8671 44.4684 61.4357 44.4684Z" fill="#FF3500"/>
<path d="M61.4357 34.5381C61.0043 34.5381 60.6545 34.1884 60.6545 33.757C60.6545 33.3256 61.0043 32.9758 61.4357 32.9758C61.8671 32.9758 62.2168 33.3256 62.2168 33.757C62.2168 34.1884 61.8671 34.5381 61.4357 34.5381Z" fill="#FF3500"/>
<path d="M61.4357 24.6064C61.0043 24.6064 60.6545 24.2568 60.6545 23.8254C60.6545 23.394 61.0043 23.0442 61.4357 23.0442C61.8671 23.0442 62.2168 23.394 62.2168 23.8254C62.2168 24.2568 61.8671 24.6064 61.4357 24.6064Z" fill="#FF3500"/>
<path d="M61.4357 14.675C61.0043 14.675 60.6545 14.3254 60.6545 13.894C60.6545 13.4626 61.0043 13.1128 61.4357 13.1128C61.8671 13.1128 62.2168 13.4626 62.2168 13.894C62.2168 14.3254 61.8671 14.675 61.4357 14.675Z" fill="#FF3500"/>
<path d="M61.4357 4.7434C61.0043 4.7434 60.6545 4.39377 60.6545 3.96236C60.6545 3.53096 61.0043 3.18115 61.4357 3.18115C61.8671 3.18115 62.2168 3.53096 62.2168 3.96236C62.2168 4.39377 61.8671 4.7434 61.4357 4.7434Z" fill="#FF3500"/>
<path d="M50.613 73.482C50.613 72.9798 51.0036 72.5892 51.5058 72.5892C52.0079 72.5892 52.3984 72.9798 52.3984 73.482C52.3984 73.9841 52.0079 74.3747 51.5058 74.3747C51.0036 74.3747 50.613 73.9841 50.613 73.482Z" fill="#FF3500"/>
<path d="M50.613 83.4375C50.613 82.9354 51.0036 82.5448 51.5058 82.5448C52.0079 82.5448 52.3984 82.9354 52.3984 83.4375C52.3984 83.9397 52.0079 84.3303 51.5058 84.3303C51.0036 84.3303 50.613 83.9397 50.613 83.4375Z" fill="#FF3500"/>
<path d="M50.613 92.3954C50.613 91.8933 51.0036 91.5027 51.5058 91.5027C52.0079 91.5027 52.3984 91.8933 52.3984 92.3954C52.3984 92.8976 52.0079 93.2882 51.5058 93.2882C51.0036 93.2882 50.613 92.8976 50.613 92.3954Z" fill="#FF3500"/>
<path d="M50.613 92.5068C50.613 92.0046 51.0036 91.614 51.5058 91.614C52.0079 91.614 52.3984 92.0046 52.3984 92.5068C52.3984 93.0089 52.0079 93.3995 51.5058 93.3995C51.0036 93.3995 50.613 93.0089 50.613 92.5068Z" fill="#FF3500"/>
<path d="M50.613 101.465C50.613 100.962 51.0036 100.572 51.5058 100.572C52.0079 100.572 52.3984 100.962 52.3984 101.465C52.3984 101.967 52.0079 102.357 51.5058 102.357C51.0036 102.357 50.613 101.967 50.613 101.465Z" fill="#FF3500"/>
<path d="M50.613 63.5506C50.613 63.0484 51.0036 62.6578 51.5058 62.6578C52.0079 62.6578 52.3984 63.0484 52.3984 63.5506C52.3984 64.0527 52.0079 64.4433 51.5058 64.4433C51.0036 64.4433 50.613 64.0527 50.613 63.5506Z" fill="#FF3500"/>
<path d="M50.613 73.5061C50.613 73.004 51.0036 72.6134 51.5058 72.6134C52.0079 72.6134 52.3984 73.004 52.3984 73.5061C52.3984 74.0083 52.0079 74.3989 51.5058 74.3989C51.0036 74.3989 50.613 74.0083 50.613 73.5061Z" fill="#FF3500"/>
<path d="M50.613 53.6189C50.613 53.1168 51.0036 52.7262 51.5058 52.7262C52.0079 52.7262 52.3984 53.1168 52.3984 53.6189C52.3984 54.1211 52.0079 54.5117 51.5058 54.5117C51.0036 54.5117 50.613 54.1211 50.613 53.6189Z" fill="#FF3500"/>
<path d="M50.613 43.687C50.613 43.1849 51.0036 42.7943 51.5058 42.7943C52.0079 42.7943 52.3984 43.1849 52.3984 43.687C52.3984 44.1892 52.0079 44.5798 51.5058 44.5798C51.0036 44.5798 50.613 44.1892 50.613 43.687Z" fill="#FF3500"/>
<path d="M50.613 33.757C50.613 33.2548 51.0036 32.8643 51.5058 32.8643C52.0079 32.8643 52.3984 33.2548 52.3984 33.757C52.3984 34.2591 52.0079 34.6497 51.5058 34.6497C51.0036 34.6497 50.613 34.2591 50.613 33.757Z" fill="#FF3500"/>
<path d="M50.613 23.8251C50.613 23.323 51.0036 22.9324 51.5058 22.9324C52.0079 22.9324 52.3984 23.323 52.3984 23.8251C52.3984 24.3273 52.0079 24.7177 51.5058 24.7177C51.0036 24.7177 50.613 24.3273 50.613 23.8251Z" fill="#FF3500"/>
<path d="M50.613 13.8937C50.613 13.3916 51.0036 13.001 51.5058 13.001C52.0079 13.001 52.3984 13.3916 52.3984 13.8937C52.3984 14.3959 52.0079 14.7863 51.5058 14.7863C51.0036 14.7863 50.613 14.3959 50.613 13.8937Z" fill="#FF3500"/>
<path d="M50.613 3.96207C50.613 3.45992 51.0036 3.06934 51.5058 3.06934C52.0079 3.06934 52.3984 3.45992 52.3984 3.96207C52.3984 4.46423 52.0079 4.85464 51.5058 4.85464C51.0036 4.85464 50.613 4.46423 50.613 3.96207Z" fill="#FF3500"/>
<path d="M40.5688 73.4822C40.5688 72.9242 41.0152 72.5336 41.5173 72.5336C42.0195 72.5336 42.4658 72.98 42.4658 73.4822C42.4658 73.9843 42.0195 74.4306 41.5173 74.4306C41.0152 74.4306 40.5688 73.9843 40.5688 73.4822Z" fill="#FF3500"/>
<path d="M40.5688 83.4377C40.5688 82.8798 41.0152 82.4891 41.5173 82.4891C42.0195 82.4891 42.4658 82.9356 42.4658 83.4377C42.4658 83.9399 42.0195 84.3861 41.5173 84.3861C41.0152 84.3861 40.5688 83.9399 40.5688 83.4377Z" fill="#FF3500"/>
<path d="M40.5688 92.3956C40.5688 91.8377 41.0152 91.447 41.5173 91.447C42.0195 91.447 42.4658 91.8935 42.4658 92.3956C42.4658 92.8978 42.0195 93.344 41.5173 93.344C41.0152 93.344 40.5688 92.8978 40.5688 92.3956Z" fill="#FF3500"/>
<path d="M40.5688 92.5069C40.5688 91.949 41.0152 91.5583 41.5173 91.5583C42.0195 91.5583 42.4658 92.0048 42.4658 92.5069C42.4658 93.0091 42.0195 93.4554 41.5173 93.4554C41.0152 93.4554 40.5688 93.0091 40.5688 92.5069Z" fill="#FF3500"/>
<path d="M40.5688 101.465C40.5688 100.907 41.0152 100.516 41.5173 100.516C42.0195 100.516 42.4658 100.963 42.4658 101.465C42.4658 101.967 42.0195 102.413 41.5173 102.413C41.0152 102.413 40.5688 101.967 40.5688 101.465Z" fill="#FF3500"/>
<path d="M40.5688 63.5505C40.5688 62.9926 41.0152 62.6019 41.5173 62.6019C42.0195 62.6019 42.4658 63.0484 42.4658 63.5505C42.4658 64.0527 42.0195 64.4989 41.5173 64.4989C41.0152 64.4989 40.5688 64.0527 40.5688 63.5505Z" fill="#FF3500"/>
<path d="M40.5688 73.5061C40.5688 72.9481 41.0152 72.5575 41.5173 72.5575C42.0195 72.5575 42.4658 73.0039 42.4658 73.5061C42.4658 74.0082 42.0195 74.4545 41.5173 74.4545C41.0152 74.4545 40.5688 74.0082 40.5688 73.5061Z" fill="#FF3500"/>
<path d="M40.5688 53.6186C40.5688 53.0607 41.0152 52.67 41.5173 52.67C42.0195 52.67 42.4658 53.1165 42.4658 53.6186C42.4658 54.1208 42.0195 54.567 41.5173 54.567C41.0152 54.567 40.5688 54.1208 40.5688 53.6186Z" fill="#FF3500"/>
<path d="M40.5688 43.6883C40.5688 43.1304 41.0152 42.7397 41.5173 42.7397C42.0195 42.7397 42.4658 43.1862 42.4658 43.6883C42.4658 44.1905 42.0195 44.6367 41.5173 44.6367C41.0152 44.6367 40.5688 44.1905 40.5688 43.6883Z" fill="#FF3500"/>
<path d="M40.5688 33.7572C40.5688 33.1992 41.0152 32.8086 41.5173 32.8086C42.0195 32.8086 42.4658 33.255 42.4658 33.7572C42.4658 34.2593 42.0195 34.7056 41.5173 34.7056C41.0152 34.7056 40.5688 34.2593 40.5688 33.7572Z" fill="#FF3500"/>
<path d="M40.5688 23.8253C40.5688 23.2673 41.0152 22.8767 41.5173 22.8767C42.0195 22.8767 42.4658 23.3231 42.4658 23.8253C42.4658 24.3274 42.0195 24.7737 41.5173 24.7737C41.0152 24.7737 40.5688 24.3274 40.5688 23.8253Z" fill="#FF3500"/>
<path d="M40.5688 13.8937C40.5688 13.3357 41.0152 12.9451 41.5173 12.9451C42.0195 12.9451 42.4658 13.3915 42.4658 13.8937C42.4658 14.3958 42.0195 14.8421 41.5173 14.8421C41.0152 14.8421 40.5688 14.3958 40.5688 13.8937Z" fill="#FF3500"/>
<path d="M40.5688 3.96226C40.5688 3.40431 41.0152 3.01367 41.5173 3.01367C42.0195 3.01367 42.4658 3.46011 42.4658 3.96226C42.4658 4.46441 42.0195 4.91067 41.5173 4.91067C41.0152 4.91067 40.5688 4.46441 40.5688 3.96226Z" fill="#FF3500"/>
<path d="M30.5272 73.4819C30.5272 72.8681 31.0294 72.4218 31.5873 72.4218C32.1453 72.4218 32.6475 72.9239 32.6475 73.4819C32.6475 74.0398 32.1453 74.542 31.5873 74.542C31.0294 74.542 30.5272 74.0398 30.5272 73.4819Z" fill="#FF3500"/>
<path d="M30.5272 83.4374C30.5272 82.8237 31.0294 82.3773 31.5873 82.3773C32.1453 82.3773 32.6475 82.8795 32.6475 83.4374C32.6475 83.9954 32.1453 84.4975 31.5873 84.4975C31.0294 84.4975 30.5272 83.9954 30.5272 83.4374Z" fill="#FF3500"/>
<path d="M30.5272 92.3953C30.5272 91.7816 31.0294 91.3352 31.5873 91.3352C32.1453 91.3352 32.6475 91.8374 32.6475 92.3953C32.6475 92.9533 32.1453 93.4554 31.5873 93.4554C31.0294 93.4554 30.5272 92.9533 30.5272 92.3953Z" fill="#FF3500"/>
<path d="M30.5272 92.5066C30.5272 91.8929 31.0294 91.4465 31.5873 91.4465C32.1453 91.4465 32.6475 91.9487 32.6475 92.5066C32.6475 93.0646 32.1453 93.5668 31.5873 93.5668C31.0294 93.5668 30.5272 93.0646 30.5272 92.5066Z" fill="#FF3500"/>
<path d="M30.5272 101.465C30.5272 100.851 31.0294 100.404 31.5873 100.404C32.1453 100.404 32.6475 100.907 32.6475 101.465C32.6475 102.022 32.1453 102.525 31.5873 102.525C31.0294 102.525 30.5272 102.022 30.5272 101.465Z" fill="#FF3500"/>
<path d="M30.5272 63.5502C30.5272 62.9365 31.0294 62.4901 31.5873 62.4901C32.1453 62.4901 32.6475 62.9923 32.6475 63.5502C32.6475 64.1082 32.1453 64.6103 31.5873 64.6103C31.0294 64.6103 30.5272 64.1082 30.5272 63.5502Z" fill="#FF3500"/>
<path d="M30.5272 73.5058C30.5272 72.8921 31.0294 72.4457 31.5873 72.4457C32.1453 72.4457 32.6475 72.9478 32.6475 73.5058C32.6475 74.0637 32.1453 74.5659 31.5873 74.5659C31.0294 74.5659 30.5272 74.0637 30.5272 73.5058Z" fill="#FF3500"/>
<path d="M30.5272 53.6188C30.5272 53.0051 31.0294 52.5587 31.5873 52.5587C32.1453 52.5587 32.6475 53.0609 32.6475 53.6188C32.6475 54.1768 32.1453 54.6789 31.5873 54.6789C31.0294 54.6789 30.5272 54.1768 30.5272 53.6188Z" fill="#FF3500"/>
<path d="M30.5272 43.688C30.5272 43.0743 31.0294 42.6279 31.5873 42.6279C32.1453 42.6279 32.6475 43.1301 32.6475 43.688C32.6475 44.246 32.1453 44.7482 31.5873 44.7482C31.0294 44.7482 30.5272 44.246 30.5272 43.688Z" fill="#FF3500"/>
<path d="M30.5272 33.7569C30.5272 33.1431 31.0294 32.6968 31.5873 32.6968C32.1453 32.6968 32.6475 33.1989 32.6475 33.7569C32.6475 34.3148 32.1453 34.817 31.5873 34.817C31.0294 34.817 30.5272 34.3148 30.5272 33.7569Z" fill="#FF3500"/>
<path d="M30.5272 23.825C30.5272 23.2113 31.0294 22.7649 31.5873 22.7649C32.1453 22.7649 32.6475 23.2671 32.6475 23.825C32.6475 24.383 32.1453 24.8851 31.5873 24.8851C31.0294 24.8851 30.5272 24.383 30.5272 23.825Z" fill="#FF3500"/>
<path d="M30.5272 13.8934C30.5272 13.2796 31.0294 12.8333 31.5873 12.8333C32.1453 12.8333 32.6475 13.3354 32.6475 13.8934C32.6475 14.4513 32.1453 14.9533 31.5873 14.9533C31.0294 14.9533 30.5272 14.4513 30.5272 13.8934Z" fill="#FF3500"/>
<path d="M30.5272 3.96197C30.5272 3.34823 31.0294 2.90186 31.5873 2.90186C32.1453 2.90186 32.6475 3.40402 32.6475 3.96197C32.6475 4.51992 32.1453 5.02191 31.5873 5.02191C31.0294 5.02191 30.5272 4.51992 30.5272 3.96197Z" fill="#FF3500"/>
<path d="M20.4828 73.4816C20.4828 72.8678 20.985 72.3099 21.6545 72.3099C22.3241 72.3099 22.8262 72.812 22.8262 73.4816C22.8262 74.1511 22.3241 74.6532 21.6545 74.6532C20.985 74.6532 20.4828 74.1511 20.4828 73.4816Z" fill="#FF3500"/>
<path d="M20.4828 83.4371C20.4828 82.8234 20.985 82.2655 21.6545 82.2655C22.3241 82.2655 22.8262 82.7676 22.8262 83.4371C22.8262 84.1067 22.3241 84.6088 21.6545 84.6088C20.985 84.6088 20.4828 84.1067 20.4828 83.4371Z" fill="#FF3500"/>
<path d="M20.4828 92.395C20.4828 91.7813 20.985 91.2234 21.6545 91.2234C22.3241 91.2234 22.8262 91.7255 22.8262 92.395C22.8262 93.0646 22.3241 93.5667 21.6545 93.5667C20.985 93.5667 20.4828 93.0646 20.4828 92.395Z" fill="#FF3500"/>
<path d="M20.4828 92.5064C20.4828 91.8926 20.985 91.3347 21.6545 91.3347C22.3241 91.3347 22.8262 91.8368 22.8262 92.5064C22.8262 93.1759 22.3241 93.678 21.6545 93.678C20.985 93.678 20.4828 93.1759 20.4828 92.5064Z" fill="#FF3500"/>
<path d="M20.4828 101.464C20.4828 100.851 20.985 100.293 21.6545 100.293C22.3241 100.293 22.8262 100.795 22.8262 101.464C22.8262 102.134 22.3241 102.636 21.6545 102.636C20.985 102.636 20.4828 102.134 20.4828 101.464Z" fill="#FF3500"/>
<path d="M20.4828 63.5501C20.4828 62.9364 20.985 62.3783 21.6545 62.3783C22.3241 62.3783 22.8262 62.8806 22.8262 63.5501C22.8262 64.2196 22.3241 64.7218 21.6545 64.7218C20.985 64.7218 20.4828 64.2196 20.4828 63.5501Z" fill="#FF3500"/>
<path d="M20.4828 73.5057C20.4828 72.8919 20.985 72.3339 21.6545 72.3339C22.3241 72.3339 22.8262 72.8361 22.8262 73.5057C22.8262 74.1752 22.3241 74.6773 21.6545 74.6773C20.985 74.6773 20.4828 74.1752 20.4828 73.5057Z" fill="#FF3500"/>
<path d="M20.4828 53.6187C20.4828 53.005 20.985 52.4469 21.6545 52.4469C22.3241 52.4469 22.8262 52.9492 22.8262 53.6187C22.8262 54.2883 22.3241 54.7904 21.6545 54.7904C20.985 54.7904 20.4828 54.2883 20.4828 53.6187Z" fill="#FF3500"/>
<path d="M20.4828 43.6887C20.4828 43.0749 20.985 42.5168 21.6545 42.5168C22.3241 42.5168 22.8262 43.0191 22.8262 43.6887C22.8262 44.3582 22.3241 44.8603 21.6545 44.8603C20.985 44.8603 20.4828 44.3582 20.4828 43.6887Z" fill="#FF3500"/>
<path d="M20.4828 33.7568C20.4828 33.143 20.985 32.585 21.6545 32.585C22.3241 32.585 22.8262 33.0872 22.8262 33.7568C22.8262 34.4263 22.3241 34.9284 21.6545 34.9284C20.985 34.9284 20.4828 34.4263 20.4828 33.7568Z" fill="#FF3500"/>
<path d="M20.4828 23.8249C20.4828 23.2111 20.985 22.6531 21.6545 22.6531C22.3241 22.6531 22.8262 23.1554 22.8262 23.8249C22.8262 24.4944 22.3241 24.9965 21.6545 24.9965C20.985 24.9965 20.4828 24.4944 20.4828 23.8249Z" fill="#FF3500"/>
<path d="M20.4828 13.8937C20.4828 13.28 20.985 12.7219 21.6545 12.7219C22.3241 12.7219 22.8262 13.2242 22.8262 13.8937C22.8262 14.5633 22.3241 15.0654 21.6545 15.0654C20.985 15.0654 20.4828 14.5633 20.4828 13.8937Z" fill="#FF3500"/>
<path d="M20.4828 3.96185C20.4828 3.34811 20.985 2.79004 21.6545 2.79004C22.3241 2.79004 22.8262 3.29231 22.8262 3.96185C22.8262 4.63139 22.3241 5.1335 21.6545 5.1335C20.985 5.1335 20.4828 4.63139 20.4828 3.96185Z" fill="#FF3500"/>
<path d="M10.4413 73.4817C10.4413 72.7564 10.9992 72.1984 11.7246 72.1984C12.4499 72.1984 13.0078 72.7564 13.0078 73.4817C13.0078 74.207 12.4499 74.7649 11.7246 74.7649C10.9992 74.7649 10.4413 74.207 10.4413 73.4817Z" fill="#FF3500"/>
<path d="M10.4413 83.4373C10.4413 82.7119 10.9992 82.1539 11.7246 82.1539C12.4499 82.1539 13.0078 82.7119 13.0078 83.4373C13.0078 84.1626 12.4499 84.7204 11.7246 84.7204C10.9992 84.7204 10.4413 84.1626 10.4413 83.4373Z" fill="#FF3500"/>
<path d="M10.4413 92.3952C10.4413 91.6698 10.9992 91.1118 11.7246 91.1118C12.4499 91.1118 13.0078 91.6698 13.0078 92.3952C13.0078 93.1205 12.4499 93.6783 11.7246 93.6783C10.9992 93.6783 10.4413 93.1205 10.4413 92.3952Z" fill="#FF3500"/>
<path d="M10.4413 92.5065C10.4413 91.7812 10.9992 91.2231 11.7246 91.2231C12.4499 91.2231 13.0078 91.7812 13.0078 92.5065C13.0078 93.2318 12.4499 93.7897 11.7246 93.7897C10.9992 93.7897 10.4413 93.2318 10.4413 92.5065Z" fill="#FF3500"/>
<path d="M10.4413 101.464C10.4413 100.739 10.9992 100.181 11.7246 100.181C12.4499 100.181 13.0078 100.739 13.0078 101.464C13.0078 102.19 12.4499 102.748 11.7246 102.748C10.9992 102.748 10.4413 102.19 10.4413 101.464Z" fill="#FF3500"/>
<path d="M10.4413 63.5514C10.4413 62.8261 10.9992 62.2681 11.7246 62.2681C12.4499 62.2681 13.0078 62.8261 13.0078 63.5514C13.0078 64.2767 12.4499 64.8346 11.7246 64.8346C10.9992 64.8346 10.4413 64.2767 10.4413 63.5514Z" fill="#FF3500"/>
<path d="M10.4413 73.507C10.4413 72.7816 10.9992 72.2236 11.7246 72.2236C12.4499 72.2236 13.0078 72.7816 13.0078 73.507C13.0078 74.2323 12.4499 74.7901 11.7246 74.7901C10.9992 74.7901 10.4413 74.2323 10.4413 73.507Z" fill="#FF3500"/>
<path d="M10.4413 53.6195C10.4413 52.8942 10.9992 52.3362 11.7246 52.3362C12.4499 52.3362 13.0078 52.8942 13.0078 53.6195C13.0078 54.3449 12.4499 54.9027 11.7246 54.9027C10.9992 54.9027 10.4413 54.3449 10.4413 53.6195Z" fill="#FF3500"/>
<path d="M10.4413 43.6884C10.4413 42.963 10.9992 42.405 11.7246 42.405C12.4499 42.405 13.0078 42.963 13.0078 43.6884C13.0078 44.4137 12.4499 44.9715 11.7246 44.9715C10.9992 44.9715 10.4413 44.4137 10.4413 43.6884Z" fill="#FF3500"/>
<path d="M10.4413 33.7565C10.4413 33.0312 10.9992 32.4731 11.7246 32.4731C12.4499 32.4731 13.0078 33.0312 13.0078 33.7565C13.0078 34.4818 12.4499 35.0397 11.7246 35.0397C10.9992 35.0397 10.4413 34.4818 10.4413 33.7565Z" fill="#FF3500"/>
<path d="M10.4413 23.8248C10.4413 23.0995 10.9992 22.5415 11.7246 22.5415C12.4499 22.5415 13.0078 23.0995 13.0078 23.8248C13.0078 24.5502 12.4499 25.108 11.7246 25.108C10.9992 25.108 10.4413 24.5502 10.4413 23.8248Z" fill="#FF3500"/>
<path d="M10.4413 13.8934C10.4413 13.1681 10.9992 12.6101 11.7246 12.6101C12.4499 12.6101 13.0078 13.1681 13.0078 13.8934C13.0078 14.6188 12.4499 15.1766 11.7246 15.1766C10.9992 15.1766 10.4413 14.6188 10.4413 13.8934Z" fill="#FF3500"/>
<path d="M10.4413 3.96156C10.4413 3.23623 10.9992 2.67822 11.7246 2.67822C12.4499 2.67822 13.0078 3.23623 13.0078 3.96156C13.0078 4.6869 12.4499 5.24474 11.7246 5.24474C10.9992 5.24474 10.4413 4.6869 10.4413 3.96156Z" fill="#FF3500"/>
<path d="M0.395807 73.4814C0.395807 72.7003 1.00955 72.0865 1.79068 72.0865C2.5718 72.0865 3.18555 72.7003 3.18555 73.4814C3.18555 74.2625 2.5718 74.8763 1.79068 74.8763C1.00955 74.8763 0.395807 74.2625 0.395807 73.4814Z" fill="#FF3500"/>
<path d="M0.395807 83.437C0.395807 82.6559 1.00955 82.0421 1.79068 82.0421C2.5718 82.0421 3.18555 82.6559 3.18555 83.437C3.18555 84.2181 2.5718 84.8319 1.79068 84.8319C1.00955 84.8319 0.395807 84.2181 0.395807 83.437Z" fill="#FF3500"/>
<path d="M0.395807 92.3949C0.395807 91.6137 1.00955 91 1.79068 91C2.5718 91 3.18555 91.6137 3.18555 92.3949C3.18555 93.176 2.5718 93.7897 1.79068 93.7897C1.00955 93.7897 0.395807 93.176 0.395807 92.3949Z" fill="#FF3500"/>
<path d="M0.395807 92.5062C0.395807 91.7251 1.00955 91.1113 1.79068 91.1113C2.5718 91.1113 3.18555 91.7251 3.18555 92.5062C3.18555 93.2873 2.5718 93.9011 1.79068 93.9011C1.00955 93.9011 0.395807 93.2873 0.395807 92.5062Z" fill="#FF3500"/>
<path d="M0.395807 101.464C0.395807 100.683 1.00955 100.069 1.79068 100.069C2.5718 100.069 3.18555 100.683 3.18555 101.464C3.18555 102.245 2.5718 102.859 1.79068 102.859C1.00955 102.859 0.395807 102.245 0.395807 101.464Z" fill="#FF3500"/>
<path d="M0.395807 63.5511C0.395807 62.77 1.00955 62.1562 1.79068 62.1562C2.5718 62.1562 3.18555 62.77 3.18555 63.5511C3.18555 64.3322 2.5718 64.946 1.79068 64.946C1.00955 64.946 0.395807 64.3322 0.395807 63.5511Z" fill="#FF3500"/>
<path d="M0.395807 73.5067C0.395807 72.7256 1.00955 72.1118 1.79068 72.1118C2.5718 72.1118 3.18555 72.7256 3.18555 73.5067C3.18555 74.2878 2.5718 74.9016 1.79068 74.9016C1.00955 74.9016 0.395807 74.2878 0.395807 73.5067Z" fill="#FF3500"/>
<path d="M0.395807 53.6201C0.395807 52.839 1.00955 52.2252 1.79068 52.2252C2.5718 52.2252 3.18555 52.839 3.18555 53.6201C3.18555 54.4012 2.5718 55.015 1.79068 55.015C1.00955 55.015 0.395807 54.4012 0.395807 53.6201Z" fill="#FF3500"/>
<path d="M0.395807 43.6881C0.395807 42.907 1.00955 42.2932 1.79068 42.2932C2.5718 42.2932 3.18555 42.907 3.18555 43.6881C3.18555 44.4692 2.5718 45.083 1.79068 45.083C1.00955 45.083 0.395807 44.4692 0.395807 43.6881Z" fill="#FF3500"/>
<path d="M0.395807 33.7562C0.395807 32.9751 1.00955 32.3613 1.79068 32.3613C2.5718 32.3613 3.18555 32.9751 3.18555 33.7562C3.18555 34.5373 2.5718 35.1511 1.79068 35.1511C1.00955 35.1511 0.395807 34.5373 0.395807 33.7562Z" fill="#FF3500"/>
<path d="M0.395807 23.825C0.395807 23.0439 1.00955 22.4302 1.79068 22.4302C2.5718 22.4302 3.18555 23.0439 3.18555 23.825C3.18555 24.6062 2.5718 25.2199 1.79068 25.2199C1.00955 25.2199 0.395807 24.6062 0.395807 23.825Z" fill="#FF3500"/>
<path d="M0.395807 13.8932C0.395807 13.112 1.00955 12.4983 1.79068 12.4983C2.5718 12.4983 3.18555 13.112 3.18555 13.8932C3.18555 14.6743 2.5718 15.288 1.79068 15.288C1.00955 15.288 0.395807 14.6743 0.395807 13.8932Z" fill="#FF3500"/>
<path d="M0.395807 3.96152C0.395807 3.18039 1.00955 2.56665 1.79068 2.56665C2.5718 2.56665 3.18555 3.18039 3.18555 3.96152C3.18555 4.74265 2.5718 5.35639 1.79068 5.35639C1.00955 5.35639 0.395807 4.74265 0.395807 3.96152Z" fill="#FF3500"/>
</g>
<defs>
<clipPath id="clip0_499_52911">
<rect width="141" height="104" fill="white" transform="matrix(-1 0 0 1 141 0)"/>
</clipPath>
</defs>
</svg>
