<svg width="141" height="66" viewBox="0 0 141 66" fill="none" xmlns="http://www.w3.org/2000/svg">
<g clip-path="url(#clip0_499_53177)">
<path d="M140.777 54.4818C140.777 54.4818 140.833 54.3701 140.888 54.3701C140.944 54.3701 141 54.426 141 54.4818C141 54.5376 140.944 54.5933 140.888 54.5933C140.833 54.5933 140.777 54.5376 140.777 54.4818Z" fill="#FF3500"/>
<path d="M140.777 64.4374C140.777 64.4374 140.833 64.3257 140.888 64.3257C140.944 64.3257 141 64.3816 141 64.4374C141 64.4932 140.944 64.5489 140.888 64.5489C140.833 64.5489 140.777 64.4932 140.777 64.4374Z" fill="#FF3500"/>
<path d="M140.777 44.5509C140.777 44.5509 140.833 44.4392 140.888 44.4392C140.944 44.4392 141 44.4951 141 44.5509C141 44.6067 140.944 44.6624 140.888 44.6624C140.833 44.6624 140.777 44.6067 140.777 44.5509Z" fill="#FF3500"/>
<path d="M140.777 54.5065C140.777 54.5065 140.833 54.3948 140.888 54.3948C140.944 54.3948 141 54.4507 141 54.5065C141 54.5623 140.944 54.618 140.888 54.618C140.833 54.618 140.777 54.5623 140.777 54.5065Z" fill="#FF3500"/>
<path d="M140.777 34.6199C140.777 34.6199 140.833 34.5082 140.888 34.5082C140.944 34.5082 141 34.5641 141 34.6199C141 34.6757 140.944 34.7314 140.888 34.7314C140.833 34.7314 140.777 34.6757 140.777 34.6199Z" fill="#FF3500"/>
<path d="M140.777 24.688C140.777 24.688 140.833 24.5763 140.888 24.5763C140.944 24.5763 141 24.6322 141 24.688C141 24.7438 140.944 24.7995 140.888 24.7995C140.833 24.7995 140.777 24.7438 140.777 24.688Z" fill="#FF3500"/>
<path d="M140.777 14.7564C140.777 14.7564 140.833 14.6447 140.888 14.6447C140.944 14.6447 141 14.7006 141 14.7564C141 14.8121 140.944 14.8679 140.888 14.8679C140.833 14.8679 140.777 14.8121 140.777 14.7564Z" fill="#FF3500"/>
<path d="M140.777 4.82496C140.777 4.82496 140.833 4.71326 140.888 4.71326C140.944 4.71326 141 4.76916 141 4.82496C141 4.88075 140.944 4.93648 140.888 4.93648C140.833 4.93648 140.777 4.88075 140.777 4.82496Z" fill="#FF3500"/>
<path d="M130.79 54.4829C130.79 54.4829 130.902 54.3156 130.958 54.3156C131.013 54.3156 131.125 54.4271 131.125 54.4829C131.125 54.5387 131.013 54.6503 130.958 54.6503C130.902 54.6503 130.79 54.5387 130.79 54.4829Z" fill="#FF3500"/>
<path d="M130.79 64.4385C130.79 64.4385 130.902 64.2711 130.958 64.2711C131.013 64.2711 131.125 64.3827 131.125 64.4385C131.125 64.4943 131.013 64.6059 130.958 64.6059C130.902 64.6059 130.79 64.4943 130.79 64.4385Z" fill="#FF3500"/>
<path d="M130.79 44.551C130.79 44.551 130.902 44.3837 130.958 44.3837C131.013 44.3837 131.125 44.4952 131.125 44.551C131.125 44.6068 131.013 44.7184 130.958 44.7184C130.902 44.7184 130.79 44.6068 130.79 44.551Z" fill="#FF3500"/>
<path d="M130.79 54.5066C130.79 54.5066 130.902 54.3392 130.958 54.3392C131.013 54.3392 131.125 54.4508 131.125 54.5066C131.125 54.5624 131.013 54.674 130.958 54.674C130.902 54.674 130.79 54.5624 130.79 54.5066Z" fill="#FF3500"/>
<path d="M130.79 34.6194C130.79 34.6194 130.902 34.452 130.958 34.452C131.013 34.452 131.125 34.5636 131.125 34.6194C131.125 34.6752 131.013 34.7868 130.958 34.7868C130.902 34.7868 130.79 34.6752 130.79 34.6194Z" fill="#FF3500"/>
<path d="M130.79 24.688C130.79 24.688 130.902 24.5206 130.958 24.5206C131.013 24.5206 131.125 24.6322 131.125 24.688C131.125 24.7438 131.013 24.8554 130.958 24.8554C130.902 24.8554 130.79 24.7438 130.79 24.688Z" fill="#FF3500"/>
<path d="M130.79 14.7564C130.79 14.7564 130.902 14.589 130.958 14.589C131.013 14.589 131.125 14.7006 131.125 14.7564C131.125 14.8122 131.013 14.9237 130.958 14.9237C130.902 14.9237 130.79 14.8122 130.79 14.7564Z" fill="#FF3500"/>
<path d="M130.79 4.82436C130.79 4.82436 130.902 4.65698 130.958 4.65698C131.013 4.65698 131.125 4.76857 131.125 4.82436C131.125 4.88015 131.013 4.99174 130.958 4.99174C130.902 4.99174 130.79 4.88015 130.79 4.82436Z" fill="#FF3500"/>
<path d="M120.749 54.4828C120.749 54.4828 120.86 54.2037 121.028 54.2037C121.195 54.2037 121.307 54.3154 121.307 54.4828C121.307 54.6502 121.195 54.7617 121.028 54.7617C120.86 54.7617 120.749 54.6502 120.749 54.4828Z" fill="#FF3500"/>
<path d="M120.749 64.4384C120.749 64.4384 120.86 64.1593 121.028 64.1593C121.195 64.1593 121.307 64.271 121.307 64.4384C121.307 64.6058 121.195 64.7173 121.028 64.7173C120.86 64.7173 120.749 64.6058 120.749 64.4384Z" fill="#FF3500"/>
<path d="M120.749 44.5512C120.749 44.5512 120.86 44.2721 121.028 44.2721C121.195 44.2721 121.307 44.3838 121.307 44.5512C121.307 44.7186 121.195 44.8301 121.028 44.8301C120.86 44.8301 120.749 44.7186 120.749 44.5512Z" fill="#FF3500"/>
<path d="M120.749 54.5067C120.749 54.5067 120.86 54.2277 121.028 54.2277C121.195 54.2277 121.307 54.3394 121.307 54.5067C121.307 54.6741 121.195 54.7856 121.028 54.7856C120.86 54.7856 120.749 54.6741 120.749 54.5067Z" fill="#FF3500"/>
<path d="M120.749 34.6198C120.749 34.6198 120.86 34.3407 121.028 34.3407C121.195 34.3407 121.307 34.4524 121.307 34.6198C121.307 34.7872 121.195 34.8987 121.028 34.8987C120.86 34.8987 120.749 34.7872 120.749 34.6198Z" fill="#FF3500"/>
<path d="M120.749 24.6879C120.749 24.6879 120.86 24.4088 121.028 24.4088C121.195 24.4088 121.307 24.5205 121.307 24.6879C121.307 24.8553 121.195 24.9668 121.028 24.9668C120.86 24.9668 120.749 24.8553 120.749 24.6879Z" fill="#FF3500"/>
<path d="M120.749 14.7562C120.749 14.7562 120.86 14.4772 121.028 14.4772C121.195 14.4772 121.307 14.5889 121.307 14.7562C121.307 14.9236 121.195 15.0352 121.028 15.0352C120.86 15.0352 120.749 14.9236 120.749 14.7562Z" fill="#FF3500"/>
<path d="M120.749 4.82424C120.749 4.82424 120.86 4.54517 121.028 4.54517C121.195 4.54517 121.307 4.65686 121.307 4.82424C121.307 4.99163 121.195 5.10315 121.028 5.10315C120.86 5.10315 120.749 4.99163 120.749 4.82424Z" fill="#FF3500"/>
<path d="M110.76 54.4823C110.76 54.4823 110.928 54.1476 111.095 54.1476C111.262 54.1476 111.43 54.315 111.43 54.4823C111.43 54.6497 111.262 54.8171 111.095 54.8171C110.928 54.8171 110.76 54.6497 110.76 54.4823Z" fill="#FF3500"/>
<path d="M110.76 64.4379C110.76 64.4379 110.928 64.1031 111.095 64.1031C111.262 64.1031 111.43 64.2705 111.43 64.4379C111.43 64.6053 111.262 64.7727 111.095 64.7727C110.928 64.7727 110.76 64.6053 110.76 64.4379Z" fill="#FF3500"/>
<path d="M110.76 44.5512C110.76 44.5512 110.928 44.2164 111.095 44.2164C111.262 44.2164 111.43 44.3838 111.43 44.5512C111.43 44.7186 111.262 44.8859 111.095 44.8859C110.928 44.8859 110.76 44.7186 110.76 44.5512Z" fill="#FF3500"/>
<path d="M110.76 54.5068C110.76 54.5068 110.928 54.172 111.095 54.172C111.262 54.172 111.43 54.3394 111.43 54.5068C111.43 54.6741 111.262 54.8415 111.095 54.8415C110.928 54.8415 110.76 54.6741 110.76 54.5068Z" fill="#FF3500"/>
<path d="M110.76 34.6193C110.76 34.6193 110.928 34.2845 111.095 34.2845C111.262 34.2845 111.43 34.4519 111.43 34.6193C111.43 34.7867 111.262 34.9541 111.095 34.9541C110.928 34.9541 110.76 34.7867 110.76 34.6193Z" fill="#FF3500"/>
<path d="M110.76 24.6873C110.76 24.6873 110.928 24.3525 111.095 24.3525C111.262 24.3525 111.43 24.5199 111.43 24.6873C111.43 24.8547 111.262 25.022 111.095 25.022C110.928 25.022 110.76 24.8547 110.76 24.6873Z" fill="#FF3500"/>
<path d="M110.76 14.7563C110.76 14.7563 110.928 14.4215 111.095 14.4215C111.262 14.4215 111.43 14.5889 111.43 14.7563C111.43 14.9236 111.262 15.091 111.095 15.091C110.928 15.091 110.76 14.9236 110.76 14.7563Z" fill="#FF3500"/>
<path d="M110.76 4.82426C110.76 4.82426 110.928 4.4895 111.095 4.4895C111.262 4.4895 111.43 4.65687 111.43 4.82426C111.43 4.99164 111.262 5.15901 111.095 5.15901C110.928 5.15901 110.76 4.99164 110.76 4.82426Z" fill="#FF3500"/>
<path d="M100.716 54.4827C100.716 54.4827 100.939 54.0363 101.162 54.0363C101.385 54.0363 101.608 54.2595 101.608 54.4827C101.608 54.7059 101.385 54.929 101.162 54.929C100.939 54.929 100.716 54.7059 100.716 54.4827Z" fill="#FF3500"/>
<path d="M100.716 64.4383C100.716 64.4383 100.939 63.9918 101.162 63.9918C101.385 63.9918 101.608 64.2151 101.608 64.4383C101.608 64.6615 101.385 64.8846 101.162 64.8846C100.939 64.8846 100.716 64.6615 100.716 64.4383Z" fill="#FF3500"/>
<path d="M100.716 44.5511C100.716 44.5511 100.939 44.1046 101.162 44.1046C101.385 44.1046 101.608 44.3279 101.608 44.5511C101.608 44.7742 101.385 44.9974 101.162 44.9974C100.939 44.9974 100.716 44.7742 100.716 44.5511Z" fill="#FF3500"/>
<path d="M100.716 54.5066C100.716 54.5066 100.939 54.0602 101.162 54.0602C101.385 54.0602 101.608 54.2835 101.608 54.5066C101.608 54.7298 101.385 54.9529 101.162 54.9529C100.939 54.9529 100.716 54.7298 100.716 54.5066Z" fill="#FF3500"/>
<path d="M100.716 34.6192C100.716 34.6192 100.939 34.1727 101.162 34.1727C101.385 34.1727 101.608 34.396 101.608 34.6192C101.608 34.8424 101.385 35.0655 101.162 35.0655C100.939 35.0655 100.716 34.8424 100.716 34.6192Z" fill="#FF3500"/>
<path d="M100.716 24.688C100.716 24.688 100.939 24.2416 101.162 24.2416C101.385 24.2416 101.608 24.4649 101.608 24.688C101.608 24.9112 101.385 25.1343 101.162 25.1343C100.939 25.1343 100.716 24.9112 100.716 24.688Z" fill="#FF3500"/>
<path d="M100.716 14.7561C100.716 14.7561 100.939 14.3097 101.162 14.3097C101.385 14.3097 101.608 14.533 101.608 14.7561C101.608 14.9793 101.385 15.2024 101.162 15.2024C100.939 15.2024 100.716 14.9793 100.716 14.7561Z" fill="#FF3500"/>
<path d="M100.716 4.82414C100.716 4.82414 100.939 4.37769 101.162 4.37769C101.385 4.37769 101.608 4.60096 101.608 4.82414C101.608 5.04732 101.385 5.27042 101.162 5.27042C100.939 5.27042 100.716 5.04732 100.716 4.82414Z" fill="#FF3500"/>
<path d="M90.7291 54.4822C90.7291 54.2033 90.9523 53.9801 91.2313 53.9801C91.5102 53.9801 91.7334 54.2033 91.7334 54.4822C91.7334 54.7612 91.5102 54.9844 91.2313 54.9844C90.9523 54.9844 90.7291 54.7612 90.7291 54.4822Z" fill="#FF3500"/>
<path d="M90.7291 64.4378C90.7291 64.1588 90.9523 63.9357 91.2313 63.9357C91.5102 63.9357 91.7334 64.1588 91.7334 64.4378C91.7334 64.7168 91.5102 64.9399 91.2313 64.9399C90.9523 64.9399 90.7291 64.7168 90.7291 64.4378Z" fill="#FF3500"/>
<path d="M90.7291 44.5511C90.7291 44.2721 90.9523 44.049 91.2313 44.049C91.5102 44.049 91.7334 44.2721 91.7334 44.5511C91.7334 44.8301 91.5102 45.0532 91.2313 45.0532C90.9523 45.0532 90.7291 44.8301 90.7291 44.5511Z" fill="#FF3500"/>
<path d="M90.7291 54.5066C90.7291 54.2277 90.9523 54.0045 91.2313 54.0045C91.5102 54.0045 91.7334 54.2277 91.7334 54.5066C91.7334 54.7856 91.5102 55.0088 91.2313 55.0088C90.9523 55.0088 90.7291 54.7856 90.7291 54.5066Z" fill="#FF3500"/>
<path d="M90.7291 34.6192C90.7291 34.3402 90.9523 34.1171 91.2313 34.1171C91.5102 34.1171 91.7334 34.3402 91.7334 34.6192C91.7334 34.8982 91.5102 35.1213 91.2313 35.1213C90.9523 35.1213 90.7291 34.8982 90.7291 34.6192Z" fill="#FF3500"/>
<path d="M90.7291 24.6876C90.7291 24.4086 90.9523 24.1854 91.2313 24.1854C91.5102 24.1854 91.7334 24.4086 91.7334 24.6876C91.7334 24.9665 91.5102 25.1897 91.2313 25.1897C90.9523 25.1897 90.7291 24.9665 90.7291 24.6876Z" fill="#FF3500"/>
<path d="M90.7291 14.7556C90.7291 14.4766 90.9523 14.2534 91.2313 14.2534C91.5102 14.2534 91.7334 14.4766 91.7334 14.7556C91.7334 15.0345 91.5102 15.2577 91.2313 15.2577C90.9523 15.2577 90.7291 15.0345 90.7291 14.7556Z" fill="#FF3500"/>
<path d="M90.7291 4.82469C90.7291 4.54572 90.9523 4.32239 91.2313 4.32239C91.5102 4.32239 91.7334 4.54572 91.7334 4.82469C91.7334 5.10366 91.5102 5.32682 91.2313 5.32682C90.9523 5.32682 90.7291 5.10366 90.7291 4.82469Z" fill="#FF3500"/>
<path d="M80.6875 54.4824C80.6875 54.1476 80.9665 53.8685 81.3013 53.8685C81.6361 53.8685 81.915 54.1476 81.915 54.4824C81.915 54.8171 81.6361 55.096 81.3013 55.096C80.9665 55.096 80.6875 54.8171 80.6875 54.4824Z" fill="#FF3500"/>
<path d="M80.6875 64.4379C80.6875 64.1032 80.9665 63.8241 81.3013 63.8241C81.6361 63.8241 81.915 64.1032 81.915 64.4379C81.915 64.7727 81.6361 65.0516 81.3013 65.0516C80.9665 65.0516 80.6875 64.7727 80.6875 64.4379Z" fill="#FF3500"/>
<path d="M80.6875 44.551C80.6875 44.2162 80.9665 43.9371 81.3013 43.9371C81.6361 43.9371 81.915 44.2162 81.915 44.551C81.915 44.8857 81.6361 45.1646 81.3013 45.1646C80.9665 45.1646 80.6875 44.8857 80.6875 44.551Z" fill="#FF3500"/>
<path d="M80.6875 54.5065C80.6875 54.1718 80.9665 53.8927 81.3013 53.8927C81.6361 53.8927 81.915 54.1718 81.915 54.5065C81.915 54.8413 81.6361 55.1202 81.3013 55.1202C80.9665 55.1202 80.6875 54.8413 80.6875 54.5065Z" fill="#FF3500"/>
<path d="M80.6875 34.6191C80.6875 34.2843 80.9665 34.0052 81.3013 34.0052C81.6361 34.0052 81.915 34.2843 81.915 34.6191C81.915 34.9538 81.6361 35.2327 81.3013 35.2327C80.9665 35.2327 80.6875 34.9538 80.6875 34.6191Z" fill="#FF3500"/>
<path d="M80.6875 24.6874C80.6875 24.3527 80.9665 24.0736 81.3013 24.0736C81.6361 24.0736 81.915 24.3527 81.915 24.6874C81.915 25.0222 81.6361 25.3011 81.3013 25.3011C80.9665 25.3011 80.6875 25.0222 80.6875 24.6874Z" fill="#FF3500"/>
<path d="M80.6875 14.756C80.6875 14.4213 80.9665 14.1422 81.3013 14.1422C81.6361 14.1422 81.915 14.4213 81.915 14.756C81.915 15.0908 81.6361 15.3697 81.3013 15.3697C80.9665 15.3697 80.6875 15.0908 80.6875 14.756Z" fill="#FF3500"/>
<path d="M80.6875 4.8255C80.6875 4.49073 80.9665 4.21167 81.3013 4.21167C81.6361 4.21167 81.915 4.49073 81.915 4.8255C81.915 5.16027 81.6361 5.43916 81.3013 5.43916C80.9665 5.43916 80.6875 5.16027 80.6875 4.8255Z" fill="#FF3500"/>
<path d="M70.6414 54.4824C70.6414 54.0918 70.9761 53.8129 71.3109 53.8129C71.6456 53.8129 71.9805 54.1476 71.9805 54.4824C71.9805 54.8171 71.6456 55.1519 71.3109 55.1519C70.9761 55.1519 70.6414 54.8171 70.6414 54.4824Z" fill="#FF3500"/>
<path d="M70.6414 64.4379C70.6414 64.0474 70.9761 63.7684 71.3109 63.7684C71.6456 63.7684 71.9805 64.1032 71.9805 64.4379C71.9805 64.7727 71.6456 65.1075 71.3109 65.1075C70.9761 65.1075 70.6414 64.7727 70.6414 64.4379Z" fill="#FF3500"/>
<path d="M70.6414 44.5505C70.6414 44.1599 70.9761 43.881 71.3109 43.881C71.6456 43.881 71.9805 44.2157 71.9805 44.5505C71.9805 44.8853 71.6456 45.22 71.3109 45.22C70.9761 45.22 70.6414 44.8853 70.6414 44.5505Z" fill="#FF3500"/>
<path d="M70.6414 54.5061C70.6414 54.1155 70.9761 53.8365 71.3109 53.8365C71.6456 53.8365 71.9805 54.1713 71.9805 54.5061C71.9805 54.8408 71.6456 55.1756 71.3109 55.1756C70.9761 55.1756 70.6414 54.8408 70.6414 54.5061Z" fill="#FF3500"/>
<path d="M70.6414 34.6193C70.6414 34.2288 70.9761 33.9498 71.3109 33.9498C71.6456 33.9498 71.9805 34.2846 71.9805 34.6193C71.9805 34.9541 71.6456 35.2888 71.3109 35.2888C70.9761 35.2888 70.6414 34.9541 70.6414 34.6193Z" fill="#FF3500"/>
<path d="M70.6414 24.6875C70.6414 24.2969 70.9761 24.0179 71.3109 24.0179C71.6456 24.0179 71.9805 24.3527 71.9805 24.6875C71.9805 25.0222 71.6456 25.357 71.3109 25.357C70.9761 25.357 70.6414 25.0222 70.6414 24.6875Z" fill="#FF3500"/>
<path d="M70.6414 14.7556C70.6414 14.3651 70.9761 14.0859 71.3109 14.0859C71.6456 14.0859 71.9805 14.4208 71.9805 14.7556C71.9805 15.0904 71.6456 15.4251 71.3109 15.4251C70.9761 15.4251 70.6414 15.0904 70.6414 14.7556Z" fill="#FF3500"/>
<path d="M70.6414 4.82459C70.6414 4.43402 70.9761 4.15491 71.3109 4.15491C71.6456 4.15491 71.9805 4.48982 71.9805 4.82459C71.9805 5.15936 71.6456 5.4941 71.3109 5.4941C70.9761 5.4941 70.6414 5.15936 70.6414 4.82459Z" fill="#FF3500"/>
<path d="M61.4357 55.2633C61.0043 55.2633 60.6545 54.9137 60.6545 54.4823C60.6545 54.0509 61.0043 53.701 61.4357 53.701C61.8671 53.701 62.2168 54.0509 62.2168 54.4823C62.2168 54.9137 61.8671 55.2633 61.4357 55.2633Z" fill="#FF3500"/>
<path d="M61.4357 65.2189C61.0043 65.2189 60.6545 64.8692 60.6545 64.4378C60.6545 64.0064 61.0043 63.6566 61.4357 63.6566C61.8671 63.6566 62.2168 64.0064 62.2168 64.4378C62.2168 64.8692 61.8671 65.2189 61.4357 65.2189Z" fill="#FF3500"/>
<path d="M61.4357 45.3314C61.0043 45.3314 60.6545 44.9818 60.6545 44.5504C60.6545 44.119 61.0043 43.7692 61.4357 43.7692C61.8671 43.7692 62.2168 44.119 62.2168 44.5504C62.2168 44.9818 61.8671 45.3314 61.4357 45.3314Z" fill="#FF3500"/>
<path d="M61.4357 55.287C61.0043 55.287 60.6545 54.9373 60.6545 54.5059C60.6545 54.0745 61.0043 53.7247 61.4357 53.7247C61.8671 53.7247 62.2168 54.0745 62.2168 54.5059C62.2168 54.9373 61.8671 55.287 61.4357 55.287Z" fill="#FF3500"/>
<path d="M61.4357 35.4003C61.0043 35.4003 60.6545 35.0506 60.6545 34.6192C60.6545 34.1878 61.0043 33.838 61.4357 33.838C61.8671 33.838 62.2168 34.1878 62.2168 34.6192C62.2168 35.0506 61.8671 35.4003 61.4357 35.4003Z" fill="#FF3500"/>
<path d="M61.4357 25.4684C61.0043 25.4684 60.6545 25.1187 60.6545 24.6873C60.6545 24.2559 61.0043 23.9061 61.4357 23.9061C61.8671 23.9061 62.2168 24.2559 62.2168 24.6873C62.2168 25.1187 61.8671 25.4684 61.4357 25.4684Z" fill="#FF3500"/>
<path d="M61.4357 15.5381C61.0043 15.5381 60.6545 15.1884 60.6545 14.757C60.6545 14.3256 61.0043 13.9758 61.4357 13.9758C61.8671 13.9758 62.2168 14.3256 62.2168 14.757C62.2168 15.1884 61.8671 15.5381 61.4357 15.5381Z" fill="#FF3500"/>
<path d="M61.4357 5.60644C61.0043 5.60644 60.6545 5.2568 60.6545 4.8254C60.6545 4.39399 61.0043 4.04419 61.4357 4.04419C61.8671 4.04419 62.2168 4.39399 62.2168 4.8254C62.2168 5.2568 61.8671 5.60644 61.4357 5.60644Z" fill="#FF3500"/>
<path d="M50.613 54.482C50.613 53.9798 51.0036 53.5892 51.5058 53.5892C52.0079 53.5892 52.3984 53.9798 52.3984 54.482C52.3984 54.9841 52.0079 55.3747 51.5058 55.3747C51.0036 55.3747 50.613 54.9841 50.613 54.482Z" fill="#FF3500"/>
<path d="M50.613 64.4375C50.613 63.9354 51.0036 63.5448 51.5058 63.5448C52.0079 63.5448 52.3984 63.9354 52.3984 64.4375C52.3984 64.9397 52.0079 65.3303 51.5058 65.3303C51.0036 65.3303 50.613 64.9397 50.613 64.4375Z" fill="#FF3500"/>
<path d="M50.613 44.5506C50.613 44.0484 51.0036 43.6578 51.5058 43.6578C52.0079 43.6578 52.3984 44.0484 52.3984 44.5506C52.3984 45.0527 52.0079 45.4433 51.5058 45.4433C51.0036 45.4433 50.613 45.0527 50.613 44.5506Z" fill="#FF3500"/>
<path d="M50.613 54.5061C50.613 54.004 51.0036 53.6134 51.5058 53.6134C52.0079 53.6134 52.3984 54.004 52.3984 54.5061C52.3984 55.0083 52.0079 55.3989 51.5058 55.3989C51.0036 55.3989 50.613 55.0083 50.613 54.5061Z" fill="#FF3500"/>
<path d="M50.613 34.6189C50.613 34.1168 51.0036 33.7262 51.5058 33.7262C52.0079 33.7262 52.3984 34.1168 52.3984 34.6189C52.3984 35.1211 52.0079 35.5117 51.5058 35.5117C51.0036 35.5117 50.613 35.1211 50.613 34.6189Z" fill="#FF3500"/>
<path d="M50.613 24.687C50.613 24.1849 51.0036 23.7943 51.5058 23.7943C52.0079 23.7943 52.3984 24.1849 52.3984 24.687C52.3984 25.1892 52.0079 25.5798 51.5058 25.5798C51.0036 25.5798 50.613 25.1892 50.613 24.687Z" fill="#FF3500"/>
<path d="M50.613 14.757C50.613 14.2548 51.0036 13.8643 51.5058 13.8643C52.0079 13.8643 52.3984 14.2548 52.3984 14.757C52.3984 15.2591 52.0079 15.6497 51.5058 15.6497C51.0036 15.6497 50.613 15.2591 50.613 14.757Z" fill="#FF3500"/>
<path d="M50.613 4.82511C50.613 4.32296 51.0036 3.93237 51.5058 3.93237C52.0079 3.93237 52.3984 4.32296 52.3984 4.82511C52.3984 5.32726 52.0079 5.71768 51.5058 5.71768C51.0036 5.71768 50.613 5.32726 50.613 4.82511Z" fill="#FF3500"/>
<path d="M40.5688 54.4822C40.5688 53.9242 41.0152 53.5336 41.5173 53.5336C42.0195 53.5336 42.4658 53.98 42.4658 54.4822C42.4658 54.9843 42.0195 55.4306 41.5173 55.4306C41.0152 55.4306 40.5688 54.9843 40.5688 54.4822Z" fill="#FF3500"/>
<path d="M40.5688 64.4377C40.5688 63.8798 41.0152 63.4891 41.5173 63.4891C42.0195 63.4891 42.4658 63.9356 42.4658 64.4377C42.4658 64.9399 42.0195 65.3861 41.5173 65.3861C41.0152 65.3861 40.5688 64.9399 40.5688 64.4377Z" fill="#FF3500"/>
<path d="M40.5688 44.5505C40.5688 43.9926 41.0152 43.6019 41.5173 43.6019C42.0195 43.6019 42.4658 44.0484 42.4658 44.5505C42.4658 45.0527 42.0195 45.4989 41.5173 45.4989C41.0152 45.4989 40.5688 45.0527 40.5688 44.5505Z" fill="#FF3500"/>
<path d="M40.5688 54.5061C40.5688 53.9481 41.0152 53.5575 41.5173 53.5575C42.0195 53.5575 42.4658 54.0039 42.4658 54.5061C42.4658 55.0082 42.0195 55.4545 41.5173 55.4545C41.0152 55.4545 40.5688 55.0082 40.5688 54.5061Z" fill="#FF3500"/>
<path d="M40.5688 34.6186C40.5688 34.0607 41.0152 33.67 41.5173 33.67C42.0195 33.67 42.4658 34.1165 42.4658 34.6186C42.4658 35.1208 42.0195 35.567 41.5173 35.567C41.0152 35.567 40.5688 35.1208 40.5688 34.6186Z" fill="#FF3500"/>
<path d="M40.5688 24.6883C40.5688 24.1304 41.0152 23.7397 41.5173 23.7397C42.0195 23.7397 42.4658 24.1862 42.4658 24.6883C42.4658 25.1905 42.0195 25.6367 41.5173 25.6367C41.0152 25.6367 40.5688 25.1905 40.5688 24.6883Z" fill="#FF3500"/>
<path d="M40.5688 14.7572C40.5688 14.1992 41.0152 13.8086 41.5173 13.8086C42.0195 13.8086 42.4658 14.255 42.4658 14.7572C42.4658 15.2593 42.0195 15.7056 41.5173 15.7056C41.0152 15.7056 40.5688 15.2593 40.5688 14.7572Z" fill="#FF3500"/>
<path d="M40.5688 4.8253C40.5688 4.26735 41.0152 3.87671 41.5173 3.87671C42.0195 3.87671 42.4658 4.32314 42.4658 4.8253C42.4658 5.32745 42.0195 5.77371 41.5173 5.77371C41.0152 5.77371 40.5688 5.32745 40.5688 4.8253Z" fill="#FF3500"/>
<path d="M30.5272 54.4819C30.5272 53.8681 31.0294 53.4218 31.5873 53.4218C32.1453 53.4218 32.6475 53.9239 32.6475 54.4819C32.6475 55.0398 32.1453 55.542 31.5873 55.542C31.0294 55.542 30.5272 55.0398 30.5272 54.4819Z" fill="#FF3500"/>
<path d="M30.5272 64.4374C30.5272 63.8237 31.0294 63.3773 31.5873 63.3773C32.1453 63.3773 32.6475 63.8795 32.6475 64.4374C32.6475 64.9954 32.1453 65.4975 31.5873 65.4975C31.0294 65.4975 30.5272 64.9954 30.5272 64.4374Z" fill="#FF3500"/>
<path d="M30.5272 44.5502C30.5272 43.9365 31.0294 43.4901 31.5873 43.4901C32.1453 43.4901 32.6475 43.9923 32.6475 44.5502C32.6475 45.1082 32.1453 45.6103 31.5873 45.6103C31.0294 45.6103 30.5272 45.1082 30.5272 44.5502Z" fill="#FF3500"/>
<path d="M30.5272 54.5058C30.5272 53.8921 31.0294 53.4457 31.5873 53.4457C32.1453 53.4457 32.6475 53.9478 32.6475 54.5058C32.6475 55.0637 32.1453 55.5659 31.5873 55.5659C31.0294 55.5659 30.5272 55.0637 30.5272 54.5058Z" fill="#FF3500"/>
<path d="M30.5272 34.6188C30.5272 34.0051 31.0294 33.5587 31.5873 33.5587C32.1453 33.5587 32.6475 34.0609 32.6475 34.6188C32.6475 35.1768 32.1453 35.6789 31.5873 35.6789C31.0294 35.6789 30.5272 35.1768 30.5272 34.6188Z" fill="#FF3500"/>
<path d="M30.5272 24.688C30.5272 24.0743 31.0294 23.6279 31.5873 23.6279C32.1453 23.6279 32.6475 24.1301 32.6475 24.688C32.6475 25.246 32.1453 25.7482 31.5873 25.7482C31.0294 25.7482 30.5272 25.246 30.5272 24.688Z" fill="#FF3500"/>
<path d="M30.5272 14.7569C30.5272 14.1431 31.0294 13.6968 31.5873 13.6968C32.1453 13.6968 32.6475 14.1989 32.6475 14.7569C32.6475 15.3148 32.1453 15.817 31.5873 15.817C31.0294 15.817 30.5272 15.3148 30.5272 14.7569Z" fill="#FF3500"/>
<path d="M30.5272 4.82501C30.5272 4.21126 31.0294 3.76489 31.5873 3.76489C32.1453 3.76489 32.6475 4.26706 32.6475 4.82501C32.6475 5.38296 32.1453 5.88512 31.5873 5.88512C31.0294 5.88512 30.5272 5.38296 30.5272 4.82501Z" fill="#FF3500"/>
<path d="M20.4828 54.4816C20.4828 53.8678 20.985 53.3099 21.6545 53.3099C22.3241 53.3099 22.8262 53.812 22.8262 54.4816C22.8262 55.1511 22.3241 55.6532 21.6545 55.6532C20.985 55.6532 20.4828 55.1511 20.4828 54.4816Z" fill="#FF3500"/>
<path d="M20.4828 64.4371C20.4828 63.8234 20.985 63.2655 21.6545 63.2655C22.3241 63.2655 22.8262 63.7676 22.8262 64.4371C22.8262 65.1067 22.3241 65.6088 21.6545 65.6088C20.985 65.6088 20.4828 65.1067 20.4828 64.4371Z" fill="#FF3500"/>
<path d="M20.4828 44.5501C20.4828 43.9364 20.985 43.3783 21.6545 43.3783C22.3241 43.3783 22.8262 43.8806 22.8262 44.5501C22.8262 45.2196 22.3241 45.7218 21.6545 45.7218C20.985 45.7218 20.4828 45.2196 20.4828 44.5501Z" fill="#FF3500"/>
<path d="M20.4828 54.5057C20.4828 53.8919 20.985 53.3339 21.6545 53.3339C22.3241 53.3339 22.8262 53.8361 22.8262 54.5057C22.8262 55.1752 22.3241 55.6773 21.6545 55.6773C20.985 55.6773 20.4828 55.1752 20.4828 54.5057Z" fill="#FF3500"/>
<path d="M20.4828 34.6187C20.4828 34.005 20.985 33.4469 21.6545 33.4469C22.3241 33.4469 22.8262 33.9492 22.8262 34.6187C22.8262 35.2883 22.3241 35.7904 21.6545 35.7904C20.985 35.7904 20.4828 35.2883 20.4828 34.6187Z" fill="#FF3500"/>
<path d="M20.4828 24.6887C20.4828 24.0749 20.985 23.5168 21.6545 23.5168C22.3241 23.5168 22.8262 24.0191 22.8262 24.6887C22.8262 25.3582 22.3241 25.8603 21.6545 25.8603C20.985 25.8603 20.4828 25.3582 20.4828 24.6887Z" fill="#FF3500"/>
<path d="M20.4828 14.7568C20.4828 14.143 20.985 13.585 21.6545 13.585C22.3241 13.585 22.8262 14.0872 22.8262 14.7568C22.8262 15.4263 22.3241 15.9284 21.6545 15.9284C20.985 15.9284 20.4828 15.4263 20.4828 14.7568Z" fill="#FF3500"/>
<path d="M20.4828 4.82489C20.4828 4.21115 20.985 3.65308 21.6545 3.65308C22.3241 3.65308 22.8262 4.15535 22.8262 4.82489C22.8262 5.49443 22.3241 5.99653 21.6545 5.99653C20.985 5.99653 20.4828 5.49443 20.4828 4.82489Z" fill="#FF3500"/>
<path d="M10.4413 54.4817C10.4413 53.7564 10.9992 53.1984 11.7246 53.1984C12.4499 53.1984 13.0078 53.7564 13.0078 54.4817C13.0078 55.207 12.4499 55.7649 11.7246 55.7649C10.9992 55.7649 10.4413 55.207 10.4413 54.4817Z" fill="#FF3500"/>
<path d="M10.4413 64.4373C10.4413 63.7119 10.9992 63.1539 11.7246 63.1539C12.4499 63.1539 13.0078 63.7119 13.0078 64.4373C13.0078 65.1626 12.4499 65.7204 11.7246 65.7204C10.9992 65.7204 10.4413 65.1626 10.4413 64.4373Z" fill="#FF3500"/>
<path d="M10.4413 44.5514C10.4413 43.8261 10.9992 43.2681 11.7246 43.2681C12.4499 43.2681 13.0078 43.8261 13.0078 44.5514C13.0078 45.2767 12.4499 45.8346 11.7246 45.8346C10.9992 45.8346 10.4413 45.2767 10.4413 44.5514Z" fill="#FF3500"/>
<path d="M10.4413 54.507C10.4413 53.7816 10.9992 53.2236 11.7246 53.2236C12.4499 53.2236 13.0078 53.7816 13.0078 54.507C13.0078 55.2323 12.4499 55.7901 11.7246 55.7901C10.9992 55.7901 10.4413 55.2323 10.4413 54.507Z" fill="#FF3500"/>
<path d="M10.4413 34.6195C10.4413 33.8942 10.9992 33.3362 11.7246 33.3362C12.4499 33.3362 13.0078 33.8942 13.0078 34.6195C13.0078 35.3449 12.4499 35.9027 11.7246 35.9027C10.9992 35.9027 10.4413 35.3449 10.4413 34.6195Z" fill="#FF3500"/>
<path d="M10.4413 24.6884C10.4413 23.963 10.9992 23.405 11.7246 23.405C12.4499 23.405 13.0078 23.963 13.0078 24.6884C13.0078 25.4137 12.4499 25.9715 11.7246 25.9715C10.9992 25.9715 10.4413 25.4137 10.4413 24.6884Z" fill="#FF3500"/>
<path d="M10.4413 14.7565C10.4413 14.0312 10.9992 13.4731 11.7246 13.4731C12.4499 13.4731 13.0078 14.0312 13.0078 14.7565C13.0078 15.4818 12.4499 16.0397 11.7246 16.0397C10.9992 16.0397 10.4413 15.4818 10.4413 14.7565Z" fill="#FF3500"/>
<path d="M10.4413 4.82485C10.4413 4.09951 10.9992 3.5415 11.7246 3.5415C12.4499 3.5415 13.0078 4.09951 13.0078 4.82485C13.0078 5.55018 12.4499 6.10802 11.7246 6.10802C10.9992 6.10802 10.4413 5.55018 10.4413 4.82485Z" fill="#FF3500"/>
<path d="M0.395807 54.4814C0.395807 53.7003 1.00955 53.0865 1.79068 53.0865C2.5718 53.0865 3.18555 53.7003 3.18555 54.4814C3.18555 55.2625 2.5718 55.8763 1.79068 55.8763C1.00955 55.8763 0.395807 55.2625 0.395807 54.4814Z" fill="#FF3500"/>
<path d="M0.395807 64.437C0.395807 63.6559 1.00955 63.0421 1.79068 63.0421C2.5718 63.0421 3.18555 63.6559 3.18555 64.437C3.18555 65.2181 2.5718 65.8319 1.79068 65.8319C1.00955 65.8319 0.395807 65.2181 0.395807 64.437Z" fill="#FF3500"/>
<path d="M0.395807 44.5511C0.395807 43.77 1.00955 43.1562 1.79068 43.1562C2.5718 43.1562 3.18555 43.77 3.18555 44.5511C3.18555 45.3322 2.5718 45.946 1.79068 45.946C1.00955 45.946 0.395807 45.3322 0.395807 44.5511Z" fill="#FF3500"/>
<path d="M0.395807 54.5067C0.395807 53.7256 1.00955 53.1118 1.79068 53.1118C2.5718 53.1118 3.18555 53.7256 3.18555 54.5067C3.18555 55.2878 2.5718 55.9016 1.79068 55.9016C1.00955 55.9016 0.395807 55.2878 0.395807 54.5067Z" fill="#FF3500"/>
<path d="M0.395807 34.6201C0.395807 33.839 1.00955 33.2252 1.79068 33.2252C2.5718 33.2252 3.18555 33.839 3.18555 34.6201C3.18555 35.4012 2.5718 36.015 1.79068 36.015C1.00955 36.015 0.395807 35.4012 0.395807 34.6201Z" fill="#FF3500"/>
<path d="M0.395807 24.6881C0.395807 23.907 1.00955 23.2932 1.79068 23.2932C2.5718 23.2932 3.18555 23.907 3.18555 24.6881C3.18555 25.4692 2.5718 26.083 1.79068 26.083C1.00955 26.083 0.395807 25.4692 0.395807 24.6881Z" fill="#FF3500"/>
<path d="M0.395807 14.7562C0.395807 13.9751 1.00955 13.3613 1.79068 13.3613C2.5718 13.3613 3.18555 13.9751 3.18555 14.7562C3.18555 15.5373 2.5718 16.1511 1.79068 16.1511C1.00955 16.1511 0.395807 15.5373 0.395807 14.7562Z" fill="#FF3500"/>
<path d="M0.395807 4.82505C0.395807 4.04392 1.00955 3.43018 1.79068 3.43018C2.5718 3.43018 3.18555 4.04392 3.18555 4.82505C3.18555 5.60617 2.5718 6.21992 1.79068 6.21992C1.00955 6.21992 0.395807 5.60617 0.395807 4.82505Z" fill="#FF3500"/>
</g>
<defs>
<clipPath id="clip0_499_53177">
<rect width="141" height="66" fill="white" transform="matrix(-1 0 0 1 141 0)"/>
</clipPath>
</defs>
</svg>
