<svg width="294" height="158" viewBox="0 0 294 158" fill="none" xmlns="http://www.w3.org/2000/svg">
<path opacity="0.7" d="M285.28 119.294H98.3295C98.3268 119.017 98.3254 118.74 98.3254 118.462C98.3254 70.1688 140.178 31.0198 191.805 31.0198C243.432 31.0198 285.285 70.1688 285.285 118.462C285.285 118.74 285.283 119.017 285.28 119.294Z" fill="#C6C8BD"/>
<path d="M17.7101 50.7603C18.2094 53.4499 20.2668 55.4959 22.7717 55.6481C20.3304 55.8666 18.3399 57.8861 17.85 60.5256C17.3507 57.8359 15.2933 55.79 12.7884 55.6377C15.2297 55.4193 17.2202 53.3997 17.7101 50.7603Z" fill="#C6C8BD"/>
<path d="M149.542 17.5837C150.042 20.2734 152.099 22.3194 154.604 22.4716C152.163 22.6901 150.172 24.7096 149.682 27.3491C149.183 24.6594 147.126 22.6135 144.621 22.4612C147.062 22.2427 149.053 20.2232 149.542 17.5837Z" fill="#C6C8BD"/>
<path d="M237.179 51.9596H300.205C298.681 41.8844 286.631 40.5615 280.797 41.1595C280.546 37.5996 277.674 30.0728 268.188 28.4454C258.701 26.818 253.928 33.305 252.727 36.752C249.605 37.5657 249.625 40.5945 250.025 42.0072C240.058 40.1086 237.308 47.851 237.179 51.9596Z" fill="#FFFAF1"/>
<path d="M139.15 41.3207H82.876C80.195 36.3226 85.1861 34.3365 88.0168 33.9682C88.6133 28.9575 92.598 18.7931 103.764 18.2205C114.931 17.6479 119.87 25.1399 120.944 28.9575C124.38 27.8122 125.987 30.3277 126.361 31.7286C134.546 30.7054 138.298 37.697 139.15 41.3207Z" fill="#FFFAF1"/>
<circle cx="65.2092" cy="67.2566" r="1.92775" stroke="#02323E" stroke-width="0.920863"/>
<circle cx="232.539" cy="18.3753" r="1.92775" stroke="#02323E" stroke-width="0.920863"/>
<path fill-rule="evenodd" clip-rule="evenodd" d="M17.6934 160.548H0.291929C0.277728 160.403 0.270508 160.257 0.270508 160.11C0.270508 156.687 4.17556 153.913 8.99268 153.913C13.8098 153.913 17.7148 156.687 17.7148 160.11C17.7148 160.257 17.7076 160.403 17.6934 160.548Z" fill="#647D7D"/>
<path fill-rule="evenodd" clip-rule="evenodd" d="M41.97 160.534H10.5426C10.5422 160.474 10.5419 160.414 10.5419 160.355C10.5419 150.019 17.5775 141.64 26.2563 141.64C34.9352 141.64 41.9707 150.019 41.9707 160.355C41.9707 160.414 41.9705 160.474 41.97 160.534Z" fill="#647D7D"/>
<path fill-rule="evenodd" clip-rule="evenodd" d="M33.0979 160.533H41.9714C41.9719 160.473 41.9721 160.414 41.9721 160.354C41.9721 150.018 34.9366 141.639 26.2577 141.639C25.378 141.639 24.515 141.726 23.6747 141.891C29.0211 143.358 33.0984 151.066 33.0984 160.354C33.0984 160.414 33.0983 160.473 33.0979 160.533Z" fill="#33575E"/>
<path d="M45.2708 159.917H167.279V106.109H45.2708V159.917Z" fill="#95A29E"/>
<path fill-rule="evenodd" clip-rule="evenodd" d="M74.8186 102.014C75.2633 102.014 75.6238 102.374 75.6238 102.819V107.7C75.6238 108.144 75.2633 108.505 74.8186 108.505C74.3738 108.505 74.0133 108.144 74.0133 107.7V102.819C74.0133 102.374 74.3738 102.014 74.8186 102.014Z" fill="#95A29E"/>
<path fill-rule="evenodd" clip-rule="evenodd" d="M89.4604 102.014C89.9051 102.014 90.2657 102.374 90.2657 102.819V107.7C90.2657 108.144 89.9051 108.505 89.4604 108.505C89.0157 108.505 88.6551 108.144 88.6551 107.7V102.819C88.6551 102.374 89.0157 102.014 89.4604 102.014Z" fill="#95A29E"/>
<path fill-rule="evenodd" clip-rule="evenodd" d="M104.103 102.014C104.548 102.014 104.908 102.374 104.908 102.819V107.7C104.908 108.144 104.548 108.505 104.103 108.505C103.658 108.505 103.298 108.144 103.298 107.7V102.819C103.298 102.374 103.658 102.014 104.103 102.014Z" fill="#95A29E"/>
<path fill-rule="evenodd" clip-rule="evenodd" d="M118.745 102.014C119.19 102.014 119.55 102.374 119.55 102.819V107.7C119.55 108.144 119.19 108.505 118.745 108.505C118.3 108.505 117.94 108.144 117.94 107.7V102.819C117.94 102.374 118.3 102.014 118.745 102.014Z" fill="#95A29E"/>
<path d="M122.158 114.884C122.158 112.349 124.227 110.294 126.762 110.294C129.297 110.294 131.366 112.349 131.366 114.884V119.502H122.158V114.884Z" fill="#33575E"/>
<path d="M107.26 114.884C107.26 112.349 109.328 110.294 111.864 110.294C114.399 110.294 116.468 112.349 116.468 114.884V119.502H107.26V114.884Z" fill="#33575E"/>
<path d="M92.3604 114.884C92.3604 112.349 94.4291 110.294 96.9644 110.294C99.4997 110.294 101.568 112.349 101.568 114.884V119.502H92.3604V114.884Z" fill="#33575E"/>
<path d="M77.461 114.884C77.461 112.349 79.5297 110.294 82.065 110.294C84.6004 110.294 86.669 112.349 86.669 114.884V119.502H77.461V114.884Z" fill="#33575E"/>
<path d="M62.5607 114.884C62.5607 112.349 64.6294 110.294 67.1647 110.294C69.7001 110.294 71.7687 112.349 71.7687 114.884V119.502H62.5607V114.884Z" fill="#33575E"/>
<path d="M122.158 127.948C122.158 125.413 124.227 123.357 126.762 123.357C129.297 123.357 131.366 125.413 131.366 127.948V132.565H122.158V127.948Z" fill="#33575E"/>
<path d="M107.26 127.948C107.26 125.413 109.328 123.357 111.864 123.357C114.399 123.357 116.468 125.413 116.468 127.948V132.565H107.26V127.948Z" fill="#33575E"/>
<path d="M92.3604 127.948C92.3604 125.413 94.4291 123.357 96.9644 123.357C99.4997 123.357 101.568 125.413 101.568 127.948V132.565H92.3604V127.948Z" fill="#33575E"/>
<path d="M77.461 127.948C77.461 125.413 79.5297 123.357 82.065 123.357C84.6004 123.357 86.669 125.413 86.669 127.948V132.565H77.461V127.948Z" fill="#33575E"/>
<path d="M62.5607 127.948C62.5607 125.413 64.6294 123.357 67.1647 123.357C69.7001 123.357 71.7687 125.413 71.7687 127.948V132.565H62.5607V127.948Z" fill="#33575E"/>
<path d="M122.158 137.073H131.366V156.893H122.158V137.073Z" fill="#33575E"/>
<path d="M107.26 137.073H116.468V156.893H107.26V137.073Z" fill="#33575E"/>
<path d="M92.3604 137.073H101.568V156.893H92.3604V137.073Z" fill="#33575E"/>
<path d="M77.461 137.073H86.669V156.893H77.461V137.073Z" fill="#33575E"/>
<path d="M62.5607 137.073H71.7687V156.893H62.5607V137.073Z" fill="#33575E"/>
<path d="M340.289 159.917H218.282V106.109H340.289V159.917Z" fill="#95A29E"/>
<path fill-rule="evenodd" clip-rule="evenodd" d="M281.458 102.014C281.013 102.014 280.653 102.374 280.653 102.819V107.7C280.653 108.144 281.013 108.505 281.458 108.505C281.903 108.505 282.263 108.144 282.263 107.7V102.819C282.263 102.374 281.903 102.014 281.458 102.014Z" fill="#95A29E"/>
<path fill-rule="evenodd" clip-rule="evenodd" d="M266.816 102.014C266.371 102.014 266.011 102.374 266.011 102.819V107.7C266.011 108.144 266.371 108.505 266.816 108.505C267.261 108.505 267.621 108.144 267.621 107.7V102.819C267.621 102.374 267.261 102.014 266.816 102.014Z" fill="#95A29E"/>
<path d="M263.404 114.884C263.404 112.349 261.335 110.294 258.8 110.294C256.265 110.294 254.196 112.349 254.196 114.884V119.502H263.404V114.884Z" fill="#33575E"/>
<path d="M278.303 114.884C278.303 112.349 276.235 110.294 273.699 110.294C271.164 110.294 269.095 112.349 269.095 114.884V119.502H278.303V114.884Z" fill="#33575E"/>
<path d="M293.203 114.884C293.203 112.349 291.134 110.294 288.599 110.294C286.063 110.294 283.995 112.349 283.995 114.884V119.502H293.203V114.884Z" fill="#33575E"/>
<path d="M263.404 127.948C263.404 125.413 261.335 123.357 258.8 123.357C256.265 123.357 254.196 125.413 254.196 127.948V132.565H263.404V127.948Z" fill="#33575E"/>
<path d="M278.303 127.948C278.303 125.413 276.235 123.357 273.699 123.357C271.164 123.357 269.095 125.413 269.095 127.948V132.565H278.303V127.948Z" fill="#33575E"/>
<path d="M293.203 127.948C293.203 125.413 291.134 123.357 288.599 123.357C286.063 123.357 283.995 125.413 283.995 127.948V132.565H293.203V127.948Z" fill="#33575E"/>
<path d="M263.404 137.073H254.196V156.893H263.404V137.073Z" fill="#33575E"/>
<path d="M278.303 137.073H269.095V156.893H278.303V137.073Z" fill="#33575E"/>
<path d="M293.203 137.073H283.995V156.893H293.203V137.073Z" fill="#33575E"/>
<g style="mix-blend-mode:multiply" opacity="0.4">
<path d="M273.379 159.917L253.269 159.917V106.108H260.678L273.379 159.917Z" fill="#33575E"/>
</g>
<g style="mix-blend-mode:multiply" opacity="0.4">
<path d="M73.4391 159.917L56.7139 159.917V106.108H62.8759L73.4391 159.917Z" fill="#33575E"/>
</g>
<path d="M127.522 159.913H158.741V99.5236H127.522V159.913Z" fill="#95A29E"/>
<g style="mix-blend-mode:multiply" opacity="0.4">
<path d="M127.522 104.202L158.741 109.654V99.5235H127.522V104.202Z" fill="#33575E"/>
</g>
<path d="M125.315 92.4729C125.315 88.1549 127.379 84.0971 130.869 81.5543L142.981 72.7295L155.093 81.5543C158.583 84.0971 160.647 88.1549 160.647 92.4729V96.5285H125.315L125.315 92.4729Z" fill="#95A29E"/>
<path d="M154.766 81.3159L155.094 81.5548C158.583 84.0976 160.648 88.1554 160.648 92.4734V94.1602L127.015 85.9141C127.955 84.221 129.261 82.7269 130.869 81.5548L131.085 81.3978L154.766 81.3159Z" fill="#33575E"/>
<path d="M158.649 82.6375L127.305 82.6374L129.456 78.7489L156.498 78.7489L158.649 82.6375Z" fill="#FFFAF1"/>
<path d="M163.35 101.417L122.608 101.417L125.404 96.3626L160.554 96.3626L163.35 101.417Z" fill="#FFFAF1"/>
<path d="M129.388 75.663C129.388 72.3411 130.976 69.2193 133.661 67.2632L142.979 60.4741L152.297 67.2632C154.982 69.2193 156.57 72.3411 156.57 75.663V78.783H129.388L129.388 75.663Z" fill="#95A29E"/>
<path d="M142.981 60.4741L148.64 67.0759C150.704 69.7167 151.826 72.3411 151.826 75.6629V78.783H156.572V75.6629C156.572 72.3411 154.984 69.2194 152.299 67.2632L142.981 60.4741Z" fill="#647D7D"/>
<path d="M137.574 135.814H148.931V123.176H137.574V135.814Z" fill="#33575E"/>
<path d="M135.567 121.28H150.798V119.122H135.567V121.28Z" fill="#95A29E"/>
<path d="M136.673 139.734H137.862V138.41H136.673V139.734Z" fill="#95A29E"/>
<path d="M148.494 139.734H149.682V138.41H148.494V139.734Z" fill="#95A29E"/>
<circle cx="143.346" cy="114.815" r="3.69525" fill="#FFFAF1"/>
<circle cx="143.346" cy="114.816" r="2.01031" fill="#95A29E"/>
<path d="M138.178 135.964L138.178 133.424L138.014 132.917L138.014 122.653L136.337 122.653L136.337 132.917L136.173 133.424L136.173 135.964L138.178 135.964Z" fill="#FFFAF1"/>
<path d="M150.199 135.964L150.199 133.424L150.035 132.917L150.035 122.653L148.358 122.653L148.358 132.917L148.194 133.424L148.194 135.964L150.199 135.964Z" fill="#FFFAF1"/>
<g style="mix-blend-mode:multiply" opacity="0.4">
<path d="M151.127 121.334L134.306 124.382L135.536 128.201L152.655 128.201L154.918 126.118L151.127 121.334Z" fill="#33575E"/>
</g>
<path d="M152.233 124.384L134.305 124.384L135.536 121.188L151.003 121.188L152.233 124.384Z" fill="#FFFAF1"/>
<g style="mix-blend-mode:multiply" opacity="0.4">
<path d="M136.093 140.2H152.513V136.13L151.372 135.038L136.093 136.13L134.948 139.118L136.093 140.2Z" fill="#33575E"/>
</g>
<path d="M134.93 139.12H151.35V135.05H134.93V139.12Z" fill="#FFFAF1"/>
<path d="M136.115 136.269H150.089" stroke="#33575E" stroke-width="0.918127" stroke-linecap="round"/>
<path d="M136.115 137.874H150.089" stroke="#33575E" stroke-width="0.918127" stroke-linecap="round"/>
<path d="M135.961 121.37V119.117" stroke="#FFFAF1" stroke-width="0.918127" stroke-linecap="round"/>
<path d="M137.088 121.37V119.117" stroke="#FFFAF1" stroke-width="0.918127" stroke-linecap="round"/>
<path d="M138.213 121.37V119.117" stroke="#FFFAF1" stroke-width="0.918127" stroke-linecap="round"/>
<path d="M139.34 121.37V119.117" stroke="#FFFAF1" stroke-width="0.918127" stroke-linecap="round"/>
<path d="M140.468 121.37V119.117" stroke="#FFFAF1" stroke-width="0.918127" stroke-linecap="round"/>
<path d="M141.593 121.37V119.117" stroke="#FFFAF1" stroke-width="0.918127" stroke-linecap="round"/>
<path d="M142.721 121.37V119.117" stroke="#FFFAF1" stroke-width="0.918127" stroke-linecap="round"/>
<path d="M143.846 121.37V119.117" stroke="#FFFAF1" stroke-width="0.918127" stroke-linecap="round"/>
<path d="M144.972 121.37V119.117" stroke="#FFFAF1" stroke-width="0.918127" stroke-linecap="round"/>
<path d="M146.1 121.37V119.117" stroke="#FFFAF1" stroke-width="0.918127" stroke-linecap="round"/>
<path d="M147.226 121.37V119.117" stroke="#FFFAF1" stroke-width="0.918127" stroke-linecap="round"/>
<path d="M148.353 121.37V119.117" stroke="#FFFAF1" stroke-width="0.918127" stroke-linecap="round"/>
<path d="M149.478 121.37V119.117" stroke="#FFFAF1" stroke-width="0.918127" stroke-linecap="round"/>
<path d="M150.606 121.37V119.117" stroke="#FFFAF1" stroke-width="0.918127" stroke-linecap="round"/>
<path d="M140.791 62.2725L142.174 60.6533C142.16 60.6396 142.144 60.6252 142.128 60.6101C141.975 60.4684 141.753 60.2626 141.628 59.9052C141.609 59.9092 141.588 59.9113 141.567 59.9113C141.399 59.9113 141.264 59.7754 141.264 59.6077V58.8993C141.264 58.7316 141.399 58.5957 141.567 58.5957C141.611 58.5957 141.652 58.6048 141.689 58.6212C141.903 58.1603 142.286 57.8407 142.512 57.7861C142.388 57.7186 142.141 57.4758 142.141 57.044C142.141 56.6122 142.388 56.2344 142.512 56.0995L142.984 51.9856L143.456 56.0995C143.58 56.2344 143.827 56.6122 143.827 57.044C143.827 57.4758 143.58 57.7186 143.456 57.7861C143.685 57.8412 144.073 58.1667 144.285 58.6349C144.329 58.61 144.38 58.5957 144.434 58.5957C144.602 58.5957 144.738 58.7316 144.738 58.8993V59.6077C144.738 59.7754 144.602 59.9113 144.434 59.9113C144.402 59.9113 144.371 59.9064 144.342 59.8971C144.218 60.2595 143.994 60.4674 143.84 60.6101C143.823 60.6252 143.808 60.6396 143.793 60.6533L145.176 62.2725L142.984 62.3738L140.791 62.2725Z" fill="#95A29E"/>
<path d="M225.994 159.913H257.213V99.5236H225.994V159.913Z" fill="#95A29E"/>
<g style="mix-blend-mode:multiply" opacity="0.4">
<path d="M225.994 104.202L257.213 109.654V99.5235H225.994V104.202Z" fill="#33575E"/>
</g>
<path d="M223.787 92.4729C223.787 88.1549 225.851 84.0971 229.341 81.5543L241.453 72.7295L253.565 81.5543C257.055 84.0971 259.119 88.1549 259.119 92.4729V96.5285H223.787L223.787 92.4729Z" fill="#95A29E"/>
<path d="M253.237 81.3159L253.565 81.5548C257.055 84.0976 259.119 88.1554 259.119 92.4734V94.1602L225.486 85.9141C226.426 84.221 227.732 82.7269 229.341 81.5548L229.556 81.3978L253.237 81.3159Z" fill="#33575E"/>
<path d="M257.121 82.6375L225.778 82.6374L227.929 78.7489L254.97 78.7489L257.121 82.6375Z" fill="#FFFAF1"/>
<path d="M261.823 101.417L221.08 101.417L223.876 96.3626L259.026 96.3626L261.823 101.417Z" fill="#FFFAF1"/>
<path d="M227.862 75.663C227.862 72.3411 229.45 69.2193 232.135 67.2632L241.452 60.4741L250.77 67.2632C253.455 69.2193 255.043 72.3411 255.043 75.663V78.783H227.862L227.862 75.663Z" fill="#95A29E"/>
<path d="M241.452 60.4741L247.111 67.0759C249.176 69.7167 250.298 72.3411 250.298 75.6629V78.783H255.043V75.6629C255.043 72.3411 253.455 69.2194 250.77 67.2632L241.452 60.4741Z" fill="#647D7D"/>
<path d="M236.047 135.812H247.404V123.174H236.047V135.812Z" fill="#33575E"/>
<path d="M234.039 121.28H249.271V119.122H234.039V121.28Z" fill="#95A29E"/>
<path d="M235.144 139.734H236.333V138.41H235.144V139.734Z" fill="#95A29E"/>
<path d="M246.966 139.734H248.155V138.41H246.966V139.734Z" fill="#95A29E"/>
<circle cx="241.817" cy="114.815" r="3.69525" fill="#FFFAF1"/>
<circle cx="241.818" cy="114.816" r="2.01031" fill="#95A29E"/>
<path d="M236.65 135.964L236.65 133.424L236.486 132.917L236.486 122.653L234.809 122.653L234.809 132.917L234.645 133.424L234.645 135.964L236.65 135.964Z" fill="#FFFAF1"/>
<path d="M248.67 135.964L248.67 133.424L248.506 132.917L248.506 122.653L246.829 122.653L246.829 132.917L246.665 133.424L246.665 135.964L248.67 135.964Z" fill="#FFFAF1"/>
<g style="mix-blend-mode:multiply" opacity="0.4">
<path d="M249.599 121.334L232.778 124.382L234.008 128.201L251.127 128.201L253.39 126.118L249.599 121.334Z" fill="#33575E"/>
</g>
<path d="M250.705 124.384L232.778 124.384L234.008 121.188L249.475 121.188L250.705 124.384Z" fill="#FFFAF1"/>
<g style="mix-blend-mode:multiply" opacity="0.4">
<path d="M234.565 140.2H250.985V136.13L249.844 135.038L234.565 136.13L233.421 139.118L234.565 140.2Z" fill="#33575E"/>
</g>
<path d="M233.402 139.12H249.823V135.05H233.402V139.12Z" fill="#FFFAF1"/>
<path d="M234.586 136.269H248.561" stroke="#33575E" stroke-width="0.918127" stroke-linecap="round"/>
<path d="M234.586 137.874H248.561" stroke="#33575E" stroke-width="0.918127" stroke-linecap="round"/>
<path d="M234.434 121.37V119.117" stroke="#FFFAF1" stroke-width="0.918127" stroke-linecap="round"/>
<path d="M235.559 121.37V119.117" stroke="#FFFAF1" stroke-width="0.918127" stroke-linecap="round"/>
<path d="M236.686 121.37V119.117" stroke="#FFFAF1" stroke-width="0.918127" stroke-linecap="round"/>
<path d="M237.812 121.37V119.117" stroke="#FFFAF1" stroke-width="0.918127" stroke-linecap="round"/>
<path d="M238.94 121.37V119.117" stroke="#FFFAF1" stroke-width="0.918127" stroke-linecap="round"/>
<path d="M240.066 121.37V119.117" stroke="#FFFAF1" stroke-width="0.918127" stroke-linecap="round"/>
<path d="M241.192 121.37V119.117" stroke="#FFFAF1" stroke-width="0.918127" stroke-linecap="round"/>
<path d="M242.319 121.37V119.117" stroke="#FFFAF1" stroke-width="0.918127" stroke-linecap="round"/>
<path d="M243.444 121.37V119.117" stroke="#FFFAF1" stroke-width="0.918127" stroke-linecap="round"/>
<path d="M244.572 121.37V119.117" stroke="#FFFAF1" stroke-width="0.918127" stroke-linecap="round"/>
<path d="M245.698 121.37V119.117" stroke="#FFFAF1" stroke-width="0.918127" stroke-linecap="round"/>
<path d="M246.824 121.37V119.117" stroke="#FFFAF1" stroke-width="0.918127" stroke-linecap="round"/>
<path d="M247.951 121.37V119.117" stroke="#FFFAF1" stroke-width="0.918127" stroke-linecap="round"/>
<path d="M249.078 121.37V119.117" stroke="#FFFAF1" stroke-width="0.918127" stroke-linecap="round"/>
<path d="M239.263 62.2725L240.646 60.6533C240.631 60.6396 240.616 60.6252 240.599 60.6101C240.447 60.4684 240.225 60.2626 240.1 59.9052C240.08 59.9092 240.06 59.9113 240.039 59.9113C239.871 59.9113 239.735 59.7754 239.735 59.6077V58.8993C239.735 58.7316 239.871 58.5957 240.039 58.5957C240.082 58.5957 240.123 58.6048 240.16 58.6212C240.374 58.1603 240.757 57.8407 240.983 57.7861C240.859 57.7186 240.612 57.4758 240.612 57.044C240.612 56.6122 240.859 56.2344 240.983 56.0995L241.455 51.9856L241.928 56.0995C242.051 56.2344 242.299 56.6122 242.299 57.044C242.299 57.4758 242.051 57.7186 241.928 57.7861C242.156 57.8412 242.544 58.1667 242.757 58.6349C242.801 58.61 242.852 58.5957 242.906 58.5957C243.074 58.5957 243.209 58.7316 243.209 58.8993V59.6077C243.209 59.7754 243.074 59.9113 242.906 59.9113C242.874 59.9113 242.843 59.9064 242.814 59.8971C242.689 60.2595 242.465 60.4674 242.311 60.6101C242.295 60.6252 242.279 60.6396 242.265 60.6533L243.648 62.2725L241.455 62.3738L239.263 62.2725Z" fill="#95A29E"/>
<path d="M31.2458 159.916H58.8922V106.437H31.2458V159.916Z" fill="#95A29E"/>
<path d="M29.2916 100.194C29.2916 96.3699 31.1195 92.7765 34.2101 90.5247L44.936 82.7097L55.662 90.5247C58.7526 92.7765 60.5805 96.3699 60.5805 100.194V103.785H29.2916L29.2916 100.194Z" fill="#95A29E"/>
<path d="M55.3706 90.3123L55.6609 90.5238C58.7515 92.7756 60.5794 96.3691 60.5794 100.193V101.687L30.7953 94.3842C31.628 92.8849 32.7843 91.5618 34.209 90.5238L34.3998 90.3848L55.3706 90.3123Z" fill="#33575E"/>
<path d="M58.8116 91.4792L31.0546 91.4792L32.9595 88.0357L56.9067 88.0357L58.8116 91.4792Z" fill="#FFFAF1"/>
<path d="M62.9736 108.114L26.8934 108.114L29.3695 103.638L60.4975 103.638L62.9736 108.114Z" fill="#FFFAF1"/>
<path d="M32.9 85.3055C32.9 82.3637 34.3062 79.5992 36.6838 77.8669L44.9354 71.8547L53.187 77.8669C55.5646 79.5992 56.9709 82.3637 56.9709 85.3055V88.0685H32.9L32.9 85.3055Z" fill="#95A29E"/>
<path d="M44.9346 71.8547L49.9458 77.7011C51.7741 80.0396 52.7676 82.3637 52.7676 85.3054V88.0685H56.9701V85.3054C56.9701 82.3637 55.5638 79.5992 53.1862 77.8669L44.9346 71.8547Z" fill="#647D7D"/>
<path d="M41.5938 133.779H48.1906V122.18H41.5938V133.779Z" fill="#33575E"/>
<path d="M39.5046 160.19H50.277V141.249H39.5046V160.19Z" fill="#FFFAF1"/>
<path d="M39.5046 160.19H50.277V141.249H39.5046V160.19Z" fill="#FFFAF1"/>
<path d="M40.7363 160.19H49.0492V142.621H40.7363V160.19Z" fill="#33575E"/>
<path d="M37.8495 120.443H51.8298V118.463H37.8495V120.443Z" fill="#95A29E"/>
<path d="M38.8642 137.383H39.9554V136.168H38.8642V137.383Z" fill="#95A29E"/>
<path d="M49.7163 137.383H50.8075V136.168H49.7163V137.383Z" fill="#95A29E"/>
<circle cx="44.9892" cy="114.51" r="3.39171" fill="#FFFAF1"/>
<circle cx="44.9898" cy="114.509" r="1.84518" fill="#95A29E"/>
<path d="M41.1607 133.922L41.1607 131.59L41.0402 131.125L41.0402 121.704L39.8072 121.704L39.8072 131.125L39.6867 131.59L39.6867 133.922L41.1607 133.922Z" fill="#FFFAF1"/>
<path d="M49.9989 133.922L49.9989 131.59L49.8783 131.125L49.8783 121.704L48.6454 121.704L48.6454 131.125L48.5248 131.59L48.5248 133.922L49.9989 133.922Z" fill="#FFFAF1"/>
<g style="mix-blend-mode:multiply" opacity="0.4">
<path d="M52.1317 120.495L36.692 123.293L37.8213 126.799L53.5335 126.799L55.6106 124.886L52.1317 120.495Z" fill="#33575E"/>
</g>
<path d="M53.1472 123.291L36.692 123.291L37.8213 120.358L52.0179 120.358L53.1472 123.291Z" fill="#FFFAF1"/>
<g style="mix-blend-mode:multiply" opacity="0.4">
<path d="M38.3324 137.809H53.4038V134.073L52.3568 133.071L38.3324 134.073L37.2823 136.816L38.3324 137.809Z" fill="#33575E"/>
</g>
<path d="M37.2649 136.821H52.3362V133.085H37.2649V136.821Z" fill="#647D7D"/>
<path d="M38.3501 134.202H51.1769" stroke="#33575E" stroke-width="0.918127" stroke-linecap="round"/>
<path d="M38.3501 135.676H51.1769" stroke="#33575E" stroke-width="0.918127" stroke-linecap="round"/>
<path d="M38.2112 120.526V118.458" stroke="#FFFAF1" stroke-width="0.918127" stroke-linecap="round"/>
<path d="M39.2451 120.526V118.458" stroke="#FFFAF1" stroke-width="0.918127" stroke-linecap="round"/>
<path d="M40.2811 120.526V118.458" stroke="#FFFAF1" stroke-width="0.918127" stroke-linecap="round"/>
<path d="M41.3131 120.526V118.458" stroke="#FFFAF1" stroke-width="0.918127" stroke-linecap="round"/>
<path d="M42.3471 120.526V118.458" stroke="#FFFAF1" stroke-width="0.918127" stroke-linecap="round"/>
<path d="M43.3811 120.526V118.458" stroke="#FFFAF1" stroke-width="0.918127" stroke-linecap="round"/>
<path d="M44.4161 120.526V118.458" stroke="#FFFAF1" stroke-width="0.918127" stroke-linecap="round"/>
<path d="M45.4491 120.526V118.458" stroke="#FFFAF1" stroke-width="0.918127" stroke-linecap="round"/>
<path d="M46.4821 120.526V118.458" stroke="#FFFAF1" stroke-width="0.918127" stroke-linecap="round"/>
<path d="M47.5171 120.526V118.458" stroke="#FFFAF1" stroke-width="0.918127" stroke-linecap="round"/>
<path d="M48.5511 120.526V118.458" stroke="#FFFAF1" stroke-width="0.918127" stroke-linecap="round"/>
<path d="M49.5841 120.526V118.458" stroke="#FFFAF1" stroke-width="0.918127" stroke-linecap="round"/>
<path d="M50.6191 120.526V118.458" stroke="#FFFAF1" stroke-width="0.918127" stroke-linecap="round"/>
<path d="M51.6521 120.526V118.458" stroke="#FFFAF1" stroke-width="0.918127" stroke-linecap="round"/>
<path d="M42.6496 73.4852L44.0326 71.866C44.0181 71.8522 44.0026 71.8379 43.9863 71.8228C43.8335 71.6811 43.6116 71.4752 43.4865 71.1178C43.4668 71.1219 43.4464 71.124 43.4254 71.124C43.2578 71.124 43.1218 70.9881 43.1218 70.8204V70.112C43.1218 69.9443 43.2578 69.8084 43.4254 69.8084C43.4688 69.8084 43.51 69.8174 43.5473 69.8338C43.7608 69.373 44.1438 69.0533 44.37 68.9987C44.2463 68.9313 43.9989 68.6884 43.9989 68.2567C43.9989 67.8249 44.2463 67.4471 44.37 67.3122L44.8421 63.1982L45.3144 67.3122C45.4381 67.4471 45.6855 67.8249 45.6855 68.2567C45.6855 68.6884 45.4381 68.9313 45.3144 68.9987C45.5428 69.0539 45.9312 69.3793 46.1434 69.8476C46.1875 69.8226 46.2384 69.8084 46.2927 69.8084C46.4604 69.8084 46.5963 69.9443 46.5963 70.112V70.8204C46.5963 70.9881 46.4604 71.124 46.2927 71.124C46.2606 71.124 46.2297 71.119 46.2006 71.1098C46.0761 71.4722 45.852 71.68 45.698 71.8228C45.6818 71.8379 45.6663 71.8522 45.6518 71.866L47.0348 73.4852L44.8422 73.5864L42.6496 73.4852Z" fill="#95A29E"/>
<path d="M157.717 152.952H225.494V96.0333H157.717V152.952Z" fill="#33575E"/>
<path d="M157.717 120.017H225.494V112.553H157.717V120.017Z" fill="#647D7D"/>
<path d="M171.384 147.375H211.828V133.149H171.384V147.375Z" fill="#647D7D"/>
<path d="M158.645 56.208H224.567L220.043 60.0966H163.169L158.645 56.208Z" fill="#647D7D"/>
<path d="M163.168 67.6475H220.041V60.0973H163.168V67.6475Z" fill="#95A29E"/>
<path d="M209.291 67.6475H220.042V60.0973H209.291V67.6475Z" fill="#647D7D"/>
<path d="M164.636 90.7561H218.575V69.707H164.636V90.7561Z" fill="#95A29E"/>
<path d="M201.539 90.7561H218.575V69.707H201.539V90.7561Z" fill="#647D7D"/>
<path d="M152.738 94.4138H230.472V88.9228H152.738V94.4138Z" fill="#95A29E"/>
<path d="M152.738 94.4138H159.329V85.7165H152.738V94.4138Z" fill="#95A29E"/>
<path d="M223.768 94.4138H230.359V85.7165H223.768V94.4138Z" fill="#95A29E"/>
<path d="M160.866 147.039L160.866 138.923L160.342 137.305L160.342 104.511L154.985 104.511L154.985 137.305L154.461 138.923L154.461 147.039L160.866 147.039Z" fill="#B2BAB8"/>
<path d="M174.249 147.039L174.249 138.923L173.725 137.305L173.725 104.511L168.368 104.511L168.368 137.305L167.844 138.923L167.844 147.039L174.249 147.039Z" fill="#B2BAB8"/>
<path d="M187.634 147.039L187.634 138.923L187.11 137.305L187.11 104.511L181.753 104.511L181.753 137.305L181.229 138.923L181.229 147.039L187.634 147.039Z" fill="#B2BAB8"/>
<path d="M201.019 147.039L201.019 138.923L200.495 137.305L200.495 104.511L195.138 104.511L195.138 137.305L194.614 138.923L194.614 147.039L201.019 147.039Z" fill="#B2BAB8"/>
<path d="M214.403 147.039L214.403 138.923L213.879 137.305L213.879 104.511L208.522 104.511L208.522 137.305L207.998 138.923L207.998 147.039L214.403 147.039Z" fill="#B2BAB8"/>
<path d="M227.785 147.039L227.785 138.923L227.262 137.305L227.262 104.511L221.904 104.511L221.904 137.305L221.38 138.923L221.38 147.039L227.785 147.039Z" fill="#B2BAB8"/>
<path d="M152.738 105.627H230.472V100.136H152.738V105.627Z" fill="#95A29E"/>
<path d="M164.383 50.1017C164.383 43.4096 167.582 37.1208 172.991 33.18L191.762 19.5032L210.533 33.18C215.942 37.1208 219.141 43.4096 219.141 50.1017V56.3871H164.383L164.383 50.1017Z" fill="#95A29E"/>
<path d="M191.762 19.5032L203.161 32.8028C207.321 38.1226 209.581 43.4096 209.581 50.1016V56.3871H219.14V50.1016C219.14 43.4096 215.941 37.1208 210.533 33.18L191.762 19.5032Z" fill="#647D7D"/>
<path d="M158.915 70.8518H224.294V67.4199H158.915V70.8518Z" fill="#95A29E"/>
<path d="M201.489 70.8518H224.295V67.4199H201.489V70.8518Z" fill="#647D7D"/>
<path d="M161.203 74.2856H222.006V70.8537H161.203V74.2856Z" fill="#647D7D"/>
<path d="M147.994 101.737H235.215L232.531 94.1864H150.678L147.994 101.737Z" fill="#FFFAF1"/>
<path d="M158.999 56.3489H224.214V54.6027H158.999V56.3489Z" fill="#FFFAF1"/>
<path d="M166.858 76.9165V87.4395" stroke="#33575E" stroke-width="0.918127"/>
<path d="M170.715 76.9165V87.4395" stroke="#33575E" stroke-width="0.918127"/>
<path d="M174.571 76.9165V87.4395" stroke="#33575E" stroke-width="0.918127"/>
<path d="M178.43 76.9165V87.4395" stroke="#33575E" stroke-width="0.918127"/>
<path d="M182.287 67.6067V87.4375" stroke="#33575E" stroke-width="0.918127"/>
<path d="M186.144 76.9165V87.4395" stroke="#33575E" stroke-width="0.918127"/>
<path d="M190.002 76.9165V87.4395" stroke="#33575E" stroke-width="0.918127"/>
<path d="M193.859 76.9165V87.4395" stroke="#33575E" stroke-width="0.918127"/>
<path d="M197.717 76.9165V87.4395" stroke="#33575E" stroke-width="0.918127"/>
<path d="M201.574 67.6067V87.4375" stroke="#33575E" stroke-width="0.918127"/>
<path d="M205.431 76.9165V87.4395" stroke="#33575E" stroke-width="0.918127"/>
<path d="M209.288 76.9165V87.4395" stroke="#33575E" stroke-width="0.918127"/>
<path d="M213.145 76.9165V87.4395" stroke="#33575E" stroke-width="0.918127"/>
<path d="M217.003 76.9165V87.4395" stroke="#33575E" stroke-width="0.918127"/>
<path d="M164.703 61.9296L218.24 61.9297" stroke="#33575E" stroke-width="0.918127"/>
<path d="M164.703 63.4633L218.24 63.4634" stroke="#33575E" stroke-width="0.918127"/>
<path d="M164.703 71.0619L218.24 71.062" stroke="#33575E" stroke-width="0.918127"/>
<path d="M164.703 74.4591L218.24 74.4592" stroke="#33575E" stroke-width="0.918127"/>
<path d="M188.749 17.2606H194.776C195.021 17.2606 195.22 17.0618 195.22 16.8167V16.5083H195.885C196.143 16.5083 196.331 15.7895 196.377 15.026C196.385 15.0275 196.393 15.0283 196.401 15.0283C196.508 15.0283 196.595 14.8977 196.595 14.7366C196.595 14.5755 196.508 14.4449 196.401 14.4449C196.395 14.4449 196.389 14.4453 196.383 14.4461C196.357 13.7935 196.207 13.2386 195.885 13.2386C196.03 12.9975 196.203 12.521 195.74 12.5442C195.75 12.3609 195.659 12.0117 195.22 12.0812L195.017 11.8208L194.785 10.3451C194.93 10.0171 195.167 9.22241 194.959 8.66683C195.277 8.32927 195.943 7.47471 196.059 6.7571C196.174 6.03949 195.837 4.99201 195.654 4.55799C195.773 4.66372 196.057 4.85577 196.234 4.77801C196.368 4.71965 196.441 4.56129 196.52 4.38997L196.521 4.38955C196.573 4.27547 196.629 4.15562 196.707 4.05574C196.836 3.88915 196.96 3.7657 197.081 3.64436C197.142 3.58361 197.202 3.52335 197.262 3.45848C197.365 3.34831 197.231 3.17576 197.095 3.00143C196.992 2.86801 196.887 2.73356 196.887 2.62517C196.887 2.37513 196.707 2.08347 196.415 1.98625C196.182 1.90848 196.068 1.76867 196.04 1.70846C196.026 1.54176 195.893 1.21396 195.471 1.23623C195.355 1.08807 195.02 0.900076 194.609 1.3334C194.452 1.31952 194.065 1.35561 193.776 1.61118C193.744 1.47695 193.64 1.15565 193.484 0.944514C193.531 0.805619 193.595 0.475048 193.484 0.26397C193.373 0.0528373 193.123 0.0926143 193.012 0.138894C192.808 0.0934638 192.279 0.00338455 191.776 9.27635e-05C191.772 9.27635e-05 191.767 7.801e-06 191.762 2.32956e-05C191.758 7.80104e-06 191.753 0 191.748 0C191.245 0.00329178 190.717 0.0934638 190.512 0.138894C190.401 0.0926143 190.151 0.0528373 190.04 0.26397C189.929 0.475048 189.994 0.805619 190.04 0.944514C189.885 1.15565 189.781 1.47695 189.749 1.61118C189.46 1.35561 189.073 1.31952 188.915 1.3334C188.504 0.900076 188.17 1.08807 188.054 1.23623C187.632 1.21396 187.498 1.54176 187.485 1.70846C187.457 1.76867 187.343 1.90848 187.11 1.98625C186.818 2.08347 186.637 2.37513 186.637 2.62517C186.637 2.73356 186.533 2.86801 186.429 3.00143C186.294 3.17576 186.16 3.34831 186.262 3.45848C186.323 3.52335 186.383 3.58361 186.444 3.64436C186.565 3.7657 186.688 3.88915 186.818 4.05574C186.896 4.15562 186.951 4.27547 187.004 4.38955L187.004 4.38988C187.083 4.5612 187.157 4.71965 187.29 4.77801C187.468 4.85577 187.751 4.66372 187.871 4.55799C187.688 4.99201 187.35 6.03949 187.466 6.7571C187.582 7.47471 188.247 8.32927 188.565 8.66683C188.357 9.22241 188.594 10.0171 188.739 10.3451L188.508 11.8208L188.305 12.0812C187.865 12.0117 187.775 12.3609 187.784 12.5442C187.321 12.521 187.495 12.9975 187.64 13.2386C187.318 13.2386 187.168 13.7935 187.141 14.4461C187.135 14.4453 187.129 14.4449 187.123 14.4449C187.016 14.4449 186.929 14.5755 186.929 14.7366C186.929 14.8977 187.016 15.0283 187.123 15.0283C187.132 15.0283 187.14 15.0275 187.148 15.026C187.194 15.7895 187.382 16.5083 187.64 16.5083H188.305V16.8167C188.305 17.0618 188.504 17.2606 188.749 17.2606Z" fill="#95A29E"/>
<rect x="186.98" y="17.1804" width="9.56618" height="4.11457" fill="#95A29E"/>
<rect x="194.36" y="17.1804" width="2.18499" height="4.11457" fill="#647D7D"/>
<rect x="185.104" y="20.5698" width="13.3178" height="4.11457" fill="#95A29E"/>
<rect x="196.102" y="20.5698" width="2.31972" height="4.11457" fill="#647D7D"/>
<path d="M185.945 24.3857H197.746" stroke="#33575E" stroke-width="0.918127"/>
<path d="M185.945 20.6162H197.746" stroke="#33575E" stroke-width="0.918127"/>
<path d="M152.738 152.159H230.472V146.622H152.738V152.159Z" fill="#647D7D"/>
<path d="M145.513 155.902H237.697V150.365H145.513V155.902Z" fill="#647D7D"/>
<path d="M139.332 159.65H243.878V154.113H139.332V159.65Z" fill="#647D7D"/>
<path d="M154.153 150.556L229.013 150.556" stroke="#33575E" stroke-width="0.918127" stroke-linecap="round"/>
<path d="M147.137 154.463L236.61 154.463" stroke="#33575E" stroke-width="0.918127" stroke-linecap="round"/>
<path d="M127.719 104.931V158.584" stroke="black" stroke-width="0.918127" stroke-linecap="round"/>
<path d="M257.651 104.931V158.584" stroke="black" stroke-width="0.918127" stroke-linecap="round"/>
<path d="M58.7292 110.618V158.586" stroke="black" stroke-width="0.918127" stroke-linecap="round"/>
</svg>
