<svg width="395" height="64" viewBox="0 0 395 64" fill="none" xmlns="http://www.w3.org/2000/svg">
<g opacity="0.5">
<path d="M65.1326 110.017C62.8564 108.447 60.5849 106.881 58.3087 105.31L47.4366 97.813C46.6085 97.2402 45.7758 96.6674 44.9476 96.0946L45.364 97.6744C50.3466 90.4867 56.509 84.0843 63.6383 78.9891C70.7676 73.894 78.762 70.1061 87.182 67.6763C92.16 66.2397 97.2676 65.265 102.421 64.7199L101.265 63.5651C101.556 66.309 101.843 69.0575 102.135 71.8014C102.597 76.1759 103.055 80.5505 103.518 84.925C103.624 85.9274 103.731 86.9298 103.832 87.9276L104.989 86.7728C98.3686 87.4749 91.8824 89.0362 85.7895 91.7432C80.1221 94.2654 74.9174 97.8038 70.49 102.146C67.9131 104.673 65.6091 107.467 63.555 110.428C63.1988 110.941 63.4625 111.713 63.9714 112.008C64.5451 112.346 65.1974 112.11 65.5536 111.593C68.9679 106.678 73.1687 102.275 78.0541 98.8016C82.9396 95.3278 88.4635 92.7641 94.2558 91.1288C97.7672 90.1356 101.367 89.4658 104.994 89.0824C105.563 89.0224 106.22 88.602 106.15 87.9276C105.859 85.1837 105.572 82.4352 105.28 79.6913C104.818 75.3167 104.36 70.9422 103.897 66.5677C103.791 65.5653 103.684 64.5629 103.583 63.5651C103.522 62.9969 103.097 62.341 102.426 62.4103C93.0575 63.4034 83.8788 65.7177 75.2922 69.6118C66.7056 73.506 59.655 78.444 53.2705 84.7079C49.5972 88.311 46.2985 92.2837 43.37 96.5104C42.9953 97.0508 43.3053 97.7576 43.7864 98.0902C46.0626 99.6608 48.3342 101.227 50.6104 102.797C54.2328 105.296 57.8599 107.795 61.4824 110.295C62.3105 110.867 63.1433 111.44 63.9714 112.013C64.4849 112.369 65.2575 112.11 65.5536 111.597C65.8913 111.024 65.6554 110.373 65.1372 110.017H65.1326Z" fill="#FFFAF1"/>
<path d="M185.807 22.8625C185.7 25.6202 185.594 28.378 185.488 31.1358C185.316 35.5288 185.145 39.9264 184.979 44.3194C184.942 45.3264 184.9 46.3334 184.863 47.3405L186.02 46.1856C177.197 45.8346 168.467 44.0469 160.269 40.7579C152.071 37.4689 144.637 32.7341 138.095 26.9321C134.19 23.4676 130.619 19.6428 127.371 15.5639V17.1992C129.536 15.4854 131.701 13.767 133.871 12.0532C137.322 9.31854 140.774 6.5885 144.225 3.85384C145.016 3.23022 145.807 2.60199 146.594 1.97838L144.956 1.97838C149.041 7.11048 153.825 11.6929 159.312 15.3145C164.465 18.7143 170.225 21.2041 176.24 22.6038C179.756 23.4214 183.36 23.8788 186.968 24.022C188.458 24.082 188.453 21.7723 186.968 21.7123C180.926 21.4674 174.953 20.2664 169.337 18.0075C163.72 15.7487 158.613 12.4274 154.144 8.41314C151.396 5.94641 148.888 3.23022 146.589 0.343126C146.168 -0.183481 145.395 -0.00794565 144.951 0.343126C142.786 2.05691 140.621 3.77531 138.451 5.48909L128.097 13.6884C127.306 14.3121 126.515 14.9403 125.729 15.5639C125.201 15.9797 125.377 16.7557 125.729 17.1992C131.544 24.5024 138.423 30.9648 146.265 36.0554C154.107 41.1459 162.055 44.458 170.734 46.472C175.744 47.6361 180.875 48.2967 186.015 48.4999C186.658 48.5276 187.149 47.9502 187.172 47.3451C187.278 44.5873 187.384 41.8296 187.491 39.0718C187.662 34.6788 187.833 30.2812 188 25.8882C188.037 24.8812 188.078 23.8741 188.115 22.8671C188.171 21.3797 185.858 21.3843 185.802 22.8671L185.807 22.8625Z" fill="#FFFAF1"/>
<path d="M106.122 20.867C106.09 27.1124 102.125 32.9328 96.2079 35.0808C90.2907 37.2288 83.328 35.3995 79.2105 30.4568C75.093 25.5141 74.6998 18.4095 77.9845 13.0095C81.2692 7.60948 87.7184 4.7501 93.8901 6.00194C100.062 7.25379 104.933 12.3074 105.951 18.5481C106.076 19.3149 106.118 20.091 106.122 20.867C106.132 22.3545 108.445 22.3545 108.435 20.867C108.398 13.5638 103.754 6.97663 96.8926 4.44984C90.0316 1.92305 82.1298 4.12187 77.5265 9.69743C72.9232 15.273 72.1414 23.5694 75.9859 29.8886C79.7934 36.1479 87.2419 39.3953 94.4314 37.9725C101.621 36.5498 107.131 30.697 108.209 23.6433C108.348 22.724 108.431 21.8001 108.435 20.867C108.445 19.3796 106.132 19.3796 106.122 20.867Z" fill="#FFFAF1"/>
<path d="M9.54182 136.075C9.50944 142.32 5.54461 148.141 -0.37255 150.289C-6.28971 152.437 -13.2524 150.608 -17.3699 145.665C-21.4874 140.722 -21.8807 133.617 -18.5959 128.217C-15.3112 122.817 -8.86199 119.958 -2.69037 121.21C3.48124 122.462 8.35283 127.515 9.37064 133.756C9.49555 134.523 9.53719 135.299 9.54182 136.075C9.55107 137.562 11.8643 137.562 11.855 136.075C11.818 128.772 7.1731 122.185 0.312157 119.658C-6.48865 117.154 -14.4507 119.33 -19.0539 124.905C-23.6572 130.481 -24.4391 138.777 -20.5945 145.097C-16.787 151.356 -9.33851 154.603 -2.14909 153.18C5.04033 151.758 10.5504 145.905 11.6283 138.851C11.7671 137.932 11.8504 137.008 11.855 136.075C11.8643 134.588 9.55107 134.588 9.54182 136.075Z" fill="#FFFAF1"/>
<path d="M66.087 44.7968C65.5827 45.3419 65.0738 45.8823 64.5695 46.4274L60.4613 50.8389C58.4257 53.0239 56.39 55.2088 54.3591 57.3938C51.8747 60.0591 49.3903 62.7245 46.9106 65.3945C44.2041 68.3001 41.4977 71.2057 38.7912 74.1158C36.0848 77.026 33.2997 80.0102 30.5563 82.9619C27.9979 85.7104 25.4348 88.459 22.8764 91.2075L16.418 98.1458C14.8635 99.818 13.3044 101.49 11.7499 103.158C11.019 103.943 10.2279 104.701 9.54316 105.527C9.5154 105.564 9.47839 105.597 9.446 105.634H11.0837C9.05739 103.754 7.03565 101.874 5.00929 99.9935C1.78469 97.0002 -1.43991 94.0022 -4.66914 91.0088C-5.40936 90.3252 -6.14496 89.6369 -6.88518 88.9532V90.5885C-6.3809 90.0434 -5.872 89.5029 -5.36772 88.9578C-3.99831 87.4889 -2.62889 86.0153 -1.25948 84.5464C0.776135 82.3614 2.81175 80.1764 4.84274 77.9915L12.2912 69.9908C14.9977 67.0852 17.7041 64.1796 20.4106 61.2694C23.117 58.3592 25.9021 55.3751 28.6456 52.4233C31.2039 49.6748 33.767 46.9263 36.3254 44.1778L47.4518 32.2275C48.1828 31.4422 48.9739 30.6847 49.6586 29.8578C49.6864 29.8208 49.7234 29.7885 49.7558 29.7515H48.1181C50.1444 31.6316 52.1661 33.5117 54.1925 35.3918C57.4171 38.3851 60.6417 41.3831 63.8709 44.3764C64.6112 45.0601 65.3468 45.7484 66.087 46.432C67.1742 47.4437 68.8165 45.8131 67.7247 44.7968C65.6984 42.9167 63.6766 41.0366 61.6503 39.1566C58.4257 36.1632 55.2011 33.1652 51.9718 30.1719C51.2316 29.4882 50.496 28.8 49.7558 28.1163C49.3117 27.7052 48.5576 27.6451 48.1181 28.1163C47.6138 28.6614 47.1049 29.2018 46.6006 29.7469L42.4924 34.1584C40.4567 36.3434 38.4211 38.5283 36.3901 40.7133C33.9058 43.3786 31.4214 46.044 28.9416 48.714C26.2352 51.6196 23.5288 54.5252 20.8223 57.4354L-1.55094 81.4653C-3.10541 83.1375 -4.66451 84.8097 -6.21898 86.4773C-6.95457 87.2672 -7.70405 88.0432 -8.42577 88.847C-8.45815 88.8839 -8.49054 88.9163 -8.52292 88.9532C-8.93467 89.3967 -8.99482 90.1496 -8.52292 90.5885C-6.49656 92.4686 -4.47483 94.3486 -2.44846 96.2287C0.776133 99.2221 4.00073 102.22 7.22996 105.213C7.97018 105.897 8.70578 106.585 9.446 107.269C9.89013 107.68 10.6442 107.74 11.0837 107.269C11.588 106.724 12.0969 106.183 12.6012 105.638L16.7094 101.227C18.7451 99.0419 20.7807 96.857 22.8117 94.672L30.2602 86.6713C32.9666 83.7657 35.673 80.8601 38.3795 77.9499C41.0859 75.0397 43.871 72.0556 46.6145 69.1039C49.1729 66.3553 51.7359 63.6068 54.2943 60.8583L65.4208 48.908C66.1564 48.1181 66.9058 47.3421 67.6276 46.5383C67.6599 46.5013 67.6923 46.469 67.7247 46.432C68.7379 45.3465 67.1048 43.7066 66.087 44.7968Z" fill="#FFFAF1"/>
<path d="M74.4593 218.028C73.9967 217.446 73.5386 216.864 73.076 216.282L69.3332 211.561C67.4781 209.223 65.6229 206.881 63.7677 204.544C61.5054 201.689 59.2431 198.835 56.9761 195.98L35.0655 168.347C33.1039 165.871 31.1377 163.395 29.1761 160.919L24.9198 155.551C24.2536 154.71 23.6198 153.824 22.912 153.015C22.8796 152.978 22.8518 152.941 22.8241 152.904V154.54C24.9939 152.826 27.159 151.112 29.3288 149.398L39.6919 141.208C40.483 140.584 41.2741 139.956 42.0653 139.333H40.4275C40.8902 139.915 41.3482 140.497 41.8108 141.079L51.1191 152.816C53.3814 155.671 55.6437 158.526 57.9107 161.381C60.3765 164.494 62.847 167.603 65.3129 170.716C67.7788 173.83 70.3187 177.031 72.8215 180.186C75.1532 183.129 77.4896 186.071 79.8213 189.014L89.967 201.809C90.6332 202.65 91.267 203.537 91.9748 204.345C92.0072 204.382 92.035 204.419 92.0627 204.456V202.821C89.8929 204.535 87.7278 206.249 85.558 207.962C82.1021 210.692 78.6508 213.422 75.1949 216.152C74.4038 216.776 73.6126 217.404 72.8215 218.028C72.3311 218.416 72.4144 219.257 72.8215 219.663C73.3073 220.148 73.9643 220.051 74.4593 219.663C76.6291 217.949 78.7942 216.236 80.964 214.522C84.4199 211.792 87.8712 209.062 91.3271 206.332C92.1182 205.708 92.9093 205.08 93.7005 204.456C94.2279 204.041 94.0521 203.264 93.7005 202.821C93.2378 202.239 92.7798 201.657 92.3172 201.075L76.2173 180.773C73.7515 177.659 71.281 174.551 68.8151 171.437C66.3492 168.324 63.8093 165.122 61.3064 161.967C58.9747 159.025 56.6384 156.082 54.3067 153.14C52.3451 150.664 50.3789 148.188 48.4173 145.712L44.161 140.344C43.4948 139.504 42.8564 138.621 42.1532 137.808C42.1208 137.771 42.093 137.734 42.0653 137.697C41.6489 137.171 40.8717 137.346 40.4275 137.697C38.2577 139.411 36.0926 141.125 33.9228 142.839L23.5597 151.029C22.7686 151.652 21.9774 152.281 21.1863 152.904C20.6589 153.32 20.8347 154.096 21.1863 154.54C21.649 155.122 22.107 155.704 22.5696 156.286L31.8779 168.023C34.1402 170.878 36.4026 173.733 38.6695 176.588L53.5804 195.393C55.9121 198.336 58.2484 201.278 60.5801 204.221L70.7258 217.016C71.392 217.857 72.0304 218.739 72.7336 219.552C72.766 219.589 72.7938 219.626 72.8215 219.663C73.2102 220.153 74.0522 220.07 74.4593 219.663C74.9451 219.178 74.8479 218.522 74.4593 218.028Z" fill="#FFFAF1"/>
<path d="M137.87 45.2486C138.337 45.826 138.809 46.3988 139.276 46.9762L155.644 67.0658C158.152 70.1469 160.659 73.2234 163.171 76.3045C165.683 79.3856 168.26 82.5499 170.805 85.6726C173.178 88.5828 175.552 91.4976 177.92 94.4078L188.233 107.069C188.913 107.901 189.556 108.783 190.277 109.578C190.31 109.615 190.338 109.652 190.365 109.689V108.053C188.219 109.795 186.077 111.536 183.93 113.278C180.511 116.054 177.097 118.83 173.678 121.607C172.896 122.244 172.114 122.877 171.332 123.514H172.97L167.756 117.112C165.869 114.798 163.986 112.483 162.098 110.169L155.195 101.697C152.688 98.616 150.18 95.5395 147.668 92.4584C145.156 89.3773 142.579 86.2131 140.035 83.0904C137.661 80.1802 135.288 77.2654 132.919 74.3552L126.933 67.0058C125.489 65.2365 124.046 63.4673 122.607 61.6935C121.927 60.862 121.284 59.9797 120.562 59.1852C120.53 59.1482 120.502 59.1113 120.474 59.0743V60.7096C122.621 58.9681 124.763 57.2266 126.91 55.4851L137.162 47.1564C137.944 46.5189 138.725 45.8861 139.507 45.2486C139.993 44.8559 139.919 44.0245 139.507 43.6133C139.026 43.1329 138.36 43.2207 137.87 43.6133C135.723 45.3548 133.581 47.0963 131.434 48.8378C128.015 51.6141 124.601 54.3903 121.182 57.1665C120.4 57.804 119.618 58.4369 118.837 59.0743C118.318 59.4947 118.476 60.2661 118.837 60.7096C119.304 61.287 119.776 61.8598 120.243 62.4372L124.051 67.112C125.938 69.4263 127.821 71.7406 129.709 74.0549L151.772 101.134C154.145 104.044 156.519 106.959 158.887 109.869L169.2 122.53C169.88 123.362 170.527 124.235 171.244 125.039C171.277 125.076 171.305 125.113 171.332 125.15C171.753 125.667 172.526 125.51 172.97 125.15C175.117 123.408 177.259 121.667 179.405 119.925C182.824 117.149 186.239 114.373 189.657 111.596C190.439 110.959 191.221 110.326 192.003 109.689C192.521 109.268 192.364 108.497 192.003 108.053L181.131 94.7081C178.832 91.8856 176.528 89.0586 174.228 86.2362C171.721 83.155 169.213 80.0785 166.701 76.9974L159.068 67.6294C156.694 64.7192 154.321 61.8044 151.952 58.8942C149.958 56.4459 147.96 53.9977 145.966 51.5448L141.64 46.2325C140.96 45.401 140.312 44.528 139.595 43.7242C139.563 43.6872 139.535 43.6503 139.507 43.6133C139.114 43.1283 138.281 43.2022 137.87 43.6133C137.388 44.0938 137.476 44.7589 137.87 45.2486Z" fill="#FFFAF1"/>
<path d="M13.6963 42.6805C10.74 40.8143 7.78375 38.9527 4.82285 37.0865C0.150191 34.144 -4.51784 31.1968 -9.1905 28.2543C-10.2638 27.5799 -11.3372 26.9008 -12.4105 26.2264L-11.9941 27.8062C-10.125 24.8544 -8.2606 21.9027 -6.39153 18.9463C-3.44452 14.2807 -0.492875 9.61517 2.45414 4.95424C3.12959 3.88255 3.80968 2.81086 4.48513 1.73917L2.9029 2.15491C5.85917 4.02113 8.82006 5.88273 11.7763 7.74895C16.449 10.6915 21.1217 13.6386 25.7943 16.5812C26.8676 17.2556 27.941 17.9346 29.0143 18.6091L28.5979 17.0292C26.7288 19.981 24.8644 22.9328 22.9953 25.8892C20.0437 30.5547 17.0967 35.2203 14.145 39.8812C13.4696 40.9529 12.7895 42.0246 12.1141 43.0963C11.3183 44.3574 13.3169 45.5168 14.1127 44.2604C15.9817 41.3086 17.8462 38.3568 19.7152 35.4004C22.6669 30.7349 25.6139 26.0693 28.5655 21.4084C29.241 20.3367 29.9211 19.265 30.5965 18.1933C30.9389 17.6529 30.6983 16.9369 30.1801 16.6135C27.2239 14.7473 24.263 12.8857 21.3067 11.0195C16.634 8.07693 11.9614 5.12978 7.28872 2.18725C6.2154 1.51282 5.14208 0.833774 4.06875 0.159347C3.52746 -0.182485 2.81037 0.0577218 2.48652 0.57509C0.617461 3.52686 -1.24698 6.47863 -3.11604 9.43502L-11.9617 23.4271C-12.6372 24.4987 -13.3172 25.5704 -13.9927 26.6421C-14.3351 27.1826 -14.0945 27.8986 -13.5763 28.2219C-10.6201 30.0882 -7.66379 31.9498 -4.7029 33.816C-0.0302367 36.7585 4.6378 39.7057 9.31046 42.6482C10.3838 43.3226 11.4571 44.0017 12.5304 44.6761C13.7934 45.4706 14.9547 43.4751 13.6963 42.6805Z" fill="#FFFAF1"/>
<path d="M118.146 147.614C118.849 144.191 119.553 140.773 120.251 137.35C121.362 131.945 122.472 126.541 123.578 121.141C123.832 119.898 124.086 118.655 124.341 117.417L122.916 118.226C126.344 118.928 129.768 119.63 133.196 120.328C138.609 121.436 144.022 122.54 149.43 123.649C150.674 123.903 151.919 124.157 153.159 124.411L152.349 122.988C151.646 126.411 150.943 129.83 150.244 133.252C149.134 138.657 148.028 144.062 146.918 149.466C146.663 150.709 146.409 151.952 146.154 153.19L147.579 152.381C144.151 151.679 140.728 150.977 137.299 150.279C131.887 149.171 126.474 148.062 121.061 146.958C119.816 146.704 118.572 146.45 117.332 146.196C116.721 146.071 116.083 146.371 115.907 147.004C115.75 147.577 116.101 148.298 116.717 148.427C120.145 149.129 123.568 149.831 126.996 150.529C132.409 151.638 137.822 152.746 143.235 153.85C144.48 154.104 145.724 154.358 146.964 154.612C147.542 154.733 148.255 154.451 148.389 153.804C149.092 150.381 149.795 146.963 150.494 143.54C151.604 138.135 152.71 132.731 153.82 127.326C154.075 126.083 154.329 124.841 154.584 123.603C154.704 123.025 154.422 122.314 153.774 122.18C150.346 121.478 146.922 120.776 143.494 120.078L127.26 116.757C126.016 116.503 124.771 116.249 123.531 115.995C122.953 115.874 122.241 116.156 122.106 116.803C121.403 120.226 120.7 123.644 120.001 127.067C118.891 132.472 117.781 137.876 116.675 143.276C116.421 144.519 116.166 145.762 115.912 147C115.787 147.609 116.087 148.247 116.721 148.422C117.295 148.58 118.017 148.228 118.146 147.614Z" fill="#FFFAF1"/>
<path d="M3.99503 215.199C2.03807 212.307 0.0810991 209.411 -1.88049 206.519C-4.97555 201.95 -8.06598 197.377 -11.161 192.809C-11.8735 191.76 -12.5813 190.707 -13.2938 189.658L-13.7102 191.238C-10.8141 189.284 -7.91331 187.33 -5.01719 185.372C-0.441682 182.281 4.13845 179.195 8.71395 176.105C9.76415 175.394 10.819 174.687 11.8692 173.976L10.2869 173.56C12.2439 176.452 14.2055 179.348 16.1625 182.24C19.2575 186.808 22.3479 191.381 25.443 195.95C26.1555 196.998 26.8633 198.052 27.5758 199.1L27.9921 197.52C25.096 199.474 22.1953 201.428 19.2991 203.387C14.719 206.477 10.1435 209.563 5.56338 212.653C4.51319 213.365 3.45837 214.072 2.40818 214.783C1.18218 215.61 2.33878 217.615 3.57403 216.779C6.47015 214.825 9.3709 212.871 12.267 210.912C16.8472 207.822 21.4227 204.736 26.0028 201.646C27.053 200.934 28.1078 200.227 29.158 199.516C29.6484 199.183 29.9399 198.481 29.5744 197.936C27.6174 195.044 25.6558 192.148 23.6988 189.256C20.6038 184.688 17.5134 180.115 14.4183 175.546C13.7058 174.498 12.998 173.444 12.2855 172.396C11.9524 171.906 11.2492 171.615 10.7033 171.98C7.80718 173.934 4.90643 175.888 2.01031 177.847C-2.5652 180.937 -7.14533 184.023 -11.7208 187.113C-12.771 187.824 -13.8258 188.531 -14.876 189.243C-15.3664 189.575 -15.6579 190.277 -15.2924 190.822C-13.3354 193.714 -11.3785 196.61 -9.41689 199.502C-6.32183 204.071 -3.2314 208.644 -0.136341 213.212C0.576123 214.261 1.28396 215.314 1.99643 216.363C2.82455 217.587 4.83241 216.432 3.99503 215.199Z" fill="#FFFAF1"/>
<path d="M181.732 203.441C178.998 203.847 176.264 204.249 173.53 204.656L160.456 206.591C159.456 206.739 158.462 206.887 157.462 207.035L158.887 207.843C157.615 199.21 157.763 190.345 159.479 181.781C161.196 173.216 164.467 164.952 168.968 157.423C171.624 152.984 174.691 148.803 178.082 144.891H176.444C178.531 146.701 180.622 148.508 182.709 150.318C186.035 153.201 189.366 156.083 192.692 158.961C193.456 159.622 194.214 160.282 194.978 160.938V159.303C190.647 164.301 186.979 169.849 184.402 175.947C181.978 181.688 180.585 187.814 180.312 194.041C180.155 197.662 180.395 201.279 180.918 204.859C181.011 205.478 181.792 205.815 182.343 205.667C183.005 205.487 183.241 204.868 183.153 204.245C182.283 198.309 182.366 192.207 183.578 186.322C184.79 180.437 187.071 174.838 190.185 169.706C192.068 166.602 194.237 163.682 196.615 160.934C196.999 160.486 197.115 159.733 196.615 159.298C194.529 157.488 192.438 155.681 190.351 153.871C187.025 150.988 183.694 148.106 180.368 145.228C179.604 144.567 178.845 143.907 178.082 143.251C177.638 142.863 176.879 142.752 176.444 143.251C170.273 150.374 165.151 158.347 161.543 167.059C158.133 175.295 156.195 184.104 155.806 193.01C155.579 198.175 155.903 203.339 156.653 208.453C156.75 209.123 157.522 209.34 158.078 209.261C160.812 208.855 163.546 208.453 166.28 208.046L179.354 206.111C180.354 205.963 181.348 205.815 182.348 205.667C182.968 205.575 183.305 204.794 183.157 204.245C182.977 203.584 182.357 203.349 181.732 203.436V203.441Z" fill="#FFFAF1"/>
<path d="M100.59 139.88C100.557 146.126 96.5925 151.946 90.6754 154.094C84.7582 156.242 77.7955 154.413 73.678 149.47C69.5605 144.527 69.1673 137.423 72.452 132.023C75.7367 126.623 82.1859 123.763 88.3575 125.015C94.5292 126.267 99.4007 131.321 100.419 137.561C100.543 138.328 100.585 139.104 100.59 139.88C100.599 141.368 102.912 141.368 102.903 139.88C102.866 132.577 98.221 125.99 91.3601 123.463C84.4991 120.936 76.5972 123.135 71.994 128.711C67.3907 134.286 66.6089 142.583 70.4534 148.902C74.2609 155.161 81.7094 158.409 88.8988 156.986C96.0882 155.563 101.598 149.71 102.676 142.657C102.815 141.737 102.898 140.813 102.903 139.88C102.912 138.393 100.599 138.393 100.59 139.88Z" fill="#FFFAF1"/>
<path d="M139.664 189.966C139.631 196.212 135.667 202.032 129.75 204.18C123.689 206.379 116.87 204.499 112.752 199.556C108.635 194.614 108.241 187.509 111.526 182.109C114.811 176.709 121.26 173.849 127.432 175.101C133.603 176.353 138.475 181.407 139.493 187.648C139.618 188.414 139.659 189.19 139.664 189.966C139.673 191.454 141.986 191.454 141.977 189.966C141.94 182.663 137.295 176.076 130.434 173.549C123.573 171.022 115.671 173.221 111.068 178.797C106.465 184.372 105.683 192.669 109.528 198.988C113.335 205.247 120.784 208.495 127.973 207.072C135.162 205.649 140.672 199.796 141.75 192.743C141.889 191.823 141.972 190.9 141.977 189.966C141.986 188.479 139.673 188.479 139.664 189.966Z" fill="#FFFAF1"/>
<path d="M308.966 131.816C307.395 134.092 305.829 136.363 304.258 138.64L296.761 149.512C296.188 150.34 295.616 151.172 295.043 152.001L296.623 151.584C289.435 146.602 283.033 140.439 277.937 133.31C272.842 126.181 269.054 118.186 266.625 109.766C265.188 104.788 264.213 99.6807 263.668 94.5269L262.513 95.6835C265.257 95.392 268.006 95.1052 270.75 94.8137C275.124 94.3511 279.499 93.8931 283.873 93.4304C284.876 93.324 285.878 93.2176 286.876 93.1158L285.721 91.9592C286.423 98.5796 287.984 105.066 290.691 111.159C293.214 116.826 296.752 122.031 301.094 126.458C303.621 129.035 306.416 131.339 309.377 133.393C309.889 133.749 310.661 133.486 310.957 132.977C311.294 132.403 311.058 131.751 310.541 131.395C305.626 127.98 301.224 123.78 297.75 118.894C294.276 114.009 291.712 108.485 290.077 102.692C289.084 99.181 288.414 95.5817 288.031 91.9546C287.971 91.3855 287.55 90.7286 286.876 90.798C284.132 91.0895 281.383 91.3763 278.64 91.6678C274.265 92.1304 269.89 92.5884 265.516 93.0511C264.514 93.1575 263.511 93.2639 262.513 93.3657C261.945 93.4258 261.289 93.8514 261.358 94.5222C262.352 103.891 264.666 113.069 268.56 121.656C272.454 130.243 277.392 137.293 283.656 143.678C287.259 147.351 291.232 150.65 295.459 153.578C295.999 153.953 296.706 153.643 297.038 153.162C298.609 150.886 300.175 148.614 301.746 146.338C304.245 142.715 306.744 139.088 309.243 135.466C309.816 134.638 310.388 133.805 310.961 132.977C311.317 132.463 311.058 131.691 310.545 131.395C309.973 131.057 309.321 131.293 308.966 131.811L308.966 131.816Z" fill="#FFFAF1"/>
<path d="M221.811 11.1414C224.568 11.2478 227.326 11.3542 230.084 11.4606C234.477 11.6318 238.875 11.8029 243.268 11.9695C244.275 12.0065 245.282 12.0481 246.289 12.0851L245.134 10.9285C244.783 19.7511 242.995 28.4811 239.706 36.6791C236.417 44.877 231.682 52.3117 225.88 58.8534C222.416 62.7581 218.591 66.3296 214.512 69.5774L216.147 69.5774C214.434 67.4122 212.715 65.247 211.001 63.0773C208.267 59.626 205.537 56.1747 202.802 52.7234C202.178 51.9323 201.55 51.1412 200.927 50.3547L200.927 51.9924C206.059 47.9073 210.641 43.1236 214.263 37.6367C217.663 32.4829 220.152 26.723 221.552 20.7087C222.37 17.1927 222.827 13.5887 222.97 9.98013C223.03 8.49043 220.721 8.49505 220.661 9.98013C220.416 16.0222 219.215 21.9949 216.956 27.6113C214.697 33.2278 211.376 38.3353 207.361 42.8044C204.895 45.5525 202.178 48.06 199.291 50.3593C198.765 50.7803 198.94 51.5529 199.291 51.9971C201.005 54.1622 202.724 56.3274 204.437 58.4971L212.637 68.851C213.26 69.6421 213.889 70.4333 214.512 71.2197C214.928 71.7472 215.704 71.5713 216.147 71.2197C223.451 65.4044 229.913 58.5249 235.004 50.6832C240.094 42.8414 243.406 34.8933 245.42 26.2141C246.584 21.2038 247.245 16.0731 247.448 10.9332C247.476 10.2901 246.898 9.79969 246.293 9.77656C243.536 9.67016 240.778 9.56375 238.02 9.45735C233.627 9.28617 229.229 9.11499 224.836 8.94844C223.829 8.91142 222.822 8.86978 221.815 8.83276C220.328 8.77725 220.333 11.0905 221.815 11.146L221.811 11.1414Z" fill="#FFFAF1"/>
<path d="M219.815 90.826C226.061 90.8584 231.881 94.8232 234.029 100.74C236.177 106.658 234.348 113.62 229.405 117.738C224.462 121.855 217.358 122.248 211.958 118.964C206.558 115.679 203.698 109.23 204.95 103.058C206.202 96.8866 211.256 92.015 217.496 90.9972C218.263 90.8722 219.039 90.8306 219.815 90.826C221.303 90.8167 221.303 88.5035 219.815 88.5128C212.512 88.5498 205.925 93.1947 203.398 100.056C200.871 106.917 203.07 114.818 208.646 119.422C214.221 124.025 222.518 124.807 228.837 120.962C235.096 117.155 238.344 109.706 236.921 102.517C235.498 95.3275 229.645 89.8174 222.592 88.7395C221.672 88.6007 220.748 88.5174 219.815 88.5128C218.328 88.5035 218.328 90.8167 219.815 90.826Z" fill="#FFFAF1"/>
<path d="M335.023 187.406C341.269 187.439 347.089 191.404 349.237 197.321C351.385 203.238 349.556 210.201 344.613 214.318C339.67 218.436 332.566 218.829 327.166 215.544C321.766 212.259 318.906 205.81 320.158 199.639C321.41 193.467 326.464 188.595 332.704 187.578C333.471 187.453 334.247 187.411 335.023 187.406C336.511 187.397 336.511 185.084 335.023 185.093C327.72 185.13 321.133 189.775 318.606 196.636C316.102 203.437 318.278 211.399 323.854 216.002C329.429 220.605 337.726 221.387 344.045 217.543C350.304 213.735 353.551 206.287 352.129 199.097C350.706 191.908 344.853 186.398 337.799 185.32C336.88 185.181 335.956 185.098 335.023 185.093C333.536 185.084 333.536 187.397 335.023 187.406Z" fill="#FFFAF1"/>
<path d="M243.745 130.861C244.29 131.366 244.831 131.874 245.376 132.379L249.787 136.487C251.972 138.523 254.157 140.558 256.342 142.589C259.007 145.074 261.673 147.558 264.343 150.038C267.248 152.744 270.154 155.451 273.064 158.157C275.974 160.863 278.958 163.649 281.91 166.392C284.659 168.95 287.407 171.513 290.156 174.072L297.094 180.53C298.766 182.085 300.438 183.644 302.106 185.198C302.891 185.929 303.649 186.72 304.476 187.405C304.513 187.433 304.545 187.47 304.582 187.502L304.582 185.864C302.702 187.891 300.822 189.913 298.942 191.939C295.948 195.164 292.95 198.388 289.957 201.617C289.273 202.358 288.585 203.093 287.901 203.833L289.537 203.833C288.992 203.329 288.451 202.82 287.906 202.316C286.437 200.947 284.964 199.577 283.495 198.208C281.31 196.172 279.125 194.136 276.94 192.106L268.939 184.657C266.033 181.951 263.128 179.244 260.218 176.538C257.307 173.831 254.323 171.046 251.372 168.303C248.623 165.744 245.875 163.181 243.126 160.623L231.176 149.496C230.39 148.765 229.633 147.974 228.806 147.29C228.769 147.262 228.737 147.225 228.7 147.192L228.7 148.83C230.58 146.804 232.46 144.782 234.34 142.756C237.333 139.531 240.331 136.307 243.325 133.077C244.008 132.337 244.697 131.601 245.38 130.861C246.392 129.774 244.761 128.132 243.745 129.224C241.865 131.25 239.985 133.272 238.105 135.298C235.111 138.523 232.113 141.747 229.12 144.976C228.436 145.717 227.748 146.452 227.065 147.192C226.653 147.637 226.593 148.391 227.065 148.83C227.61 149.334 228.15 149.843 228.695 150.348L233.107 154.456C235.292 156.492 237.477 158.527 239.662 160.558C242.327 163.042 244.992 165.527 247.662 168.007C250.568 170.713 253.473 173.419 256.384 176.126L280.413 198.499C282.086 200.054 283.758 201.613 285.426 203.167C286.215 203.903 286.991 204.652 287.795 205.374C287.832 205.406 287.865 205.439 287.901 205.471C288.345 205.883 289.098 205.943 289.537 205.471C291.417 203.445 293.297 201.423 295.177 199.397C298.17 196.172 301.168 192.948 304.162 189.718C304.845 188.978 305.534 188.242 306.217 187.502C306.628 187.058 306.688 186.304 306.217 185.864C305.672 185.36 305.132 184.851 304.587 184.347L300.175 180.239C297.99 178.203 295.805 176.168 293.62 174.137L285.62 166.688C282.714 163.982 279.808 161.275 276.898 158.569C273.988 155.862 271.004 153.077 268.052 150.334C265.304 147.775 262.555 145.212 259.807 142.654L247.856 131.527C247.066 130.792 246.29 130.042 245.487 129.321C245.45 129.288 245.417 129.256 245.38 129.224C244.295 128.21 242.655 129.843 243.745 130.861Z" fill="#FFFAF1"/>
<path d="M416.976 122.489C416.394 122.952 415.812 123.41 415.23 123.872L410.509 127.615C408.172 129.47 405.83 131.325 403.492 133.181C400.638 135.443 397.783 137.705 394.928 139.972L367.295 161.883C364.819 163.844 362.343 165.811 359.867 167.772L354.499 172.028C353.659 172.695 352.772 173.328 351.963 174.036C351.926 174.069 351.889 174.096 351.852 174.124L353.488 174.124C351.774 171.954 350.06 169.789 348.346 167.619L340.156 157.256C339.533 156.465 338.904 155.674 338.281 154.883L338.281 156.521C338.863 156.058 339.445 155.6 340.027 155.137L351.765 145.829C354.619 143.567 357.474 141.305 360.329 139.038C363.442 136.572 366.551 134.101 369.665 131.635C372.778 129.169 375.979 126.63 379.134 124.127C382.077 121.795 385.019 119.459 387.962 117.127L400.758 106.981C401.598 106.315 402.485 105.681 403.294 104.973C403.331 104.941 403.368 104.913 403.405 104.886L401.769 104.886C403.483 107.055 405.197 109.22 406.911 111.39C409.641 114.846 412.371 118.297 415.101 121.753C415.724 122.544 416.353 123.336 416.976 124.127C417.364 124.617 418.205 124.534 418.611 124.127C419.096 123.641 418.999 122.984 418.611 122.489C416.898 120.319 415.184 118.154 413.47 115.984C410.74 112.528 408.01 109.077 405.28 105.621C404.656 104.83 404.028 104.039 403.405 103.248C402.989 102.72 402.213 102.896 401.769 103.248C401.187 103.71 400.605 104.168 400.023 104.631L379.721 120.731C376.608 123.197 373.499 125.667 370.385 128.133C367.272 130.599 364.071 133.139 360.916 135.642C357.973 137.974 355.031 140.31 352.088 142.642C349.612 144.603 347.136 146.569 344.66 148.531L339.292 152.787C338.452 153.453 337.569 154.092 336.756 154.795C336.719 154.827 336.683 154.855 336.646 154.883C336.119 155.299 336.295 156.077 336.646 156.521C338.359 158.69 340.073 160.856 341.787 163.025L349.977 173.389C350.601 174.18 351.229 174.971 351.852 175.762C352.268 176.289 353.044 176.114 353.488 175.762C354.07 175.299 354.652 174.841 355.234 174.379L366.972 165.07C369.826 162.808 372.681 160.546 375.536 158.279L394.341 143.368C397.284 141.036 400.226 138.7 403.169 136.368L415.965 126.222C416.805 125.556 417.688 124.918 418.501 124.215C418.538 124.182 418.575 124.154 418.611 124.127C419.101 123.738 419.018 122.896 418.611 122.489C418.126 122.003 417.47 122.1 416.976 122.489Z" fill="#FFFAF1"/>
<path d="M244.197 59.0786C244.774 58.6114 245.347 58.1395 245.924 57.6722L266.014 41.304C269.095 38.7965 272.172 36.289 275.253 33.7769C278.334 31.2647 281.498 28.6878 284.621 26.1433C287.531 23.77 290.446 21.3966 293.356 19.0279L306.018 8.71569C306.849 8.03561 307.731 7.39254 308.526 6.67081C308.563 6.63844 308.6 6.61068 308.637 6.58292L307.002 6.58292C308.743 8.72958 310.485 10.8716 312.226 13.0182C315.002 16.4371 317.779 19.8514 320.555 23.2703C321.192 24.0522 321.825 24.8341 322.463 25.6159L322.463 23.9782L316.06 29.1921C313.746 31.0797 311.432 32.9626 309.117 34.8502L300.645 41.7528C297.564 44.2603 294.488 46.7678 291.407 49.2799C288.326 51.7921 285.161 54.369 282.039 56.9135C279.128 59.2868 276.214 61.6602 273.303 64.0289L265.954 70.0154C264.185 71.4589 262.416 72.9023 260.642 74.3411C259.81 75.0212 258.928 75.6643 258.133 76.386C258.096 76.4184 258.06 76.4461 258.023 76.4739L259.658 76.4739C257.916 74.3272 256.175 72.1852 254.433 70.0386L246.105 59.7865C245.467 59.0046 244.834 58.2228 244.197 57.4409C243.804 56.9551 242.973 57.0291 242.562 57.4409C242.081 57.922 242.169 58.5882 242.562 59.0786C244.303 61.2253 246.045 63.3673 247.786 65.514C250.562 68.9329 253.339 72.3472 256.115 75.7661C256.752 76.5479 257.385 77.3298 258.023 78.1116C258.443 78.6298 259.214 78.4725 259.658 78.1116C260.235 77.6444 260.808 77.1725 261.385 76.7052L266.06 72.8977C268.375 71.0101 270.689 69.1272 273.003 67.2396L300.082 45.1763C302.992 42.803 305.907 40.4296 308.817 38.0609L321.479 27.7487C322.31 27.0686 323.183 26.4209 323.987 25.7038C324.024 25.6714 324.061 25.6437 324.098 25.6159C324.615 25.1949 324.458 24.4223 324.098 23.9782C322.356 21.8315 320.615 19.6895 318.873 17.5429C316.097 14.1239 313.321 10.7097 310.545 7.29076C309.907 6.5089 309.274 5.72703 308.637 4.94517C308.217 4.42701 307.445 4.58431 307.002 4.94517L293.656 15.8172C290.834 18.1165 288.007 20.4205 285.184 22.7198C282.103 25.2273 279.027 27.7348 275.946 30.2469L266.578 37.8805C263.667 40.2538 260.753 42.6272 257.842 44.9959C255.394 46.9899 252.946 48.9885 250.493 50.9824L245.181 55.3081C244.349 55.9882 243.476 56.6359 242.672 57.353C242.635 57.3854 242.599 57.4131 242.562 57.4409C242.077 57.8341 242.15 58.6669 242.562 59.0786C243.042 59.5598 243.707 59.4719 244.197 59.0786Z" fill="#FFFAF1"/>
<path d="M241.629 183.252C239.763 186.208 237.901 189.164 236.035 192.125C233.092 196.798 230.145 201.466 227.203 206.139C226.528 207.212 225.849 208.285 225.175 209.359L226.754 208.942C223.803 207.073 220.851 205.209 217.895 203.34C213.229 200.393 208.563 197.441 203.902 194.494C202.831 193.819 201.759 193.139 200.687 192.463L201.103 194.045C202.969 191.089 204.831 188.128 206.697 185.172C209.64 180.499 212.587 175.827 215.529 171.154C216.204 170.081 216.883 169.007 217.557 167.934L215.977 168.35C218.929 170.219 221.881 172.084 224.837 173.953C229.503 176.905 234.169 179.852 238.829 182.803C239.901 183.479 240.973 184.159 242.045 184.834C243.306 185.63 244.465 183.631 243.209 182.836C240.257 180.967 237.305 179.102 234.349 177.233C229.683 174.281 225.018 171.334 220.357 168.383C219.285 167.707 218.213 167.027 217.142 166.352C216.601 166.009 215.885 166.25 215.562 166.768C213.696 169.724 211.834 172.685 209.968 175.642C207.025 180.314 204.078 184.987 201.135 189.66C200.461 190.733 199.782 191.806 199.108 192.879C198.766 193.421 199.006 194.138 199.523 194.462C202.475 196.331 205.427 198.195 208.383 200.064L222.375 208.91C223.447 209.585 224.519 210.265 225.59 210.941C226.131 211.283 226.847 211.043 227.17 210.525C229.036 207.568 230.898 204.612 232.764 201.651C235.707 196.978 238.654 192.31 241.596 187.638C242.271 186.564 242.95 185.491 243.624 184.418C244.419 183.155 242.423 181.994 241.629 183.252Z" fill="#FFFAF1"/>
<path d="M346.562 78.802C343.139 78.0988 339.721 77.3956 336.298 76.697C330.893 75.5867 325.489 74.4764 320.089 73.3707C318.846 73.1162 317.604 72.8618 316.366 72.6073L317.174 74.0322C317.876 70.6041 318.578 67.1805 319.276 63.7524C320.384 58.3395 321.488 52.9266 322.597 47.5184C322.851 46.2739 323.105 45.0294 323.359 43.7895L321.937 44.5991C325.359 45.3023 328.778 46.0055 332.201 46.7041C337.605 47.8144 343.01 48.9202 348.415 50.0305C349.657 50.2849 350.9 50.5394 352.138 50.7939L351.329 49.3689C350.627 52.7971 349.925 56.2206 349.228 59.6488C348.119 65.0617 347.01 70.4745 345.906 75.8874C345.652 77.1319 345.398 78.3764 345.144 79.6163C345.019 80.227 345.32 80.8654 345.953 81.0412C346.525 81.1985 347.246 80.8469 347.375 80.2316C348.077 76.8035 348.78 73.3799 349.477 69.9518C350.586 64.5389 351.694 59.126 352.798 53.7131C353.053 52.4686 353.307 51.2241 353.561 49.9842C353.681 49.4059 353.399 48.6935 352.752 48.5593C349.329 47.8561 345.911 47.1529 342.488 46.4543C337.083 45.344 331.679 44.2382 326.274 43.1279C325.031 42.8734 323.789 42.619 322.551 42.3646C321.973 42.2443 321.262 42.5265 321.128 43.1742C320.426 46.6023 319.724 50.0259 319.026 53.454L315.705 69.6881C315.451 70.9325 315.197 72.1771 314.943 73.4169C314.823 73.9952 315.104 74.7077 315.751 74.8419C319.174 75.5451 322.592 76.2483 326.015 76.9469C331.42 78.0572 336.825 79.1675 342.225 80.2732C343.467 80.5277 344.71 80.7822 345.948 81.0366C346.558 81.1615 347.195 80.8608 347.371 80.227C347.528 79.6533 347.177 78.9316 346.562 78.802Z" fill="#FFFAF1"/>
<path d="M414.147 192.953C411.255 194.91 408.359 196.867 405.467 198.829C400.899 201.924 396.325 205.014 391.757 208.109C390.708 208.822 389.655 209.53 388.607 210.242L390.186 210.658C388.232 207.762 386.278 204.862 384.32 201.965C381.229 197.39 378.144 192.81 375.053 188.234C374.342 187.184 373.635 186.129 372.924 185.079L372.508 186.661C375.4 184.704 378.296 182.743 381.188 180.786C385.756 177.691 390.33 174.6 394.898 171.505C395.947 170.793 397 170.085 398.049 169.372L396.469 168.956C398.423 171.852 400.377 174.753 402.335 177.649C405.426 182.229 408.511 186.805 411.602 191.385C412.313 192.435 413.02 193.49 413.731 194.54C414.558 195.766 416.563 194.609 415.727 193.374C413.773 190.478 411.819 187.577 409.86 184.681C406.77 180.101 403.684 175.526 400.594 170.945C399.882 169.895 399.176 168.84 398.464 167.79C398.132 167.3 397.43 167.008 396.884 167.374C393.993 169.331 391.096 171.292 388.205 173.249C383.636 176.344 379.063 179.435 374.494 182.53C373.446 183.242 372.393 183.95 371.344 184.663C370.854 184.996 370.563 185.699 370.928 186.245C372.882 189.141 374.836 192.042 376.795 194.938C379.885 199.513 382.971 204.094 386.061 208.669C386.773 209.719 387.479 210.774 388.191 211.824C388.523 212.315 389.226 212.606 389.771 212.241C392.662 210.284 395.559 208.327 398.45 206.365C403.019 203.27 407.592 200.18 412.161 197.085C413.209 196.372 414.262 195.664 415.311 194.952C416.535 194.124 415.38 192.116 414.147 192.953Z" fill="#FFFAF1"/>
<path d="M402.389 15.2159C402.796 17.9501 403.198 20.6843 403.604 23.4185L405.54 36.4927C405.687 37.492 405.835 38.4867 405.983 39.486L406.791 38.0611C398.158 39.3333 389.293 39.1853 380.729 37.4689C372.165 35.7525 363.901 32.4816 356.371 27.9801C351.932 25.3246 347.751 22.2573 343.839 18.8661L343.839 20.5039C345.65 18.4174 347.456 16.3262 349.267 14.2397C352.149 10.9133 355.031 7.58234 357.909 4.25596C358.57 3.49261 359.23 2.73388 359.886 1.97053L358.251 1.97053C363.249 6.30083 368.797 9.96956 374.895 12.5465C380.637 14.9707 386.762 16.3632 392.989 16.6362C396.61 16.7935 400.227 16.5529 403.807 16.0301C404.426 15.9376 404.763 15.1557 404.616 14.6052C404.436 13.9436 403.817 13.7077 403.193 13.7956C397.257 14.6654 391.155 14.5821 385.27 13.37C379.385 12.1579 373.786 9.87705 368.654 6.76348C365.55 4.88054 362.63 2.71074 359.882 0.332785C359.434 -0.0512177 358.681 -0.166864 358.247 0.332785C356.436 2.41929 354.63 4.51041 352.819 6.59693C349.936 9.9233 347.054 13.2543 344.176 16.5807C343.515 17.344 342.855 18.1028 342.199 18.8661C341.811 19.3103 341.7 20.069 342.199 20.5039C349.322 26.6755 357.295 31.7969 366.007 35.4055C374.243 38.8151 383.053 40.7536 391.959 41.1422C397.123 41.3689 402.288 41.0451 407.401 40.2956C408.071 40.1984 408.288 39.4258 408.21 38.8707C407.803 36.1365 407.401 33.4023 406.995 30.6681L405.059 17.5939C404.911 16.5945 404.763 15.5999 404.616 14.6006C404.523 13.9806 403.743 13.6429 403.193 13.791C402.532 13.9714 402.297 14.5913 402.385 15.2159L402.389 15.2159Z" fill="#FFFAF1"/>
<path d="M338.829 96.3585C345.074 96.3909 350.894 100.356 353.042 106.273C355.19 112.19 353.361 119.153 348.418 123.27C343.476 127.388 336.371 127.781 330.971 124.496C325.571 121.211 322.712 114.762 323.964 108.591C325.215 102.419 330.269 97.5475 336.51 96.5297C337.276 96.4048 338.053 96.3631 338.829 96.3585C340.316 96.3492 340.316 94.036 338.829 94.0453C331.525 94.0823 324.938 98.7272 322.411 105.588C319.885 112.449 322.083 120.351 327.659 124.954C333.235 129.558 341.531 130.339 347.85 126.495C354.109 122.687 357.357 115.239 355.934 108.049C354.511 100.86 348.659 95.3499 341.605 94.272C340.686 94.1332 339.762 94.0499 338.829 94.0453C337.341 94.036 337.341 96.3492 338.829 96.3585Z" fill="#FFFAF1"/>
<path d="M388.915 57.2844C395.16 57.3167 400.98 61.2816 403.128 67.1987C405.327 73.2593 403.447 80.0786 398.504 84.1961C393.562 88.3136 386.457 88.7068 381.057 85.4221C375.657 82.1374 372.798 75.6882 374.05 69.5165C375.301 63.3449 380.355 58.4733 386.596 57.4555C387.363 57.3306 388.139 57.289 388.915 57.2844C390.402 57.2751 390.402 54.9619 388.915 54.9712C381.611 55.0082 375.024 59.6531 372.497 66.514C369.971 73.375 372.169 81.2769 377.745 85.8801C383.321 90.4834 391.617 91.2653 397.936 87.4207C404.196 83.6132 407.443 76.1647 406.02 68.9753C404.597 61.7858 398.745 56.2758 391.691 55.1978C390.772 55.0591 389.848 54.9758 388.915 54.9712C387.427 54.9619 387.427 57.2751 388.915 57.2844Z" fill="#FFFAF1"/>
</g>
</svg>
