<svg xmlns="http://www.w3.org/2000/svg" width="12" height="12" viewBox="0 0 12 12" fill="none">
    <path d="M0.153738 7.36159C0.433799 7.5494 0.712633 7.73844 0.991466 7.92748C2.20752 8.74745 3.42235 9.56866 4.63841 10.3886C5.40735 10.9091 6.17751 11.4283 6.94646 11.9476C7.08526 12.0409 7.22037 11.9991 7.30513 11.9046C7.32724 11.8862 7.34812 11.8641 7.36655 11.8371C7.55571 11.5585 7.74365 11.2798 7.93281 10.9999C8.75334 9.78593 9.5751 8.57069 10.3969 7.35668C10.9164 6.58826 11.436 5.81861 11.9556 5.05018C12.0539 4.90534 11.9765 4.71875 11.8451 4.63037C11.5662 4.44134 11.2874 4.2523 11.0073 4.06449C9.79252 3.24329 8.57769 2.42331 7.36163 1.6021C6.59269 1.08286 5.82375 0.563623 5.05358 0.0443852C4.90864 -0.0538159 4.72193 0.0235155 4.63349 0.153632C4.44556 0.433505 4.25639 0.712151 4.06723 0.990797C3.2467 2.20604 2.42494 3.42005 1.60318 4.63528C1.08359 5.40371 0.564003 6.17213 0.0444155 6.94178C-0.0538521 7.08663 0.0235338 7.27321 0.153738 7.36159Z" fill="#02323E"/>
</svg>