<svg width="274" height="196" viewBox="0 0 274 196" fill="none" xmlns="http://www.w3.org/2000/svg">
<path fill-rule="evenodd" clip-rule="evenodd" d="M16.5839 199.624H0.773585C0.760539 199.492 0.753906 199.359 0.753906 199.224C0.753906 196.115 4.30198 193.594 8.67876 193.594C13.0555 193.594 16.6036 196.115 16.6036 199.224C16.6036 199.359 16.597 199.492 16.5839 199.624Z" fill="#647D7D"/>
<path fill-rule="evenodd" clip-rule="evenodd" d="M38.6438 199.608H10.0892C10.0888 199.555 10.0886 199.501 10.0886 199.447C10.0886 190.056 16.481 182.443 24.3665 182.443C32.252 182.443 38.6444 190.056 38.6444 199.447C38.6444 199.501 38.6442 199.555 38.6438 199.608Z" fill="#647D7D"/>
<path fill-rule="evenodd" clip-rule="evenodd" d="M30.5799 199.608H38.6423C38.6427 199.555 38.6429 199.501 38.6429 199.447C38.6429 190.056 32.2505 182.443 24.365 182.443C23.5657 182.443 22.7816 182.522 22.0181 182.672C26.8758 184.005 30.5804 191.008 30.5804 199.447C30.5804 199.501 30.5802 199.555 30.5799 199.608Z" fill="#33575E"/>
<path opacity="0.7" d="M247.946 150.831H61.4154C61.4126 150.555 61.4113 150.278 61.4113 150C61.4113 101.817 103.169 62.7559 154.681 62.7559C206.192 62.7559 247.95 101.817 247.95 150C247.95 150.278 247.949 150.555 247.946 150.831Z" fill="#C6C8BD"/>
<path fill-rule="evenodd" clip-rule="evenodd" d="M214.824 115.54H181.918C181.918 115.477 181.917 115.414 181.917 115.35C181.917 104.301 189.284 95.3438 198.371 95.3438C207.458 95.3438 214.825 104.301 214.825 115.35C214.825 115.414 214.825 115.477 214.824 115.54Z" fill="#647D7D"/>
<path d="M234.372 115.54H201.467C201.466 115.378 201.466 115.215 201.466 115.052C201.466 86.7349 208.832 63.7793 217.92 63.7793C227.007 63.7793 234.373 86.7349 234.373 115.052C234.373 115.215 234.373 115.378 234.372 115.54Z" fill="#33575E"/>
<path fill-rule="evenodd" clip-rule="evenodd" d="M227.303 115.54H234.375C234.376 115.378 234.376 115.215 234.376 115.052C234.376 86.7349 227.009 63.7793 217.922 63.7793C217.252 63.7793 216.591 63.9043 215.941 64.1471C222.342 67.1959 227.303 88.8242 227.303 115.052C227.303 115.215 227.303 115.378 227.303 115.54Z" fill="#02323E"/>
<path d="M217.284 104.84V109.576C217.284 126.408 196.167 139.278 196.167 122.446V122.446V109.556H194.773C193.182 109.556 191.893 108.481 191.893 107.154V104.962" stroke="#02323E" stroke-width="1.89379"/>
<path d="M208.193 115.889L208.193 132.89C208.193 137.077 212.264 140.471 217.285 140.471M217.285 104.84L217.285 140.471M217.285 140.471L217.285 180.949" stroke="#02323E" stroke-width="1.89379"/>
<path d="M217.285 97.7026V148.601C224.815 148.601 230.92 143.511 230.92 137.233V131.386M217.285 97.7026H216.07C213.343 97.7026 211.132 95.8596 211.132 93.5861V88.5993M217.285 97.7026V93.0437H217.733C220.687 93.0437 223.081 91.047 223.081 88.5841V83.3184M230.92 131.386V121.505M230.92 131.386H232.655C235.154 131.386 237.181 129.697 237.181 127.613V122.349" stroke="#02323E" stroke-width="1.89379"/>
<path fill-rule="evenodd" clip-rule="evenodd" d="M247.907 125.212H215.001C215.001 125.107 215 125.001 215 124.894C215 106.375 222.367 91.3613 231.454 91.3613C240.541 91.3613 247.908 106.375 247.908 124.894C247.908 125.001 247.908 125.107 247.907 125.212Z" fill="#647D7D"/>
<path fill-rule="evenodd" clip-rule="evenodd" d="M223.975 134.187H191.069C191.069 134.109 191.068 134.032 191.068 133.954C191.068 120.481 198.435 109.559 207.522 109.559C216.609 109.559 223.976 120.481 223.976 133.954C223.976 134.032 223.976 134.109 223.975 134.187Z" fill="#647D7D"/>
<path fill-rule="evenodd" clip-rule="evenodd" d="M216.029 134.187H223.977C223.978 134.109 223.978 134.032 223.978 133.954C223.978 120.481 216.611 109.559 207.524 109.559C206.757 109.559 206.003 109.636 205.264 109.787C211.345 111.42 216.029 121.618 216.029 133.954C216.029 134.032 216.029 134.109 216.029 134.187Z" fill="#33575E"/>
<path fill-rule="evenodd" clip-rule="evenodd" d="M238.619 125.211H247.91C247.911 125.105 247.911 124.999 247.911 124.892C247.911 106.373 240.544 91.3594 231.457 91.3594C230.536 91.3594 229.632 91.5137 228.752 91.8102C234.35 94.4393 238.62 108.25 238.62 124.892C238.62 124.999 238.619 125.105 238.619 125.211Z" fill="#33575E"/>
<rect width="16.8422" height="11.3285" transform="matrix(1 0 0 -1 140.027 56.0369)" fill="#FFFAF1"/>
<rect width="18.1794" height="11.3285" transform="matrix(1 0 0 -1 156.791 56.0369)" fill="#C6C8BD"/>
<rect x="64.7061" y="148.387" width="13.6973" height="185.652" transform="rotate(-90 64.7061 148.387)" fill="#FFFAF1"/>
<path d="M174.798 147.496L174.798 134.689L179.934 134.689L185.165 147.496L174.798 147.496Z" fill="#C6C8BD"/>
<path d="M71.627 148.387L71.627 134.689L76.7633 134.689L81.9945 148.387L71.627 148.387Z" fill="#C6C8BD"/>
<path d="M150.857 27.2793H164.368L175.18 56.0553H140.045L150.857 27.2793Z" fill="#FFFAF1"/>
<rect x="140.027" y="56.0369" width="35.0128" height="143.964" fill="#95A29E"/>
<g style="mix-blend-mode:multiply" opacity="0.4">
<path d="M148.49 118.533L144.692 114.735L170.455 114.736V108.602L172.5 110.646V118.533H148.49Z" fill="#33575E"/>
</g>
<rect x="64.7061" y="197.025" width="49.5697" height="185.652" transform="rotate(-90 64.7061 197.025)" fill="#95A29E"/>
<g style="mix-blend-mode:multiply" opacity="0.4">
<path d="M163.778 70.7483L162.203 69.7088L154.595 70.7483V73.2828L157.495 75.8263L155.856 78.7644L157.495 79.8828H160.878L160.878 75.8263L163.778 73.2828V70.7483Z" fill="#33575E"/>
</g>
<path d="M162.125 69.6797H152.941V72.2142L155.842 74.7577L155.842 78.8142H159.224L159.224 74.7577L162.125 72.2142V69.6797Z" fill="#C6C8BD"/>
<rect x="140.027" y="67.3123" width="35.0128" height="2.37012" fill="#FFFAF1"/>
<path d="M155.754 78.9062H159.312V81.0587H158.453V84.8638H159.312V87.0163H155.754V84.8638H156.613V81.0587H155.754V78.9062Z" fill="#FFFAF1"/>
<rect x="140.027" y="96.1641" width="5.78523" height="1.1658" fill="white"/>
<rect x="168.582" y="96.1641" width="6.43343" height="1.1658" fill="white"/>
<rect x="71.6328" y="170.096" width="171.824" height="1.83747" fill="white"/>
<rect x="71.6328" y="175.605" width="171.824" height="1.83747" fill="white"/>
<path d="M164.126 53.226L157.538 43.67L150.949 53.226H148.667V68.0412H166.408V53.226H164.126Z" fill="#95A29E"/>
<path d="M150.576 113.192V92.9129C150.576 91.6817 149.578 90.6836 148.347 90.6836C147.116 90.6836 146.118 91.6817 146.118 92.9129V113.192H150.576Z" fill="#33575E" stroke="#FFFAF1" stroke-width="1.41612" stroke-linecap="round"/>
<path d="M163.99 113.192V92.9129C163.99 91.6817 162.992 90.6836 161.761 90.6836C160.529 90.6836 159.531 91.6817 159.531 92.9129V113.192H163.99Z" fill="#33575E" stroke="#FFFAF1" stroke-width="1.41612" stroke-linecap="round"/>
<path d="M156.314 96.163V92.4008C156.314 89.3101 153.809 86.8047 150.718 86.8047V86.8047C147.628 86.8047 145.122 89.3101 145.122 92.4008V96.163" stroke="white" stroke-width="3.15632" stroke-linecap="square"/>
<path d="M157.449 151.608V145.842C157.449 142.752 154.944 140.246 151.853 140.246V140.246C148.762 140.246 146.257 142.752 146.257 145.842V156.539" stroke="white" stroke-width="2.83225" stroke-linecap="square"/>
<path d="M155.018 113.192V92.9129C155.018 91.6817 154.02 90.6836 152.788 90.6836C151.557 90.6836 150.559 91.6817 150.559 92.9129V113.192H155.018Z" fill="#33575E" stroke="#FFFAF1" stroke-width="1.41612" stroke-linecap="round"/>
<path d="M156.303 170.127V145.898C156.303 143.543 154.394 141.635 152.04 141.635C149.686 141.635 147.777 143.543 147.777 145.898V170.127H156.303Z" fill="#33575E"/>
<path d="M167.445 170.127V145.898C167.445 143.543 165.537 141.635 163.182 141.635C160.828 141.635 158.919 143.543 158.919 145.898V170.127H167.445Z" fill="#33575E"/>
<path d="M168.433 113.192V92.9129C168.433 91.6817 167.435 90.6836 166.204 90.6836C164.973 90.6836 163.975 91.6817 163.975 92.9129V113.192H168.433Z" fill="#33575E" stroke="#FFFAF1" stroke-width="1.41612" stroke-linecap="round"/>
<path d="M169.576 96.163V92.4008C169.576 89.3101 167.071 86.8047 163.98 86.8047V86.8047C160.89 86.8047 158.384 89.3101 158.384 92.4008V96.163" stroke="white" stroke-width="3.15632" stroke-linecap="square"/>
<path d="M168.793 156.539V145.842C168.793 142.752 166.288 140.246 163.197 140.246V140.246C160.106 140.246 157.601 142.752 157.601 145.842V151.61" stroke="white" stroke-width="2.83225" stroke-linecap="square"/>
<ellipse cx="157.609" cy="59.5808" rx="6.57502" ry="6.57497" fill="#FFFAF1"/>
<ellipse cx="157.605" cy="59.5784" rx="4.38335" ry="4.38332" fill="#95A29E"/>
<ellipse cx="157.606" cy="49.564" rx="1.88045" ry="1.88044" fill="#C6C8BD"/>
<rect x="144.793" y="108.639" width="25.4571" height="6.06922" fill="white"/>
<path d="M145.821 114.727V116.983" stroke="white" stroke-width="0.441885"/>
<path d="M148.424 114.727V116.983" stroke="white" stroke-width="0.441885"/>
<path d="M151.03 114.727V116.983" stroke="white" stroke-width="0.441885"/>
<path d="M153.632 114.727V116.983" stroke="white" stroke-width="0.441885"/>
<path d="M156.237 114.727V116.983" stroke="white" stroke-width="0.441885"/>
<path d="M158.841 114.727V116.983" stroke="white" stroke-width="0.441885"/>
<path d="M161.445 114.727V116.983" stroke="white" stroke-width="0.441885"/>
<path d="M164.05 114.727V116.983" stroke="white" stroke-width="0.441885"/>
<path d="M166.654 114.727V116.983" stroke="white" stroke-width="0.441885"/>
<path d="M169.256 114.727V116.983" stroke="white" stroke-width="0.441885"/>
<path d="M151.027 20.2578V27.3331" stroke="#02323E" stroke-width="0.946896"/>
<path d="M150.894 21.8125L163.882 21.8125" stroke="#02323E" stroke-width="0.946896"/>
<path d="M150.894 24.6406L163.882 24.6406" stroke="#02323E" stroke-width="0.946896"/>
<path d="M157.544 0.00195312L157.544 21.8167" stroke="#02323E" stroke-width="0.946896"/>
<path d="M164.047 20.2559V27.3311" stroke="#02323E" stroke-width="0.946896"/>
<path d="M166.068 200.001V189.523C166.068 184.698 162.157 180.787 157.333 180.787C152.508 180.787 148.597 184.698 148.597 189.523V200.001H166.068Z" fill="white"/>
<path d="M163.961 200.001V189.672C163.961 186.012 160.994 183.045 157.334 183.045C153.674 183.045 150.707 186.012 150.707 189.672V200.001H163.961Z" fill="#33575E"/>
<path d="M127.631 169.106V159.165C127.631 157.102 125.958 155.43 123.895 155.43C121.832 155.43 120.16 157.102 120.16 159.165V169.106H127.631Z" fill="#33575E"/>
<path d="M104.906 169.106V159.165C104.906 157.102 103.234 155.43 101.171 155.43C99.1081 155.43 97.4358 157.102 97.4358 159.165V169.106H104.906Z" fill="#33575E"/>
<path d="M116.362 169.106V159.165C116.362 157.102 114.689 155.43 112.626 155.43C110.563 155.43 108.891 157.102 108.891 159.165V169.106H116.362Z" fill="#33575E"/>
<path d="M93.6368 169.106V159.165C93.6368 157.102 91.9645 155.43 89.9016 155.43C87.8386 155.43 86.1663 157.102 86.1663 159.165V169.106H93.6368Z" fill="#33575E"/>
<rect x="86.0649" y="177.582" width="7.57636" height="3.20984" fill="#33575E"/>
<rect x="108.779" y="177.58" width="7.57636" height="3.20984" fill="#33575E"/>
<rect x="97.3193" y="177.582" width="7.57636" height="3.20984" fill="#33575E"/>
<rect x="120.029" y="177.582" width="7.57636" height="3.20984" fill="#33575E"/>
<path d="M127.766 196.949V188.591C127.766 186.528 126.094 184.855 124.031 184.855C121.968 184.855 120.296 186.528 120.296 188.591V196.949H127.766Z" fill="#33575E"/>
<path d="M116.271 196.949V188.591C116.271 186.528 114.599 184.855 112.536 184.855C110.473 184.855 108.8 186.528 108.8 188.591V196.949H116.271Z" fill="#33575E"/>
<path d="M104.931 196.949V188.591C104.931 186.528 103.258 184.855 101.195 184.855C99.1323 184.855 97.46 186.528 97.46 188.591V196.949H104.931Z" fill="#33575E"/>
<path d="M93.6469 196.949V188.591C93.6469 186.528 91.9745 184.855 89.9116 184.855C87.8486 184.855 86.1763 186.528 86.1763 188.591V196.949H93.6469Z" fill="#33575E"/>
<path d="M231.382 169.106V159.165C231.382 157.102 229.71 155.43 227.647 155.43C225.584 155.43 223.911 157.102 223.911 159.165V169.106H231.382Z" fill="#33575E"/>
<path d="M208.657 169.106V159.165C208.657 157.102 206.985 155.43 204.922 155.43C202.859 155.43 201.187 157.102 201.187 159.165V169.106H208.657Z" fill="#33575E"/>
<path d="M220.112 169.106V159.165C220.112 157.102 218.44 155.43 216.377 155.43C214.314 155.43 212.642 157.102 212.642 159.165V169.106H220.112Z" fill="#33575E"/>
<path d="M197.388 169.106V159.165C197.388 157.102 195.716 155.43 193.653 155.43C191.59 155.43 189.917 157.102 189.917 159.165V169.106H197.388Z" fill="#33575E"/>
<rect x="189.816" y="177.582" width="7.57636" height="3.20984" fill="#33575E"/>
<rect x="212.526" y="177.582" width="7.57636" height="3.20984" fill="#33575E"/>
<rect x="201.069" y="177.582" width="7.57636" height="3.20984" fill="#33575E"/>
<rect x="223.781" y="177.582" width="7.57636" height="3.20984" fill="#33575E"/>
<path d="M231.517 196.949V188.591C231.517 186.528 229.845 184.855 227.782 184.855C225.719 184.855 224.046 186.528 224.046 188.591V196.949H231.517Z" fill="#33575E"/>
<path d="M220.019 196.949V188.591C220.019 186.528 218.347 184.855 216.284 184.855C214.221 184.855 212.549 186.528 212.549 188.591V196.949H220.019Z" fill="#33575E"/>
<path d="M208.68 196.949V188.591C208.68 186.528 207.007 184.855 204.944 184.855C202.881 184.855 201.209 186.528 201.209 188.591V196.949H208.68Z" fill="#33575E"/>
<path d="M197.396 196.949V188.591C197.396 186.528 195.724 184.855 193.661 184.855C191.598 184.855 189.925 186.528 189.925 188.591V196.949H197.396Z" fill="#33575E"/>
<rect x="32.1777" y="130.393" width="39.409" height="69.2337" fill="#95A29E"/>
<g style="mix-blend-mode:multiply" opacity="0.4">
<path d="M60.1683 129.844L54.2832 123.268L47.8962 132.675H45.684L43.4087 145.09L45.684 147.26H62.8825V132.675L60.1683 129.844Z" fill="#33575E"/>
</g>
<rect x="42.4438" y="159.529" width="18.8927" height="27.7156" fill="#33575E"/>
<rect x="42.4861" y="167.508" width="18.8153" height="1.2362" fill="#FFFAF1"/>
<rect x="47.9272" y="187.332" width="28.614" height="1.23621" transform="rotate(-90 47.9272 187.332)" fill="#FFFAF1"/>
<rect x="54.4805" y="187.332" width="28.614" height="1.23621" transform="rotate(-90 54.4805 187.332)" fill="#FFFAF1"/>
<rect x="42.4861" y="158.334" width="18.8153" height="1.2362" fill="#FFFAF1"/>
<path d="M62.25 161.982V159.115C62.25 153.41 57.625 148.785 51.9199 148.785C46.2148 148.785 41.5898 153.41 41.5898 159.115V161.982" stroke="white" stroke-width="3.15632" stroke-linecap="square"/>
<path d="M44.5388 93.4883V101.54" stroke="#02323E" stroke-width="0.946896"/>
<path d="M44.3894 96.0176L59.008 96.0176" stroke="#02323E" stroke-width="0.946896"/>
<path d="M44.3894 98.6506L59.008 98.6506" stroke="#02323E" stroke-width="0.946896"/>
<path d="M59.1938 93.4883V101.54" stroke="#02323E" stroke-width="0.946896"/>
<path d="M44.3472 101.486H59.5546L71.7241 130.262H32.1777L44.3472 101.486Z" fill="#FFFAF1"/>
<path d="M58.2255 130.581L51.8385 121.174L45.4514 130.581H43.2393V145.166H60.4377V130.581H58.2255Z" fill="#C6C8BD"/>
<path d="M55.0516 142.292V133.019C55.0516 131.265 53.6289 129.842 51.8739 129.842C50.1189 129.842 48.6962 131.264 48.6962 133.019V142.292H55.0516Z" fill="#33575E"/>
<rect x="243.65" y="130.273" width="39.409" height="69.2337" fill="#95A29E"/>
<g style="mix-blend-mode:multiply" opacity="0.4">
<path d="M271.639 129.723L265.754 123.146L259.367 132.554H257.155L254.879 144.969L257.155 147.139H274.353V132.554L271.639 129.723Z" fill="#33575E"/>
</g>
<rect x="253.916" y="159.412" width="18.8927" height="27.7156" fill="#33575E"/>
<rect x="253.959" y="167.387" width="18.8153" height="1.2362" fill="#FFFAF1"/>
<rect x="259.4" y="187.211" width="28.614" height="1.23621" transform="rotate(-90 259.4 187.211)" fill="#FFFAF1"/>
<rect x="265.953" y="187.211" width="28.614" height="1.23621" transform="rotate(-90 265.953 187.211)" fill="#FFFAF1"/>
<rect x="253.959" y="158.213" width="18.8153" height="1.2362" fill="#FFFAF1"/>
<path d="M273.723 161.863V158.996C273.723 153.291 269.098 148.666 263.393 148.666C257.688 148.666 253.063 153.291 253.063 158.996V161.863" stroke="white" stroke-width="3.15632" stroke-linecap="square"/>
<path d="M256.013 93.3672V101.419" stroke="#02323E" stroke-width="0.946896"/>
<path d="M255.863 95.8965L270.482 95.8965" stroke="#02323E" stroke-width="0.946896"/>
<path d="M255.863 98.5295L270.482 98.5295" stroke="#02323E" stroke-width="0.946896"/>
<path d="M270.668 93.3672V101.419" stroke="#02323E" stroke-width="0.946896"/>
<path d="M255.82 101.369H271.027L283.197 130.145H243.65L255.82 101.369Z" fill="#FFFAF1"/>
<path d="M269.698 130.46L263.311 121.053L256.924 130.46H254.712V145.045H271.91V130.46H269.698Z" fill="#C6C8BD"/>
<path d="M266.524 142.173V132.9C266.524 131.145 265.102 129.723 263.347 129.723C261.592 129.723 260.169 131.145 260.169 132.9V142.173H266.524Z" fill="#33575E"/>
<path d="M174.904 148.484V195.984" stroke="#02323E" stroke-width="0.946896"/>
<path d="M243.796 148.484V196.865" stroke="#02323E" stroke-width="0.946896"/>
<path d="M140.098 148.484V195.984" stroke="#02323E" stroke-width="0.946896"/>
<path d="M71.6602 148.484V196.865" stroke="#02323E" stroke-width="0.946896"/>
<path d="M159.657 153.092H155.411V154.041L156.285 154.993L156.285 170.214H158.783L158.783 154.993L159.657 154.041V153.092Z" fill="white"/>
<path d="M144.126 45.1777L140.303 55.5663" stroke="#02323E" stroke-width="0.946896"/>
<path d="M171.135 45.1777L174.958 55.5663" stroke="#02323E" stroke-width="0.946896"/>
<path d="M253.715 55.3162C254.33 58.6256 256.861 61.143 259.943 61.3303C256.939 61.5991 254.49 64.084 253.887 67.3317C253.273 64.0222 250.741 61.5049 247.659 61.3175C250.663 61.0487 253.112 58.5638 253.715 55.3162Z" fill="#C6C8BD"/>
<path d="M109.88 37.457C110.389 40.1953 112.483 42.2782 115.033 42.4332C112.548 42.6556 110.521 44.7117 110.023 47.3988C109.514 44.6605 107.42 42.5776 104.87 42.4226C107.355 42.2002 109.382 40.1442 109.88 37.457Z" fill="#C6C8BD"/>
<path d="M207.787 32.757H270.672C269.15 22.7045 257.128 21.3847 251.306 21.9813C251.057 18.4294 248.191 10.9196 238.726 9.29588C229.261 7.67213 224.498 14.1446 223.3 17.5838C220.185 18.3956 220.205 21.4176 220.604 22.8271C210.66 20.9327 207.916 28.6577 207.787 32.757Z" fill="#FFFAF1"/>
<path d="M128.949 93.3096H72.8015C70.1265 88.3227 75.1064 86.3411 77.9308 85.9736C78.5259 80.9743 82.5016 70.8328 93.643 70.2614C104.784 69.6901 109.712 77.1652 110.784 80.9742C114.212 79.8315 115.815 82.3413 116.188 83.7391C124.355 82.7182 128.098 89.694 128.949 93.3096Z" fill="#FFFAF1"/>
<ellipse cx="16.2989" cy="98.5582" rx="1.92341" ry="1.9234" stroke="#02323E" stroke-width="0.946896"/>
<ellipse cx="194.136" cy="50.1578" rx="1.92341" ry="1.9234" stroke="#02323E" stroke-width="0.946896"/>
<g style="mix-blend-mode:multiply" opacity="0.4">
<rect x="174.994" y="197.025" width="49.5697" height="10.1719" transform="rotate(-90 174.994 197.025)" fill="#33575E"/>
</g>
<g style="mix-blend-mode:multiply" opacity="0.4">
<rect x="71.8228" y="197.025" width="49.5697" height="10.1719" transform="rotate(-90 71.8228 197.025)" fill="#33575E"/>
</g>
</svg>
