<svg width="396" height="423" viewBox="0 0 396 423" fill="none" xmlns="http://www.w3.org/2000/svg">
<g opacity="0.22">
<mask id="path-1-inside-1_786_1367" fill="white">
<path d="M149.526 213.956C149.055 214.196 148.525 214.269 148.032 214.135C147.698 214.059 147.393 213.896 147.169 213.633C146.041 212.31 144.905 210.986 143.777 209.664C138.84 203.89 133.895 198.114 128.958 192.341C125.856 188.712 122.76 185.094 119.658 181.465C119.002 180.697 118.801 179.382 119.672 178.649C126.474 172.911 133.781 167.761 141.549 163.393C155.051 155.798 169.071 150.709 185.192 148.041C201.312 145.373 217.713 145.6 233.836 148.113C234.99 148.295 235.407 149.577 235.252 150.551C234.973 152.258 234.7 153.975 234.427 155.692C233.233 163.184 232.031 170.674 230.837 178.167C230.09 182.867 229.333 187.572 228.586 192.272C228.398 193.427 227.11 193.835 226.131 193.682C219.889 192.707 213.565 192.222 207.242 192.315C196.814 192.463 186.417 194.276 176.679 197.89C166.97 201.493 157.985 206.935 150.077 213.576C149.923 213.73 149.734 213.858 149.526 213.956Z"/>
<path d="M365.78 103.909C374.162 110.169 383.616 114.826 393.616 117.921C393.944 118.022 394.209 118.178 394.418 118.371C394.972 118.79 395.288 119.481 395.016 120.355C394.501 122.015 393.978 123.674 393.463 125.335C391.208 132.578 388.943 139.827 386.679 147.069L382.423 160.707C382.112 161.705 381.031 162.449 379.967 162.116C371.458 159.492 363.17 156.11 355.31 151.943C341.693 144.728 329.884 135.677 319.052 123.71C308.221 111.744 299.617 97.9197 293.173 83.1687C292.784 82.2737 292.839 80.9029 293.908 80.4449C295.505 79.756 297.112 79.0613 298.716 78.3744L319.731 69.3216C324.133 67.4319 328.529 65.5325 332.923 63.6408C333.825 63.2535 335.196 63.3048 335.664 64.3691C338.212 70.2007 341.186 75.8401 344.674 81.171C350.346 89.8449 357.398 97.6486 365.78 103.909Z"/>
<path d="M250.658 49.1085C261.001 56.3685 265.81 69.4064 262.585 81.5876C262.158 83.1398 261.603 84.6416 260.957 86.1111C255.979 97.381 244.125 104.679 231.455 103.852C218.784 103.024 207.782 94.3028 204.227 82.1836C200.637 69.948 205.679 56.4767 215.89 49.2368C226.102 41.9969 240.314 41.8485 250.658 49.1085Z"/>
<path d="M37.2059 198.056C47.5495 205.316 52.3579 218.354 49.1336 230.535C48.706 232.087 48.1509 233.589 47.505 235.059C42.5273 246.328 30.6736 253.627 18.0031 252.799C5.3326 251.972 -5.66995 243.25 -9.2247 231.131C-12.8144 218.896 -7.77291 205.424 2.43874 198.184C12.6504 190.944 26.9525 190.861 37.2059 198.056Z"/>
<path d="M176.068 91.2456C178.613 95.2783 181.15 99.3091 183.695 103.342C184.186 104.122 184.054 104.878 183.619 105.427C183.467 105.666 183.25 105.885 182.959 106.066C182.888 106.113 182.82 106.152 182.749 106.199C181.179 107.217 179.576 108.177 177.99 109.165L153.994 124.122C148.476 127.563 142.951 131.001 137.433 134.441C131.514 138.138 125.511 141.87 119.673 145.514C113.834 149.158 107.998 152.794 102.162 156.43L86.098 166.444C81.7163 169.18 77.3269 171.914 72.9374 174.648L64.0779 180.169C62.9888 180.853 61.8941 181.527 60.805 182.211C59.8575 182.8 58.6227 182.365 58.0645 181.482C57.1335 180.014 56.2123 178.541 55.2813 177.073C51.2247 170.651 47.1778 164.223 43.129 157.803C40.5842 153.77 38.0471 149.74 35.5023 145.707C34.9102 144.766 35.3496 143.539 36.2382 142.983C36.309 142.936 36.3777 142.896 36.4485 142.849C38.0179 141.831 39.6212 140.872 41.2076 139.884L41.8498 139.484C44.9884 137.53 48.1346 135.571 51.274 133.611L99.5247 103.535C105.356 99.8955 111.185 96.2638 117.014 92.632L117.035 92.6189C122.386 89.2744 127.743 85.9396 133.099 82.6048C137.477 79.8711 141.863 77.1394 146.248 74.4077L155.119 68.8793C156.208 68.1956 157.303 67.5217 158.392 66.838C159.34 66.2486 160.575 66.684 161.133 67.5663C162.064 69.0343 162.985 70.5079 163.916 71.9759C167.973 78.3979 172.019 84.8256 176.068 91.2456Z"/>
<path d="M113.538 396.879C113.48 396.779 113.432 396.672 113.394 396.559C112.604 394.921 111.945 393.202 111.222 391.538L100.003 365.713C97.4253 359.775 94.8399 353.834 92.2622 347.896L75.7734 309.941C73.2648 304.178 70.7639 298.417 68.263 292.656L68.2626 292.655L57.9684 268.964C57.4561 267.789 56.9516 266.616 56.4394 265.441C56.0506 264.546 56.1056 263.175 57.1752 262.717C58.7796 262.03 60.3861 261.336 61.9905 260.649L83.0168 251.615C87.4187 249.726 91.8129 247.834 96.2148 245.944C97.116 245.557 98.4955 245.61 98.9553 246.673C98.9851 246.746 99.0149 246.82 99.0525 246.896C99.8634 248.563 100.535 250.317 101.271 252.013L105.978 262.847C108.146 267.844 110.322 272.842 112.491 277.839C115.068 283.777 117.654 289.717 120.231 295.656L120.875 297.136C123.434 303.023 126.02 308.972 128.535 314.768C131.26 321.051 133.995 327.328 136.72 333.611L154.525 374.587C155.037 375.762 155.542 376.936 156.054 378.111C156.443 379.006 156.388 380.377 155.318 380.835C153.714 381.522 152.107 382.216 150.503 382.903C143.492 385.913 136.488 388.926 129.477 391.936C125.075 393.826 120.681 395.718 116.279 397.607C115.414 398.103 113.968 397.868 113.538 396.879Z"/>
<path d="M288.484 138.406C292.859 136.46 297.227 134.512 301.603 132.566C302.477 132.064 303.904 132.311 304.344 133.294C304.373 133.368 304.403 133.442 304.441 133.518C305.279 135.175 305.97 136.918 306.734 138.605L311.582 149.377C313.815 154.35 316.057 159.317 318.292 164.281C320.946 170.182 323.606 176.093 326.268 181.996L334.826 200.995C337.643 207.244 340.455 213.484 343.264 219.731C345.842 225.455 348.425 231.188 351.002 236.912L363.19 263.976C363.594 264.875 363.51 266.23 362.454 266.7C360.859 267.414 359.266 268.12 357.671 268.834C350.7 271.938 343.738 275.044 336.768 278.148C332.392 280.094 328.024 282.042 323.648 283.988C322.743 284.391 321.38 284.309 320.908 283.26L320.908 283.259C320.878 283.186 320.848 283.112 320.811 283.036C319.973 281.379 319.282 279.636 318.518 277.949L306.959 252.273C304.305 246.372 301.645 240.461 298.984 234.558L274.249 179.642C272.132 174.948 270.023 170.255 267.905 165.561L263.638 156.081C263.116 154.912 262.584 153.748 262.062 152.578C261.657 151.679 261.741 150.324 262.797 149.854C264.393 149.14 265.986 148.434 267.581 147.72C274.551 144.616 281.514 141.51 288.484 138.406Z"/>
<path d="M107.587 66.3396C103.129 70.4328 98.6814 74.5203 94.2256 78.6058C93.9787 78.8322 93.7162 78.9813 93.4504 79.0656C92.8005 79.3441 92.025 79.2753 91.391 78.5946C89.8984 76.994 88.4079 75.3856 86.9154 73.7848C80.4205 66.8055 73.9355 59.8205 67.4407 52.8412C63.3259 48.4159 59.2167 44.0004 55.1097 39.5771C54.3881 38.8081 54.3078 37.5085 55.1238 36.7605C56.7363 35.2758 58.3565 33.7931 59.969 32.3084L81.0668 12.9361C85.5247 8.84297 89.9727 4.75544 94.4285 0.66997C95.2032 -0.0477737 96.5112 -0.128974 97.2632 0.681131C98.7557 2.28184 100.246 3.89024 101.739 5.49094C108.234 12.4703 114.726 19.4573 121.221 26.4366C125.328 30.8599 129.445 35.2775 133.552 39.7007C134.274 40.4697 134.354 41.7694 133.538 42.5173C131.926 44.002 130.305 45.4847 128.693 46.9694C121.656 53.4203 114.626 59.881 107.587 66.3396Z"/>
<path d="M219.044 297.744C218.072 297.255 217.808 295.898 218.329 295.014C218.341 294.995 218.352 294.976 218.364 294.957C219.347 293.008 220.307 291.103 221.292 289.146C225.569 280.648 229.857 272.144 234.145 263.639L234.151 263.626C236.861 258.235 239.576 252.854 242.292 247.465C242.808 246.448 244.127 246.295 245.041 246.753C246.996 247.724 248.958 248.698 250.921 249.672L276.608 262.432C282.03 265.119 287.443 267.811 292.863 270.505C293.887 271.016 294.039 272.327 293.578 273.235C292.598 275.178 291.617 277.128 290.635 279.078L290.625 279.097C286.335 287.606 282.053 296.116 277.763 304.625C275.054 310.016 272.339 315.397 269.622 320.786C269.107 321.803 267.788 321.956 266.874 321.498C264.919 320.527 262.957 319.553 260.994 318.579L260.978 318.571C252.417 314.324 243.858 310.07 235.299 305.817C229.877 303.13 224.464 300.438 219.044 297.744Z"/>
<path d="M16.1483 355.372C10.4208 357.347 4.68764 359.312 -1.03777 361.278C-2.07276 361.636 -2.85474 361.15 -3.22808 360.408C-3.33318 360.256 -3.4221 360.082 -3.49055 359.884C-4.2109 357.821 -4.92142 355.752 -5.64177 353.688C-8.76509 344.702 -11.8786 335.71 -15.0019 326.724C-16.9831 321.035 -18.9545 315.34 -20.928 309.653C-21.2943 308.583 -20.4906 307.543 -19.5203 307.207C-17.4429 306.489 -15.3598 305.781 -13.2824 305.063C-4.2355 301.95 4.81708 298.848 13.864 295.735C19.5915 293.76 25.3246 291.796 31.0501 289.829C32.1278 289.464 33.1735 290.261 33.5106 291.225C34.2309 293.289 34.9415 295.358 35.6618 297.421C38.7851 306.407 41.8986 315.399 45.022 324.385C46.9954 330.072 48.9745 335.769 50.948 341.456C51.3143 342.526 50.5106 343.566 49.5404 343.902C47.463 344.62 45.3799 345.328 43.3024 346.046C34.2478 349.157 25.203 352.262 16.1483 355.372Z"/>
<path d="M313.874 390.599C309.197 399.862 306.312 409.99 305.097 420.264C305.097 421.245 304.188 422.397 303.109 422.275C301.371 422.077 299.64 421.881 297.901 421.683L275.153 419.092C270.394 418.554 265.638 418.007 260.88 417.468C259.916 417.352 258.721 416.647 258.86 415.488C259.907 406.637 261.689 397.891 264.392 389.389C269.05 374.727 276.257 360.916 285.669 348.714C295.627 335.807 307.785 324.804 321.317 315.684C322.269 315.046 323.489 315.569 324.058 316.412C325.04 317.844 326.012 319.282 326.992 320.722C331.263 326.995 335.54 333.277 339.809 339.558C342.486 343.502 345.172 347.441 347.849 351.385C348.49 352.33 347.957 353.533 347.113 354.109C341.897 357.629 336.953 361.527 332.405 365.86C324.886 373.024 318.55 381.335 313.874 390.599Z"/>
<path d="M187.847 244.886C198.19 252.146 202.999 265.183 199.775 277.365C199.347 278.917 198.792 280.419 198.146 281.888C193.168 293.158 181.314 300.456 168.644 299.629C155.974 298.801 144.971 290.08 141.416 277.961C137.827 265.725 142.868 252.254 153.08 245.014C163.291 237.774 177.503 237.626 187.847 244.886Z"/>
<path d="M230.693 345.69C241.037 352.95 245.845 365.988 242.621 378.169C242.193 379.721 241.638 381.223 240.992 382.692C236.015 393.962 224.161 401.261 211.49 400.433C198.82 399.606 187.817 390.884 184.263 378.765C180.673 366.529 185.715 353.058 195.926 345.818C206.138 338.578 220.35 338.43 230.693 345.69Z"/>
</mask>
<path d="M148.032 214.135L147.632 215.581L147.663 215.589L147.694 215.596L148.032 214.135ZM149.526 213.956L150.165 215.31L150.185 215.301L150.204 215.291L149.526 213.956ZM150.006 213.636L149.04 212.492L149.035 212.496L150.006 213.636ZM113.394 396.559L111.971 397.041L112.001 397.129L112.041 397.213L113.394 396.559ZM113.538 396.879L112.161 397.481L112.195 397.559L112.238 397.634L113.538 396.879ZM116.279 397.607L116.863 398.986L116.946 398.951L117.024 398.906L116.279 397.607ZM113.441 396.655L112.09 397.314L112.094 397.322L113.441 396.655ZM113.538 396.878L112.145 397.442L112.152 397.461L112.16 397.48L113.538 396.878ZM146.101 214.68C146.54 215.124 147.066 215.426 147.632 215.581L148.432 212.689C148.378 212.674 148.314 212.644 148.241 212.57L146.101 214.68ZM150.204 215.291C150.479 215.151 150.738 214.978 150.976 214.776L149.035 212.496C148.974 212.548 148.911 212.59 148.848 212.621L150.204 215.291ZM150.971 214.78C150.995 214.761 151.018 214.741 151.042 214.721L149.113 212.431C149.088 212.451 149.064 212.472 149.04 212.492L150.971 214.78ZM147.694 215.596C148.536 215.787 149.43 215.658 150.165 215.31L148.887 212.602C148.709 212.686 148.502 212.704 148.37 212.674L147.694 215.596ZM113.684 392.78C112.755 393.179 112.215 393.964 111.969 394.717C111.726 395.46 111.721 396.297 111.971 397.041L114.818 396.078C114.801 396.028 114.788 395.957 114.788 395.871C114.788 395.785 114.802 395.704 114.823 395.638C114.869 395.497 114.913 395.51 114.864 395.531L113.684 392.78ZM112.238 397.634C113.34 399.531 115.427 399.596 116.863 398.986L115.695 396.229C115.421 396.345 115.206 396.351 115.085 396.324C115.03 396.312 114.991 396.293 114.961 396.271C114.932 396.25 114.887 396.209 114.838 396.124L112.238 397.634ZM112.041 397.213C112.057 397.247 112.074 397.28 112.09 397.314L114.792 395.997C114.777 395.966 114.763 395.936 114.748 395.905L112.041 397.213ZM112.094 397.322C112.097 397.328 112.102 397.339 112.11 397.358C112.119 397.38 112.129 397.403 112.145 397.442L114.931 396.314C114.904 396.247 114.854 396.122 114.788 395.988L112.094 397.322ZM112.16 397.48L112.161 397.481L114.916 396.278L114.915 396.277L112.16 397.48ZM117.024 398.906C117.91 398.397 118.459 397.608 118.659 396.72C118.85 395.87 118.706 395.014 118.395 394.289L115.634 395.478C115.751 395.75 115.754 395.959 115.729 396.074C115.717 396.126 115.699 396.162 115.679 396.189C115.659 396.216 115.619 396.26 115.533 396.309L117.024 398.906ZM305.643 132.539C304.555 130.664 302.462 130.556 301.005 131.193L302.201 133.938C302.458 133.826 302.667 133.82 302.79 133.848C302.882 133.868 302.964 133.911 303.044 134.049L305.643 132.539ZM217.023 294.288C216.275 295.773 216.466 297.964 218.291 299.032L219.816 296.445C219.721 296.389 219.657 296.306 219.627 296.168C219.593 296.013 219.612 295.811 219.705 295.626L217.023 294.288ZM303.104 423.772C304.128 423.767 304.993 423.349 305.605 422.675C306.191 422.031 306.491 421.218 306.587 420.442L303.606 420.085C303.569 420.387 303.465 420.576 303.384 420.666C303.347 420.707 303.314 420.729 303.283 420.743C303.253 420.756 303.197 420.774 303.099 420.775L303.104 423.772ZM148.032 214.135L148.832 211.243L148.771 211.227L148.709 211.213L148.032 214.135ZM149.526 213.956L148.248 211.249L148.209 211.267L148.17 211.287L149.526 213.956ZM150.077 213.576L148.148 211.286L148.051 211.368L147.961 211.457L150.077 213.576ZM176.679 197.89L175.641 195.081L176.679 197.89ZM207.242 192.315L207.274 195.311L207.275 195.311L207.242 192.315ZM226.131 193.682L226.606 190.721L226.605 190.721L226.131 193.682ZM228.586 192.272L231.55 192.741L231.552 192.732L228.586 192.272ZM230.837 178.167L227.871 177.706L227.871 177.707L230.837 178.167ZM234.427 155.692L237.393 156.152L237.393 156.151L234.427 155.692ZM235.252 150.551L238.216 151.022L238.218 151.011L235.252 150.551ZM233.836 148.113L234.317 145.153L234.31 145.151L233.836 148.113ZM185.192 148.041L185.673 150.998L185.192 148.041ZM141.549 163.393L143.016 166.002L143.017 166.002L141.549 163.393ZM119.672 178.649L121.605 180.935L121.606 180.935L119.672 178.649ZM119.658 181.465L117.369 183.413L117.37 183.415L119.658 181.465ZM128.958 192.341L126.671 194.291L126.671 194.291L128.958 192.341ZM143.777 209.664L146.067 207.716L146.064 207.714L143.777 209.664ZM147.169 213.633L149.46 211.687L149.458 211.686L147.169 213.633ZM393.616 117.921L392.717 120.783L392.717 120.784L393.616 117.921ZM365.78 103.909L367.585 101.507L365.78 103.909ZM344.674 81.171L347.191 79.5269L347.19 79.5261L344.674 81.171ZM335.664 64.3691L338.417 63.163L338.415 63.1579L335.664 64.3691ZM332.923 63.6408L331.744 60.8889L331.742 60.8897L332.923 63.6408ZM319.731 69.3216L318.553 66.5692L318.549 66.5707L319.731 69.3216ZM298.716 78.3744L299.892 81.128L299.898 81.1253L298.716 78.3744ZM293.908 80.4449L295.084 83.1985L295.092 83.1951L293.908 80.4449ZM293.173 83.1687L290.417 84.3689L290.419 84.3747L293.173 83.1687ZM319.052 123.71L321.284 121.697L319.052 123.71ZM355.31 151.943L356.726 149.295L356.725 149.295L355.31 151.943ZM379.967 162.116L380.874 159.256L380.863 159.253L379.967 162.116ZM382.423 160.707L379.556 159.825L379.555 159.826L382.423 160.707ZM386.679 147.069L383.813 146.185L383.813 146.187L386.679 147.069ZM393.463 125.335L396.331 126.215L396.332 126.212L393.463 125.335ZM395.016 120.355L392.148 119.476L392.148 119.478L395.016 120.355ZM394.418 118.371L392.372 120.572L392.481 120.673L392.599 120.763L394.418 118.371ZM262.585 81.5876L265.481 82.3726L265.485 82.358L265.489 82.3434L262.585 81.5876ZM250.658 49.1085L252.391 46.6551L250.658 49.1085ZM215.89 49.2368L214.157 46.7957L215.89 49.2368ZM204.227 82.1836L207.109 81.3323L207.109 81.3322L204.227 82.1836ZM231.455 103.852L231.661 100.861L231.455 103.852ZM260.957 86.1111L263.704 87.3118L263.706 87.3068L260.957 86.1111ZM49.1336 230.535L52.029 231.32L52.033 231.306L52.0369 231.291L49.1336 230.535ZM37.2059 198.056L38.9393 195.603L38.939 195.602L37.2059 198.056ZM2.43874 198.184L0.705253 195.743L0.705253 195.743L2.43874 198.184ZM-9.2247 231.131L-6.34235 230.28L-6.34239 230.28L-9.2247 231.131ZM18.0031 252.799L18.2097 249.809L18.0031 252.799ZM47.505 235.059L50.2523 236.259L50.2545 236.254L47.505 235.059ZM183.695 103.342L186.24 101.742L186.238 101.738L183.695 103.342ZM176.068 91.2456L173.525 92.8483L173.526 92.849L176.068 91.2456ZM163.916 71.9759L166.458 70.3713L166.455 70.3667L163.916 71.9759ZM161.133 67.5663L158.592 69.1727L158.594 69.1755L161.133 67.5663ZM158.392 66.838L156.81 64.2962L156.8 64.3028L158.392 66.838ZM155.119 68.8793L156.703 71.4197L156.712 71.4145L155.119 68.8793ZM146.248 74.4077L147.832 76.9484L147.832 76.9481L146.248 74.4077ZM133.099 82.6048L134.682 85.146L134.686 85.1438L133.099 82.6048ZM117.035 92.6189L118.62 95.1591L118.623 95.1572L117.035 92.6189ZM117.014 92.632L118.598 95.1726L118.599 95.1722L117.014 92.632ZM99.5247 103.535L101.109 106.075L101.111 106.074L99.5247 103.535ZM51.274 133.611L49.6896 131.071L49.6876 131.072L51.274 133.611ZM41.8498 139.484L43.4327 142.025L43.4327 142.025L41.8498 139.484ZM41.2076 139.884L39.6247 137.342L39.6234 137.343L41.2076 139.884ZM36.4485 142.849L34.8183 140.338L34.8032 140.348L34.7881 140.358L36.4485 142.849ZM36.2382 142.983L37.8261 145.521L37.8627 145.498L37.8986 145.474L36.2382 142.983ZM35.5023 145.707L32.9577 147.307L32.9596 147.31L35.5023 145.707ZM43.129 157.803L45.6721 156.2L45.6717 156.2L43.129 157.803ZM55.2813 177.073L52.7393 178.677L52.7422 178.682L55.2813 177.073ZM58.0645 181.482L60.6054 179.876L60.6036 179.873L58.0645 181.482ZM60.805 182.211L62.3871 184.752L62.3975 184.746L60.805 182.211ZM64.0779 180.169L62.4938 177.629L62.4854 177.634L64.0779 180.169ZM72.9374 174.648L71.3538 172.108L71.3533 172.108L72.9374 174.648ZM86.098 166.444L84.5135 163.904L84.5115 163.905L86.098 166.444ZM102.162 156.43L100.578 153.889L100.577 153.89L102.162 156.43ZM137.433 134.441L135.848 131.901L135.846 131.902L137.433 134.441ZM153.994 124.122L152.41 121.582L152.409 121.582L153.994 124.122ZM177.99 109.165L176.406 106.625L176.405 106.625L177.99 109.165ZM182.749 106.199L184.379 108.711L184.394 108.701L184.409 108.691L182.749 106.199ZM182.959 106.066L181.378 103.523L181.338 103.548L181.298 103.575L182.959 106.066ZM183.619 105.427L181.265 103.575L181.168 103.697L181.085 103.829L183.619 105.427ZM113.394 396.559L116.242 395.596L116.182 395.419L116.101 395.252L113.394 396.559ZM113.538 396.879L116.294 395.678L116.225 395.519L116.138 395.37L113.538 396.879ZM116.279 397.607L115.1 394.855L114.94 394.924L114.788 395.011L116.279 397.607ZM129.477 391.936L130.655 394.689L130.655 394.689L129.477 391.936ZM150.503 382.903L149.327 380.15L149.324 380.151L150.503 382.903ZM155.318 380.835L154.142 378.081L154.142 378.081L155.318 380.835ZM156.054 378.111L158.81 376.911L158.809 376.907L156.054 378.111ZM154.525 374.587L151.769 375.788L151.771 375.791L154.525 374.587ZM136.72 333.611L133.964 334.809L133.964 334.811L136.72 333.611ZM128.535 314.768L125.778 315.967L128.535 314.768ZM120.875 297.136L118.119 298.337L118.119 298.337L120.875 297.136ZM120.231 295.656L117.475 296.855L117.476 296.857L120.231 295.656ZM112.491 277.839L109.734 279.038L109.734 279.038L112.491 277.839ZM105.978 262.847L108.734 261.648L108.734 261.647L105.978 262.847ZM101.271 252.013L98.5149 253.213L98.5153 253.214L101.271 252.013ZM99.0525 246.896L101.755 245.58L101.751 245.571L101.746 245.562L99.0525 246.896ZM98.9553 246.673L101.742 245.545L101.728 245.51L101.713 245.476L98.9553 246.673ZM96.2148 245.944L97.3932 248.697L97.3943 248.696L96.2148 245.944ZM83.0168 251.615L81.8384 248.863L81.8376 248.863L83.0168 251.615ZM61.9905 260.649L63.1663 263.402L63.1697 263.401L61.9905 260.649ZM57.1752 262.717L55.9995 259.963L57.1752 262.717ZM56.4394 265.441L53.6834 266.641L53.6849 266.644L56.4394 265.441ZM57.9684 268.964L60.7242 267.764L60.7229 267.761L57.9684 268.964ZM68.2626 292.655L71.0332 291.49L71.0259 291.472L71.0184 291.455L68.2626 292.655ZM68.263 292.656L65.4924 293.822L65.4995 293.839L65.5068 293.856L68.263 292.656ZM75.7734 309.941L78.5293 308.741L78.5284 308.739L75.7734 309.941ZM92.2622 347.896L95.0185 346.697L95.0182 346.696L92.2622 347.896ZM100.003 365.713L97.2466 366.912L97.247 366.913L100.003 365.713ZM111.222 391.538L113.979 390.339L113.978 390.338L111.222 391.538ZM304.344 133.294L307.13 132.166L307.109 132.114L307.086 132.064L304.344 133.294ZM301.603 132.566L302.817 135.302L302.959 135.239L303.093 135.162L301.603 132.566ZM288.484 138.406L287.269 135.669L287.268 135.67L288.484 138.406ZM267.581 147.72L266.365 144.983L266.36 144.986L267.581 147.72ZM262.797 149.854L264.012 152.591L264.019 152.588L262.797 149.854ZM262.062 152.578L264.806 151.35L264.802 151.343L262.062 152.578ZM263.638 156.081L260.894 157.309L260.898 157.317L263.638 156.081ZM267.905 165.561L265.165 166.797L265.166 166.799L267.905 165.561ZM274.249 179.642L276.989 178.405L276.988 178.404L274.249 179.642ZM298.984 234.558L296.244 235.795L296.244 235.796L298.984 234.558ZM306.959 252.273L304.219 253.508L304.219 253.509L306.959 252.273ZM318.518 277.949L315.778 279.185L315.78 279.191L318.518 277.949ZM320.811 283.036L323.505 281.702L323.499 281.69L323.493 281.679L320.811 283.036ZM320.908 283.259L323.701 282.148L323.697 282.14L323.694 282.131L320.908 283.259ZM320.908 283.26L318.115 284.371L318.14 284.434L318.167 284.495L320.908 283.26ZM323.648 283.988L324.863 286.725L324.863 286.725L323.648 283.988ZM336.768 278.148L337.982 280.885L337.983 280.884L336.768 278.148ZM357.671 268.834L358.886 271.571L358.892 271.568L357.671 268.834ZM362.454 266.7L361.24 263.963L361.233 263.966L362.454 266.7ZM363.19 263.976L365.93 262.741L365.93 262.74L363.19 263.976ZM351.002 236.912L348.262 238.149L348.262 238.149L351.002 236.912ZM343.264 219.731L340.524 220.966L340.524 220.967L343.264 219.731ZM334.826 200.995L332.086 202.232L332.087 202.232L334.826 200.995ZM326.268 181.996L329.008 180.759L329.007 180.758L326.268 181.996ZM318.292 164.281L321.033 163.046L321.032 163.045L318.292 164.281ZM311.582 149.377L314.323 148.144L314.322 148.141L311.582 149.377ZM306.734 138.605L309.474 137.369L309.471 137.363L306.734 138.605ZM304.441 133.518L301.747 134.852L301.753 134.863L301.759 134.875L304.441 133.518ZM94.2256 78.6058L96.253 80.8096L96.2532 80.8094L94.2256 78.6058ZM107.587 66.3396L105.559 64.1368L105.558 64.1375L107.587 66.3396ZM128.693 46.9694L130.72 49.1731L130.725 49.1687L128.693 46.9694ZM133.538 42.5173L131.511 40.3134L131.506 40.318L133.538 42.5173ZM133.552 39.7007L131.346 41.7419L131.351 41.7475L131.357 41.7532L133.552 39.7007ZM121.221 26.4366L123.427 24.3955L123.425 24.3931L121.221 26.4366ZM101.739 5.49094L103.943 3.44737L103.941 3.44521L101.739 5.49094ZM97.2632 0.681131L95.0567 2.72191L95.0614 2.72686L97.2632 0.681131ZM94.4285 0.66997L96.456 2.87358L96.4618 2.8683L96.4675 2.863L94.4285 0.66997ZM81.0668 12.9361L79.0377 10.734L79.0377 10.734L81.0668 12.9361ZM59.969 32.3084L57.9399 30.1063L57.9369 30.1091L59.969 32.3084ZM55.1238 36.7605L57.151 38.9645L57.156 38.9598L55.1238 36.7605ZM55.1097 39.5771L57.3158 37.536L57.3105 37.5303L57.3052 37.5246L55.1097 39.5771ZM67.4407 52.8412L65.236 54.8839L65.2368 54.8848L67.4407 52.8412ZM86.9154 73.7848L84.7116 75.8284L84.7136 75.8306L86.9154 73.7848ZM91.391 78.5946L93.5938 76.5501L93.5928 76.5489L91.391 78.5946ZM93.4504 79.0656L92.5501 76.2096L92.4093 76.2543L92.2735 76.3125L93.4504 79.0656ZM218.329 295.014L215.746 293.494L215.742 293.502L218.329 295.014ZM219.044 297.744L217.683 300.421L217.69 300.424L217.697 300.428L219.044 297.744ZM235.299 305.817L236.646 303.133L236.642 303.131L235.299 305.817ZM260.978 318.571L262.323 315.886L262.322 315.886L260.978 318.571ZM260.994 318.579L259.649 321.263L259.649 321.263L260.994 318.579ZM266.874 321.498L268.228 318.818L268.221 318.815L266.874 321.498ZM269.622 320.786L272.301 322.13L272.304 322.125L269.622 320.786ZM277.763 304.625L275.082 303.285L275.08 303.289L277.763 304.625ZM290.625 279.097L293.307 280.437L293.307 280.436L290.625 279.097ZM290.635 279.078L293.317 280.417L293.317 280.416L290.635 279.078ZM293.578 273.235L290.9 271.888L290.897 271.895L293.578 273.235ZM292.863 270.505L294.215 267.824L294.21 267.821L292.863 270.505ZM276.608 262.432L275.262 265.116L275.265 265.118L276.608 262.432ZM250.921 249.672L252.267 246.988L252.266 246.988L250.921 249.672ZM245.041 246.753L243.687 249.433L243.694 249.436L245.041 246.753ZM242.292 247.465L239.613 246.121L239.611 246.126L242.292 247.465ZM234.151 263.626L236.832 264.968L236.835 264.962L234.151 263.626ZM234.145 263.639L231.465 262.297L231.463 262.3L234.145 263.639ZM221.292 289.146L223.974 290.484L223.974 290.484L221.292 289.146ZM218.364 294.957L220.896 296.56L220.977 296.432L221.046 296.297L218.364 294.957ZM-1.03777 361.278L-2.0062 358.445L-2.01045 358.446L-1.03777 361.278ZM16.1483 355.372L15.1798 352.539L15.1768 352.54L16.1483 355.372ZM43.3024 346.046L44.2709 348.88L44.2761 348.878L43.3024 346.046ZM49.5404 343.902L50.514 346.734L50.5157 346.733L49.5404 343.902ZM50.948 341.456L53.7903 340.478L53.7861 340.466L50.948 341.456ZM45.022 324.385L47.86 323.396L47.8596 323.394L45.022 324.385ZM35.6618 297.421L38.4994 296.43L38.4981 296.426L35.6618 297.421ZM33.5106 291.225L36.3468 290.23L36.3463 290.229L33.5106 291.225ZM31.0501 289.829L30.0938 286.991L30.0816 286.996L31.0501 289.829ZM13.864 295.735L14.8338 298.568L14.8355 298.567L13.864 295.735ZM-13.2824 305.063L-14.2522 302.23L-14.2561 302.232L-13.2824 305.063ZM-19.5203 307.207L-20.494 304.376L-20.4956 304.376L-19.5203 307.207ZM-20.928 309.653L-23.7703 310.631L-23.7661 310.643L-20.928 309.653ZM-15.0019 326.724L-12.1643 325.733L-12.1649 325.731L-15.0019 326.724ZM-5.64177 353.688L-8.47937 354.679L-8.47803 354.683L-5.64177 353.688ZM-3.49055 359.884L-0.652295 358.895L-0.654286 358.889L-3.49055 359.884ZM-3.22808 360.408L-0.543556 359.055L-0.636079 358.872L-0.752986 358.702L-3.22808 360.408ZM305.097 420.264L302.114 419.923L302.093 420.098L302.093 420.275L305.097 420.264ZM332.405 365.86L334.475 368.024L334.475 368.024L332.405 365.86ZM347.113 354.109L348.79 356.589L348.801 356.581L347.113 354.109ZM347.849 351.385L350.338 349.7L350.337 349.698L347.849 351.385ZM339.809 339.558L342.298 337.872L342.296 337.87L339.809 339.558ZM326.992 320.722L324.506 322.412L324.507 322.412L326.992 320.722ZM324.058 316.412L321.564 318.091L321.571 318.101L321.577 318.111L324.058 316.412ZM321.317 315.684L319.65 313.197L319.642 313.202L321.317 315.684ZM285.669 348.714L283.292 346.89L283.291 346.891L285.669 348.714ZM264.392 389.389L267.254 390.286L267.254 390.286L264.392 389.389ZM258.86 415.488L261.841 415.833L261.842 415.829L258.86 415.488ZM260.88 417.468L260.51 420.444L260.521 420.445L260.531 420.446L260.88 417.468ZM275.153 419.092L275.503 416.115L275.502 416.115L275.153 419.092ZM297.901 421.683L298.252 418.705L298.252 418.705L297.901 421.683ZM303.109 422.275L302.758 425.253L302.761 425.253L303.109 422.275ZM199.775 277.365L202.67 278.15L202.674 278.135L202.678 278.121L199.775 277.365ZM187.847 244.886L189.58 242.432L187.847 244.886ZM153.08 245.014L151.346 242.573L153.08 245.014ZM141.416 277.961L144.299 277.109L144.299 277.109L141.416 277.961ZM168.644 299.629L168.851 296.638L168.644 299.629ZM198.146 281.888L200.893 283.089L200.895 283.084L198.146 281.888ZM242.621 378.169L245.516 378.954L245.52 378.939L245.524 378.925L242.621 378.169ZM230.693 345.69L232.427 343.236L230.693 345.69ZM195.926 345.818L194.193 343.377L195.926 345.818ZM184.263 378.765L187.145 377.914L187.145 377.913L184.263 378.765ZM211.49 400.433L211.697 397.443L211.49 400.433ZM240.992 382.692L243.74 383.893L243.742 383.888L240.992 382.692ZM147.233 217.026C148.53 217.379 149.827 217.162 150.882 216.625L148.17 211.287C148.283 211.23 148.519 211.158 148.832 211.243L147.233 217.026ZM152.006 215.866C159.677 209.424 168.365 204.168 177.717 200.699L175.641 195.081C165.575 198.817 156.292 204.446 148.148 211.286L152.006 215.866ZM177.717 200.699C187.109 197.213 197.163 195.455 207.274 195.311L207.21 189.318C196.465 189.471 185.725 191.339 175.641 195.081L177.717 200.699ZM207.275 195.311C213.415 195.221 219.569 195.692 225.656 196.643L226.605 190.721C220.208 189.722 213.714 189.223 207.208 189.318L207.275 195.311ZM225.656 196.643C226.681 196.803 227.879 196.686 228.961 196.161C230.115 195.601 231.268 194.481 231.55 192.741L225.621 191.803C225.661 191.561 225.771 191.314 225.939 191.108C226.096 190.917 226.257 190.818 226.349 190.773C226.44 190.729 226.498 190.72 226.515 190.718C226.532 190.715 226.558 190.713 226.606 190.721L225.656 196.643ZM231.552 192.732C231.925 190.383 232.301 188.033 232.677 185.681C233.053 183.33 233.429 180.977 233.802 178.626L227.871 177.707C227.497 180.056 227.122 182.406 226.746 184.758C226.37 187.109 225.994 189.462 225.62 191.813L231.552 192.732ZM233.802 178.627C234.399 174.882 234.998 171.137 235.597 167.391C236.196 163.646 236.796 159.899 237.393 156.152L231.461 155.231C230.864 158.976 230.265 162.721 229.666 166.467C229.067 170.212 228.468 173.959 227.871 177.706L233.802 178.627ZM237.393 156.151C237.666 154.433 237.938 152.722 238.216 151.022L232.288 150.079C232.008 151.793 231.734 153.516 231.461 155.232L237.393 156.151ZM238.218 151.011C238.383 149.975 238.259 148.777 237.73 147.705C237.168 146.564 236.051 145.428 234.317 145.153L233.355 151.072C233.113 151.034 232.869 150.926 232.668 150.763C232.481 150.612 232.384 150.456 232.339 150.365C232.295 150.276 232.285 150.218 232.282 150.198C232.28 150.177 232.277 150.145 232.286 150.09L238.218 151.011ZM234.31 145.151C217.909 142.596 201.184 142.358 184.711 145.085L185.673 150.998C201.441 148.388 217.517 148.605 233.363 151.074L234.31 145.151ZM184.711 145.085C168.234 147.811 153.881 153.022 140.082 160.783L143.017 166.002C156.221 158.575 169.908 153.606 185.673 150.998L184.711 145.085ZM140.082 160.783C132.136 165.251 124.673 170.512 117.738 176.363L121.606 180.935C128.275 175.309 135.427 170.27 143.016 166.002L140.082 160.783ZM117.739 176.362C116.457 177.443 116.036 178.929 116.092 180.19C116.147 181.394 116.626 182.543 117.369 183.413L121.947 179.517C122.034 179.619 122.085 179.727 122.093 179.899C122.097 180.003 122.086 180.171 122.007 180.372C121.924 180.585 121.784 180.784 121.605 180.935L117.739 176.362ZM117.37 183.415C118.921 185.23 120.471 187.042 122.021 188.853C123.571 190.665 125.12 192.477 126.671 194.291L131.246 190.391C129.694 188.576 128.144 186.764 126.595 184.953C125.045 183.141 123.496 181.329 121.945 179.516L117.37 183.415ZM126.671 194.291C129.14 197.178 131.611 200.066 134.081 202.953C136.552 205.84 139.022 208.727 141.49 211.614L146.064 207.714C143.596 204.826 141.125 201.939 138.654 199.051C136.184 196.164 133.714 193.277 131.245 190.391L126.671 194.291ZM141.488 211.611C142.053 212.274 142.62 212.937 143.186 213.598C143.752 214.26 144.317 214.921 144.879 215.58L149.458 211.686C148.893 211.023 148.326 210.359 147.76 209.698C147.194 209.036 146.629 208.376 146.067 207.716L141.488 211.611ZM144.878 215.579C145.59 216.414 146.504 216.864 147.356 217.057L148.709 211.213C148.891 211.254 149.196 211.378 149.46 211.687L144.878 215.579ZM150.804 216.663C151.283 216.437 151.766 216.12 152.193 215.695L147.961 211.457C148.08 211.339 148.185 211.278 148.248 211.249L150.804 216.663ZM394.515 115.058C384.815 112.056 375.673 107.548 367.585 101.507L363.975 106.311C372.651 112.791 382.417 117.596 392.717 120.783L394.515 115.058ZM367.585 101.507C359.513 95.4782 352.693 87.9414 347.191 79.5269L342.158 82.8151C347.999 91.7483 355.284 99.819 363.975 106.311L367.585 101.507ZM347.19 79.5261C343.804 74.3515 340.908 68.8616 338.417 63.163L332.91 65.5753C335.517 71.5398 338.568 77.3287 342.158 82.8159L347.19 79.5261ZM338.415 63.1579C337.695 61.5183 336.265 60.751 335.027 60.5162C333.861 60.2953 332.684 60.4847 331.744 60.8889L334.103 66.3927C334.059 66.4114 334.039 66.4139 334.031 66.415C334.023 66.4159 333.975 66.4219 333.886 66.405C333.795 66.3877 333.617 66.3375 333.415 66.1935C333.197 66.038 333.018 65.8205 332.913 65.5804L338.415 63.1579ZM331.742 60.8897C327.343 62.7837 322.953 64.6801 318.553 66.5692L320.909 72.074C325.313 70.1837 329.716 68.2814 334.105 66.392L331.742 60.8897ZM318.549 66.5707L297.534 75.6236L299.898 81.1253L320.913 72.0724L318.549 66.5707ZM297.54 75.6209C295.931 76.31 294.319 77.007 292.725 77.6948L295.092 83.1951C296.692 82.5048 298.292 81.8127 299.892 81.128L297.54 75.6209ZM292.733 77.6914C291.066 78.4048 290.285 79.8445 290.045 81.0857C289.82 82.252 290.009 83.4298 290.417 84.3689L295.929 81.9685C295.949 82.0146 295.952 82.0374 295.953 82.0473C295.954 82.0569 295.96 82.1074 295.942 82.2001C295.924 82.2941 295.872 82.4771 295.721 82.685C295.559 82.9097 295.333 83.0921 295.084 83.1984L292.733 77.6914ZM290.419 84.3747C296.979 99.3889 305.75 113.493 316.821 125.723L321.284 121.697C310.692 109.994 302.256 96.4506 295.926 81.9628L290.419 84.3747ZM316.821 125.723C327.888 137.951 339.975 147.216 353.894 154.591L356.725 149.295C343.411 142.24 331.879 133.402 321.284 121.697L316.821 125.723ZM353.894 154.591C361.93 158.851 370.394 162.304 379.072 164.98L380.863 159.253C372.523 156.68 364.41 153.369 356.726 149.295L353.894 154.591ZM379.061 164.977C382.047 165.909 384.596 163.815 385.29 161.588L379.555 159.826C379.624 159.607 379.753 159.455 379.92 159.354C380.112 159.236 380.469 159.13 380.874 159.256L379.061 164.977ZM385.289 161.589L389.546 147.951L383.813 146.187L379.556 159.825L385.289 161.589ZM389.546 147.952C391.809 140.711 394.075 133.46 396.331 126.215L390.596 124.455C388.341 131.697 386.076 138.944 383.813 146.185L389.546 147.952ZM396.332 126.212C396.588 125.385 396.847 124.559 397.106 123.728C397.366 122.899 397.626 122.066 397.885 121.231L392.148 119.478C391.891 120.304 391.633 121.131 391.373 121.962C391.114 122.791 390.854 123.624 390.595 124.458L396.332 126.212ZM397.884 121.233C398.557 119.07 397.721 117.102 396.236 115.98L392.599 120.763C392.463 120.66 392.286 120.467 392.184 120.169C392.076 119.853 392.112 119.592 392.148 119.476L397.884 121.233ZM396.463 116.17C395.909 115.657 395.245 115.284 394.514 115.058L392.717 120.784C392.642 120.76 392.51 120.7 392.372 120.572L396.463 116.17ZM265.489 82.3434C269.037 68.9383 263.747 54.6261 252.391 46.6551L248.924 51.5619C258.255 58.111 262.582 69.8745 259.682 80.8318L265.489 82.3434ZM252.391 46.6551C241 38.66 225.399 38.8252 214.157 46.7957L217.624 51.6779C226.805 45.1686 239.628 45.037 248.924 51.5619L252.391 46.6551ZM214.157 46.7957C202.937 54.7502 197.382 69.5266 201.345 83.0351L207.109 81.3322C203.893 70.3694 208.42 58.2032 217.624 51.6779L214.157 46.7957ZM201.345 83.0349C205.256 96.3706 217.336 105.934 231.248 106.842L231.661 100.861C220.232 100.115 210.307 92.2349 207.109 81.3323L201.345 83.0349ZM231.248 106.842C245.179 107.752 258.215 99.7398 263.704 87.3118L258.209 84.9104C253.743 95.0221 243.072 101.606 231.661 100.861L231.248 106.842ZM263.706 87.3068C264.4 85.7278 265.008 84.0879 265.481 82.3726L259.69 80.8026C259.307 82.1917 258.805 83.5554 258.207 84.9154L263.706 87.3068ZM52.0369 231.291C55.5852 217.886 50.2959 203.574 38.9393 195.603L35.4725 200.509C44.8032 207.058 49.1307 218.822 46.2303 229.779L52.0369 231.291ZM38.939 195.602C27.6439 187.677 11.9529 187.769 0.705253 195.743L4.17222 200.625C13.3479 194.12 26.2612 194.046 35.4728 200.51L38.939 195.602ZM0.705253 195.743C-10.5143 203.698 -16.0701 218.474 -12.107 231.983L-6.34239 230.28C-9.55865 219.317 -5.03149 207.151 4.17222 200.625L0.705253 195.743ZM-12.1071 231.982C-8.19547 245.318 3.88482 254.881 17.7964 255.79L18.2097 249.809C6.78037 249.062 -3.14443 241.182 -6.34235 230.28L-12.1071 231.982ZM17.7964 255.79C31.7271 256.7 44.763 248.687 50.2523 236.259L44.7578 233.858C40.2916 243.97 29.62 250.554 18.2097 249.809L17.7964 255.79ZM50.2545 236.254C50.9485 234.675 51.5565 233.035 52.029 231.32L46.2382 229.75C45.8555 231.139 45.3534 232.503 44.7556 233.863L50.2545 236.254ZM186.238 101.738C184.966 99.7229 183.696 97.7077 182.425 95.6917C181.155 93.676 179.884 91.6594 178.611 89.6421L173.526 92.849C174.797 94.8645 176.067 96.8797 177.338 98.8957C178.608 100.911 179.879 102.928 181.152 104.945L186.238 101.738ZM178.611 89.6428C174.564 83.2256 170.515 76.7943 166.458 70.3713L161.374 73.5804C165.43 80.0015 169.474 86.4256 173.525 92.8483L178.611 89.6428ZM166.455 70.3667C165.993 69.6375 165.532 68.9062 165.069 68.1701C164.606 67.4354 164.14 66.6959 163.672 65.9572L158.594 69.1755C159.056 69.9047 159.517 70.636 159.98 71.3721C160.443 72.1068 160.908 72.8463 161.377 73.585L166.455 70.3667ZM163.674 65.96C162.427 63.9897 159.447 62.6563 156.81 64.2963L159.974 69.3798C159.621 69.5992 159.261 69.5869 159.054 69.5263C158.874 69.4737 158.713 69.3644 158.592 69.1727L163.674 65.96ZM156.8 64.3028C156.262 64.6405 155.721 64.9765 155.175 65.3164C154.629 65.6553 154.078 65.9981 153.527 66.3441L156.712 71.4145C157.25 71.0767 157.79 70.7408 158.337 70.4008C158.882 70.062 159.434 69.7191 159.985 69.3732L156.8 64.3028ZM144.664 71.8669C140.279 74.5984 135.892 77.331 131.513 80.0659L134.686 85.1438C139.062 82.4111 143.446 79.6803 147.832 76.9484L144.664 71.8669ZM131.516 80.0637C126.16 83.3982 120.801 86.7344 115.448 90.0806L118.623 95.1572C123.971 91.8144 129.325 88.481 134.682 85.146L131.516 80.0637ZM115.451 90.0787L115.43 90.0918L118.599 95.1722L118.62 95.1591L115.451 90.0787ZM115.431 90.0913C109.602 93.723 103.771 97.3554 97.9388 100.996L101.111 106.074C106.941 102.436 112.769 98.8045 118.598 95.1726L115.431 90.0913ZM49.6876 131.072C46.5502 133.031 43.4058 134.989 40.267 136.942L43.4327 142.025C46.571 140.071 49.7189 138.112 52.8604 136.15L49.6876 131.072ZM40.267 136.942L39.6247 137.342L42.7904 142.425L43.4327 142.025L40.267 136.942ZM39.6234 137.343C38.1027 138.291 36.4144 139.303 34.8183 140.338L38.0787 145.36C39.6214 144.36 41.1397 143.453 42.7917 142.424L39.6234 137.343ZM34.7881 140.358C34.799 140.351 34.8043 140.348 34.7637 140.373C34.7345 140.391 34.6594 140.437 34.5777 140.492L37.8986 145.474C37.8877 145.482 37.8824 145.485 37.923 145.459C37.9522 145.441 38.0273 145.395 38.109 145.341L34.7881 140.358ZM34.6502 140.445C32.6584 141.69 31.3025 144.678 32.9577 147.307L38.047 144.106C38.2681 144.458 38.2588 144.825 38.1936 145.044C38.1371 145.234 38.0205 145.4 37.8261 145.521L34.6502 140.445ZM32.9596 147.31C34.2314 149.326 35.5014 151.341 36.772 153.357C38.0424 155.373 39.3133 157.389 40.5862 159.407L45.6717 156.2C44.3999 154.184 43.1299 152.169 41.8593 150.153C40.5889 148.137 39.318 146.121 38.0451 144.103L32.9596 147.31ZM40.5858 159.406C44.6329 165.823 48.682 172.254 52.7393 178.677L57.8233 175.468C53.7673 169.047 49.7228 162.623 45.6721 156.2L40.5858 159.406ZM52.7422 178.682C53.2046 179.411 53.6651 180.142 54.1286 180.879C54.5912 181.613 55.0568 182.353 55.5254 183.091L60.6036 179.873C60.1412 179.144 59.6807 178.413 59.2172 177.677C58.7546 176.942 58.289 176.202 57.8204 175.464L52.7422 178.682ZM55.5236 183.089C56.77 185.059 59.7507 186.392 62.387 184.752L59.2229 179.669C59.5758 179.449 59.9363 179.462 60.1434 179.522C60.3232 179.575 60.4841 179.684 60.6054 179.876L55.5236 183.089ZM62.3975 184.746C62.9355 184.408 63.4759 184.072 64.0228 183.732C64.5678 183.393 65.1194 183.051 65.6704 182.705L62.4854 177.634C61.9474 177.972 61.4071 178.308 60.8602 178.648C60.3151 178.987 59.7636 179.33 59.2125 179.675L62.3975 184.746ZM65.6621 182.71L74.5216 177.189L71.3533 172.108L62.4938 177.629L65.6621 182.71ZM74.521 177.189C78.9102 174.455 83.3011 171.72 87.6845 168.983L84.5115 163.905C80.1315 166.64 75.7435 169.373 71.3538 172.108L74.521 177.189ZM87.6825 168.984L103.746 158.97L100.577 153.89L84.5135 163.904L87.6825 168.984ZM103.746 158.97C109.582 155.334 115.419 151.698 121.258 148.053L118.087 142.974C112.25 146.617 106.414 150.253 100.578 153.889L103.746 158.97ZM121.258 148.053C127.083 144.418 133.108 140.672 139.02 136.98L135.846 131.902C129.92 135.603 123.939 139.322 118.087 142.974L121.258 148.053ZM139.018 136.981C141.776 135.262 144.536 133.542 147.297 131.823C150.058 130.103 152.819 128.383 155.579 126.662L152.409 121.582C149.651 123.302 146.891 125.021 144.13 126.741C141.369 128.461 138.608 130.181 135.848 131.901L139.018 136.981ZM179.574 111.706C181.095 110.758 182.783 109.746 184.379 108.711L181.119 103.688C179.576 104.689 178.058 105.595 176.406 106.625L179.574 111.706ZM184.409 108.691C184.398 108.698 184.392 108.701 184.433 108.676C184.462 108.658 184.538 108.611 184.62 108.557L181.298 103.575C181.31 103.567 181.315 103.564 181.275 103.589C181.246 103.607 181.17 103.654 181.088 103.708L184.409 108.691ZM184.54 108.608C185.193 108.202 185.745 107.669 186.154 107.025L181.085 103.829C181.189 103.663 181.307 103.567 181.378 103.523L184.54 108.608ZM185.974 107.279C187.142 105.802 187.451 103.667 186.24 101.742L181.15 104.941C181.087 104.842 180.984 104.6 181.009 104.264C181.032 103.946 181.157 103.711 181.265 103.575L185.974 107.279ZM110.547 397.522C110.644 397.811 110.773 398.103 110.939 398.389L116.138 395.37C116.188 395.456 116.22 395.533 116.242 395.596L110.547 397.522ZM117.457 400.36C119.659 399.415 121.859 398.469 124.058 397.524C126.257 396.578 128.455 395.633 130.655 394.689L128.298 389.184C126.096 390.129 123.897 391.075 121.698 392.02C119.499 392.966 117.3 393.911 115.1 394.855L117.457 400.36ZM130.655 394.689C134.161 393.183 137.666 391.677 141.169 390.172C144.673 388.666 148.176 387.16 151.682 385.655L149.324 380.151C145.818 381.656 142.314 383.162 138.81 384.668C135.306 386.174 131.803 387.679 128.298 389.184L130.655 394.689ZM151.679 385.657C152.484 385.312 153.289 384.965 154.091 384.62C154.894 384.275 155.695 383.93 156.494 383.588L154.142 378.081C153.337 378.426 152.532 378.772 151.73 379.117C150.927 379.463 150.127 379.807 149.327 380.15L151.679 385.657ZM156.494 383.588C158.16 382.875 158.942 381.435 159.182 380.194C159.407 379.027 159.218 377.85 158.81 376.911L153.298 379.311C153.278 379.265 153.275 379.242 153.274 379.232C153.272 379.223 153.266 379.172 153.284 379.079C153.303 378.985 153.355 378.802 153.505 378.595C153.668 378.37 153.894 378.187 154.142 378.081L156.494 383.588ZM158.809 376.907C158.554 376.324 158.301 375.74 158.047 375.152C157.793 374.566 157.537 373.975 157.28 373.384L151.771 375.791C152.025 376.374 152.278 376.958 152.532 377.546C152.786 378.132 153.042 378.723 153.3 379.314L158.809 376.907ZM139.477 332.412C138.114 329.269 136.748 326.128 135.383 322.988C134.018 319.848 132.653 316.71 131.291 313.57L125.778 315.967C127.141 319.11 128.507 322.251 129.872 325.39C131.237 328.531 132.601 331.669 133.964 334.809L139.477 332.412ZM131.291 313.57C128.776 307.772 126.19 301.822 123.63 295.935L118.119 298.337C120.679 304.224 123.264 310.172 125.778 315.967L131.291 313.57ZM123.63 295.935L122.987 294.455L117.476 296.857L118.119 298.337L123.63 295.935ZM122.988 294.456C121.698 291.486 120.407 288.516 119.117 285.546C117.826 282.577 116.535 279.608 115.247 276.639L109.734 279.038C111.023 282.008 112.314 284.978 113.605 287.948C114.896 290.918 116.186 293.887 117.475 296.855L122.988 294.456ZM115.247 276.64C114.162 274.14 113.076 271.641 111.99 269.142C110.904 266.643 109.818 264.145 108.734 261.648L103.222 264.046C104.306 266.546 105.393 269.045 106.479 271.544C107.565 274.043 108.65 276.541 109.734 279.038L115.247 276.64ZM108.734 261.647L104.027 250.813L98.5153 253.214L103.222 264.047L108.734 261.647ZM104.027 250.814C103.366 249.29 102.598 247.313 101.755 245.58L96.3501 248.213C97.1286 249.813 97.7034 251.344 98.5149 253.213L104.027 250.814ZM101.746 245.562C101.759 245.588 101.765 245.603 101.765 245.601C101.764 245.6 101.762 245.596 101.758 245.586C101.756 245.581 101.754 245.576 101.751 245.569C101.748 245.562 101.745 245.554 101.742 245.545L96.1691 247.801C96.1938 247.862 96.2635 248.038 96.3586 248.23L101.746 245.562ZM101.713 245.476C100.997 243.821 99.5551 243.055 98.3215 242.821C97.1581 242.6 95.9793 242.787 95.0353 243.192L97.3943 248.696C97.3488 248.716 97.3279 248.718 97.3209 248.719C97.3142 248.72 97.2677 248.726 97.1797 248.709C97.0906 248.692 96.9126 248.642 96.7085 248.497C96.4878 248.339 96.3052 248.117 96.1977 247.869L101.713 245.476ZM95.0364 243.192C92.8346 244.137 90.6349 245.083 88.436 246.028C86.2368 246.973 84.0385 247.918 81.8384 248.863L84.1952 254.368C86.397 253.422 88.5968 252.477 90.7957 251.532C92.9948 250.586 95.1931 249.641 97.3932 248.697L95.0364 243.192ZM81.8376 248.863L60.8113 257.897L63.1697 263.401L84.196 254.367L81.8376 248.863ZM60.8148 257.895C60.0097 258.24 59.2045 258.586 58.4022 258.931C57.599 259.277 56.7988 259.621 55.9995 259.963L58.351 265.471C59.1561 265.126 59.9613 264.779 60.7636 264.434C61.5667 264.089 62.367 263.744 63.1663 263.402L60.8148 257.895ZM55.9995 259.963C54.3332 260.677 53.5514 262.117 53.3117 263.358C53.0864 264.524 53.2755 265.702 53.6835 266.641L59.1954 264.241C59.2154 264.287 59.2185 264.31 59.2198 264.319C59.221 264.329 59.227 264.38 59.2091 264.472C59.191 264.566 59.1383 264.749 58.9881 264.957C58.8257 265.182 58.5993 265.364 58.351 265.471L55.9995 259.963ZM53.6849 266.644C53.9393 267.228 54.1921 267.812 54.4465 268.4C54.7004 268.986 54.9561 269.577 55.2139 270.168L60.7229 267.761C60.4685 267.177 60.2157 266.593 59.9613 266.006C59.7074 265.419 59.4517 264.829 59.1939 264.237L53.6849 266.644ZM65.4919 293.821L65.4924 293.822L71.0336 291.491L71.0332 291.49L65.4919 293.821ZM65.5068 293.856C68.0075 299.617 70.509 305.379 73.0183 311.143L78.5284 308.739C76.0205 302.978 73.5202 297.218 71.0193 291.457L65.5068 293.856ZM89.5059 349.095C90.7951 352.065 92.0862 355.036 93.3769 358.005C94.6677 360.975 95.9582 363.944 97.2466 366.912L102.759 364.513C101.47 361.543 100.179 358.573 98.8883 355.604C97.5975 352.634 96.307 349.665 95.0185 346.697L89.5059 349.095ZM108.466 392.738C109.114 394.23 109.869 396.17 110.688 397.867L116.101 395.252C115.34 393.672 114.775 392.174 113.979 390.339L108.466 392.738ZM110.783 398.081C111.477 399.678 112.894 400.452 114.06 400.72C115.209 400.985 116.583 400.885 117.769 400.204L114.788 395.011C114.97 394.907 115.114 394.877 115.192 394.867C115.273 394.857 115.35 394.861 115.431 394.88C115.55 394.907 116.029 395.069 116.294 395.678L110.783 398.081ZM300.389 129.829C298.2 130.802 296.013 131.776 293.828 132.75C291.642 133.723 289.456 134.697 287.269 135.669L289.698 141.143C291.887 140.169 294.073 139.195 296.259 138.222C298.445 137.248 300.63 136.275 302.817 135.302L300.389 129.829ZM287.268 135.67C283.782 137.222 280.299 138.775 276.816 140.327C273.333 141.879 269.85 143.432 266.365 144.983L268.796 150.456C272.282 148.903 275.766 147.351 279.249 145.798C282.732 144.246 286.215 142.694 289.699 141.142L287.268 135.67ZM266.36 144.986C265.565 145.342 264.77 145.696 263.973 146.051C263.176 146.406 262.377 146.762 261.576 147.12L264.019 152.588C264.813 152.232 265.608 151.878 266.405 151.523C267.202 151.168 268.001 150.812 268.802 150.453L266.36 144.986ZM261.583 147.117C259.97 147.835 259.187 149.237 258.938 150.476C258.702 151.646 258.885 152.842 259.321 153.813L264.802 151.343C264.828 151.401 264.835 151.437 264.838 151.459C264.84 151.481 264.845 151.539 264.826 151.634C264.807 151.731 264.754 151.906 264.611 152.102C264.459 152.312 264.247 152.486 264.012 152.591L261.583 147.117ZM259.318 153.806C259.582 154.397 259.848 154.987 260.111 155.569C260.375 156.153 260.636 156.731 260.894 157.309L266.382 154.854C266.117 154.262 265.851 153.672 265.588 153.09C265.324 152.506 265.064 151.928 264.806 151.35L259.318 153.806ZM260.898 157.317L265.165 166.797L270.645 164.325L266.378 154.845L260.898 157.317ZM265.166 166.799C266.224 169.145 267.281 171.491 268.337 173.838C269.394 176.184 270.451 178.532 271.51 180.88L276.988 178.404C275.93 176.058 274.874 173.712 273.817 171.365C272.761 169.019 271.704 166.671 270.645 164.323L265.166 166.799ZM296.244 235.796C298.906 241.698 301.565 247.607 304.219 253.508L309.7 251.037C307.046 245.136 304.385 239.225 301.723 233.32L296.244 235.796ZM315.78 279.191C316.459 280.69 317.259 282.674 318.129 284.394L323.493 281.679C322.686 280.083 322.104 278.582 321.255 276.707L315.78 279.191ZM318.117 284.37C318.104 284.345 318.098 284.33 318.099 284.331C318.099 284.332 318.101 284.337 318.105 284.346C318.107 284.351 318.109 284.356 318.112 284.363C318.115 284.37 318.118 284.378 318.121 284.387L323.694 282.131C323.669 282.07 323.6 281.894 323.505 281.702L318.117 284.37ZM318.115 284.37L318.115 284.371L323.701 282.149L323.701 282.148L318.115 284.37ZM318.167 284.495C318.888 286.097 320.291 286.866 321.523 287.109C322.69 287.339 323.887 287.159 324.863 286.725L322.434 281.252C322.491 281.226 322.526 281.22 322.545 281.218C322.564 281.216 322.618 281.211 322.708 281.229C322.8 281.247 322.97 281.297 323.162 281.435C323.369 281.582 323.543 281.79 323.649 282.025L318.167 284.495ZM324.863 286.725C327.051 285.752 329.238 284.778 331.424 283.804C333.61 282.831 335.795 281.857 337.982 280.885L335.553 275.411C333.365 276.385 331.178 277.359 328.992 278.332C326.806 279.306 324.621 280.279 322.434 281.252L324.863 286.725ZM337.983 280.884C341.469 279.332 344.953 277.779 348.436 276.227C351.919 274.675 355.402 273.122 358.886 271.571L356.455 266.098C352.969 267.651 349.486 269.203 346.003 270.756C342.519 272.308 339.037 273.86 335.552 275.412L337.983 280.884ZM358.892 271.568C359.686 271.212 360.481 270.858 361.278 270.503C362.075 270.148 362.875 269.792 363.675 269.434L361.233 263.966C360.438 264.322 359.644 264.676 358.846 265.031C358.05 265.386 357.25 265.742 356.45 266.101L358.892 271.568ZM363.668 269.437C365.282 268.719 366.065 267.317 366.314 266.078C366.549 264.908 366.367 263.712 365.93 262.741L360.449 265.211C360.423 265.153 360.417 265.117 360.414 265.095C360.411 265.073 360.406 265.015 360.425 264.92C360.445 264.823 360.498 264.648 360.64 264.452C360.793 264.242 361.004 264.068 361.24 263.963L363.668 269.437ZM353.742 235.676C351.184 229.995 348.562 224.175 346.004 218.494L340.524 220.967C343.121 226.735 345.666 232.382 348.262 238.149L353.742 235.676ZM346.005 218.496C343.195 212.247 340.383 206.007 337.565 199.757L332.087 202.232C334.904 208.481 337.715 214.72 340.524 220.966L346.005 218.496ZM337.566 199.758L329.008 180.759L323.528 183.233L332.086 202.232L337.566 199.758ZM329.007 180.758C326.346 174.856 323.687 168.947 321.033 163.046L315.552 165.517C318.206 171.418 320.866 177.329 323.529 183.234L329.007 180.758ZM321.032 163.045C318.795 158.076 316.555 153.115 314.323 148.144L308.84 150.611C311.074 155.585 313.319 160.557 315.552 165.518L321.032 163.045ZM314.322 148.141L309.474 137.369L303.994 139.841L308.841 150.613L314.322 148.141ZM309.471 137.363C308.792 135.864 307.992 133.88 307.123 132.16L301.759 134.875C302.566 136.471 303.147 137.972 303.996 139.847L309.471 137.363ZM307.135 132.184C307.147 132.209 307.154 132.225 307.153 132.223C307.152 132.222 307.151 132.217 307.147 132.208C307.145 132.203 307.142 132.197 307.14 132.19C307.137 132.183 307.134 132.176 307.13 132.166L301.557 134.422C301.582 134.483 301.652 134.659 301.747 134.852L307.135 132.184ZM307.086 132.064C306.389 130.506 305.004 129.73 303.832 129.455C302.677 129.185 301.303 129.286 300.113 129.969L303.093 135.162C302.918 135.263 302.774 135.294 302.691 135.304C302.605 135.315 302.524 135.31 302.44 135.291C302.31 135.26 301.858 135.099 301.601 134.524L307.086 132.064ZM96.2532 80.8094C100.71 76.723 105.16 72.6338 109.616 68.5418L105.558 64.1375C101.099 68.2318 96.6529 72.3177 92.1981 76.4022L96.2532 80.8094ZM109.616 68.5424C116.657 62.0815 123.684 55.6238 130.72 49.1731L126.665 44.7657C119.629 51.2169 112.595 57.6805 105.559 64.1368L109.616 68.5424ZM130.725 49.1687C131.529 48.4282 132.336 47.688 133.144 46.9459C133.952 46.2043 134.762 45.4609 135.57 44.7167L131.506 40.318C130.702 41.0585 129.895 41.7988 129.087 42.5409C128.279 43.2825 127.469 44.0259 126.661 44.77L130.725 49.1687ZM135.565 44.7213C137.84 42.6362 137.387 39.3958 135.748 37.6482L131.357 41.7532C131.194 41.5793 131.122 41.3791 131.119 41.1756C131.115 40.9468 131.205 40.5939 131.511 40.3134L135.565 44.7213ZM135.758 37.6596C133.704 35.4468 131.647 33.2356 129.591 31.0255C127.535 28.8152 125.48 26.6059 123.427 24.3955L119.015 28.4778C121.07 30.6906 123.127 32.9018 125.182 35.1118C127.239 37.3222 129.294 39.5314 131.346 41.7419L135.758 37.6596ZM123.425 24.3931C120.178 20.9039 116.932 17.4127 113.685 13.921C110.438 10.4295 107.19 6.93749 103.943 3.44738L99.5349 7.53451C102.782 11.0237 106.028 14.5149 109.275 18.0066C112.522 21.4981 115.77 24.9901 119.017 28.4802L123.425 24.3931ZM103.941 3.44521C103.196 2.64683 102.452 1.84624 101.706 1.04368C100.96 0.241687 100.213 -0.562279 99.465 -1.3646L95.0614 2.72686C95.8058 3.52525 96.55 4.32583 97.296 5.12839C98.0415 5.93039 98.7888 6.73435 99.5369 7.53667L103.941 3.44521ZM99.4696 -1.35964C97.3943 -3.59554 94.157 -3.16063 92.3895 -1.52305L96.4675 2.863C96.2887 3.02866 96.0891 3.09583 95.8946 3.09911C95.676 3.10281 95.3327 3.01923 95.0567 2.7219L99.4696 -1.35964ZM92.401 -1.53364C87.9442 2.55279 83.4944 6.64192 79.0377 10.734L83.0959 15.1383C87.555 11.044 92.0013 6.9581 96.456 2.87358L92.401 -1.53364ZM79.0377 10.734L57.9399 30.1063L61.9982 34.5106L83.0959 15.1383L79.0377 10.734ZM57.9369 30.1091C57.1326 30.8496 56.3262 31.5899 55.5177 32.332C54.7098 33.0736 53.8999 33.817 53.0917 34.5611L57.156 38.9598C57.9602 38.2193 58.7667 37.4791 59.5752 36.737C60.3831 35.9954 61.193 35.252 62.0012 34.5078L57.9369 30.1091ZM53.0967 34.5565C50.8218 36.6416 51.2745 39.882 52.9142 41.6296L57.3052 37.5246C57.4684 37.6986 57.5395 37.8987 57.5428 38.1022C57.5465 38.331 57.457 38.6839 57.151 38.9645L53.0967 34.5565ZM52.9036 41.6183C57.0116 46.0425 61.1224 50.4598 65.236 54.8839L69.6453 50.7985C65.5294 46.372 61.4219 41.9582 57.3158 37.536L52.9036 41.6183ZM65.2368 54.8848C68.4836 58.3737 71.728 61.8641 74.973 65.3553C78.2179 68.8463 81.4634 72.338 84.7116 75.8284L89.1192 71.7413C85.8725 68.2523 82.6281 64.7619 79.3831 61.2707C76.1382 57.7797 72.8926 54.288 69.6445 50.7976L65.2368 54.8848ZM84.7136 75.8306C85.458 76.629 86.2022 77.4295 86.9482 78.2321C87.6937 79.0341 88.441 79.8381 89.1891 80.6404L93.5928 76.5489C92.8483 75.7505 92.1042 74.9499 91.3581 74.1474C90.6127 73.3454 89.8653 72.5414 89.1172 71.7391L84.7136 75.8306ZM89.1881 80.6392C90.7443 82.31 92.8959 82.5607 94.6273 81.8186L92.2735 76.3125C92.4302 76.2453 92.6827 76.1879 92.9875 76.2459C93.3112 76.3075 93.5151 76.4655 93.5938 76.5501L89.1881 80.6392ZM94.3506 81.9215C95.0583 81.697 95.7008 81.3158 96.253 80.8096L92.1983 76.402C92.2567 76.3485 92.374 76.2655 92.5501 76.2096L94.3506 81.9215ZM215.742 293.502C215.041 294.691 214.925 296.061 215.206 297.234C215.491 298.425 216.266 299.707 217.683 300.421L220.404 295.067C220.85 295.292 221.007 295.651 221.048 295.821C221.084 295.972 221.096 296.221 220.916 296.526L215.742 293.502ZM217.697 300.428C223.117 303.121 228.532 305.814 233.957 308.502L236.642 303.131C231.222 300.446 225.812 297.755 220.39 295.06L217.697 300.428ZM233.953 308.5C242.512 312.754 251.071 317.008 259.633 321.255L262.322 315.886C253.762 311.64 245.205 307.387 236.646 303.133L233.953 308.5ZM259.632 321.255L259.649 321.263L262.339 315.895L262.323 315.886L259.632 321.255ZM259.649 321.263C261.612 322.237 263.574 323.211 265.528 324.182L268.221 318.815C266.265 317.842 264.301 316.868 262.339 315.894L259.649 321.263ZM265.52 324.178C266.572 324.705 267.824 324.879 269.014 324.626C270.254 324.362 271.563 323.588 272.301 322.13L266.943 319.441C267.166 319.001 267.558 318.812 267.781 318.764C267.955 318.727 268.09 318.749 268.228 318.818L265.52 324.178ZM272.304 322.125C275.02 316.737 277.736 311.354 280.447 305.961L275.08 303.289C272.372 308.677 269.658 314.056 266.941 319.446L272.304 322.125ZM280.445 305.964C282.59 301.709 284.734 297.454 286.877 293.199C289.02 288.944 291.162 284.69 293.307 280.437L287.944 277.758C285.798 282.013 283.655 286.268 281.512 290.523C279.369 294.777 277.226 299.032 275.082 303.285L280.445 305.964ZM293.307 280.436L293.317 280.417L287.953 277.74L287.943 277.758L293.307 280.436ZM293.317 280.416C294.299 278.466 295.28 276.516 296.26 274.575L290.897 271.895C289.916 273.839 288.934 275.79 287.952 277.741L293.317 280.416ZM296.256 274.582C296.791 273.527 296.969 272.273 296.714 271.084C296.448 269.843 295.668 268.55 294.215 267.824L291.512 273.186C291.083 272.972 290.89 272.589 290.841 272.358C290.802 272.179 290.826 272.034 290.9 271.888L296.256 274.582ZM294.21 267.821C288.79 265.128 283.375 262.435 277.951 259.747L275.265 265.118C280.685 267.803 286.096 270.494 291.517 273.189L294.21 267.821ZM252.266 246.988C250.303 246.014 248.341 245.04 246.387 244.069L243.694 249.436C245.65 250.409 247.614 251.383 249.576 252.357L252.266 246.988ZM246.394 244.073C245.343 243.546 244.091 243.372 242.901 243.625C241.661 243.889 240.352 244.663 239.613 246.121L244.972 248.81C244.749 249.25 244.357 249.439 244.133 249.487C243.96 249.524 243.825 249.502 243.687 249.433L246.394 244.073ZM239.611 246.126C236.894 251.514 234.178 256.897 231.468 262.29L236.835 264.962C239.543 259.573 242.257 254.195 244.974 248.805L239.611 246.126ZM231.471 262.284L231.465 262.297L236.825 264.982L236.832 264.968L231.471 262.284ZM231.463 262.3C227.176 270.804 222.887 279.309 218.609 287.809L223.974 290.484C228.251 281.986 232.539 273.483 236.826 264.979L231.463 262.3ZM218.609 287.809C217.624 289.765 216.665 291.669 215.683 293.617L221.046 296.297C222.029 294.347 222.989 292.441 223.974 290.484L218.609 287.809ZM215.833 293.354C215.803 293.4 215.775 293.446 215.746 293.494L220.912 296.534C220.907 296.543 220.901 296.552 220.896 296.56L215.833 293.354ZM-0.0693513 364.112C5.65323 362.146 11.3903 360.18 17.1198 358.205L15.1768 352.54C9.45131 354.514 3.72206 356.477 -2.00619 358.445L-0.0693513 364.112ZM17.1168 358.206C21.6439 356.651 26.1686 355.097 30.6935 353.543C35.2184 351.989 39.7434 350.435 44.2709 348.88L42.3339 343.213C37.8068 344.768 33.2821 346.322 28.7572 347.876C24.2324 349.43 19.7073 350.984 15.1798 352.539L17.1168 358.206ZM44.2761 348.878C45.3106 348.52 46.3472 348.165 47.3879 347.808C48.4274 347.452 49.4712 347.094 50.514 346.734L48.5667 341.071C47.5322 341.428 46.4956 341.783 45.4549 342.14C44.4154 342.496 43.3717 342.854 42.3288 343.215L44.2761 348.878ZM50.5157 346.733C51.6267 346.349 52.6289 345.579 53.2812 344.551C53.9609 343.479 54.3145 342.011 53.7903 340.478L48.1057 342.433C47.9478 341.972 48.0827 341.558 48.2096 341.358C48.309 341.201 48.4243 341.12 48.5651 341.071L50.5157 346.733ZM53.7861 340.466C52.7992 337.623 51.811 334.776 50.8229 331.931C49.8347 329.085 48.8467 326.239 47.86 323.396L42.1839 325.375C43.1707 328.219 44.1589 331.065 45.1471 333.911C46.1352 336.757 47.1233 339.602 48.1099 342.446L53.7861 340.466ZM47.8596 323.394C46.2982 318.902 44.7393 314.409 43.1801 309.914C41.6209 305.42 40.0614 300.924 38.4994 296.43L32.8242 298.412C34.3855 302.904 35.9444 307.398 37.5037 311.893C39.0629 316.387 40.6224 320.882 42.1844 325.376L47.8596 323.394ZM38.4981 296.426C38.1394 295.399 37.7829 294.369 37.425 293.335C37.0674 292.303 36.7085 291.266 36.3468 290.23L30.6743 292.22C31.033 293.248 31.3895 294.277 31.7474 295.311C32.1049 296.343 32.4639 297.38 32.8255 298.416L38.4981 296.426ZM36.3463 290.229C35.676 288.312 33.2696 285.916 30.0938 286.991L32.0063 292.667C31.5505 292.821 31.1479 292.689 30.9565 292.57C30.8066 292.476 30.7251 292.365 30.6749 292.222L36.3463 290.229ZM30.0816 286.996C24.3591 288.961 18.622 290.927 12.8925 292.903L14.8355 298.567C20.561 296.593 26.2902 294.63 32.0185 292.662L30.0816 286.996ZM12.8942 292.902C8.37166 294.458 3.84761 296.012 -0.677391 297.566C-5.20213 299.119 -9.72782 300.674 -14.2522 302.23L-12.3126 307.896C-7.79009 306.34 -3.26605 304.786 1.25897 303.233C5.7837 301.679 10.3094 300.124 14.8338 298.568L12.8942 292.902ZM-14.2561 302.232C-15.2906 302.589 -16.3272 302.944 -17.3679 303.301C-18.4074 303.657 -19.4511 304.015 -20.494 304.376L-18.5467 310.039C-17.5122 309.681 -16.4756 309.326 -15.4349 308.969C-14.3953 308.613 -13.3516 308.255 -12.3087 307.895L-14.2561 302.232ZM-20.4956 304.376C-21.6067 304.761 -22.6089 305.53 -23.2612 306.558C-23.9409 307.63 -24.2945 309.099 -23.7702 310.631L-18.0857 308.676C-17.9277 309.137 -18.0626 309.551 -18.1896 309.751C-18.289 309.908 -18.4043 309.989 -18.5451 310.038L-20.4956 304.376ZM-23.7661 310.643C-21.7936 316.327 -19.8209 322.026 -17.8389 327.717L-12.1649 325.731C-14.1454 320.044 -16.1154 314.354 -18.0899 308.664L-23.7661 310.643ZM-17.8395 327.715C-16.2782 332.207 -14.7193 336.701 -13.16 341.195C-11.6009 345.69 -10.0414 350.185 -8.47937 354.679L-2.80416 352.697C-4.3655 348.205 -5.92442 343.711 -7.48368 339.217C-9.04284 334.722 -10.6023 330.227 -12.1643 325.733L-17.8395 327.715ZM-8.47803 354.683C-8.11933 355.711 -7.76285 356.74 -7.40492 357.774C-7.04741 358.806 -6.68845 359.843 -6.32682 360.879L-0.654286 358.889C-1.013 357.862 -1.36947 356.832 -1.72739 355.798C-2.0849 354.766 -2.44386 353.729 -2.8055 352.693L-8.47803 354.683ZM-6.3288 360.873C-6.17574 361.315 -5.96717 361.732 -5.70317 362.114L-0.752986 358.702C-0.69919 358.78 -0.668452 358.848 -0.652299 358.895L-6.3288 360.873ZM-5.9126 361.761C-5.47432 362.632 -4.72898 363.484 -3.63745 363.982C-2.50103 364.5 -1.24307 364.517 -0.0651041 364.11L-2.01045 358.446C-1.86747 358.397 -1.51799 358.349 -1.12464 358.529C-0.776178 358.688 -0.608494 358.926 -0.543556 359.055L-5.9126 361.761ZM308.079 420.605C309.257 410.647 312.05 400.863 316.555 391.94L311.193 389.258C306.344 398.862 303.367 409.332 302.114 419.923L308.079 420.605ZM316.555 391.94C321.064 383.006 327.186 374.969 334.475 368.024L330.336 363.696C322.586 371.079 316.036 379.664 311.193 389.258L316.555 391.94ZM334.475 368.024C338.886 363.821 343.696 360.027 348.79 356.589L345.437 351.628C340.098 355.231 335.019 359.233 330.335 363.696L334.475 368.024ZM348.801 356.581C349.749 355.935 350.522 354.953 350.896 353.796C351.288 352.583 351.259 351.059 350.338 349.7L345.359 353.07C345.238 352.891 345.16 352.675 345.137 352.454C345.114 352.244 345.146 352.079 345.18 351.975C345.237 351.8 345.322 351.706 345.425 351.636L348.801 356.581ZM350.337 349.698C348.998 347.724 347.656 345.752 346.316 343.782C344.975 341.811 343.635 339.842 342.298 337.872L337.321 341.245C338.66 343.218 340.002 345.19 341.343 347.161C342.684 349.132 344.023 351.101 345.361 353.071L350.337 349.698ZM342.296 337.87C338.027 331.588 333.749 325.305 329.478 319.032L324.507 322.412C328.778 328.685 333.054 334.967 337.322 341.246L342.296 337.87ZM329.478 319.032C328.505 317.602 327.523 316.151 326.538 314.714L321.577 318.111C322.556 319.538 323.519 320.962 324.506 322.412L329.478 319.032ZM326.551 314.734C325.9 313.767 324.904 313 323.746 312.635C322.539 312.254 321.015 312.283 319.65 313.197L322.984 318.171C322.804 318.292 322.59 318.367 322.377 318.39C322.175 318.412 322.016 318.382 321.916 318.35C321.749 318.297 321.647 318.214 321.564 318.091L326.551 314.734ZM319.642 313.202C305.873 322.482 293.469 333.7 283.292 346.89L288.046 350.537C297.785 337.914 309.696 327.126 322.992 318.166L319.642 313.202ZM283.291 346.891C273.663 359.374 266.293 373.499 261.529 388.493L267.254 390.286C271.806 375.956 278.851 362.459 288.046 350.536L283.291 346.891ZM261.53 388.492C258.762 397.197 256.944 406.132 255.877 415.147L261.842 415.829C262.869 407.142 264.615 398.585 267.254 390.286L261.53 388.492ZM255.878 415.143C255.658 416.974 256.56 418.365 257.524 419.17C258.428 419.925 259.532 420.326 260.51 420.444L261.25 414.493C261.271 414.495 261.281 414.498 261.283 414.498C261.285 414.499 261.285 414.499 261.287 414.5C261.288 414.5 261.296 414.503 261.311 414.512C261.325 414.52 261.352 414.538 261.388 414.568C261.456 414.625 261.594 414.759 261.705 414.998C261.826 415.258 261.875 415.556 261.841 415.833L255.878 415.143ZM260.531 420.446C262.909 420.715 265.286 420.986 267.665 421.258C270.043 421.529 272.423 421.801 274.804 422.07L275.502 416.115C273.124 415.845 270.747 415.574 268.368 415.303C265.99 415.031 263.61 414.76 261.229 414.49L260.531 420.446ZM274.802 422.07L297.55 424.66L298.252 418.705L275.503 416.115L274.802 422.07ZM297.55 424.66C298.42 424.76 299.288 424.858 300.155 424.957C301.022 425.055 301.889 425.154 302.758 425.253L303.461 419.298C302.591 419.199 301.723 419.1 300.855 419.001C299.988 418.903 299.121 418.804 298.252 418.705L297.55 424.66ZM302.761 425.253C304.522 425.452 305.911 424.586 306.722 423.7C307.517 422.831 308.1 421.596 308.1 420.252L302.093 420.275C302.093 420.069 302.138 419.932 302.167 419.864C302.197 419.793 302.236 419.729 302.294 419.666C302.38 419.572 302.776 419.22 303.457 419.297L302.761 425.253ZM202.678 278.121C206.226 264.715 200.937 250.403 189.58 242.432L186.113 247.339C195.444 253.888 199.772 265.652 196.871 276.609L202.678 278.121ZM189.58 242.432C178.189 234.437 162.588 234.602 151.346 242.573L154.813 247.455C163.994 240.946 176.817 240.814 186.113 247.339L189.58 242.432ZM151.346 242.573C140.127 250.527 134.571 265.304 138.534 278.812L144.299 277.109C141.082 266.146 145.609 253.98 154.813 247.455L151.346 242.573ZM138.534 278.812C142.445 292.148 154.526 301.711 168.437 302.619L168.851 296.638C157.421 295.892 147.496 288.012 144.299 277.109L138.534 278.812ZM168.437 302.619C182.368 303.529 195.404 295.517 200.893 283.089L195.399 280.687C190.932 290.799 180.261 297.383 168.851 296.638L168.437 302.619ZM200.895 283.084C201.589 281.505 202.197 279.865 202.67 278.15L196.879 276.58C196.496 277.969 195.994 279.332 195.397 280.692L200.895 283.084ZM245.524 378.925C249.073 365.52 243.783 351.207 232.427 343.236L228.96 348.143C238.291 354.692 242.618 366.456 239.718 377.413L245.524 378.925ZM232.427 343.236C221.036 335.241 205.435 335.406 194.193 343.377L197.66 348.259C206.841 341.75 219.664 341.618 228.96 348.143L232.427 343.236ZM194.193 343.377C182.973 351.331 177.417 366.108 181.38 379.616L187.145 377.913C183.929 366.951 188.456 354.784 197.66 348.259L194.193 343.377ZM181.38 379.616C185.292 392.952 197.372 402.515 211.284 403.424L211.697 397.443C200.268 396.696 190.343 388.816 187.145 377.914L181.38 379.616ZM211.284 403.424C225.215 404.333 238.25 396.321 243.74 383.893L238.245 381.492C233.779 391.603 223.107 398.188 211.697 397.443L211.284 403.424ZM243.742 383.888C244.436 382.309 245.044 380.669 245.516 378.954L239.726 377.384C239.343 378.773 238.841 380.137 238.243 381.497L243.742 383.888ZM153.535 66.3388L144.664 71.8672L147.832 76.9481L156.703 71.4197L153.535 66.3388ZM97.9403 100.995L49.6896 131.071L52.8584 136.151L101.109 106.075L97.9403 100.995ZM155.579 126.663L179.574 111.705L176.405 106.625L152.41 121.582L155.579 126.663ZM157.281 373.387L139.476 332.41L133.964 334.811L151.769 375.788L157.281 373.387ZM55.2125 270.165L65.5067 293.856L71.0184 291.455L60.7242 267.764L55.2125 270.165ZM73.0175 311.141L89.5063 349.096L95.0182 346.696L78.5293 308.741L73.0175 311.141ZM97.247 366.913L108.466 392.738L113.978 390.338L102.759 364.513L97.247 366.913ZM271.509 180.879L296.244 235.795L301.723 233.322L276.989 178.405L271.509 180.879ZM304.219 253.509L315.778 279.185L321.258 276.713L309.699 251.037L304.219 253.509ZM365.93 262.74L353.742 235.676L348.262 238.149L360.45 265.213L365.93 262.74ZM277.953 259.748L252.267 246.988L249.575 252.356L275.262 265.116L277.953 259.748Z" fill="url(#paint0_linear_786_1367)" mask="url(#path-1-inside-1_786_1367)"/>
</g>
<defs>
<linearGradient id="paint0_linear_786_1367" x1="236.02" y1="37.2741" x2="187.238" y2="434.039" gradientUnits="userSpaceOnUse">
<stop stop-color="#F45B01"/>
<stop offset="1" stop-color="#F45B01" stop-opacity="0"/>
</linearGradient>
</defs>
</svg>
