<svg width="248" height="203" viewBox="0 0 248 203" fill="none" xmlns="http://www.w3.org/2000/svg">
<path fill-rule="evenodd" clip-rule="evenodd" d="M214.041 195.112C223.472 180.279 228.934 162.675 228.934 143.797C228.934 90.9009 186.053 48.0205 133.158 48.0205C80.262 48.0205 37.3815 90.9009 37.3815 143.797C37.3815 162.675 42.8438 180.279 52.2741 195.112H214.041Z" fill="#C6C8BD"/>
<path d="M5.19706 85.1003C5.72421 87.9404 7.89662 90.1006 10.5415 90.2614C7.96376 90.4921 5.86202 92.6245 5.34475 95.4115C4.81753 92.5715 2.64512 90.4112 0.000244141 90.2504C2.57805 90.0197 4.67973 87.8874 5.19706 85.1003Z" fill="#C6C8BD"/>
<path d="M222.001 57.8827C222.528 60.7227 224.701 62.883 227.346 63.0437C224.768 63.2744 222.666 65.4068 222.149 68.1938C221.622 65.3538 219.449 63.1935 216.804 63.0328C219.382 62.8021 221.484 60.6697 222.001 57.8827Z" fill="#C6C8BD"/>
<path fill-rule="evenodd" clip-rule="evenodd" d="M41.0443 151.029H7.15951C7.15901 150.978 7.15875 150.926 7.15875 150.875C7.15875 141.973 14.7445 134.756 24.1019 134.756C33.4593 134.756 41.045 141.973 41.045 150.875C41.045 150.926 41.0448 150.978 41.0443 151.029Z" fill="#647D7D"/>
<path d="M61.1744 151.029H27.2896C27.2891 150.898 27.2889 150.767 27.2889 150.636C27.2889 127.822 34.8746 109.328 44.232 109.328C53.5895 109.328 61.1752 127.822 61.1752 150.636C61.1752 150.767 61.1749 150.898 61.1744 151.029Z" fill="#33575E"/>
<path fill-rule="evenodd" clip-rule="evenodd" d="M53.8919 151.029H61.1747C61.1752 150.898 61.1755 150.767 61.1755 150.635C61.1755 127.822 53.5898 109.327 44.2324 109.327C43.5419 109.327 42.8612 109.428 42.1924 109.624C48.7835 112.08 53.8925 129.505 53.8925 150.635C53.8925 150.767 53.8923 150.898 53.8919 151.029Z" fill="#02323E"/>
<path d="M43.5785 142.409V142.409C43.5785 158.077 21.8336 172.262 21.8336 156.594V156.594V146.208H20.3978C18.7598 146.208 17.432 145.342 17.432 144.274V142.507" stroke="#02323E" stroke-width="1.94466"/>
<path d="M34.2158 151.311L34.2158 165.008C34.2158 168.381 38.4076 171.115 43.5785 171.115M43.5786 142.409L43.5785 171.115M43.5785 171.115L43.5786 203.726" stroke="#02323E" stroke-width="1.94466"/>
<path d="M43.5784 136.659V177.665C51.3324 177.665 57.6183 173.564 57.6183 168.506V163.796M43.5784 136.659H42.3265C39.5186 136.659 37.2423 135.174 37.2423 133.342V129.325M43.5784 136.659V132.905H44.0389C47.0808 132.905 49.5468 131.297 49.5468 129.312V125.07M57.6183 163.796V155.835M57.6183 163.796H59.4051C61.979 163.796 64.0655 162.435 64.0655 160.756V156.515" stroke="#02323E" stroke-width="1.94466"/>
<path fill-rule="evenodd" clip-rule="evenodd" d="M75.1109 158.821H41.2261C41.2256 158.735 41.2253 158.649 41.2253 158.563C41.2253 143.642 48.811 131.547 58.1685 131.547C67.5259 131.547 75.1116 143.642 75.1116 158.563C75.1116 158.649 75.1114 158.735 75.1109 158.821Z" fill="#647D7D"/>
<path fill-rule="evenodd" clip-rule="evenodd" d="M50.4672 166.045H16.5824C16.5819 165.983 16.5817 165.921 16.5817 165.859C16.5817 155.004 24.1674 146.205 33.5248 146.205C42.8822 146.205 50.4679 155.004 50.4679 165.859C50.4679 165.921 50.4677 165.983 50.4672 166.045Z" fill="#647D7D"/>
<path fill-rule="evenodd" clip-rule="evenodd" d="M42.2826 166.045H50.4673C50.4678 165.983 50.4681 165.921 50.4681 165.859C50.4681 155.005 42.8824 146.205 33.5249 146.205C32.7354 146.205 31.9585 146.268 31.1976 146.389C37.4597 147.705 42.2832 155.921 42.2832 165.859C42.2832 165.921 42.283 165.983 42.2826 166.045Z" fill="#33575E"/>
<path fill-rule="evenodd" clip-rule="evenodd" d="M65.5431 158.822H75.1105C75.111 158.736 75.1112 158.65 75.1112 158.564C75.1112 143.644 67.5255 131.548 58.1681 131.548C57.2195 131.548 56.2891 131.673 55.383 131.912C61.1475 134.03 65.5437 145.156 65.5437 158.564C65.5437 158.65 65.5435 158.736 65.5431 158.822Z" fill="#33575E"/>
<path d="M244.095 201.473H193.859C193.858 201.285 193.858 201.098 193.858 200.91C193.858 168.292 205.104 141.849 218.977 141.849C232.85 141.849 244.097 168.292 244.097 200.91C244.097 201.098 244.096 201.285 244.095 201.473Z" fill="#33575E"/>
<path fill-rule="evenodd" clip-rule="evenodd" d="M233.298 201.472H244.095C244.096 201.285 244.096 201.097 244.096 200.91C244.096 168.291 232.85 141.848 218.977 141.848C217.953 141.848 216.944 141.992 215.952 142.272C225.724 145.784 233.299 170.698 233.299 200.91C233.299 201.097 233.298 201.285 233.298 201.472Z" fill="#02323E"/>
<path fill-rule="evenodd" clip-rule="evenodd" d="M269.535 202.654H219.299C219.298 202.584 219.298 202.513 219.298 202.442C219.298 190.161 230.544 180.206 244.417 180.206C258.29 180.206 269.536 190.161 269.536 202.442C269.536 202.513 269.536 202.584 269.535 202.654Z" fill="#647D7D"/>
<path fill-rule="evenodd" clip-rule="evenodd" d="M257.402 202.655H269.536C269.537 202.584 269.537 202.513 269.537 202.443C269.537 190.162 258.291 180.206 244.418 180.206C243.247 180.206 242.095 180.277 240.967 180.414C250.251 181.903 257.402 191.198 257.402 202.443C257.402 202.513 257.402 202.584 257.402 202.655Z" fill="#33575E"/>
<path fill-rule="evenodd" clip-rule="evenodd" d="M235.235 203.308H199.718C199.717 203.255 199.717 203.203 199.717 203.151C199.717 194.22 207.668 186.98 217.476 186.98C227.285 186.98 235.236 194.22 235.236 203.151C235.236 203.203 235.236 203.255 235.235 203.308Z" fill="#647D7D"/>
<path fill-rule="evenodd" clip-rule="evenodd" d="M225.207 203.308H235.236C235.236 203.256 235.236 203.204 235.236 203.152C235.236 194.221 227.285 186.981 217.477 186.981C216.482 186.981 215.507 187.055 214.557 187.198C220.6 188.466 225.208 195.126 225.208 203.152C225.208 203.204 225.207 203.256 225.207 203.308Z" fill="#33575E"/>
<path fill-rule="evenodd" clip-rule="evenodd" d="M246.317 203.319H226.651C226.635 203.193 226.626 203.066 226.626 202.938C226.626 199.981 231.04 197.583 236.484 197.583C241.928 197.583 246.341 199.981 246.341 202.938C246.341 203.066 246.333 203.193 246.317 203.319Z" fill="#95A29E"/>
<path d="M8.26288 66.0418H72.8369C71.2747 55.7192 58.9291 54.364 52.9516 54.9766C52.6953 51.3293 49.7528 43.6177 40.0333 41.9504C30.3138 40.283 25.4233 46.9293 24.193 50.4609C20.9942 51.2946 21.0147 54.3978 21.4248 55.8451C11.2132 53.8999 8.39536 61.8324 8.26288 66.0418Z" fill="#FFFAF1"/>
<path d="M273 102.573H215.344C212.598 97.4519 217.711 95.417 220.611 95.0396C221.223 89.906 225.305 79.492 236.746 78.9053C248.186 78.3186 253.247 85.9946 254.347 89.9059C257.867 88.7325 259.513 91.3098 259.897 92.7451C268.283 91.6968 272.126 98.86 273 102.573Z" fill="#FFFAF1"/>
<circle cx="23.0176" cy="123.533" r="1.97507" stroke="#02323E" stroke-width="0.972332"/>
<circle cx="171.622" cy="44.3747" r="1.97507" stroke="#02323E" stroke-width="0.972332"/>
<path fill-rule="evenodd" clip-rule="evenodd" d="M38.3626 206.477H20.3808C20.3659 206.326 20.3584 206.174 20.3584 206.021C20.3584 202.484 24.3938 199.617 29.3717 199.617C34.3496 199.617 38.385 202.484 38.385 206.021C38.385 206.174 38.3775 206.326 38.3626 206.477Z" fill="#647D7D"/>
<path fill-rule="evenodd" clip-rule="evenodd" d="M63.4495 206.456H30.973C30.9725 206.395 30.9723 206.333 30.9723 206.272C30.9723 195.591 38.2427 186.933 47.2113 186.933C56.1798 186.933 63.4502 195.591 63.4502 206.272C63.4502 206.333 63.45 206.395 63.4495 206.456Z" fill="#647D7D"/>
<path fill-rule="evenodd" clip-rule="evenodd" d="M54.2799 206.455H63.4497C63.4502 206.394 63.4504 206.333 63.4504 206.271C63.4504 195.591 56.18 186.932 47.2114 186.932C46.3022 186.932 45.4105 187.021 44.5421 187.192C50.067 188.708 54.2804 196.673 54.2804 206.271C54.2804 206.333 54.2803 206.394 54.2799 206.455Z" fill="#33575E"/>
<rect x="72.6837" y="82.2778" width="123.213" height="124.265" fill="#95A29E"/>
<path d="M105.245 206.336V173.216C105.245 165.92 110.397 159.597 117.635 157.342C125.264 154.965 132.831 152.12 134.12 150.029C135.409 152.12 142.977 154.965 150.606 157.342C157.844 159.597 162.995 165.92 162.995 173.216V206.336H105.245Z" fill="#33575E"/>
<rect width="112.087" height="15.886" transform="matrix(1 0 0 -1 78.4717 107.32)" fill="#FFFAF1"/>
<rect width="112.087" height="19.5187" transform="matrix(1 0 0 -1 78.4717 126.602)" fill="#C6C8BD"/>
<rect width="112.087" height="9.78887" transform="matrix(1 0 0 -1 78.4717 91.4896)" fill="#95A29E"/>
<rect width="112.087" height="5.68727" transform="matrix(1 0 0 -1 78.4722 112.083)" fill="#95A29E"/>
<path d="M130.795 97.6015C130.795 96.9185 131.201 96.2951 131.841 95.9945L133.278 95.3196L134.715 95.9945C135.354 96.2951 135.76 96.9185 135.76 97.6015V101.884H130.795L130.795 97.6015Z" fill="#95A29E"/>
<path d="M189.072 97.6015C189.072 96.9185 189.478 96.2951 190.117 95.9945L191.554 95.3196L192.991 95.9945C193.631 96.2951 194.037 96.9185 194.037 97.6015V101.884H189.072L189.072 97.6015Z" fill="#95A29E"/>
<path d="M122.471 97.6015C122.471 96.9185 122.876 96.2951 123.516 95.9945L124.953 95.3196L126.39 95.9945C127.03 96.2951 127.435 96.9185 127.435 97.6015V101.884H122.471L122.471 97.6015Z" fill="#95A29E"/>
<path d="M180.747 97.6015C180.747 96.9185 181.152 96.2951 181.792 95.9945L183.229 95.3196L184.666 95.9945C185.306 96.2951 185.711 96.9185 185.711 97.6015V101.884H180.747L180.747 97.6015Z" fill="#95A29E"/>
<path d="M114.145 97.6015C114.145 96.9185 114.551 96.2951 115.191 95.9945L116.628 95.3196L118.065 95.9945C118.705 96.2951 119.11 96.9185 119.11 97.6015V101.884H114.145L114.145 97.6015Z" fill="#95A29E"/>
<path d="M172.422 97.6015C172.422 96.9185 172.827 96.2951 173.467 95.9945L174.904 95.3196L176.341 95.9945C176.981 96.2951 177.386 96.9185 177.386 97.6015V101.884H172.422L172.422 97.6015Z" fill="#95A29E"/>
<path d="M105.82 97.6015C105.82 96.9185 106.225 96.2951 106.865 95.9945L108.302 95.3196L109.739 95.9945C110.379 96.2951 110.784 96.9185 110.784 97.6015V101.884H105.82L105.82 97.6015Z" fill="#95A29E"/>
<path d="M164.096 97.6015C164.096 96.9185 164.502 96.2951 165.142 95.9945L166.579 95.3196L168.016 95.9945C168.655 96.2951 169.061 96.9185 169.061 97.6015V101.884H164.096L164.096 97.6015Z" fill="#95A29E"/>
<path d="M97.4945 97.6015C97.4945 96.9185 97.9 96.2951 98.5398 95.9945L99.9768 95.3196L101.414 95.9945C102.054 96.2951 102.459 96.9185 102.459 97.6015V101.884H97.4945L97.4945 97.6015Z" fill="#95A29E"/>
<path d="M155.772 97.6015C155.772 96.9185 156.177 96.2951 156.817 95.9945L158.254 95.3196L159.691 95.9945C160.331 96.2951 160.736 96.9185 160.736 97.6015V101.884H155.772L155.772 97.6015Z" fill="#95A29E"/>
<path d="M89.1697 97.6015C89.1697 96.9185 89.5753 96.2951 90.2151 95.9945L91.652 95.3196L93.089 95.9945C93.7288 96.2951 94.1343 96.9185 94.1343 97.6015V101.884H89.1697L89.1697 97.6015Z" fill="#95A29E"/>
<path d="M147.446 97.6015C147.446 96.9185 147.851 96.2951 148.491 95.9945L149.928 95.3196L151.365 95.9945C152.005 96.2951 152.411 96.9185 152.411 97.6015V101.884H147.446L147.446 97.6015Z" fill="#95A29E"/>
<path d="M80.8445 97.6015C80.8445 96.9185 81.2501 96.2951 81.8899 95.9945L83.3268 95.3196L84.7638 95.9945C85.4036 96.2951 85.8091 96.9185 85.8091 97.6015V101.884H80.8445L80.8445 97.6015Z" fill="#95A29E"/>
<path d="M139.121 97.6015C139.121 96.9185 139.526 96.2951 140.166 95.9945L141.603 95.3196L143.04 95.9945C143.68 96.2951 144.085 96.9185 144.085 97.6015V101.884H139.121L139.121 97.6015Z" fill="#95A29E"/>
<path d="M113.841 118.331C113.841 116.978 114.644 115.742 115.912 115.147L118.759 113.809L121.607 115.147C122.874 115.742 123.678 116.978 123.678 118.331V126.817H113.841L113.841 118.331Z" fill="#33575E"/>
<path d="M86.7798 140.995C86.7798 140.073 87.3273 139.232 88.1911 138.826L90.131 137.915L92.071 138.826C92.9348 139.232 93.4823 140.073 93.4823 140.995V146.777H86.7798L86.7798 140.995Z" fill="#647D7D"/>
<path d="M173.89 140.995C173.89 140.073 174.438 139.232 175.302 138.826L177.242 137.915L179.182 138.826C180.045 139.232 180.593 140.073 180.593 140.995V146.777H173.89L173.89 140.995Z" fill="#647D7D"/>
<path d="M86.7798 158.452C86.7798 157.53 87.3273 156.688 88.1911 156.282L90.131 155.371L92.071 156.282C92.9348 156.688 93.4823 157.53 93.4823 158.452V164.234H86.7798L86.7798 158.452Z" fill="#647D7D"/>
<path d="M173.89 158.452C173.89 157.53 174.438 156.688 175.302 156.282L177.242 155.371L179.182 156.282C180.045 156.688 180.593 157.53 180.593 158.452V164.234H173.89L173.89 158.452Z" fill="#647D7D"/>
<path d="M86.7798 175.904C86.7798 174.982 87.3273 174.14 88.1911 173.735L90.131 172.823L92.071 173.735C92.9348 174.14 93.4823 174.982 93.4823 175.904V181.686H86.7798L86.7798 175.904Z" fill="#647D7D"/>
<path d="M173.89 175.904C173.89 174.982 174.438 174.14 175.302 173.735L177.242 172.823L179.182 173.735C180.045 174.14 180.593 174.982 180.593 175.904V181.686H173.89L173.89 175.904Z" fill="#647D7D"/>
<path d="M86.7798 193.356C86.7798 192.434 87.3273 191.593 88.1911 191.187L90.131 190.276L92.071 191.187C92.9348 191.593 93.4823 192.434 93.4823 193.356V199.138H86.7798L86.7798 193.356Z" fill="#647D7D"/>
<path d="M173.89 193.356C173.89 192.434 174.438 191.593 175.302 191.187L177.242 190.276L179.182 191.187C180.045 191.593 180.593 192.434 180.593 193.356V199.138H173.89L173.89 193.356Z" fill="#647D7D"/>
<path d="M171.058 118.331C171.058 116.978 171.861 115.742 173.129 115.147L175.976 113.809L178.824 115.147C180.091 115.742 180.895 116.978 180.895 118.331V126.817H171.058L171.058 118.331Z" fill="#33575E"/>
<path d="M99.4747 118.331C99.4747 116.978 100.278 115.742 101.546 115.147L104.393 113.809L107.24 115.147C108.508 115.742 109.312 116.978 109.312 118.331V126.817H99.4747L99.4747 118.331Z" fill="#33575E"/>
<path d="M156.692 118.331C156.692 116.978 157.495 115.742 158.763 115.147L161.61 113.809L164.457 115.147C165.725 115.742 166.529 116.978 166.529 118.331V126.817H156.692L156.692 118.331Z" fill="#33575E"/>
<path d="M85.109 118.331C85.109 116.978 85.9126 115.742 87.1803 115.147L90.0276 113.809L92.8748 115.147C94.1425 115.742 94.9461 116.978 94.9461 118.331V126.817H85.109L85.109 118.331Z" fill="#33575E"/>
<path d="M142.325 118.331C142.325 116.978 143.129 115.742 144.397 115.147L147.244 113.809L150.091 115.147C151.359 115.742 152.162 116.978 152.162 118.331V126.817H142.325L142.325 118.331Z" fill="#33575E"/>
<path d="M138.608 126.817V118.331C138.608 116.978 137.804 115.742 136.536 115.147L133.689 113.809L130.842 115.147C129.574 115.742 128.771 116.978 128.771 118.331L128.771 126.817" stroke="black" stroke-width="0.648221"/>
<path d="M99.8443 140.833V203.089" stroke="black" stroke-width="0.969443"/>
<path d="M168.184 140.833V203.089" stroke="black" stroke-width="0.969443"/>
<path fill-rule="evenodd" clip-rule="evenodd" d="M134.121 149.023C134.469 149.023 134.792 149.204 134.975 149.5C135.158 149.798 135.682 150.263 136.679 150.853C137.634 151.419 138.893 152.025 140.376 152.651C143.339 153.902 147.103 155.197 150.905 156.381C158.507 158.75 163.999 165.423 163.999 173.214V206.334H161.992V173.214C161.992 166.414 157.182 160.44 150.308 158.298C146.48 157.106 142.646 155.789 139.595 154.501C138.072 153.857 136.721 153.211 135.656 152.581C135.09 152.246 134.56 151.89 134.121 151.512C133.682 151.89 133.151 152.246 132.585 152.581C131.521 153.211 130.169 153.857 128.646 154.501C125.596 155.789 121.761 157.106 117.934 158.298C111.059 160.44 106.25 166.414 106.25 173.214V206.334H104.242V173.214C104.242 165.423 109.735 158.75 117.337 156.381C121.138 155.197 124.902 153.902 127.865 152.651C129.348 152.025 130.607 151.419 131.563 150.853C132.559 150.263 133.083 149.798 133.266 149.5C133.449 149.204 133.772 149.023 134.121 149.023Z" fill="white"/>
<g style="mix-blend-mode:multiply" opacity="0.4">
<path d="M79.3382 135.696L79.3382 130.163C81.255 130.542 155.366 130.321 187.128 130.163L187.128 135.696L183.331 139.191L180.279 136.381L177.226 139.191L174.174 136.381L171.121 139.191L168.069 136.381L165.016 139.191L161.964 136.381L158.911 139.191L155.859 136.381L152.806 139.191L149.754 136.381L146.701 139.191L143.648 136.381L140.596 139.191L137.543 136.381L134.491 139.191L131.438 136.381L128.386 139.191L125.333 136.381L122.281 139.191L119.228 136.381L116.176 139.191L113.123 136.381L110.071 139.191L107.018 136.381L103.966 139.191L100.913 136.381L97.8605 139.191L94.808 136.381L91.7556 139.191L88.7031 136.381L85.6506 139.191L79.3382 135.696Z" fill="#33575E"/>
</g>
<path d="M80.5172 130.919V127.424C82.4339 127.804 154.029 127.582 185.791 127.424V130.919L181.994 134.414L178.942 131.604L175.889 134.414L172.837 131.604L169.784 134.414L166.732 131.604L163.679 134.414L160.627 131.604L157.574 134.414L154.522 131.604L151.469 134.414L148.417 131.604L145.364 134.414L142.311 131.604L139.259 134.414L136.206 131.604L133.154 134.414L130.101 131.604L127.049 134.414L123.996 131.604L120.944 134.414L117.891 131.604L114.839 134.414L111.786 131.604L108.734 134.414L105.681 131.604L102.629 134.414L99.5763 131.604L96.5235 134.414L93.471 131.604L90.4186 134.414L87.3661 131.604L84.3136 134.414L80.5172 130.919Z" fill="#95A29E"/>
<ellipse cx="133.753" cy="119.707" rx="3.03977" ry="2.91396" fill="#95A29E"/>
<ellipse cx="111.285" cy="145.721" rx="3.96323" ry="3.79919" fill="#647D7D"/>
<ellipse cx="156.955" cy="145.721" rx="3.96323" ry="3.79919" fill="#647D7D"/>
<g style="mix-blend-mode:multiply" opacity="0.4">
<path d="M87.4242 81.8314H79.187L77.4629 206.519H92.2132L89.3149 146.936H92.9546L89.8895 115.718H93.3377V111.311L89.8895 109.475L87.4242 81.8314Z" fill="#33575E"/>
</g>
<path d="M81.6924 89.4479V83.5599H87.6884" stroke="black" stroke-width="0.648221"/>
<path d="M91.3431 89.4479V83.5599H97.339" stroke="black" stroke-width="0.648221"/>
<path d="M100.996 89.4479V83.5599H106.992" stroke="black" stroke-width="0.648221"/>
<path d="M110.647 89.4479V83.5599H116.643" stroke="black" stroke-width="0.648221"/>
<path d="M120.3 89.4479V83.5599H126.296" stroke="black" stroke-width="0.648221"/>
<path d="M129.95 89.4479V83.5599H135.946" stroke="black" stroke-width="0.648221"/>
<path d="M139.604 89.4479V83.5599H145.599" stroke="black" stroke-width="0.648221"/>
<path d="M149.254 89.4479V83.5599H155.25" stroke="black" stroke-width="0.648221"/>
<path d="M158.907 89.4479V83.5599H164.903" stroke="black" stroke-width="0.648221"/>
<path d="M168.56 89.4479V83.5599H174.556" stroke="black" stroke-width="0.648221"/>
<path d="M178.21 89.4479V83.5599H184.206" stroke="black" stroke-width="0.648221"/>
<path d="M196.511 0.164062L198.027 7.99563C198.212 8.94887 197.482 9.83404 196.511 9.83404C195.54 9.83404 194.809 8.94887 194.994 7.99563L196.511 0.164062Z" fill="#647D7D"/>
<path d="M188.302 20.0178H204.526L209.895 213.85H182.933L188.302 20.0178Z" fill="#FFFAF1"/>
<path d="M199.283 213.85H209.894L204.526 20.0178H201.396L199.283 213.85Z" fill="#C6C8BD"/>
<path opacity="0.5" d="M191.205 213.85L209.894 213.85L203.869 20.0179L193.576 20.0178L191.205 213.85Z" fill="#C6C8BD"/>
<rect x="186.625" y="63.0981" width="19.7707" height="12.9733" fill="#C6C8BD"/>
<rect x="187.154" y="32.4734" width="18.7132" height="8.67444" fill="#C6C8BD"/>
<rect x="188.238" y="18.8867" width="16.5447" height="4.16181" fill="#647D7D"/>
<path d="M188.272 18.9474H204.75V17.2675C204.75 14.5679 203.149 12.125 200.675 11.0465L196.511 9.23184L192.347 11.0465C189.872 12.125 188.272 14.5679 188.272 17.2675V18.9474Z" fill="#95A29E"/>
<rect width="25.8085" height="23.1262" transform="matrix(1 0 0 -1 183.606 132.853)" fill="#C6C8BD"/>
<path d="M194.294 126.034C194.294 125.387 194.683 124.797 195.296 124.512L196.674 123.873L198.051 124.512C198.664 124.797 199.053 125.387 199.053 126.034V130.686H194.294V126.034Z" fill="#33575E"/>
<path d="M194.294 113.609C194.294 112.962 194.683 112.372 195.296 112.087L196.674 111.448L198.051 112.087C198.664 112.372 199.053 112.962 199.053 113.609V118.261H194.294V113.609Z" fill="#33575E"/>
<path d="M194.44 69.7475C194.44 69.2021 194.768 68.7043 195.285 68.4643L196.447 67.9253L197.608 68.4643C198.125 68.7043 198.453 69.2021 198.453 69.7475V73.6702H194.44V69.7475Z" fill="#33575E"/>
<path d="M194.645 36.1779C194.645 35.6953 194.935 35.2549 195.393 35.0426L196.42 34.5658L197.448 35.0426C197.905 35.2549 198.195 35.6953 198.195 36.1779V39.6482H194.645V36.1779Z" fill="#33575E"/>
<path d="M195.002 27.6087C195.002 27.1974 195.249 26.822 195.639 26.641L196.515 26.2345L197.391 26.641C197.781 26.822 198.028 27.1974 198.028 27.6087V30.5671H195.002V27.6087Z" fill="#33575E"/>
<path d="M186.056 126.034C186.056 125.387 186.332 124.797 186.766 124.512L187.743 123.873L188.72 124.512C189.155 124.797 189.431 125.387 189.431 126.034V130.686H186.056V126.034Z" fill="#33575E"/>
<path d="M188.664 69.7475C188.664 69.2021 188.896 68.7043 189.263 68.4643L190.087 67.9253L190.91 68.4643C191.277 68.7043 191.51 69.2021 191.51 69.7475V73.6702H188.664V69.7475Z" fill="#33575E"/>
<path d="M189.575 36.1779C189.575 35.6953 189.78 35.2549 190.105 35.0426L190.833 34.5658L191.562 35.0426C191.887 35.2549 192.092 35.6953 192.092 36.1779V39.6482H189.575V36.1779Z" fill="#33575E"/>
<path d="M186.056 113.609C186.056 112.962 186.332 112.372 186.766 112.087L187.743 111.448L188.72 112.087C189.155 112.372 189.431 112.962 189.431 113.609V118.261H186.056V113.609Z" fill="#33575E"/>
<path d="M190.056 27.6087C190.056 27.1974 190.232 26.822 190.508 26.641L191.129 26.2345L191.751 26.641C192.027 26.822 192.203 27.1974 192.203 27.6087V30.5671H190.056V27.6087Z" fill="#33575E"/>
<path d="M201.644 69.7475C201.644 69.2021 201.877 68.7043 202.244 68.4643L203.067 67.9253L203.891 68.4643C204.258 68.7043 204.49 69.2021 204.49 69.7475V73.6702H201.644V69.7475Z" fill="#33575E"/>
<path d="M200.877 36.1779C200.877 35.6953 201.083 35.2549 201.408 35.0426L202.136 34.5658L202.865 35.0426C203.189 35.2549 203.395 35.6953 203.395 36.1779V39.6482H200.877V36.1779Z" fill="#33575E"/>
<path d="M203.215 126.034C203.215 125.387 203.491 124.797 203.926 124.512L204.903 123.873L205.879 124.512C206.314 124.797 206.59 125.387 206.59 126.034V130.686H203.215V126.034Z" fill="#33575E"/>
<path d="M203.215 113.609C203.215 112.962 203.491 112.372 203.926 112.087L204.903 111.448L205.879 112.087C206.314 112.372 206.59 112.962 206.59 113.609V118.261H203.215V113.609Z" fill="#33575E"/>
<path d="M200.959 27.6087C200.959 27.1974 201.135 26.822 201.411 26.641L202.032 26.2345L202.654 26.641C202.93 26.822 203.105 27.1974 203.105 27.6087V30.5671H200.959V27.6087Z" fill="#33575E"/>
<rect x="181.819" y="132.243" width="29.3821" height="4.88851" fill="#647D7D"/>
<rect x="181.819" y="105.944" width="29.3821" height="4.88851" fill="#647D7D"/>
<rect x="184.599" y="74.9257" width="23.823" height="4.88851" fill="#647D7D"/>
<rect x="185.15" y="62.5529" width="22.7214" height="4.32443" fill="#647D7D"/>
<rect x="185.974" y="40.9924" width="21.0741" height="3.00833" fill="#647D7D"/>
<rect x="185.974" y="30.4657" width="21.0741" height="3.00833" fill="#647D7D"/>
<rect x="182.415" y="120.203" width="28.1909" height="2.27022" fill="#647D7D"/>
<path d="M186.626 137.224H206.1" stroke="black" stroke-width="0.969443"/>
<path d="M186.626 139.829H206.1" stroke="black" stroke-width="0.969443"/>
<path d="M187.316 79.7911H205.411" stroke="black" stroke-width="0.969443"/>
<path d="M188.584 44.016H204.142" stroke="black" stroke-width="0.969443"/>
<path d="M187.316 82.3945H205.411" stroke="black" stroke-width="0.969443"/>
<path d="M188.584 46.2578H204.142" stroke="black" stroke-width="0.969443"/>
<path d="M186.626 142.648H206.1" stroke="black" stroke-width="0.969443"/>
<path d="M69.8069 0.164062L71.3234 7.99563C71.508 8.94887 70.7778 9.83404 69.8069 9.83404C68.8359 9.83404 68.1057 8.94887 68.2903 7.99563L69.8069 0.164062Z" fill="#647D7D"/>
<path d="M61.5979 20.0178H77.822L83.1908 213.85H56.2291L61.5979 20.0178Z" fill="#FFFAF1"/>
<path d="M72.5797 213.85H83.1906L77.8219 20.0178H74.6926L72.5797 213.85Z" fill="#C6C8BD"/>
<path opacity="0.5" d="M64.5008 213.85L83.1907 213.85L77.1653 20.0179L66.8722 20.0178L64.5008 213.85Z" fill="#C6C8BD"/>
<rect x="59.9211" y="63.0981" width="19.7707" height="12.9733" fill="#C6C8BD"/>
<rect x="60.4498" y="32.4734" width="18.7132" height="8.67444" fill="#C6C8BD"/>
<rect x="61.5344" y="18.8867" width="16.5447" height="4.16181" fill="#647D7D"/>
<path d="M61.5682 18.9474H78.0458V17.2675C78.0458 14.5679 76.4457 12.125 73.9709 11.0465L69.807 9.23184L65.6432 11.0465C63.1684 12.125 61.5682 14.5679 61.5682 17.2675V18.9474Z" fill="#95A29E"/>
<rect width="25.8085" height="23.1262" transform="matrix(1 0 0 -1 56.9027 132.853)" fill="#C6C8BD"/>
<path d="M67.5905 126.034C67.5905 125.387 67.9792 124.797 68.5925 124.512L69.9698 123.873L71.3471 124.512C71.9604 124.797 72.3491 125.387 72.3491 126.034V130.686H67.5905V126.034Z" fill="#33575E"/>
<path d="M67.5905 113.609C67.5905 112.962 67.9792 112.372 68.5925 112.087L69.9698 111.448L71.3471 112.087C71.9604 112.372 72.3491 112.962 72.3491 113.609V118.261H67.5905V113.609Z" fill="#33575E"/>
<path d="M67.7364 69.7475C67.7364 69.2021 68.0642 68.7043 68.5814 68.4643L69.7428 67.9253L70.9042 68.4643C71.4214 68.7043 71.7492 69.2021 71.7492 69.7475V73.6702H67.7364V69.7475Z" fill="#33575E"/>
<path d="M67.9414 36.1779C67.9414 35.6953 68.2314 35.2549 68.6889 35.0426L69.7164 34.5658L70.7439 35.0426C71.2014 35.2549 71.4914 35.6953 71.4914 36.1779V39.6482H67.9414V36.1779Z" fill="#33575E"/>
<path d="M68.2984 27.6087C68.2984 27.1974 68.5456 26.822 68.9356 26.641L69.8115 26.2345L70.6875 26.641C71.0775 26.822 71.3247 27.1974 71.3247 27.6087V30.5671H68.2984V27.6087Z" fill="#33575E"/>
<path d="M59.3521 126.034C59.3521 125.387 59.6278 124.797 60.0627 124.512L61.0395 123.873L62.0163 124.512C62.4512 124.797 62.7269 125.387 62.7269 126.034V130.686H59.3521V126.034Z" fill="#33575E"/>
<path d="M61.9601 69.7475C61.9601 69.2021 62.1925 68.7043 62.5593 68.4643L63.383 67.9253L64.2067 68.4643C64.5734 68.7043 64.8059 69.2021 64.8059 69.7475V73.6702H61.9601V69.7475Z" fill="#33575E"/>
<path d="M62.8709 36.1779C62.8709 35.6953 63.0766 35.2549 63.4011 35.0426L64.1298 34.5658L64.8585 35.0426C65.1829 35.2549 65.3886 35.6953 65.3886 36.1779V39.6482H62.8709V36.1779Z" fill="#33575E"/>
<path d="M59.3521 113.609C59.3521 112.962 59.6278 112.372 60.0627 112.087L61.0395 111.448L62.0163 112.087C62.4512 112.372 62.7269 112.962 62.7269 113.609V118.261H59.3521V113.609Z" fill="#33575E"/>
<path d="M63.3526 27.6087C63.3526 27.1974 63.528 26.822 63.8045 26.641L64.4257 26.2345L65.0469 26.641C65.3235 26.822 65.4989 27.1974 65.4989 27.6087V30.5671H63.3526V27.6087Z" fill="#33575E"/>
<path d="M74.9407 69.7475C74.9407 69.2021 75.1732 68.7043 75.5399 68.4643L76.3636 67.9253L77.1873 68.4643C77.5541 68.7043 77.7865 69.2021 77.7865 69.7475V73.6702H74.9407V69.7475Z" fill="#33575E"/>
<path d="M74.1737 36.1779C74.1737 35.6953 74.3794 35.2549 74.7039 35.0426L75.4326 34.5658L76.1613 35.0426C76.4857 35.2549 76.6914 35.6953 76.6914 36.1779V39.6482H74.1737V36.1779Z" fill="#33575E"/>
<path d="M76.5115 126.034C76.5115 125.387 76.7872 124.797 77.2221 124.512L78.1989 123.873L79.1757 124.512C79.6106 124.797 79.8863 125.387 79.8863 126.034V130.686H76.5115V126.034Z" fill="#33575E"/>
<path d="M76.5115 113.609C76.5115 112.962 76.7872 112.372 77.2221 112.087L78.1989 111.448L79.1757 112.087C79.6106 112.372 79.8863 112.962 79.8863 113.609V118.261H76.5115V113.609Z" fill="#33575E"/>
<path d="M74.2555 27.6087C74.2555 27.1974 74.4308 26.822 74.7074 26.641L75.3286 26.2345L75.9498 26.641C76.2264 26.822 76.4017 27.1974 76.4017 27.6087V30.5671H74.2555V27.6087Z" fill="#33575E"/>
<rect x="55.1158" y="132.243" width="29.3821" height="4.88851" fill="#647D7D"/>
<rect x="55.1158" y="105.944" width="29.3821" height="4.88851" fill="#647D7D"/>
<rect x="57.8954" y="74.9257" width="23.823" height="4.88851" fill="#647D7D"/>
<rect x="58.4463" y="62.5529" width="22.7214" height="4.32443" fill="#647D7D"/>
<rect x="59.2693" y="40.9924" width="21.0741" height="3.00833" fill="#647D7D"/>
<rect x="59.2693" y="30.4657" width="21.0741" height="3.00833" fill="#647D7D"/>
<rect x="55.7116" y="120.203" width="28.1909" height="2.27022" fill="#647D7D"/>
<path d="M59.9221 137.224H79.3961" stroke="black" stroke-width="0.969443"/>
<path d="M59.9221 139.829H79.3961" stroke="black" stroke-width="0.969443"/>
<path d="M60.6119 79.7911H78.7069" stroke="black" stroke-width="0.969443"/>
<path d="M61.8802 44.016H77.4387" stroke="black" stroke-width="0.969443"/>
<path d="M60.6119 82.3945H78.7069" stroke="black" stroke-width="0.969443"/>
<path d="M61.8802 46.2578H77.4387" stroke="black" stroke-width="0.969443"/>
<path d="M59.9221 142.648H79.3961" stroke="black" stroke-width="0.969443"/>
</svg>
