<svg width="53" height="78" viewBox="0 0 53 78" fill="none" xmlns="http://www.w3.org/2000/svg">
<path d="M31.0903 0.139308C16.359 -1.30953 2.98795 8.69448 0.429316 23.0794C-2.12932 37.4644 6.99042 51.3616 21.3417 54.9471C25.0979 55.9425 27.8753 59.0738 28.3768 62.8788V74.4986C28.1811 75.6772 28.7092 76.8586 29.7233 77.5108C30.7374 78.1631 32.0462 78.1631 33.0604 77.5108C34.0745 76.8586 34.6026 75.6772 34.4069 74.4986V62.4425C33.5828 51.9132 23.2512 49.2165 22.8492 49.0975C14.8579 47.0599 8.6575 40.84 6.72601 32.9235C4.79451 25.0069 7.44693 16.6849 13.6232 11.2833C18.2484 7.36806 24.3066 5.50981 30.3667 6.14754C35.5375 6.62961 40.2645 9.23468 43.3917 13.3257C48.8896 20.6739 47.6294 30.9762 40.5173 36.8232C37.7462 38.9948 34.1926 39.9482 30.6883 39.4605C27.0594 39.1727 23.6696 37.5608 21.1809 34.9395C17.7285 30.6863 17.9508 24.5811 21.7035 20.5832C24.8344 17.5833 29.7827 17.4794 33.04 20.3452C34.2272 21.4274 34.8614 22.9768 34.7687 24.5688C34.6794 25.8408 34.0152 27.0057 32.9596 27.7415C32.162 28.301 31.1676 28.5158 30.2059 28.3364C29.779 28.219 29.4396 27.8991 29.3014 27.4837C28.6575 25.9451 26.8712 25.2126 25.3115 25.8478C23.7518 26.483 23.0094 28.2452 23.6532 29.7839C24.5023 31.8986 26.3 33.5035 28.5175 34.1265C31.2887 34.826 34.2315 34.2816 36.5576 32.6393C39.058 30.8561 40.6382 28.0792 40.8791 25.0447C41.1056 21.6894 39.8268 18.4052 37.3817 16.0621C31.7127 10.8913 22.9321 11.0045 17.4021 16.3199C11.4573 22.5564 11.1135 32.1719 16.5981 38.8062C20.0731 42.6112 24.875 44.9834 30.0451 45.4489C35.2159 46.1351 40.446 44.7019 44.5173 41.4831C54.1226 33.5851 55.8073 19.6631 48.3564 9.75645C44.2266 4.29966 37.9599 0.809099 31.0903 0.139308Z" fill="white"/>
</svg>
