<svg width="76" height="10" viewBox="0 0 76 10" fill="none" xmlns="http://www.w3.org/2000/svg">
<path d="M0.148438 0.423182C0.150509 0.358964 0.175375 0.298886 0.220948 0.251241C0.272736 0.207739 0.341091 0.182877 0.409451 0.182877H2.20753C2.27796 0.182877 2.34425 0.207739 2.39604 0.251241C2.43954 0.298886 2.46647 0.358964 2.46854 0.423182V7.79782H5.84096C5.90725 7.79782 5.97355 7.82061 6.02119 7.86618C6.07091 7.90969 6.0999 7.97183 6.10197 8.03812V9.51719C6.09369 9.65183 5.98182 9.75749 5.84096 9.76577H0.444663C0.374231 9.76577 0.305877 9.73677 0.25616 9.68913C0.198158 9.6477 0.160867 9.58555 0.148438 9.51719V0.423182Z" fill="#E6CFAD"/>
<path fill-rule="evenodd" clip-rule="evenodd" d="M7.89377 4.05834C7.84405 4.35871 7.81919 4.66531 7.82126 4.96982C7.82126 5.28884 7.84612 5.60785 7.90205 5.92479C7.95591 6.25209 8.03878 6.57526 8.15478 6.88806C8.26872 7.21122 8.41371 7.52608 8.58565 7.82438C8.77416 8.13304 8.99581 8.42099 9.25061 8.68407C9.51577 8.9513 9.81821 9.18331 10.1497 9.37182C10.5205 9.5769 10.9203 9.73018 11.3366 9.82755C12.3061 10.0575 13.317 10.0575 14.2865 9.82755C14.6987 9.73018 15.0964 9.57483 15.4652 9.37182C15.7966 9.18331 16.099 8.9513 16.3642 8.68407C16.6252 8.4272 16.8489 8.13718 17.0292 7.82438C17.2011 7.52401 17.3461 7.21122 17.46 6.88806C17.5698 6.57319 17.6547 6.25209 17.7127 5.92479C17.7583 5.61821 17.7832 5.30748 17.7853 4.99675C17.7853 4.5638 17.7376 4.13085 17.6423 3.70825C17.5325 3.24837 17.3585 2.80714 17.1203 2.39284C16.8883 1.95367 16.5838 1.55386 16.2213 1.20584C15.8173 0.826753 15.3326 0.534675 14.8002 0.346166C14.1663 0.122441 13.4972 0.0126465 12.8219 0.0188611C12.3247 0.0167896 11.8296 0.0747959 11.347 0.190802C10.9306 0.288163 10.5308 0.441459 10.16 0.64654C9.50748 1.02356 8.96474 1.54973 8.57737 2.17533C8.40336 2.47363 8.26042 2.78849 8.14649 3.11165C8.03256 3.41824 7.94763 3.73518 7.89377 4.05627V4.05834ZM10.16 5.43384C10.1476 5.27848 10.1476 5.12311 10.16 4.96982C10.1538 4.77095 10.1662 4.57415 10.1952 4.37735C10.2387 4.12463 10.3112 3.87605 10.4107 3.63783C10.5184 3.36439 10.6696 3.10958 10.8602 2.88172C11.0673 2.6352 11.3325 2.44255 11.6329 2.31412C11.9974 2.14632 12.3972 2.06553 12.8012 2.07381C13.2031 2.06346 13.6008 2.14632 13.9612 2.31412C14.2616 2.44255 14.5268 2.63728 14.7339 2.88172C14.9183 3.11166 15.0654 3.36646 15.1751 3.63783C15.2684 3.87813 15.3409 4.12463 15.3906 4.37735C15.4217 4.56793 15.4382 4.76059 15.4362 4.95324C15.4362 4.9926 15.4362 5.03197 15.4403 5.0734C15.4444 5.15833 15.4486 5.2474 15.4362 5.34062C15.4175 5.47734 15.3823 5.64927 15.3367 5.83985C15.2932 6.0325 15.2311 6.21894 15.1482 6.39917C15.0674 6.59182 14.9618 6.77412 14.8333 6.93985C14.6946 7.12421 14.5268 7.28993 14.3383 7.42872C14.1394 7.57373 13.9136 7.68558 13.6733 7.75602C13.3833 7.84509 13.0788 7.88445 12.7743 7.87617C12.4304 7.88238 12.0886 7.82646 11.7675 7.71252C11.4961 7.62345 11.2496 7.47637 11.0487 7.28371C10.8664 7.10763 10.7069 6.91084 10.5722 6.69954C10.4417 6.49446 10.3444 6.27073 10.2843 6.03872C10.2263 5.84193 10.1849 5.641 10.1579 5.43799L10.16 5.43384Z" fill="#E6CFAD"/>
<path d="M20.1078 0.422492C20.1078 0.356203 20.1389 0.294054 20.1886 0.250552C20.2362 0.204978 20.3005 0.180116 20.3688 0.182188H22.1669C22.2332 0.184259 22.2974 0.209121 22.3471 0.250552C22.3968 0.294054 22.4258 0.356203 22.4279 0.422492V7.79713H25.8003C25.8687 7.79506 25.9329 7.81992 25.9806 7.86549C26.0303 7.909 26.0593 7.97115 26.0614 8.03743V9.5165C26.0614 9.58279 26.0303 9.64493 25.9806 9.68844C25.935 9.73815 25.8687 9.76508 25.8003 9.76508H20.404C20.3357 9.76508 20.2694 9.73815 20.2238 9.68844C20.1596 9.65115 20.1182 9.58693 20.1078 9.5165V0.422492Z" fill="#E6CFAD"/>
<path d="M28.5881 0.422492C28.5881 0.356203 28.6192 0.294054 28.6689 0.250552C28.7165 0.204978 28.7807 0.180116 28.8491 0.182188H30.6472C30.7135 0.182188 30.7777 0.20705 30.8274 0.250552C30.8771 0.294054 30.9061 0.356203 30.9082 0.422492V7.79713H34.2806C34.349 7.79506 34.4132 7.81992 34.4608 7.86549C34.5106 7.909 34.5396 7.97115 34.5416 8.03743V9.5165C34.5416 9.58279 34.5106 9.64493 34.4608 9.68844C34.4153 9.73815 34.349 9.76508 34.2806 9.76508H28.8843C28.816 9.76508 28.7497 9.73815 28.7041 9.68844C28.6399 9.65115 28.5964 9.58693 28.5881 9.5165V0.422492Z" fill="#E6CFAD"/>
<path d="M35.2441 0.38724C35.2068 0.347881 35.2068 0.289871 35.2441 0.250512C35.269 0.20701 35.3187 0.182148 35.3705 0.182148H37.4026C37.5601 0.182148 37.7051 0.260866 37.79 0.389301L39.6875 3.41374L41.585 0.389301C41.6596 0.25258 41.8108 0.17179 41.9724 0.182148H44.0149C44.0688 0.182148 44.1185 0.209082 44.1496 0.250512C44.1578 0.27537 44.1578 0.302299 44.1496 0.327158C44.1578 0.345801 44.1578 0.368596 44.1496 0.38724L40.8393 5.54327V9.51439C40.8393 9.58068 40.8082 9.64282 40.7585 9.68632C40.7129 9.73604 40.6466 9.76297 40.5783 9.76297H38.7802C38.7118 9.76297 38.6455 9.73604 38.6 9.68632C38.5502 9.64282 38.5212 9.58068 38.5192 9.51439V5.55363L35.2462 0.389301L35.2441 0.38724Z" fill="#E6CFAD"/>
<path fill-rule="evenodd" clip-rule="evenodd" d="M46.6124 0.423193V9.51514C46.6061 9.57728 46.6269 9.63942 46.6662 9.68706C46.7097 9.73885 46.776 9.76578 46.8464 9.76371H48.6445C48.7129 9.76371 48.7792 9.73471 48.8247 9.68706C48.8745 9.64356 48.9035 9.58143 48.9055 9.51514V6.60257H50.6415C51.2153 6.6005 51.7808 6.46377 52.2883 6.2069C52.8228 5.93967 53.2743 5.54608 53.6017 5.06341C53.9434 4.56831 54.1216 3.98829 54.1133 3.39583C54.1133 3.10582 54.0802 2.81788 54.0139 2.53615C53.9352 2.23371 53.8067 1.94369 53.6369 1.67647C53.4608 1.38852 53.2309 1.13372 52.9616 0.920352C52.6508 0.682127 52.2987 0.501915 51.9175 0.387981C51.4494 0.245045 50.9605 0.174613 50.4695 0.180828H46.8713C46.805 0.180828 46.7387 0.205677 46.6911 0.249179C46.6414 0.292681 46.6124 0.354831 46.6103 0.42112L46.6124 0.423193ZM50.6062 4.47925H48.9325L48.8972 2.19227H50.5255C50.7409 2.18606 50.9563 2.22336 51.1552 2.30414C51.3147 2.36836 51.4535 2.47608 51.5509 2.6128C51.6316 2.72466 51.6959 2.84481 51.7394 2.97324C51.7746 3.08511 51.7932 3.20111 51.7932 3.31711C51.8057 3.40205 51.8057 3.48906 51.7932 3.57399C51.7704 3.6755 51.7352 3.77285 51.6855 3.86607C51.6254 3.97172 51.5529 4.06908 51.4701 4.15815C51.3665 4.25137 51.2443 4.32595 51.1096 4.3736C50.9501 4.43782 50.7782 4.47096 50.6062 4.47718V4.47925Z" fill="#E6CFAD"/>
<path fill-rule="evenodd" clip-rule="evenodd" d="M55.9219 4.05837C55.8763 4.36081 55.8515 4.66533 55.8494 4.96985C55.8452 5.28265 55.8618 5.59544 55.9032 5.90617C55.9612 6.23347 56.0441 6.55456 56.156 6.86943C56.2699 7.19466 56.417 7.50954 56.5972 7.80577C56.7795 8.11857 57.0032 8.40858 57.2622 8.66545C57.5273 8.93267 57.8297 9.16469 58.1612 9.3532C58.532 9.55828 58.9318 9.71157 59.3482 9.80893C59.8308 9.92494 60.3259 9.98295 60.8231 9.98087C61.3203 9.98295 61.8153 9.92494 62.298 9.80893C62.7144 9.71157 63.1142 9.55828 63.485 9.3532C63.8164 9.16261 64.1189 8.93267 64.384 8.66545C64.645 8.40858 64.8688 8.11857 65.049 7.80577C65.2209 7.50747 65.3659 7.19259 65.4799 6.86943C65.5938 6.55663 65.6787 6.23347 65.7326 5.90617C65.7823 5.59958 65.8072 5.28886 65.8051 4.97813C65.8051 4.54518 65.7574 4.11223 65.6622 3.68964C65.5524 3.23183 65.3804 2.79059 65.1505 2.37421C64.9123 1.93919 64.6098 1.53939 64.2514 1.18723C63.8413 0.810213 63.3545 0.518123 62.8221 0.327542C62.1882 0.103817 61.5191 -0.00596483 60.8438 0.000249752C60.3466 0.000249752 59.8515 0.0561719 59.3689 0.172178C58.9525 0.269539 58.5527 0.422835 58.1819 0.627916C57.8546 0.820569 57.5522 1.05258 57.2829 1.31567C57.0219 1.57254 56.7981 1.86255 56.6179 2.17535C56.4377 2.47366 56.2906 2.78645 56.1767 3.11168C56.0669 3.42034 55.982 3.73521 55.924 4.05629L55.9219 4.05837ZM58.1964 5.43387C58.184 5.2785 58.184 5.12521 58.1964 4.96985C58.1798 4.76684 58.184 4.56175 58.2047 4.35874C58.2523 4.10602 58.329 3.85743 58.4284 3.6192C58.5341 3.34783 58.6832 3.09096 58.8697 2.86309C59.0789 2.61865 59.342 2.426 59.6423 2.29549C60.0069 2.1277 60.4067 2.04692 60.8107 2.0552C61.2125 2.04485 61.6103 2.1277 61.9707 2.29549C62.2732 2.42186 62.5383 2.61658 62.7434 2.86309C62.9298 3.09096 63.079 3.34783 63.1846 3.6192C63.2861 3.85743 63.3586 4.10394 63.4001 4.35874C63.4332 4.55968 63.4498 4.76476 63.4456 4.96985C63.4539 5.09828 63.4539 5.22879 63.4456 5.35722C63.427 5.49394 63.4001 5.66587 63.3566 5.85645C63.3048 6.04703 63.2426 6.23347 63.1681 6.41577C63.081 6.60635 62.9713 6.78864 62.8449 6.95643C62.7123 7.13666 62.5507 7.29617 62.3684 7.42875C62.1716 7.57376 61.9479 7.68354 61.7118 7.75604C61.4218 7.84305 61.1173 7.88448 60.8127 7.87619C60.473 7.88241 60.1333 7.82648 59.8143 7.71255C59.5408 7.62347 59.2902 7.47639 59.0851 7.28374C58.9028 7.10766 58.7433 6.91086 58.6086 6.69957C58.4823 6.49241 58.3849 6.27076 58.3207 6.03875C58.3041 5.97039 58.2876 5.9041 58.271 5.84195C58.2316 5.6928 58.1943 5.55816 58.1943 5.43594L58.1964 5.43387Z" fill="#E6CFAD"/>
<path fill-rule="evenodd" clip-rule="evenodd" d="M68.1359 9.51514C68.1276 9.57521 68.1442 9.63735 68.1815 9.68706C68.2271 9.73678 68.2933 9.76371 68.3617 9.76371H70.1598C70.2282 9.76578 70.2944 9.73678 70.34 9.68706C70.3897 9.64356 70.4187 9.58143 70.4208 9.51514V6.60257H72.1567C72.7326 6.59842 73.3002 6.46377 73.8119 6.2069C74.3422 5.9376 74.7896 5.544 75.1169 5.06341C75.4608 4.57039 75.6431 3.98829 75.6389 3.39583C75.6389 3.10582 75.6037 2.81788 75.5312 2.53615C75.4525 2.23371 75.3241 1.94369 75.1542 1.67647C74.9781 1.38852 74.7482 1.13372 74.4789 0.920352C74.1702 0.680055 73.816 0.499843 73.4349 0.387981C72.9708 0.245045 72.484 0.174613 71.9952 0.180828H68.3969C68.3306 0.180828 68.2664 0.205677 68.2167 0.249179C68.167 0.292681 68.138 0.354831 68.1359 0.42112V9.51514ZM72.1277 4.47925H70.4539L70.427 2.19227H72.0635C72.2769 2.18606 72.4882 2.22336 72.685 2.30414C72.8445 2.36836 72.9833 2.47608 73.0806 2.6128C73.2381 2.81788 73.323 3.06439 73.323 3.31711C73.3313 3.40205 73.3313 3.48906 73.323 3.57399C73.294 3.67343 73.2546 3.77285 73.207 3.86607C73.1469 3.97172 73.0744 4.06908 72.9916 4.15815C72.888 4.25137 72.7658 4.32595 72.6311 4.3736C72.4716 4.43782 72.2997 4.47096 72.1277 4.47718V4.47925Z" fill="#E6CFAD"/>
</svg>
