<svg width="260" height="177" viewBox="0 0 260 177" fill="none" xmlns="http://www.w3.org/2000/svg">
<path opacity="0.7" d="M245.999 91.4595H53.5904C53.5876 91.1741 53.5861 90.8884 53.5861 90.6024C53.5861 40.9 96.6603 0.608276 149.795 0.608276C202.93 0.608276 246.004 40.9 246.004 90.6024C246.004 90.8884 246.002 91.1741 245.999 91.4595Z" fill="#C6C8BD"/>
<path d="M5.22038 71.9358C5.74993 74.7887 7.93219 76.9587 10.5891 77.1202C7.99963 77.3519 5.88836 79.494 5.36874 82.2936C4.83914 79.4407 2.65687 77.2707 0 77.1092C2.58949 76.8775 4.7007 74.7354 5.22038 71.9358Z" fill="#C6C8BD"/>
<path d="M241.956 32.9434C242.485 35.7962 244.667 37.9663 247.324 38.1278C244.735 38.3595 242.624 40.5016 242.104 43.3012C241.574 40.4483 239.392 38.2783 236.735 38.1168C239.325 37.885 241.436 35.743 241.956 32.9434Z" fill="#C6C8BD"/>
<path d="M196.292 142.673L196.094 176.732H109.556L109.909 142.673C109.908 142.545 109.907 142.417 109.907 142.288C109.907 119.974 129.246 101.885 153.1 101.885C176.955 101.885 196.294 119.974 196.294 142.288C196.294 142.417 196.293 142.545 196.292 142.673Z" fill="#33575E"/>
<rect x="190.355" y="105.488" width="79.6232" height="72.2592" fill="#95A29D"/>
<path d="M214.078 110.592V174.805L247.25 174.583V110.592H214.078Z" fill="#FFFAF1"/>
<path d="M230.663 115.452C224.113 117.482 217.83 123.438 217.83 137.244H217.038L217.038 175.485H244.289L244.289 137.244H243.497C243.497 123.438 237.214 117.482 230.663 115.452Z" fill="#95A29D"/>
<rect x="190.355" y="67.9189" width="77.0322" height="6.0457" fill="#647D7D"/>
<rect x="190.355" y="79.1467" width="77.0322" height="15.6898" fill="#647D7D"/>
<rect x="208.619" y="81.9183" width="40.5049" height="10.1459" fill="#95A29D"/>
<path d="M190.355 97.2837H276.6L270.123 105.776H190.355V97.2837Z" fill="#33575E"/>
<path d="M190.355 76.7001H272.282L267.388 73.9652H190.355V76.7001Z" fill="#FFFAF1"/>
<path d="M190.355 76.7001H272.282L267.388 79.4349H190.355V76.7001Z" fill="#95A29D"/>
<path d="M190.355 94.6914H280.343L277.809 97.4263H190.355V94.6914Z" fill="#95A29D"/>
<path d="M204.484 76.2132C204.215 76.2132 203.997 76.4312 203.997 76.7001C203.997 76.969 204.215 77.187 204.484 77.187V76.2132ZM269.69 76.2132H204.484V77.187H269.69V76.2132Z" fill="black"/>
<path d="M238.858 106.512C238.791 106.773 238.948 107.038 239.208 107.105C239.468 107.173 239.734 107.016 239.801 106.756L238.858 106.512ZM241.446 96.483L238.858 106.512L239.801 106.756L242.389 96.7263L241.446 96.483Z" fill="#95A29D"/>
<path d="M250.272 106.672C250.169 106.92 250.287 107.205 250.536 107.308C250.784 107.411 251.069 107.293 251.172 107.044L250.272 106.672ZM254.517 96.4184L250.272 106.672L251.172 107.044L255.416 96.7909L254.517 96.4184Z" fill="#95A29D"/>
<path d="M226.435 106.23C226.405 106.497 226.597 106.738 226.864 106.768C227.132 106.798 227.373 106.606 227.403 106.339L226.435 106.23ZM227.525 96.5501L226.435 106.23L227.403 106.339L228.493 96.6591L227.525 96.5501Z" fill="#95A29D"/>
<path d="M220.056 137.378V177.711H241.271V137.378H220.056Z" fill="#647D7D"/>
<path d="M223.451 177.713V160.296C223.451 158.201 224.936 157.241 225.678 157.023C225.678 150.868 226.09 148.903 230.673 146.677C235.256 148.903 235.649 150.868 235.649 157.023C236.391 157.241 237.876 158.201 237.876 160.296V177.713H223.451Z" fill="#33575E"/>
<path d="M222.624 141.307C222.355 141.307 222.137 141.525 222.137 141.794C222.137 142.062 222.355 142.28 222.624 142.28V141.307ZM222.624 142.28H238.703V141.307H222.624V142.28Z" fill="black"/>
<ellipse cx="224.886" cy="144.472" rx="0.960294" ry="0.960287" fill="#95A29D"/>
<ellipse cx="236.439" cy="144.472" rx="0.960294" ry="0.960287" fill="#95A29D"/>
<ellipse cx="218.579" cy="114.827" rx="2.00908" ry="2.00907" fill="#95A29D"/>
<ellipse cx="242.749" cy="114.827" rx="2.00908" ry="2.00907" fill="#95A29D"/>
<rect width="79.6232" height="72.2592" transform="matrix(-1 0 0 1 107.717 105.488)" fill="#95A29D"/>
<path d="M83.9949 110.592V174.805L50.8228 174.583V110.592H83.9949Z" fill="#FFFAF1"/>
<path d="M67.4094 115.452C73.9599 117.478 80.243 123.42 80.243 137.195H81.0344L81.0345 175.349H53.784L53.784 137.195H54.5754C54.5754 123.42 60.859 117.478 67.4094 115.452Z" fill="#95A29D"/>
<rect width="77.0322" height="6.0457" transform="matrix(-1 0 0 1 107.717 67.9189)" fill="#647D7D"/>
<rect width="77.0322" height="15.6898" transform="matrix(-1 0 0 1 107.717 79.1467)" fill="#647D7D"/>
<path d="M107.717 97.2837H21.4727L27.9502 105.776H107.717V97.2837Z" fill="#33575E"/>
<path d="M107.717 76.7001H25.791L30.6851 73.9652H107.717V76.7001Z" fill="#FFFAF1"/>
<path d="M107.717 76.7001H25.791L30.6851 79.4349H107.717V76.7001Z" fill="#95A29D"/>
<path d="M107.717 94.6914H17.7302L20.2636 97.4263H107.717V94.6914Z" fill="#95A29D"/>
<path d="M93.589 76.2132C93.8579 76.2132 94.0759 76.4312 94.0759 76.7001C94.0759 76.969 93.8579 77.187 93.589 77.187V76.2132ZM28.3825 76.2132H93.589V77.187H28.3825V76.2132Z" fill="black"/>
<path d="M35.5313 106.04C35.6804 106.264 35.62 106.566 35.3962 106.716C35.1725 106.865 34.8701 106.804 34.721 106.58L35.5313 106.04ZM29.0609 96.3345L35.5313 106.04L34.721 106.58L28.2506 96.8747L29.0609 96.3345Z" fill="#95A29D"/>
<path d="M59.2156 106.512C59.2828 106.773 59.1262 107.038 58.8658 107.105C58.6054 107.173 58.3398 107.016 58.2726 106.756L59.2156 106.512ZM56.6276 96.483L59.2156 106.512L58.2726 106.756L55.6847 96.7263L56.6276 96.483Z" fill="#95A29D"/>
<path d="M47.8009 106.672C47.9037 106.92 47.7857 107.205 47.5372 107.308C47.2888 107.411 47.0039 107.293 46.9011 107.044L47.8009 106.672ZM43.5561 96.4184L47.8009 106.672L46.9011 107.044L42.6563 96.7909L43.5561 96.4184Z" fill="#95A29D"/>
<path d="M71.6378 106.23C71.6679 106.497 71.4757 106.738 71.2085 106.768C70.9412 106.798 70.7002 106.606 70.6701 106.339L71.6378 106.23ZM70.5479 96.5501L71.6378 106.23L70.6701 106.339L69.5802 96.6591L70.5479 96.5501Z" fill="#95A29D"/>
<path d="M78.0169 137.378V177.711H56.8021V137.378H78.0169Z" fill="#647D7D"/>
<path d="M74.6223 177.713V160.296C74.6223 158.201 73.1382 157.241 72.3961 157.023C72.3961 150.868 71.9842 148.903 67.4007 146.677C62.8173 148.903 62.4244 150.868 62.4244 157.023C61.6823 157.241 60.1982 158.201 60.1982 160.296V177.713H74.6223Z" fill="#33575E"/>
<path d="M75.4491 141.307C75.718 141.307 75.936 141.525 75.936 141.794C75.936 142.062 75.718 142.28 75.4491 142.28V141.307ZM75.4491 142.28H59.37V141.307H75.4491V142.28Z" fill="black"/>
<ellipse cx="0.960294" cy="0.960287" rx="0.960294" ry="0.960287" transform="matrix(-1 0 0 1 74.1467 143.512)" fill="#95A29D"/>
<ellipse cx="0.960294" cy="0.960287" rx="0.960294" ry="0.960287" transform="matrix(-1 0 0 1 62.5941 143.512)" fill="#95A29D"/>
<ellipse cx="2.00908" cy="2.00907" rx="2.00908" ry="2.00907" transform="matrix(-1 0 0 1 81.5029 112.818)" fill="#95A29D"/>
<ellipse cx="2.00908" cy="2.00907" rx="2.00908" ry="2.00907" transform="matrix(-1 0 0 1 57.334 112.818)" fill="#95A29D"/>
<rect x="52.8172" y="81.9183" width="40.5049" height="10.1459" fill="#95A29D"/>
<path fill-rule="evenodd" clip-rule="evenodd" d="M128.514 176.715L113.853 176.715V43.2028H191.082V176.82H174.537L174.84 142.383L172.615 139.955C172.615 126.281 170.592 114.97 151.47 108.102C133.154 115.207 130.402 125.933 130.402 139.607L128.364 142.226L128.514 176.715Z" fill="#95A29D"/>
<path fill-rule="evenodd" clip-rule="evenodd" d="M151.571 106.916L151.886 107.033C161.801 110.71 167.305 115.723 170.292 121.539C173.2 127.202 173.656 133.509 173.673 139.764L175.618 141.71V176.484C175.618 176.984 175.213 177.39 174.712 177.39C174.212 177.39 173.806 176.984 173.806 176.484V142.46L171.861 140.516V140.14C171.861 133.795 171.434 127.73 168.68 122.367C165.976 117.102 160.963 112.395 151.571 108.85C142.179 112.395 137.161 117.102 134.452 122.368C131.693 127.731 131.261 133.796 131.261 140.14V140.516L129.316 142.46V176.484C129.316 176.984 128.911 177.39 128.41 177.39C127.91 177.39 127.504 176.984 127.504 176.484V141.71L129.449 139.764C129.466 133.508 129.928 127.202 132.841 121.539C135.833 115.723 141.341 110.71 151.256 107.033L151.571 106.916Z" fill="#FFFAF1"/>
<path d="M264.617 47.9348C265.147 50.7868 267.328 52.9561 269.984 53.1176C267.396 53.3492 265.285 55.4906 264.766 58.2893C264.236 55.4373 262.055 53.268 259.399 53.1065C261.987 52.8749 264.098 50.7335 264.617 47.9348Z" fill="#C6C8BD"/>
<path d="M20.257 49.3195H85.7521C84.1677 38.8497 71.646 37.4751 65.5832 38.0965C65.3232 34.3972 62.3387 26.5757 52.4806 24.8845C42.6225 23.1934 37.6622 29.9345 36.4143 33.5164C33.1699 34.362 33.1907 37.5094 33.6067 38.9774C23.2494 37.0044 20.3913 45.0501 20.257 49.3195Z" fill="#FFFAF1"/>
<path d="M250.996 26.5822H192.518C189.732 21.3884 194.919 19.3245 197.86 18.9417C198.48 13.7349 202.621 3.17249 214.225 2.57742C225.829 1.98236 230.961 9.76778 232.077 13.7349C235.647 12.5447 237.317 15.1587 237.706 16.6145C246.212 15.5512 250.11 22.8166 250.996 26.5822Z" fill="#FFFAF1"/>
<ellipse cx="71.1192" cy="13.7881" rx="2.00325" ry="2.00323" stroke="#02323E" stroke-width="0.986199"/>
<ellipse cx="128.952" cy="101.975" rx="2.38725" ry="2.38723" fill="#647D7D"/>
<ellipse cx="174.173" cy="101.975" rx="2.38725" ry="2.38723" fill="#647D7D"/>
<rect x="114.87" y="73.3865" width="77.4177" height="18.7868" fill="#95A29D"/>
<rect x="117.663" y="74.6855" width="9.0003" height="16.1894" fill="#33575E"/>
<rect x="129.493" y="74.6855" width="9.0003" height="16.1894" fill="#33575E"/>
<rect x="141.323" y="74.6855" width="9.0003" height="16.1894" fill="#33575E"/>
<rect x="153.153" y="74.6855" width="9.0003" height="16.1894" fill="#33575E"/>
<rect x="164.981" y="74.6855" width="9.0003" height="16.1894" fill="#33575E"/>
<rect x="176.811" y="74.6855" width="9.0003" height="16.1894" fill="#33575E"/>
<rect x="114.87" y="91.8915" width="77.4177" height="2.16842" fill="#647D7D"/>
<rect x="114.87" y="71.1543" width="77.4177" height="2.16842" fill="#647D7D"/>
<rect x="114.87" y="44.9705" width="77.4177" height="2.16842" fill="#647D7D"/>
<rect x="114.87" y="36.9333" width="77.4177" height="6.44356" fill="#647D7D"/>
<path d="M119.54 50.0935C119.271 50.0935 119.053 50.3115 119.053 50.5804C119.053 50.8494 119.271 51.0674 119.54 51.0674L119.54 50.0935ZM119.54 51.0674L188.191 51.0673L188.191 50.0935L119.54 50.0935L119.54 51.0674Z" fill="black"/>
<path d="M120.696 37.3881C120.696 37.1191 120.478 36.9011 120.209 36.9011C119.94 36.9011 119.722 37.1191 119.722 37.3881H120.696ZM119.722 37.3881V42.3362H120.696V37.3881H119.722Z" fill="black"/>
<path d="M125.315 37.3881C125.315 37.1191 125.097 36.9011 124.828 36.9011C124.559 36.9011 124.341 37.1191 124.341 37.3881H125.315ZM124.341 37.3881V42.3362H125.315V37.3881H124.341Z" fill="black"/>
<path d="M129.934 37.3881C129.934 37.1191 129.716 36.9011 129.447 36.9011C129.178 36.9011 128.96 37.1191 128.96 37.3881H129.934ZM128.96 37.3881V42.3362H129.934V37.3881H128.96Z" fill="black"/>
<path d="M134.552 37.3881C134.552 37.1191 134.334 36.9011 134.065 36.9011C133.796 36.9011 133.578 37.1191 133.578 37.3881H134.552ZM133.578 37.3881V42.3362H134.552V37.3881H133.578Z" fill="black"/>
<path d="M139.171 37.3881C139.171 37.1191 138.953 36.9011 138.684 36.9011C138.415 36.9011 138.197 37.1191 138.197 37.3881H139.171ZM138.197 37.3881V42.3362H139.171V37.3881H138.197Z" fill="black"/>
<path d="M143.789 37.3881C143.789 37.1191 143.571 36.9011 143.303 36.9011C143.034 36.9011 142.816 37.1191 142.816 37.3881H143.789ZM142.816 37.3881V42.3362H143.789V37.3881H142.816Z" fill="black"/>
<path d="M148.408 37.3881C148.408 37.1191 148.19 36.9011 147.921 36.9011C147.652 36.9011 147.434 37.1191 147.434 37.3881H148.408ZM147.434 37.3881V42.3362H148.408V37.3881H147.434Z" fill="black"/>
<path d="M153.026 37.3881C153.026 37.1191 152.808 36.9011 152.539 36.9011C152.27 36.9011 152.052 37.1191 152.052 37.3881H153.026ZM152.052 37.3881V42.3362H153.026V37.3881H152.052Z" fill="black"/>
<path d="M157.647 37.3881C157.647 37.1191 157.429 36.9011 157.16 36.9011C156.891 36.9011 156.673 37.1191 156.673 37.3881H157.647ZM156.673 37.3881V42.3362H157.647V37.3881H156.673Z" fill="black"/>
<path d="M162.264 37.3881C162.264 37.1191 162.046 36.9011 161.777 36.9011C161.508 36.9011 161.29 37.1191 161.29 37.3881H162.264ZM161.29 37.3881V42.3362H162.264V37.3881H161.29Z" fill="black"/>
<path d="M166.884 37.3881C166.884 37.1191 166.666 36.9011 166.397 36.9011C166.128 36.9011 165.91 37.1191 165.91 37.3881H166.884ZM165.91 37.3881V42.3362H166.884V37.3881H165.91Z" fill="black"/>
<path d="M171.502 37.3881C171.502 37.1191 171.284 36.9011 171.015 36.9011C170.746 36.9011 170.528 37.1191 170.528 37.3881H171.502ZM170.528 37.3881V42.3362H171.502V37.3881H170.528Z" fill="black"/>
<path d="M176.121 37.3881C176.121 37.1191 175.903 36.9011 175.634 36.9011C175.365 36.9011 175.147 37.1191 175.147 37.3881H176.121ZM175.147 37.3881V42.3362H176.121V37.3881H175.147Z" fill="black"/>
<path d="M180.74 37.3881C180.74 37.1191 180.522 36.9011 180.253 36.9011C179.984 36.9011 179.766 37.1191 179.766 37.3881H180.74ZM179.766 37.3881V42.3362H180.74V37.3881H179.766Z" fill="black"/>
<path d="M185.357 37.3881C185.357 37.1191 185.139 36.9011 184.87 36.9011C184.602 36.9011 184.384 37.1191 184.384 37.3881H185.357ZM184.384 37.3881V42.3362H185.357V37.3881H184.384Z" fill="black"/>
<path d="M213.934 95.9583C213.934 95.6893 213.716 95.4713 213.447 95.4713C213.178 95.4713 212.96 95.6893 212.96 95.9583H213.934ZM212.96 95.9583V107.282H213.934V95.9583H212.96Z" fill="#95A29D"/>
<g style="mix-blend-mode:multiply" opacity="0.4">
<path d="M100.997 44.7636V36.9905H119.105V42.9131L121.847 44.7636V48.6399H119.105V69.6874L123.676 71.7372V75.6135H121.655V92.7868L125.104 94.8343V98.7107H121.655V158.634L123.449 160.361L124.59 160.717V168.113L127.516 174.446V176.567H92.5853V174.446L95.4872 168.164H97.084V168.113H95.5121V160.717H97.084V160.361H98.4468V98.7107H94.9974V94.8343H98.4468V75.6135H96.4261V71.7372H100.997V48.6399H98.2543V44.7636H100.997Z" fill="#33575E"/>
</g>
<rect width="20.5444" height="65.1771" transform="matrix(1 0 0 -1 94.2341 160.076)" fill="#95A29D"/>
<rect width="5.6342" height="65.1771" transform="matrix(1 0 0 -1 94.2341 160.076)" fill="#FFFAF1"/>
<path d="M94.2341 98.5319L99.8431 100.715L108.521 101.692L114.779 102.456V94.8989H94.2341V98.5319Z" fill="#647D7D"/>
<rect width="20.5444" height="20.8923" transform="matrix(1 0 0 -1 94.2341 93.4388)" fill="#95A29D"/>
<rect width="6.25734" height="20.8923" transform="matrix(1 0 0 -1 94.2341 93.4388)" fill="#FFFAF1"/>
<rect width="16.0302" height="24.8827" transform="matrix(1 0 0 -1 96.4919 70.2687)" fill="#95A29D"/>
<rect width="4.00022" height="24.8827" transform="matrix(1 0 0 -1 96.4919 70.2687)" fill="#FFFAF1"/>
<path d="M96.4968 47.3709L100.445 49.5536L107.939 50.5306L112.517 51.2952V43.7379H96.4968V47.3709Z" fill="#647D7D"/>
<rect width="16.0302" height="20.7058" transform="matrix(1 0 0 -1 96.4919 43.2581)" fill="#95A29D"/>
<rect width="4.04387" height="20.7058" transform="matrix(1 0 0 -1 96.4919 43.2581)" fill="#FFFAF1"/>
<path d="M96.4968 24.6672L100.737 26.8498L107.796 28.318L112.517 28.5914V21.0341H96.4968V24.6672Z" fill="#647D7D"/>
<rect x="91.1801" y="92.5393" width="26.6514" height="3.88392" fill="#95A29D"/>
<rect x="94.0638" y="42.3684" width="20.8852" height="3.88392" fill="#95A29D"/>
<rect x="94.9339" y="21.0111" width="19.1451" height="2.42743" fill="#95A29D"/>
<path d="M102.312 9.92688C99.1641 13.1736 97.1723 15.9792 96.5815 21.0097H112.279C111.762 16.0464 109.88 13.549 106.427 9.92688H102.312Z" fill="#95A29D"/>
<path d="M94.8994 103.016C94.6305 103.016 94.4125 103.234 94.4125 103.503C94.4125 103.772 94.6305 103.99 94.8994 103.99L94.8994 103.016ZM94.8994 103.99L113.784 103.99L113.784 103.016L94.8994 103.016L94.8994 103.99Z" fill="black"/>
<path d="M97.5352 60.1306C97.2662 60.1306 97.0482 60.3486 97.0482 60.6176C97.0482 60.8865 97.2662 61.1045 97.5352 61.1045L97.5352 60.1306ZM97.5352 61.1045L111.718 61.1045L111.718 60.1306L97.5352 60.1306L97.5352 61.1045Z" fill="black"/>
<path d="M108.903 97.5922C108.903 97.3232 108.685 97.1052 108.417 97.1052C108.148 97.1052 107.93 97.3232 107.93 97.5922H108.903ZM107.93 97.5922V156.24H108.903V97.5922H107.93Z" fill="black"/>
<path d="M108.259 47.439C108.259 47.17 108.041 46.952 107.772 46.952C107.503 46.952 107.285 47.17 107.285 47.439H108.259ZM107.285 47.439V67.9276H108.259V47.439H107.285Z" fill="black"/>
<path d="M108.243 24.6271C108.243 24.3582 108.025 24.1402 107.756 24.1402C107.487 24.1402 107.269 24.3582 107.269 24.6271H108.243ZM107.269 24.6271V40.4659H108.243V24.6271H107.269Z" fill="black"/>
<ellipse cx="104.211" cy="99.7719" rx="1.78995" ry="1.78994" fill="#33575E"/>
<ellipse cx="111.838" cy="99.7719" rx="1.16738" ry="1.78994" fill="#33575E"/>
<ellipse cx="96.8955" cy="99.7719" rx="1.16738" ry="1.78994" fill="#33575E"/>
<path d="M102.794 30.9597C102.794 29.8572 104.064 29.1957 104.064 29.1957C104.064 29.1957 105.334 29.7942 105.334 30.9597L105.334 36.2092H102.794L102.794 30.9597Z" fill="#647D7D"/>
<path d="M109.017 30.9597C109.017 29.8572 109.979 29.1957 109.979 29.1957C109.979 29.1957 110.941 29.7942 110.941 30.9597L110.941 36.2092H109.017L109.017 30.9597Z" fill="#647D7D"/>
<path d="M97.7408 30.9597C97.7408 29.8572 98.7027 29.1957 98.7027 29.1957C98.7027 29.1957 99.6646 29.7942 99.6646 30.9597L99.6646 36.2092H97.7409L97.7408 30.9597Z" fill="#647D7D"/>
<path d="M110.182 155.532H113.147V153.269C113.147 152.45 112.483 151.787 111.664 151.787C110.845 151.787 110.182 152.45 110.182 153.269V155.532Z" fill="#647D7D"/>
<rect width="3.68081" height="4.64992" transform="matrix(1 0 0 -1 109.824 158.514)" fill="#647D7D"/>
<path d="M95.6335 155.532H98.5985V153.269C98.5985 152.45 97.9348 151.787 97.116 151.787C96.2972 151.787 95.6335 152.45 95.6335 153.269V155.532Z" fill="#647D7D"/>
<rect width="3.68081" height="4.64992" transform="matrix(1 0 0 -1 95.2762 158.515)" fill="#647D7D"/>
<path d="M94.2341 75.2574L99.8431 77.44L108.521 78.417L114.779 79.1816V71.6243H94.2341V75.2574Z" fill="#647D7D"/>
<rect x="92.4458" y="69.3966" width="24.1219" height="3.88392" fill="#95A29D"/>
<path d="M108.259 74.9043C108.259 74.6354 108.041 74.4174 107.772 74.4174C107.503 74.4174 107.285 74.6354 107.285 74.9043H108.259ZM107.285 74.9043V91.3243H108.259V74.9043H107.285Z" fill="black"/>
<ellipse cx="104.254" cy="8.63674" rx="1.90836" ry="1.90835" fill="#95A29D"/>
<path d="M104.254 2.46082L104.74 7.69828H103.767L104.254 2.46082Z" fill="#95A29D"/>
<rect x="89.0454" y="172.307" width="30.9219" height="7.411" fill="#647D7D"/>
<rect x="91.6358" y="158.55" width="25.7402" height="7.92977" fill="#95A29D"/>
<path d="M89.0454 172.307H119.967L117.398 166.013H91.6142L89.0454 172.307Z" fill="#95A29D"/>
<path d="M93.0275 157.965C92.7586 157.965 92.5406 158.183 92.5406 158.452C92.5406 158.721 92.7586 158.939 93.0275 158.939L93.0275 157.965ZM93.0275 158.939L116.366 158.939L116.366 157.965L93.0275 157.965L93.0275 158.939Z" fill="black"/>
<path d="M93.0275 165.433C92.7586 165.433 92.5406 165.651 92.5406 165.92C92.5406 166.189 92.7586 166.407 93.0275 166.407L93.0275 165.433ZM93.0275 166.407L116.366 166.407L116.366 165.433L93.0275 165.433L93.0275 166.407Z" fill="black"/>
<g style="mix-blend-mode:multiply" opacity="0.4">
<path d="M191.042 71.5216V67.8099H208.675V69.4679L213.126 71.5216V75.4056H211.158V92.6124L214.517 94.6639V98.5478H211.158V158.588L212.905 160.318L214.016 160.675V168.086L216.866 174.431V177.829H182.851V174.431L185.677 168.136H187.232V168.086H185.701V160.675H187.232V160.318H188.559V98.5478H185.2V94.6639H188.559V75.4056H186.591V71.5216H191.042Z" fill="#33575E"/>
</g>
<rect width="20.5444" height="65.1771" transform="matrix(1 0 0 -1 184.497 160.076)" fill="#95A29D"/>
<rect width="5.42511" height="65.1771" transform="matrix(1 0 0 -1 184.513 160.076)" fill="#FFFAF1"/>
<path d="M184.497 98.5319L190.106 100.715L198.784 101.692L205.041 102.456V94.8989H184.497V98.5319Z" fill="#647D7D"/>
<rect width="20.5444" height="20.8923" transform="matrix(1 0 0 -1 184.497 93.4388)" fill="#95A29D"/>
<rect width="6.1903" height="20.8923" transform="matrix(1 0 0 -1 184.6 93.4388)" fill="#FFFAF1"/>
<rect width="16.0302" height="24.8827" transform="matrix(1 0 0 -1 186.753 70.2687)" fill="#95A29D"/>
<rect width="3.90427" height="24.8827" transform="matrix(1 0 0 -1 186.816 70.2687)" fill="#FFFAF1"/>
<path d="M186.759 47.3709L190.707 49.5536L198.202 50.5306L202.779 51.2952V43.7379H186.759V47.3709Z" fill="#647D7D"/>
<rect width="16.0302" height="20.7058" transform="matrix(1 0 0 -1 186.753 43.2581)" fill="#95A29D"/>
<rect width="4.06156" height="20.7058" transform="matrix(1 0 0 -1 186.729 43.2581)" fill="#FFFAF1"/>
<path d="M186.759 24.6672L191 26.8498L198.059 28.318L202.779 28.5914V21.0341H186.759V24.6672Z" fill="#647D7D"/>
<rect x="181.443" y="92.5393" width="26.6514" height="3.88392" fill="#95A29D"/>
<rect x="181.443" y="92.5393" width="26.6514" height="3.88392" fill="#95A29D"/>
<rect x="184.326" y="42.3684" width="20.8852" height="3.88392" fill="#95A29D"/>
<rect x="185.196" y="21.0111" width="19.1451" height="2.42743" fill="#95A29D"/>
<path d="M192.574 9.92688C189.427 13.1736 187.435 15.9792 186.844 21.0097H202.541C202.024 16.0464 200.143 13.549 196.69 9.92688H192.574Z" fill="#95A29D"/>
<path d="M185.162 103.016C184.893 103.016 184.675 103.234 184.675 103.503C184.675 103.772 184.893 103.99 185.162 103.99L185.162 103.016ZM185.162 103.99L204.047 103.99L204.047 103.016L185.162 103.016L185.162 103.99Z" fill="black"/>
<path d="M187.798 60.1306C187.529 60.1306 187.311 60.3486 187.311 60.6176C187.311 60.8865 187.529 61.1045 187.798 61.1045L187.798 60.1306ZM187.798 61.1045L201.981 61.1045L201.981 60.1306L187.798 60.1306L187.798 61.1045Z" fill="black"/>
<path d="M199.166 97.5922C199.166 97.3232 198.948 97.1052 198.679 97.1052C198.41 97.1052 198.192 97.3232 198.192 97.5922H199.166ZM198.192 97.5922V156.24H199.166V97.5922H198.192Z" fill="black"/>
<path d="M198.521 47.439C198.521 47.17 198.303 46.952 198.034 46.952C197.766 46.952 197.548 47.17 197.548 47.439H198.521ZM197.548 47.439V67.9276H198.521V47.439H197.548Z" fill="black"/>
<path d="M198.506 24.6271C198.506 24.3582 198.288 24.1402 198.019 24.1402C197.75 24.1402 197.532 24.3582 197.532 24.6271H198.506ZM197.532 24.6271V40.4659H198.506V24.6271H197.532Z" fill="black"/>
<ellipse cx="194.473" cy="99.7719" rx="1.78995" ry="1.78994" fill="#33575E"/>
<ellipse cx="202.1" cy="99.7719" rx="1.16738" ry="1.78994" fill="#33575E"/>
<ellipse cx="187.158" cy="99.7719" rx="1.16738" ry="1.78994" fill="#33575E"/>
<path d="M193.055 30.9597C193.055 29.8572 194.325 29.1957 194.325 29.1957C194.325 29.1957 195.596 29.7942 195.596 30.9597L195.596 36.2092H193.055L193.055 30.9597Z" fill="#647D7D"/>
<path d="M199.279 30.9597C199.279 29.8572 200.241 29.1957 200.241 29.1957C200.241 29.1957 201.203 29.7942 201.203 30.9597L201.203 36.2092H199.279L199.279 30.9597Z" fill="#647D7D"/>
<path d="M188.003 30.9597C188.003 29.8572 188.965 29.1957 188.965 29.1957C188.965 29.1957 189.927 29.7942 189.927 30.9597L189.927 36.2092H188.003L188.003 30.9597Z" fill="#647D7D"/>
<path d="M200.445 155.532H203.41V153.269C203.41 152.45 202.746 151.787 201.928 151.787C201.109 151.787 200.445 152.45 200.445 153.269V155.532Z" fill="#647D7D"/>
<rect width="3.68081" height="4.64992" transform="matrix(1 0 0 -1 200.087 158.514)" fill="#647D7D"/>
<path d="M185.896 155.532H188.861V153.269C188.861 152.45 188.197 151.787 187.378 151.787C186.56 151.787 185.896 152.45 185.896 153.269V155.532Z" fill="#647D7D"/>
<rect width="3.68081" height="4.64992" transform="matrix(1 0 0 -1 185.539 158.514)" fill="#647D7D"/>
<path d="M184.497 75.2574L190.106 77.44L198.784 78.417L205.041 79.1816V71.6243H184.497V75.2574Z" fill="#647D7D"/>
<rect x="182.708" y="69.3966" width="24.1219" height="3.88392" fill="#95A29D"/>
<path d="M198.521 74.9043C198.521 74.6354 198.303 74.4174 198.034 74.4174C197.766 74.4174 197.548 74.6354 197.548 74.9043H198.521ZM197.548 74.9043V91.3243H198.521V74.9043H197.548Z" fill="black"/>
<ellipse cx="194.518" cy="8.63674" rx="1.90836" ry="1.90835" fill="#95A29D"/>
<path d="M194.517 2.46082L195.004 7.69828H194.031L194.517 2.46082Z" fill="#95A29D"/>
<path d="M183.29 157.965C183.021 157.965 182.803 158.183 182.803 158.452C182.803 158.721 183.021 158.939 183.29 158.939L183.29 157.965ZM183.29 158.939L206.629 158.939L206.629 157.965L183.29 157.965L183.29 158.939Z" fill="black"/>
<rect x="179.308" y="172.307" width="30.9219" height="7.411" fill="#647D7D"/>
<rect x="181.898" y="158.55" width="25.7402" height="7.92977" fill="#95A29D"/>
<path d="M179.308 172.307H210.23L207.661 166.013H181.877L179.308 172.307Z" fill="#95A29D"/>
<path d="M183.29 165.433C183.021 165.433 182.803 165.651 182.803 165.92C182.803 166.189 183.021 166.407 183.29 166.407L183.29 165.433ZM183.29 166.407L206.629 166.407L206.629 165.433L183.29 165.433L183.29 166.407Z" fill="black"/>
</svg>
