<svg width="122" height="36" viewBox="0 0 122 36" fill="none" xmlns="http://www.w3.org/2000/svg">
<path fill-rule="evenodd" clip-rule="evenodd" d="M42.1822 20.4203L42.1822 22.2221L39.2012 22.2221L39.2012 27.3698C39.2012 28.4633 39.8223 29.0101 40.8529 29.0101C41.4101 28.9998 41.9606 28.9172 42.4944 28.7625L42.7663 30.585C42.2594 30.7879 41.3665 30.9289 40.5541 30.9289C38.4392 30.9289 37.1099 29.7184 37.1099 27.6277L37.1099 22.2221L35.3105 22.2221L35.3105 20.4203L37.1434 20.4203L37.1434 17.1191L39.1744 17.1191L39.1744 20.4203L42.1822 20.4203Z" fill="#E6CFAD"/>
<path fill-rule="evenodd" clip-rule="evenodd" d="M30.736 24.5034C29.4603 24.2352 28.987 23.912 28.987 23.2689C28.987 22.509 29.7457 22.0688 31.2731 22.0688C32.3238 22.0688 33.529 22.3061 34.348 22.6706L34.5696 20.8275C33.727 20.4527 32.4111 20.2051 31.169 20.2051C28.6412 20.2051 26.9561 21.4911 26.9561 23.238C26.9561 24.8267 27.9027 25.8617 29.6819 26.2296L31.1757 26.5391C32.4816 26.8073 33.0288 27.1821 33.0288 27.8802C33.0288 28.6745 32.3205 29.0597 30.8065 29.0597C29.6181 29.0459 28.4432 28.7914 27.3488 28.3169L27.097 30.1532C27.9699 30.6346 29.4033 30.9234 30.9407 30.9234C33.3947 30.9234 35.0564 29.9262 35.0564 27.8458C35.0564 26.0543 33.962 25.1774 31.9075 24.7476L30.736 24.5034Z" fill="#E6CFAD"/>
<path fill-rule="evenodd" clip-rule="evenodd" d="M47.8369 20.2051C44.762 20.2051 42.4658 22.5537 42.4658 25.566L42.4692 25.566C42.4692 28.5782 44.7653 30.9269 47.8403 30.9269C50.9152 30.9269 53.208 28.5782 53.208 25.566C53.208 22.5537 50.9119 20.2051 47.8369 20.2051ZM47.8403 28.9324C45.9335 28.9324 44.5505 27.4641 44.5505 25.566L44.5538 25.566C44.5538 23.6678 45.9335 22.1995 47.8403 22.1995C49.747 22.1995 51.1267 23.6678 51.1267 25.566C51.1267 27.4607 49.747 28.9324 47.8403 28.9324Z" fill="#E6CFAD"/>
<path fill-rule="evenodd" clip-rule="evenodd" d="M54.9406 20.4199L57.559 24.0443L60.1808 20.4199L62.581 20.4199L58.8548 25.4576L62.6649 30.7119L60.2681 30.7119L57.559 26.864L54.8533 30.7119L52.4531 30.7119L56.2633 25.4576L52.537 20.4199L54.9406 20.4199Z" fill="#E6CFAD"/>
<path d="M21.4611 20.2051C19.7457 20.2051 18.6077 20.8481 17.8591 21.8247L17.8591 20.4217L15.7744 20.4217L15.7744 35.0017L17.8591 35.0017L17.8591 29.3072C18.6077 30.2838 19.7457 30.9269 21.4611 30.9269C24.3346 30.9269 26.5368 28.7846 26.5368 25.621C26.5368 22.4574 24.3346 20.2051 21.4611 20.2051ZM21.2093 29.0184C19.2723 29.0184 17.8725 27.5191 17.8725 25.621C17.8725 23.7228 19.2623 22.117 21.2093 22.1135L21.2127 22.1135C23.1597 22.1135 24.4555 23.7228 24.4555 25.621C24.4521 27.5157 23.1563 29.0184 21.2093 29.0184Z" fill="#E6CFAD"/>
<path fill-rule="evenodd" clip-rule="evenodd" d="M5.05511 25.9356C5.36059 25.7155 5.64929 25.4679 5.91449 25.1962C6.41132 24.6908 6.82422 24.1096 7.13977 23.4735L7.13977 26.2175C7.13977 27.9231 8.05622 28.9066 9.60377 28.9066C11.195 28.9066 12.4471 27.9231 12.4471 26.2175L12.4471 20.4199L14.5284 20.4199L14.5284 30.7119L12.4337 30.7119L12.4337 29.4155C12.098 29.9416 11.1379 30.9251 9.27479 30.9251C6.51538 30.9251 5.05175 29.1679 5.05175 26.668L5.05511 25.9356Z" fill="#E6CFAD"/>
<path d="M0.500977 25.0504L0.500976 27.1137C2.25669 27.1137 3.94191 26.4087 5.19408 25.1501C5.80841 24.5312 6.29853 23.7953 6.63088 22.9837C6.96658 22.1722 7.13779 21.3022 7.13779 20.4219L5.09337 20.4219C5.09337 21.0305 4.97251 21.6323 4.74088 22.1963C4.50925 22.7568 4.17019 23.2657 3.74721 23.6956C2.8811 24.5587 1.71621 25.047 0.500977 25.0504Z" fill="#E6CFAD"/>
<g clip-path="url(#clip0_786_211)">
<path d="M121.551 18.1504H108.167V21.2341H113.315V32.6051H116.403V21.2341H121.551V18.1504Z" fill="#E6CFAD"/>
<path d="M101.151 29.7661C98.8065 29.7661 96.9 27.8645 96.9 25.5168C96.9 23.169 98.8048 21.2658 101.151 21.2658C102.926 21.2658 104.448 22.3564 105.082 23.9049H108.339C107.603 20.6097 104.664 18.1504 101.151 18.1504C97.0831 18.1504 93.7812 21.4489 93.7812 25.5168C93.7812 29.5846 97.0831 32.8848 101.151 32.8848C104.664 32.8848 107.601 30.4221 108.339 27.1302H105.082C104.448 28.6754 102.924 29.7661 101.151 29.7661Z" fill="#E6CFAD"/>
<path d="M85.7305 27.6938L87.1558 24.8465L88.5778 27.6938L87.1558 28.5197L94.682 32.8822L87.1558 17.8281L79.6279 32.8822L87.1558 28.5197L85.7305 27.6938Z" fill="#E6CFAD"/>
</g>
<path d="M29.8024 2.16096C29.8024 4.17505 34.1768 2.61203 34.1768 5.53876C34.1768 6.91296 33.0648 7.67874 31.5438 7.67874C30.0122 7.67874 28.9632 6.9759 28.6485 5.53876H29.6556C29.8863 6.38846 30.5262 6.85002 31.5543 6.85002C32.6243 6.85002 33.1907 6.37797 33.1907 5.66464C33.1907 3.48271 28.8164 5.10867 28.8164 2.2239C28.8164 1.19587 29.6765 0.293722 31.2501 0.293722C32.6243 0.293722 33.7257 0.954597 33.988 2.47566H32.9704C32.7501 1.53155 32.1417 1.12244 31.2291 1.12244C30.3269 1.12244 29.8024 1.53155 29.8024 2.16096Z" fill="#E6CFAD"/>
<path d="M36.2385 9.86067H35.3154V1.98262H36.2385V2.67497C36.6056 2.15047 37.1406 1.84625 37.8015 1.84625C39.2806 1.84625 40.1722 2.93722 40.1722 4.75201C40.1722 6.64022 39.2596 7.67874 37.8015 7.67874C37.1406 7.67874 36.6056 7.40599 36.2385 6.89198V9.86067ZM37.7386 2.6435C36.763 2.6435 36.2385 3.3883 36.2385 4.75201C36.2385 6.10523 36.784 6.88149 37.7386 6.88149C38.7036 6.88149 39.2281 6.12621 39.2281 4.75201C39.2281 3.40928 38.6827 2.6435 37.7386 2.6435Z" fill="#E6CFAD"/>
<path d="M43.625 7.67874C42.0305 7.67874 41.0759 6.58777 41.0759 4.77299C41.0759 2.88477 42.062 1.84625 43.625 1.84625C45.2195 1.84625 46.1741 2.9582 46.1741 4.77299C46.1741 6.65071 45.188 7.67874 43.625 7.67874ZM43.625 6.88149C44.6635 6.88149 45.23 6.1367 45.23 4.77299C45.23 3.41977 44.653 2.6435 43.625 2.6435C42.5865 2.6435 42.02 3.39879 42.02 4.77299C42.02 6.11572 42.597 6.88149 43.625 6.88149Z" fill="#E6CFAD"/>
<path d="M47.3623 7.55286V1.98262H48.2854V2.73791C48.663 2.15047 49.2715 1.84625 50.0058 1.84625C51.1911 1.84625 51.894 2.5386 51.894 3.82888V7.55286H50.9708V4.0177C50.9708 3.17849 50.5932 2.63301 49.754 2.63301C48.8309 2.63301 48.2854 3.46173 48.2854 4.25897V7.55286H47.3623Z" fill="#E6CFAD"/>
<path d="M54.0472 3.40928C54.0472 4.96181 57.6663 3.68202 57.6663 5.97934C57.6663 7.01786 56.7431 7.67874 55.4319 7.67874C54.1101 7.67874 53.187 7.04933 52.9772 5.73807H53.9003C54.0262 6.51434 54.6032 6.94443 55.4634 6.94443C56.3026 6.94443 56.7431 6.56679 56.7431 6.04228C56.7431 4.52122 53.166 5.78003 53.166 3.47222C53.166 2.62252 53.8269 1.84625 55.1906 1.84625C56.397 1.84625 57.2886 2.41272 57.467 3.79741H56.5438C56.4075 2.92673 55.9249 2.60154 55.1382 2.60154C54.4458 2.60154 54.0472 2.94771 54.0472 3.40928Z" fill="#E6CFAD"/>
<path d="M61.0299 7.67874C59.4354 7.67874 58.4808 6.58777 58.4808 4.77299C58.4808 2.88477 59.4669 1.84625 61.0299 1.84625C62.6244 1.84625 63.579 2.9582 63.579 4.77299C63.579 6.65071 62.5929 7.67874 61.0299 7.67874ZM61.0299 6.88149C62.0684 6.88149 62.6349 6.1367 62.6349 4.77299C62.6349 3.41977 62.0579 2.6435 61.0299 2.6435C59.9914 2.6435 59.4249 3.39879 59.4249 4.77299C59.4249 6.11572 60.0019 6.88149 61.0299 6.88149Z" fill="#E6CFAD"/>
<path d="M64.7671 7.55286V1.98262H65.6903V2.84281C66.0679 2.16096 66.6658 1.84625 67.3372 1.84625C67.5575 1.84625 67.7568 1.8987 67.8617 1.98262V2.81134C67.7043 2.75889 67.505 2.73791 67.2847 2.73791C66.1728 2.73791 65.6903 3.43026 65.6903 4.4373V7.55286H64.7671Z" fill="#E6CFAD"/>
<path d="M73.3929 5.73807C73.0887 7.03884 72.1551 7.67874 70.8858 7.67874C69.2703 7.67874 68.2947 6.58777 68.2947 4.77299C68.2947 2.88477 69.2703 1.84625 70.8333 1.84625C72.4068 1.84625 73.3509 2.92673 73.3509 4.69955V4.93034H69.2388C69.2913 6.17866 69.8787 6.88149 70.8858 6.88149C71.6725 6.88149 72.2285 6.50385 72.4278 5.73807H73.3929ZM70.8333 2.6435C69.9417 2.6435 69.4067 3.19947 69.2703 4.23799H72.3858C72.26 3.20996 71.704 2.6435 70.8333 2.6435Z" fill="#E6CFAD"/>
<path d="M76.6686 7.67874C75.1895 7.67874 74.2978 6.58777 74.2978 4.77299C74.2978 2.88477 75.2105 1.84625 76.6686 1.84625C77.3294 1.84625 77.8644 2.119 78.2316 2.63301V0H79.1547V7.55286H78.2316V6.85002C77.8644 7.37452 77.3294 7.67874 76.6686 7.67874ZM76.7315 6.88149C77.7071 6.88149 78.2316 6.1367 78.2316 4.77299C78.2316 3.41977 77.6861 2.6435 76.7315 2.6435C75.7664 2.6435 75.2419 3.39879 75.2419 4.77299C75.2419 6.11572 75.7874 6.88149 76.7315 6.88149Z" fill="#E6CFAD"/>
<path d="M83.6483 7.55286H82.7252V0H83.6483V2.67497C84.0154 2.15047 84.5504 1.84625 85.2113 1.84625C86.6904 1.84625 87.5821 2.93722 87.5821 4.75201C87.5821 6.64022 86.6694 7.67874 85.2113 7.67874C84.5504 7.67874 84.0154 7.40599 83.6483 6.89198V7.55286ZM85.1484 2.6435C84.1728 2.6435 83.6483 3.3883 83.6483 4.75201C83.6483 6.10523 84.1938 6.88149 85.1484 6.88149C86.1135 6.88149 86.638 6.12621 86.638 4.75201C86.638 3.40928 86.0925 2.6435 85.1484 2.6435Z" fill="#E6CFAD"/>
<path d="M88.8673 9.98655C88.6575 9.98655 88.4372 9.9341 88.3219 9.90263V9.18931H88.6051C89.2869 9.18931 89.4758 9.05294 90.0212 7.80462L90.2101 7.37452L87.9337 1.98262H88.9303L90.4408 5.66464L90.6926 6.40944L90.9444 5.66464L92.413 1.98262H93.3571L90.7555 8.28716C90.1996 9.62989 89.8324 9.98655 88.8673 9.98655Z" fill="#E6CFAD"/>
<defs>
<clipPath id="clip0_786_211">
<rect width="41.9602" height="16.4844" fill="white" transform="translate(79.5898 17.8281)"/>
</clipPath>
</defs>
</svg>
